<?xml version="1.0" encoding="UTF-8"?>
<svg id="Layer_2" data-name="Layer 2" xmlns="http://www.w3.org/2000/svg" xmlns:xlink="http://www.w3.org/1999/xlink" viewBox="0 0 759 513">
  <defs>
    <style>
      .cls-1 {
        fill: none;
      }

      .cls-2 {
        fill: #18182f;
      }

      .cls-3 {
        fill: #0c0c15;
      }

      .cls-4 {
        fill: #1c1c3c;
      }

      .cls-5 {
        fill: #1b1a36;
      }

      .cls-6 {
        fill: #0b0c14;
      }

      .cls-7 {
        fill: #1c1b3a;
      }

      .cls-8 {
        fill: #1b1b38;
      }

      .cls-9 {
        opacity: .8;
      }

      .cls-9, .cls-10 {
        isolation: isolate;
      }

      .cls-11 {
        fill: #131323;
      }

      .cls-12 {
        fill: #1b1b37;
      }

      .cls-13 {
        fill: #020203;
      }

      .cls-14 {
        fill: #121220;
      }

      .cls-15 {
        fill: #010101;
      }

      .cls-16 {
        fill: #090a11;
      }

      .cls-17 {
        fill: #030306;
      }

      .cls-18 {
        fill: #0c0d16;
      }

      .cls-19 {
        fill: #07070d;
      }

      .cls-20 {
        fill: #040408;
      }

      .cls-21 {
        fill: #121321;
      }

      .cls-22 {
        fill: #05060a;
      }

      .cls-23 {
        fill: #10101c;
      }

      .cls-24 {
        fill: #151628;
      }

      .cls-25 {
        fill: #0d0e18;
      }

      .cls-26 {
        fill: #17172b;
      }

      .cls-27 {
        fill: #0f0f1a;
      }

      .cls-28 {
        fill: #17172c;
      }

      .cls-29 {
        fill: #090a12;
      }

      .cls-30 {
        fill: #06060b;
      }

      .cls-31 {
        fill: #06070c;
      }

      .cls-32 {
        fill: #0d0e17;
      }

      .cls-33 {
        fill: #020204;
      }

      .cls-34 {
        fill: #191830;
      }

      .cls-35 {
        fill: #1b1b3a;
      }

      .cls-36 {
        fill: #0f101c;
      }

      .cls-37 {
        fill: #05050a;
      }

      .cls-38 {
        fill: #191932;
      }

      .cls-39 {
        fill: #17172d;
      }

      .cls-40 {
        fill: #0b0b13;
      }

      .cls-41 {
        fill: #191930;
      }

      .cls-42 {
        fill: #18182e;
      }

      .cls-43 {
        fill: #090910;
      }

      .cls-44 {
        fill: #11121f;
      }

      .cls-45 {
        fill: #18182d;
      }

      .cls-46 {
        fill: #1b1b39;
      }

      .cls-47 {
        fill: #131322;
      }

      .cls-48 {
        fill: #010102;
      }

      .cls-49 {
        fill: #fbfaf7;
      }

      .cls-50 {
        fill: #030305;
      }

      .cls-51 {
        fill: #0f101b;
      }

      .cls-52 {
        fill: #020305;
      }

      .cls-53 {
        fill: #0a0b12;
      }

      .cls-54 {
        fill: #141425;
      }

      .cls-55 {
        fill: #1c1b3b;
      }

      .cls-56 {
        fill: #11111e;
      }

      .cls-57 {
        fill: #1a1a33;
      }

      .cls-58 {
        fill: #191931;
      }

      .cls-59 {
        fill: #1a1a35;
      }

      .cls-60 {
        fill: #080910;
      }

      .cls-61 {
        fill: #161629;
      }

      .cls-62 {
        fill: #030407;
      }

      .cls-63 {
        fill: #0b0c15;
      }

      .cls-64 {
        fill: #040407;
      }

      .cls-65 {
        fill: #10111d;
      }

      .cls-66 {
        fill: #141424;
      }

      .cls-67 {
        fill: #0e0f19;
      }

      .cls-68 {
        fill: #16172a;
      }

      .cls-69 {
        fill: #10111e;
      }

      .cls-70 {
        fill: #151526;
      }

      .cls-71 {
        fill: #131424;
      }

      .cls-72 {
        fill: #0e0f1a;
      }

      .cls-73 {
        fill: #161628;
      }

      .cls-74 {
        fill: #07080e;
      }

      .cls-75 {
        fill: #08080f;
      }

      .cls-76 {
        fill: #1a1933;
      }

      .cls-77 {
        fill: #0a0b13;
      }

      .cls-78 {
        fill: #1a1a34;
      }

      .cls-79 {
        fill: #131423;
      }

      .cls-80 {
        fill: #121221;
      }

      .cls-81 {
        fill: #151527;
      }

      .cls-82 {
        fill: #010203;
      }

      .cls-83 {
        fill: #16162a;
      }

      .cls-84 {
        fill: #1a1a36;
      }

      .cls-85 {
        clip-path: url(#clippath);
      }

      .cls-86 {
        fill: #040509;
      }

      .cls-87 {
        fill: #141526;
      }
    </style>
    <clipPath id="clippath">
      <path class="cls-1" d="M415.86,218.62c0-34.99,18.92-59.62,46.24-59.62s46.06,24.64,46.06,59.62-18.92,59.62-46.06,59.62-46.24-24.64-46.24-59.62M483.16,218.62c0-22.49-7.14-38.2-21.07-38.2s-21.42,15.71-21.42,38.2,7.32,38.2,21.42,38.2,21.07-15.71,21.07-38.2"/>
    </clipPath>
  </defs>
  <g id="Layer_1-2" data-name="Layer 1">
    <g id="Rectangle_7162" data-name="Rectangle 7162" class="cls-9">
      <rect class="cls-49" width="759" height="513" rx="24" ry="24"/>
    </g>
    <g id="Maximize_ad_efficiency" data-name="Maximize ad efficiency">
      <g id="Path_16309" data-name="Path 16309">
        <path d="M283.4,161l-38.2,30.35,10.71,16.78,24.99-16.25v84.8h23.93v-115.68h-21.43Z"/>
      </g>
      <g id="Path_16310" data-name="Path 16310">
        <path d="M380.51,182.24h-60.87v-21.24h88.55v14.99l-48.92,100.68h-26.07l47.31-94.44Z"/>
      </g>
      <g id="Path_16311" data-name="Path 16311">
        <g class="cls-85">
          <polygon class="cls-17" points="440.77 180.42 440.67 180.6 440.67 180.42 440.77 180.42"/>
          <polygon class="cls-62" points="441.82 180.42 440.67 182.42 440.67 180.6 440.77 180.42 441.82 180.42"/>
          <polygon class="cls-64" points="442.87 180.42 440.67 184.25 440.67 182.42 441.82 180.42 442.87 180.42"/>
          <polygon class="cls-20" points="443.92 180.42 440.67 186.07 440.67 184.25 442.87 180.42 443.92 180.42"/>
          <polygon class="cls-86" points="444.96 180.42 440.67 187.9 440.67 186.07 443.92 180.42 444.96 180.42"/>
          <polygon class="cls-37" points="446.01 180.42 440.67 189.73 440.67 187.9 444.96 180.42 446.01 180.42"/>
          <polygon class="cls-22" points="447.06 180.42 440.67 191.55 440.67 189.73 446.01 180.42 447.06 180.42"/>
          <polygon class="cls-30" points="448.11 180.42 440.67 193.38 440.67 191.55 447.06 180.42 448.11 180.42"/>
          <polygon class="cls-31" points="449.15 180.42 440.67 195.2 440.67 193.38 448.11 180.42 449.15 180.42"/>
          <polygon class="cls-19" points="450.2 180.42 440.67 197.03 440.67 195.2 449.15 180.42 450.2 180.42"/>
          <polygon class="cls-74" points="451.25 180.42 440.67 198.85 440.67 197.03 450.2 180.42 451.25 180.42"/>
          <polygon class="cls-74" points="452.3 180.42 440.67 200.68 440.67 198.85 451.25 180.42 452.3 180.42"/>
          <polygon class="cls-75" points="453.35 180.42 440.67 202.5 440.67 200.68 452.3 180.42 453.35 180.42"/>
          <polygon class="cls-60" points="454.39 180.42 440.67 204.33 440.67 202.5 453.35 180.42 454.39 180.42"/>
          <polygon class="cls-43" points="455.44 180.42 440.67 206.15 440.67 204.33 454.39 180.42 455.44 180.42"/>
          <polygon class="cls-16" points="456.49 180.42 440.67 207.98 440.67 206.15 455.44 180.42 456.49 180.42"/>
          <polygon class="cls-29" points="457.54 180.42 440.67 209.81 440.67 207.98 456.49 180.42 457.54 180.42"/>
          <polygon class="cls-53" points="458.59 180.42 440.67 211.63 440.67 209.81 457.54 180.42 458.59 180.42"/>
          <polygon class="cls-77" points="459.63 180.42 440.67 213.46 440.67 211.63 458.59 180.42 459.63 180.42"/>
          <polygon class="cls-40" points="460.68 180.42 440.67 215.28 440.67 213.46 459.63 180.42 460.68 180.42"/>
          <polygon class="cls-6" points="461.73 180.42 440.67 217.11 440.67 215.28 460.68 180.42 461.73 180.42"/>
          <polygon class="cls-63" points="462.78 180.42 440.67 218.93 440.67 217.11 461.73 180.42 462.78 180.42"/>
          <polygon class="cls-3" points="463.82 180.42 440.67 220.76 440.67 218.93 462.78 180.42 463.82 180.42"/>
          <polygon class="cls-18" points="464.87 180.42 440.67 222.58 440.67 220.76 463.82 180.42 464.87 180.42"/>
          <polygon class="cls-18" points="465.92 180.42 440.67 224.41 440.67 222.58 464.87 180.42 465.92 180.42"/>
          <polygon class="cls-32" points="466.97 180.42 440.67 226.23 440.67 224.41 465.92 180.42 466.97 180.42"/>
          <polygon class="cls-25" points="468.02 180.42 440.67 228.06 440.67 226.23 466.97 180.42 468.02 180.42"/>
          <polygon class="cls-25" points="469.06 180.42 440.67 229.88 440.67 228.06 468.02 180.42 469.06 180.42"/>
          <polygon class="cls-67" points="470.11 180.42 440.67 231.71 440.67 229.88 469.06 180.42 470.11 180.42"/>
          <polygon class="cls-67" points="471.16 180.42 440.67 233.54 440.67 231.71 470.11 180.42 471.16 180.42"/>
          <polygon class="cls-72" points="472.21 180.42 440.67 235.36 440.67 233.54 471.16 180.42 472.21 180.42"/>
          <polygon class="cls-27" points="473.26 180.42 440.67 237.19 440.67 235.36 472.21 180.42 473.26 180.42"/>
          <polygon class="cls-51" points="474.3 180.42 440.67 239.01 440.67 237.19 473.26 180.42 474.3 180.42"/>
          <polygon class="cls-36" points="475.35 180.42 440.67 240.84 440.67 239.01 474.3 180.42 475.35 180.42"/>
          <polygon class="cls-23" points="476.4 180.42 440.67 242.66 440.67 240.84 475.35 180.42 476.4 180.42"/>
          <polygon class="cls-65" points="477.45 180.42 440.67 244.49 440.67 242.66 476.4 180.42 477.45 180.42"/>
          <polygon class="cls-65" points="478.5 180.42 440.67 246.31 440.67 244.49 477.45 180.42 478.5 180.42"/>
          <polygon class="cls-69" points="479.54 180.42 440.67 248.14 440.67 246.31 478.5 180.42 479.54 180.42"/>
          <polygon class="cls-56" points="480.59 180.42 440.67 249.96 440.67 248.14 479.54 180.42 480.59 180.42"/>
          <polygon class="cls-44" points="481.64 180.42 440.67 251.79 440.67 249.96 480.59 180.42 481.64 180.42"/>
          <polygon class="cls-44" points="482.69 180.42 440.67 253.62 440.67 251.79 481.64 180.42 482.69 180.42"/>
          <polygon class="cls-14" points="483.16 181.43 440.67 255.44 440.67 253.62 482.69 180.42 483.16 180.42 483.16 181.43"/>
          <polygon class="cls-14" points="483.16 183.25 440.93 256.82 440.67 256.82 440.67 255.44 483.16 181.43 483.16 183.25"/>
          <polygon class="cls-80" points="483.16 185.08 441.97 256.82 440.93 256.82 483.16 183.25 483.16 185.08"/>
          <polygon class="cls-21" points="483.16 186.9 443.02 256.82 441.97 256.82 483.16 185.08 483.16 186.9"/>
          <polygon class="cls-47" points="483.16 188.73 444.07 256.82 443.02 256.82 483.16 186.9 483.16 188.73"/>
          <polygon class="cls-47" points="483.16 190.55 445.12 256.82 444.07 256.82 483.16 188.73 483.16 190.55"/>
          <polygon class="cls-11" points="483.16 192.38 446.16 256.82 445.12 256.82 483.16 190.55 483.16 192.38"/>
          <polygon class="cls-79" points="483.16 194.2 447.21 256.82 446.16 256.82 483.16 192.38 483.16 194.2"/>
          <polygon class="cls-71" points="483.16 196.03 448.26 256.82 447.21 256.82 483.16 194.2 483.16 196.03"/>
          <polygon class="cls-66" points="483.16 197.85 449.31 256.82 448.26 256.82 483.16 196.03 483.16 197.85"/>
          <polygon class="cls-54" points="483.16 199.68 450.36 256.82 449.31 256.82 483.16 197.85 483.16 199.68"/>
          <polygon class="cls-54" points="483.16 201.51 451.4 256.82 450.36 256.82 483.16 199.68 483.16 201.51"/>
          <polygon class="cls-87" points="483.16 203.33 452.45 256.82 451.4 256.82 483.16 201.51 483.16 203.33"/>
          <polygon class="cls-70" points="483.16 205.16 453.5 256.82 452.45 256.82 483.16 203.33 483.16 205.16"/>
          <polygon class="cls-70" points="483.16 206.98 454.55 256.82 453.5 256.82 483.16 205.16 483.16 206.98"/>
          <polygon class="cls-81" points="483.16 208.81 455.6 256.82 454.55 256.82 483.16 206.98 483.16 208.81"/>
          <polygon class="cls-81" points="483.16 210.63 456.64 256.82 455.6 256.82 483.16 208.81 483.16 210.63"/>
          <polygon class="cls-24" points="483.16 212.46 457.69 256.82 456.64 256.82 483.16 210.63 483.16 212.46"/>
          <polygon class="cls-73" points="483.16 214.28 458.74 256.82 457.69 256.82 483.16 212.46 483.16 214.28"/>
          <polygon class="cls-61" points="483.16 216.11 459.79 256.82 458.74 256.82 483.16 214.28 483.16 216.11"/>
          <polygon class="cls-61" points="483.16 217.93 460.83 256.82 459.79 256.82 483.16 216.11 483.16 217.93"/>
          <polygon class="cls-83" points="483.16 219.76 461.88 256.82 460.83 256.82 483.16 217.93 483.16 219.76"/>
          <polygon class="cls-68" points="483.16 221.59 462.93 256.82 461.88 256.82 483.16 219.76 483.16 221.59"/>
          <polygon class="cls-26" points="483.16 223.41 463.98 256.82 462.93 256.82 483.16 221.59 483.16 223.41"/>
          <polygon class="cls-26" points="483.16 225.24 465.03 256.82 463.98 256.82 483.16 223.41 483.16 225.24"/>
          <polygon class="cls-28" points="483.16 227.06 466.07 256.82 465.03 256.82 483.16 225.24 483.16 227.06"/>
          <polygon class="cls-28" points="483.16 228.89 467.12 256.82 466.07 256.82 483.16 227.06 483.16 228.89"/>
          <polygon class="cls-39" points="483.16 230.71 468.17 256.82 467.12 256.82 483.16 228.89 483.16 230.71"/>
          <polygon class="cls-45" points="483.16 232.54 469.22 256.82 468.17 256.82 483.16 230.71 483.16 232.54"/>
          <polygon class="cls-42" points="483.16 234.36 470.27 256.82 469.22 256.82 483.16 232.54 483.16 234.36"/>
          <polygon class="cls-42" points="483.16 236.19 471.31 256.82 470.27 256.82 483.16 234.36 483.16 236.19"/>
          <polygon class="cls-2" points="483.16 238.01 472.36 256.82 471.31 256.82 483.16 236.19 483.16 238.01"/>
          <polygon class="cls-2" points="483.16 239.84 473.41 256.82 472.36 256.82 483.16 238.01 483.16 239.84"/>
          <polygon class="cls-34" points="483.16 241.66 474.46 256.82 473.41 256.82 483.16 239.84 483.16 241.66"/>
          <polygon class="cls-41" points="483.16 243.49 475.51 256.82 474.46 256.82 483.16 241.66 483.16 243.49"/>
          <polygon class="cls-58" points="483.16 245.32 476.55 256.82 475.51 256.82 483.16 243.49 483.16 245.32"/>
          <polygon class="cls-58" points="483.16 247.14 477.6 256.82 476.55 256.82 483.16 245.32 483.16 247.14"/>
          <polygon class="cls-58" points="483.16 248.97 478.65 256.82 477.6 256.82 483.16 247.14 483.16 248.97"/>
          <polygon class="cls-38" points="483.16 250.79 479.7 256.82 478.65 256.82 483.16 248.97 483.16 250.79"/>
          <polygon class="cls-38" points="483.16 252.62 480.74 256.82 479.7 256.82 483.16 250.79 483.16 252.62"/>
          <polygon class="cls-76" points="483.16 254.44 481.79 256.82 480.74 256.82 483.16 252.62 483.16 254.44"/>
          <polygon class="cls-57" points="483.16 256.27 482.84 256.82 481.79 256.82 483.16 254.44 483.16 256.27"/>
          <polygon class="cls-78" points="482.84 256.82 483.16 256.27 483.16 256.82 482.84 256.82"/>
          <polygon points="442.59 159 415.86 205.57 415.86 159 442.59 159"/>
          <polygon points="443.64 159 415.86 207.39 415.86 205.57 442.59 159 443.64 159"/>
          <polygon class="cls-15" points="444.69 159 415.86 209.22 415.86 207.39 443.64 159 444.69 159"/>
          <polygon class="cls-15" points="445.74 159 415.86 211.04 415.86 209.22 444.69 159 445.74 159"/>
          <polygon class="cls-48" points="446.78 159 415.86 212.87 415.86 211.04 445.74 159 446.78 159"/>
          <polygon class="cls-82" points="447.83 159 415.86 214.69 415.86 212.87 446.78 159 447.83 159"/>
          <polygon class="cls-13" points="448.88 159 415.86 216.52 415.86 214.69 447.83 159 448.88 159"/>
          <polygon class="cls-33" points="449.93 159 415.86 218.35 415.86 216.52 448.88 159 449.93 159"/>
          <polygon class="cls-52" points="450.97 159 415.86 220.17 415.86 218.35 449.93 159 450.97 159"/>
          <polygon class="cls-50" points="452.02 159 415.86 222 415.86 220.17 450.97 159 452.02 159"/>
          <polygon class="cls-17" points="453.07 159 415.86 223.82 415.86 222 452.02 159 453.07 159"/>
          <polygon class="cls-62" points="454.12 159 415.86 225.65 415.86 223.82 453.07 159 454.12 159"/>
          <polygon class="cls-64" points="455.17 159 415.86 227.47 415.86 225.65 454.12 159 455.17 159"/>
          <polygon class="cls-20" points="456.21 159 415.86 229.3 415.86 227.47 455.17 159 456.21 159"/>
          <polygon class="cls-86" points="457.26 159 415.86 231.12 415.86 229.3 456.21 159 457.26 159"/>
          <polygon class="cls-37" points="458.31 159 415.86 232.95 415.86 231.12 457.26 159 458.31 159"/>
          <polygon class="cls-22" points="459.36 159 415.86 234.77 415.86 232.95 458.31 159 459.36 159"/>
          <polygon class="cls-30" points="460.41 159 415.86 236.6 415.86 234.77 459.36 159 460.41 159"/>
          <polygon class="cls-31" points="461.45 159 415.86 238.43 415.86 236.6 460.41 159 461.45 159"/>
          <polygon class="cls-19" points="462.5 159 415.86 240.25 415.86 238.43 461.45 159 462.5 159"/>
          <polygon class="cls-74" points="463.55 159 415.86 242.08 415.86 240.25 462.5 159 463.55 159"/>
          <polygon class="cls-74" points="464.6 159 415.86 243.9 415.86 242.08 463.55 159 464.6 159"/>
          <polygon class="cls-75" points="465.65 159 415.86 245.73 415.86 243.9 464.6 159 465.65 159"/>
          <polygon class="cls-60" points="466.69 159 415.86 247.55 415.86 245.73 465.65 159 466.69 159"/>
          <polygon class="cls-43" points="467.74 159 415.86 249.38 415.86 247.55 466.69 159 467.74 159"/>
          <polygon class="cls-16" points="468.79 159 415.86 251.2 415.86 249.38 467.74 159 468.79 159"/>
          <polygon class="cls-29" points="469.84 159 415.86 253.03 415.86 251.2 468.79 159 469.84 159"/>
          <polygon class="cls-53" points="470.88 159 415.86 254.85 415.86 253.03 469.84 159 470.88 159"/>
          <polygon class="cls-77" points="471.93 159 415.86 256.68 415.86 254.85 470.88 159 471.93 159"/>
          <polygon class="cls-40" points="472.98 159 415.86 258.5 415.86 256.68 471.93 159 472.98 159"/>
          <polygon class="cls-6" points="474.03 159 415.86 260.33 415.86 258.5 472.98 159 474.03 159"/>
          <polygon class="cls-63" points="475.08 159 415.86 262.16 415.86 260.33 474.03 159 475.08 159"/>
          <polygon class="cls-3" points="476.12 159 415.86 263.98 415.86 262.16 475.08 159 476.12 159"/>
          <polygon class="cls-18" points="477.17 159 415.86 265.81 415.86 263.98 476.12 159 477.17 159"/>
          <polygon class="cls-18" points="478.22 159 415.86 267.63 415.86 265.81 477.17 159 478.22 159"/>
          <polygon class="cls-32" points="479.27 159 415.86 269.46 415.86 267.63 478.22 159 479.27 159"/>
          <polygon class="cls-25" points="480.32 159 415.86 271.28 415.86 269.46 479.27 159 480.32 159"/>
          <polygon class="cls-25" points="481.36 159 415.86 273.11 415.86 271.28 480.32 159 481.36 159"/>
          <polygon class="cls-67" points="482.41 159 415.86 274.93 415.86 273.11 481.36 159 482.41 159"/>
          <polygon class="cls-67" points="483.46 159 415.86 276.76 415.86 274.93 482.41 159 483.46 159"/>
          <polygon class="cls-72" points="484.51 159 416.05 278.25 415.86 278.25 415.86 276.76 483.46 159 484.51 159"/>
          <polygon class="cls-27" points="485.55 159 417.1 278.25 416.05 278.25 484.51 159 485.55 159"/>
          <polygon class="cls-51" points="486.6 159 418.15 278.25 417.1 278.25 485.55 159 486.6 159"/>
          <polygon class="cls-36" points="487.65 159 419.2 278.25 418.15 278.25 486.6 159 487.65 159"/>
          <polygon class="cls-23" points="488.7 159 420.24 278.25 419.2 278.25 487.65 159 488.7 159"/>
          <polygon class="cls-65" points="489.75 159 421.29 278.25 420.24 278.25 488.7 159 489.75 159"/>
          <polygon class="cls-65" points="490.79 159 422.34 278.25 421.29 278.25 489.75 159 490.79 159"/>
          <polygon class="cls-69" points="491.84 159 423.39 278.25 422.34 278.25 490.79 159 491.84 159"/>
          <polygon class="cls-56" points="492.89 159 424.43 278.25 423.39 278.25 491.84 159 492.89 159"/>
          <polygon class="cls-44" points="493.94 159 425.48 278.25 424.43 278.25 492.89 159 493.94 159"/>
          <polygon class="cls-44" points="494.99 159 426.53 278.25 425.48 278.25 493.94 159 494.99 159"/>
          <polygon class="cls-14" points="496.03 159 427.58 278.25 426.53 278.25 494.99 159 496.03 159"/>
          <polygon class="cls-14" points="497.08 159 428.63 278.25 427.58 278.25 496.03 159 497.08 159"/>
          <polygon class="cls-80" points="498.13 159 429.67 278.25 428.63 278.25 497.08 159 498.13 159"/>
          <polygon class="cls-21" points="499.18 159 430.72 278.25 429.67 278.25 498.13 159 499.18 159"/>
          <polygon class="cls-47" points="500.22 159 431.77 278.25 430.72 278.25 499.18 159 500.22 159"/>
          <polygon class="cls-47" points="501.27 159 432.82 278.25 431.77 278.25 500.22 159 501.27 159"/>
          <polygon class="cls-11" points="502.32 159 433.87 278.25 432.82 278.25 501.27 159 502.32 159"/>
          <polygon class="cls-79" points="503.37 159 434.91 278.25 433.87 278.25 502.32 159 503.37 159"/>
          <polygon class="cls-71" points="504.42 159 435.96 278.25 434.91 278.25 503.37 159 504.42 159"/>
          <polygon class="cls-66" points="505.46 159 437.01 278.25 435.96 278.25 504.42 159 505.46 159"/>
          <polygon class="cls-54" points="506.51 159 438.06 278.25 437.01 278.25 505.46 159 506.51 159"/>
          <polygon class="cls-54" points="507.56 159 439.11 278.25 438.06 278.25 506.51 159 507.56 159"/>
          <polygon class="cls-87" points="508.16 159.79 440.15 278.25 439.11 278.25 507.56 159 508.16 159 508.16 159.79"/>
          <polygon class="cls-70" points="508.16 161.61 441.2 278.25 440.15 278.25 508.16 159.79 508.16 161.61"/>
          <polygon class="cls-70" points="508.16 163.44 442.25 278.25 441.2 278.25 508.16 161.61 508.16 163.44"/>
          <polygon class="cls-81" points="508.16 165.27 443.3 278.25 442.25 278.25 508.16 163.44 508.16 165.27"/>
          <polygon class="cls-81" points="508.16 167.09 444.34 278.25 443.3 278.25 508.16 165.27 508.16 167.09"/>
          <polygon class="cls-24" points="508.16 168.92 445.39 278.25 444.34 278.25 508.16 167.09 508.16 168.92"/>
          <polygon class="cls-73" points="508.16 170.74 446.44 278.25 445.39 278.25 508.16 168.92 508.16 170.74"/>
          <polygon class="cls-61" points="508.16 172.57 447.49 278.25 446.44 278.25 508.16 170.74 508.16 172.57"/>
          <polygon class="cls-61" points="508.16 174.39 448.54 278.25 447.49 278.25 508.16 172.57 508.16 174.39"/>
          <polygon class="cls-83" points="508.16 176.22 449.58 278.25 448.54 278.25 508.16 174.39 508.16 176.22"/>
          <polygon class="cls-68" points="508.16 178.04 450.63 278.25 449.58 278.25 508.16 176.22 508.16 178.04"/>
          <polygon class="cls-26" points="508.16 179.87 451.68 278.25 450.63 278.25 508.16 178.04 508.16 179.87"/>
          <polygon class="cls-26" points="508.16 181.69 452.73 278.25 451.68 278.25 508.16 179.87 508.16 181.69"/>
          <polygon class="cls-28" points="508.16 183.52 453.78 278.25 452.73 278.25 508.16 181.69 508.16 183.52"/>
          <polygon class="cls-28" points="508.16 185.35 454.82 278.25 453.78 278.25 508.16 183.52 508.16 185.35"/>
          <polygon class="cls-39" points="508.16 187.17 455.87 278.25 454.82 278.25 508.16 185.35 508.16 187.17"/>
          <polygon class="cls-45" points="508.16 189 456.92 278.25 455.87 278.25 508.16 187.17 508.16 189"/>
          <polygon class="cls-42" points="508.16 190.82 457.97 278.25 456.92 278.25 508.16 189 508.16 190.82"/>
          <polygon class="cls-42" points="508.16 192.65 459.01 278.25 457.97 278.25 508.16 190.82 508.16 192.65"/>
          <polygon class="cls-2" points="508.16 194.47 460.06 278.25 459.01 278.25 508.16 192.65 508.16 194.47"/>
          <polygon class="cls-2" points="508.16 196.3 461.11 278.25 460.06 278.25 508.16 194.47 508.16 196.3"/>
          <polygon class="cls-34" points="508.16 198.12 462.16 278.25 461.11 278.25 508.16 196.3 508.16 198.12"/>
          <polygon class="cls-41" points="508.16 199.95 463.21 278.25 462.16 278.25 508.16 198.12 508.16 199.95"/>
          <polygon class="cls-58" points="508.16 201.77 464.25 278.25 463.21 278.25 508.16 199.95 508.16 201.77"/>
          <polygon class="cls-58" points="508.16 203.6 465.3 278.25 464.25 278.25 508.16 201.77 508.16 203.6"/>
          <polygon class="cls-58" points="508.16 205.42 466.35 278.25 465.3 278.25 508.16 203.6 508.16 205.42"/>
          <polygon class="cls-38" points="508.16 207.25 467.4 278.25 466.35 278.25 508.16 205.42 508.16 207.25"/>
          <polygon class="cls-38" points="508.16 209.08 468.45 278.25 467.4 278.25 508.16 207.25 508.16 209.08"/>
          <polygon class="cls-76" points="508.16 210.9 469.49 278.25 468.45 278.25 508.16 209.08 508.16 210.9"/>
          <polygon class="cls-57" points="508.16 212.73 470.54 278.25 469.49 278.25 508.16 210.9 508.16 212.73"/>
          <polygon class="cls-78" points="508.16 214.55 471.59 278.25 470.54 278.25 508.16 212.73 508.16 214.55"/>
          <polygon class="cls-78" points="508.16 216.38 472.64 278.25 471.59 278.25 508.16 214.55 508.16 216.38"/>
          <polygon class="cls-59" points="508.16 218.2 473.69 278.25 472.64 278.25 508.16 216.38 508.16 218.2"/>
          <polygon class="cls-59" points="508.16 220.03 474.73 278.25 473.69 278.25 508.16 218.2 508.16 220.03"/>
          <polygon class="cls-84" points="508.16 221.85 475.78 278.25 474.73 278.25 508.16 220.03 508.16 221.85"/>
          <polygon class="cls-5" points="508.16 223.68 476.83 278.25 475.78 278.25 508.16 221.85 508.16 223.68"/>
          <polygon class="cls-5" points="508.16 225.5 477.88 278.25 476.83 278.25 508.16 223.68 508.16 225.5"/>
          <polygon class="cls-12" points="508.16 227.33 478.92 278.25 477.88 278.25 508.16 225.5 508.16 227.33"/>
          <polygon class="cls-12" points="508.16 229.16 479.97 278.25 478.92 278.25 508.16 227.33 508.16 229.16"/>
          <polygon class="cls-8" points="508.16 230.98 481.02 278.25 479.97 278.25 508.16 229.16 508.16 230.98"/>
          <polygon class="cls-8" points="508.16 232.81 482.07 278.25 481.02 278.25 508.16 230.98 508.16 232.81"/>
          <polygon class="cls-46" points="508.16 234.63 483.12 278.25 482.07 278.25 508.16 232.81 508.16 234.63"/>
          <polygon class="cls-46" points="508.16 236.46 484.16 278.25 483.12 278.25 508.16 234.63 508.16 236.46"/>
          <polygon class="cls-46" points="508.16 238.28 485.21 278.25 484.16 278.25 508.16 236.46 508.16 238.28"/>
          <polygon class="cls-35" points="508.16 240.11 486.26 278.25 485.21 278.25 508.16 238.28 508.16 240.11"/>
          <polygon class="cls-7" points="508.16 241.93 487.31 278.25 486.26 278.25 508.16 240.11 508.16 241.93"/>
          <polygon class="cls-55" points="508.16 243.76 488.36 278.25 487.31 278.25 508.16 241.93 508.16 243.76"/>
          <polygon class="cls-55" points="508.16 245.58 489.4 278.25 488.36 278.25 508.16 243.76 508.16 245.58"/>
          <polygon class="cls-4" points="508.16 247.41 490.45 278.25 489.4 278.25 508.16 245.58 508.16 247.41"/>
          <polygon class="cls-4" points="490.45 278.25 508.16 247.41 508.16 278.25 490.45 278.25"/>
        </g>
      </g>
      <g id="Path_16312" data-name="Path 16312">
        <path class="cls-4" d="M526.54,161h21.6l18.21,25.71c6.78,9.46,20.89,29.99,20.89,29.99,0,0,14.28-20.35,20.89-29.81l18.21-25.89h21.6v115.68h-24.99v-73.19s-4.46,7.32-10.53,16.07l-25.17,35.88-25.35-36.06c-5.89-8.39-10.35-15.89-10.35-15.89v73.19h-24.99v-115.68Z"/>
      </g>
      <g id="profiles" class="cls-10">
        <g class="cls-10">
          <path d="M362.76,352.04v-36.75h4.08c.43,0,.8.1,1.11.3.31.2.5.5.59.92l.54,2.57c1.12-1.28,2.4-2.31,3.85-3.11,1.45-.79,3.15-1.19,5.09-1.19,1.51,0,2.89.32,4.14.95s2.33,1.54,3.24,2.74c.91,1.2,1.61,2.67,2.11,4.43.49,1.75.74,3.77.74,6.03,0,2.07-.28,3.99-.84,5.75-.56,1.76-1.35,3.29-2.39,4.59-1.04,1.3-2.29,2.31-3.75,3.04-1.47.73-3.11,1.09-4.93,1.09-1.57,0-2.89-.24-3.98-.72-1.09-.48-2.07-1.14-2.93-1.98v11.34h-6.67ZM375.72,320.05c-1.39,0-2.57.29-3.55.88-.98.58-1.89,1.41-2.74,2.47v12.42c.76.94,1.58,1.59,2.47,1.96.89.37,1.85.55,2.88.55s1.92-.19,2.74-.57c.82-.38,1.51-.95,2.08-1.73.57-.77,1-1.75,1.31-2.93.31-1.18.46-2.57.46-4.17s-.13-2.99-.39-4.12c-.26-1.12-.63-2.04-1.12-2.74-.49-.7-1.08-1.21-1.77-1.54-.69-.32-1.48-.49-2.36-.49Z"/>
          <path d="M393.3,343v-27.7h3.92c.68,0,1.16.13,1.43.38.27.25.45.68.54,1.3l.4,3.35c.99-1.71,2.15-3.06,3.48-4.05,1.33-.99,2.83-1.48,4.48-1.48,1.37,0,2.5.32,3.4.95l-.86,4.99c-.05.32-.17.55-.35.69-.18.14-.42.2-.73.2-.27,0-.64-.06-1.11-.19-.47-.12-1.09-.19-1.86-.19-1.39,0-2.57.38-3.56,1.15-.99.76-1.83,1.89-2.51,3.36v17.25h-6.67Z"/>
          <path d="M427.18,314.87c2.07,0,3.95.33,5.63,1,1.68.67,3.12,1.61,4.31,2.83s2.11,2.72,2.75,4.48c.65,1.76.97,3.74.97,5.91s-.32,4.18-.97,5.94-1.57,3.27-2.75,4.51-2.62,2.2-4.31,2.86c-1.68.67-3.56,1-5.63,1s-3.95-.33-5.64-1c-1.69-.67-3.14-1.62-4.33-2.86-1.2-1.24-2.12-2.75-2.78-4.51s-.99-3.74-.99-5.94.33-4.15.99-5.91c.66-1.76,1.58-3.26,2.78-4.48,1.2-1.22,2.64-2.17,4.33-2.83,1.69-.67,3.57-1,5.64-1ZM427.18,338.28c2.3,0,4.01-.77,5.12-2.32s1.66-3.82,1.66-6.8-.55-5.27-1.66-6.83c-1.11-1.57-2.81-2.35-5.12-2.35s-4.07.79-5.18,2.36c-1.12,1.58-1.67,3.85-1.67,6.82s.56,5.23,1.67,6.79c1.12,1.56,2.84,2.34,5.18,2.34Z"/>
          <path d="M447.24,343v-22.68l-2.4-.38c-.52-.09-.94-.27-1.26-.54-.31-.27-.47-.65-.47-1.13v-2.73h4.13v-.89c0-1.69.28-3.26.84-4.71.56-1.45,1.4-2.7,2.54-3.77,1.13-1.06,2.56-1.89,4.29-2.5,1.73-.6,3.77-.91,6.13-.91.76,0,1.53.04,2.32.12.79.08,1.48.21,2.05.39l-.22,3.46c-.04.41-.26.66-.67.74-.41.08-.93.12-1.54.12-1.75,0-3.21.15-4.39.46-1.18.31-2.13.76-2.86,1.36-.73.6-1.25,1.36-1.57,2.27-.32.91-.47,1.97-.47,3.17v.67h17.17v27.46h-6.67v-22.71h-10.29v22.71h-6.67Z"/>
          <path d="M485.61,302.88v40.12h-6.67v-40.12h6.67Z"/>
          <path d="M504.59,314.87c1.75,0,3.35.28,4.82.84,1.47.56,2.73,1.37,3.79,2.44,1.06,1.07,1.89,2.39,2.48,3.94.59,1.56.89,3.33.89,5.33,0,.5-.02.92-.07,1.26-.05.33-.13.59-.24.78-.12.19-.27.32-.47.4s-.45.12-.76.12h-17.12c.2,2.84.96,4.93,2.3,6.26,1.33,1.33,3.1,2,5.29,2,1.08,0,2.01-.13,2.79-.38.78-.25,1.47-.53,2.05-.84s1.1-.58,1.54-.84c.44-.25.87-.38,1.28-.38.27,0,.5.05.7.16.2.11.37.26.51.46l1.94,2.43c-.74.86-1.57,1.59-2.48,2.17s-1.88,1.05-2.88,1.4c-1,.35-2.02.6-3.05.74-1.04.14-2.04.22-3.01.22-1.93,0-3.72-.32-5.37-.96-1.66-.64-3.1-1.58-4.32-2.83-1.22-1.25-2.19-2.8-2.89-4.64s-1.05-3.98-1.05-6.41c0-1.89.31-3.67.92-5.33.61-1.67,1.49-3.11,2.63-4.35,1.14-1.23,2.54-2.21,4.19-2.93s3.51-1.08,5.58-1.08ZM504.72,319.64c-1.94,0-3.47.55-4.56,1.65-1.1,1.1-1.8,2.66-2.11,4.67h12.53c0-.86-.12-1.68-.35-2.44-.23-.76-.59-1.44-1.08-2.01-.49-.58-1.1-1.03-1.84-1.36s-1.6-.5-2.59-.5Z"/>
          <path d="M538.45,320.7c-.18.29-.37.49-.57.61-.2.12-.45.18-.76.18-.32,0-.67-.09-1.04-.27-.37-.18-.8-.38-1.28-.61-.49-.22-1.04-.43-1.66-.61-.62-.18-1.35-.27-2.2-.27-1.31,0-2.35.28-3.1.84-.76.56-1.13,1.29-1.13,2.19,0,.59.19,1.09.58,1.5.39.41.9.76,1.54,1.07.64.31,1.36.58,2.17.82s1.64.51,2.48.8c.85.29,1.67.62,2.48.99s1.53.84,2.17,1.4c.64.57,1.15,1.25,1.54,2.04s.58,1.75.58,2.86c0,1.33-.24,2.56-.73,3.69-.49,1.12-1.2,2.1-2.13,2.92-.94.82-2.09,1.46-3.47,1.92s-2.96.69-4.74.69c-.95,0-1.89-.08-2.79-.26-.91-.17-1.78-.41-2.62-.72-.84-.31-1.61-.67-2.32-1.08-.71-.41-1.34-.86-1.88-1.35l1.54-2.54c.2-.31.43-.54.7-.7s.61-.24,1.03-.24.81.12,1.17.35c.37.23.8.49,1.28.76.49.27,1.06.52,1.71.76.66.23,1.49.35,2.5.35.79,0,1.47-.09,2.04-.28.57-.19,1.04-.44,1.4-.74.37-.31.64-.66.81-1.07.17-.41.26-.82.26-1.26,0-.65-.19-1.18-.58-1.59-.39-.41-.9-.77-1.54-1.08-.64-.31-1.37-.58-2.19-.82-.82-.24-1.66-.51-2.51-.8-.86-.29-1.69-.62-2.51-1.01-.82-.39-1.55-.88-2.19-1.47-.64-.59-1.15-1.32-1.54-2.19-.39-.86-.58-1.91-.58-3.13,0-1.13.23-2.21.68-3.24.45-1.03,1.11-1.92,1.98-2.69.87-.76,1.96-1.38,3.27-1.84,1.3-.46,2.81-.69,4.52-.69,1.91,0,3.65.31,5.21.94,1.57.63,2.87,1.46,3.92,2.48l-1.51,2.4Z"/>
        </g>
      </g>
      <g id="fingerprint_24dp_000000_FILL0_wght300_GRAD0_opsz24" data-name="fingerprint 24dp 000000 FILL0 wght300 GRAD0 opsz24">
        <path d="M165.79,173.7c10.58-.05,21.03,2.28,30.58,6.83,9.49,4.48,17.73,11.24,23.97,19.67.58.55.81,1.37.6,2.14-.24.64-.66,1.2-1.21,1.6-.56.42-1.24.62-1.94.57-.77-.08-1.47-.51-1.88-1.17-5.61-7.81-13.14-14.03-21.87-18.07-8.83-4.16-18.48-6.3-28.25-6.26-9.68-.05-19.24,2.11-27.96,6.31-8.62,4.12-16.09,10.31-21.73,18.02-.42.72-1.14,1.21-1.97,1.33-.71.07-1.42-.15-1.97-.6-.54-.37-.92-.94-1.05-1.59-.1-.71.1-1.43.56-1.98,6.28-8.34,14.42-15.1,23.78-19.72,9.42-4.71,19.81-7.13,30.34-7.08ZM165.79,187.8c13.72,0,25.5,4.47,35.35,13.42,9.59,8.36,15,20.53,14.78,33.26.1,4.69-1.85,9.19-5.34,12.32-3.52,3.28-8.19,5.06-13.01,4.94-4.85.09-9.56-1.68-13.15-4.94-3.58-3.08-5.6-7.6-5.51-12.32.04-3.28-1.36-6.41-3.84-8.56-2.49-2.3-5.78-3.55-9.18-3.49-3.42-.06-6.73,1.18-9.26,3.48-2.5,2.14-3.93,5.28-3.88,8.57,0,9.82,2.98,18.02,8.93,24.6,6.14,6.69,14.09,11.48,22.88,13.77.72.18,1.33.66,1.68,1.32.3.62.34,1.33.14,1.98-.21.63-.6,1.19-1.11,1.62-.6.48-1.39.62-2.12.39-10-2.32-19.01-7.72-25.77-15.45-6.71-7.7-10.06-17.11-10.06-28.23-.09-4.73,1.91-9.25,5.46-12.37,3.56-3.29,8.26-5.08,13.1-4.99,4.83-.1,9.51,1.69,13.04,4.99,3.52,3.14,5.49,7.66,5.4,12.37-.04,3.3,1.4,6.45,3.93,8.57,2.54,2.29,5.86,3.53,9.28,3.48,3.39.07,6.67-1.18,9.14-3.49,2.46-2.16,3.85-5.29,3.8-8.56.18-11.29-4.64-22.09-13.16-29.5-8.55-7.89-19.82-12.17-31.45-11.96-11.62-.22-22.87,4.07-31.4,11.97-8.75,7.98-13.12,17.78-13.12,29.4.05,3.04.31,6.07.78,9.08.7,4.31,1.81,8.55,3.32,12.65.27.67.25,1.43-.05,2.08-.33.63-.89,1.12-1.56,1.36-.67.3-1.44.29-2.11-.02-.66-.31-1.16-.86-1.4-1.55-1.51-3.79-2.64-7.73-3.38-11.74-.69-3.88-1.03-7.81-1.03-11.76-.23-12.71,5.15-24.87,14.71-33.25,9.8-8.95,21.51-13.43,35.13-13.43h0ZM165.9,158.99c6.41,0,12.79.77,19.01,2.33,6.21,1.56,12.23,3.8,17.95,6.68.73.29,1.29.9,1.52,1.66.13.64.06,1.3-.2,1.9-.27.63-.76,1.13-1.39,1.42-.72.32-1.55.26-2.22-.15-5.33-2.8-10.97-4.94-16.81-6.37-5.85-1.43-11.86-2.15-17.88-2.15-5.94,0-11.86.71-17.62,2.14-5.79,1.44-11.37,3.58-16.64,6.38-.6.38-1.34.48-2.01.26-.7-.19-1.27-.69-1.57-1.34-.32-.59-.41-1.26-.28-1.92.2-.66.65-1.21,1.27-1.52,5.66-3.03,11.66-5.36,17.88-6.93,6.21-1.58,12.6-2.37,19.01-2.37h0ZM165.9,202.42c8.98-.17,17.68,3.15,24.26,9.26,6.56,5.75,10.26,14.08,10.13,22.8.03.72-.24,1.42-.75,1.92-.53.5-1.24.76-1.96.73-.7,0-1.37-.26-1.88-.73-.55-.48-.86-1.19-.83-1.92.12-7.32-3.03-14.31-8.59-19.06-5.56-5.06-12.84-7.82-20.37-7.69-7.49-.13-14.75,2.62-20.27,7.69-5.51,4.78-8.62,11.76-8.5,19.06,0,8.18,1.45,15.11,4.35,20.78,3.36,6.3,7.61,12.08,12.63,17.16.57.49.87,1.22.83,1.97-.05.68-.34,1.31-.83,1.78-.5.51-1.17.8-1.88.81-.73.01-1.44-.28-1.94-.81-5.51-5.57-10.14-11.94-13.73-18.9-3.24-6.47-4.86-14.07-4.86-22.8-.14-8.7,3.52-17.03,10.03-22.8,6.54-6.11,15.21-9.43,24.17-9.25h0ZM165.68,231.83c.74-.03,1.46.26,1.97.8.49.49.76,1.16.76,1.86-.19,7.19,2.88,14.09,8.37,18.75,5.38,4.8,12.37,7.41,19.58,7.32.81,0,1.78-.05,2.9-.15s2.28-.25,3.47-.45c.67-.18,1.38-.06,1.96.32.58.42.98,1.05,1.13,1.75.22.64.06,1.35-.4,1.85-.48.54-1.11.92-1.82,1.09-1.39.37-2.81.61-4.24.74-1.34.11-2.34.16-3,.16-8.66.12-17.04-3.07-23.42-8.92-6.49-5.63-10.14-13.86-9.95-22.45,0-.69.26-1.36.74-1.86.51-.54,1.22-.83,1.96-.8h0Z"/>
      </g>
    </g>
  </g>
</svg>