<svg xmlns="http://www.w3.org/2000/svg" width="50" height="50" viewBox="0 0 50 50">
  <path id="insert_chart_24dp_000000_FILL0_wght200_GRAD0_opsz24" d="M171.659-760.937h3.125v-18.75h-3.125Zm11.779,0h3.125v-28.125h-3.125Zm11.779,0h3.125v-9.375h-3.125ZM165.048-750a4.89,4.89,0,0,1-3.6-1.445,4.89,4.89,0,0,1-1.445-3.6v-39.9a4.89,4.89,0,0,1,1.445-3.6,4.89,4.89,0,0,1,3.6-1.445h39.9a4.89,4.89,0,0,1,3.6,1.445,4.89,4.89,0,0,1,1.445,3.6v39.9a4.89,4.89,0,0,1-1.445,3.6,4.89,4.89,0,0,1-3.6,1.445Zm0-3.125h39.9a1.839,1.839,0,0,0,1.323-.6,1.839,1.839,0,0,0,.6-1.323v-39.9a1.839,1.839,0,0,0-.6-1.323,1.839,1.839,0,0,0-1.323-.6h-39.9a1.839,1.839,0,0,0-1.323.6,1.839,1.839,0,0,0-.6,1.323v39.9a1.839,1.839,0,0,0,.6,1.323A1.839,1.839,0,0,0,165.048-753.125Zm-1.923-43.75v0Z" transform="translate(-160 800)"/>
</svg>
