<svg xmlns="http://www.w3.org/2000/svg" width="50" height="50" viewBox="0 0 50 50">
  <path id="paid_24dp_000000_FILL0_wght200_GRAD0_opsz24" d="M143.568-796.624h2.725v-3.259a11.69,11.69,0,0,0,5.731-2.147,6.662,6.662,0,0,0,2.741-5.887,7.357,7.357,0,0,0-1.774-4.974q-1.774-2.056-6.774-3.862-4.594-1.6-5.871-2.751a4.176,4.176,0,0,1-1.276-3.274,4.465,4.465,0,0,1,1.658-3.542,6.562,6.562,0,0,1,4.41-1.415,6.081,6.081,0,0,1,3.526.969,7.648,7.648,0,0,1,2.286,2.46l2.415-.951a8.863,8.863,0,0,0-2.866-3.355,7.841,7.841,0,0,0-4.067-1.506v-3.259h-2.725v3.259a9.042,9.042,0,0,0-5.5,2.708,6.834,6.834,0,0,0-1.865,4.631,6.328,6.328,0,0,0,1.883,4.8,18.535,18.535,0,0,0,6.354,3.419,21.393,21.393,0,0,1,6.023,2.981,4.585,4.585,0,0,1,1.541,3.665,4.549,4.549,0,0,1-2.139,4.223,8.742,8.742,0,0,1-4.592,1.29,7.212,7.212,0,0,1-4.33-1.4A9.612,9.612,0,0,1,138-807.778l-2.447,1.058a10.9,10.9,0,0,0,3.181,4.447,11.925,11.925,0,0,0,4.831,2.251ZM145-790a24.26,24.26,0,0,1-9.738-1.974,25.337,25.337,0,0,1-7.938-5.35,25.337,25.337,0,0,1-5.35-7.938A24.26,24.26,0,0,1,120-815a24.26,24.26,0,0,1,1.974-9.738,25.337,25.337,0,0,1,5.35-7.938,25.336,25.336,0,0,1,7.938-5.35A24.259,24.259,0,0,1,145-840a24.259,24.259,0,0,1,9.738,1.974,25.336,25.336,0,0,1,7.938,5.35,25.337,25.337,0,0,1,5.35,7.938A24.26,24.26,0,0,1,170-815a24.26,24.26,0,0,1-1.974,9.738,25.337,25.337,0,0,1-5.35,7.938,25.337,25.337,0,0,1-7.938,5.35A24.26,24.26,0,0,1,145-790Zm0-2.778a21.447,21.447,0,0,0,15.764-6.458A21.447,21.447,0,0,0,167.222-815a21.447,21.447,0,0,0-6.458-15.764A21.447,21.447,0,0,0,145-837.222a21.447,21.447,0,0,0-15.764,6.458A21.447,21.447,0,0,0,122.778-815a21.447,21.447,0,0,0,6.458,15.764A21.447,21.447,0,0,0,145-792.778ZM145-815Z" transform="translate(-120 840)"/>
</svg>
