<svg width="643" height="492" viewBox="0 0 643 492" fill="none" xmlns="http://www.w3.org/2000/svg">
<g clip-path="url(#clip0_137_4921)">
<path fill-rule="evenodd" clip-rule="evenodd" d="M404.363 52.5788C402.574 51.4842 380.002 68.1955 376.75 86.0926C373.498 103.99 382.426 170.526 382.426 170.526L443.058 219.544L471.572 214.247L490.123 188.134L495.288 101.941C495.288 101.941 406.159 53.6796 404.36 52.5859L404.363 52.5788Z" fill="#F5CFC1"/>
<path fill-rule="evenodd" clip-rule="evenodd" d="M403.085 160.586C406.642 159.696 410.248 159.016 413.884 158.55C417.771 158.09 421.647 157.599 425.482 156.812C426.645 156.577 429.204 155.513 430.37 155.933C430.596 156.014 429.501 158.347 429.369 158.571C427.885 160.949 426.039 163.081 423.898 164.891C415.787 171.998 407.187 168.808 403.075 160.598L403.085 160.586Z" fill="white"/>
<path fill-rule="evenodd" clip-rule="evenodd" d="M396.416 157.435C396.886 157.19 399.167 159.245 400.558 158.591C401.721 158.038 402.267 156.546 403.698 155.789C404.517 155.36 407.38 156.31 408.321 156.208C409.548 156.086 411.256 154.255 413.322 154.241C420.01 154.211 427.731 155.202 432.118 154.558C434.175 154.252 434.623 154.303 436.077 153.597C437.989 152.666 438.214 151.746 438.736 152.41C439.442 153.331 438.399 154.271 437.406 154.702C435.586 155.422 433.682 155.914 431.74 156.164C427.568 156.952 419.253 159.825 411.164 160.479C406.674 160.837 400.19 160.234 397.757 159.396C396.038 158.803 395.281 158.015 396.406 157.428L396.416 157.435Z" fill="#CC586E"/>
<path fill-rule="evenodd" clip-rule="evenodd" d="M402.45 159.328C403.044 160.105 406.756 162.948 407.431 163.562C410.172 166.047 413.25 167.684 416.768 166.487C421.472 164.892 426.913 157.948 430.605 156.26C431.74 155.739 435.729 153.713 435.709 153.856C435.596 154.439 432.763 155.687 430.554 159.669C428.295 163.75 423.579 173.056 415.03 173.025C409.886 173.015 405.979 168.525 403.32 164.172C402.236 162.413 401.428 161.083 400.415 159.6C400.272 159.395 402.082 159.518 402.45 159.332V159.328Z" fill="#CC586E"/>
<path fill-rule="evenodd" clip-rule="evenodd" d="M435.729 151.207C435.639 151.861 437.467 152.086 438.551 153.313C439.451 154.346 439.962 156.075 440.536 155.901C441.527 155.604 440.464 152.802 439.194 151.677C438.325 150.9 435.87 150.163 435.737 151.207H435.729Z" fill="#CC586E"/>
<path fill-rule="evenodd" clip-rule="evenodd" d="M396.959 155.962C397.47 156.382 396.857 156.781 397.048 158.346C397.212 159.644 397.693 160.278 397.232 160.503C396.427 160.902 396.026 159.604 395.719 158.039C395.446 156.658 396.151 155.298 396.959 155.962Z" fill="#CC586E"/>
<path fill-rule="evenodd" clip-rule="evenodd" d="M399.864 54.43C402.585 76.9907 414.07 89.9586 438.246 98.0169C444.485 100.093 460.346 111.976 466.013 115.29C469.756 117.489 460.654 94.3861 456.429 88.8631C447.276 76.887 436.64 64.3385 424.235 55.6158C417.895 51.1444 403.29 41.9217 399.854 54.4291L399.864 54.43Z" fill="#ED9D82"/>
<path fill-rule="evenodd" clip-rule="evenodd" d="M432.825 189.22C436.814 189.057 439.738 185.621 445.292 182.184C446.948 181.161 453.156 174.627 452.931 176.365C452.305 180.988 449.996 187.812 440.126 193.598C439.032 194.242 436.813 194.202 435.35 195.592C434.849 196.072 432.426 192.248 432.824 189.211L432.825 189.22Z" fill="#ED9D82"/>
<path fill-rule="evenodd" clip-rule="evenodd" d="M479.388 115.843C477.875 116.691 474.684 117.622 473.518 118.921C471.902 120.709 471.074 122.541 472.056 124.74C473.934 128.943 476.218 131.387 477.455 122.325C478.007 118.275 481.464 116.844 481.056 115.095" fill="#ED9D82"/>
<path fill-rule="evenodd" clip-rule="evenodd" d="M414.058 103.13C416.553 103.826 416.605 100.185 428.806 97.7916C435.617 96.4618 441.958 97.6378 444.75 97.7612C441.015 95.798 436.912 94.6345 432.702 94.3451C428.262 94.0914 423.832 95.0082 419.857 97.0037C415.582 99.0606 411.921 102.526 414.044 103.12L414.058 103.13Z" fill="#0A1761"/>
<path fill-rule="evenodd" clip-rule="evenodd" d="M397.041 104.132C395.548 105.288 393.002 101.289 383.49 101.463C376.311 101.596 374.316 103.478 371.544 103.886C371.463 103.896 372.107 99.7341 379.286 98.3739C383.198 97.6617 387.224 97.9144 391.016 99.1099C394.033 100.041 399.106 102.526 397.029 104.131L397.041 104.132Z" fill="#0A1761"/>
<path fill-rule="evenodd" clip-rule="evenodd" d="M401.826 58.2344C401.826 58.2344 394.462 60.699 387.559 72.4704C380.656 84.2417 378.09 94.6421 377.353 106.925C376.484 121.283 378.825 117.663 379.582 131.019C380.247 142.678 382.947 150.123 388.704 160.361C394.462 170.598 407.358 194.059 427.342 189.149C430.819 188.3 437.179 186.429 439.849 184.884C439.972 184.813 440.769 209.94 440.259 210.482C427.945 223.501 421.573 227.1 404.781 227.254C395.803 227.212 386.857 226.172 378.109 224.155C378.109 224.155 359.516 213.1 356.378 185.651C352.43 151.053 377.189 141.859 374.755 127.245C372.321 112.63 357.257 102.434 356.691 83.0237C356.036 60.2895 368.595 48.0889 386.779 43.343C392.057 42.0247 397.487 41.4124 402.927 41.5222C402.927 41.5222 411.601 25.885 447.462 31.0503C489.383 37.084 504.14 60.657 507.464 76.4991C512.23 99.295 515.503 151.618 540.773 175.363C584.218 216.199 564.418 279.585 523.408 281.028C509.182 281.528 479.141 216.372 476.446 200.798C473.725 185.13 473.048 140.541 473.048 140.541C476.854 138.193 480.141 135.093 482.706 131.429C485.549 127.315 488.519 119.146 485.17 114.821C481.274 109.788 475.015 110.842 470.915 115.659C468.327 118.7 467.028 122.829 466.527 124.025C465.291 122.397 464.173 120.681 463.184 118.891C461.036 115.113 458.345 111.67 455.196 108.674C444.049 98.5599 432.839 96.6909 419.268 84.1299C403.325 69.3744 401.811 58.2452 401.811 58.2452L401.826 58.2344Z" fill="#0A1761"/>
<mask id="mask0_137_4921" style="mask-type:luminance" maskUnits="userSpaceOnUse" x="355" y="30" width="211" height="252">
<path d="M401.825 58.2344C401.825 58.2344 394.461 60.699 387.558 72.4704C380.656 84.2417 378.089 94.6421 377.352 106.925C376.483 121.283 378.824 117.663 379.581 131.019C380.246 142.678 382.946 150.123 388.703 160.361C394.461 170.598 407.357 194.059 427.341 189.149C430.818 188.3 437.178 186.429 439.848 184.884C439.971 184.813 440.768 209.94 440.258 210.482C427.944 223.501 421.572 227.1 404.78 227.254C395.802 227.212 386.856 226.172 378.108 224.155C378.108 224.155 359.515 213.1 356.377 185.651C352.429 151.053 377.188 141.859 374.754 127.245C372.32 112.63 357.256 102.434 356.69 83.0237C356.035 60.2895 368.594 48.0889 386.778 43.343C392.056 42.0247 397.486 41.4124 402.926 41.5222C402.926 41.5222 411.6 25.885 447.461 31.0503C489.382 37.084 504.139 60.657 507.463 76.4991C512.229 99.295 515.502 151.618 540.772 175.363C584.217 216.199 564.417 279.585 523.407 281.028C509.181 281.528 479.14 216.372 476.445 200.798C473.724 185.13 473.047 140.541 473.047 140.541C476.853 138.193 480.14 135.093 482.705 131.429C485.548 127.315 488.518 119.146 485.169 114.821C481.273 109.788 475.014 110.842 470.914 115.659C468.326 118.7 467.027 122.829 466.526 124.025C465.29 122.397 464.172 120.681 463.183 118.891C461.035 115.113 458.344 111.67 455.195 108.674C444.048 98.5599 432.838 96.6909 419.267 84.1299C403.324 69.3744 401.81 58.2452 401.81 58.2452L401.825 58.2344Z" fill="white"/>
</mask>
<g mask="url(#mask0_137_4921)">
<path fill-rule="evenodd" clip-rule="evenodd" d="M385.35 41.605C382.65 47.8336 368.046 68.7471 373.763 91.7988C377.353 106.286 381.321 106.454 385.36 120.393C388.664 131.817 413.863 152.178 431.545 170.423C433.519 172.459 466.78 123.39 470.173 137.431C483.14 191.01 525.511 219.86 553.967 180.905C585.916 137.144 579.381 266.555 578.41 269.583C564.012 314.602 350.859 244.096 347.137 242.799C342.401 241.142 339.425 97.024 354.214 69.4527C358.018 62.3548 363.03 54.859 369.36 49.725C371.498 47.9865 374.239 45.7061 377.102 45.2357" fill="#040B2D"/>
</g>
<path d="M480.429 115.474C478.251 114.902 470.663 120.219 471.941 124.775C472.33 126.145 474.027 126.432 474.334 127.792C474.872 129.691 474.656 131.724 473.73 133.468" stroke="#AB583B" stroke-width="1.5" stroke-linecap="round" stroke-linejoin="round"/>
<path d="M402.9 128.228C402.154 136.614 398.923 140.653 399.597 143.026C400.849 147.342 405.907 145.767 408.729 146.39" stroke="#AB583B" stroke-width="1.8" stroke-linecap="round" stroke-linejoin="round"/>
<path fill-rule="evenodd" clip-rule="evenodd" d="M412.325 116.466C412.622 111.69 418.932 109.358 428.512 107.671C435.026 106.525 450.755 104.49 453.641 110.627C456.527 116.763 452.874 128.154 446.717 133.658C441.134 138.649 429.772 137.81 422.909 134.292C417.571 131.561 411.792 124.893 412.324 116.476L412.325 116.466Z" fill="#F9FAFF" fill-opacity="0.28"/>
<path fill-rule="evenodd" clip-rule="evenodd" d="M411.277 116.395H411.246C411.38 114.125 412.616 112.282 414.857 110.791C417.751 108.868 422.425 107.539 428.316 106.475C432.682 105.687 441.099 104.508 447.215 105.544C450.856 106.158 453.689 107.621 454.844 110.054C456.491 113.521 456.275 118.573 454.671 123.441C453.313 127.72 450.897 131.586 447.645 134.681C445.108 136.941 441.509 138.137 437.603 138.437C432.335 138.789 427.068 137.745 422.334 135.41C418.907 133.562 416.036 130.833 414.017 127.504C411.958 124.182 410.992 120.298 411.255 116.398L411.277 116.395ZM413.435 116.529H413.394C413.231 119.97 414.154 123.376 416.032 126.265C417.867 129.184 420.448 131.561 423.508 133.151C427.11 134.865 431.044 135.769 435.033 135.799C439.175 135.85 443.195 134.961 445.813 132.609C448.71 129.84 450.869 126.391 452.093 122.576C453.483 118.434 453.852 114.138 452.461 111.173C451.936 110.187 451.071 109.424 450.027 109.027C448.195 108.287 446.252 107.862 444.279 107.768C439.077 107.532 433.865 107.892 428.745 108.842C424.204 109.619 420.42 110.529 417.699 111.818C415.174 113.004 413.598 114.446 413.455 116.532L413.435 116.529Z" fill="#0A1761"/>
<path d="M454.7 118.747L465.356 120.158" stroke="#0A1761" stroke-width="2.3" stroke-linecap="round" stroke-linejoin="round"/>
<path fill-rule="evenodd" clip-rule="evenodd" d="M400.67 119.075C399.801 115.045 394.688 113.709 387.167 113.246C382.053 112.928 369.812 112.817 368.431 118.318C367.05 123.82 371.366 133.137 376.786 137.187C381.704 140.859 390.234 138.987 394.99 135.295C397.326 133.364 399.089 130.831 400.089 127.971C401.09 125.11 401.289 122.031 400.666 119.065L400.67 119.075Z" fill="#F9FAFF" fill-opacity="0.28"/>
<path fill-rule="evenodd" clip-rule="evenodd" d="M401.745 118.839H401.715C402.42 122.016 402.239 125.325 401.192 128.405C400.144 131.486 398.269 134.219 395.773 136.307C392.997 138.408 389.743 139.789 386.303 140.326C382.539 140.909 378.745 140.367 375.963 138.301C372.98 135.895 370.608 132.818 369.039 129.322C367.188 125.354 366.37 121.099 367.161 118C367.744 115.74 369.729 114.155 372.49 113.224C377.061 111.67 383.757 111.813 387.245 112.048C390.509 112.151 393.741 112.73 396.838 113.766C399.559 114.839 401.256 116.476 401.748 118.849L401.745 118.839ZM399.628 119.3H399.598C399.229 117.653 397.931 116.617 396.021 115.894C393.134 114.985 390.13 114.499 387.103 114.453C383.112 114.173 379.101 114.403 375.168 115.138C373.716 115.407 372.332 115.963 371.098 116.774C370.425 117.209 369.935 117.875 369.717 118.646C369.072 121.274 369.922 124.823 371.506 128.167C372.893 131.25 374.989 133.962 377.622 136.082C379.831 137.749 382.889 138.077 385.896 137.647C388.902 137.232 391.759 136.08 394.212 134.293C396.394 132.544 398.045 130.222 398.978 127.586C399.959 124.935 400.182 122.062 399.622 119.292L399.628 119.3Z" fill="#0A1761"/>
<path fill-rule="evenodd" clip-rule="evenodd" d="M402.042 123.472C401.98 123.739 401.816 123.972 401.585 124.121C401.354 124.269 401.074 124.322 400.805 124.267C400.535 124.213 400.298 124.055 400.143 123.828C399.989 123.601 399.928 123.323 399.976 123.052C400.184 121.737 400.742 120.501 401.592 119.475C402.543 118.424 403.81 117.71 405.202 117.44C406.102 117.283 407.024 117.311 407.912 117.521C408.262 117.601 408.604 117.71 408.935 117.849C409.565 118.11 410.165 118.44 410.723 118.832C411.527 119.414 412.265 120.083 412.922 120.826C413.026 120.906 413.114 121.006 413.179 121.12C413.245 121.233 413.287 121.359 413.305 121.489C413.322 121.619 413.313 121.751 413.279 121.878C413.245 122.005 413.186 122.124 413.107 122.228C413.027 122.332 412.927 122.419 412.813 122.485C412.7 122.55 412.574 122.593 412.444 122.61C412.314 122.627 412.182 122.619 412.055 122.585C411.928 122.551 411.809 122.492 411.705 122.412C410.636 122 409.548 121.642 408.443 121.339C408.044 121.237 407.645 121.145 407.236 121.053C406.732 120.9 406.207 120.831 405.681 120.848C404.922 120.85 404.182 121.09 403.565 121.533C402.912 122.057 402.392 122.725 402.044 123.486L402.042 123.472Z" fill="#0A1761"/>
<path fill-rule="evenodd" clip-rule="evenodd" d="M419.989 123.544C421.483 118.912 422.454 116.658 426.636 113.818C430.196 111.395 434.562 111.946 438.99 112.58C441.997 113.01 445.351 113.583 448.348 113C448.41 112.99 445.729 116.364 443.152 117.06C441.843 117.417 439.705 116.988 438.428 116.691C436.199 116.053 433.879 115.794 431.565 115.924C426.482 116.415 423.107 119.882 419.988 123.543L419.989 123.544Z" fill="#134F99"/>
<path d="M438.482 119.466C438.693 116.275 436.237 113.515 432.995 113.3C429.754 113.086 426.955 115.499 426.744 118.689C426.533 121.88 428.99 124.64 432.231 124.854C435.473 125.069 438.271 122.656 438.482 119.466Z" fill="#134F99"/>
<path fill-rule="evenodd" clip-rule="evenodd" d="M397.714 125.807C398.052 124.652 398.84 122.177 395.352 118.905C393.51 117.176 388.823 116.931 384.828 117.729C382.107 118.27 379.82 118.802 377.066 118.342C377.004 118.342 379.622 121.604 382.005 122.208C383.428 122.374 384.871 122.206 386.218 121.717C388.275 121.104 388.633 120.766 390.811 120.981C395.096 121.41 396.016 123.835 397.704 125.81L397.714 125.807Z" fill="#134F99"/>
<path fill-rule="evenodd" clip-rule="evenodd" d="M393.685 118.739C390.709 118.35 388.766 120.069 388.562 123.055C388.497 123.77 388.578 124.49 388.801 125.173C389.023 125.855 389.382 126.485 389.855 127.025C390.329 127.564 390.907 128.002 391.555 128.311C392.203 128.62 392.907 128.794 393.624 128.823C396.621 128.813 397.878 127.329 398.083 124.344C398.288 121.358 395.372 118.944 393.696 118.729L393.685 118.739Z" fill="#134F99"/>
<path d="M440.014 185.294C446.478 182.369 452.47 176.019 453.39 175.272" stroke="#AE5D41" stroke-width="1.51" stroke-linecap="round" stroke-linejoin="round"/>
<path fill-rule="evenodd" clip-rule="evenodd" d="M295.141 254.356C295.141 254.356 296.132 236.766 302.105 226.078C308.078 215.391 315.43 198.036 313.194 190.805C310.44 181.932 306.273 173.561 300.853 166.015C294.186 156.504 288.427 138.423 284.255 141.082C280.084 143.74 280.594 152.914 284.634 163.397C288.673 173.879 291.956 182.409 291.956 182.409C291.956 182.409 281.893 188.32 273.936 201.482C265.98 214.644 256.15 222.111 259.638 237.238C263.125 252.364 264.925 250.001 264.301 265.765C263.678 281.529 266.275 328.21 266.275 328.21L307.388 308.179C307.388 308.179 294.778 260.542 295.146 254.365L295.141 254.356Z" fill="#F5CFC1"/>
<path fill-rule="evenodd" clip-rule="evenodd" d="M415.866 215.861C415.866 215.861 409.484 216.198 403.584 216.487C396.537 216.824 389.041 217.663 378.6 225.64C359.404 240.295 316.072 317.375 316.072 317.375L303.595 293.403C303.595 293.403 289.165 303.487 279.44 306.79C269.714 310.094 264.232 310.861 264.232 310.861C264.232 310.861 266.329 377.95 305.978 379.075C326.458 379.658 344.975 363.867 376.32 321.998C407.666 280.129 415.937 217.173 415.868 215.854L415.866 215.861Z" fill="#FFBA29"/>
<mask id="mask1_137_4921" style="mask-type:luminance" maskUnits="userSpaceOnUse" x="264" y="215" width="152" height="165">
<path d="M415.866 215.861C415.866 215.861 409.484 216.198 403.584 216.487C396.537 216.824 389.041 217.663 378.6 225.64C359.404 240.295 316.072 317.375 316.072 317.375L303.595 293.403C303.595 293.403 289.165 303.487 279.44 306.79C269.714 310.094 264.232 310.861 264.232 310.861C264.232 310.861 266.329 377.95 305.978 379.075C326.458 379.658 344.975 363.867 376.32 321.998C407.666 280.129 415.937 217.173 415.868 215.854L415.866 215.861Z" fill="white"/>
</mask>
<g mask="url(#mask1_137_4921)">
<path fill-rule="evenodd" clip-rule="evenodd" d="M389.777 271.036C389.777 271.036 364.343 283.921 351.672 308.456C343.255 324.737 334.429 381.598 341.987 388.379C349.544 395.159 354.75 385.28 362.236 372.987C369.722 360.695 389.787 271.045 389.787 271.045L389.777 271.036Z" fill="#D67721"/>
</g>
<path fill-rule="evenodd" clip-rule="evenodd" d="M280.369 151.976C280.369 151.976 275.898 150.882 277.21 159.022C278.522 167.163 285.34 187.934 285.34 187.934L292.417 181.726C292.417 181.726 283.898 151.935 280.359 151.966L280.369 151.976Z" fill="#F5CFC1"/>
<mask id="mask2_137_4921" style="mask-type:luminance" maskUnits="userSpaceOnUse" x="276" y="151" width="17" height="37">
<path d="M280.369 151.976C280.369 151.976 275.898 150.882 277.21 159.022C278.522 167.163 285.34 187.934 285.34 187.934L292.417 181.726C292.417 181.726 283.898 151.935 280.359 151.966L280.369 151.976Z" fill="white"/>
</mask>
<g mask="url(#mask2_137_4921)">
<path fill-rule="evenodd" clip-rule="evenodd" d="M279.193 147.555C278.988 160.094 278.497 171.363 281.146 183.942C281.985 187.961 280.431 196.756 286.076 196.378C289.993 196.11 290.442 189.536 290.585 186.704C290.79 182.326 290.074 177.991 289.767 173.623C289.348 167.599 289.297 161.668 287.374 155.827C286.423 152.943 285.666 149.201 283.406 146.96C281.923 145.498 279.755 146.838 279.049 148.27C278.776 148.909 278.554 149.569 278.385 150.243" fill="#ED9D82"/>
</g>
<path fill-rule="evenodd" clip-rule="evenodd" d="M276.34 161.618C276.34 161.618 271.206 160.523 272.72 168.664C274.234 176.805 282.057 197.576 282.057 197.576L290.188 191.368C290.188 191.368 280.401 161.577 276.35 161.607L276.34 161.618Z" fill="#F5CFC1"/>
<mask id="mask3_137_4921" style="mask-type:luminance" maskUnits="userSpaceOnUse" x="272" y="161" width="19" height="37">
<path d="M276.339 161.618C276.339 161.618 271.205 160.523 272.719 168.664C274.233 176.805 282.056 197.576 282.056 197.576L290.187 191.368C290.187 191.368 280.4 161.577 276.35 161.607L276.339 161.618Z" fill="white"/>
</mask>
<g mask="url(#mask3_137_4921)">
<path fill-rule="evenodd" clip-rule="evenodd" d="M279.469 150.911C279.705 163.46 277.312 176.192 280.39 188.587C281.373 192.545 282.446 200.02 288.06 199.243C291.956 198.701 292.182 192.094 292.212 189.251C292.263 184.854 291.394 180.577 290.934 176.232C290.308 170.229 290.044 164.308 287.917 158.615C286.863 155.803 285.984 152.1 283.642 150.025C282.108 148.665 280.002 150.168 279.337 151.641C279.087 152.299 278.889 152.976 278.744 153.665" fill="#ED9D82"/>
</g>
<path fill-rule="evenodd" clip-rule="evenodd" d="M271.953 173.031C271.953 173.031 265.234 171.558 266.298 179.781C266.745 183.279 269.642 188.945 271.545 193.577C274.101 199.837 271.821 206.954 271.821 206.954L282.334 200.45C282.334 200.45 282.528 193.832 278.918 189.395C275.902 185.692 273.457 178.728 271.963 173.021L271.953 173.031Z" fill="#F5CFC1"/>
<path fill-rule="evenodd" clip-rule="evenodd" d="M315.715 228.179L271.063 133.815L267.729 117.82L277.772 129.96L324.806 222.724C324.735 227.152 321.074 229.535 315.725 228.185L315.715 228.179Z" fill="#040B2D"/>
<path fill-rule="evenodd" clip-rule="evenodd" d="M277.649 213.939C277.649 213.939 282.63 192.477 281.771 185.008C280.913 177.539 282.089 160.524 287.191 160.893C292.294 161.261 292.172 170.998 293.573 179.179C294.974 187.36 298.145 200.318 298.145 200.318" fill="#F5CFC1"/>
<path fill-rule="evenodd" clip-rule="evenodd" d="M411.908 216.116C411.908 216.116 396.179 262.116 383.324 276.311C370.468 290.506 364.25 300.375 363.074 315.391C361.898 330.407 423.24 384.668 423.24 384.668L486.525 401.43C500.443 347.237 514.137 287.359 528.159 239.445C528.159 239.445 505.925 228.4 494.573 221.739C490.544 219.376 484.807 213.915 482.117 211.246C477.607 206.767 477.637 203.454 477.637 203.454C477.637 203.454 462.123 213.906 449.063 213.967C438.315 214.018 440.584 208.209 440.584 208.209C437.418 210.091 434.031 211.575 430.501 212.627C425.899 213.926 411.907 216.115 411.907 216.115L411.908 216.116Z" fill="#FFBA29"/>
<mask id="mask4_137_4921" style="mask-type:luminance" maskUnits="userSpaceOnUse" x="363" y="203" width="166" height="199">
<path d="M411.908 216.116C411.908 216.116 396.179 262.116 383.324 276.311C370.468 290.506 364.25 300.375 363.074 315.391C361.898 330.407 423.24 384.668 423.24 384.668L486.525 401.43C500.443 347.237 514.137 287.359 528.159 239.445C528.159 239.445 505.925 228.4 494.573 221.739C490.544 219.376 484.807 213.915 482.117 211.246C477.607 206.767 477.637 203.454 477.637 203.454C477.637 203.454 462.123 213.906 449.063 213.967C438.315 214.018 440.584 208.209 440.584 208.209C437.418 210.091 434.031 211.575 430.501 212.627C425.899 213.926 411.907 216.115 411.907 216.115L411.908 216.116Z" fill="white"/>
</mask>
<g mask="url(#mask4_137_4921)">
<path fill-rule="evenodd" clip-rule="evenodd" d="M483.622 303.76C476.494 309.293 472.27 340.336 457.716 364.078C444.943 384.92 433.018 389.43 431.669 392.928C430.165 396.783 448.144 388.814 461.429 393.961C465.734 395.628 471.912 398.225 476.381 395.57C482.629 391.858 483.192 378.952 483.803 372.714C484.929 361.249 486.095 349.775 485.798 338.229C485.523 327.404 483.632 314.6 483.622 303.76Z" fill="#D67721"/>
</g>
<path d="M438.989 218.672C447.692 227.181 466.694 219.5 470.273 216.437" stroke="#AE5D41" stroke-width="1.76" stroke-linecap="round" stroke-linejoin="round"/>
<path fill-rule="evenodd" clip-rule="evenodd" d="M376.543 366.727L359.526 271.412L287.222 266.79L285.013 268.406L308.208 358.505L374.295 368.261L376.545 366.741L376.543 366.727Z" fill="#040B2D"/>
<path d="M354.862 276.976L360.804 309.385" stroke="#0A1761" stroke-width="2.14" stroke-linecap="round" stroke-linejoin="round"/>
<path fill-rule="evenodd" clip-rule="evenodd" d="M453.696 373.977C453.696 373.977 419.057 352.327 404.31 341.353C397.12 335.995 388.847 325.839 385.4 319.038C381.953 312.237 364.895 301.376 364.895 301.376L367.207 314.508C359.46 316.263 351.472 316.692 343.582 315.776C339.648 315.244 332.179 312.177 328.692 311.215C325.358 310.295 320.07 308.175 317.432 308.485C313.709 308.914 314.374 311.883 314.374 311.883C314.374 311.883 319.928 315.627 324.161 318.322C328.395 321.017 332.046 323.477 336.73 324.918C341.415 326.36 341.803 339.737 341.828 340.831C341.853 341.925 343.566 351.436 343.566 351.436C343.566 351.436 359.932 354.453 365.493 354.781C372.765 355.21 374.043 354.155 382.113 361.55C387.911 366.869 428.318 408.891 428.318 408.891C428.318 408.891 449.437 401.149 451.401 392.988C453.365 384.827 453.702 373.966 453.702 373.966L453.696 373.977Z" fill="#F5CFC1"/>
<path fill-rule="evenodd" clip-rule="evenodd" d="M347.192 337.887C347.192 337.887 329.479 332.13 325.245 329.664C321.01 327.199 313.719 323.136 309.966 320.378C309.27 319.866 307.573 318.732 307.041 318.446C306.1 317.945 308.155 314.222 312.021 314.886C314.895 315.377 321.983 319.304 325.153 320.511C328.323 321.719 339.583 323.856 339.583 323.856L347.202 337.896L347.192 337.887Z" fill="#F5CFC1"/>
<path fill-rule="evenodd" clip-rule="evenodd" d="M481.135 273.355C480.123 257.289 497.753 232.263 521.9 237.183C537.404 240.343 547.069 258.444 539.736 295.067C532.402 331.691 528.793 347.767 522.8 370.829C516.806 393.89 505.608 439.104 476.063 439.758C450.433 440.321 426.113 407.145 426.113 407.145C430.169 405.332 433.821 402.726 436.855 399.48C439.888 396.235 442.241 392.415 443.775 388.245C449.124 373.958 445.821 366.83 445.821 366.83L464.422 376.229C468.755 364.739 472.118 352.906 474.475 340.854C479.751 314.081 481.122 273.346 481.122 273.346L481.135 273.355Z" fill="#FFBA29"/>
<path d="M449.626 369.867C453.942 375.287 454.607 396.395 437.426 408.933" stroke="#AE5D41" stroke-width="2.14" stroke-linecap="round" stroke-linejoin="round"/>
<path fill-rule="evenodd" clip-rule="evenodd" d="M347.857 345.332C347.857 345.332 333.273 341.527 329.582 340.681C326.524 339.976 319.948 335.997 315.786 333.758C311.276 331.343 309.23 329.473 309.312 328.91C309.466 327.939 311.419 325.269 315.336 326.374C318.827 327.534 322.239 328.917 325.552 330.516C330.819 332.879 350.608 337.76 350.608 337.76" fill="#F5CFC1"/>
<path fill-rule="evenodd" clip-rule="evenodd" d="M357.644 353.565C357.644 353.565 342.611 352.43 338.827 352.256C335.697 352.113 328.518 349.362 324.019 347.91C319.15 346.335 316.798 344.869 316.788 344.3C316.768 343.316 318.209 340.341 322.26 340.722C325.901 341.241 329.505 341.992 333.049 342.972C338.654 344.353 359.006 345.621 359.006 345.621" fill="#F5CFC1"/>
<g opacity="0.158">
<path d="M133.7 234.766C133.488 233.559 133.381 232.977 133.285 232.401C133.188 231.825 133.082 231.239 132.86 230.037C132.829 229.862 132.742 229.701 132.614 229.578C132.485 229.455 132.321 229.376 132.144 229.352L124.403 228.279C123.632 226.937 123.274 226.319 122.821 225.538L125.772 218.309C125.837 218.145 125.85 217.965 125.808 217.794C125.767 217.623 125.673 217.469 125.54 217.353L124.646 216.6C123.623 215.732 123.381 215.527 121.857 214.255C121.721 214.142 121.552 214.074 121.376 214.062C121.199 214.05 121.023 214.093 120.873 214.187L114.255 218.356L111.283 217.265L108.889 209.824C108.833 209.654 108.725 209.507 108.581 209.403C108.436 209.298 108.262 209.243 108.084 209.244H103.277C103.099 209.243 102.925 209.298 102.78 209.403C102.635 209.507 102.527 209.654 102.472 209.824L100.083 217.268L97.1108 218.359L90.4932 214.189C90.3429 214.096 90.1669 214.052 89.9903 214.065C89.8137 214.077 89.6455 214.144 89.5094 214.257C88.2646 215.3 87.8783 215.628 87.2121 216.188L85.8223 217.356C85.6859 217.471 85.5891 217.626 85.5458 217.8C85.5025 217.973 85.5147 218.155 85.5809 218.321L88.532 225.55C88.0786 226.322 87.7272 226.93 86.9491 228.291L79.1984 229.364C79.0225 229.39 78.8589 229.469 78.7306 229.592C78.6023 229.715 78.5157 229.875 78.4829 230.049C78.2227 231.516 78.1252 232.057 78 232.79L77.653 234.788C77.6215 234.963 77.6467 235.144 77.7249 235.303C77.803 235.463 77.9301 235.594 78.0877 235.676L85.0076 239.325C85.0076 239.325 85.5004 242.143 85.5576 242.442L80.3073 248.234C80.1884 248.366 80.1142 248.532 80.0951 248.708C80.076 248.885 80.113 249.063 80.2009 249.217C80.2295 249.266 81.9188 252.2 82.2085 252.692L79.5829 254.959C78.6854 255.735 78.0464 256.766 77.7519 257.915C77.4574 259.064 77.5214 260.275 77.9352 261.387C78.3491 262.498 79.0931 263.457 80.0673 264.133C81.0415 264.809 82.1994 265.172 83.3854 265.171H83.5974C84.3959 265.141 85.1797 264.948 85.9003 264.602C86.6208 264.257 87.2627 263.767 87.7862 263.164L93.4899 256.572L93.2779 261.987C93.2726 262.164 93.3228 262.338 93.4214 262.485C93.5201 262.632 93.6622 262.744 93.828 262.807L98.345 264.458C98.4375 264.492 98.5359 264.509 98.6347 264.506C98.7634 264.505 98.8903 264.476 99.0058 264.419C99.1212 264.362 99.2222 264.279 99.301 264.178L104.098 258.001H107.264L112.051 264.178C112.161 264.318 112.313 264.42 112.484 264.468C112.656 264.516 112.839 264.508 113.006 264.446L113.846 264.137C115.332 263.601 115.545 263.519 117.523 262.796C117.69 262.735 117.833 262.623 117.932 262.476C118.031 262.328 118.08 262.153 118.073 261.976L117.773 254.168C118.719 253.377 119.26 252.923 120.196 252.132L127.84 253.783C128.015 253.82 128.197 253.801 128.36 253.728C128.523 253.655 128.659 253.533 128.748 253.377C129.694 251.727 129.761 251.611 131.151 249.217C131.241 249.064 131.279 248.885 131.26 248.708C131.241 248.531 131.165 248.364 131.044 248.234L125.794 242.442C126.171 240.29 126.241 239.904 126.344 239.312L133.264 235.664C133.422 235.582 133.55 235.452 133.628 235.292C133.707 235.132 133.731 234.951 133.699 234.776L133.7 234.766ZM86.5118 262.041C86.1404 262.471 85.6844 262.82 85.1721 263.066C84.6598 263.312 84.1023 263.45 83.5344 263.471C82.9666 263.491 82.4005 263.395 81.8716 263.187C81.3427 262.979 80.8623 262.665 80.4605 262.263C80.0586 261.861 79.744 261.381 79.5361 260.852C79.3283 260.323 79.2318 259.757 79.2526 259.189C79.2734 258.621 79.4111 258.063 79.657 257.551C79.9029 257.039 80.2519 256.583 80.682 256.211C81.3 255.675 96.4339 242.593 97.2924 241.849C97.4331 241.729 97.5301 241.565 97.5684 241.384C97.6067 241.202 97.5842 241.013 97.5043 240.846C96.8177 239.423 96.5038 237.848 96.5921 236.27C96.6804 234.692 97.168 233.162 98.0091 231.824C98.8503 230.486 100.017 229.384 101.401 228.62C102.785 227.857 104.34 227.457 105.92 227.459C106.142 227.459 106.368 227.459 106.587 227.478L100.159 233.906C100.05 234.016 99.9733 234.153 99.9375 234.303C99.9016 234.453 99.9079 234.609 99.9556 234.756L101.79 240.547C101.832 240.676 101.904 240.792 102 240.887C102.095 240.983 102.212 241.055 102.34 241.097L108.131 242.931C108.278 242.979 108.435 242.985 108.584 242.95C108.734 242.914 108.871 242.837 108.981 242.728L115.264 236.445C115.312 237.703 115.106 238.957 114.658 240.133C114.21 241.309 113.53 242.383 112.658 243.29C111.786 244.197 110.74 244.919 109.582 245.413C108.425 245.907 107.18 246.162 105.921 246.164C104.52 246.168 103.137 245.851 101.877 245.238C101.711 245.159 101.523 245.137 101.342 245.173C101.161 245.21 100.997 245.304 100.874 245.441L98.0168 248.742L97.9971 248.761L93.76 253.665C93.76 253.665 93.7403 253.684 93.7403 253.693L86.5208 262.052L86.5118 262.041ZM116.693 234.447C116.66 234.3 116.589 234.164 116.485 234.054C116.382 233.944 116.251 233.863 116.106 233.821C115.962 233.778 115.808 233.776 115.662 233.813C115.515 233.85 115.382 233.926 115.275 234.033L108.142 241.165L103.258 239.611L101.704 234.727L108.933 227.498C109.039 227.393 109.114 227.261 109.152 227.117C109.19 226.973 109.189 226.821 109.148 226.677C109.108 226.534 109.03 226.403 108.923 226.3C108.815 226.197 108.682 226.124 108.537 226.089C107.678 225.876 106.796 225.769 105.911 225.77C104.102 225.772 102.321 226.219 100.725 227.072C99.1293 227.924 97.7674 229.156 96.7596 230.659C95.7518 232.161 95.1289 233.889 94.9458 235.689C94.7626 237.489 95.0249 239.306 95.7095 240.981L93.6053 242.805C92.192 239.949 91.8353 236.685 92.5982 233.591C93.3611 230.497 95.1944 227.773 97.7735 225.901C100.353 224.03 103.511 223.131 106.689 223.365C109.867 223.599 112.86 224.95 115.137 227.179C117.414 229.408 118.829 232.371 119.131 235.543C119.433 238.716 118.602 241.892 116.786 244.511C114.97 247.129 112.286 249.021 109.209 249.85C106.132 250.679 102.861 250.392 99.9752 249.04L101.733 247.003C103.058 247.553 104.478 247.835 105.912 247.833C108.837 247.829 111.64 246.665 113.708 244.597C115.776 242.529 116.94 239.726 116.944 236.801C116.943 236.01 116.859 235.221 116.693 234.447ZM125.196 238C125.082 238.059 124.984 238.144 124.909 238.248C124.833 238.352 124.783 238.471 124.761 238.598C124.598 239.534 124.52 239.978 124.076 242.526C124.053 242.652 124.059 242.78 124.094 242.903C124.129 243.025 124.193 243.138 124.279 243.231L129.394 248.865C128.545 250.323 128.448 250.506 127.606 251.963L120.155 250.353C120.028 250.325 119.897 250.327 119.771 250.359C119.646 250.391 119.529 250.451 119.431 250.536C118.179 251.598 117.643 252.051 116.382 253.104C116.283 253.185 116.204 253.289 116.152 253.406C116.1 253.523 116.076 253.651 116.082 253.779L116.372 261.38C114.904 261.912 114.606 262.027 113.274 262.51L113.013 262.606L108.341 256.593C108.262 256.492 108.162 256.409 108.046 256.352C107.931 256.295 107.804 256.266 107.675 256.265H103.689C103.56 256.264 103.433 256.294 103.317 256.351C103.202 256.408 103.101 256.491 103.023 256.593L98.3512 262.616L94.9824 261.39L95.2507 254.489L98.8413 250.329C102.069 251.967 105.777 252.396 109.294 251.539C112.81 250.682 115.905 248.594 118.017 245.655C120.129 242.715 121.119 239.117 120.81 235.51C120.5 231.904 118.91 228.527 116.328 225.991C113.745 223.454 110.34 221.925 106.729 221.68C103.117 221.435 99.5374 222.49 96.636 224.655C93.7347 226.819 91.7034 229.95 90.9094 233.482C90.1154 237.014 90.611 240.713 92.3067 243.911L83.5044 251.525C83.4659 251.457 83.3112 251.197 81.9698 248.861L87.085 243.227C87.171 243.134 87.234 243.021 87.2692 242.899C87.3044 242.777 87.3109 242.648 87.288 242.523C86.5547 238.276 86.6415 238.247 86.1586 237.986L79.4255 234.438L79.667 233.038C79.7734 232.42 79.8602 231.938 80.0435 230.905L87.5912 229.863C88.1511 229.786 88.0643 229.66 90.1971 226.002C90.2641 225.891 90.3035 225.766 90.3119 225.636C90.3203 225.507 90.2975 225.378 90.2454 225.259L87.3694 218.213L88.2861 217.441C88.8557 216.958 89.2224 216.65 90.1104 215.906L96.5582 219.97C96.667 220.037 96.7893 220.078 96.9161 220.092C97.043 220.105 97.1713 220.09 97.2915 220.047L101.037 218.676C101.157 218.632 101.265 218.561 101.353 218.469C101.442 218.377 101.509 218.266 101.548 218.145L103.884 210.897H107.461L109.797 218.145C109.835 218.267 109.901 218.379 109.99 218.471C110.079 218.563 110.188 218.633 110.309 218.676L110.463 218.734C111.901 219.265 112.558 219.506 114.064 220.057C114.184 220.099 114.312 220.115 114.439 220.101C114.566 220.088 114.688 220.047 114.797 219.98L121.245 215.916C122.355 216.853 122.644 217.094 123.561 217.866L123.986 218.224L121.113 225.272C121.066 225.392 121.046 225.521 121.054 225.649C121.063 225.778 121.099 225.903 121.162 226.015C121.808 227.125 122.145 227.714 123.16 229.461C123.224 229.571 123.311 229.665 123.417 229.737C123.522 229.809 123.642 229.856 123.768 229.876L131.315 230.919C131.46 231.739 131.547 232.212 131.624 232.685C131.701 233.158 131.788 233.631 131.932 234.451L125.196 238.003V238Z" fill="#77776E" stroke="#727269" stroke-width="0.59" stroke-miterlimit="10"/>
<path d="M83.6838 256.54C83.1951 256.54 82.7174 256.684 82.311 256.956C81.9047 257.227 81.588 257.613 81.401 258.065C81.214 258.516 81.165 259.013 81.2604 259.492C81.3557 259.972 81.591 260.412 81.9366 260.758C82.2822 261.103 82.7224 261.338 83.2017 261.434C83.681 261.529 84.1779 261.48 84.6294 261.293C85.0809 261.106 85.4668 260.79 85.7383 260.383C86.0098 259.977 86.1547 259.499 86.1547 259.01C86.1535 258.355 85.8928 257.728 85.4297 257.265C84.9665 256.801 84.3387 256.541 83.6838 256.54ZM83.6838 259.812C83.5273 259.812 83.3742 259.765 83.2441 259.678C83.1139 259.591 83.0125 259.468 82.9526 259.323C82.8927 259.179 82.877 259.019 82.9076 258.866C82.9381 258.712 83.0135 258.571 83.1242 258.461C83.2348 258.35 83.3758 258.275 83.5294 258.244C83.6829 258.214 83.842 258.229 83.9867 258.289C84.1313 258.349 84.2549 258.45 84.3418 258.581C84.4288 258.711 84.4752 258.864 84.4752 259.02C84.4743 259.23 84.3906 259.431 84.2424 259.579C84.0942 259.727 83.8934 259.811 83.6838 259.812Z" fill="#77776E" stroke="#727269" stroke-width="0.59" stroke-miterlimit="10"/>
</g>
<g opacity="0.158">
<path d="M168.776 117.527L164.944 118.212L138.007 123.047C137.352 123.167 136.771 123.54 136.392 124.086C136.012 124.632 135.864 125.307 135.98 125.962L139.098 143.355C139.217 144.009 139.591 144.59 140.137 144.97C140.683 145.349 141.358 145.497 142.013 145.381L168.951 140.546L172.783 139.861C173.438 139.742 174.019 139.368 174.398 138.822C174.778 138.276 174.926 137.601 174.81 136.946L171.692 119.554C171.573 118.9 171.199 118.319 170.653 117.939C170.107 117.56 169.432 117.412 168.777 117.528L168.776 117.527ZM140.951 143.014L137.833 125.621C137.805 125.459 137.841 125.292 137.935 125.156C138.029 125.021 138.173 124.928 138.335 124.898L164.346 120.236L167.685 138.864L141.673 143.532C141.511 143.56 141.344 143.523 141.208 143.43C141.073 143.336 140.98 143.192 140.95 143.03L140.951 143.014ZM172.956 137.271C172.984 137.433 172.948 137.6 172.854 137.736C172.76 137.871 172.616 137.964 172.454 137.994L169.549 138.516L166.21 119.888L169.115 119.367C169.196 119.353 169.279 119.355 169.36 119.373C169.44 119.391 169.516 119.425 169.583 119.472C169.65 119.52 169.707 119.58 169.751 119.65C169.795 119.719 169.825 119.797 169.839 119.878L172.956 137.271Z" fill="#77776E"/>
<path d="M179.375 115.629L173.767 116.632C173.522 116.677 173.304 116.817 173.162 117.021C173.019 117.225 172.962 117.477 173.004 117.723L174.009 123.331C174.053 123.576 174.193 123.793 174.397 123.936C174.601 124.079 174.853 124.136 175.099 124.094L180.707 123.09C180.952 123.046 181.169 122.906 181.312 122.702C181.455 122.497 181.512 122.245 181.47 121.999L180.465 116.391C180.42 116.147 180.281 115.929 180.077 115.786C179.873 115.644 179.621 115.587 179.375 115.629ZM179.452 121.41L175.688 122.085L175.012 118.321L178.776 117.646L179.452 121.41Z" fill="#77776E"/>
<path d="M179.171 131.592C178.489 131.715 177.858 132.038 177.359 132.52C176.86 133.001 176.515 133.62 176.368 134.298C176.22 134.975 176.277 135.681 176.531 136.327C176.785 136.972 177.225 137.528 177.794 137.923C178.364 138.319 179.038 138.536 179.732 138.549C180.425 138.561 181.107 138.367 181.69 137.992C182.274 137.617 182.733 137.078 183.009 136.442C183.286 135.806 183.368 135.102 183.245 134.42C183.163 133.967 182.993 133.534 182.744 133.147C182.495 132.759 182.172 132.425 181.794 132.162C181.416 131.899 180.989 131.714 180.539 131.616C180.089 131.518 179.624 131.51 179.171 131.592ZM180.079 136.64C179.763 136.697 179.437 136.658 179.143 136.529C178.849 136.4 178.6 136.187 178.427 135.917C178.254 135.646 178.166 135.331 178.172 135.01C178.179 134.689 178.281 134.377 178.465 134.114C178.648 133.851 178.906 133.648 179.205 133.532C179.505 133.415 179.831 133.39 180.145 133.459C180.458 133.529 180.744 133.69 180.966 133.922C181.188 134.154 181.336 134.446 181.392 134.762C181.464 135.185 181.367 135.62 181.121 135.971C180.875 136.323 180.5 136.563 180.078 136.639L180.079 136.64Z" fill="#77776E"/>
<path d="M177.84 124.151C177.157 124.274 176.526 124.597 176.027 125.078C175.528 125.56 175.183 126.178 175.035 126.856C174.888 127.534 174.945 128.24 175.198 128.885C175.452 129.531 175.892 130.086 176.462 130.482C177.031 130.878 177.706 131.095 178.399 131.108C179.093 131.12 179.774 130.926 180.358 130.551C180.941 130.176 181.4 129.637 181.677 129.001C181.954 128.365 182.036 127.661 181.912 126.979C181.831 126.526 181.66 126.093 181.412 125.706C181.163 125.318 180.84 124.984 180.462 124.721C180.084 124.459 179.657 124.273 179.207 124.175C178.757 124.077 178.293 124.069 177.84 124.151ZM178.746 129.199C178.43 129.255 178.105 129.217 177.811 129.088C177.517 128.959 177.267 128.746 177.095 128.476C176.922 128.205 176.833 127.889 176.84 127.568C176.846 127.248 176.948 126.936 177.132 126.673C177.316 126.41 177.574 126.207 177.873 126.09C178.172 125.974 178.499 125.949 178.812 126.018C179.126 126.088 179.412 126.249 179.634 126.481C179.856 126.712 180.004 127.005 180.059 127.321C180.132 127.744 180.035 128.178 179.789 128.53C179.543 128.881 179.168 129.122 178.746 129.199Z" fill="#77776E"/>
<path d="M157.688 124.903C157.581 124.841 157.463 124.801 157.34 124.785C157.218 124.769 157.093 124.777 156.974 124.809C156.854 124.842 156.743 124.897 156.645 124.973C156.547 125.049 156.466 125.144 156.405 125.251L149.928 136.505C149.812 136.72 149.785 136.973 149.853 137.208C149.92 137.444 150.076 137.643 150.289 137.765C150.501 137.887 150.753 137.921 150.99 137.861C151.227 137.8 151.431 137.65 151.559 137.441L158.036 126.187C158.098 126.08 158.138 125.962 158.154 125.84C158.17 125.717 158.162 125.593 158.13 125.473C158.097 125.354 158.041 125.242 157.966 125.144C157.89 125.047 157.795 124.965 157.688 124.904V124.903Z" fill="#77776E"/>
<path d="M152.591 127.915C152.707 127.7 152.734 127.447 152.667 127.212C152.599 126.976 152.443 126.777 152.231 126.655C152.018 126.533 151.767 126.498 151.53 126.559C151.292 126.62 151.088 126.77 150.96 126.979L147.969 132.171C147.853 132.387 147.826 132.639 147.893 132.875C147.961 133.11 148.117 133.31 148.329 133.432C148.542 133.554 148.793 133.588 149.03 133.528C149.268 133.467 149.472 133.316 149.6 133.108L152.591 127.915Z" fill="#77776E"/>
<path d="M178.167 111.883L135.767 119.485C134.46 119.721 133.299 120.466 132.541 121.558C131.783 122.649 131.489 123.997 131.724 125.305L135.285 145.167C135.521 146.475 136.266 147.636 137.357 148.394C138.449 149.152 139.797 149.446 141.105 149.211L183.505 141.61C184.813 141.374 185.973 140.628 186.732 139.537C187.49 138.446 187.784 137.098 187.549 135.79L183.988 115.927C183.752 114.619 183.006 113.459 181.915 112.7C180.823 111.942 179.475 111.648 178.167 111.883ZM185.695 136.128C185.768 136.532 185.76 136.947 185.673 137.349C185.585 137.75 185.419 138.13 185.184 138.467C184.949 138.804 184.65 139.092 184.303 139.313C183.957 139.534 183.571 139.685 183.166 139.757L140.766 147.358C140.362 147.431 139.947 147.423 139.546 147.336C139.144 147.248 138.764 147.082 138.427 146.847C138.09 146.612 137.803 146.313 137.581 145.967C137.36 145.62 137.209 145.234 137.137 144.829L133.576 124.967C133.503 124.562 133.51 124.147 133.598 123.746C133.686 123.345 133.852 122.964 134.087 122.627C134.322 122.29 134.621 122.003 134.967 121.782C135.314 121.56 135.7 121.409 136.105 121.338L178.505 113.736C178.91 113.664 179.324 113.671 179.726 113.759C180.127 113.847 180.507 114.013 180.844 114.248C181.182 114.483 181.469 114.782 181.69 115.128C181.912 115.474 182.063 115.861 182.134 116.265L185.695 136.128Z" fill="#77776E"/>
</g>
<g opacity="0.158">
<path d="M285.017 26.492L281.195 26.1637C281.534 19.7957 279.383 13.5455 275.198 8.73448C271.012 3.92346 265.119 0.928745 258.765 0.383478C252.412 -0.161789 246.095 1.78513 241.151 5.81262C236.206 9.84011 233.022 15.6325 232.271 21.9651L228.459 21.6369C228.355 21.6277 228.25 21.6392 228.15 21.6706C228.051 21.702 227.958 21.7528 227.878 21.82C227.799 21.8873 227.733 21.9696 227.685 22.0623C227.637 22.1551 227.608 22.2564 227.599 22.3604L226.548 34.637C226.538 34.7411 226.548 34.8462 226.58 34.946C226.611 35.0459 226.661 35.1385 226.729 35.2185C226.796 35.2985 226.879 35.3643 226.972 35.412C227.065 35.4597 227.167 35.4884 227.271 35.4964L283.83 40.3514C283.934 40.3615 284.039 40.3506 284.139 40.3195C284.239 40.2884 284.332 40.2377 284.412 40.1703C284.492 40.1029 284.557 40.0203 284.605 39.9271C284.653 39.834 284.681 39.7323 284.689 39.6279L285.742 27.3513C285.752 27.2472 285.741 27.1421 285.71 27.0422C285.679 26.9423 285.628 26.8496 285.561 26.7696C285.493 26.6895 285.411 26.6237 285.318 26.5761C285.224 26.5284 285.122 26.4998 285.017 26.492ZM283.164 38.697L279.544 38.3885L279.863 34.6826C279.873 34.5785 279.862 34.4734 279.831 34.3736C279.8 34.2737 279.749 34.1811 279.681 34.1011C279.614 34.021 279.531 33.9553 279.438 33.9076C279.345 33.8598 279.244 33.8312 279.139 33.8232C278.93 33.8063 278.722 33.8728 278.561 34.0083C278.4 34.1437 278.299 34.3372 278.28 34.5467L277.962 38.2525L273.783 37.8948L274.004 35.2692C274.014 35.1651 274.003 35.0601 273.972 34.9602C273.941 34.8604 273.89 34.7677 273.823 34.6877C273.756 34.6077 273.673 34.5419 273.58 34.4942C273.487 34.4465 273.385 34.4178 273.281 34.4098C273.071 34.393 272.863 34.4595 272.703 34.5949C272.542 34.7304 272.441 34.9239 272.422 35.1333L272.2 37.7589L268.021 37.4012L268.339 33.6953C268.349 33.5912 268.338 33.4861 268.307 33.3863C268.276 33.2864 268.225 33.1938 268.158 33.1138C268.09 33.0338 268.008 32.968 267.915 32.9203C267.822 32.8726 267.72 32.8439 267.616 32.8359C267.406 32.819 267.198 32.8855 267.037 33.021C266.876 33.1565 266.775 33.3499 266.756 33.5594L266.438 37.2653L262.259 36.9076L262.481 34.282C262.491 34.1778 262.48 34.0727 262.449 33.9728C262.418 33.8729 262.367 33.7802 262.3 33.7002C262.232 33.6201 262.15 33.5544 262.056 33.5067C261.963 33.459 261.861 33.4304 261.757 33.4226C261.548 33.4057 261.34 33.4722 261.179 33.6076C261.018 33.7431 260.917 33.9366 260.898 34.146L260.676 36.7716L256.497 36.4139L256.815 32.708C256.825 32.6039 256.814 32.4989 256.783 32.399C256.752 32.2992 256.701 32.2065 256.634 32.1265C256.567 32.0465 256.484 31.9807 256.391 31.933C256.298 31.8853 256.196 31.8566 256.092 31.8486C255.882 31.8318 255.674 31.8983 255.513 32.0337C255.353 32.1692 255.252 32.3627 255.232 32.5721L254.914 36.278L250.735 35.9203L250.957 33.2947C250.967 33.1905 250.956 33.0854 250.925 32.9855C250.894 32.8856 250.843 32.7929 250.776 32.7129C250.709 32.6329 250.626 32.5671 250.533 32.5194C250.44 32.4717 250.338 32.4431 250.233 32.4353C250.024 32.4184 249.816 32.4849 249.655 32.6204C249.494 32.7558 249.393 32.9493 249.374 33.1588L249.152 35.7843L244.973 35.4266L245.292 31.7208C245.302 31.6166 245.291 31.5115 245.26 31.4116C245.229 31.3117 245.178 31.219 245.111 31.139C245.043 31.0589 244.96 30.9932 244.867 30.9455C244.774 30.8978 244.673 30.8692 244.568 30.8614C244.359 30.8447 244.151 30.9114 243.99 31.0468C243.83 31.1822 243.729 31.3755 243.71 31.5848L243.391 35.2907L239.212 34.933L239.434 32.3074C239.444 32.2033 239.433 32.0982 239.402 31.9984C239.371 31.8985 239.32 31.8059 239.253 31.7259C239.185 31.6459 239.103 31.5801 239.01 31.5324C238.917 31.4847 238.815 31.456 238.711 31.448C238.501 31.4311 238.293 31.4976 238.132 31.6331C237.971 31.7685 237.87 31.962 237.851 32.1715L237.629 34.7971L233.45 34.4394L233.769 30.7335C233.779 30.6293 233.768 30.5242 233.737 30.4243C233.706 30.3244 233.655 30.2317 233.588 30.1517C233.52 30.0717 233.438 30.0059 233.345 29.9582C233.251 29.9105 233.15 29.8819 233.045 29.8741C232.836 29.8572 232.628 29.9237 232.467 30.0592C232.306 30.1946 232.205 30.3881 232.186 30.5976L231.868 34.3034L228.258 33.9949L229.176 23.3155L232.978 23.6437C233.082 23.6529 233.187 23.6414 233.287 23.61C233.386 23.5786 233.478 23.5278 233.558 23.4606C233.638 23.3934 233.704 23.311 233.752 23.2183C233.8 23.1255 233.829 23.0242 233.838 22.9202C233.927 21.9467 234.076 20.9797 234.285 20.0246L238.107 21.0378C238.152 21.0472 238.197 21.0537 238.242 21.0574C238.428 21.0711 238.614 21.02 238.767 20.9127C238.92 20.8055 239.031 20.6488 239.082 20.469C239.135 20.2643 239.105 20.0468 238.999 19.8641C238.892 19.6814 238.717 19.5484 238.513 19.4943L234.668 18.4712C235.27 16.4042 236.16 14.4321 237.312 12.6128L239.011 13.8004C239.096 13.8616 239.193 13.9052 239.295 13.9287C239.397 13.9521 239.503 13.9549 239.607 13.9369C239.71 13.9189 239.809 13.8805 239.897 13.8239C239.985 13.7673 240.061 13.6936 240.121 13.6072C240.24 13.4338 240.287 13.2204 240.251 13.0129C240.215 12.8054 240.099 12.6204 239.928 12.4975L238.21 11.3009C239.491 9.55827 241.012 8.00511 242.727 6.68736L245.091 10.0561C245.158 10.1523 245.246 10.2324 245.348 10.2909C245.449 10.3493 245.563 10.3846 245.68 10.3941C245.869 10.413 246.058 10.3614 246.211 10.2493C246.382 10.1263 246.498 9.94125 246.534 9.73378C246.57 9.5263 246.524 9.31293 246.404 9.13945L244.03 5.76179C245.837 4.55718 247.806 3.61479 249.878 2.9627L250.504 5.27888C250.546 5.43811 250.636 5.58038 250.763 5.68587C250.889 5.79135 251.045 5.85478 251.209 5.86731C251.303 5.87164 251.398 5.862 251.489 5.83869C251.59 5.81164 251.684 5.76492 251.767 5.70124C251.85 5.63756 251.919 5.55815 251.971 5.46759C252.023 5.37702 252.057 5.27708 252.07 5.17348C252.084 5.06989 252.076 4.96469 252.049 4.86393L251.423 2.53882C253.539 2.03558 255.717 1.83743 257.889 1.95039L257.532 6.12933C257.522 6.23347 257.532 6.33858 257.564 6.43848C257.595 6.53838 257.645 6.63107 257.713 6.71111C257.78 6.79115 257.863 6.85693 257.956 6.90461C258.049 6.95228 258.151 6.98088 258.255 6.98872C258.465 7.00536 258.672 6.93875 258.833 6.80331C258.994 6.66788 259.095 6.47455 259.114 6.26526L259.471 2.08632C261.631 2.3463 263.744 2.91176 265.745 3.76576L264.732 5.94689C264.644 6.13911 264.635 6.35819 264.707 6.55681C264.78 6.75542 264.927 6.91763 265.118 7.0084C265.202 7.04984 265.293 7.073 265.386 7.07636C265.55 7.09141 265.714 7.05483 265.856 6.97176C265.998 6.88869 266.111 6.76328 266.178 6.61313L267.191 4.44183C269.123 5.43588 270.904 6.70062 272.48 8.19779L269.565 11.1221C269.417 11.2726 269.334 11.4755 269.334 11.6868C269.334 11.8981 269.417 12.101 269.565 12.2515C269.699 12.3814 269.872 12.4629 270.057 12.4831C270.174 12.4928 270.291 12.4771 270.401 12.4371C270.511 12.3971 270.611 12.3338 270.694 12.2515L273.599 9.33709C275.066 10.9285 276.3 12.7189 277.266 14.6553L275.365 15.5434C275.174 15.6341 275.026 15.7963 274.954 15.9949C274.882 16.1936 274.89 16.4126 274.978 16.6049C275.036 16.7328 275.128 16.8425 275.244 16.9223C275.359 17.0022 275.494 17.0492 275.635 17.0583C275.774 17.0703 275.914 17.0437 276.04 16.9813L277.918 16.1032C278.749 18.0907 279.291 20.187 279.527 22.3282L275.57 22.6859C275.371 22.7036 275.186 22.7951 275.051 22.9425C274.916 23.0899 274.842 23.2825 274.842 23.4823C274.842 23.6821 274.916 23.8746 275.051 24.022C275.186 24.1694 275.371 24.261 275.57 24.2786H275.705L279.64 23.9307C279.683 24.9057 279.664 25.8825 279.582 26.855C279.572 26.9592 279.583 27.0643 279.614 27.1642C279.645 27.2641 279.696 27.3568 279.763 27.4368C279.83 27.5168 279.913 27.5826 280.006 27.6303C280.099 27.678 280.201 27.7066 280.305 27.7144L284.108 28.0426L283.191 38.7363L283.164 38.697Z" fill="#77776E" stroke="#727269" stroke-width="0.63" stroke-miterlimit="10"/>
<path d="M257.829 11.3099C254.239 11.0087 250.676 12.143 247.921 14.4641C245.165 16.7852 243.442 20.1039 243.13 23.6929C243.12 23.7971 243.13 23.9023 243.162 24.0022C243.193 24.1022 243.244 24.1949 243.311 24.275C243.379 24.355 243.461 24.4208 243.555 24.4684C243.648 24.5161 243.75 24.5446 243.854 24.5523L269.335 26.7334C269.54 26.7505 269.744 26.6878 269.904 26.5584C270.064 26.429 270.168 26.2428 270.194 26.0386V25.9903C270.496 22.4018 269.363 18.84 267.044 16.085C264.725 13.3299 261.408 11.6061 257.821 11.2911L257.829 11.3099ZM244.818 23.0365C245.277 20.0279 246.863 17.3065 249.254 15.424C251.646 13.5415 254.664 12.6389 257.696 12.8992C260.728 13.1594 263.548 14.5631 265.584 16.8255C267.619 19.0879 268.718 22.0398 268.658 25.0826L244.818 23.0365Z" fill="#77776E" stroke="#727269" stroke-width="0.63" stroke-miterlimit="10"/>
<path d="M278.445 43.0444L273.359 42.6098L268.475 42.1949L239.182 39.6855H239.008C238.965 39.6894 238.923 39.6991 238.883 39.7142C238.863 39.7127 238.843 39.716 238.825 39.724L235.061 41.1718L229.569 43.2948C229.43 43.3497 229.309 43.4417 229.219 43.5608C229.129 43.6799 229.073 43.8214 229.058 43.97C229.045 44.1191 229.074 44.2688 229.143 44.402C229.211 44.5351 229.315 44.6464 229.444 44.723L234.492 47.7537L237.948 49.8284C237.974 49.8391 238 49.8519 238.025 49.8669C238.044 49.8669 238.063 49.8865 238.083 49.8955C238.15 49.9262 238.222 49.9427 238.295 49.9438L267.579 52.4531L272.462 52.868L277.549 53.3027C277.653 53.3118 277.758 53.3004 277.857 53.2689C277.957 53.2375 278.049 53.1866 278.129 53.1193C278.83 52.5325 279.409 51.8127 279.832 51.0012C280.254 50.1897 280.512 49.3027 280.59 48.3913C280.668 47.4798 280.565 46.5619 280.286 45.6904C280.008 44.819 279.56 44.0112 278.968 43.3136C278.902 43.2337 278.82 43.1678 278.728 43.1198C278.636 43.0717 278.535 43.0424 278.432 43.0337L278.445 43.0444ZM267.535 43.7107L266.927 50.7951L240.346 48.5174L240.481 48.4011C240.501 48.3861 240.521 48.37 240.539 48.3529C240.646 48.2563 240.751 48.1695 240.848 48.0631C240.867 48.0434 240.876 48.0247 240.896 48.005C241.645 47.2106 242.104 46.187 242.199 45.0995C242.297 44.0096 242.017 42.9192 241.408 42.0107C241.4 41.9933 241.391 41.977 241.379 41.9624C241.282 41.8273 241.186 41.6941 241.079 41.5662L240.964 41.4312L267.545 43.7089L267.535 43.7107ZM234.439 43.1312L234.218 45.7371L231.66 44.2124L234.439 43.1392V43.1312ZM236.099 42.4945L238.86 41.4213L239.854 42.5991L240.057 42.8593V42.8692C240.468 43.4811 240.659 44.214 240.599 44.9484C240.539 45.6828 240.233 46.3753 239.729 46.9131L239.7 46.9417C239.625 47.0206 239.544 47.0947 239.459 47.1635L238.281 48.1579L235.742 46.6332L236.1 42.4828L236.099 42.4945ZM269.128 43.8555L272.419 44.1355L271.811 51.2199L268.52 50.94L269.128 43.8555ZM277.355 51.693L273.398 51.3549L274.006 44.2705L277.963 44.6085C278.752 45.6567 279.127 46.959 279.015 48.2661C278.913 49.5776 278.32 50.8024 277.354 51.6956L277.355 51.693Z" fill="#77776E" stroke="#727269" stroke-width="0.63" stroke-miterlimit="10"/>
</g>
<g opacity="0.158">
<path d="M613.178 28.0622L568.268 19.5666C567.89 19.4955 567.502 19.4995 567.126 19.5785C566.75 19.6574 566.393 19.8097 566.075 20.0266C565.758 20.2435 565.487 20.5208 565.277 20.8427C565.066 21.1645 564.922 21.5247 564.851 21.9024L556.355 66.812C556.284 67.1897 556.288 67.5778 556.367 67.954C556.446 68.3302 556.598 68.6871 556.815 69.0044C557.032 69.3218 557.309 69.5932 557.631 69.8033C557.953 70.0135 558.313 70.1581 558.691 70.229L603.601 78.7246C603.979 78.7957 604.367 78.7917 604.743 78.7127C605.119 78.6338 605.476 78.4815 605.793 78.2646C606.111 78.0477 606.382 77.7704 606.592 77.4485C606.803 77.1266 606.947 76.7665 607.018 76.3888L615.514 31.4792C615.585 31.1015 615.581 30.7134 615.502 30.3372C615.423 29.961 615.271 29.6041 615.054 29.2868C614.837 28.9694 614.559 28.698 614.238 28.4879C613.916 28.2777 613.556 28.1331 613.178 28.0622ZM605.524 76.108C605.452 76.4747 605.239 76.7984 604.93 77.0081C604.621 77.2179 604.241 77.2968 603.874 77.2276L558.964 68.732C558.597 68.6607 558.273 68.447 558.063 68.1377C557.853 67.8283 557.775 67.4484 557.844 67.0812L566.34 22.1716C566.411 21.8049 566.625 21.4812 566.934 21.2714C567.243 21.0616 567.623 20.9827 567.99 21.052L612.9 29.5476C613.267 29.6189 613.59 29.8325 613.8 30.1419C614.01 30.4513 614.089 30.8311 614.019 31.1984L605.524 76.108Z" fill="#77776E" stroke="#727269" stroke-width="0.85" stroke-miterlimit="10"/>
<path d="M604.115 33.0326C604 32.8689 603.827 32.755 603.632 32.7142L571.193 26.5759C571.094 26.5572 570.993 26.5581 570.895 26.5785C570.797 26.599 570.704 26.6386 570.622 26.6951C570.539 26.7517 570.469 26.824 570.414 26.9079C570.36 26.9918 570.323 27.0856 570.304 27.184L564.166 59.6229C564.146 59.7208 564.146 59.8217 564.166 59.9196C564.186 60.0174 564.226 60.1103 564.282 60.1926L567.738 65.2595C567.852 65.4233 568.025 65.5372 568.221 65.5779L600.66 71.7162C600.758 71.735 600.859 71.7341 600.957 71.7136C601.055 71.6931 601.148 71.6535 601.231 71.597C601.313 71.5405 601.384 71.4682 601.438 71.3843C601.493 71.3004 601.53 71.2065 601.548 71.1081L607.686 38.6692C607.706 38.5714 607.706 38.4705 607.687 38.3727C607.667 38.2748 607.627 38.1819 607.571 38.0996L604.115 33.0326ZM577.119 38.3213C577.486 38.391 577.825 38.5681 578.092 38.8303C578.359 39.0924 578.542 39.4278 578.618 39.794C578.695 40.1602 578.66 40.5408 578.52 40.8877C578.38 41.2346 578.141 41.5322 577.831 41.7428C577.522 41.9534 577.158 42.0676 576.784 42.0709C576.409 42.0743 576.043 41.9666 575.73 41.7616C575.417 41.5566 575.172 41.2634 575.026 40.9191C574.879 40.5748 574.839 40.1948 574.908 39.8273C575.003 39.3353 575.288 38.9007 575.702 38.6186C576.117 38.3366 576.626 38.23 577.118 38.3222L577.119 38.3213ZM594.724 59.9699C594.356 59.9004 594.017 59.7234 593.75 59.4613C593.483 59.1993 593.3 58.8639 593.224 58.4977C593.147 58.1314 593.181 57.7508 593.321 57.4038C593.461 57.0569 593.701 56.7592 594.01 56.5485C594.319 56.3378 594.684 56.2236 595.058 56.2202C595.432 56.2168 595.799 56.3244 596.112 56.5294C596.425 56.7345 596.67 57.0277 596.816 57.372C596.962 57.7164 597.003 58.0964 596.933 58.464C596.839 58.9565 596.554 59.3917 596.14 59.6741C595.725 59.9566 595.216 60.0633 594.723 59.9708L594.724 59.9699ZM593.817 68.8688L595.207 61.5143C596.049 61.4888 596.853 61.1537 597.464 60.5731C598.075 59.9924 598.45 59.2069 598.519 58.3668C598.587 57.5267 598.343 56.6908 597.834 56.0191C597.325 55.3473 596.586 54.8868 595.759 54.7255C594.931 54.5642 594.074 54.7135 593.349 55.1448C592.625 55.5761 592.085 56.2592 591.833 57.0635C591.581 57.8678 591.634 58.7368 591.982 59.5044C592.33 60.2721 592.949 60.8845 593.72 61.2246L592.331 68.5791L573.539 65.027L574.475 60.0853C574.513 59.8869 574.469 59.6819 574.355 59.5153C574.241 59.3488 574.066 59.2344 573.867 59.1973C573.669 59.1601 573.464 59.2034 573.297 59.3174C573.131 59.4314 573.016 59.607 572.979 59.8054L572.043 64.7471L568.824 64.139L565.726 59.5934L568.197 46.5639L575.252 47.8954L574.075 54.1303C574.056 54.2286 574.057 54.3296 574.077 54.4275C574.098 54.5254 574.138 54.6183 574.194 54.7009C574.251 54.7834 574.323 54.854 574.407 54.9085C574.491 54.9629 574.584 55.0003 574.683 55.0183L581.226 56.2533C581.252 57.0958 581.587 57.8994 582.168 58.5104C582.748 59.1214 583.534 59.4969 584.374 59.5653C585.214 59.6336 586.05 59.3899 586.722 58.8807C587.393 58.3716 587.854 57.6327 588.015 56.8054C588.177 55.9781 588.027 55.1203 587.596 54.3961C587.165 53.6719 586.482 53.1321 585.677 52.8799C584.873 52.6276 584.004 52.6806 583.236 53.0288C582.469 53.3769 581.856 53.9958 581.516 54.767L575.716 53.6671L576.894 47.4322C576.912 47.3339 576.911 47.2329 576.891 47.135C576.87 47.0371 576.831 46.9442 576.774 46.8616C576.718 46.7791 576.646 46.7085 576.562 46.654C576.478 46.5996 576.384 46.5622 576.285 46.5442L568.487 45.0677L571.673 28.2062L578.053 29.4126L576.663 36.7671C575.82 36.7926 575.017 37.1277 574.406 37.7083C573.795 38.289 573.419 39.0745 573.351 39.9146C573.283 40.7547 573.526 41.5906 574.035 42.2623C574.545 42.9341 575.283 43.3946 576.111 43.5559C576.938 43.7172 577.796 43.5679 578.52 43.1366C579.244 42.7053 579.784 42.0222 580.036 41.2179C580.289 40.4136 580.236 39.5446 579.887 38.777C579.539 38.0093 578.92 37.3969 578.149 37.0568L579.539 29.7023L598.33 33.2544L597.394 38.1961C597.357 38.3945 597.4 38.5995 597.514 38.7661C597.628 38.9326 597.804 39.047 598.002 39.0841C598.201 39.1213 598.406 39.0781 598.572 38.964C598.739 38.85 598.853 38.6744 598.89 38.476L599.826 33.5343L603.046 34.1424L606.144 38.688L603.673 51.7176L596.618 50.386L597.796 44.1511C597.814 44.0528 597.814 43.9518 597.793 43.8539C597.773 43.756 597.733 43.6631 597.676 43.5805C597.62 43.498 597.548 43.4274 597.464 43.373C597.38 43.3185 597.286 43.2811 597.188 43.2631L590.644 42.0281C590.619 41.1856 590.283 40.382 589.703 39.771C589.122 39.16 588.337 38.7845 587.496 38.7162C586.656 38.6478 585.821 38.8915 585.149 39.4007C584.477 39.9098 584.016 40.6487 583.855 41.476C583.694 42.3034 583.843 43.1611 584.274 43.8853C584.706 44.6095 585.389 45.1493 586.193 45.4015C586.997 45.6538 587.866 45.6008 588.634 45.2526C589.402 44.9045 590.014 44.2856 590.354 43.5144L596.155 44.6143L594.977 50.8492C594.958 50.9475 594.959 51.0485 594.979 51.1464C595 51.2443 595.04 51.3372 595.096 51.4198C595.153 51.5023 595.225 51.5729 595.309 51.6274C595.393 51.6818 595.487 51.7192 595.585 51.7372L603.383 53.2137L600.198 70.0752L593.817 68.8688ZM582.747 55.7713C582.816 55.4037 582.994 55.0651 583.256 54.7983C583.518 54.5314 583.853 54.3483 584.22 54.2721C584.586 54.1959 584.967 54.23 585.313 54.3701C585.66 54.5103 585.958 54.7502 586.168 55.0594C586.379 55.3686 586.493 55.7334 586.496 56.1075C586.499 56.4816 586.392 56.8482 586.186 57.1611C585.981 57.4739 585.688 57.7189 585.344 57.865C584.999 58.0111 584.619 58.0518 584.252 57.9819C583.76 57.8876 583.325 57.6022 583.042 57.188C582.76 56.7739 582.654 56.2648 582.746 55.7722L582.747 55.7713ZM589.107 42.5003C589.037 42.8678 588.86 43.2064 588.598 43.4733C588.336 43.7402 588 43.9233 587.634 43.9996C587.268 44.0758 586.887 44.0418 586.54 43.9017C586.194 43.7617 585.896 43.5219 585.685 43.2128C585.475 42.9036 585.361 42.5389 585.357 42.1649C585.354 41.7908 585.461 41.4242 585.666 41.1113C585.871 40.7984 586.165 40.5533 586.509 40.4071C586.853 40.2608 587.233 40.2199 587.601 40.2896C588.093 40.3841 588.528 40.67 588.81 41.0845C589.092 41.499 589.199 42.0084 589.106 42.5012L589.107 42.5003Z" fill="#77776E" stroke="#727269" stroke-width="0.85" stroke-miterlimit="10"/>
</g>
<g opacity="0.158">
<path d="M603.233 443.263L597.616 444.026C597.388 444.057 597.182 444.177 597.043 444.36C596.904 444.543 596.843 444.773 596.873 445.001L597.636 450.618C597.667 450.846 597.787 451.052 597.97 451.191C598.152 451.33 598.383 451.391 598.61 451.361L604.227 450.598C604.455 450.567 604.661 450.447 604.8 450.264C604.94 450.082 605.001 449.851 604.971 449.624L604.208 444.007C604.177 443.779 604.057 443.573 603.874 443.434C603.691 443.294 603.461 443.233 603.233 443.263ZM603.136 448.997L599.247 449.528L598.716 445.639L602.606 445.107L603.136 448.997Z" fill="#77776E" stroke="#727269" stroke-width="0.9" stroke-miterlimit="10"/>
<path d="M604.413 451.96L598.796 452.723C598.568 452.754 598.362 452.874 598.223 453.056C598.083 453.239 598.022 453.47 598.052 453.697L598.815 459.314C598.846 459.542 598.966 459.748 599.149 459.887C599.332 460.026 599.562 460.088 599.79 460.057L605.407 459.295C605.635 459.263 605.841 459.143 605.98 458.961C606.119 458.778 606.181 458.548 606.15 458.32L605.387 452.703C605.356 452.475 605.236 452.269 605.053 452.13C604.871 451.991 604.64 451.929 604.413 451.96ZM604.316 457.693L600.426 458.224L599.895 454.335L603.785 453.804L604.316 457.693Z" fill="#77776E" stroke="#727269" stroke-width="0.9" stroke-miterlimit="10"/>
<path d="M613.109 450.783L607.492 451.545C607.264 451.577 607.058 451.697 606.919 451.879C606.78 452.062 606.719 452.292 606.749 452.52L607.512 458.137C607.543 458.365 607.663 458.571 607.845 458.71C608.028 458.849 608.259 458.911 608.486 458.88L614.103 458.117C614.331 458.086 614.537 457.966 614.676 457.784C614.816 457.601 614.877 457.37 614.847 457.143L614.084 451.526C614.053 451.298 613.933 451.092 613.75 450.953C613.567 450.813 613.337 450.752 613.109 450.783ZM613.012 456.516L609.123 457.047L608.592 453.158L612.481 452.627L613.012 456.516Z" fill="#77776E" stroke="#727269" stroke-width="0.9" stroke-miterlimit="10"/>
<path d="M611.92 442.086L606.303 442.849C606.075 442.88 605.869 443 605.73 443.182C605.59 443.365 605.529 443.596 605.559 443.823L606.322 449.44C606.353 449.668 606.473 449.874 606.656 450.013C606.839 450.152 607.069 450.214 607.297 450.183L612.914 449.421C613.142 449.389 613.348 449.269 613.487 449.087C613.626 448.904 613.687 448.674 613.657 448.446L612.894 442.829C612.863 442.601 612.743 442.395 612.56 442.256C612.378 442.117 612.147 442.055 611.92 442.086ZM611.823 447.819L607.934 448.35L607.402 444.461L611.292 443.93L611.823 447.819Z" fill="#77776E" stroke="#727269" stroke-width="0.9" stroke-miterlimit="10"/>
<path d="M641.264 435.986L612.584 414.173C611.876 413.635 610.984 413.399 610.103 413.517C609.666 413.573 609.244 413.717 608.863 413.939C608.482 414.161 608.149 414.457 607.884 414.81L586.063 443.494C585.525 444.202 585.289 445.094 585.407 445.975C585.463 446.413 585.607 446.834 585.829 447.216C586.051 447.597 586.347 447.93 586.7 448.195C587.407 448.733 588.299 448.969 589.181 448.851C589.618 448.794 590.04 448.651 590.421 448.429C590.802 448.207 591.135 447.911 591.4 447.558L592.346 446.323L595.29 467.972L594.779 468.04C594.551 468.071 594.345 468.191 594.206 468.373C594.067 468.556 594.005 468.787 594.036 469.014L594.702 473.946C594.733 474.174 594.853 474.38 595.036 474.519C595.218 474.658 595.449 474.72 595.677 474.689L640.422 468.608C640.65 468.577 640.856 468.457 640.995 468.274C641.134 468.092 641.195 467.861 641.165 467.634L640.499 462.702C640.468 462.474 640.348 462.268 640.165 462.129C639.982 461.989 639.752 461.928 639.524 461.959L639.013 462.026L636.088 440.474L637.208 441.324C637.915 441.862 638.808 442.098 639.689 441.98C640.126 441.924 640.548 441.78 640.929 441.558C641.31 441.336 641.643 441.04 641.908 440.687C642.447 439.98 642.683 439.088 642.565 438.207C642.508 437.769 642.364 437.347 642.142 436.966C641.92 436.585 641.624 436.252 641.272 435.987L641.264 435.986ZM639.334 467.007L596.319 472.855L595.884 469.651L596.396 469.583L618.961 466.514L633.187 464.583L638.389 463.879L638.901 463.811L639.335 467.015L639.334 467.007ZM629.518 459.324L621.092 460.472L618.708 442.936L627.134 441.787L629.518 459.324ZM620.464 462.316L630.618 460.936L631.796 460.773L632.095 462.973L619.597 464.673L619.297 462.472L620.475 462.308L620.464 462.316ZM637.297 462.278L633.822 462.751L633.407 459.682C633.376 459.454 633.256 459.248 633.073 459.109C632.891 458.969 632.66 458.908 632.433 458.939L631.255 459.102L628.751 440.696C628.72 440.469 628.6 440.263 628.417 440.123C628.234 439.984 628.004 439.923 627.776 439.953L617.622 441.333C617.395 441.364 617.189 441.484 617.049 441.667C616.91 441.85 616.849 442.08 616.879 442.308L619.383 460.714L618.205 460.878C617.978 460.909 617.772 461.029 617.632 461.212C617.493 461.395 617.432 461.625 617.462 461.853L617.877 464.922L597.04 467.75L593.865 444.374L611.218 421.557L634.142 438.995L637.307 462.275L637.297 462.278ZM640.53 439.653C640.264 439.985 639.88 440.202 639.458 440.259C639.036 440.317 638.608 440.21 638.262 439.961L635.483 437.847C635.471 437.836 635.459 437.826 635.445 437.818L611.556 419.65C611.392 419.527 611.19 419.465 610.985 419.476C610.781 419.486 610.586 419.568 610.436 419.708C610.389 419.751 610.347 419.8 610.311 419.852L592.252 443.586C592.241 443.597 592.232 443.61 592.224 443.624L590.023 446.52C589.756 446.852 589.372 447.069 588.951 447.126C588.529 447.183 588.101 447.077 587.755 446.828C587.584 446.701 587.44 446.54 587.332 446.356C587.225 446.171 587.156 445.967 587.129 445.755C587.101 445.545 587.114 445.33 587.169 445.125C587.223 444.92 587.318 444.727 587.447 444.559L609.268 415.874C609.395 415.703 609.556 415.559 609.741 415.451C609.925 415.344 610.129 415.275 610.341 415.248C610.552 415.219 610.766 415.233 610.971 415.287C611.177 415.342 611.369 415.437 611.538 415.566L640.213 437.379C640.384 437.507 640.528 437.668 640.635 437.852C640.743 438.037 640.812 438.241 640.839 438.453C640.867 438.663 640.854 438.877 640.799 439.083C640.745 439.288 640.65 439.48 640.52 439.649L640.53 439.653Z" fill="#77776E" stroke="#727269" stroke-width="0.9" stroke-miterlimit="10"/>
</g>
<g opacity="0.158">
<path d="M141.451 430.842H90.7685C89.3792 430.842 88.0468 431.394 87.0644 432.376C86.082 433.359 85.53 434.691 85.5298 436.08V486.763C85.53 488.152 86.082 489.484 87.0644 490.467C88.0468 491.449 89.3792 492.001 90.7685 492.001H141.451C142.84 491.999 144.171 491.447 145.153 490.465C146.135 489.483 146.688 488.151 146.69 486.763V436.08C146.69 434.691 146.138 433.359 145.155 432.376C144.173 431.394 142.84 430.842 141.451 430.842ZM87.812 436.08C87.8134 435.3 88.1242 434.551 88.6764 433.999C89.2285 433.447 89.9769 433.136 90.7578 433.135H141.44C142.221 433.136 142.97 433.447 143.522 433.999C144.074 434.551 144.385 435.3 144.386 436.08V445.56H87.8022V436.08H87.812ZM141.451 489.719H90.7685C89.9877 489.718 89.2392 489.407 88.6871 488.855C88.135 488.303 87.8241 487.554 87.8227 486.773V447.863H144.407V486.773C144.405 487.554 144.094 488.303 143.542 488.855C142.99 489.407 142.242 489.718 141.461 489.719H141.451Z" fill="#77776E"/>
<path d="M115.993 450.924C112.344 450.924 108.777 452.006 105.743 454.033C102.708 456.061 100.343 458.942 98.947 462.314C97.5505 465.685 97.1851 469.395 97.897 472.974C98.6089 476.553 100.366 479.841 102.947 482.421C105.527 485.001 108.815 486.759 112.394 487.471C115.973 488.183 119.683 487.817 123.054 486.421C126.426 485.024 129.307 482.659 131.335 479.625C133.362 476.591 134.444 473.024 134.444 469.374C134.438 464.483 132.492 459.794 129.033 456.335C125.574 452.876 120.885 450.93 115.993 450.924ZM115.993 485.532C112.798 485.532 109.674 484.585 107.016 482.809C104.359 481.034 102.288 478.51 101.065 475.558C99.8424 472.605 99.5225 469.357 100.146 466.222C100.769 463.088 102.308 460.209 104.568 457.949C106.828 455.69 109.707 454.151 112.841 453.527C115.975 452.904 119.224 453.224 122.177 454.447C125.129 455.67 127.653 457.741 129.428 460.398C131.204 463.055 132.151 466.179 132.151 469.374C132.146 473.658 130.443 477.765 127.413 480.794C124.384 483.824 120.277 485.527 115.993 485.532Z" fill="#77776E"/>
<path d="M115.995 455.205C113.192 455.205 110.452 456.036 108.122 457.593C105.791 459.15 103.975 461.363 102.903 463.953C101.831 466.542 101.55 469.392 102.097 472.14C102.644 474.889 103.994 477.414 105.977 479.395C107.959 481.377 110.484 482.726 113.233 483.272C115.982 483.819 118.831 483.537 121.42 482.464C124.009 481.391 126.222 479.574 127.779 477.243C129.335 474.913 130.165 472.173 130.165 469.37C130.16 465.614 128.666 462.013 126.009 459.357C123.353 456.701 119.751 455.208 115.995 455.205ZM115.995 457.498C118.832 457.501 121.575 458.52 123.727 460.371C125.878 462.221 127.296 464.78 127.724 467.586C126.592 467.118 125.391 466.838 124.168 466.755C120.928 466.534 117.794 467.491 114.606 468.586L114.321 468.68C111.576 469.617 108.746 470.606 105.906 470.564C105.324 470.56 104.743 470.504 104.17 470.396C104.139 470.059 104.118 469.712 104.118 469.365C104.122 466.216 105.375 463.198 107.602 460.972C109.828 458.746 112.846 457.493 115.995 457.489V457.498ZM115.995 481.261C113.439 481.258 110.953 480.432 108.905 478.905C106.856 477.377 105.355 475.231 104.623 472.782C105.044 472.835 105.464 472.856 105.886 472.867H106.012C109.178 472.867 112.176 471.846 115.069 470.857L115.353 470.762C118.436 469.711 121.202 468.858 124.022 469.048C125.365 469.135 126.671 469.527 127.84 470.194C127.634 473.195 126.299 476.005 124.102 478.059C121.906 480.113 119.013 481.259 116.005 481.264L115.995 481.261Z" fill="#77776E"/>
<path d="M115.836 436.091C115.127 436.091 114.433 436.301 113.843 436.695C113.253 437.089 112.793 437.649 112.521 438.305C112.249 438.96 112.178 439.681 112.316 440.377C112.455 441.073 112.796 441.712 113.298 442.214C113.8 442.716 114.439 443.058 115.135 443.196C115.831 443.335 116.552 443.264 117.207 442.992C117.863 442.72 118.423 442.261 118.817 441.671C119.211 441.081 119.422 440.387 119.421 439.677C119.42 438.727 119.042 437.816 118.37 437.144C117.698 436.471 116.787 436.093 115.836 436.091ZM115.836 440.983C115.58 440.983 115.33 440.907 115.117 440.765C114.905 440.623 114.739 440.421 114.641 440.184C114.543 439.948 114.517 439.688 114.567 439.437C114.617 439.185 114.74 438.955 114.921 438.774C115.102 438.593 115.333 438.47 115.584 438.42C115.835 438.37 116.095 438.396 116.332 438.493C116.568 438.591 116.77 438.757 116.912 438.97C117.054 439.183 117.13 439.433 117.13 439.689C117.13 439.859 117.097 440.027 117.032 440.184C116.967 440.341 116.872 440.484 116.752 440.604C116.631 440.724 116.489 440.82 116.332 440.885C116.175 440.95 116.006 440.983 115.836 440.983Z" fill="#77776E"/>
<path d="M126.039 436.091C125.33 436.091 124.636 436.301 124.046 436.695C123.456 437.089 122.996 437.649 122.724 438.305C122.452 438.96 122.381 439.681 122.519 440.377C122.658 441.073 122.999 441.712 123.501 442.214C124.003 442.716 124.642 443.058 125.338 443.196C126.034 443.335 126.755 443.264 127.411 442.992C128.066 442.72 128.626 442.261 129.02 441.671C129.415 441.081 129.625 440.387 129.625 439.677C129.623 438.727 129.245 437.816 128.573 437.144C127.901 436.471 126.99 436.093 126.039 436.091ZM126.039 440.983C125.784 440.983 125.533 440.907 125.321 440.765C125.108 440.623 124.942 440.421 124.844 440.184C124.746 439.948 124.72 439.688 124.77 439.437C124.82 439.185 124.943 438.955 125.124 438.774C125.305 438.593 125.536 438.47 125.787 438.42C126.038 438.37 126.298 438.396 126.535 438.493C126.771 438.591 126.973 438.757 127.115 438.97C127.258 439.183 127.333 439.433 127.333 439.689C127.334 439.859 127.3 440.027 127.235 440.184C127.17 440.341 127.075 440.484 126.955 440.604C126.835 440.724 126.692 440.82 126.535 440.885C126.378 440.95 126.209 440.983 126.039 440.983Z" fill="#77776E"/>
<path d="M136.244 436.091C135.534 436.091 134.84 436.301 134.25 436.695C133.66 437.089 133.2 437.649 132.928 438.305C132.657 438.96 132.585 439.681 132.724 440.377C132.862 441.073 133.203 441.712 133.705 442.214C134.207 442.716 134.846 443.058 135.542 443.196C136.238 443.335 136.959 443.264 137.615 442.992C138.27 442.72 138.83 442.261 139.225 441.671C139.619 441.081 139.829 440.387 139.829 439.677C139.827 438.727 139.449 437.816 138.777 437.144C138.105 436.471 137.194 436.093 136.244 436.091ZM136.244 440.983C135.988 440.983 135.737 440.907 135.525 440.765C135.312 440.623 135.146 440.421 135.048 440.184C134.95 439.948 134.924 439.688 134.974 439.437C135.024 439.185 135.148 438.955 135.329 438.774C135.509 438.593 135.74 438.47 135.991 438.42C136.242 438.37 136.502 438.396 136.739 438.493C136.975 438.591 137.177 438.757 137.319 438.97C137.462 439.183 137.538 439.433 137.538 439.689C137.538 439.859 137.504 440.027 137.439 440.184C137.374 440.341 137.279 440.484 137.159 440.604C137.039 440.724 136.896 440.82 136.739 440.885C136.582 440.95 136.414 440.983 136.244 440.983Z" fill="#77776E"/>
<path d="M139.821 478.999H136.002C135.698 478.999 135.407 479.12 135.192 479.335C134.977 479.55 134.856 479.841 134.856 480.145C134.856 480.45 134.977 480.741 135.192 480.956C135.407 481.171 135.698 481.292 136.002 481.292H139.821C140.125 481.292 140.417 481.171 140.632 480.956C140.847 480.741 140.967 480.45 140.967 480.145C140.967 479.841 140.847 479.55 140.632 479.335C140.417 479.12 140.125 478.999 139.821 478.999Z" fill="#77776E"/>
<path d="M139.821 450.029H136.002C135.698 450.029 135.407 450.15 135.192 450.365C134.977 450.58 134.856 450.872 134.856 451.176C134.856 451.48 134.977 451.771 135.192 451.986C135.407 452.201 135.698 452.322 136.002 452.322H139.821C140.125 452.322 140.417 452.201 140.632 451.986C140.847 451.771 140.967 451.48 140.967 451.176C140.967 450.872 140.847 450.58 140.632 450.365C140.417 450.15 140.125 450.029 139.821 450.029Z" fill="#77776E"/>
<path d="M130.679 452.319H131.91C132.214 452.319 132.505 452.198 132.72 451.983C132.935 451.768 133.056 451.476 133.056 451.172C133.056 450.868 132.935 450.577 132.72 450.362C132.505 450.147 132.214 450.026 131.91 450.026H130.679C130.375 450.026 130.084 450.147 129.869 450.362C129.654 450.577 129.533 450.868 129.533 451.172C129.533 451.476 129.654 451.768 129.869 451.983C130.084 452.198 130.375 452.319 130.679 452.319Z" fill="#77776E"/>
<path d="M139.821 483.88H136.002C135.698 483.88 135.407 484.001 135.192 484.216C134.977 484.431 134.856 484.723 134.856 485.027C134.856 485.331 134.977 485.622 135.192 485.837C135.407 486.052 135.698 486.173 136.002 486.173H139.821C140.125 486.173 140.417 486.052 140.632 485.837C140.847 485.622 140.967 485.331 140.967 485.027C140.967 484.723 140.847 484.431 140.632 484.216C140.417 484.001 140.125 483.88 139.821 483.88Z" fill="#77776E"/>
<path d="M106.106 436.091H93.2387C92.9349 436.092 92.6437 436.213 92.4289 436.428C92.214 436.643 92.093 436.934 92.0923 437.238V442.129C92.093 442.433 92.214 442.724 92.4289 442.939C92.6437 443.154 92.9349 443.275 93.2387 443.276H106.104C106.408 443.275 106.699 443.154 106.914 442.939C107.129 442.724 107.25 442.433 107.25 442.129V437.238C107.25 436.934 107.129 436.643 106.914 436.428C106.7 436.214 106.409 436.092 106.106 436.091ZM104.959 440.983H94.387V438.385H104.959V440.983Z" fill="#77776E"/>
</g>
<g opacity="0.158">
<path d="M71.6499 70.3454L61.8244 64.2339L59.248 49.9694L60.8157 49.685C60.967 49.6583 61.1116 49.6021 61.2412 49.5194C61.3708 49.4367 61.4828 49.3293 61.5708 49.2033C61.6588 49.0773 61.721 48.9351 61.7539 48.785C61.7869 48.6348 61.7898 48.4797 61.7627 48.3284L60.9632 43.9312C60.9365 43.7799 60.8803 43.6352 60.7976 43.5056C60.715 43.3761 60.6075 43.2641 60.4815 43.1761C60.3555 43.0881 60.2133 43.0259 60.0632 42.9929C59.913 42.96 59.7579 42.957 59.6066 42.9842L45.7318 45.498C45.5804 45.5247 45.4358 45.5809 45.3062 45.6636C45.1766 45.7462 45.0646 45.8537 44.9766 45.9797C44.8886 46.1057 44.8264 46.2479 44.7934 46.398C44.7605 46.5482 44.7576 46.7033 44.7847 46.8546L45.5842 51.2518C45.6109 51.4031 45.6671 51.5478 45.7498 51.6774C45.8325 51.8069 45.9399 51.9189 46.0659 52.0069C46.192 52.0949 46.3341 52.1571 46.4843 52.1901C46.6344 52.223 46.7896 52.226 46.9408 52.1988L48.5085 51.9144L49.3295 56.4591L31.0342 45.0884C30.7877 44.9336 30.4921 44.877 30.2058 44.9296C29.9195 44.9823 29.6634 45.1404 29.488 45.3728L0.244976 83.2739C0.100386 83.4616 0.0159599 83.6887 0.00279223 83.9252C-0.0103754 84.1618 0.0483139 84.3968 0.17118 84.5994C0.294046 84.802 0.475374 84.9626 0.691244 85.0603C0.907113 85.1579 1.14746 85.188 1.38073 85.1465L9.35417 83.705C9.63628 83.6508 9.88989 83.498 10.0696 83.2739L10.8476 82.275L15.319 106.943C15.39 107.336 15.5378 107.711 15.7539 108.047C15.9699 108.383 16.2501 108.673 16.5783 108.9C16.9065 109.128 17.2763 109.289 17.6667 109.374C18.057 109.458 18.4602 109.465 18.8532 109.394L62.1204 101.557C62.6881 101.456 63.2302 101.243 63.7154 100.931C64.2007 100.62 64.6195 100.215 64.9479 99.741C65.2764 99.2669 65.5079 98.7326 65.6291 98.1688C65.7504 97.605 65.7591 97.0227 65.6546 96.4555L61.4256 73.1239L62.4987 73.7866C62.7439 73.9376 63.0359 73.9936 63.3196 73.944L71.251 72.5024C71.4851 72.4604 71.701 72.3484 71.8701 72.1811C72.0391 72.0138 72.1534 71.7992 72.1979 71.5655C72.2424 71.3319 72.215 71.0903 72.1192 70.8726C72.0234 70.6549 71.8638 70.4714 71.6615 70.3463L71.6499 70.3454ZM47.2914 47.6022L58.8625 45.5087L59.2417 47.6022L47.6706 49.6957L47.2914 47.6022ZM50.805 51.5048L56.938 50.3897L59.1469 62.5715L52.0043 58.1323L50.805 51.5048ZM61.9979 89.5008L62.6605 93.1512L52.0883 95.0658L51.4257 91.4154L61.9979 89.5008ZM58.148 87.8177L57.4853 84.1673L60.9149 83.5467L61.5776 87.1971L58.148 87.8177ZM55.8443 88.2389L42.9577 90.5739L42.295 86.9235L55.1817 84.5885L55.8443 88.2389ZM49.1121 91.8366L49.7748 95.487L44.0371 96.5306L43.3745 92.8802L49.1077 91.8384L49.1121 91.8366ZM54.3616 97.0332L54.9822 100.452L45.0835 102.241L44.4628 98.8218L54.3616 97.0332ZM57.2859 100.031L56.6653 96.612L63.0719 95.4548L63.198 96.1282C63.3285 96.8563 63.1648 97.6064 62.7428 98.2138C62.3208 98.8213 61.6749 99.2365 60.9471 99.3682L57.2859 100.031ZM60.5053 81.2323L40.7417 84.8094C40.5903 84.836 40.4457 84.8923 40.3161 84.975C40.1865 85.0576 40.0745 85.1651 39.9865 85.2911C39.8985 85.4171 39.8363 85.5593 39.8034 85.7094C39.7705 85.8596 39.7675 86.0147 39.7947 86.166L42.7824 102.65L19.5132 106.868C19.2818 106.911 19.0442 106.907 18.8142 106.858C18.5841 106.808 18.3661 106.714 18.1727 106.58C17.9792 106.446 17.814 106.275 17.6867 106.077C17.5593 105.879 17.4722 105.658 17.4304 105.427L12.7802 79.7702L32.0126 54.9469L58.732 71.4516L60.4991 81.235L60.5053 81.2323ZM63.3456 71.5339L32.339 52.3884C32.0921 52.2348 31.7968 52.1789 31.5109 52.2315C31.2249 52.2841 30.9689 52.4414 30.7928 52.6728L8.47954 81.4746L3.94552 82.2956L30.6756 47.6452L67.8304 70.7353L63.3384 71.5455L63.3456 71.5339Z" fill="#77776E"/>
</g>
<g opacity="0.158">
<path d="M281.668 452.713C282.239 450.528 281.952 448.208 280.865 446.229C279.779 444.25 277.976 442.762 275.826 442.072C273.677 441.381 271.344 441.539 269.308 442.515C267.272 443.49 265.687 445.209 264.879 447.316L230.427 438.354C230.173 438.288 229.904 438.325 229.677 438.457C229.451 438.589 229.285 438.806 229.217 439.059L219.738 475.487C219.672 475.741 219.709 476.01 219.841 476.237C219.973 476.464 220.189 476.629 220.443 476.697L263.394 487.868C265.659 488.455 268.065 488.119 270.083 486.933C272.101 485.748 273.566 483.81 274.156 481.546L281.656 452.702L281.668 452.713ZM251.341 445.843L264.322 449.22L260.43 464.199L247.448 460.822L251.341 445.843ZM224.096 466.597L243.199 471.573L241.001 480.009L221.898 475.034L224.096 466.597ZM242.915 480.504L245.356 471.114C245.421 470.86 245.384 470.591 245.252 470.364C245.12 470.137 244.904 469.972 244.651 469.904L224.59 464.687L227.357 454.073L237.393 456.681C237.647 456.747 237.916 456.71 238.143 456.578C238.369 456.446 238.535 456.23 238.603 455.977L239.865 451.138C239.931 450.884 239.894 450.614 239.762 450.388C239.63 450.161 239.414 449.996 239.161 449.928C238.907 449.862 238.637 449.899 238.411 450.031C238.184 450.163 238.019 450.379 237.951 450.632L236.941 454.515L227.863 452.147L230.893 440.513L249.439 445.342L245.294 461.279C245.228 461.533 245.265 461.802 245.397 462.029C245.529 462.255 245.745 462.421 245.998 462.489L259.937 466.118L257.075 477.11C256.744 478.382 256.702 479.712 256.951 481.002C257.2 482.293 257.735 483.511 258.516 484.568L242.926 480.507L242.915 480.504ZM263.891 485.963C262.58 485.621 261.399 484.898 260.498 483.884C259.598 482.871 259.018 481.613 258.832 480.27C258.646 478.927 258.863 477.56 259.454 476.34C260.046 475.12 260.986 474.103 262.155 473.417C263.325 472.732 264.672 472.408 266.025 472.488C267.378 472.568 268.678 473.047 269.759 473.865C270.84 474.683 271.654 475.804 272.098 477.085C272.542 478.365 272.597 479.749 272.255 481.061C272.028 481.932 271.632 482.751 271.088 483.469C270.545 484.187 269.866 484.791 269.089 485.246C268.312 485.702 267.453 485.999 266.561 486.123C265.669 486.246 264.762 486.192 263.89 485.964L263.891 485.963ZM267.836 470.784C266.564 470.453 265.234 470.411 263.944 470.66C262.653 470.91 261.435 471.445 260.378 472.226L266.478 448.767C266.7 447.89 267.093 447.065 267.635 446.341C268.177 445.616 268.856 445.006 269.635 444.546C270.414 444.085 271.276 443.784 272.172 443.658C273.068 443.532 273.979 443.585 274.855 443.813C275.73 444.042 276.552 444.441 277.272 444.989C277.992 445.536 278.597 446.22 279.051 447.003C279.506 447.785 279.801 448.649 279.92 449.546C280.038 450.443 279.979 451.354 279.743 452.228L273.642 475.686C273.1 474.49 272.297 473.429 271.292 472.583C270.288 471.737 269.106 471.126 267.835 470.795L267.836 470.784Z" fill="#77776E" stroke="#727269" stroke-width="0.59" stroke-miterlimit="10"/>
</g>
<g opacity="0.158">
<path d="M130.698 337.562L136.042 338.593L135.358 342.159C135.307 342.43 135.365 342.709 135.519 342.937C135.672 343.166 135.909 343.325 136.179 343.38L139.966 344.106C140.237 344.157 140.516 344.099 140.744 343.946C140.973 343.792 141.132 343.555 141.187 343.286L141.871 339.719L170.41 345.2L169.726 348.778C169.676 349.048 169.733 349.327 169.887 349.556C170.04 349.784 170.277 349.943 170.546 349.998L174.334 350.724C174.604 350.775 174.883 350.717 175.112 350.564C175.34 350.411 175.499 350.174 175.554 349.904L176.238 346.327L181.604 347.358C181.875 347.409 182.154 347.351 182.382 347.198C182.611 347.044 182.77 346.807 182.825 346.537L183.887 341.036C183.938 340.765 183.88 340.486 183.727 340.257C183.573 340.029 183.336 339.87 183.066 339.815L175.208 338.3C176.056 336.949 176.685 335.472 177.07 333.925L177.249 332.988C177.485 331.096 177.446 329.179 177.134 327.297C177.101 327.085 177.004 326.889 176.855 326.734C176.706 326.58 176.513 326.475 176.303 326.434L175.85 326.35C176.993 323.477 178.799 320.914 181.12 318.87C181.332 318.695 181.466 318.442 181.492 318.168C181.517 317.893 181.433 317.62 181.257 317.408C181.081 317.196 180.829 317.063 180.554 317.037C180.28 317.011 180.007 317.096 179.795 317.271C178.187 318.634 176.809 320.246 175.713 322.047L176.965 315.556C176.995 315.421 176.998 315.281 176.973 315.145C176.948 315.008 176.896 314.878 176.82 314.762C176.744 314.646 176.645 314.547 176.53 314.469C176.415 314.392 176.286 314.339 176.15 314.312C176.014 314.285 175.874 314.286 175.738 314.314C175.602 314.343 175.474 314.398 175.359 314.476C175.245 314.555 175.148 314.656 175.073 314.772C174.999 314.889 174.948 315.02 174.925 315.156L173.326 323.473C172.615 320.795 171.374 318.288 169.675 316.099C169.59 315.993 169.484 315.904 169.364 315.839C169.244 315.773 169.112 315.732 168.977 315.717C168.841 315.703 168.704 315.715 168.572 315.753C168.441 315.792 168.319 315.856 168.213 315.941C168.106 316.027 168.018 316.133 167.952 316.253C167.887 316.372 167.846 316.504 167.831 316.64C167.816 316.776 167.828 316.913 167.867 317.044C167.905 317.175 167.969 317.297 168.055 317.404C169.869 319.802 171.111 322.583 171.684 325.535L170.937 325.388C170.726 325.347 170.508 325.373 170.312 325.461C170.116 325.55 169.952 325.697 169.843 325.882C168.859 327.513 168.115 329.278 167.635 331.121L167.456 332.057C167.248 333.638 167.284 335.242 167.561 336.812L162.701 335.876L165.404 329.743C165.467 329.599 165.497 329.444 165.491 329.287C165.486 329.13 165.445 328.977 165.373 328.838C165.302 328.698 165.2 328.576 165.074 328.483C164.948 328.39 164.801 328.328 164.647 328.301L164.32 328.238C164.485 327.871 164.609 327.486 164.689 327.091C164.952 325.723 164.662 324.306 163.88 323.152C163.099 321.998 161.891 321.201 160.523 320.937C159.154 320.674 157.737 320.965 156.583 321.746C155.429 322.527 154.632 323.735 154.369 325.103C154.297 325.499 154.273 325.901 154.295 326.303L153.969 326.239C153.815 326.209 153.657 326.215 153.506 326.255C153.354 326.295 153.214 326.369 153.096 326.471C152.977 326.574 152.883 326.702 152.821 326.845C152.76 326.989 152.731 327.145 152.738 327.302L152.981 333.992L132.152 329.984C131.882 329.933 131.602 329.991 131.374 330.144C131.145 330.298 130.987 330.535 130.931 330.804L129.869 336.306C129.818 336.577 129.876 336.856 130.03 337.084C130.183 337.313 130.42 337.472 130.69 337.527L130.698 337.562ZM139.334 341.854L137.598 341.518L138.082 338.972L139.818 339.308L139.334 341.854ZM173.691 348.472L171.958 348.134L172.453 345.578L174.189 345.914L173.691 348.472ZM169.483 332.464L169.662 331.528C170.026 330.149 170.567 328.823 171.272 327.583L175.154 328.33C175.339 329.743 175.35 331.174 175.185 332.59L175.006 333.527C174.577 335.076 173.894 336.544 172.986 337.871L169.757 337.25C169.403 335.681 169.314 334.063 169.494 332.464H169.483ZM156.418 325.532C156.58 324.709 157.061 323.984 157.757 323.515C158.452 323.046 159.305 322.872 160.129 323.031C160.952 323.189 161.679 323.668 162.151 324.361C162.623 325.055 162.8 325.907 162.645 326.731C162.568 327.134 162.411 327.517 162.182 327.857L156.418 326.753C156.33 326.351 156.326 325.935 156.407 325.532H156.418ZM154.861 328.562L162.982 330.119L160.601 335.49L155.068 334.428L154.858 328.558L154.861 328.562ZM132.78 332.265C142.511 334.137 164.464 338.356 181.632 341.655L180.969 345.116C175.383 344.042 137.703 336.799 132.116 335.726L132.779 332.265H132.78Z" fill="#77776E"/>
<path d="M177.784 367.149C178.054 367.199 178.333 367.141 178.561 366.988C178.789 366.835 178.948 366.598 179.004 366.329L179.856 361.921C179.906 361.65 179.849 361.371 179.695 361.142C179.542 360.914 179.305 360.755 179.035 360.7L161.646 357.355C161.376 357.304 161.096 357.362 160.868 357.515C160.64 357.669 160.481 357.906 160.426 358.176L159.774 361.563L156.965 361.027C156.695 360.976 156.415 361.033 156.187 361.187C155.958 361.34 155.8 361.577 155.744 361.847L155.176 364.824L153.893 364.581L155.702 355.166C156.143 352.762 155.616 350.282 154.236 348.265C152.856 346.247 150.735 344.857 148.334 344.397C145.934 343.936 143.449 344.442 141.421 345.805C139.392 347.169 137.984 349.278 137.504 351.674L135.694 361.089L126.522 359.322C126.251 359.271 125.972 359.329 125.743 359.483C125.515 359.636 125.356 359.873 125.301 360.143L124.239 365.645C124.188 365.915 124.246 366.194 124.399 366.423C124.552 366.651 124.789 366.81 125.059 366.865L130.424 367.896L129.74 371.473C129.69 371.744 129.747 372.023 129.901 372.252C130.054 372.48 130.291 372.639 130.56 372.694L134.348 373.42C134.618 373.471 134.898 373.413 135.126 373.26C135.354 373.106 135.513 372.869 135.568 372.599L136.252 369.022L164.76 374.503L164.076 378.08C164.026 378.351 164.083 378.63 164.237 378.859C164.39 379.087 164.628 379.246 164.897 379.301L168.684 380.027C168.955 380.078 169.234 380.02 169.462 379.866C169.69 379.713 169.849 379.476 169.904 379.206L170.588 375.629L175.954 376.66C176.225 376.711 176.504 376.653 176.732 376.5C176.961 376.346 177.12 376.109 177.175 375.839L178.237 370.338C178.288 370.067 178.23 369.788 178.077 369.559C177.923 369.331 177.686 369.172 177.416 369.117L174.607 368.581L174.986 366.624L177.795 367.16L177.784 367.149ZM162.257 359.596L177.605 362.541L177.152 364.909L161.805 361.962L162.257 359.596ZM139.535 352.053C139.911 350.2 141.003 348.57 142.574 347.516C144.145 346.463 146.068 346.072 147.926 346.428C149.783 346.784 151.425 347.858 152.496 349.418C153.566 350.977 153.978 352.896 153.642 354.757L151.833 364.172L137.726 361.458L139.535 352.043V352.053ZM133.723 371.167L131.987 370.83L132.481 368.285L134.217 368.621L133.723 371.167ZM168.058 377.762L166.323 377.426L166.817 374.88L168.553 375.216L168.058 377.762ZM175.327 374.396L126.474 365.006L127.137 361.545L136.274 363.303H136.337L152.422 366.396H152.485L175.976 370.908L175.313 374.369L175.327 374.396ZM157.202 365.202L157.581 363.245L172.929 366.191L172.55 368.148L157.202 365.202Z" fill="#77776E"/>
<path d="M147.834 347.83C146.649 347.602 145.423 347.731 144.311 348.2C143.199 348.668 142.251 349.456 141.587 350.464C140.923 351.472 140.573 352.653 140.581 353.86C140.588 355.067 140.954 356.244 141.631 357.243C142.307 358.242 143.265 359.018 144.383 359.472C145.501 359.927 146.728 360.04 147.91 359.797C149.092 359.554 150.175 358.966 151.023 358.107C151.871 357.248 152.445 356.158 152.672 354.973C152.976 353.384 152.637 351.74 151.729 350.401C150.822 349.062 149.421 348.138 147.834 347.83ZM145.919 357.771C145.139 357.621 144.42 357.243 143.855 356.685C143.289 356.127 142.902 355.414 142.741 354.636C142.581 353.857 142.655 353.049 142.955 352.313C143.254 351.577 143.764 350.946 144.422 350.5C145.08 350.055 145.855 349.814 146.649 349.809C147.444 349.803 148.222 350.034 148.886 350.471C149.549 350.908 150.068 351.532 150.377 352.264C150.686 352.996 150.771 353.803 150.621 354.584C150.42 355.629 149.811 356.552 148.93 357.149C148.048 357.747 146.966 357.97 145.92 357.769L145.919 357.771Z" fill="#77776E"/>
<path d="M148.445 353.099L147.919 352.993L148.003 352.51C148.049 352.241 147.988 351.965 147.832 351.74C147.677 351.516 147.44 351.362 147.172 351.31H147.162C147.027 351.286 146.889 351.288 146.755 351.317C146.621 351.346 146.494 351.401 146.382 351.48C146.269 351.558 146.173 351.657 146.099 351.773C146.026 351.888 145.975 352.017 145.952 352.152L145.689 353.645C145.643 353.914 145.704 354.19 145.859 354.414C146.015 354.639 146.252 354.793 146.519 354.845L148.055 355.139C148.307 355.164 148.559 355.088 148.756 354.929C148.953 354.769 149.079 354.538 149.107 354.286C149.171 354.041 149.137 353.781 149.014 353.559C148.89 353.338 148.686 353.173 148.444 353.098L148.445 353.099Z" fill="#77776E"/>
</g>
</g>
<defs>
<clipPath id="clip0_137_4921">
<rect width="643" height="492" fill="white"/>
</clipPath>
</defs>
</svg>
