<svg width="41" height="42" viewBox="0 0 41 42" fill="none" xmlns="http://www.w3.org/2000/svg">
<rect width="40.1274" height="42.0096" rx="8" fill="#567EEE"/>
<g filter="url(#filter0_d_423_5535)">
<path d="M8.35762 31.2136L12.4455 27.1259H23.7318C24.0006 27.1297 24.2674 27.0785 24.5157 26.9752C24.764 26.8719 24.9885 26.7189 25.1753 26.5256C25.3687 26.3387 25.5218 26.1143 25.6251 25.866C25.7283 25.6177 25.7796 25.3509 25.7757 25.0821V24.3712H13.2009C12.9262 24.3752 12.6536 24.3228 12.4 24.2173C12.1463 24.1118 11.917 23.9555 11.7261 23.7579C11.5285 23.567 11.3722 23.3376 11.2667 23.0839C11.1612 22.8303 11.1088 22.5577 11.1127 22.2829V14.2856H10.4016C10.1327 14.2817 9.86591 14.333 9.61763 14.4363C9.36935 14.5395 9.14486 14.6926 8.95802 14.8859C8.76464 15.0728 8.61161 15.2972 8.50834 15.5455C8.40508 15.7938 8.35378 16.0605 8.35762 16.3294V31.2136ZM28.1308 21.9636L26.4954 20.3284H15.5115C15.4643 20.33 15.4174 20.322 15.3734 20.3048C15.3295 20.2877 15.2896 20.2617 15.256 20.2285C15.2228 20.1949 15.1968 20.155 15.1797 20.111C15.1625 20.067 15.1545 20.02 15.1562 19.9728V12.3307C15.1545 12.2835 15.1625 12.2365 15.1797 12.1925C15.1968 12.1486 15.2228 12.1086 15.256 12.075C15.2896 12.0418 15.3295 12.0159 15.3734 11.9987C15.4174 11.9815 15.4643 11.9735 15.5115 11.9751H27.7749C27.8221 11.9735 27.8691 11.9815 27.9131 11.9987C27.957 12.0159 27.997 12.0418 28.0306 12.075C28.0638 12.1086 28.0898 12.1486 28.107 12.1925C28.1242 12.2365 28.1322 12.2835 28.1305 12.3307L28.1308 21.9636ZM29.8636 26.15V12.3319C29.8676 12.0572 29.8152 11.7846 29.7097 11.5309C29.6042 11.2772 29.4478 11.0478 29.2503 10.8569C29.0594 10.6591 28.83 10.5025 28.5763 10.3968C28.3225 10.2911 28.0498 10.2385 27.7749 10.2424H15.5115C15.2368 10.2385 14.9642 10.2909 14.7106 10.3963C14.4569 10.5018 14.2276 10.6582 14.0367 10.8557C13.8391 11.0466 13.6828 11.276 13.5773 11.5297C13.4718 11.7834 13.4194 12.056 13.4233 12.3307V19.9728C13.4194 20.2475 13.4717 20.5201 13.5772 20.7738C13.6827 21.0275 13.8391 21.2569 14.0367 21.4478C14.2276 21.6454 14.4569 21.8017 14.7106 21.9072C14.9642 22.0127 15.2368 22.0651 15.5115 22.0611H25.7757L29.8636 26.15Z" fill="white"/>
</g>
<defs>
<filter id="filter0_d_423_5535" x="2.35742" y="4.24219" width="33.5059" height="32.9712" filterUnits="userSpaceOnUse" color-interpolation-filters="sRGB">
<feFlood flood-opacity="0" result="BackgroundImageFix"/>
<feColorMatrix in="SourceAlpha" type="matrix" values="0 0 0 0 0 0 0 0 0 0 0 0 0 0 0 0 0 0 127 0" result="hardAlpha"/>
<feOffset/>
<feGaussianBlur stdDeviation="3"/>
<feColorMatrix type="matrix" values="0 0 0 0 0 0 0 0 0 0 0 0 0 0 0 0 0 0 0.259 0"/>
<feBlend mode="normal" in2="BackgroundImageFix" result="effect1_dropShadow_423_5535"/>
<feBlend mode="normal" in="SourceGraphic" in2="effect1_dropShadow_423_5535" result="shape"/>
</filter>
</defs>
</svg>
