<?xml version="1.0" encoding="UTF-8"?>
<svg id="Layer_2" data-name="Layer 2" xmlns="http://www.w3.org/2000/svg" xmlns:xlink="http://www.w3.org/1999/xlink" viewBox="0 0 737.82 463.79">
  <defs>
    <style>
      .cls-1, .cls-2 {
        fill: none;
      }

      .cls-3 {
        fill: #fbbc0a;
      }

      .cls-4 {
        opacity: .07;
      }

      .cls-4, .cls-5, .cls-6 {
        isolation: isolate;
      }

      .cls-5 {
        opacity: .05;
      }

      .cls-7 {
        fill: #517bbd;
      }

      .cls-8 {
        fill: url(#linear-gradient-3);
      }

      .cls-9 {
        fill: url(#linear-gradient-2);
      }

      .cls-10 {
        fill: #232955;
      }

      .cls-11 {
        fill: url(#linear-gradient);
      }

      .cls-12 {
        fill: #31a853;
      }

      .cls-13 {
        clip-path: url(#clippath-1);
      }

      .cls-14 {
        clip-path: url(#clippath-3);
      }

      .cls-15 {
        clip-path: url(#clippath-2);
      }

      .cls-16, .cls-6 {
        fill: #fff;
      }

      .cls-17 {
        fill: #395998;
      }

      .cls-18 {
        fill: #3a75ba;
      }

      .cls-19 {
        fill: #f6a116;
      }

      .cls-20 {
        fill: #e84336;
      }

      .cls-2 {
        stroke: #1e2043;
        stroke-width: 6px;
      }

      .cls-21 {
        fill: #1e2043;
      }

      .cls-22 {
        clip-path: url(#clippath);
      }

      .cls-6 {
        opacity: .87;
      }
    </style>
    <linearGradient id="linear-gradient" x1="666.6" y1="1546.09" x2="666.6" y2="1545.09" gradientTransform="translate(-40381.59 95328.91) scale(61.59 -61.59)" gradientUnits="userSpaceOnUse">
      <stop offset="0" stop-color="#4066ae"/>
      <stop offset="1" stop-color="#62c4f0"/>
    </linearGradient>
    <linearGradient id="linear-gradient-2" x1="666.06" y1="1542.62" x2="665.38" y2="1542.62" gradientTransform="translate(-51705.26 73005.14) rotate(4.99) scale(68.82 -49.89)" gradientUnits="userSpaceOnUse">
      <stop offset="0" stop-color="#3a75ba"/>
      <stop offset=".99" stop-color="#2f61ac"/>
    </linearGradient>
    <linearGradient id="linear-gradient-3" x1="624.56" y1="1543.84" x2="624.56" y2="1544.58" gradientTransform="translate(-18800.07 66593.09) rotate(4.99) scale(21.72 -43.85)" xlink:href="#linear-gradient-2"/>
    <clipPath id="clippath">
      <path class="cls-1" d="M104.7,308.57l-35.28,2.47,1.03,14.69,20.31-1.42c-1.24,9.47-8.78,15.38-19.28,16.12-12.41.87-23.17-8.48-24.04-20.89-.87-12.41,8.48-23.17,20.89-24.04,5.09-.36,10.14,1.07,14.29,4.03l10.24-11.83c-16.58-12.74-40.35-9.63-53.09,6.95-5.69,7.41-8.45,16.66-7.73,25.98,1.36,20.9,19.41,36.74,40.31,35.38.07,0,.15,0,.22-.01,18.93-1.33,35.17-16.36,33.47-40.56-.2-2.33-.65-4.62-1.35-6.85Z"/>
    </clipPath>
    <clipPath id="clippath-1">
      <path class="cls-1" d="M104.7,308.57l-35.28,2.47,1.03,14.69,20.31-1.42c-1.24,9.47-8.78,15.38-19.28,16.12-12.41.87-23.17-8.48-24.04-20.89-.87-12.41,8.48-23.17,20.89-24.04,5.09-.36,10.14,1.07,14.29,4.03l10.24-11.83c-16.58-12.74-40.35-9.63-53.09,6.95-5.69,7.41-8.45,16.66-7.73,25.98,1.36,20.9,19.41,36.74,40.31,35.38.07,0,.15,0,.22-.01,18.93-1.33,35.17-16.36,33.47-40.56-.2-2.33-.65-4.62-1.35-6.85Z"/>
    </clipPath>
    <clipPath id="clippath-2">
      <path class="cls-1" d="M104.7,308.57l-35.28,2.47,1.03,14.69,20.31-1.42c-1.24,9.47-8.78,15.38-19.28,16.12-12.41.87-23.17-8.48-24.04-20.89-.87-12.41,8.48-23.17,20.89-24.04,5.09-.36,10.14,1.07,14.29,4.03l10.24-11.83c-16.58-12.74-40.35-9.63-53.09,6.95-5.69,7.41-8.45,16.66-7.73,25.98,1.36,20.9,19.41,36.74,40.31,35.38.07,0,.15,0,.22-.01,18.93-1.33,35.17-16.36,33.47-40.56-.2-2.33-.65-4.62-1.35-6.85Z"/>
    </clipPath>
    <clipPath id="clippath-3">
      <path class="cls-1" d="M104.7,308.57l-35.28,2.47,1.03,14.69,20.31-1.42c-1.24,9.47-8.78,15.38-19.28,16.12-12.41.87-23.17-8.48-24.04-20.89-.87-12.41,8.48-23.17,20.89-24.04,5.09-.36,10.14,1.07,14.29,4.03l10.24-11.83c-16.58-12.74-40.35-9.63-53.09,6.95-5.69,7.41-8.45,16.66-7.73,25.98,1.36,20.9,19.41,36.74,40.31,35.38.07,0,.15,0,.22-.01,18.93-1.33,35.17-16.36,33.47-40.56-.2-2.33-.65-4.62-1.35-6.85Z"/>
    </clipPath>
  </defs>
  <g id="Layer_1-2" data-name="Layer 1">
    <g id="Group_13032" data-name="Group 13032">
      <g id="Group_13040" data-name="Group 13040">
        <path id="Path_18960" data-name="Path 18960" class="cls-2" d="M480.88,114.51s-72.48-48.23-208.46-47.94S21.84,118.81,11.89,198.81s63.25,170.38,228.31,195.2,396.04-4.26,431.92-95.94-57.03-97.46-153.56-12.08-92.87,177.68-92.87,177.68"/>
        <g id="Group_13032-2" data-name="Group 13032-2">
          <rect id="Rectangle_7367" data-name="Rectangle 7367" class="cls-10" x="508.72" y="16.66" width="78" height="78" rx="12" ry="12"/>
          <rect id="Rectangle_7366" data-name="Rectangle 7366" class="cls-16" x="510.72" y="19.66" width="73" height="73" rx="12" ry="12"/>
          <path id="icons8-tiktok" d="M564.35,32.66h-35.77c-3.08,0-5.58,2.5-5.59,5.59v35.77c0,3.08,2.5,5.58,5.59,5.59h35.77c3.08,0,5.58-2.5,5.59-5.59v-35.77c0-3.08-2.5-5.58-5.59-5.59ZM559.89,53.14c-.25.02-.51.04-.77.04-2.82,0-5.46-1.42-7.01-3.79v12.9c0,5.26-4.27,9.53-9.53,9.53-5.26,0-9.53-4.27-9.53-9.53,0-5.26,4.27-9.53,9.53-9.53h0c.2,0,.39.02.59.03v4.7c-2.66-.33-5.08,1.56-5.41,4.22-.33,2.66,1.56,5.08,4.22,5.41.2.03.4.04.61.04,2.71.04,4.96-2.09,5.06-4.8,0-.11.05-21.9.05-21.9h4.49c.42,4.03,3.67,7.18,7.71,7.47v5.21Z"/>
        </g>
        <g id="Group_13033" data-name="Group 13033">
          <rect id="Rectangle_7367-2" data-name="Rectangle 7367-2" class="cls-10" x="73.65" y="6.12" width="101.04" height="101.04" rx="12" ry="12" transform="translate(46.8 169.07) rotate(-79.98)"/>
          <rect id="Rectangle_7366-2" data-name="Rectangle 7366-2" class="cls-16" x="81.33" y="9.72" width="92.57" height="92.57" rx="12" ry="12" transform="translate(50.26 171.93) rotate(-79.98)"/>
        </g>
        <g id="Group_13036" data-name="Group 13036">
          <rect id="Rectangle_7367-3" data-name="Rectangle 7367-3" class="cls-10" x="630.66" y="83.48" width="101.04" height="101.05" rx="12" ry="12" transform="translate(-12.93 120.54) rotate(-10.02)"/>
          <rect id="Rectangle_7366-3" data-name="Rectangle 7366-3" class="cls-16" x="631.46" y="87.09" width="92.57" height="92.57" rx="12" ry="12" transform="translate(-12.87 119.93) rotate(-10.02)"/>
          <g id="mail">
            <g id="Graphics-_-App-Icons-_-Mail" data-name="Graphics-/-App-Icons-/-Mail">
              <g id="Mail-Icon">
                <rect id="Rectangle_3321" data-name="Rectangle 3321" class="cls-11" x="645.49" y="99.96" width="61.59" height="61.59" rx="8" ry="8" transform="translate(-12.43 119.64) rotate(-10.02)"/>
                <path id="Path_8666" data-name="Path 8666" class="cls-16" d="M697.77,140.27c-.07.01-.19.1-.26.11l-38.2,6.75c-.09.03-.19.02-.28-.02h0l9.82-14.04,3.01,2.17c3.07,2.26,7.4,1.61,9.66-1.47.07-.09.13-.18.19-.27l2.09-3.06,13.97,9.83ZM698.28,138.86l-4.18-23.66c0-.12-.05-.23-.13-.32-.04.15-9.68,14.43-9.68,14.43l14.04,9.82-.05-.27h0ZM658.08,146.03l-4.17-23.59c-.04-.11-.04-.24,0-.35.09.12,14.04,10.24,14.04,10.24l-9.77,13.96c-.07-.07-.11-.16-.11-.25ZM693.23,114.18l-12.47,18.24c-1.86,2.71-5.57,3.41-8.28,1.55-.03-.02-.06-.04-.1-.07l-17.96-12.86c-.08-.06,38.81-6.86,38.81-6.86h0Z"/>
              </g>
            </g>
          </g>
        </g>
        <g id="Group_13034" data-name="Group 13034">
          <rect id="Rectangle_7367-4" data-name="Rectangle 7367-4" class="cls-10" x="3.84" y="260.81" width="116.05" height="116.05" rx="12" ry="12" transform="translate(-27.55 6.6) rotate(-5)"/>
          <rect id="Rectangle_7366-4" data-name="Rectangle 7366-4" class="cls-16" x="13.99" y="264" width="103.56" height="103.56" rx="12" ry="12" transform="translate(-27.27 6.93) rotate(-5)"/>
        </g>
        <g id="Group_13035" data-name="Group 13035">
          <rect id="Rectangle_7367-5" data-name="Rectangle 7367-5" class="cls-10" x="575.25" y="256.26" width="126.2" height="126.2" rx="12" ry="12" transform="translate(264.65 927.5) rotate(-85.01)"/>
          <rect id="Rectangle_7366-5" data-name="Rectangle 7366-5" class="cls-16" x="577.71" y="259.74" width="112.62" height="112.62" rx="12" ry="12" transform="translate(263.99 920.17) rotate(-85.01)"/>
          <g id="icons8-meta">
            <path id="Path_19005" data-name="Path 19005" class="cls-18" d="M666.48,331.08l-3.81,2.4-3.35-2.79c.02-.26.05-.54.06-.82.02-.26.05-.54.06-.82.33-6.44-.7-13.46-3.51-18.77-2.17-4.08-5.22-6.2-8.81-6.51-3.76-.33-7.02,1.65-10.84,6.24-.11.14-.24.27-.35.43-.07.08-.13.15-.2.25-.18.23-.37.46-.55.71-1.67,2.15-3.43,4.68-5.35,7.46-.17.26-.36.53-.53.79-.06.06-.11.13-.15.2l-.4.57-2.33,3.39c-5.47,7.98-6.85,9.79-9.49,12.73-4.64,5.16-8.37,6.95-13.05,6.54-5.54-.48-8.85-3.18-10.7-6.99-1.58-3.59-2.15-7.54-1.67-11.42l8.07.98c-.29,2.21.02,4.46.89,6.51.76,1.6,2.33,2.66,4.09,2.77,2.1.18,4.1-.09,8.26-4.91,3.34-3.86,7.36-9.32,10.05-12.75l2.53-3.21.54-.71.55-.69.92-1.18c1.4-1.78,2.91-3.67,4.52-5.47.18-.21.37-.43.56-.64.18-.21.38-.43.56-.62,1.55-1.71,3.27-3.26,5.12-4.64,3.24-2.36,6.61-3.53,9.89-3.24,5.49.48,10.44,4.11,13.93,10.43,3.56,6.81,5.15,14.49,4.58,22.15,0,.26-.03.54-.06.82,0,.28-.03.54-.05.82Z"/>
            <path id="Path_19006" data-name="Path 19006" class="cls-9" d="M599.89,302.44c4.21-5.39,9.91-8.91,16.06-8.38,3.97.35,7.67,2.13,10.43,5,3.75,3.64,7.58,9.44,12.18,18.84l1.65,3.37c3.97,8.14,6.27,12.35,7.66,14.36,1.78,2.58,2.97,3.33,4.78,3.49,4.59.4,6.25-3.62,6.68-8.45l7.16.4c-.44,5.04-1.76,8.66-3.71,11.44-2.4,3.46-6.51,5.29-10.69,4.77-3.59-.17-6.94-1.86-9.23-4.64-2.71-3.38-4.99-7.08-6.81-11.01l-5.74-11.79c-2.02-4.36-4.44-8.53-7.23-12.44-1.75-2.21-3.91-4.86-7.86-5.21-3.2-.28-6.2,1.69-8.78,4.92l-6.54-4.69Z"/>
            <path id="Path_19007" data-name="Path 19007" class="cls-8" d="M615.23,302.21c-3.19-.28-6.19,1.69-8.76,4.92-3.63,4.56-6.23,11.6-6.83,18.53-.25,2.86-.44,5,.26,6.4l-6.66,4.04c-1.6-3.55-2.2-7.47-1.74-11.34.65-8.08,3.56-15.81,8.38-22.32,4.2-5.39,9.95-8.91,16.09-8.37l-.75,8.14Z"/>
            <path id="Path_19008" data-name="Path 19008" class="cls-5" d="M626.5,312.67l-.55.69-.54.71c1.01,1.78,2.15,3.91,3.34,6.35l.4-.57c.04-.07.09-.14.15-.2.17-.26.36-.53.53-.79-1.16-2.33-2.29-4.42-3.32-6.18ZM632.51,305.38c-.2.21-.38.43-.56.64,1.06,1.59,2.11,3.37,3.23,5.37.19-.25.37-.48.55-.71.07-.09.13-.17.2-.25.11-.15.24-.29.35-.43-1.08-1.93-2.14-3.68-3.2-5.25-.18.2-.38.41-.56.62Z"/>
            <path id="Path_19009" data-name="Path 19009" class="cls-4" d="M626.5,312.67l-.55.69c1.01,1.76,2.14,3.86,3.34,6.28.17-.26.36-.53.53-.79-1.16-2.33-2.29-4.42-3.32-6.18ZM631.94,306.02c1.06,1.59,2.11,3.37,3.23,5.37.19-.25.37-.48.55-.71-1.09-1.97-2.17-3.74-3.21-5.3-.2.21-.38.42-.57.64Z"/>
          </g>
        </g>
      </g>
      <g id="Group_13041" data-name="Group 13041">
        <g id="Group_13039" data-name="Group 13039">
          <path id="Path_18961" data-name="Path 18961" class="cls-21" d="M102.27,188.38h-4.16c-.41.02-.82-.11-1.15-.35-.29-.22-.52-.53-.65-.87l-2.16-5.9h-11.98l-2.16,5.9c-.13.33-.35.62-.63.84-.33.26-.73.39-1.15.38h-4.18l11.36-28.92h5.5l11.36,28.92ZM83.55,177.46h9.22l-3.52-9.62c-.16-.43-.34-.93-.53-1.51-.19-.58-.38-1.21-.57-1.89-.19.68-.37,1.31-.55,1.9-.18.59-.36,1.1-.53,1.54l-3.52,9.58Z"/>
          <rect id="Rectangle_7368" data-name="Rectangle 7368" class="cls-21" x="105.91" y="159.46" width="5.4" height="28.92"/>
          <rect id="Rectangle_7369" data-name="Rectangle 7369" class="cls-21" x="116.89" y="174.24" width="10.36" height="4.12"/>
          <path id="Path_18962" data-name="Path 18962" class="cls-21" d="M146.33,188.38c-.58.04-1.11-.34-1.26-.9l-.4-1.98c-.41.47-.86.9-1.34,1.3-.47.39-.97.72-1.51,1-.55.28-1.14.5-1.74.65-.66.16-1.33.23-2.01.23-2.16.03-4.21-.98-5.49-2.73-.72-.99-1.25-2.1-1.56-3.29-.39-1.46-.57-2.97-.55-4.48-.01-1.44.2-2.87.62-4.24.38-1.23.98-2.39,1.78-3.4.75-.94,1.7-1.71,2.78-2.25,1.13-.55,2.38-.83,3.64-.81,1.01-.03,2.01.16,2.94.55.81.36,1.54.86,2.18,1.47v-10.84h4.94v29.72h-3.02ZM139.75,184.76c.92.03,1.82-.19,2.62-.64.78-.48,1.47-1.1,2.04-1.82v-9.2c-.48-.62-1.11-1.12-1.83-1.44-.67-.28-1.4-.43-2.13-.42-.7-.01-1.39.13-2.03.42-.61.29-1.14.72-1.54,1.27-.46.65-.79,1.38-.97,2.16-.24,1.01-.36,2.05-.34,3.09-.02,1.02.08,2.05.29,3.05.15.73.43,1.42.83,2.04.32.5.78.89,1.32,1.14.55.24,1.14.36,1.74.35"/>
          <path id="Path_18963" data-name="Path 18963" class="cls-21" d="M154.69,188.38v-20.52h2.9c.38-.04.75.06,1.06.28.24.27.38.6.4.96l.3,2.48c.65-1.17,1.52-2.19,2.58-3,.96-.72,2.12-1.11,3.32-1.1.89-.03,1.77.21,2.52.7l-.64,3.7c-.02.2-.11.38-.26.51-.16.11-.35.16-.54.15-.28-.01-.55-.06-.82-.14-.45-.1-.92-.15-1.38-.14-.95-.02-1.88.27-2.64.85-.81.67-1.45,1.52-1.86,2.49v12.78h-4.94Z"/>
          <path id="Path_18964" data-name="Path 18964" class="cls-21" d="M177.03,161.88c0,.41-.09.82-.26,1.2-.34.74-.95,1.33-1.7,1.65-.39.17-.81.25-1.24.25-.42,0-.83-.08-1.21-.25-.37-.16-.7-.39-.99-.67-.28-.28-.51-.61-.67-.98-.17-.38-.25-.79-.25-1.2,0-.43.08-.85.25-1.24.16-.37.39-.71.67-1,.29-.28.62-.51.99-.67.38-.17.79-.25,1.21-.25.43,0,.85.08,1.24.25.37.16.72.39,1.01.67.29.29.53.63.69,1,.17.39.26.81.26,1.24M176.29,188.38h-4.94v-20.52h4.94v20.52Z"/>
          <path id="Path_18965" data-name="Path 18965" class="cls-21" d="M192.15,188.38h-4.48l-8.16-20.52h4.1c.32-.01.64.08.91.26.24.16.42.39.51.66l3.96,10.96c.23.64.42,1.27.57,1.88.15.61.29,1.23.41,1.84.12-.61.26-1.23.41-1.84.16-.64.36-1.27.59-1.88l4.06-10.96c.09-.27.27-.5.5-.66.25-.18.55-.27.86-.26h3.9l-8.14,20.52Z"/>
          <path id="Path_18966" data-name="Path 18966" class="cls-21" d="M211.03,167.54c1.22-.01,2.43.2,3.57.62,1.06.39,2.01,1.01,2.81,1.81.81.83,1.44,1.83,1.84,2.92.46,1.27.68,2.6.66,3.95,0,.31-.01.62-.05.93-.02.2-.08.4-.18.58-.08.14-.2.24-.35.3-.18.07-.37.1-.56.09h-12.68c-.01,1.7.59,3.35,1.7,4.64,1.05,1.01,2.47,1.55,3.92,1.48.7.01,1.4-.08,2.07-.28.52-.16,1.03-.37,1.52-.62.43-.23.81-.43,1.14-.62.29-.18.61-.27.95-.28.18,0,.36.04.52.12.15.08.28.2.38.34l1.44,1.8c-.53.63-1.15,1.17-1.84,1.61-.67.43-1.38.78-2.13,1.04-.73.26-1.49.44-2.26.55-.74.11-1.48.16-2.23.16-1.36.01-2.71-.23-3.98-.71-1.21-.46-2.3-1.18-3.2-2.1-.94-.99-1.67-2.16-2.14-3.44-.55-1.52-.81-3.13-.78-4.75,0-1.35.22-2.68.68-3.95.43-1.19,1.09-2.29,1.95-3.22.87-.93,1.93-1.67,3.1-2.17,1.31-.55,2.71-.82,4.13-.8M211.13,171.08c-1.25-.07-2.47.37-3.38,1.22-.88.95-1.43,2.17-1.56,3.46h9.28c0-.61-.08-1.22-.26-1.81-.16-.55-.43-1.05-.8-1.49-.37-.44-.84-.78-1.36-1.01-.61-.26-1.26-.38-1.92-.37"/>
          <path id="Path_18967" data-name="Path 18967" class="cls-21" d="M223.93,188.38v-20.52h3.02c.58-.04,1.11.34,1.26.9l.34,1.62c.41-.42.84-.81,1.31-1.16.46-.35.95-.65,1.46-.9.53-.26,1.08-.45,1.65-.58.63-.14,1.27-.2,1.92-.2,1.02-.02,2.04.18,2.98.57.84.36,1.58.91,2.17,1.6.6.72,1.05,1.56,1.32,2.46.31,1.02.46,2.08.45,3.15v13.06h-4.94v-13.06c.07-1.04-.24-2.07-.87-2.91-.67-.72-1.63-1.1-2.61-1.03-.84,0-1.66.19-2.4.58-.78.41-1.5.95-2.12,1.58v14.84h-4.94Z"/>
          <path id="Path_18968" data-name="Path 18968" class="cls-21" d="M270.47,188.38h-2.22c-.38.02-.76-.05-1.1-.21-.31-.19-.52-.5-.6-.85l-.44-1.46c-.49.44-1,.85-1.53,1.23-.49.35-1.01.64-1.55.89-.54.24-1.11.42-1.7.54-.66.13-1.33.19-2,.18-.81,0-1.62-.11-2.4-.35-.7-.21-1.34-.57-1.89-1.05-.54-.48-.96-1.08-1.23-1.75-.31-.77-.46-1.6-.44-2.43,0-.81.22-1.6.61-2.3.49-.84,1.19-1.55,2.03-2.05,1.17-.7,2.45-1.21,3.78-1.52,1.92-.44,3.89-.64,5.86-.6v-1.21c.09-1.1-.22-2.19-.87-3.07-.65-.7-1.58-1.06-2.53-1-.68-.02-1.35.08-2,.28-.48.16-.95.37-1.39.63-.39.23-.76.44-1.09.63-.34.19-.72.28-1.1.28-.31,0-.61-.08-.86-.26-.24-.17-.43-.39-.58-.64l-.9-1.58c2.32-2.15,5.38-3.31,8.54-3.24,1.1-.02,2.19.18,3.21.59.91.37,1.72.93,2.39,1.64.67.72,1.17,1.58,1.49,2.51.35,1.03.52,2.11.51,3.2v12.96ZM260.87,185.3c.47,0,.94-.04,1.4-.14.42-.09.82-.23,1.21-.41.39-.19.76-.42,1.1-.68.38-.29.74-.61,1.07-.96v-3.43c-1.21-.02-2.42.07-3.61.27-.8.13-1.59.36-2.33.69-.5.21-.93.55-1.25.99-.24.36-.37.79-.37,1.23-.07.71.22,1.42.77,1.87.59.4,1.3.6,2.01.56"/>
          <path id="Path_18969" data-name="Path 18969" class="cls-21" d="M289.77,188.38c-.58.04-1.11-.34-1.26-.9l-.4-1.98c-.41.47-.86.9-1.34,1.3-.47.39-.97.72-1.51,1-.55.28-1.14.5-1.74.65-.66.16-1.33.23-2.01.23-2.16.03-4.21-.98-5.49-2.73-.72-.99-1.25-2.1-1.56-3.29-.39-1.46-.57-2.97-.55-4.48-.01-1.44.2-2.87.62-4.24.38-1.23.98-2.39,1.78-3.4.75-.94,1.7-1.71,2.78-2.25,1.13-.55,2.38-.83,3.64-.81,1.01-.03,2.01.16,2.94.55.81.36,1.54.86,2.18,1.47v-10.84h4.94v29.72h-3.02ZM283.19,184.76c.92.03,1.82-.19,2.62-.64.78-.48,1.47-1.1,2.04-1.82v-9.2c-.48-.62-1.11-1.12-1.83-1.44-.67-.28-1.4-.43-2.13-.42-.7-.01-1.39.13-2.03.42-.61.29-1.14.72-1.54,1.27-.46.65-.79,1.38-.97,2.16-.24,1.01-.36,2.05-.34,3.09-.02,1.02.08,2.05.29,3.05.15.73.43,1.42.83,2.04.32.5.78.89,1.32,1.14.55.24,1.14.36,1.74.35"/>
          <path id="Path_18970" data-name="Path 18970" class="cls-21" d="M310.31,171.86c-.1.18-.25.34-.42.45-.17.09-.37.14-.56.13-.27,0-.53-.08-.77-.2-.27-.13-.59-.28-.95-.45-.4-.18-.81-.33-1.23-.45-.53-.14-1.08-.21-1.63-.2-.81-.05-1.62.17-2.3.62-.53.36-.85.97-.84,1.62-.01.41.14.81.43,1.11.33.33.72.6,1.14.79.52.24,1.06.45,1.61.61.6.18,1.21.38,1.84.59.63.21,1.24.46,1.84.73.59.26,1.13.61,1.61,1.04,1.05.91,1.62,2.24,1.57,3.63,0,.94-.17,1.87-.54,2.73-.36.83-.9,1.57-1.58,2.16-.75.64-1.63,1.12-2.57,1.42-1.81.55-3.72.66-5.58.32-.66-.12-1.31-.3-1.94-.53-.6-.22-1.17-.48-1.72-.8-.5-.28-.96-.62-1.39-1l1.14-1.88c.13-.21.31-.39.52-.52.23-.13.49-.19.76-.18.31,0,.61.09.87.26.27.17.59.36.95.56.41.22.83.41,1.27.56.6.19,1.22.28,1.85.26.51.01,1.02-.06,1.51-.21.38-.12.73-.3,1.04-.55.26-.21.47-.48.6-.79.13-.29.19-.61.19-.93.02-.43-.14-.86-.43-1.18-.33-.34-.71-.61-1.14-.8-.52-.25-1.06-.45-1.62-.61-.61-.18-1.23-.38-1.86-.59-.63-.21-1.26-.46-1.86-.75-.59-.28-1.14-.65-1.62-1.09-.48-.46-.87-1.01-1.14-1.62-.31-.73-.45-1.53-.43-2.32,0-.83.17-1.64.5-2.4.34-.76.84-1.44,1.47-1.99.71-.6,1.53-1.07,2.42-1.36,1.08-.36,2.21-.53,3.35-.51,1.32-.02,2.63.22,3.86.7,1.08.42,2.06,1.04,2.9,1.84l-1.12,1.78Z"/>
          <path id="Path_18971" data-name="Path 18971" class="cls-21" d="M339.41,188.38h-2.22c-.38.02-.76-.05-1.1-.21-.31-.19-.52-.5-.6-.85l-.44-1.46c-.49.44-1,.85-1.53,1.23-.49.35-1.01.64-1.55.89-.54.24-1.11.42-1.7.54-.66.13-1.33.19-2,.18-.81,0-1.62-.11-2.4-.35-.7-.21-1.34-.57-1.89-1.05-.54-.48-.96-1.08-1.23-1.75-.31-.77-.46-1.6-.44-2.43,0-.81.22-1.6.61-2.3.49-.84,1.19-1.55,2.03-2.05,1.17-.7,2.45-1.21,3.78-1.52,1.92-.44,3.89-.64,5.86-.6v-1.21c.09-1.1-.22-2.19-.87-3.07-.65-.7-1.58-1.06-2.53-1-.68-.02-1.35.08-2,.28-.48.16-.95.37-1.39.63-.39.23-.76.44-1.09.63-.34.19-.72.28-1.1.28-.31,0-.61-.08-.86-.26-.24-.17-.43-.39-.58-.64l-.9-1.58c2.32-2.15,5.38-3.31,8.54-3.24,1.1-.02,2.19.18,3.21.59.91.37,1.72.93,2.39,1.64.67.72,1.17,1.58,1.49,2.51.35,1.03.52,2.11.51,3.2v12.96ZM329.81,185.3c.47,0,.94-.04,1.4-.14.42-.09.82-.23,1.21-.41.39-.19.76-.42,1.1-.68.38-.29.74-.61,1.07-.96v-3.43c-1.21-.02-2.42.07-3.61.27-.8.13-1.59.36-2.33.69-.5.21-.93.55-1.25.99-.24.36-.37.79-.37,1.23-.07.71.22,1.42.77,1.87.59.4,1.3.6,2.01.56"/>
          <path id="Path_18972" data-name="Path 18972" class="cls-21" d="M344.27,188.38v-20.52h3.02c.58-.04,1.11.34,1.26.9l.34,1.62c.41-.42.84-.81,1.31-1.16.46-.35.95-.65,1.46-.9.53-.26,1.08-.45,1.65-.58.63-.14,1.27-.2,1.92-.2,1.02-.02,2.04.18,2.98.57.84.36,1.58.91,2.17,1.6.6.72,1.05,1.56,1.32,2.46.31,1.02.46,2.08.45,3.15v13.06h-4.94v-13.06c.07-1.04-.24-2.07-.87-2.91-.67-.72-1.63-1.1-2.61-1.03-.84,0-1.66.19-2.4.58-.78.41-1.5.95-2.12,1.58v14.84h-4.94Z"/>
          <path id="Path_18973" data-name="Path 18973" class="cls-21" d="M381.45,188.38c-.58.04-1.11-.34-1.26-.9l-.4-1.98c-.41.47-.86.9-1.34,1.3-.47.39-.97.72-1.51,1-.55.28-1.14.5-1.74.65-.66.16-1.33.23-2.01.23-2.16.03-4.21-.98-5.49-2.73-.72-.99-1.25-2.1-1.56-3.29-.39-1.46-.57-2.97-.55-4.48-.01-1.44.2-2.87.62-4.24.38-1.23.98-2.39,1.78-3.4.75-.94,1.7-1.71,2.78-2.25,1.13-.55,2.38-.83,3.64-.81,1.01-.03,2.01.16,2.94.55.81.36,1.54.86,2.18,1.47v-10.84h4.94v29.72h-3.02ZM374.87,184.76c.92.03,1.82-.19,2.62-.64.78-.48,1.47-1.1,2.04-1.82v-9.2c-.48-.62-1.11-1.12-1.83-1.44-.67-.28-1.4-.43-2.13-.42-.7-.01-1.39.13-2.03.42-.61.29-1.14.72-1.54,1.27-.46.65-.79,1.38-.97,2.16-.24,1.01-.36,2.05-.34,3.09-.02,1.02.08,2.05.29,3.05.15.73.43,1.42.83,2.04.32.5.78.89,1.32,1.14.55.24,1.14.36,1.74.35"/>
          <path id="Path_18974" data-name="Path 18974" class="cls-21" d="M413.61,188.38h-2.22c-.38.02-.76-.05-1.1-.21-.31-.19-.52-.5-.6-.85l-.44-1.46c-.49.44-1,.85-1.53,1.23-.49.35-1.01.64-1.55.89-.54.24-1.11.42-1.7.54-.66.13-1.33.19-2,.18-.81,0-1.62-.11-2.4-.35-.7-.21-1.34-.57-1.89-1.05-.54-.48-.96-1.08-1.23-1.75-.31-.77-.46-1.6-.44-2.43,0-.81.22-1.6.61-2.3.49-.84,1.19-1.55,2.03-2.05,1.17-.7,2.45-1.21,3.78-1.52,1.92-.44,3.89-.64,5.86-.6v-1.21c.09-1.1-.22-2.19-.87-3.07-.65-.7-1.58-1.06-2.53-1-.68-.02-1.35.08-2,.28-.48.16-.95.37-1.39.63-.39.23-.76.44-1.09.63-.34.19-.72.28-1.1.28-.31,0-.61-.08-.86-.26-.24-.17-.43-.39-.58-.64l-.9-1.58c2.32-2.15,5.38-3.31,8.54-3.24,1.1-.02,2.19.18,3.21.59.91.37,1.72.93,2.39,1.64.67.72,1.17,1.58,1.49,2.51.35,1.03.52,2.11.51,3.2v12.96ZM404.01,185.3c.47,0,.94-.04,1.4-.14.42-.09.82-.23,1.21-.41.39-.19.76-.42,1.1-.68.38-.29.74-.61,1.07-.96v-3.43c-1.21-.02-2.42.07-3.61.27-.8.13-1.59.36-2.33.69-.5.21-.93.55-1.25.99-.24.36-.37.79-.37,1.23-.07.71.22,1.42.77,1.87.59.4,1.3.6,2.01.56"/>
          <path id="Path_18975" data-name="Path 18975" class="cls-21" d="M422.99,167.86v13.04c-.07,1.04.24,2.07.87,2.91.67.72,1.63,1.1,2.61,1.03.83,0,1.66-.19,2.4-.57.78-.41,1.5-.94,2.12-1.57v-14.84h4.94v20.52h-3.02c-.58.04-1.11-.34-1.26-.9l-.34-1.64c-.42.42-.86.81-1.32,1.17-.45.35-.94.65-1.45.9-.53.25-1.09.45-1.66.58-.63.14-1.27.21-1.91.21-1.02.02-2.03-.17-2.97-.57-.84-.36-1.58-.91-2.17-1.61-.6-.73-1.06-1.57-1.33-2.47-.31-1.02-.46-2.08-.45-3.15v-13.04h4.94Z"/>
          <path id="Path_18976" data-name="Path 18976" class="cls-21" d="M455.65,188.38c-.58.04-1.11-.34-1.26-.9l-.4-1.98c-.41.47-.86.9-1.34,1.3-.47.39-.97.72-1.51,1-.55.28-1.14.5-1.74.65-.66.16-1.33.23-2.01.23-2.16.03-4.21-.98-5.49-2.73-.72-.99-1.25-2.1-1.56-3.29-.39-1.46-.57-2.97-.55-4.48-.01-1.44.2-2.87.62-4.24.38-1.23.98-2.39,1.78-3.4.75-.94,1.7-1.71,2.78-2.25,1.13-.55,2.38-.83,3.64-.81,1.01-.03,2.01.16,2.94.55.81.36,1.54.86,2.18,1.47v-10.84h4.94v29.72h-3.02ZM449.07,184.76c.92.03,1.82-.19,2.62-.64.78-.48,1.47-1.1,2.04-1.82v-9.2c-.48-.62-1.11-1.12-1.83-1.44-.67-.28-1.4-.43-2.13-.42-.7-.01-1.39.13-2.03.42-.61.29-1.14.72-1.54,1.27-.46.65-.79,1.38-.97,2.16-.24,1.01-.36,2.05-.34,3.09-.02,1.02.08,2.05.29,3.05.15.73.43,1.42.83,2.04.32.5.78.89,1.32,1.14.55.24,1.14.36,1.74.35"/>
          <path id="Path_18977" data-name="Path 18977" class="cls-21" d="M470.01,161.88c0,.41-.09.82-.26,1.2-.34.74-.94,1.33-1.7,1.65-.39.17-.81.25-1.24.25-.42,0-.83-.08-1.21-.25-.74-.32-1.33-.91-1.66-1.65-.17-.38-.25-.79-.25-1.2,0-.43.08-.85.25-1.24.16-.37.39-.71.67-1,.29-.28.62-.51.99-.67.38-.17.79-.25,1.21-.25.43,0,.85.08,1.24.25.37.16.72.39,1.01.67.29.29.53.63.69,1,.17.39.26.81.26,1.24M469.27,188.38h-4.94v-20.52h4.94v20.52Z"/>
          <path id="Path_18978" data-name="Path 18978" class="cls-21" d="M483.33,167.54c1.22-.01,2.43.2,3.57.62,1.06.39,2.01,1.01,2.81,1.81.81.83,1.44,1.83,1.84,2.92.46,1.27.68,2.6.66,3.95,0,.31-.01.62-.05.93-.02.2-.08.4-.18.58-.08.14-.2.24-.35.3-.18.07-.37.1-.56.09h-12.68c-.01,1.7.59,3.35,1.7,4.64,1.05,1.01,2.47,1.55,3.92,1.48.7.01,1.4-.08,2.07-.28.52-.16,1.03-.37,1.52-.62.43-.23.81-.43,1.14-.62.29-.18.61-.27.95-.28.18,0,.36.04.52.12.15.08.28.2.38.34l1.44,1.8c-.53.63-1.15,1.17-1.84,1.61-.67.43-1.38.78-2.13,1.04-.73.26-1.49.44-2.26.55-.74.11-1.48.16-2.23.16-1.36.01-2.71-.23-3.98-.71-1.21-.46-2.3-1.18-3.2-2.1-.94-.99-1.67-2.16-2.14-3.44-.55-1.52-.81-3.13-.78-4.75,0-1.35.22-2.68.68-3.95.43-1.19,1.09-2.29,1.95-3.22.87-.93,1.93-1.67,3.1-2.17,1.31-.55,2.71-.82,4.13-.8M483.43,171.08c-1.25-.07-2.47.37-3.38,1.22-.88.95-1.43,2.17-1.56,3.46h9.28c0-.61-.08-1.22-.26-1.81-.16-.55-.43-1.05-.8-1.49-.37-.44-.84-.78-1.36-1.01-.61-.26-1.26-.38-1.92-.37"/>
          <path id="Path_18979" data-name="Path 18979" class="cls-21" d="M496.23,188.38v-20.52h3.02c.58-.04,1.11.34,1.26.9l.34,1.62c.41-.42.84-.81,1.31-1.16.46-.35.95-.65,1.46-.9.53-.26,1.08-.45,1.65-.58.63-.14,1.27-.2,1.92-.2,1.02-.02,2.04.18,2.98.57.84.36,1.58.91,2.17,1.6.6.72,1.05,1.56,1.32,2.46.31,1.02.46,2.08.45,3.15v13.06h-4.94v-13.06c.07-1.04-.24-2.07-.87-2.91-.67-.72-1.63-1.1-2.61-1.03-.84,0-1.66.19-2.4.58-.78.41-1.5.95-2.12,1.58v14.84h-4.94Z"/>
          <path id="Path_18980" data-name="Path 18980" class="cls-21" d="M533.39,172.2c-.12.16-.27.31-.43.44-.18.12-.4.18-.61.16-.26,0-.52-.08-.74-.23-.24-.15-.53-.33-.86-.52-.38-.21-.78-.39-1.19-.52-.55-.17-1.13-.24-1.71-.23-.79-.02-1.56.14-2.28.47-.65.31-1.21.77-1.63,1.35-.46.64-.79,1.36-.97,2.13-.22.93-.33,1.88-.32,2.83-.01.98.1,1.97.35,2.92.2.77.54,1.5,1.01,2.15.42.56.97,1.02,1.6,1.32.66.31,1.39.46,2.12.45.65.02,1.3-.08,1.91-.29.43-.17.85-.38,1.23-.64.33-.23.62-.45.87-.64.23-.19.53-.29.83-.29.36-.02.71.16.9.46l1.42,1.8c-.52.61-1.12,1.16-1.78,1.61-.62.42-1.29.77-1.99,1.04-.69.26-1.4.44-2.13.55-.72.11-1.45.16-2.18.16-1.23,0-2.45-.23-3.58-.71-1.11-.47-2.11-1.18-2.93-2.07-.87-.97-1.55-2.1-1.98-3.33-.51-1.44-.75-2.96-.73-4.49-.01-1.42.21-2.84.65-4.19.4-1.23,1.05-2.37,1.91-3.34.86-.96,1.93-1.71,3.12-2.21,1.36-.56,2.81-.83,4.28-.8,1.38-.03,2.75.22,4.03.74,1.16.5,2.22,1.22,3.11,2.12l-1.3,1.8Z"/>
          <path id="Path_18981" data-name="Path 18981" class="cls-21" d="M546.53,167.54c1.22-.01,2.43.2,3.57.62,1.06.39,2.01,1.01,2.81,1.81.81.83,1.44,1.83,1.84,2.92.46,1.27.68,2.6.66,3.95,0,.31-.01.62-.05.93-.02.2-.08.4-.18.58-.08.14-.2.24-.35.3-.18.07-.37.1-.56.09h-12.68c-.01,1.7.59,3.35,1.7,4.64,1.05,1.01,2.47,1.55,3.92,1.48.7.01,1.4-.08,2.07-.28.52-.16,1.03-.37,1.52-.62.43-.23.81-.43,1.14-.62.29-.18.61-.27.95-.28.18,0,.36.04.52.12.15.08.28.2.38.34l1.44,1.8c-.53.63-1.15,1.17-1.84,1.61-.67.43-1.38.78-2.13,1.04-.73.26-1.49.44-2.26.55-.74.11-1.48.16-2.23.16-1.36.01-2.71-.23-3.98-.71-1.21-.46-2.3-1.18-3.2-2.1-.94-.99-1.67-2.16-2.14-3.44-.55-1.52-.81-3.13-.78-4.75,0-1.35.22-2.68.68-3.95.43-1.19,1.09-2.29,1.95-3.22.87-.93,1.93-1.67,3.1-2.17,1.31-.55,2.71-.82,4.13-.8M546.63,171.08c-1.25-.07-2.47.37-3.38,1.22-.88.95-1.43,2.17-1.56,3.46h9.28c0-.61-.08-1.22-.26-1.81-.16-.55-.43-1.05-.8-1.49-.37-.44-.84-.78-1.36-1.01-.61-.26-1.26-.38-1.92-.37"/>
          <path id="Path_18982" data-name="Path 18982" class="cls-21" d="M571.61,171.86c-.1.18-.25.34-.42.45-.17.09-.37.14-.56.13-.27,0-.53-.08-.77-.2-.27-.13-.59-.28-.95-.45-.4-.18-.81-.33-1.23-.45-.53-.14-1.08-.21-1.63-.2-.81-.05-1.62.17-2.3.62-.53.36-.85.97-.84,1.62-.01.41.14.81.43,1.11.33.33.72.6,1.14.79.52.24,1.06.45,1.61.61.6.18,1.21.38,1.84.59.63.21,1.24.46,1.84.73.59.26,1.13.61,1.61,1.04,1.05.91,1.62,2.24,1.57,3.63,0,.94-.17,1.87-.54,2.73-.36.83-.9,1.57-1.58,2.16-.75.64-1.63,1.12-2.57,1.42-1.81.55-3.72.66-5.58.32-.66-.12-1.31-.3-1.94-.53-.6-.22-1.17-.48-1.72-.8-.5-.28-.96-.62-1.39-1l1.14-1.88c.13-.21.31-.39.52-.52.23-.13.49-.19.76-.18.31,0,.61.09.87.26.27.17.59.36.95.56.41.22.83.41,1.27.56.6.19,1.22.28,1.85.26.51.01,1.02-.06,1.51-.21.38-.12.73-.3,1.04-.55.26-.21.47-.48.6-.79.13-.29.19-.61.19-.93.02-.43-.14-.86-.43-1.18-.33-.34-.71-.61-1.14-.8-.52-.25-1.06-.45-1.62-.61-.61-.18-1.23-.38-1.86-.59-.63-.21-1.26-.46-1.86-.75-.59-.28-1.14-.65-1.62-1.09-.48-.46-.87-1.01-1.14-1.62-.31-.73-.45-1.53-.43-2.32,0-.83.17-1.64.5-2.4.34-.76.84-1.44,1.47-1.99.71-.6,1.53-1.07,2.42-1.36,1.08-.36,2.21-.53,3.35-.51,1.32-.02,2.63.22,3.86.7,1.08.42,2.06,1.04,2.9,1.84l-1.12,1.78Z"/>
          <path id="Path_18983" data-name="Path 18983" class="cls-21" d="M105.63,236.38v-29.72h4.94v11.72c.79-.85,1.72-1.55,2.76-2.07,1.12-.53,2.36-.8,3.6-.77,2.15-.04,4.19.97,5.47,2.7.72.98,1.25,2.08,1.56,3.26.39,1.45.57,2.96.55,4.46.01,1.44-.2,2.88-.62,4.26-.37,1.23-.97,2.39-1.77,3.4-1.54,1.97-3.93,3.1-6.43,3.06-.58,0-1.16-.06-1.72-.19-.97-.23-1.87-.69-2.61-1.36-.38-.34-.73-.7-1.05-1.09l-.22,1.38c-.05.29-.19.55-.41.74-.23.16-.51.24-.79.22h-3.26ZM115.23,219.38c-.92-.03-1.83.2-2.63.65-.78.48-1.47,1.1-2.03,1.83v9.2c.48.63,1.11,1.13,1.83,1.45.68.28,1.41.42,2.15.41.7.01,1.39-.13,2.02-.42.61-.29,1.14-.73,1.53-1.28.46-.66.79-1.39.97-2.17.24-1.01.36-2.05.34-3.09.02-1.02-.08-2.05-.29-3.05-.15-.72-.43-1.41-.83-2.03-.33-.49-.78-.88-1.31-1.14-.55-.25-1.15-.37-1.75-.36"/>
          <path id="Path_18984" data-name="Path 18984" class="cls-21" d="M137.13,215.54c1.42-.02,2.84.23,4.17.74,1.2.46,2.29,1.18,3.19,2.1.91.95,1.6,2.08,2.04,3.32.96,2.85.96,5.93,0,8.78-.44,1.24-1.14,2.38-2.04,3.34-.9.93-1.98,1.65-3.19,2.12-2.7.99-5.65.99-8.35,0-1.21-.47-2.31-1.19-3.21-2.12-.91-.96-1.61-2.1-2.06-3.34-.97-2.85-.97-5.93,0-8.78.45-1.24,1.15-2.37,2.06-3.32.91-.92,2-1.64,3.21-2.1,1.33-.51,2.75-.76,4.18-.74M137.13,232.88c1.47.11,2.9-.54,3.79-1.72.92-1.51,1.35-3.27,1.23-5.04.11-1.77-.31-3.54-1.23-5.06-.88-1.19-2.31-1.85-3.79-1.74-1.49-.11-2.94.55-3.84,1.75-.92,1.52-1.35,3.28-1.24,5.05-.12,1.76.32,3.52,1.24,5.03.9,1.19,2.35,1.84,3.84,1.73"/>
          <path id="Path_18985" data-name="Path 18985" class="cls-21" d="M159.87,215.54c1.42-.02,2.84.23,4.17.74,1.2.46,2.29,1.18,3.19,2.1.91.95,1.6,2.08,2.04,3.32.96,2.85.96,5.93,0,8.78-.44,1.24-1.14,2.38-2.04,3.34-.9.93-1.98,1.65-3.19,2.12-2.7.99-5.65.99-8.35,0-1.21-.47-2.31-1.19-3.21-2.12-.91-.96-1.61-2.1-2.06-3.34-.97-2.85-.97-5.93,0-8.78.45-1.24,1.15-2.37,2.06-3.32.91-.92,2-1.64,3.21-2.1,1.33-.51,2.75-.76,4.18-.74M159.87,232.88c1.47.11,2.9-.54,3.79-1.72.92-1.51,1.35-3.27,1.23-5.04.11-1.77-.31-3.54-1.23-5.06-.88-1.19-2.31-1.85-3.79-1.74-1.49-.11-2.94.55-3.84,1.75-.92,1.52-1.35,3.28-1.24,5.05-.12,1.76.32,3.52,1.24,5.03.9,1.19,2.35,1.84,3.84,1.73"/>
          <path id="Path_18986" data-name="Path 18986" class="cls-21" d="M186.03,219.86c-.1.18-.25.34-.42.45-.17.09-.37.14-.56.13-.27,0-.53-.08-.77-.2-.27-.13-.59-.28-.95-.45-.4-.18-.81-.33-1.23-.45-.53-.14-1.08-.21-1.63-.2-.81-.05-1.62.17-2.3.62-.53.36-.85.97-.84,1.62-.01.41.14.81.43,1.11.33.33.72.6,1.14.79.52.24,1.06.45,1.61.61.6.18,1.21.38,1.84.59s1.24.46,1.84.73c.59.26,1.13.61,1.61,1.04,1.05.91,1.62,2.24,1.57,3.63,0,.94-.17,1.87-.54,2.73-.36.83-.9,1.57-1.58,2.16-.75.64-1.63,1.12-2.57,1.42-1.81.55-3.72.66-5.58.32-.66-.12-1.31-.3-1.94-.53-.6-.22-1.17-.48-1.72-.8-.5-.28-.96-.62-1.39-1l1.14-1.88c.13-.21.31-.39.52-.52.23-.13.49-.19.76-.18.31,0,.61.09.87.26.27.17.59.36.95.56.41.22.83.41,1.27.56.6.19,1.22.28,1.85.26.51.01,1.02-.06,1.51-.21.38-.12.73-.3,1.04-.55.26-.21.47-.48.6-.79.13-.29.19-.61.19-.93.02-.43-.14-.86-.43-1.18-.33-.34-.71-.61-1.14-.8-.52-.25-1.06-.45-1.62-.61-.61-.18-1.23-.38-1.86-.59-.63-.21-1.26-.46-1.86-.75-.59-.28-1.14-.65-1.62-1.09-.48-.46-.87-1.01-1.14-1.62-.31-.73-.45-1.53-.43-2.32,0-.83.17-1.64.5-2.4.34-.76.84-1.44,1.47-1.99.71-.6,1.53-1.07,2.42-1.36,1.08-.36,2.21-.53,3.35-.51,1.32-.02,2.63.22,3.86.7,1.08.42,2.06,1.04,2.9,1.84l-1.12,1.78Z"/>
          <path id="Path_18987" data-name="Path 18987" class="cls-21" d="M198.07,236.7c-1.52.1-3.01-.45-4.1-1.51-1.01-1.15-1.53-2.64-1.44-4.17v-11.46h-2.08c-.52.02-.96-.38-.98-.91,0-.04,0-.09,0-.13v-1.96l3.3-.54,1.04-5.6c.04-.25.17-.47.37-.62.21-.15.47-.23.73-.22h2.56v6.46h5.4v3.52h-5.4v11.12c-.03.54.14,1.08.48,1.5.32.36.79.56,1.28.54.26,0,.52-.03.77-.11.19-.06.37-.14.54-.23.15-.08.29-.16.41-.23.11-.07.23-.11.36-.11.13,0,.26.03.36.11.11.1.21.21.3.33l1.48,2.4c-.73.61-1.57,1.07-2.48,1.36-.94.31-1.91.46-2.9.46"/>
          <path id="Path_18988" data-name="Path 18988" class="cls-21" d="M214.53,243.08v-27.22h3.02c.29,0,.57.07.82.22.23.16.39.4.44.68l.4,1.9c.81-.93,1.77-1.71,2.85-2.3,1.16-.61,2.46-.91,3.77-.88,1.06-.01,2.12.23,3.07.7.95.48,1.77,1.18,2.4,2.03.72.99,1.25,2.1,1.56,3.28.39,1.46.57,2.96.55,4.47.01,1.44-.2,2.88-.62,4.26-.38,1.23-.98,2.39-1.77,3.4-.75.95-1.7,1.71-2.78,2.25-1.14.55-2.39.83-3.65.81-1.01.03-2.01-.15-2.95-.53-.81-.35-1.54-.85-2.17-1.47v8.4h-4.94ZM224.13,219.38c-.92-.03-1.83.2-2.63.65-.78.48-1.47,1.1-2.03,1.83v9.2c.48.63,1.11,1.13,1.83,1.45.68.28,1.4.42,2.13.41.7,0,1.39-.13,2.03-.42.62-.29,1.15-.73,1.54-1.28.46-.66.79-1.39.97-2.17.24-1.01.36-2.05.34-3.09.02-1.02-.08-2.05-.29-3.05-.15-.72-.43-1.41-.83-2.03-.33-.49-.78-.88-1.31-1.14-.55-.25-1.15-.37-1.75-.36"/>
          <path id="Path_18989" data-name="Path 18989" class="cls-21" d="M237.15,236.38v-20.52h2.9c.38-.04.75.06,1.06.28.24.27.38.6.4.96l.3,2.48c.65-1.17,1.52-2.19,2.58-3,.96-.72,2.12-1.11,3.32-1.1.89-.03,1.77.21,2.52.7l-.64,3.7c-.02.2-.11.38-.26.51-.16.11-.35.16-.54.15-.28-.01-.55-.06-.82-.14-.45-.1-.92-.15-1.38-.14-.95-.02-1.88.27-2.64.85-.81.67-1.45,1.52-1.86,2.49v12.78h-4.94Z"/>
          <path id="Path_18990" data-name="Path 18990" class="cls-21" d="M262.25,215.54c1.42-.02,2.84.23,4.17.74,1.2.46,2.29,1.18,3.19,2.1.91.95,1.6,2.08,2.04,3.32.96,2.85.96,5.93,0,8.78-.44,1.24-1.14,2.38-2.04,3.34-.9.93-1.98,1.65-3.19,2.12-2.7.99-5.65.99-8.35,0-1.21-.47-2.31-1.19-3.21-2.12-.91-.96-1.61-2.1-2.06-3.34-.97-2.85-.97-5.93,0-8.78.45-1.24,1.15-2.37,2.06-3.32.91-.92,2-1.64,3.21-2.1,1.33-.51,2.75-.76,4.18-.74M262.25,232.88c1.47.11,2.9-.54,3.79-1.72.92-1.51,1.35-3.27,1.23-5.04.11-1.77-.31-3.54-1.23-5.06-.88-1.19-2.31-1.85-3.79-1.74-1.49-.11-2.94.55-3.84,1.75-.92,1.52-1.35,3.28-1.24,5.05-.12,1.76.32,3.52,1.24,5.03.9,1.19,2.35,1.84,3.84,1.73"/>
          <path id="Path_18991" data-name="Path 18991" class="cls-21" d="M277.11,236.38v-16.8l-1.78-.28c-.34-.05-.66-.18-.93-.4-.24-.21-.37-.52-.35-.84v-2.02h3.06v-.66c-.01-1.19.2-2.38.62-3.49.41-1.06,1.05-2.02,1.88-2.79.92-.83,2-1.46,3.18-1.85,1.47-.47,3-.7,4.54-.67.57,0,1.15.03,1.72.09.51.05,1.02.14,1.52.29l-.16,2.56c0,.28-.22.52-.5.55-.38.07-.76.1-1.14.09-1.09-.02-2.18.09-3.25.34-.77.18-1.5.52-2.12,1.01-.54.44-.94,1.02-1.16,1.68-.25.76-.37,1.55-.35,2.35v.5h12.72v20.34h-4.94v-16.82h-7.62v16.82h-4.94Z"/>
          <path id="Path_18992" data-name="Path 18992" class="cls-21" d="M307.01,236.7c-1.52.1-3.01-.45-4.1-1.51-1.01-1.15-1.53-2.64-1.44-4.17v-11.46h-2.08c-.52.02-.96-.38-.98-.91,0-.04,0-.09,0-.13v-1.96l3.3-.54,1.04-5.6c.04-.25.17-.47.37-.62.21-.15.47-.23.73-.22h2.56v6.46h5.4v3.52h-5.4v11.12c-.03.54.14,1.08.48,1.5.32.36.79.56,1.28.54.26,0,.52-.03.77-.11.19-.06.37-.14.54-.23.15-.08.29-.16.41-.23.11-.07.23-.11.36-.11.13,0,.26.03.36.11.11.1.21.21.3.33l1.48,2.4c-.73.61-1.58,1.07-2.48,1.36-.94.31-1.91.46-2.9.46"/>
          <path id="Path_18993" data-name="Path 18993" class="cls-21" d="M327.93,219.86c-.1.18-.25.34-.42.45-.17.09-.37.14-.56.13-.27,0-.53-.08-.77-.2-.27-.13-.59-.28-.95-.45-.4-.18-.81-.33-1.23-.45-.53-.14-1.08-.21-1.63-.2-.81-.05-1.62.17-2.3.62-.53.36-.85.97-.84,1.62-.01.41.14.81.43,1.11.33.33.72.6,1.14.79.52.24,1.06.45,1.61.61.6.18,1.21.38,1.84.59.63.21,1.24.46,1.84.73.59.26,1.13.61,1.61,1.04,1.05.91,1.62,2.24,1.57,3.63,0,.94-.17,1.87-.54,2.73-.36.83-.9,1.57-1.58,2.16-.75.64-1.63,1.12-2.57,1.42-1.81.55-3.72.66-5.58.32-.66-.12-1.31-.3-1.94-.53-.6-.22-1.17-.48-1.72-.8-.5-.28-.96-.62-1.39-1l1.14-1.88c.13-.21.31-.39.52-.52.23-.13.49-.19.76-.18.31,0,.61.09.87.26.27.17.59.36.95.56.41.22.83.41,1.27.56.6.19,1.22.28,1.85.26.51.01,1.02-.06,1.51-.21.38-.12.73-.3,1.04-.55.26-.21.47-.48.6-.79.13-.29.19-.61.19-.93.02-.43-.14-.86-.43-1.18-.33-.34-.71-.61-1.14-.8-.52-.25-1.06-.45-1.62-.61-.61-.18-1.23-.38-1.86-.59-.63-.21-1.26-.46-1.86-.75-.59-.28-1.14-.65-1.62-1.09-.48-.46-.87-1.01-1.14-1.62-.31-.73-.45-1.53-.43-2.32,0-.83.17-1.64.5-2.4.34-.76.84-1.44,1.47-1.99.71-.6,1.53-1.07,2.42-1.36,1.08-.36,2.21-.53,3.35-.51,1.32-.02,2.63.22,3.86.7,1.08.42,2.06,1.04,2.9,1.84l-1.12,1.78Z"/>
          <path id="Path_18994" data-name="Path 18994" class="cls-21" d="M332.19,233.34c0-.72.28-1.41.8-1.91.26-.25.58-.45.92-.58.38-.14.78-.21,1.18-.21.45-.01.91.08,1.32.27.36.17.69.43.94.74.26.32.45.69.56,1.08.12.42.18.85.18,1.29,0,.68-.1,1.36-.29,2.02-.21.74-.49,1.45-.85,2.12-.39.73-.85,1.42-1.38,2.06-.56.68-1.19,1.3-1.88,1.84l-.86-.78c-.23-.18-.36-.45-.36-.74,0-.13.04-.25.11-.36.07-.13.16-.25.27-.36l.54-.59c.23-.25.44-.52.64-.8.22-.31.42-.64.59-.98.18-.36.31-.74.39-1.13-.39,0-.78-.07-1.14-.23-.34-.15-.64-.36-.89-.63-.25-.27-.45-.59-.58-.94-.14-.38-.21-.78-.21-1.18"/>
          <rect id="Rectangle_7370" data-name="Rectangle 7370" class="cls-6" x="348" y="198.66" width="217" height="53" rx="8" ry="8"/>
          <g id="Group_13043" data-name="Group 13043">
            <path id="Path_18995" data-name="Path 18995" class="cls-19" d="M365.1,215.56c.83,0,1.67.09,2.48.27.74.17,1.45.43,2.12.79h5.9v1.84c.02.26-.07.52-.24.72-.23.2-.52.33-.82.36l-1.84.34c.14.36.24.72.31,1.1.07.4.11.81.11,1.22.03,1.88-.81,3.67-2.29,4.84-.76.6-1.62,1.05-2.54,1.33-1.03.32-2.11.48-3.19.47-.76,0-1.52-.07-2.26-.22-.64.39-.96.83-.96,1.31-.01.39.21.76.57.92.47.22.98.36,1.5.41.7.09,1.4.13,2.11.12.79,0,1.59.03,2.42.1.81.07,1.62.18,2.42.35.74.15,1.45.42,2.11.79.62.36,1.13.87,1.5,1.48.41.73.61,1.56.57,2.4,0,.92-.23,1.83-.67,2.65-.48.89-1.14,1.67-1.94,2.29-.94.71-1.99,1.26-3.11,1.61-1.36.43-2.78.63-4.2.61-1.37.02-2.73-.13-4.06-.45-1.01-.24-1.97-.65-2.85-1.2-.69-.44-1.27-1.03-1.69-1.73-.36-.62-.56-1.32-.56-2.04-.03-.89.29-1.76.88-2.42.67-.71,1.51-1.25,2.44-1.56-.49-.27-.91-.65-1.22-1.12-.33-.55-.49-1.18-.46-1.82,0-.32.06-.64.16-.95.12-.34.28-.67.49-.97.24-.34.52-.64.83-.91.36-.3.76-.56,1.18-.77-1-.52-1.84-1.29-2.45-2.24-.61-.98-.92-2.12-.89-3.28-.03-1.89.82-3.69,2.31-4.85.77-.6,1.64-1.05,2.58-1.33,1.05-.32,2.15-.47,3.25-.46M370.52,237.31c.01-.37-.11-.73-.36-1-.27-.28-.61-.48-.98-.6-.47-.16-.96-.26-1.45-.32-.58-.07-1.17-.1-1.76-.1h-1.92c-.64,0-1.28-.07-1.91-.22-.52.27-.98.64-1.35,1.09-.34.41-.52.92-.51,1.45,0,.35.09.7.27,1.01.21.34.51.62.86.81.48.26,1,.44,1.53.53.76.14,1.53.2,2.3.19.8.01,1.6-.06,2.38-.21.58-.11,1.13-.31,1.65-.59.39-.21.72-.52.95-.9.2-.34.3-.74.3-1.13M365.1,225.68c.54.01,1.09-.07,1.6-.25.42-.15.81-.38,1.13-.69.3-.3.54-.66.68-1.06.16-.44.23-.9.23-1.36.05-.9-.28-1.77-.91-2.41-1.63-1.19-3.83-1.19-5.46,0-.63.64-.96,1.52-.91,2.41,0,.46.07.91.23,1.34.15.4.38.77.68,1.07.32.31.71.55,1.14.7.51.18,1.05.26,1.59.25"/>
            <path id="Path_18996" data-name="Path 18996" class="cls-19" d="M383.22,215.9v13.04c-.07,1.04.24,2.07.87,2.91.67.72,1.63,1.1,2.61,1.03.83,0,1.66-.19,2.4-.57.78-.41,1.5-.94,2.12-1.57v-14.84h4.94v20.52h-3.02c-.58.04-1.11-.34-1.26-.9l-.34-1.64c-.42.42-.86.81-1.32,1.17-.45.35-.94.65-1.45.9-.53.25-1.09.45-1.66.58-.63.14-1.27.21-1.91.21-1.02.02-2.03-.17-2.97-.57-.84-.36-1.58-.91-2.17-1.61-.6-.73-1.06-1.57-1.33-2.47-.31-1.02-.46-2.08-.45-3.15v-13.04h4.94Z"/>
            <path id="Path_18997" data-name="Path 18997" class="cls-19" d="M417.4,236.42h-2.22c-.38.02-.76-.05-1.1-.21-.31-.19-.52-.5-.6-.85l-.44-1.46c-.49.44-1,.85-1.53,1.23-.49.35-1.01.64-1.55.89-.54.24-1.11.42-1.7.54-.66.13-1.33.19-2,.18-.81,0-1.62-.11-2.4-.35-.7-.21-1.34-.57-1.89-1.05-.54-.48-.96-1.08-1.23-1.75-.31-.77-.46-1.6-.44-2.43,0-.81.22-1.6.61-2.3.49-.84,1.19-1.55,2.03-2.04,1.17-.7,2.45-1.21,3.78-1.52,1.92-.44,3.89-.64,5.86-.6v-1.21c.09-1.1-.22-2.19-.87-3.07-.65-.7-1.58-1.06-2.53-1-.68-.02-1.35.08-2,.28-.48.16-.95.37-1.39.63-.39.23-.76.44-1.09.63-.34.19-.72.28-1.1.28-.31,0-.61-.08-.86-.26-.24-.17-.44-.39-.58-.64l-.9-1.58c2.32-2.15,5.38-3.31,8.54-3.24,1.1-.02,2.19.18,3.21.59.91.37,1.72.93,2.39,1.64.67.72,1.17,1.58,1.49,2.51.35,1.03.52,2.11.51,3.2v12.96ZM407.8,233.34c.47,0,.94-.04,1.4-.14.42-.09.82-.23,1.21-.41.39-.19.76-.42,1.1-.68.38-.29.74-.61,1.07-.96v-3.43c-1.21-.02-2.42.07-3.61.27-.8.13-1.59.36-2.33.69-.5.21-.93.55-1.25.99-.24.36-.37.79-.37,1.23-.07.71.22,1.42.77,1.87.59.4,1.3.6,2.01.56"/>
            <path id="Path_18998" data-name="Path 18998" class="cls-19" d="M422.2,236.42v-20.52h2.9c.38-.04.75.06,1.06.28.24.27.38.6.4.96l.3,2.48c.65-1.17,1.52-2.19,2.58-3,.96-.72,2.12-1.11,3.32-1.1.89-.03,1.77.21,2.52.7l-.64,3.7c-.02.2-.11.38-.26.51-.16.11-.35.16-.54.15-.28-.01-.55-.06-.82-.14-.45-.1-.92-.15-1.38-.14-.95-.02-1.88.27-2.64.85-.81.67-1.45,1.52-1.86,2.49v12.78h-4.94Z"/>
            <path id="Path_18999" data-name="Path 18999" class="cls-19" d="M453.99,236.42h-2.22c-.38.02-.76-.05-1.1-.21-.31-.19-.52-.5-.6-.85l-.44-1.46c-.49.44-1,.85-1.53,1.23-.49.35-1.01.64-1.55.89-.54.24-1.11.42-1.7.54-.66.13-1.33.19-2,.18-.81,0-1.62-.11-2.4-.35-.7-.21-1.34-.57-1.89-1.05-.54-.48-.96-1.08-1.23-1.75-.31-.77-.46-1.6-.44-2.43,0-.81.22-1.6.61-2.3.49-.84,1.19-1.55,2.03-2.04,1.17-.7,2.45-1.21,3.78-1.52,1.92-.44,3.89-.64,5.86-.6v-1.21c.09-1.1-.22-2.19-.87-3.07-.65-.7-1.58-1.06-2.53-1-.68-.02-1.35.08-2,.28-.48.16-.95.37-1.39.63-.39.23-.76.44-1.09.63-.34.19-.72.28-1.1.28-.31,0-.61-.08-.86-.26-.24-.17-.43-.39-.58-.64l-.9-1.58c2.32-2.15,5.38-3.31,8.54-3.24,1.1-.02,2.19.18,3.21.59.91.37,1.72.93,2.39,1.64.67.72,1.17,1.58,1.49,2.51.35,1.03.52,2.11.51,3.2v12.96ZM444.39,233.34c.47,0,.94-.04,1.4-.14.42-.09.82-.23,1.21-.41.39-.19.76-.42,1.1-.68.38-.29.74-.61,1.07-.96v-3.43c-1.21-.02-2.42.07-3.61.27-.8.13-1.59.36-2.33.69-.5.21-.93.55-1.25.99-.24.36-.37.79-.37,1.23-.07.71.22,1.42.77,1.87.59.4,1.3.6,2.01.56"/>
            <path id="Path_19000" data-name="Path 19000" class="cls-19" d="M458.79,236.42v-20.52h3.02c.58-.04,1.11.34,1.26.9l.34,1.62c.41-.42.84-.81,1.31-1.16.46-.35.95-.65,1.46-.9.53-.26,1.08-.45,1.65-.58.63-.14,1.27-.2,1.92-.2,1.02-.02,2.04.18,2.98.57.84.36,1.58.91,2.17,1.6.6.72,1.05,1.56,1.32,2.46.31,1.02.46,2.08.45,3.15v13.06h-4.94v-13.06c.07-1.04-.24-2.07-.87-2.91-.67-.72-1.63-1.1-2.61-1.03-.84,0-1.66.19-2.4.58-.78.41-1.5.95-2.12,1.58v14.84h-4.94Z"/>
            <path id="Path_19001" data-name="Path 19001" class="cls-19" d="M488.22,236.7c-1.52.1-3.01-.45-4.1-1.51-1.01-1.15-1.53-2.64-1.44-4.17v-11.46h-2.08c-.52.02-.96-.38-.98-.91,0-.04,0-.09,0-.13v-1.96l3.3-.54,1.04-5.6c.04-.25.17-.47.37-.62.21-.15.47-.23.73-.22h2.56v6.46h5.4v3.52h-5.4v11.12c-.03.54.14,1.08.48,1.5.32.36.79.56,1.28.54.26,0,.52-.03.77-.11.19-.06.37-.14.54-.23.15-.08.29-.16.41-.23.11-.07.23-.11.36-.11.13,0,.26.03.36.11.11.1.21.21.3.33l1.48,2.4c-.73.61-1.57,1.07-2.48,1.36-.94.31-1.91.46-2.9.46"/>
            <path id="Path_19002" data-name="Path 19002" class="cls-19" d="M505.38,215.58c1.22-.01,2.43.2,3.57.62,1.06.39,2.01,1.01,2.81,1.81.81.83,1.44,1.83,1.84,2.92.46,1.27.68,2.6.66,3.95,0,.31-.01.62-.05.93-.02.2-.08.4-.18.58-.08.14-.2.24-.35.3-.18.07-.37.1-.56.09h-12.68c-.01,1.7.59,3.35,1.7,4.64,1.05,1.01,2.47,1.55,3.92,1.48.7.01,1.4-.08,2.07-.28.52-.16,1.03-.37,1.52-.62.43-.23.81-.43,1.14-.62.29-.18.61-.27.95-.28.18,0,.36.04.52.12.15.08.28.2.38.34l1.44,1.8c-.53.63-1.15,1.17-1.84,1.61-.67.43-1.38.78-2.13,1.04-.73.26-1.49.44-2.26.55-.74.11-1.48.16-2.23.16-1.36.01-2.71-.23-3.98-.71-1.21-.46-2.3-1.18-3.2-2.1-.94-.99-1.67-2.16-2.14-3.44-.55-1.52-.81-3.13-.78-4.75,0-1.35.22-2.68.68-3.95.43-1.19,1.09-2.29,1.95-3.22.87-.93,1.93-1.67,3.1-2.17,1.31-.55,2.71-.82,4.13-.8M505.48,219.12c-1.25-.07-2.47.37-3.38,1.22-.88.95-1.43,2.17-1.56,3.46h9.28c0-.61-.08-1.22-.26-1.81-.16-.55-.43-1.05-.8-1.49-.37-.44-.84-.78-1.36-1.01-.61-.26-1.26-.38-1.92-.37"/>
            <path id="Path_19003" data-name="Path 19003" class="cls-19" d="M526.64,215.58c1.22-.01,2.43.2,3.57.62,1.06.39,2.01,1.01,2.81,1.81.81.83,1.44,1.83,1.84,2.92.46,1.27.68,2.6.66,3.95,0,.31-.01.62-.05.93-.02.2-.08.4-.18.58-.08.14-.2.24-.35.3-.18.07-.37.1-.56.09h-12.68c-.01,1.7.59,3.35,1.7,4.64,1.05,1.01,2.47,1.55,3.92,1.48.7.01,1.4-.08,2.07-.28.52-.16,1.03-.37,1.52-.62.43-.23.81-.43,1.14-.62.29-.18.61-.27.95-.28.18,0,.36.04.52.12.15.08.28.2.38.34l1.44,1.8c-.53.63-1.15,1.17-1.84,1.61-.67.43-1.38.78-2.13,1.04-.73.26-1.49.44-2.26.55-.74.11-1.48.16-2.23.16-1.36.01-2.71-.23-3.98-.71-1.21-.46-2.3-1.18-3.2-2.1-.94-.99-1.67-2.16-2.14-3.44-.55-1.52-.81-3.13-.78-4.75,0-1.35.22-2.68.68-3.95.43-1.19,1.09-2.29,1.95-3.22.87-.93,1.93-1.67,3.1-2.17,1.31-.55,2.71-.82,4.13-.8M526.74,219.12c-1.25-.07-2.47.37-3.38,1.22-.88.95-1.43,2.17-1.56,3.46h9.28c0-.61-.08-1.22-.26-1.81-.16-.55-.43-1.05-.8-1.49-.37-.44-.84-.78-1.36-1.01-.61-.26-1.26-.38-1.92-.37"/>
            <path id="Path_19004" data-name="Path 19004" class="cls-19" d="M553.98,236.38c-.58.04-1.11-.34-1.26-.9l-.4-1.98c-.41.47-.86.9-1.34,1.3-.47.39-.97.72-1.51,1-.55.28-1.14.5-1.74.65-.66.16-1.33.23-2.01.23-1.07.01-2.12-.23-3.08-.7-.95-.48-1.78-1.18-2.41-2.03-.72-.99-1.25-2.11-1.56-3.29-.39-1.46-.57-2.97-.55-4.48-.01-1.44.2-2.87.62-4.24.38-1.23.98-2.39,1.78-3.4.75-.94,1.7-1.71,2.78-2.25,1.13-.55,2.38-.83,3.64-.81,1.01-.03,2.01.16,2.94.55.81.36,1.54.86,2.18,1.47v-10.84h4.94v29.72h-3.02ZM547.4,232.76c.91.03,1.82-.19,2.62-.64.78-.48,1.47-1.1,2.04-1.82v-9.2c-.48-.62-1.11-1.12-1.83-1.44-.67-.28-1.4-.43-2.13-.42-.7-.01-1.39.13-2.03.42-.61.28-1.14.72-1.54,1.27-.46.65-.79,1.38-.97,2.16-.24,1.01-.36,2.05-.34,3.09-.02,1.02.08,2.05.29,3.05.15.73.43,1.42.83,2.04.32.5.78.89,1.32,1.14.55.24,1.14.36,1.74.35"/>
          </g>
        </g>
      </g>
      <g id="facebook">
        <rect id="Rectangle_5755" data-name="Rectangle 5755" class="cls-17" x="99.99" y="24.67" width="64.02" height="64.02" rx="11.2" ry="11.2" transform="translate(53.22 176.8) rotate(-79.98)"/>
        <path id="Path_14804" data-name="Path 14804" class="cls-16" d="M154.48,58.22l-9.85-1.74,1.32-7.49c.32-1.83,2.46-1.6,3.11-1.48l6.7,1.18,1.81-10.24-6.7-1.18c-7.42-1.31-13.93,2.95-15.16,9.92l-1.32,7.49-8.27-1.46-1.81,10.24,8.27,1.46-4.18,23.64,10.24,1.81,4.18-23.64,8.27,1.46,3.39-9.97Z"/>
      </g>
      <g class="cls-22">
        <g id="Group_7943" data-name="Group 7943">
          <path id="Path_11123" data-name="Path 11123" class="cls-3" d="M30.17,343.32l-3.15-44.94,30.83,20.42-27.68,24.52Z"/>
        </g>
      </g>
      <g class="cls-13">
        <g id="Group_7944" data-name="Group 7944">
          <path id="Path_11125" data-name="Path 11125" class="cls-20" d="M27.02,298.38l30.83,20.42,11.31-11.39,40.83-9.64-1.7-24.2-82.61,5.79,1.33,19.01Z"/>
        </g>
      </g>
      <g class="cls-15">
        <g id="Group_7945" data-name="Group 7945">
          <path id="Path_11127" data-name="Path 11127" class="cls-12" d="M30.17,343.32l48.84-43.37,13.72.77,15.56-27.15,5.82,82.96-82.61,5.79-1.33-19.01Z"/>
        </g>
      </g>
      <g class="cls-14">
        <g id="Group_7946" data-name="Group 7946">
          <path id="Path_11129" data-name="Path 11129" class="cls-7" d="M114.11,356.54l-56.26-37.74-7.25-4.71,59.02-21.5,4.49,63.95Z"/>
        </g>
      </g>
    </g>
  </g>
</svg>