<svg xmlns="http://www.w3.org/2000/svg" xmlns:xlink="http://www.w3.org/1999/xlink" width="67" height="67" viewBox="0 0 67 67">
  <defs>
    <clipPath id="clip-path">
      <rect id="Rectangle_7249" data-name="Rectangle 7249" width="36" height="35.999" fill="none"/>
    </clipPath>
  </defs>
  <g id="Group_12349" data-name="Group 12349" transform="translate(-755 -3508)">
    <rect id="Rectangle_7209" data-name="Rectangle 7209" width="67" height="67" rx="12" transform="translate(755 3508)" fill="#ffbb2a"/>
    <g id="Group_12518" data-name="Group 12518" transform="translate(771.011 3524.012)">
      <g id="Group_12517" data-name="Group 12517" clip-path="url(#clip-path)">
        <path id="Path_16322" data-name="Path 16322" d="M23.713.022a13.052,13.052,0,0,0-10.7,21.526L11.051,23.5a6.711,6.711,0,0,0-1.073-.229A3.064,3.064,0,0,0,8,23.974L.728,31.248A2.852,2.852,0,0,0,4.49,35.481L12.025,28a3.063,3.063,0,0,0,.708-1.975,6.714,6.714,0,0,0-.229-1.073l1.947-1.962A13.053,13.053,0,0,0,35.686,10.225,13.123,13.123,0,0,0,23.713.022M15.039,20.771a11.042,11.042,0,1,1,16.431-.684,4.6,4.6,0,0,1-.611.661c-.068.051-.036.012-.052-.042a6.054,6.054,0,0,0-5.669-4.643,27.007,27.007,0,0,0-5.54.156,6.081,6.081,0,0,0-4.559,4.552m1.892,1.593a4.018,4.018,0,0,1,3.733-4.279,38.39,38.39,0,0,1,4.568,0,4.009,4.009,0,0,1,3.72,4.237,9.841,9.841,0,0,1-1.419.794,11.2,11.2,0,0,1-10.6-.754M10.014,25.3a.838.838,0,0,1,.553,1.284L3.34,33.813a.823.823,0,0,1-1.131-1.178l7.18-7.18a.753.753,0,0,1,.626-.152" transform="translate(0 0)" fill="#161615"/>
        <path id="Path_16323" data-name="Path 16323" d="M102.9,65.264a4.023,4.023,0,1,0-1.56,6.623,4.044,4.044,0,0,0,1.56-6.623m-2.515.843c2.382.323,2.09,4.223-.547,3.984a2.011,2.011,0,1,1,.547-3.984" transform="translate(-77.091 -58.036)" fill="#161615"/>
      </g>
    </g>
  </g>
</svg>
