<svg width="42" height="43" viewBox="0 0 42 43" fill="none" xmlns="http://www.w3.org/2000/svg">
<rect y="0.0571289" width="42" height="42.0096" rx="8" fill="#2A7980"/>
<g filter="url(#filter0_d_416_3236)">
<path d="M21.0007 19.4903C20.6293 19.4955 20.2607 19.4247 19.9177 19.282C19.5747 19.1393 19.2646 18.9279 19.0065 18.6607C18.7393 18.4026 18.5279 18.0925 18.3852 17.7496C18.2425 17.4066 18.1717 17.0381 18.1769 16.6666C18.1716 16.2952 18.2425 15.9266 18.3852 15.5835C18.5278 15.2405 18.7393 14.9304 19.0065 14.6722C19.2646 14.4051 19.5747 14.1936 19.9177 14.051C20.2607 13.9083 20.6293 13.8374 21.0007 13.8427C21.3722 13.8374 21.7407 13.9083 22.0837 14.051C22.4267 14.1936 22.7368 14.4051 22.9949 14.6722C23.2621 14.9304 23.4736 15.2405 23.6163 15.5835C23.759 15.9266 23.8298 16.2952 23.8245 16.6666C23.8298 17.0381 23.7589 17.4066 23.6162 17.7496C23.4735 18.0925 23.2621 18.4026 22.9949 18.6607C22.7368 18.9279 22.4267 19.1393 22.0837 19.282C21.7407 19.4247 21.3722 19.4955 21.0007 19.4903ZM27.0836 32.9028V30.7851H22.0598V25.9467C23.2297 25.7194 24.3228 25.199 25.2367 24.4342C26.1467 23.6806 26.8261 22.686 27.1971 21.5642C28.7777 21.395 30.2431 20.6579 31.3213 19.4899C32.4199 18.3561 33.0243 16.8331 33.0022 15.2545V13.8427C33.0053 13.5645 32.9516 13.2887 32.8441 13.0321C32.7367 12.7755 32.5779 12.5436 32.3774 12.3507C32.1845 12.1503 31.9526 11.9914 31.696 11.884C31.4394 11.7766 31.1635 11.7228 30.8853 11.726H27.5999V8.90137H14.4029V11.725H11.1174C10.8393 11.7218 10.5634 11.7756 10.3068 11.883C10.0502 11.9904 9.81825 12.1493 9.62532 12.3497C9.42489 12.5426 9.26606 12.7745 9.15862 13.0311C9.05118 13.2877 8.9974 13.5636 9.00059 13.8417V15.2535C8.97846 16.8321 9.58288 18.3551 10.6814 19.489C11.7596 20.6569 13.2251 21.394 14.8057 21.5633C15.1766 22.685 15.856 23.6796 16.766 24.4332C17.68 25.198 18.7731 25.7184 19.9429 25.9457V30.7841H14.9178V32.9028H27.0836ZM27.5992 19.291V13.8443H30.8846V15.2562C30.8978 16.2041 30.5691 17.1251 29.9587 17.8506C29.3586 18.5849 28.5266 19.0929 27.5992 19.291ZM14.4032 19.291C13.4758 19.0929 12.6435 18.5849 12.0434 17.8506C11.433 17.1251 11.1043 16.2041 11.1174 15.2562V13.8443H14.4029L14.4032 19.291Z" fill="white"/>
</g>
<defs>
<filter id="filter0_d_416_3236" x="3" y="2.90137" width="36.002" height="36.0015" filterUnits="userSpaceOnUse" color-interpolation-filters="sRGB">
<feFlood flood-opacity="0" result="BackgroundImageFix"/>
<feColorMatrix in="SourceAlpha" type="matrix" values="0 0 0 0 0 0 0 0 0 0 0 0 0 0 0 0 0 0 127 0" result="hardAlpha"/>
<feOffset/>
<feGaussianBlur stdDeviation="3"/>
<feColorMatrix type="matrix" values="0 0 0 0 0 0 0 0 0 0 0 0 0 0 0 0 0 0 0.259 0"/>
<feBlend mode="normal" in2="BackgroundImageFix" result="effect1_dropShadow_416_3236"/>
<feBlend mode="normal" in="SourceGraphic" in2="effect1_dropShadow_416_3236" result="shape"/>
</filter>
</defs>
</svg>
