<svg width="67" height="68" viewBox="0 0 67 68" fill="none" xmlns="http://www.w3.org/2000/svg">
<g id="Group 12349">
<path id="Rectangle 7209" d="M55 0.84082H12C5.37258 0.84082 0 6.21307 0 12.8401V55.8374C0 62.4644 5.37258 67.8366 12 67.8366H55C61.6274 67.8366 67 62.4644 67 55.8374V12.8401C67 6.21307 61.6274 0.84082 55 0.84082Z" fill="#FFBB2A"/>
<g id="Group 13106">
<path id="frame_person_24dp_000000_FILL0_wght300_GRAD0_opsz24" d="M34.0701 34.7998C33.3831 34.8145 32.7005 34.6884 32.0641 34.4293C31.4278 34.1701 30.8512 33.7833 30.3701 33.2929C29.8795 32.8117 29.4927 32.2353 29.2336 31.599C28.9744 30.9627 28.8483 30.28 28.8631 29.5931C28.8522 28.9091 28.9801 28.23 29.2391 27.5969C29.4981 26.9637 29.8829 26.3896 30.3701 25.9093C30.8477 25.4126 31.4231 25.0201 32.0598 24.7566C32.6966 24.4932 33.3811 24.3644 34.0701 24.3784C34.7555 24.3688 35.4356 24.4998 36.0685 24.763C36.7014 25.0263 37.2737 25.4164 37.7501 25.9093C38.2431 26.386 38.6332 26.9586 38.8963 27.5918C39.1595 28.225 39.2901 28.9055 39.2801 29.5911C39.2942 30.28 39.1656 30.9644 38.9023 31.6011C38.639 32.2379 38.2467 32.8132 37.7501 33.2909C37.2704 33.7779 36.697 34.1627 36.0646 34.4221C35.4321 34.6814 34.7536 34.8099 34.0701 34.7998ZM34.0701 31.958C34.3813 31.9639 34.6905 31.9066 34.9789 31.7896C35.2673 31.6725 35.529 31.4981 35.7481 31.277C35.9734 31.0585 36.1511 30.7958 36.2701 30.5053C36.389 30.2148 36.4465 29.9029 36.4391 29.5891C36.4447 29.2771 36.3862 28.9672 36.2674 28.6786C36.1485 28.39 35.9718 28.1289 35.7481 27.9112C35.5291 27.6868 35.2664 27.5097 34.9762 27.3909C34.686 27.272 34.3746 27.2139 34.0611 27.2202C33.7488 27.2135 33.4386 27.2714 33.1498 27.3903C32.8611 27.5092 32.6 27.6866 32.3831 27.9112C32.1613 28.1317 31.9866 28.3949 31.8696 28.6849C31.7525 28.9748 31.6955 29.2855 31.7021 29.5981C31.6951 29.9095 31.7519 30.2189 31.869 30.5075C31.9861 30.7961 32.1611 31.0576 32.3831 31.276C32.6028 31.4988 32.8659 31.6743 33.156 31.7915C33.4461 31.9088 33.7572 31.9655 34.0701 31.958ZM23.1751 45.4391V42.3083C23.1736 41.7282 23.3265 41.158 23.6181 40.6564C23.9053 40.1487 24.3186 39.7237 24.8181 39.4225C26.2085 38.6 27.7032 37.9684 29.2621 37.5446C30.8292 37.1194 32.4462 36.9055 34.0701 36.9087C35.6912 36.9062 37.3055 37.1201 38.8701 37.5446C40.4289 37.9684 41.9237 38.6 43.3141 39.4225C43.8136 39.7237 44.2269 40.1487 44.5141 40.6564C44.8056 41.158 44.9585 41.7282 44.9571 42.3083V45.4341L23.1751 45.4391ZM34.0701 39.7545C32.7097 39.7551 31.3555 39.9388 30.0441 40.3005C28.6983 40.6708 27.4042 41.2082 26.1921 41.9003V42.6113H41.9481V41.8833C40.7418 41.1873 39.4499 40.6515 38.1051 40.2894C36.7894 39.9345 35.4327 39.7547 34.0701 39.7545ZM19.5011 52.9076C19.0484 52.9171 18.5987 52.8336 18.1795 52.6625C17.7604 52.4914 17.3808 52.2362 17.0641 51.9127C16.7406 51.596 16.4854 51.2164 16.3142 50.7973C16.1431 50.3782 16.0597 49.9285 16.0691 49.4759V42.4863H18.9111V49.4859C18.9126 49.5614 18.9296 49.6358 18.9609 49.7046C18.9922 49.7734 19.0372 49.8351 19.0931 49.8859C19.1439 49.9418 19.2056 49.9867 19.2743 50.018C19.3431 50.0493 19.4175 50.0662 19.4931 50.0678H26.4931V52.9076H19.5011ZM16.0701 27.3303V20.3407C16.0607 19.8881 16.1441 19.4384 16.3152 19.0193C16.4864 18.6002 16.7416 18.2205 17.0651 17.9039C17.3817 17.5803 17.7614 17.3251 18.1805 17.154C18.5997 16.9828 19.0494 16.8995 19.5021 16.9089H26.4921V19.7507H19.4921C19.4165 19.7523 19.3421 19.7692 19.2733 19.8005C19.2046 19.8318 19.1429 19.8768 19.0921 19.9327C19.0362 19.9835 18.9912 20.0452 18.9599 20.114C18.9286 20.1828 18.9116 20.2571 18.9101 20.3327V27.3322L16.0701 27.3303ZM41.6491 52.9076V50.0658H48.6491C48.7246 50.0643 48.799 50.0473 48.8678 50.016C48.9366 49.9848 48.9983 49.9398 49.0491 49.8839C49.105 49.833 49.15 49.7714 49.1813 49.7026C49.2126 49.6338 49.2295 49.5594 49.2311 49.4839V42.4843H52.0701V49.4738C52.0795 49.9264 51.996 50.3762 51.8249 50.7953C51.6538 51.2144 51.3986 51.594 51.0751 51.9107C50.7584 52.2342 50.3787 52.4894 49.9596 52.6605C49.5405 52.8317 49.0907 52.915 48.6381 52.9056L41.6491 52.9076ZM49.2281 27.3303V20.3307C49.2265 20.2552 49.2096 20.1807 49.1783 20.112C49.147 20.0432 49.102 19.9815 49.0461 19.9307C48.9953 19.8748 48.9336 19.8298 48.8648 19.7985C48.796 19.7672 48.7216 19.7503 48.6461 19.7487H41.6461V16.9099H48.6361C49.0887 16.9004 49.5385 16.9838 49.9576 17.1549C50.3768 17.3261 50.7564 17.5813 51.0731 17.9048C51.3966 18.2215 51.6518 18.6011 51.8229 19.0202C51.994 19.4394 52.0775 19.8891 52.0681 20.3417V27.3312L49.2281 27.3303Z" fill="black"/>
</g>
</g>
</svg>
