<svg width="42" height="42" viewBox="0 0 42 42" fill="none" xmlns="http://www.w3.org/2000/svg">
<rect width="42" height="42" rx="8" fill="#FFE8B7"/>
<path d="M23.0962 20.0964H29.9038V15.2886H23.0962V20.0964ZM26.5 18.9039L24.0193 17.1731V16.2309L26.5 17.9616L28.9807 16.2309V17.1731L26.5 18.9039ZM11.3077 29.3079C10.8026 29.3079 10.375 29.1329 10.025 28.7829C9.675 28.4329 9.5 28.0053 9.5 27.5001V14.5001C9.5 13.995 9.675 13.5674 10.025 13.2174C10.375 12.8674 10.8026 12.6924 11.3077 12.6924H30.6923C31.1974 12.6924 31.625 12.8674 31.975 13.2174C32.325 13.5674 32.5 13.995 32.5 14.5001V27.5001C32.5 28.0053 32.325 28.4329 31.975 28.7829C31.625 29.1329 31.1974 29.3079 30.6923 29.3079H11.3077ZM24.3422 27.8079H30.6923C30.7693 27.8079 30.8398 27.7758 30.9038 27.7116C30.9679 27.6475 31 27.577 31 27.5001V14.5001C31 14.4233 30.9679 14.3528 30.9038 14.2886C30.8398 14.2245 30.7693 14.1924 30.6923 14.1924H11.3077C11.2307 14.1924 11.1602 14.2245 11.0962 14.2886C11.0321 14.3528 11 14.4233 11 14.5001V27.5001C11 27.577 11.0321 27.6475 11.0962 27.7116C11.1602 27.7758 11.2307 27.8079 11.3077 27.8079H11.6577C12.3577 26.7309 13.2668 25.8783 14.3847 25.2501C15.5026 24.622 16.7077 24.3079 18 24.3079C19.2923 24.3079 20.4974 24.622 21.6152 25.2501C22.7332 25.8783 23.6423 26.7309 24.3422 27.8079ZM18 23.1156C18.7628 23.1156 19.4118 22.848 19.947 22.3126C20.4823 21.7775 20.75 21.1285 20.75 20.3656C20.75 19.6028 20.4823 18.9537 19.947 18.4184C19.4118 17.8832 18.7628 17.6156 18 17.6156C17.2372 17.6156 16.5882 17.8832 16.053 18.4184C15.5177 18.9537 15.25 19.6028 15.25 20.3656C15.25 21.1285 15.5177 21.7775 16.053 22.3126C16.5882 22.848 17.2372 23.1156 18 23.1156ZM13.55 27.8079H22.45C21.877 27.1745 21.2046 26.6829 20.4327 26.3329C19.6609 25.9829 18.85 25.8079 18 25.8079C17.15 25.8079 16.3417 25.9829 15.575 26.3329C14.8083 26.6829 14.1333 27.1745 13.55 27.8079ZM18 21.6156C17.6525 21.6156 17.3573 21.4941 17.1145 21.2511C16.8715 21.0081 16.75 20.713 16.75 20.3656C16.75 20.0181 16.8715 19.7229 17.1145 19.4799C17.3573 19.237 17.6525 19.1156 18 19.1156C18.3475 19.1156 18.6427 19.237 18.8855 19.4799C19.1285 19.7229 19.25 20.0181 19.25 20.3656C19.25 20.713 19.1285 21.0081 18.8855 21.2511C18.6427 21.4941 18.3475 21.6156 18 21.6156Z" fill="black"/>
</svg>
