<svg xmlns="http://www.w3.org/2000/svg" width="1507" height="980" viewBox="0 0 1507 980">
  <g id="Group_12381" data-name="Group 12381" transform="translate(-215 -10565)">
    <g id="Group_12364" data-name="Group 12364">
      <g id="Group_12364-2" data-name="Group 12364" opacity="0.496">
        <g id="Rectangle_7210" data-name="Rectangle 7210" transform="translate(1366 10565)" fill="none" stroke="#ffedc7" stroke-width="20">
          <rect width="356" height="356" rx="45" stroke="none"/>
          <rect x="10" y="10" width="336" height="336" rx="35" fill="none"/>
        </g>
        <g id="Rectangle_7211" data-name="Rectangle 7211" transform="translate(1188 10743)" fill="none" stroke="#ffedc7" stroke-width="20">
          <rect width="356" height="356" rx="45" stroke="none"/>
          <rect x="10" y="10" width="336" height="336" rx="35" fill="none"/>
        </g>
      </g>
      <g id="Group_12365" data-name="Group 12365" transform="translate(-735 290)" opacity="0.503">
        <g id="Rectangle_7210-2" data-name="Rectangle 7210" transform="translate(2318 11116)" fill="none" stroke="#ffedc7" stroke-width="14">
          <rect width="139" height="139" rx="32" stroke="none"/>
          <rect x="7" y="7" width="125" height="125" rx="25" fill="none"/>
        </g>
      </g>
    </g>
    <g id="Group_12665" data-name="Group 12665" transform="translate(215 10565)">
      <g id="Group_12364-3" data-name="Group 12364" transform="translate(0 446)" opacity="0.496">
        <g id="Rectangle_7210-3" data-name="Rectangle 7210" transform="translate(178 178)" fill="none" stroke="#ffedc7" stroke-width="20">
          <rect width="356" height="356" rx="45" stroke="none"/>
          <rect x="10" y="10" width="336" height="336" rx="35" fill="none"/>
        </g>
        <g id="Rectangle_7211-2" data-name="Rectangle 7211" fill="none" stroke="#ffedc7" stroke-width="20">
          <rect width="356" height="356" rx="45" stroke="none"/>
          <rect x="10" y="10" width="336" height="336" rx="35" fill="none"/>
        </g>
      </g>
      <g id="Group_12365-2" data-name="Group 12365" transform="translate(395)" opacity="0.503">
        <g id="Rectangle_7210-4" data-name="Rectangle 7210" fill="none" stroke="#ffedc7" stroke-width="14">
          <rect width="139" height="139" rx="32" stroke="none"/>
          <rect x="7" y="7" width="125" height="125" rx="25" fill="none"/>
        </g>
      </g>
    </g>
  </g>
</svg>
