<svg width="42" height="42" viewBox="0 0 42 42" fill="none" xmlns="http://www.w3.org/2000/svg">
<rect width="42" height="42" rx="8" fill="#EA4335"/>
<path d="M25.1947 30L23.7067 28.5327L28.944 23.4497H14.8779C13.2489 23.4497 11.8621 22.895 10.7174 21.7854C9.57247 20.6761 9 19.3227 9 17.725C9 16.1272 9.57247 14.7736 10.7174 13.6643C11.8621 12.5548 13.2489 12 14.8779 12H15.5566V14.0769H14.8779C13.8353 14.0769 12.948 14.4293 12.216 15.1341C11.4838 15.8388 11.1176 16.7025 11.1176 17.725C11.1176 18.7473 11.4838 19.6109 12.216 20.3157C12.948 21.0204 13.8353 21.3728 14.8779 21.3728H28.944L23.7067 16.2549L25.1947 14.8094L33 22.4113L25.1947 30Z" fill="white"/>
</svg>
