<svg width="42" height="42" viewBox="0 0 42 42" fill="none" xmlns="http://www.w3.org/2000/svg">
<rect width="42" height="42" rx="8" fill="#3771C8"/>
<path d="M29.4462 30.4999L26.7653 27.8286C26.4307 28.0325 26.077 28.1953 25.704 28.3171C25.331 28.439 24.9425 28.4999 24.5385 28.4999C23.4423 28.4999 22.508 28.1136 21.7355 27.3411C20.9632 26.5688 20.577 25.6345 20.577 24.5384C20.577 23.4422 20.9632 22.5079 21.7355 21.7354C22.508 20.963 23.4423 20.5769 24.5385 20.5769C25.6347 20.5769 26.5689 20.963 27.3413 21.7354C28.1138 22.5079 28.5 23.4422 28.5 24.5384C28.5 24.9397 28.4423 25.3291 28.327 25.7066C28.2115 26.0841 28.0423 26.437 27.8193 26.7651L30.5 29.4461L29.4462 30.4999ZM24.5363 26.9999C25.2249 26.9999 25.8077 26.7621 26.2845 26.2866C26.7615 25.8111 27 25.2291 27 24.5406C27 23.852 26.7622 23.2691 26.2867 22.7921C25.8112 22.3153 25.2292 22.0769 24.5408 22.0769C23.8521 22.0769 23.2692 22.3146 22.7923 22.7901C22.3154 23.2655 22.077 23.8475 22.077 24.5361C22.077 25.2248 22.3147 25.8075 22.7902 26.2844C23.2656 26.7614 23.8476 26.9999 24.5363 26.9999ZM29.5 19.3461H28V14.3076C28 14.2306 27.9679 14.1601 27.9038 14.0961C27.8398 14.032 27.7692 13.9999 27.6923 13.9999H25.5V16.6151H16.5V13.9999H14.3077C14.2307 13.9999 14.1603 14.032 14.0963 14.0961C14.0321 14.1601 14 14.2306 14 14.3076V27.6921C14 27.7691 14.0321 27.8396 14.0963 27.9036C14.1603 27.9678 14.2307 27.9999 14.3077 27.9999H19.25V29.4999H14.3077C13.8106 29.4999 13.385 29.3229 13.031 28.9689C12.677 28.6149 12.5 28.1893 12.5 27.6921V14.3076C12.5 13.8105 12.677 13.3849 13.031 13.0309C13.385 12.6769 13.8106 12.4999 14.3077 12.4999H18.7135C18.852 12.0127 19.135 11.6089 19.5625 11.2884C19.99 10.9679 20.4692 10.8076 21 10.8076C21.5513 10.8076 22.0382 10.9679 22.4605 11.2884C22.883 11.6089 23.1635 12.0127 23.302 12.4999H27.6923C28.1894 12.4999 28.615 12.6769 28.969 13.0309C29.323 13.3849 29.5 13.8105 29.5 14.3076V19.3461ZM21.0017 14.1154C21.2583 14.1154 21.4727 14.0285 21.6453 13.8549C21.8176 13.6814 21.9038 13.4663 21.9038 13.2096C21.9038 12.9531 21.817 12.7386 21.6435 12.5661C21.47 12.3938 21.2549 12.3076 20.9983 12.3076C20.7417 12.3076 20.5273 12.3944 20.3548 12.5679C20.1824 12.7415 20.0963 12.9566 20.0963 13.2131C20.0963 13.4696 20.183 13.6841 20.3565 13.8566C20.53 14.0291 20.7451 14.1154 21.0017 14.1154Z" fill="white"/>
</svg>
