<svg xmlns="http://www.w3.org/2000/svg" width="19.023" height="20.198" viewBox="0 0 19.023 20.198">
  <path id="mindfulness_24dp_000000_FILL0_wght300_GRAD0_opsz24" d="M148.238-848.041h1.595v-6.91h-1.595Zm3.189-1.594h1.595v-4.252h-1.595Zm-6.378-.532h1.595v-3.72h-1.595Zm-1.86,10.365v-4.285a10.015,10.015,0,0,1-2.352-3.167,8.659,8.659,0,0,1-.837-3.717,8.7,8.7,0,0,1,2.636-6.395,8.717,8.717,0,0,1,6.4-2.633,8.931,8.931,0,0,1,5.539,1.851,8.392,8.392,0,0,1,3.172,4.8l1.242,4.905a.905.905,0,0,1-.169.826.924.924,0,0,1-.769.371h-2.106v3.393a1.85,1.85,0,0,1-.564,1.357,1.85,1.85,0,0,1-1.357.564h-2.33v2.126H150.1v-3.721h3.925a.318.318,0,0,0,.235-.092.318.318,0,0,0,.092-.235v-4.988h2.87l-1.01-4.119A6.907,6.907,0,0,0,153.6-856.9a7.38,7.38,0,0,0-4.561-1.51,7.21,7.21,0,0,0-5.262,2.155,7.1,7.1,0,0,0-2.179,5.243,7.227,7.227,0,0,0,.651,3.025,7.958,7.958,0,0,0,1.847,2.547l.691.637v5ZM149.408-849.1Z" transform="translate(-140 860)"/>
</svg>
