<svg width="42" height="42" viewBox="0 0 42 42" fill="none" xmlns="http://www.w3.org/2000/svg">
<rect width="42" height="42" rx="8" fill="#34A853"/>
<path d="M15.0013 31.75C14.2376 31.75 13.5882 31.4827 13.053 30.9482C12.5177 30.4137 12.25 29.7647 12.25 29.0012C12.25 28.2376 12.5174 27.5882 13.0522 27.053C13.5869 26.5177 14.2362 26.25 15.0002 26.25C15.2143 26.25 15.4244 26.2766 15.6308 26.3298C15.8373 26.3831 16.0322 26.4546 16.2155 26.5443L18.198 24.077C17.7827 23.6243 17.4962 23.1179 17.3385 22.5577C17.1808 21.9974 17.1488 21.4339 17.2422 20.8673L14.3615 19.9135C14.1102 20.3173 13.7797 20.641 13.3703 20.8845C12.9608 21.1282 12.504 21.25 12 21.25C11.2362 21.25 10.5868 20.9827 10.052 20.4482C9.51733 19.9137 9.25 19.2647 9.25 18.5013C9.25 17.7376 9.51725 17.0882 10.0518 16.553C10.5862 16.0177 11.2352 15.75 11.9987 15.75C12.7624 15.75 13.4118 16.0173 13.947 16.552C14.4823 17.0868 14.75 17.7362 14.75 18.5C14.75 18.559 14.7484 18.6083 14.7453 18.648C14.7419 18.6878 14.7403 18.7276 14.7403 18.7673L17.6115 19.7655C17.8872 19.2552 18.2658 18.8173 18.7473 18.452C19.2286 18.0867 19.7808 17.8521 20.4038 17.7483V14.6788C19.7603 14.5276 19.2404 14.2022 18.8442 13.7027C18.4481 13.2034 18.25 12.6345 18.25 11.996C18.25 11.2358 18.5173 10.5882 19.0518 10.053C19.5863 9.51767 20.2353 9.25 20.9988 9.25C21.7624 9.25 22.4118 9.51733 22.947 10.052C23.4823 10.5868 23.75 11.2362 23.75 12C23.75 12.6358 23.5493 13.2034 23.148 13.7027C22.7468 14.2022 22.2296 14.5276 21.5963 14.6788V17.7483C22.2193 17.8521 22.7698 18.0867 23.248 18.452C23.7262 18.8173 24.1063 19.2552 24.3885 19.7655L27.2598 18.7673C27.2533 18.7211 27.25 18.6797 27.25 18.6432V18.5C27.25 17.7362 27.5173 17.0868 28.0518 16.552C28.5863 16.0173 29.2353 15.75 29.9988 15.75C30.7624 15.75 31.4118 16.0173 31.947 16.5518C32.4823 17.0863 32.75 17.7353 32.75 18.4988C32.75 19.2624 32.4827 19.9118 31.948 20.447C31.4132 20.9823 30.7638 21.25 30 21.25C29.498 21.25 29.0392 21.1282 28.6235 20.8845C28.2078 20.641 27.8795 20.3173 27.6385 19.9135L24.7578 20.8673C24.8513 21.4339 24.8192 21.9948 24.6615 22.55C24.5038 23.1052 24.2173 23.6109 23.802 24.0673L25.7845 26.5193C25.9678 26.4359 26.1628 26.3703 26.3693 26.3223C26.5756 26.2741 26.7857 26.25 26.9998 26.25C27.7638 26.25 28.4131 26.5173 28.9478 27.0518C29.4826 27.5863 29.75 28.2353 29.75 28.9988C29.75 29.7624 29.4827 30.4118 28.9482 30.947C28.4137 31.4823 27.7647 31.75 27.0012 31.75C26.2376 31.75 25.5882 31.4827 25.053 30.948C24.5177 30.4132 24.25 29.7638 24.25 29C24.25 28.6847 24.301 28.3812 24.403 28.0895C24.5048 27.7978 24.6571 27.5302 24.8598 27.2865L22.877 24.8C22.309 25.1385 21.6823 25.3078 20.997 25.3078C20.3118 25.3078 19.6821 25.1385 19.1077 24.8L17.1402 27.2865C17.3364 27.5302 17.4871 27.7978 17.5922 28.0895C17.6974 28.3812 17.75 28.6847 17.75 29C17.75 29.7638 17.4827 30.4132 16.9482 30.948C16.4138 31.4827 15.7648 31.75 15.0013 31.75ZM12 19.75C12.3475 19.75 12.6427 19.6285 12.8855 19.3855C13.1285 19.1427 13.25 18.8475 13.25 18.5C13.25 18.1525 13.1285 17.8573 12.8855 17.6145C12.6427 17.3715 12.3475 17.25 12 17.25C11.6525 17.25 11.3573 17.3715 11.1145 17.6145C10.8715 17.8573 10.75 18.1525 10.75 18.5C10.75 18.8475 10.8715 19.1427 11.1145 19.3855C11.3573 19.6285 11.6525 19.75 12 19.75ZM15 30.25C15.3475 30.25 15.6427 30.1285 15.8855 29.8855C16.1285 29.6427 16.25 29.3475 16.25 29C16.25 28.6525 16.1285 28.3573 15.8855 28.1145C15.6427 27.8715 15.3475 27.75 15 27.75C14.6525 27.75 14.3573 27.8715 14.1145 28.1145C13.8715 28.3573 13.75 28.6525 13.75 29C13.75 29.3475 13.8715 29.6427 14.1145 29.8855C14.3573 30.1285 14.6525 30.25 15 30.25ZM21 13.25C21.3475 13.25 21.6427 13.1285 21.8855 12.8855C22.1285 12.6427 22.25 12.3475 22.25 12C22.25 11.6525 22.1285 11.3573 21.8855 11.1145C21.6427 10.8715 21.3475 10.75 21 10.75C20.6525 10.75 20.3573 10.8715 20.1145 11.1145C19.8715 11.3573 19.75 11.6525 19.75 12C19.75 12.3475 19.8715 12.6427 20.1145 12.8855C20.3573 13.1285 20.6525 13.25 21 13.25ZM21 23.8077C21.6423 23.8077 22.1875 23.5837 22.6355 23.1355C23.0837 22.6875 23.3077 22.1423 23.3077 21.5C23.3077 20.8577 23.0837 20.3125 22.6355 19.8645C22.1875 19.4163 21.6423 19.1923 21 19.1923C20.3577 19.1923 19.8125 19.4163 19.3645 19.8645C18.9163 20.3125 18.6923 20.8577 18.6923 21.5C18.6923 22.1423 18.9163 22.6875 19.3645 23.1355C19.8125 23.5837 20.3577 23.8077 21 23.8077ZM27 30.25C27.3475 30.25 27.6427 30.1285 27.8855 29.8855C28.1285 29.6427 28.25 29.3475 28.25 29C28.25 28.6525 28.1285 28.3573 27.8855 28.1145C27.6427 27.8715 27.3475 27.75 27 27.75C26.6525 27.75 26.3573 27.8715 26.1145 28.1145C25.8715 28.3573 25.75 28.6525 25.75 29C25.75 29.3475 25.8715 29.6427 26.1145 29.8855C26.3573 30.1285 26.6525 30.25 27 30.25ZM30 19.75C30.3475 19.75 30.6427 19.6285 30.8855 19.3855C31.1285 19.1427 31.25 18.8475 31.25 18.5C31.25 18.1525 31.1285 17.8573 30.8855 17.6145C30.6427 17.3715 30.3475 17.25 30 17.25C29.6525 17.25 29.3573 17.3715 29.1145 17.6145C28.8715 17.8573 28.75 18.1525 28.75 18.5C28.75 18.8475 28.8715 19.1427 29.1145 19.3855C29.3573 19.6285 29.6525 19.75 30 19.75Z" fill="white"/>
</svg>
