<svg xmlns="http://www.w3.org/2000/svg" width="67" height="67" viewBox="0 0 67 67">
  <g id="Group_12346" data-name="Group 12346" transform="translate(-755 -3508)">
    <rect id="Rectangle_7209" data-name="Rectangle 7209" width="67" height="67" rx="12" transform="translate(755 3508)" fill="#ffbb2a"/>
    <g id="mindfulness_24dp_000000_FILL0_wght300_GRAD0_opsz24" transform="translate(772 3524)">
      <path id="mindfulness_24dp_000000_FILL0_wght300_GRAD0_opsz24-2" data-name="mindfulness_24dp_000000_FILL0_wght300_GRAD0_opsz24" d="M154.684-838.684h2.842V-851h-2.842Zm5.684-2.842h2.842v-7.579h-2.842ZM149-842.474h2.842v-6.632H149ZM145.684-824v-7.637a17.85,17.85,0,0,1-4.192-5.646A15.435,15.435,0,0,1,140-843.908a15.511,15.511,0,0,1,4.7-11.4A15.537,15.537,0,0,1,156.105-860a15.917,15.917,0,0,1,9.873,3.3,14.958,14.958,0,0,1,5.653,8.561l2.214,8.743a1.613,1.613,0,0,1-.3,1.472,1.647,1.647,0,0,1-1.37.661h-3.753v6.048a3.3,3.3,0,0,1-1.006,2.419A3.3,3.3,0,0,1,165-827.789h-4.154V-824H158v-6.632h7a.567.567,0,0,0,.419-.164.568.568,0,0,0,.164-.419v-8.891h5.116l-1.8-7.342a12.312,12.312,0,0,0-4.66-7.02,13.156,13.156,0,0,0-8.129-2.691,12.85,12.85,0,0,0-9.379,3.842,12.65,12.65,0,0,0-3.884,9.344A12.882,12.882,0,0,0,144-838.58a14.187,14.187,0,0,0,3.292,4.54l1.232,1.135V-824ZM156.768-840.579Z" transform="translate(-140 860)"/>
    </g>
  </g>
</svg>
