<svg width="20" height="21" viewBox="0 0 20 21" fill="none" xmlns="http://www.w3.org/2000/svg">
<path d="M8.23793 11.9589H9.83291V5.04894H8.23793V11.9589ZM11.4269 10.3649H13.0219V6.11291H11.4269V10.3649ZM5.04892 9.83294H6.64392V6.11291H5.04892V9.83294ZM3.18892 20.1979V15.913C2.2027 15.0237 1.40321 13.9471 0.836926 12.7459C0.285417 11.5844 -0.000509012 10.3147 -7.97043e-05 9.02892C-0.0213077 7.83939 0.201662 6.65816 0.655056 5.55822C1.10845 4.45827 1.78263 3.46297 2.63592 2.6339C3.46643 1.78135 4.46273 1.10792 5.56343 0.655082C6.66413 0.202248 7.8459 -0.0203877 9.03592 0.000907126C11.0375 -0.0202557 12.9882 0.631626 14.5749 1.85192C16.1648 3.02817 17.2882 4.72813 17.7469 6.65191L18.9889 11.5569C19.0299 11.698 19.0359 11.8469 19.0065 11.9908C18.977 12.1347 18.913 12.2693 18.8199 12.3829C18.731 12.5021 18.6147 12.598 18.4808 12.6626C18.347 12.7272 18.1995 12.7585 18.0509 12.754H15.9449V16.1469C15.9486 16.3996 15.9004 16.6505 15.8034 16.8838C15.7064 17.1172 15.5626 17.3283 15.3809 17.504C15.2052 17.6857 14.9942 17.8294 14.7608 17.9264C14.5274 18.0234 14.2766 18.0716 14.0239 18.0679H11.6939V20.1939H10.0999V16.473H14.0249C14.0683 16.4745 14.1115 16.467 14.1519 16.4512C14.1924 16.4354 14.2291 16.4115 14.2599 16.3809C14.2905 16.3501 14.3144 16.3134 14.3302 16.2729C14.346 16.2325 14.3534 16.1893 14.3519 16.1459V11.158H17.2219L16.2119 7.03893C15.8316 5.45963 14.9067 4.06489 13.5999 3.09991C12.2906 2.10193 10.6851 1.57047 9.03892 1.58996C8.06155 1.5737 7.09109 1.7563 6.1865 2.12676C5.28192 2.49722 4.46211 3.04778 3.77691 3.74493C3.07253 4.42191 2.51545 5.237 2.14051 6.13915C1.76558 7.04131 1.58087 8.01109 1.59793 8.98791C1.59399 10.0314 1.81607 11.0634 2.24891 12.0129C2.68895 12.9764 3.31688 13.8423 4.09591 14.5599L4.78692 15.197V20.197L3.18892 20.1979Z" fill="black"/>
</svg>
