<svg width="63" height="63" viewBox="0 0 63 63" fill="none" xmlns="http://www.w3.org/2000/svg">
<g id="Group 13115">
<g id="Group" filter="url(#filter0_d_115_295)">
<path id="Path 15193" d="M41.7362 44.7398H21.1054C20.7197 44.7399 20.3377 44.6627 19.9814 44.5126C19.625 44.3625 19.3012 44.1424 19.0285 43.865C18.7557 43.5875 18.5394 43.2582 18.3918 42.8957C18.2443 42.5331 18.1684 42.1446 18.1685 41.7523V20.7659C18.1684 20.3735 18.2443 19.985 18.3918 19.6225C18.5394 19.26 18.7557 18.9306 19.0285 18.6532C19.3012 18.3757 19.625 18.1557 19.9814 18.0056C20.3377 17.8554 20.7197 17.7782 21.1054 17.7783H41.7362C42.122 17.7782 42.5039 17.8554 42.8603 18.0056C43.2166 18.1557 43.5404 18.3757 43.8132 18.6532C44.0859 18.9306 44.3022 19.26 44.4498 19.6225C44.5974 19.985 44.6733 20.3735 44.6732 20.7659V41.7523C44.6733 42.1446 44.5974 42.5331 44.4498 42.8957C44.3022 43.2582 44.0859 43.5875 43.8132 43.865C43.5404 44.1424 43.2166 44.3625 42.8603 44.5126C42.5039 44.6627 42.122 44.7399 41.7362 44.7398Z" fill="#161615"/>
</g>
<path id="Path 15194" d="M35.6111 37.9366H32.9897C32.7326 37.9482 32.4786 37.8759 32.2647 37.7304C32.0807 37.5993 31.9425 37.4121 31.8702 37.1957L31.0094 34.6116H25.4693L24.6065 37.193C24.5283 37.3991 24.3929 37.5777 24.2167 37.707C24.0118 37.863 23.7611 37.9439 23.5053 37.9366H20.8643L26.5077 23.1074H29.9683L35.6111 37.9366ZM26.2483 32.2673H30.2298L28.888 28.2035C28.801 27.9465 28.6995 27.6427 28.5833 27.2922C28.4657 26.9437 28.3515 26.5658 28.2373 26.1582C28.1306 26.5706 28.0211 26.9561 27.907 27.308C27.7928 27.6599 27.6874 27.9664 27.5874 28.2234L26.2483 32.2673Z" fill="#FFF9EE"/>
<path id="Rectangle 5831" d="M40.4924 23.1104H37.0913V37.9381H40.4924V23.1104Z" fill="#FFF9EE"/>
<g id="Group_2" filter="url(#filter1_d_115_295)">
<path id="Rectangle 5832" d="M43.0586 13.001H19.5876C15.7684 13.001 12.6724 16.078 12.6724 19.8736V43.2002C12.6724 46.9958 15.7684 50.0728 19.5876 50.0728H43.0586C46.8778 50.0728 49.9739 46.9958 49.9739 43.2002V19.8736C49.9739 16.078 46.8778 13.001 43.0586 13.001Z" stroke="#161615" stroke-width="4" stroke-miterlimit="10"/>
</g>
<g id="Group 12972">
<g id="Group_3" filter="url(#filter2_d_115_295)">
<path id="Rectangle 5836" d="M23.1849 51.7583H20.4473V57.0001H23.1849V51.7583Z" fill="#161615"/>
</g>
<g id="Group_4" filter="url(#filter3_d_115_295)">
<path id="Rectangle 5837" d="M32.245 51.7583H29.5073V57.0001H32.245V51.7583Z" fill="#161615"/>
</g>
<g id="Group_5" filter="url(#filter4_d_115_295)">
<path id="Rectangle 5838" d="M41.305 51.7583H38.5674V57.0001H41.305V51.7583Z" fill="#161615"/>
</g>
</g>
<g id="Group 12973">
<g id="Group_6" filter="url(#filter5_d_115_295)">
<path id="Rectangle 5836_2" d="M23.1849 6.39746H20.4473V11.6392H23.1849V6.39746Z" fill="#161615"/>
</g>
<g id="Group_7" filter="url(#filter6_d_115_295)">
<path id="Rectangle 5837_2" d="M32.245 6.39746H29.5073V11.6392H32.245V6.39746Z" fill="#161615"/>
</g>
<g id="Group_8" filter="url(#filter7_d_115_295)">
<path id="Rectangle 5838_2" d="M41.305 6.39746H38.5674V11.6392H41.305V6.39746Z" fill="#161615"/>
</g>
</g>
<g id="Group 12974">
<g id="Group_9" filter="url(#filter8_d_115_295)">
<path id="Rectangle 5836_3" d="M11.1528 23.7077V20.9229H5.99985V23.7077H11.1528Z" fill="#161615"/>
</g>
<g id="Group_10" filter="url(#filter9_d_115_295)">
<path id="Rectangle 5837_3" d="M11.1528 32.924V30.1392H5.99985V32.924H11.1528Z" fill="#161615"/>
</g>
<g id="Group_11" filter="url(#filter10_d_115_295)">
<path id="Rectangle 5838_3" d="M11.1528 42.1408V39.356H5.99985V42.1408H11.1528Z" fill="#161615"/>
</g>
</g>
<g id="Group 12975">
<g id="Group_12" filter="url(#filter11_d_115_295)">
<path id="Rectangle 5836_4" d="M56.6021 23.7077V20.9229H51.4491V23.7077H56.6021Z" fill="#161615"/>
</g>
<g id="Group_13" filter="url(#filter12_d_115_295)">
<path id="Rectangle 5837_4" d="M56.6016 32.924V30.1392H51.4486V32.924H56.6016Z" fill="#161615"/>
</g>
<g id="Group_14" filter="url(#filter13_d_115_295)">
<path id="Rectangle 5838_4" d="M56.6016 42.1408V39.356H51.4486V42.1408H56.6016Z" fill="#161615"/>
</g>
</g>
</g>
<defs>
<filter id="filter0_d_115_295" x="12.1685" y="11.7783" width="38.5049" height="38.9614" filterUnits="userSpaceOnUse" color-interpolation-filters="sRGB">
<feFlood flood-opacity="0" result="BackgroundImageFix"/>
<feColorMatrix in="SourceAlpha" type="matrix" values="0 0 0 0 0 0 0 0 0 0 0 0 0 0 0 0 0 0 127 0" result="hardAlpha"/>
<feOffset/>
<feGaussianBlur stdDeviation="3"/>
<feColorMatrix type="matrix" values="0 0 0 0 0 0 0 0 0 0 0 0 0 0 0 0 0 0 0.259 0"/>
<feBlend mode="normal" in2="BackgroundImageFix" result="effect1_dropShadow_115_295"/>
<feBlend mode="normal" in="SourceGraphic" in2="effect1_dropShadow_115_295" result="shape"/>
</filter>
<filter id="filter1_d_115_295" x="4.67236" y="5.00098" width="53.3013" height="53.0718" filterUnits="userSpaceOnUse" color-interpolation-filters="sRGB">
<feFlood flood-opacity="0" result="BackgroundImageFix"/>
<feColorMatrix in="SourceAlpha" type="matrix" values="0 0 0 0 0 0 0 0 0 0 0 0 0 0 0 0 0 0 127 0" result="hardAlpha"/>
<feOffset/>
<feGaussianBlur stdDeviation="3"/>
<feColorMatrix type="matrix" values="0 0 0 0 0 0 0 0 0 0 0 0 0 0 0 0 0 0 0.259 0"/>
<feBlend mode="normal" in2="BackgroundImageFix" result="effect1_dropShadow_115_295"/>
<feBlend mode="normal" in="SourceGraphic" in2="effect1_dropShadow_115_295" result="shape"/>
</filter>
<filter id="filter2_d_115_295" x="14.4473" y="45.7583" width="14.7378" height="17.2417" filterUnits="userSpaceOnUse" color-interpolation-filters="sRGB">
<feFlood flood-opacity="0" result="BackgroundImageFix"/>
<feColorMatrix in="SourceAlpha" type="matrix" values="0 0 0 0 0 0 0 0 0 0 0 0 0 0 0 0 0 0 127 0" result="hardAlpha"/>
<feOffset/>
<feGaussianBlur stdDeviation="3"/>
<feColorMatrix type="matrix" values="0 0 0 0 0 0 0 0 0 0 0 0 0 0 0 0 0 0 0.259 0"/>
<feBlend mode="normal" in2="BackgroundImageFix" result="effect1_dropShadow_115_295"/>
<feBlend mode="normal" in="SourceGraphic" in2="effect1_dropShadow_115_295" result="shape"/>
</filter>
<filter id="filter3_d_115_295" x="23.5073" y="45.7583" width="14.7378" height="17.2417" filterUnits="userSpaceOnUse" color-interpolation-filters="sRGB">
<feFlood flood-opacity="0" result="BackgroundImageFix"/>
<feColorMatrix in="SourceAlpha" type="matrix" values="0 0 0 0 0 0 0 0 0 0 0 0 0 0 0 0 0 0 127 0" result="hardAlpha"/>
<feOffset/>
<feGaussianBlur stdDeviation="3"/>
<feColorMatrix type="matrix" values="0 0 0 0 0 0 0 0 0 0 0 0 0 0 0 0 0 0 0.259 0"/>
<feBlend mode="normal" in2="BackgroundImageFix" result="effect1_dropShadow_115_295"/>
<feBlend mode="normal" in="SourceGraphic" in2="effect1_dropShadow_115_295" result="shape"/>
</filter>
<filter id="filter4_d_115_295" x="32.5674" y="45.7583" width="14.7378" height="17.2417" filterUnits="userSpaceOnUse" color-interpolation-filters="sRGB">
<feFlood flood-opacity="0" result="BackgroundImageFix"/>
<feColorMatrix in="SourceAlpha" type="matrix" values="0 0 0 0 0 0 0 0 0 0 0 0 0 0 0 0 0 0 127 0" result="hardAlpha"/>
<feOffset/>
<feGaussianBlur stdDeviation="3"/>
<feColorMatrix type="matrix" values="0 0 0 0 0 0 0 0 0 0 0 0 0 0 0 0 0 0 0.259 0"/>
<feBlend mode="normal" in2="BackgroundImageFix" result="effect1_dropShadow_115_295"/>
<feBlend mode="normal" in="SourceGraphic" in2="effect1_dropShadow_115_295" result="shape"/>
</filter>
<filter id="filter5_d_115_295" x="14.4473" y="0.397461" width="14.7378" height="17.2417" filterUnits="userSpaceOnUse" color-interpolation-filters="sRGB">
<feFlood flood-opacity="0" result="BackgroundImageFix"/>
<feColorMatrix in="SourceAlpha" type="matrix" values="0 0 0 0 0 0 0 0 0 0 0 0 0 0 0 0 0 0 127 0" result="hardAlpha"/>
<feOffset/>
<feGaussianBlur stdDeviation="3"/>
<feColorMatrix type="matrix" values="0 0 0 0 0 0 0 0 0 0 0 0 0 0 0 0 0 0 0.259 0"/>
<feBlend mode="normal" in2="BackgroundImageFix" result="effect1_dropShadow_115_295"/>
<feBlend mode="normal" in="SourceGraphic" in2="effect1_dropShadow_115_295" result="shape"/>
</filter>
<filter id="filter6_d_115_295" x="23.5073" y="0.397461" width="14.7378" height="17.2417" filterUnits="userSpaceOnUse" color-interpolation-filters="sRGB">
<feFlood flood-opacity="0" result="BackgroundImageFix"/>
<feColorMatrix in="SourceAlpha" type="matrix" values="0 0 0 0 0 0 0 0 0 0 0 0 0 0 0 0 0 0 127 0" result="hardAlpha"/>
<feOffset/>
<feGaussianBlur stdDeviation="3"/>
<feColorMatrix type="matrix" values="0 0 0 0 0 0 0 0 0 0 0 0 0 0 0 0 0 0 0.259 0"/>
<feBlend mode="normal" in2="BackgroundImageFix" result="effect1_dropShadow_115_295"/>
<feBlend mode="normal" in="SourceGraphic" in2="effect1_dropShadow_115_295" result="shape"/>
</filter>
<filter id="filter7_d_115_295" x="32.5674" y="0.397461" width="14.7378" height="17.2417" filterUnits="userSpaceOnUse" color-interpolation-filters="sRGB">
<feFlood flood-opacity="0" result="BackgroundImageFix"/>
<feColorMatrix in="SourceAlpha" type="matrix" values="0 0 0 0 0 0 0 0 0 0 0 0 0 0 0 0 0 0 127 0" result="hardAlpha"/>
<feOffset/>
<feGaussianBlur stdDeviation="3"/>
<feColorMatrix type="matrix" values="0 0 0 0 0 0 0 0 0 0 0 0 0 0 0 0 0 0 0.259 0"/>
<feBlend mode="normal" in2="BackgroundImageFix" result="effect1_dropShadow_115_295"/>
<feBlend mode="normal" in="SourceGraphic" in2="effect1_dropShadow_115_295" result="shape"/>
</filter>
<filter id="filter8_d_115_295" x="0" y="14.9229" width="17.1528" height="14.7847" filterUnits="userSpaceOnUse" color-interpolation-filters="sRGB">
<feFlood flood-opacity="0" result="BackgroundImageFix"/>
<feColorMatrix in="SourceAlpha" type="matrix" values="0 0 0 0 0 0 0 0 0 0 0 0 0 0 0 0 0 0 127 0" result="hardAlpha"/>
<feOffset/>
<feGaussianBlur stdDeviation="3"/>
<feColorMatrix type="matrix" values="0 0 0 0 0 0 0 0 0 0 0 0 0 0 0 0 0 0 0.259 0"/>
<feBlend mode="normal" in2="BackgroundImageFix" result="effect1_dropShadow_115_295"/>
<feBlend mode="normal" in="SourceGraphic" in2="effect1_dropShadow_115_295" result="shape"/>
</filter>
<filter id="filter9_d_115_295" x="0" y="24.1392" width="17.1528" height="14.7847" filterUnits="userSpaceOnUse" color-interpolation-filters="sRGB">
<feFlood flood-opacity="0" result="BackgroundImageFix"/>
<feColorMatrix in="SourceAlpha" type="matrix" values="0 0 0 0 0 0 0 0 0 0 0 0 0 0 0 0 0 0 127 0" result="hardAlpha"/>
<feOffset/>
<feGaussianBlur stdDeviation="3"/>
<feColorMatrix type="matrix" values="0 0 0 0 0 0 0 0 0 0 0 0 0 0 0 0 0 0 0.259 0"/>
<feBlend mode="normal" in2="BackgroundImageFix" result="effect1_dropShadow_115_295"/>
<feBlend mode="normal" in="SourceGraphic" in2="effect1_dropShadow_115_295" result="shape"/>
</filter>
<filter id="filter10_d_115_295" x="0" y="33.356" width="17.1528" height="14.7847" filterUnits="userSpaceOnUse" color-interpolation-filters="sRGB">
<feFlood flood-opacity="0" result="BackgroundImageFix"/>
<feColorMatrix in="SourceAlpha" type="matrix" values="0 0 0 0 0 0 0 0 0 0 0 0 0 0 0 0 0 0 127 0" result="hardAlpha"/>
<feOffset/>
<feGaussianBlur stdDeviation="3"/>
<feColorMatrix type="matrix" values="0 0 0 0 0 0 0 0 0 0 0 0 0 0 0 0 0 0 0.259 0"/>
<feBlend mode="normal" in2="BackgroundImageFix" result="effect1_dropShadow_115_295"/>
<feBlend mode="normal" in="SourceGraphic" in2="effect1_dropShadow_115_295" result="shape"/>
</filter>
<filter id="filter11_d_115_295" x="45.4492" y="14.9229" width="17.1528" height="14.7847" filterUnits="userSpaceOnUse" color-interpolation-filters="sRGB">
<feFlood flood-opacity="0" result="BackgroundImageFix"/>
<feColorMatrix in="SourceAlpha" type="matrix" values="0 0 0 0 0 0 0 0 0 0 0 0 0 0 0 0 0 0 127 0" result="hardAlpha"/>
<feOffset/>
<feGaussianBlur stdDeviation="3"/>
<feColorMatrix type="matrix" values="0 0 0 0 0 0 0 0 0 0 0 0 0 0 0 0 0 0 0.259 0"/>
<feBlend mode="normal" in2="BackgroundImageFix" result="effect1_dropShadow_115_295"/>
<feBlend mode="normal" in="SourceGraphic" in2="effect1_dropShadow_115_295" result="shape"/>
</filter>
<filter id="filter12_d_115_295" x="45.4487" y="24.1392" width="17.1528" height="14.7847" filterUnits="userSpaceOnUse" color-interpolation-filters="sRGB">
<feFlood flood-opacity="0" result="BackgroundImageFix"/>
<feColorMatrix in="SourceAlpha" type="matrix" values="0 0 0 0 0 0 0 0 0 0 0 0 0 0 0 0 0 0 127 0" result="hardAlpha"/>
<feOffset/>
<feGaussianBlur stdDeviation="3"/>
<feColorMatrix type="matrix" values="0 0 0 0 0 0 0 0 0 0 0 0 0 0 0 0 0 0 0.259 0"/>
<feBlend mode="normal" in2="BackgroundImageFix" result="effect1_dropShadow_115_295"/>
<feBlend mode="normal" in="SourceGraphic" in2="effect1_dropShadow_115_295" result="shape"/>
</filter>
<filter id="filter13_d_115_295" x="45.4487" y="33.356" width="17.1528" height="14.7847" filterUnits="userSpaceOnUse" color-interpolation-filters="sRGB">
<feFlood flood-opacity="0" result="BackgroundImageFix"/>
<feColorMatrix in="SourceAlpha" type="matrix" values="0 0 0 0 0 0 0 0 0 0 0 0 0 0 0 0 0 0 127 0" result="hardAlpha"/>
<feOffset/>
<feGaussianBlur stdDeviation="3"/>
<feColorMatrix type="matrix" values="0 0 0 0 0 0 0 0 0 0 0 0 0 0 0 0 0 0 0.259 0"/>
<feBlend mode="normal" in2="BackgroundImageFix" result="effect1_dropShadow_115_295"/>
<feBlend mode="normal" in="SourceGraphic" in2="effect1_dropShadow_115_295" result="shape"/>
</filter>
</defs>
</svg>
