<svg xmlns="http://www.w3.org/2000/svg" xmlns:xlink="http://www.w3.org/1999/xlink" width="545.312" height="551.354" viewBox="0 0 545.312 551.354">
  <defs>
    <clipPath id="clip-path">
      <path id="Path_14807" data-name="Path 14807" d="M1365.136,122.311s-5.082,1.7-9.847,9.826a49.871,49.871,0,0,0-7.045,23.781c-.6,9.911,1.016,7.412,1.539,16.63.458,8.047,2.322,13.186,6.3,20.252s12.875,23.259,26.668,19.87a43.787,43.787,0,0,0,8.633-2.943c.085-.049.635,17.294.283,17.668-8.5,8.986-12.9,11.471-24.487,11.576a83.712,83.712,0,0,1-18.41-2.139s-12.833-7.631-15-26.576c-2.725-23.88,14.365-30.226,12.684-40.313s-12.077-17.125-12.466-30.522c-.452-15.692,8.217-24.113,20.767-27.388a42.463,42.463,0,0,1,11.146-1.256s5.986-10.793,30.741-7.228c28.934,4.165,39.12,20.435,41.414,31.369,3.289,15.734,5.548,51.847,22.99,68.237,29.985,28.186,16.32,71.936-11.986,72.931-9.819.346-30.551-44.626-32.414-55.376-1.878-10.814-2.344-41.59-2.344-41.59a22.646,22.646,0,0,0,6.663-6.289c1.963-2.838,4.01-8.478,1.7-11.464-2.69-3.473-7.01-2.746-9.84.579a19.937,19.937,0,0,0-3.028,5.774,29.336,29.336,0,0,1-2.308-3.544,30.6,30.6,0,0,0-5.513-7.052c-7.694-6.981-15.43-8.273-24.8-16.941-11-10.186-12.049-17.866-12.049-17.866Z" transform="translate(-1333.473 -102.827)" fill="none"/>
    </clipPath>
  </defs>
  <g id="Group_13021" data-name="Group 13021" transform="translate(0.525 -5.364)">
    <path id="Path_19023" data-name="Path 19023" d="M.727,25.465S26.082,41.977,36.913,50.288a59.983,59.983,0,0,1,14.06,16.669c2.612,5.024,15.11,13.309,15.11,13.309L64.148,70.64a49.278,49.278,0,0,1,16.959-.433c2.842.47,8.273,2.863,10.8,3.637,2.416.741,6.262,2.395,8.152,2.226,2.668-.236,2.128-2.413,2.128-2.413s-4.071-2.846-7.171-4.9-5.776-3.924-9.174-5.073S81.888,52.768,81.85,51.969,80.379,44.2,80.379,44.2s-11.827-2.541-15.834-2.9c-5.237-.465-6.134.277-12.09-5.284C48.176,32.019,18.25.529,18.25.529S3.227,5.735,1.986,11.647A81.248,81.248,0,0,0,.727,25.473Z" transform="matrix(0.788, 0.616, -0.616, 0.788, 464.552, 323.952)" fill="#f5cfc1" fill-rule="evenodd"/>
    <path id="Path_19024" data-name="Path 19024" d="M.008.008S12.863,4.576,15.958,6.462s8.422,5,11.178,7.091c.511.387,1.755,1.251,2.143,1.471.687.385-.713,3.057-3.507,2.492-2.076-.418-7.254-3.43-9.558-4.376S5.77,10.4,5.77,10.4L0,0Z" transform="matrix(0.788, 0.616, -0.616, 0.788, 492.806, 414.55)" fill="#f5cfc1" fill-rule="evenodd"/>
    <path id="Path_19025" data-name="Path 19025" d="M1.978.057S12.542,3.136,15.214,3.832c2.213.578,7.024,3.617,10.063,5.337,3.293,1.854,4.8,3.262,4.755,3.67-.09.705-1.439,2.612-4.278,1.724a64.907,64.907,0,0,1-7.432-3.234C14.487,9.5.158,5.527.158,5.527" transform="matrix(0.788, 0.616, -0.616, 0.788, 494.139, 408.619)" fill="#f5cfc1" fill-rule="evenodd"/>
    <path id="Path_19026" data-name="Path 19026" d="M.978.028S11.81,1.169,14.534,1.375c2.253.17,7.472,2.326,10.738,3.478C28.8,6.1,30.527,7.219,30.546,7.637c.035.716-.94,2.857-3.859,2.5a63.311,63.311,0,0,1-7.8-1.866C14.824,7.144.165,5.8.165,5.8" transform="matrix(0.788, 0.616, -0.616, 0.788, 493.051, 399.928)" fill="#f5cfc1" fill-rule="evenodd"/>
    <path id="Path_18903" data-name="Path 18903" d="M216.409,405.541l11.853-83.919L253.834,338.5l-16.64,71.129a22.234,22.234,0,0,1,3.154,16.9c-2.182,11.1-11.4,18.628-20.578,16.823s-14.859-12.265-12.678-23.362a22.235,22.235,0,0,1,9.317-14.445h0Z" transform="translate(37.569 -0.001)" fill="#e09093"/>
    <path id="Path_18904" data-name="Path 18904" d="M107.812,112.283l55.807,8.207v14.883s47.6-8.317,54.166,32.717V269.856l22.979,101.766-29.545,6.566L174.288,269.856l-14.18,13.432H86.246L68.53,269.856,45.44,361.774,10.97,348.643l17.864-85.352s-8.015-106.69,29.737-123.1S96.323,128.7,96.323,128.7l11.49-16.414Z" transform="translate(246.292 0)" fill="#ffba2a"/>
    <path id="Path_18905" data-name="Path 18905" d="M163.876,282.988l6.566,18.055s49.242,47.6,39.393,170.7L48.979,466.823S26,335.512,80.165,297.76l9.861-14.772h73.849Z" transform="translate(242.753 0)" fill="#0a1761"/>
    <path id="Path_18907" data-name="Path 18907" d="M261.383,555.827,490.5,492.906a10.246,10.246,0,0,0,7.159-12.579L384.77,69.247a10.246,10.246,0,0,0-12.579-7.159L143.072,125.009a10.246,10.246,0,0,0-7.159,12.579L248.8,548.668a10.246,10.246,0,0,0,12.579,7.159Z" transform="translate(-135.546 0)" fill="#fff"/>
    <path id="Path_18908" data-name="Path 18908" d="M261.383,555.827,490.5,492.906a10.246,10.246,0,0,0,7.159-12.579L384.77,69.247a10.246,10.246,0,0,0-12.579-7.159L143.072,125.009a10.246,10.246,0,0,0-7.159,12.579L248.8,548.668a10.246,10.246,0,0,0,12.579,7.159Z" transform="translate(-135.546 0)" fill="none" stroke="#2f2e41" stroke-miterlimit="10" stroke-width="1"/>
    <path id="Path_18909" data-name="Path 18909" d="M250.953,401.53l188.2-51.683a11.578,11.578,0,0,0,8.09-14.215L404.378,179.544a11.578,11.578,0,0,0-14.216-8.089l-188.2,51.683a11.577,11.577,0,0,0-8.089,14.215l42.865,156.088a11.577,11.577,0,0,0,14.214,8.09Z" transform="translate(-143.089 0)" fill="#cacaca"/>
    <path id="Path_18910" data-name="Path 18910" d="M261.846,156.178l51.133-14.042a4.943,4.943,0,0,0,3.454-6.068l-3.264-11.886a4.943,4.943,0,0,0-6.069-3.454l-51.133,14.042a4.943,4.943,0,0,0-3.452,6.068l3.264,11.886a4.942,4.942,0,0,0,6.067,3.453Z" transform="translate(-70.921 0)" fill="#cacaca"/>
    <path id="Path_18911" data-name="Path 18911" d="M269.938,118.74l45.452-12.482a4.186,4.186,0,0,0,2.925-5.141l-2.684-9.772a4.187,4.187,0,0,0-5.141-2.926L265.039,100.9a4.187,4.187,0,0,0-2.925,5.141l2.684,9.772a4.186,4.186,0,0,0,5.141,2.925Z" transform="translate(-82.402 0)" fill="#cacaca"/>
    <path id="Path_18912" data-name="Path 18912" d="M334.988,176.264l51.133-14.042a4.943,4.943,0,0,0,3.454-6.068l-3.264-11.886a4.943,4.943,0,0,0-6.069-3.454l-51.133,14.042a4.943,4.943,0,0,0-3.452,6.068l3.264,11.886a4.942,4.942,0,0,0,6.067,3.453Z" transform="translate(-217.203 0)" fill="#cacaca"/>
    <path id="Path_18913" data-name="Path 18913" d="M408.129,196.35l51.133-14.042a4.943,4.943,0,0,0,3.454-6.068l-3.264-11.886a4.943,4.943,0,0,0-6.069-3.454L402.25,174.943a4.943,4.943,0,0,0-3.452,6.068l3.264,11.886a4.942,4.942,0,0,0,6.067,3.453Z" transform="translate(-363.485 0)" fill="#cacaca"/>
    <path id="Path_18915" data-name="Path 18915" d="M179.978,471.624l144.5-39.682a7.4,7.4,0,1,0-3.919-14.271l-144.5,39.682a7.4,7.4,0,1,0,3.919,14.271Z" transform="translate(-2.507 -0.001)" fill="#cacaca"/>
    <path id="Path_18916" data-name="Path 18916" d="M173.766,497.736l144.5-39.682a7.4,7.4,0,0,0-3.919-14.271l-144.5,39.682a7.4,7.4,0,0,0,3.919,14.271Z" transform="translate(9.916 -0.001)" fill="#cacaca"/>
    <path id="Path_18917" data-name="Path 18917" d="M167.555,509.4l91.872-25.23a7.4,7.4,0,1,0-3.919-14.271l-91.872,25.23a7.4,7.4,0,1,0,3.919,14.271Z" transform="translate(74.965 -0.001)" fill="#cacaca"/>
    <g id="Layer1" transform="translate(298.159 5.364)">
      <path id="Path_14794" data-name="Path 14794" d="M1372.665,124.885c-1.235-.755-16.814,10.779-19.059,23.132s3.918,58.277,3.918,58.277l41.852,33.833,19.68-3.656,12.8-18.021,3.565-59.491s-61.517-33.31-62.76-34.066Z" transform="translate(-1339.25 -109.305)" fill="#f5cfc1" fill-rule="evenodd"/>
      <path id="Path_14795" data-name="Path 14795" d="M1379.557,229.144a64.447,64.447,0,0,1,7.454-1.4c2.683-.318,5.358-.656,8-1.2.8-.162,2.569-.9,3.374-.607.156.056-.6,1.666-.692,1.821a18.624,18.624,0,0,1-3.776,4.362c-5.6,4.906-11.534,2.7-14.372-2.965Z" transform="translate(-1347.025 -139.015)" fill="#fff" fill-rule="evenodd"/>
      <path id="Path_14796" data-name="Path 14796" d="M1372.884,225.921c.324-.169,1.9,1.249,2.859.8.8-.381,1.179-1.412,2.167-1.934.564-.3,2.541.36,3.19.289.847-.085,2.026-1.348,3.452-1.355,4.616-.021,9.946.664,12.974.219a7.212,7.212,0,0,0,2.732-.664c1.32-.642,1.475-1.278,1.835-.819.487.635-.233,1.285-.917,1.581a16.267,16.267,0,0,1-3.911,1.009c-2.88.544-8.619,2.527-14.2,2.979a30.462,30.462,0,0,1-9.254-.748c-1.186-.409-1.708-.953-.932-1.355Z" transform="translate(-1344.954 -137.966)" fill="#cc586e" fill-rule="evenodd"/>
      <path id="Path_14797" data-name="Path 14797" d="M1378.353,227.7c.409.536,2.972,2.5,3.438,2.922,1.892,1.715,4.016,2.845,6.445,2.019,3.247-1.1,7-5.894,9.551-7.059.783-.36,3.536-1.758,3.522-1.659-.077.4-2.033,1.264-3.558,4.009-1.56,2.816-4.814,9.24-10.715,9.219-3.55-.007-6.247-3.106-8.082-6.113-.748-1.214-1.306-2.132-2-3.155-.1-.141,1.151-.056,1.4-.184Z" transform="translate(-1346.258 -138.444)" fill="#cc586e" fill-rule="evenodd"/>
      <path id="Path_14798" data-name="Path 14798" d="M1411.479,221.192c-.063.452,1.2.607,1.948,1.454.621.713.974,1.906,1.37,1.786.685-.2-.05-2.139-.925-2.915-.6-.536-2.294-1.045-2.386-.325Z" transform="translate(-1356.415 -137.536)" fill="#cc586e" fill-rule="evenodd"/>
      <path id="Path_14799" data-name="Path 14799" d="M1373.2,225.94c.353.289-.071.565.063,1.645.113.9.445,1.334.127,1.489-.557.275-.833-.621-1.044-1.7C1372.152,226.42,1372.639,225.481,1373.2,225.94Z" transform="translate(-1344.893 -139.002)" fill="#cc586e" fill-rule="evenodd"/>
      <path id="Path_14800" data-name="Path 14800" d="M1376.407,124.9c1.877,15.572,9.8,24.522,26.492,30.085,4.306,1.433,15.254,9.635,19.165,11.922,2.583,1.518-3.7-14.428-6.614-18.24-6.317-8.266-13.658-16.927-22.221-22.948-4.376-3.085-14.456-9.452-16.828-.819Z" transform="translate(-1346.098 -108.04)" fill="#ed9d82" fill-rule="evenodd"/>
      <path id="Path_14801" data-name="Path 14801" d="M1408.628,254.729c2.753-.113,4.771-2.485,8.6-4.856,1.143-.706,5.428-5.216,5.273-4.016-.431,3.191-2.026,7.9-8.838,11.894-.755.445-2.287.416-3.3,1.376-.346.332-2.019-2.308-1.743-4.4Z" transform="translate(-1355.568 -144.836)" fill="#ed9d82" fill-rule="evenodd"/>
      <path id="Path_14802" data-name="Path 14802" d="M1451.94,186.545c-1.045.586-3.247,1.228-4.052,2.125-1.115,1.235-1.687,2.5-1.01,4.016,1.3,2.9,2.873,4.588,3.727-1.666.381-2.8,2.767-3.784,2.484-4.991" transform="translate(-1366.742 -127.299)" fill="#ed9d82" fill-rule="evenodd"/>
      <path id="Path_14803" data-name="Path 14803" d="M1390.108,171.785c1.722.48,1.758-2.033,10.179-3.685,4.7-.918,9.078-.106,11-.021a20.962,20.962,0,0,0-8.315-2.358,17.533,17.533,0,0,0-8.866,1.835c-2.951,1.419-5.478,3.812-4.01,4.221Z" transform="translate(-1350.001 -121.312)" fill="#0a1761" fill-rule="evenodd"/>
      <path id="Path_14804" data-name="Path 14804" d="M1366.316,173.54c-1.031.8-2.789-1.962-9.353-1.842-4.956.092-6.332,1.391-8.245,1.673-.057.007.388-2.866,5.344-3.8a16.874,16.874,0,0,1,8.1.508c2.082.642,5.583,2.358,4.151,3.466Z" transform="translate(-1337.955 -122.376)" fill="#0a1761" fill-rule="evenodd"/>
      <path id="Path_14805" data-name="Path 14805" d="M1365.136,122.311s-5.082,1.7-9.847,9.826a49.871,49.871,0,0,0-7.045,23.781c-.6,9.911,1.016,7.412,1.539,16.63.458,8.047,2.322,13.186,6.3,20.252s12.875,23.259,26.668,19.87a43.787,43.787,0,0,0,8.633-2.943c.085-.049.635,17.294.283,17.668-8.5,8.986-12.9,11.471-24.487,11.576a83.712,83.712,0,0,1-18.41-2.139s-12.833-7.631-15-26.576c-2.725-23.88,14.365-30.226,12.684-40.313s-12.077-17.125-12.466-30.522c-.452-15.692,8.217-24.113,20.767-27.388a42.463,42.463,0,0,1,11.146-1.256s5.986-10.793,30.741-7.228c28.934,4.165,39.12,20.435,41.414,31.369,3.289,15.734,5.548,51.847,22.99,68.237,29.985,28.186,16.32,71.936-11.986,72.931-9.819.346-30.551-44.626-32.414-55.376-1.878-10.814-2.344-41.59-2.344-41.59a22.646,22.646,0,0,0,6.663-6.289c1.963-2.838,4.01-8.478,1.7-11.464-2.69-3.473-7.01-2.746-9.84.579a19.937,19.937,0,0,0-3.028,5.774,29.336,29.336,0,0,1-2.308-3.544,30.6,30.6,0,0,0-5.513-7.052c-7.694-6.981-15.43-8.273-24.8-16.941-11-10.186-12.049-17.866-12.049-17.866Z" transform="translate(-1333.473 -102.827)" fill="#0a1761" fill-rule="evenodd"/>
      <g id="Group_10289" data-name="Group 10289" clip-path="url(#clip-path)">
        <path id="Path_14806" data-name="Path 14806" d="M1350.117,114.17c-1.864,4.3-11.943,18.734-8,34.645,2.478,10,5.217,10.115,8,19.736,2.28,7.885,19.673,21.939,31.878,34.532,1.362,1.4,24.318-32.463,26.661-22.772,8.951,36.981,38.2,56.894,57.833,30.007,22.052-30.2,17.541,59.117,16.87,61.207-9.938,31.073-157.058-17.591-159.627-18.487-3.268-1.143-5.322-100.616,4.885-119.646,2.626-4.9,6.084-10.073,10.454-13.616,1.475-1.2,3.367-2.774,5.344-3.1" transform="translate(-1329.825 -106.163)" fill="#040b2d" fill-rule="evenodd"/>
      </g>
      <path id="Path_14808" data-name="Path 14808" d="M1452.707,186.388c-1.5-.4-6.741,3.275-5.859,6.416.268.946,1.44,1.144,1.652,2.082a5.287,5.287,0,0,1-.417,3.918" transform="translate(-1366.789 -127.395)" fill="none" stroke="#ab583b" stroke-linecap="round" stroke-linejoin="round" stroke-width="1.5"/>
      <path id="Path_14809" data-name="Path 14809" d="M1378.4,198.87c-.515,5.788-2.746,8.576-2.28,10.214.861,2.979,4.355,1.892,6.3,2.322" transform="translate(-1345.998 -131.075)" fill="none" stroke="#ab583b" stroke-linecap="round" stroke-linejoin="round" stroke-width="1.8"/>
      <path id="Path_14810" data-name="Path 14810" d="M1388.59,184.477c.2-3.3,4.56-4.906,11.174-6.071,4.5-.791,15.353-2.2,17.344,2.04s-.529,12.1-4.779,15.9c-3.854,3.445-11.7,2.866-16.433.438-3.685-1.885-7.673-6.487-7.306-12.3Z" transform="translate(-1349.677 -124.8)" fill="rgba(249,250,255,0.28)" fill-rule="evenodd"/>
      <path id="Path_14811" data-name="Path 14811" d="M1387.55,184.063h-.021a4.936,4.936,0,0,1,2.492-3.868c2-1.327,5.224-2.245,9.289-2.979,3.014-.544,8.823-1.355,13.045-.642,2.513.423,4.468,1.433,5.266,3.113,1.136,2.393.988,5.88-.12,9.24a18.392,18.392,0,0,1-4.849,7.758,11.686,11.686,0,0,1-6.932,2.591,20.7,20.7,0,0,1-10.539-2.089,15.086,15.086,0,0,1-5.739-5.456,12.9,12.9,0,0,1-1.906-7.666Zm1.49.092h-.028a11.349,11.349,0,0,0,1.821,6.72,13.389,13.389,0,0,0,5.16,4.751,18.841,18.841,0,0,0,7.955,1.828c2.859.035,5.633-.579,7.44-2.2a16.586,16.586,0,0,0,4.334-6.925c.96-2.859,1.214-5.824.254-7.871a3.188,3.188,0,0,0-1.68-1.482,12.135,12.135,0,0,0-3.967-.868,47.111,47.111,0,0,0-10.722.741,30.9,30.9,0,0,0-7.624,2.054c-1.744.819-2.831,1.814-2.929,3.254Z" transform="translate(-1349.364 -124.435)" fill="#0a1761" fill-rule="evenodd"/>
      <path id="Path_14812" data-name="Path 14812" d="M1430.03,189.6l7.355.974" transform="translate(-1361.872 -128.349)" fill="none" stroke="#0a1761" stroke-linecap="round" stroke-linejoin="round" stroke-width="2.3"/>
      <path id="Path_14813" data-name="Path 14813" d="M1367.856,188.208c-.6-2.781-4.129-3.706-9.318-4.023-3.529-.219-11.979-.3-12.931,3.5s2.026,10.228,5.767,13.023c3.4,2.534,9.282,1.242,12.565-1.306a11.474,11.474,0,0,0,3.918-11.2Z" transform="translate(-1336.989 -126.731)" fill="rgba(249,250,255,0.28)" fill-rule="evenodd"/>
      <path id="Path_14814" data-name="Path 14814" d="M1368.217,187.7h-.021a12.253,12.253,0,0,1-4.1,12.056,14.544,14.544,0,0,1-6.536,2.774,9.512,9.512,0,0,1-7.136-1.4,16.8,16.8,0,0,1-4.779-6.2c-1.278-2.739-1.842-5.675-1.3-7.814.4-1.56,1.772-2.654,3.677-3.3,3.155-1.073,7.779-.974,10.186-.812a23.176,23.176,0,0,1,6.621,1.186,4.892,4.892,0,0,1,3.388,3.508Zm-1.461.318h-.021a3.453,3.453,0,0,0-2.47-2.351,21.591,21.591,0,0,0-6.155-1,32.476,32.476,0,0,0-8.238.473,7.664,7.664,0,0,0-2.81,1.129,2.274,2.274,0,0,0-.953,1.292c-.445,1.814.141,4.264,1.235,6.572a14.832,14.832,0,0,0,4.221,5.464,7.664,7.664,0,0,0,5.71,1.08,12.7,12.7,0,0,0,5.739-2.315,10.367,10.367,0,0,0,3.29-4.631,10.506,10.506,0,0,0,.445-5.725Z" transform="translate(-1336.609 -126.381)" fill="#0a1761" fill-rule="evenodd"/>
      <path id="Path_14815" data-name="Path 14815" d="M1377.94,192.456a.728.728,0,0,1-1.426-.289,5.119,5.119,0,0,1,1.115-2.471,4.521,4.521,0,0,1,2.492-1.4,4.655,4.655,0,0,1,1.871.056,4.32,4.32,0,0,1,.706.226,6.483,6.483,0,0,1,1.235.678,9.338,9.338,0,0,1,1.518,1.376.69.69,0,0,1-.84,1.094,23.628,23.628,0,0,0-2.251-.741c-.275-.071-.551-.134-.833-.2a3.328,3.328,0,0,0-1.073-.141,2.518,2.518,0,0,0-1.461.473,3.7,3.7,0,0,0-1.052,1.348Z" transform="translate(-1346.128 -127.944)" fill="#0a1761" fill-rule="evenodd"/>
      <path id="Path_14816" data-name="Path 14816" d="M1396.09,190.981c1.031-3.2,1.7-4.751,4.588-6.713,2.457-1.673,5.471-1.292,8.527-.854a20.1,20.1,0,0,0,6.459.289c.042-.007-1.807,2.322-3.586,2.8a7.974,7.974,0,0,1-3.261-.254,14.3,14.3,0,0,0-4.736-.529c-3.508.339-5.838,2.732-7.99,5.259Z" transform="translate(-1351.889 -126.419)" fill="#134f99" fill-rule="evenodd"/>
      <ellipse id="Ellipse_984" data-name="Ellipse 984" cx="3.995" cy="4.059" rx="3.995" ry="4.059" transform="matrix(0.066, -0.998, 0.998, 0.066, 48.599, 65.198)" fill="#134f99"/>
      <path id="Path_14817" data-name="Path 14817" d="M1368.372,194.051c.233-.8.776-2.506-1.631-4.765-1.271-1.193-4.5-1.362-7.263-.812a14.058,14.058,0,0,1-5.358.424c-.042,0,1.764,2.252,3.409,2.668a6.372,6.372,0,0,0,2.908-.339,6.052,6.052,0,0,1,3.169-.508c2.958.3,3.593,1.969,4.758,3.332Z" transform="translate(-1339.545 -127.93)" fill="#134f99" fill-rule="evenodd"/>
      <path id="Path_14818" data-name="Path 14818" d="M1368.893,189.574a2.93,2.93,0,0,0-3.537,2.979,3.655,3.655,0,0,0,3.494,3.981c2.068-.007,2.936-1.031,3.078-3.092a4.049,4.049,0,0,0-3.028-3.875Z" transform="translate(-1342.848 -128.33)" fill="#134f99" fill-rule="evenodd"/>
      <path id="Path_14819" data-name="Path 14819" d="M1415.67,251.788c4.461-2.019,8.6-6.4,9.233-6.918" transform="translate(-1357.648 -144.605)" fill="none" stroke="#ae5d41" stroke-linecap="round" stroke-linejoin="round" stroke-width="1.51"/>
    </g>
    <rect id="Rectangle_7357" data-name="Rectangle 7357" width="216.865" height="36" rx="18" transform="matrix(0.966, -0.259, 0.259, 0.966, 102.731, 420.315)" fill="#ffba2a"/>
    <path id="Path_14842" data-name="Path 14842" d="M1423.481,435.15c3.658,3.286,4.222,16.084-10.342,23.685" transform="matrix(0.574, 0.819, -0.819, 0.574, 20.967, -1053.705)" fill="none" stroke="#ae5d41" stroke-linecap="round" stroke-linejoin="round" stroke-width="2.14"/>
  </g>
</svg>
