<svg width="42" height="42" viewBox="0 0 42 42" fill="none" xmlns="http://www.w3.org/2000/svg">
<rect width="42" height="42" rx="21" fill="#FF543E"/>
<path d="M19.3303 25.4687L27.2397 17.6842L26 16.4641L19.3303 23.0285L15.9774 19.7285L14.7376 20.9486L19.3303 25.4687ZM13.1268 31C12.5401 31 12.0389 30.7955 11.6232 30.3866C11.2077 29.9775 11 29.4842 11 28.9068V13.409C11 12.8316 11.2077 12.3383 11.6232 11.9292C12.0389 11.5203 12.5401 11.3158 13.1268 11.3158H18.3621C18.436 10.673 18.7211 10.1263 19.2174 9.67592C19.7134 9.22531 20.3076 9 21 9C21.6998 9 22.2978 9.22531 22.7941 9.67592C23.2904 10.1263 23.5717 10.673 23.6379 11.3158H28.8732C29.4599 11.3158 29.9611 11.5203 30.3768 11.9292C30.7923 12.3383 31 12.8316 31 13.409V28.9068C31 29.4842 30.7923 29.9775 30.3768 30.3866C29.9611 30.7955 29.4599 31 28.8732 31H13.1268ZM13.1268 29.2632H28.8732C28.9638 29.2632 29.0468 29.226 29.1221 29.1517C29.1975 29.0776 29.2353 28.996 29.2353 28.9068V13.409C29.2353 13.3198 29.1975 13.2382 29.1221 13.1641C29.0468 13.0898 28.9638 13.0526 28.8732 13.0526H13.1268C13.0362 13.0526 12.9532 13.0898 12.8779 13.1641C12.8025 13.2382 12.7647 13.3198 12.7647 13.409V28.9068C12.7647 28.996 12.8025 29.0776 12.8779 29.1517C12.9532 29.226 13.0362 29.2632 13.1268 29.2632ZM21 12.2957C21.2549 12.2957 21.4657 12.2136 21.6324 12.0496C21.799 11.8856 21.8824 11.6781 21.8824 11.4272C21.8824 11.1764 21.799 10.9689 21.6324 10.8049C21.4657 10.6408 21.2549 10.5588 21 10.5588C20.7451 10.5588 20.5343 10.6408 20.3676 10.8049C20.201 10.9689 20.1176 11.1764 20.1176 11.4272C20.1176 11.6781 20.201 11.8856 20.3676 12.0496C20.5343 12.2136 20.7451 12.2957 21 12.2957Z" fill="white"/>
</svg>
