<svg width="42" height="42" viewBox="0 0 42 42" fill="none" xmlns="http://www.w3.org/2000/svg">
<rect width="42" height="42" rx="21" fill="#143E7E"/>
<path d="M15.4118 26.5882H19.5294V22.4706H15.4118V26.5882ZM22.4706 26.5882H26.5882V22.4706H22.4706V26.5882ZM15.4118 19.5294H19.5294V15.4118H15.4118V19.5294ZM22.4706 19.5294H26.5882V15.4118H22.4706V19.5294ZM13.1268 31C12.5325 31 12.0294 30.7941 11.6176 30.3824C11.2059 29.9706 11 29.4675 11 28.8732V13.1268C11 12.5325 11.2059 12.0294 11.6176 11.6176C12.0294 11.2059 12.5325 11 13.1268 11H28.8732C29.4675 11 29.9706 11.2059 30.3824 11.6176C30.7941 12.0294 31 12.5325 31 13.1268V28.8732C31 29.4675 30.7941 29.9706 30.3824 30.3824C29.9706 30.7941 29.4675 31 28.8732 31H13.1268ZM13.1268 29.2353H28.8732C28.9638 29.2353 29.0468 29.1975 29.1221 29.1221C29.1975 29.0468 29.2353 28.9638 29.2353 28.8732V13.1268C29.2353 13.0362 29.1975 12.9532 29.1221 12.8779C29.0468 12.8025 28.9638 12.7647 28.8732 12.7647H13.1268C13.0362 12.7647 12.9532 12.8025 12.8779 12.8779C12.8025 12.9532 12.7647 13.0362 12.7647 13.1268V28.8732C12.7647 28.9638 12.8025 29.0468 12.8779 29.1221C12.9532 29.1975 13.0362 29.2353 13.1268 29.2353Z" fill="white"/>
</svg>
