<svg xmlns="http://www.w3.org/2000/svg" width="20.649" height="21" viewBox="0 0 20.649 21">
  <path id="real_estate_agent_24dp_000000_FILL0_wght300_GRAD0_opsz24_1_" data-name="real_estate_agent_24dp_000000_FILL0_wght300_GRAD0_opsz24 (1)" d="M86.122-864.083v-7.04l-5.476-3.831-5.476,3.831v2.186H73.606V-871.9l7.04-5.024,7.04,5.024v7.813ZM80.646-874.955Zm.572,4.443h.943v-.943h-.943Zm-2.086,0h.943v-.943h-.943Zm2.086,2.086h.943v-.943h-.943Zm-2.086,0h.943v-.943h-.943Zm-5.837,8.715,7.569,2.142,6.226-1.93a.9.9,0,0,0-.331-.544.918.918,0,0,0-.568-.19H81.084a10.915,10.915,0,0,1-1.16-.052,4.416,4.416,0,0,1-.981-.229l-2.355-.778.463-1.532,2.112.734a4.822,4.822,0,0,0,1.093.219q.62.058,1.763.074a1.24,1.24,0,0,0-.174-.668.866.866,0,0,0-.459-.379l-6.051-2.222a.466.466,0,0,0-.055-.015.27.27,0,0,0-.055-.005h-1.93Zm-5.215,3.049v-9.988h7.132a1.589,1.589,0,0,1,.333.036,2.968,2.968,0,0,1,.313.084l6.077,2.239a2.474,2.474,0,0,1,1.179.93,2.651,2.651,0,0,1,.469,1.566h2.607a2.443,2.443,0,0,1,1.83.725,2.581,2.581,0,0,1,.707,1.882v.842l-7.812,2.427-7.622-2.174v1.432Zm1.564-1.564H71.73v-6.86H69.644Z" transform="translate(-68.08 876.92)"/>
</svg>
