<svg width="42" height="42" viewBox="0 0 42 42" fill="none" xmlns="http://www.w3.org/2000/svg">
<rect width="42" height="42" rx="21" fill="#34A853"/>
<g clip-path="url(#clip0_0_1)">
<path d="M11 32V29.0104C11 28.3485 11.1718 27.74 11.5153 27.1848C11.8589 26.6296 12.3383 26.1968 12.9537 25.8864C14.0614 25.3209 15.3008 24.8536 16.6717 24.4847C18.0426 24.1158 19.4853 23.9313 21 23.9313C22.5144 23.9313 23.9571 24.1158 25.328 24.4847C26.6989 24.8536 27.9382 25.3209 29.046 25.8864C29.6613 26.1968 30.1408 26.6296 30.4843 27.1848C30.8281 27.74 31 28.3485 31 29.0104V32H11ZM13 29.9831H29V29.0104C29 28.7036 28.9174 28.4407 28.7523 28.2217C28.5874 28.0027 28.3793 27.8243 28.128 27.6864C27.3109 27.2657 26.2746 26.8709 25.019 26.502C23.7634 26.133 22.4238 25.9486 21 25.9486C19.576 25.9486 18.2362 26.133 16.9807 26.502C15.7251 26.8709 14.6888 27.2657 13.8717 27.6864C13.6203 27.8243 13.4122 28.0027 13.2473 28.2217C13.0824 28.4407 13 28.7036 13 29.0104V29.9831ZM21 21.7587C19.6958 21.7587 18.5919 21.3032 17.6883 20.392C16.785 19.4807 16.3333 18.3414 16.3333 16.9741H16.0257C15.8512 16.9741 15.7093 16.919 15.6 16.8087C15.4907 16.6984 15.436 16.5553 15.436 16.3794C15.436 16.2036 15.4907 16.0605 15.6 15.95C15.7093 15.8397 15.8512 15.7846 16.0257 15.7846H16.3333C16.3504 14.9398 16.5436 14.1765 16.9127 13.4947C17.282 12.8126 17.8068 12.2276 18.487 11.7397V13.0173C18.487 13.1932 18.5418 13.3363 18.6513 13.4466C18.7607 13.5571 18.9026 13.6124 19.077 13.6124C19.2512 13.6124 19.393 13.5571 19.5023 13.4466C19.6119 13.3363 19.6667 13.1932 19.6667 13.0173V11.2276C19.858 11.1604 20.067 11.1057 20.2937 11.0635C20.5201 11.0212 20.7556 11 21 11C21.2444 11 21.4799 11.0212 21.7063 11.0635C21.9328 11.1057 22.1418 11.1604 22.3333 11.2276V13.0173C22.3333 13.1932 22.388 13.3363 22.4973 13.4466C22.6067 13.5571 22.7486 13.6124 22.923 13.6124C23.0974 13.6124 23.2393 13.5571 23.3487 13.4466C23.458 13.3363 23.5127 13.1932 23.5127 13.0173V11.7397C24.2016 12.2276 24.7284 12.8126 25.0933 13.4947C25.4584 14.1765 25.6496 14.9398 25.6667 15.7846H25.9743C26.1486 15.7846 26.2904 15.8397 26.4 15.95C26.5093 16.0605 26.564 16.2036 26.564 16.3794C26.564 16.5553 26.5093 16.6984 26.4 16.8087C26.2904 16.919 26.1486 16.9741 25.9743 16.9741H25.6667C25.6667 18.3414 25.2149 19.4807 24.3113 20.392C23.408 21.3032 22.3042 21.7587 21 21.7587ZM21 19.7415C21.7504 19.7415 22.3824 19.4825 22.896 18.9645C23.4098 18.4463 23.6667 17.8087 23.6667 17.0518H18.3333C18.3333 17.8087 18.5901 18.4463 19.1037 18.9645C19.6174 19.4825 20.2496 19.7415 21 19.7415Z" fill="white"/>
</g>
<defs>
<clipPath id="clip0_0_1">
<rect width="24" height="24" fill="white" transform="translate(9 9)"/>
</clipPath>
</defs>
</svg>
