<svg width="42" height="42" viewBox="0 0 42 42" fill="none" xmlns="http://www.w3.org/2000/svg">
<rect width="42" height="42" rx="21" fill="#8CCDF0"/>
<path d="M19.6412 28.5861L15.4951 24.5637L16.8986 23.2021L19.6412 25.8629L25.1014 20.5654L26.5049 21.9271L19.6412 28.5861ZM12.3394 33C11.6857 33 11.1324 32.7803 10.6794 32.3408C10.2265 31.9014 10 31.3646 10 30.7303V13.9255C10 13.2912 10.2265 12.7544 10.6794 12.3149C11.1324 11.8755 11.6857 11.6558 12.3394 11.6558H14.1311V9H16.1221V11.6558H25.9277V9H27.8689V11.6558H29.6606C30.3143 11.6558 30.8676 11.8755 31.3206 12.3149C31.7735 12.7544 32 13.2912 32 13.9255V30.7303C32 31.3646 31.7735 31.9014 31.3206 32.3408C30.8676 32.7803 30.3143 33 29.6606 33H12.3394ZM12.3394 31.1167H29.6606C29.7602 31.1167 29.8514 31.0764 29.9343 30.9958C30.0173 30.9155 30.0588 30.827 30.0588 30.7303V18.9477H11.9412V30.7303C11.9412 30.827 11.9827 30.9155 12.0657 30.9958C12.1486 31.0764 12.2398 31.1167 12.3394 31.1167ZM11.9412 17.0643H30.0588V13.9255C30.0588 13.8288 30.0173 13.7403 29.9343 13.6599C29.8514 13.5794 29.7602 13.5391 29.6606 13.5391H12.3394C12.2398 13.5391 12.1486 13.5794 12.0657 13.6599C11.9827 13.7403 11.9412 13.8288 11.9412 13.9255V17.0643Z" fill="white"/>
</svg>
