<svg width="46" height="47" viewBox="0 0 46 47" fill="none" xmlns="http://www.w3.org/2000/svg">
<g filter="url(#filter0_dd_701_3309)">
<rect x="2" y="1.93652" width="42" height="42" rx="21" fill="#CC586E"/>
</g>
<g clip-path="url(#clip0_701_3309)">
<path d="M12.4155 24.8978L11 23.8895L16.3607 15.364L19.771 19.3226L24.296 12.0135L27.7062 17.1002L31.6068 10.9365L33 11.956L27.7419 20.2647L24.3606 15.207L20.0118 22.2307L16.5835 18.2545L12.4155 24.8978ZM25.8451 29.9115C26.7157 29.9115 27.4516 29.6133 28.0528 29.0168C28.654 28.4204 28.9546 27.6902 28.9546 26.8264C28.9546 25.9623 28.6539 25.2322 28.0525 24.6359C27.4513 24.0394 26.7154 23.7412 25.8448 23.7412C24.9741 23.7412 24.2382 24.0394 23.637 24.6359C23.0361 25.2326 22.7356 25.9628 22.7356 26.8266C22.7356 27.6905 23.0362 28.4205 23.6373 29.0168C24.2385 29.6133 24.9744 29.9115 25.8451 29.9115ZM31.7896 33.9365L28.5932 30.7651C28.2024 31.0482 27.7741 31.2642 27.3084 31.4131C26.8424 31.5621 26.3547 31.6365 25.8451 31.6365C24.4984 31.6365 23.3537 31.169 22.411 30.2341C21.4683 29.2991 20.997 28.1639 20.997 26.8284C20.997 25.4928 21.4681 24.3569 22.4105 23.4206C23.3528 22.4845 24.497 22.0165 25.843 22.0165C27.1891 22.0165 28.334 22.4841 29.2777 23.4192C30.2211 24.3545 30.6929 25.4903 30.6929 26.8264C30.6929 27.3322 30.6178 27.8179 30.4677 28.2837C30.3178 28.7496 30.1002 29.1765 29.8149 29.5642L33 32.7356L31.7896 33.9365Z" fill="white"/>
</g>
<defs>
<filter id="filter0_dd_701_3309" x="0" y="0.936523" width="46" height="46" filterUnits="userSpaceOnUse" color-interpolation-filters="sRGB">
<feFlood flood-opacity="0" result="BackgroundImageFix"/>
<feColorMatrix in="SourceAlpha" type="matrix" values="0 0 0 0 0 0 0 0 0 0 0 0 0 0 0 0 0 0 127 0" result="hardAlpha"/>
<feMorphology radius="1" operator="dilate" in="SourceAlpha" result="effect1_dropShadow_701_3309"/>
<feOffset/>
<feComposite in2="hardAlpha" operator="out"/>
<feColorMatrix type="matrix" values="0 0 0 0 0 0 0 0 0 0 0 0 0 0 0 0 0 0 0.08 0"/>
<feBlend mode="normal" in2="BackgroundImageFix" result="effect1_dropShadow_701_3309"/>
<feColorMatrix in="SourceAlpha" type="matrix" values="0 0 0 0 0 0 0 0 0 0 0 0 0 0 0 0 0 0 127 0" result="hardAlpha"/>
<feOffset dy="1"/>
<feGaussianBlur stdDeviation="1"/>
<feComposite in2="hardAlpha" operator="out"/>
<feColorMatrix type="matrix" values="0 0 0 0 0.270588 0 0 0 0 0.270588 0 0 0 0 0.270588 0 0 0 0.25 0"/>
<feBlend mode="normal" in2="effect1_dropShadow_701_3309" result="effect2_dropShadow_701_3309"/>
<feBlend mode="normal" in="SourceGraphic" in2="effect2_dropShadow_701_3309" result="shape"/>
</filter>
<clipPath id="clip0_701_3309">
<rect width="24" height="24" fill="white" transform="translate(11 10.9365)"/>
</clipPath>
</defs>
</svg>
