<svg width="46" height="47" viewBox="0 0 46 47" fill="none" xmlns="http://www.w3.org/2000/svg">
<g filter="url(#filter0_dd_701_3328)">
<rect x="2" y="1.93652" width="42" height="42" rx="21" fill="#58CC90"/>
</g>
<g clip-path="url(#clip0_701_3328)">
<path d="M23.9995 25.1714C24.5825 25.1714 25.0783 24.9564 25.4869 24.5265C25.8953 24.0964 26.0995 23.5745 26.0995 22.9608C26.0995 22.3472 25.8953 21.8253 25.4869 21.3952C25.0783 20.9653 24.5825 20.7503 23.9995 20.7503C23.4165 20.7503 22.9207 20.9653 22.5121 21.3952C22.1037 21.8253 21.8995 22.3472 21.8995 22.9608C21.8995 23.5745 22.1037 24.0964 22.5121 24.5265C22.9207 24.9564 23.4165 25.1714 23.9995 25.1714ZM19.4995 29.8353H28.4995V29.3761C28.4995 28.9275 28.3849 28.5292 28.1557 28.1812C27.9265 27.8329 27.6126 27.5657 27.214 27.3794C26.7172 27.156 26.2015 26.9832 25.6669 26.8608C25.1323 26.7385 24.5765 26.6774 23.9995 26.6774C23.4225 26.6774 22.8667 26.7385 22.3321 26.8608C21.7975 26.9832 21.2818 27.156 20.785 27.3794C20.3864 27.5657 20.0725 27.8329 19.8433 28.1812C19.6141 28.5292 19.4995 28.9275 19.4995 29.3761V29.8353ZM30.8302 34.9365H17.1688C16.5626 34.9365 16.0495 34.7155 15.6295 34.2734C15.2095 33.8313 14.9995 33.2912 14.9995 32.653V13.22C14.9995 12.5819 15.2095 12.0418 15.6295 11.5997C16.0495 11.1576 16.5626 10.9365 17.1688 10.9365H26.1457L32.9995 18.1511V32.653C32.9995 33.2912 32.7895 33.8313 32.3695 34.2734C31.9495 34.7155 31.4364 34.9365 30.8302 34.9365ZM30.8302 33.0418C30.9226 33.0418 31.0072 33.0013 31.084 32.9202C31.161 32.8394 31.1995 32.7503 31.1995 32.653V18.9576L25.3795 12.8313H17.1688C17.0764 12.8313 16.9918 12.8718 16.915 12.9528C16.838 13.0337 16.7995 13.1227 16.7995 13.22V32.653C16.7995 32.7503 16.838 32.8394 16.915 32.9202C16.9918 33.0013 17.0764 33.0418 17.1688 33.0418H30.8302Z" fill="white"/>
</g>
<defs>
<filter id="filter0_dd_701_3328" x="0" y="0.936523" width="46" height="46" filterUnits="userSpaceOnUse" color-interpolation-filters="sRGB">
<feFlood flood-opacity="0" result="BackgroundImageFix"/>
<feColorMatrix in="SourceAlpha" type="matrix" values="0 0 0 0 0 0 0 0 0 0 0 0 0 0 0 0 0 0 127 0" result="hardAlpha"/>
<feMorphology radius="1" operator="dilate" in="SourceAlpha" result="effect1_dropShadow_701_3328"/>
<feOffset/>
<feComposite in2="hardAlpha" operator="out"/>
<feColorMatrix type="matrix" values="0 0 0 0 0 0 0 0 0 0 0 0 0 0 0 0 0 0 0.08 0"/>
<feBlend mode="normal" in2="BackgroundImageFix" result="effect1_dropShadow_701_3328"/>
<feColorMatrix in="SourceAlpha" type="matrix" values="0 0 0 0 0 0 0 0 0 0 0 0 0 0 0 0 0 0 127 0" result="hardAlpha"/>
<feOffset dy="1"/>
<feGaussianBlur stdDeviation="1"/>
<feComposite in2="hardAlpha" operator="out"/>
<feColorMatrix type="matrix" values="0 0 0 0 0.270588 0 0 0 0 0.270588 0 0 0 0 0.270588 0 0 0 0.25 0"/>
<feBlend mode="normal" in2="effect1_dropShadow_701_3328" result="effect2_dropShadow_701_3328"/>
<feBlend mode="normal" in="SourceGraphic" in2="effect2_dropShadow_701_3328" result="shape"/>
</filter>
<clipPath id="clip0_701_3328">
<rect width="24" height="24" fill="white" transform="translate(11.9995 10.9365)"/>
</clipPath>
</defs>
</svg>
