<svg width="42" height="42" viewBox="0 0 42 42" fill="none" xmlns="http://www.w3.org/2000/svg">
<rect width="42" height="42" rx="8" fill="#3872CD"/>
<path d="M21.3563 32C20.7714 32 20.2763 31.7974 19.8711 31.3921C19.4658 30.9868 19.2632 30.4917 19.2632 29.9068V21.3563C19.2632 20.7714 19.4658 20.2763 19.8711 19.8711C20.2763 19.4658 20.7714 19.2632 21.3563 19.2632H29.9068C30.4917 19.2632 30.9868 19.4658 31.3921 19.8711C31.7974 20.2763 32 20.7714 32 21.3563V29.9068C32 30.4917 31.7974 30.9868 31.3921 31.3921C30.9868 31.7974 30.4917 32 29.9068 32H21.3563ZM21.3563 30.2632H29.9068C29.996 30.2632 30.0776 30.226 30.1517 30.1517C30.226 30.0776 30.2632 29.996 30.2632 29.9068V21.3563C30.2632 21.2672 30.226 21.1856 30.1517 21.1114C30.0776 21.0371 29.996 21 29.9068 21H21.3563C21.2672 21 21.1856 21.0371 21.1114 21.1114C21.0371 21.1856 21 21.2672 21 21.3563V29.9068C21 29.996 21.0371 30.0776 21.1114 30.1517C21.1856 30.226 21.2672 30.2632 21.3563 30.2632ZM14.6316 27.5019V16.7248C14.6316 16.1398 14.8342 15.6447 15.2395 15.2395C15.6447 14.8342 16.1398 14.6316 16.7248 14.6316H27.5019V16.3684H16.7248C16.6356 16.3684 16.554 16.4056 16.4799 16.4799C16.4056 16.554 16.3684 16.6356 16.3684 16.7248V27.5019H14.6316ZM10 22.8703V12.0932C10 11.5083 10.2026 11.0132 10.6079 10.6079C11.0132 10.2026 11.5083 10 12.0932 10H22.8703V11.7368H12.0932C12.004 11.7368 11.9224 11.774 11.8483 11.8483C11.774 11.9224 11.7368 12.004 11.7368 12.0932V22.8703H10Z" fill="white"/>
</svg>
