<svg width="42" height="42" viewBox="0 0 42 42" fill="none" xmlns="http://www.w3.org/2000/svg">
<rect width="42" height="42" rx="8" fill="#73DBA3"/>
<path d="M22 23.2348C22.583 23.2348 23.0788 23.0199 23.4874 22.59C23.8958 22.1599 24.1 21.638 24.1 21.0243C24.1 20.4106 23.8958 19.8887 23.4874 19.4586C23.0788 19.0287 22.583 18.8138 22 18.8138C21.417 18.8138 20.9212 19.0287 20.5126 19.4586C20.1042 19.8887 19.9 20.4106 19.9 21.0243C19.9 21.638 20.1042 22.1599 20.5126 22.59C20.9212 23.0199 21.417 23.2348 22 23.2348ZM17.5 27.8987H26.5V27.4396C26.5 26.9909 26.3854 26.5926 26.1562 26.2446C25.927 25.8964 25.6131 25.6292 25.2145 25.4428C24.7177 25.2195 24.202 25.0466 23.6674 24.9243C23.1328 24.802 22.577 24.7408 22 24.7408C21.423 24.7408 20.8672 24.802 20.3326 24.9243C19.798 25.0466 19.2823 25.2195 18.7855 25.4428C18.3869 25.6292 18.073 25.8964 17.8438 26.2446C17.6146 26.5926 17.5 26.9909 17.5 27.4396V27.8987ZM28.8307 33H15.1693C14.5631 33 14.05 32.7789 13.63 32.3368C13.21 31.8947 13 31.3546 13 30.7165V11.2835C13 10.6454 13.21 10.1053 13.63 9.66316C14.05 9.22105 14.5631 9 15.1693 9H24.1462L31 16.2145V30.7165C31 31.3546 30.79 31.8947 30.37 32.3368C29.95 32.7789 29.4369 33 28.8307 33ZM28.8307 31.1053C28.9231 31.1053 29.0077 31.0647 29.0845 30.9837C29.1615 30.9028 29.2 30.8138 29.2 30.7165V17.0211L23.38 10.8947H15.1693C15.0769 10.8947 14.9923 10.9353 14.9155 11.0163C14.8385 11.0972 14.8 11.1862 14.8 11.2835V30.7165C14.8 30.8138 14.8385 30.9028 14.9155 30.9837C14.9923 31.0647 15.0769 31.1053 15.1693 31.1053H28.8307Z" fill="white"/>
</svg>
