<svg xmlns="http://www.w3.org/2000/svg" width="67" height="67" viewBox="0 0 67 67">
  <g id="Group_12345" data-name="Group 12345" transform="translate(-755 -3508)">
    <rect id="Rectangle_7209" data-name="Rectangle 7209" width="67" height="67" rx="12" transform="translate(755 3508)" fill="#ffbb2a"/>
    <path id="database_24dp_000000_FILL0_wght300_GRAD0_opsz24_2_" data-name="database_24dp_000000_FILL0_wght300_GRAD0_opsz24 (2)" d="M157.5-785a32.2,32.2,0,0,1-12.5-2.116q-5-2.116-5-5.288v-20.39q0-2.981,5.123-5.094A32.451,32.451,0,0,1,157.5-820a32.45,32.45,0,0,1,12.377,2.112Q175-815.775,175-812.794v20.39q0,3.171-5,5.288A32.194,32.194,0,0,1,157.5-785Zm0-23.763a33.615,33.615,0,0,0,9.065-1.273q4.563-1.273,5.288-2.746-.705-1.512-5.232-2.821a32.7,32.7,0,0,0-9.12-1.308,33.267,33.267,0,0,0-9.089,1.273q-4.5,1.273-5.3,2.777.78,1.544,5.264,2.821A33.171,33.171,0,0,0,157.5-808.763Zm0,10.3a41.208,41.208,0,0,0,4.169-.206,35.729,35.729,0,0,0,3.874-.6,26.131,26.131,0,0,0,3.458-.982,18.906,18.906,0,0,0,2.91-1.326v-7.3a18.952,18.952,0,0,1-2.91,1.326,26.206,26.206,0,0,1-3.458.982,35.608,35.608,0,0,1-3.874.6,41.279,41.279,0,0,1-4.169.206,40.878,40.878,0,0,1-4.25-.216,36.527,36.527,0,0,1-3.906-.612,26.177,26.177,0,0,1-3.423-.972,16.77,16.77,0,0,1-2.833-1.317v7.3a16.7,16.7,0,0,0,2.833,1.317,26.168,26.168,0,0,0,3.423.972,36.463,36.463,0,0,0,3.906.612A40.981,40.981,0,0,0,157.5-798.462Zm0,10.373a36.276,36.276,0,0,0,4.922-.33,31.1,31.1,0,0,0,4.395-.9,16.127,16.127,0,0,0,3.339-1.329,4,4,0,0,0,1.756-1.588v-6.251a18.906,18.906,0,0,1-2.91,1.326,26.14,26.14,0,0,1-3.458.982,35.759,35.759,0,0,1-3.874.6,41.262,41.262,0,0,1-4.169.206,41,41,0,0,1-4.25-.216,36.51,36.51,0,0,1-3.906-.612,26.225,26.225,0,0,1-3.423-.972,16.732,16.732,0,0,1-2.833-1.317v6.283a3.827,3.827,0,0,0,1.74,1.582,16.751,16.751,0,0,0,3.323,1.3,31.045,31.045,0,0,0,4.411.9A36.617,36.617,0,0,0,157.5-788.088Z" transform="translate(631 4344)"/>
  </g>
</svg>
