<svg width="42" height="42" viewBox="0 0 42 42" fill="none" xmlns="http://www.w3.org/2000/svg">
<rect width="42" height="42" rx="8" fill="#CC586E"/>
<path d="M10.4155 22.9613L9 21.953L14.3607 13.4275L17.771 17.3861L22.296 10.077L25.7062 15.1637L29.6068 9L31 10.0195L25.7419 18.3282L22.3606 13.2705L18.0118 20.2942L14.5835 16.318L10.4155 22.9613ZM23.8451 27.975C24.7157 27.975 25.4516 27.6768 26.0528 27.0803C26.654 26.4838 26.9546 25.7537 26.9546 24.8898C26.9546 24.0258 26.6539 23.2957 26.0525 22.6994C25.4513 22.1029 24.7154 21.8047 23.8448 21.8047C22.9741 21.8047 22.2382 22.1029 21.637 22.6994C21.0361 23.296 20.7356 24.0263 20.7356 24.8901C20.7356 25.754 21.0362 26.484 21.6373 27.0803C22.2385 27.6768 22.9744 27.975 23.8451 27.975ZM29.7896 32L26.5932 28.8286C26.2024 29.1117 25.7741 29.3277 25.3084 29.4766C24.8424 29.6255 24.3547 29.7 23.8451 29.7C22.4984 29.7 21.3537 29.2325 20.411 28.2976C19.4683 27.3626 18.997 26.2274 18.997 24.8919C18.997 23.5563 19.4681 22.4204 20.4105 21.4841C21.3528 20.548 22.497 20.08 23.843 20.08C25.1891 20.08 26.334 20.5475 27.2777 21.4827C28.2211 22.418 28.6929 23.5537 28.6929 24.8898C28.6929 25.3956 28.6178 25.8814 28.4677 26.3472C28.3178 26.8131 28.1002 27.24 27.8149 27.6277L31 30.7991L29.7896 32Z" fill="white"/>
</svg>
