<svg width="21" height="21" viewBox="0 0 21 21" fill="none" xmlns="http://www.w3.org/2000/svg">
<g clip-path="url(#clip0_1_684)">
<path d="M10.5 21.0001C7.94053 21.0781 5.39111 20.6463 3 19.7301C1 18.8834 0 17.8261 0 16.5581V4.32406C0 3.13139 1.02467 2.11276 3.07401 1.26809C5.44318 0.365976 7.96572 -0.0647586 10.5 8.53427e-05C13.0342 -0.0650775 15.5568 0.36534 17.926 1.26711C19.9753 2.11245 21 3.13139 21 4.32406V16.5581C21 17.8247 20 18.8821 18 19.7301C15.6089 20.6463 13.0595 21.0781 10.5 21.0001ZM10.5 6.74209C12.3394 6.73655 14.1693 6.47953 15.939 5.97811C17.7643 5.46878 18.822 4.91944 19.112 4.3301C18.83 3.72544 17.7837 3.16142 15.973 2.63809C14.1952 2.11942 12.3529 1.85515 10.501 1.85311C8.65678 1.85471 6.82166 2.1118 5.048 2.61709C3.248 3.12642 2.18733 3.68177 1.866 4.28311C2.178 4.90044 3.23067 5.46477 5.024 5.9761C6.8048 6.48501 8.64791 6.74283 10.5 6.74209ZM10.5 12.9231C11.3349 12.9243 12.1693 12.8832 13 12.8001C13.7807 12.7224 14.5565 12.602 15.324 12.4391C16.0284 12.2907 16.7217 12.0938 17.399 11.8501C18.0026 11.6333 18.5867 11.3657 19.145 11.0501V6.66708C18.5866 6.98246 18.0025 7.25006 17.399 7.46707C16.7216 7.71071 16.0284 7.90756 15.324 8.05612C14.5565 8.21899 13.7807 8.33947 13 8.41708C12.1693 8.50018 11.3349 8.54122 10.5 8.54006C9.64832 8.54103 8.79716 8.49763 7.95 8.41006C7.16294 8.33012 6.3808 8.20766 5.60699 8.04311C4.90988 7.89566 4.22363 7.70086 3.55299 7.46011C2.96298 7.25023 2.39385 6.98571 1.853 6.67007V11.0531C2.39375 11.3689 2.9629 11.6334 3.55299 11.8431C4.22366 12.0837 4.90991 12.2785 5.60699 12.4261C6.38078 12.5907 7.16293 12.7133 7.95 12.7931C8.79716 12.8807 9.64832 12.924 10.5 12.9231ZM10.5 19.1471C11.4877 19.1476 12.4744 19.0808 13.453 18.9471C14.3439 18.8301 15.2252 18.649 16.09 18.4051C16.7843 18.2137 17.4552 17.9453 18.09 17.6051C18.5295 17.4011 18.8969 17.0688 19.144 16.6521V12.9011C18.5856 13.2165 18.0015 13.4841 17.398 13.7011C16.7206 13.9447 16.0273 14.1415 15.323 14.2901C14.5555 14.4527 13.7797 14.5732 12.999 14.6511C12.1683 14.7346 11.3339 14.776 10.499 14.7751C9.64732 14.7759 8.79618 14.7325 7.94901 14.6451C7.16194 14.5652 6.37979 14.4427 5.606 14.2781C4.90894 14.1304 4.2227 13.9357 3.552 13.6951C2.96195 13.4853 2.39281 13.2209 1.85201 12.9051V16.6751C2.09199 17.093 2.45717 17.425 2.896 17.6241C3.53092 17.955 4.19938 18.2172 4.89 18.4061C5.75806 18.6506 6.64272 18.8317 7.537 18.9481C8.51904 19.0812 9.50897 19.1477 10.5 19.1471Z" fill="black"/>
</g>
<defs>
<clipPath id="clip0_1_684">
<rect width="21" height="21" fill="white"/>
</clipPath>
</defs>
</svg>
