<svg width="42" height="42" viewBox="0 0 42 42" fill="none" xmlns="http://www.w3.org/2000/svg">
<rect width="42" height="42" rx="8" fill="#6E7A7D"/>
<path d="M25.5714 26.3846C27.1524 26.3846 28.5 25.8596 29.6143 24.8096C30.7286 23.7596 31.2857 22.4897 31.2857 21C31.2857 19.5103 30.7286 18.2404 29.6143 17.1904C28.5 16.1404 27.1524 15.6154 25.5714 15.6154C24.9472 15.6154 24.3538 15.7076 23.7911 15.8919C23.2285 16.0762 22.7193 16.3333 22.2637 16.6632C22.7721 17.2611 23.1648 17.9291 23.4417 18.6671C23.7187 19.405 23.8571 20.1826 23.8571 21C23.8571 21.8174 23.7187 22.595 23.4417 23.3329C23.1648 24.0709 22.7721 24.7389 22.2637 25.3368C22.7193 25.6667 23.2285 25.9238 23.7911 26.1081C24.3538 26.2924 24.9472 26.3846 25.5714 26.3846ZM21 24.2308C21.3619 23.7821 21.6429 23.284 21.8429 22.7365C22.0429 22.1891 22.1429 21.6103 22.1429 21C22.1429 20.3897 22.0429 19.8109 21.8429 19.2635C21.6429 18.716 21.3619 18.2179 21 17.7692C20.6381 18.2179 20.3571 18.716 20.1571 19.2635C19.9571 19.8109 19.8571 20.3897 19.8571 21C19.8571 21.6103 19.9571 22.1891 20.1571 22.7365C20.3571 23.284 20.6381 23.7821 21 24.2308ZM16.4286 26.3846C17.0528 26.3846 17.6462 26.2924 18.2089 26.1081C18.7715 25.9238 19.2807 25.6667 19.7363 25.3368C19.2279 24.7389 18.8352 24.0709 18.5583 23.3329C18.2813 22.595 18.1429 21.8174 18.1429 21C18.1429 20.1826 18.2813 19.405 18.5583 18.6671C18.8352 17.9291 19.2279 17.2611 19.7363 16.6632C19.2807 16.3333 18.7715 16.0762 18.2089 15.8919C17.6462 15.7076 17.0528 15.6154 16.4286 15.6154C14.8476 15.6154 13.5 16.1404 12.3857 17.1904C11.2714 18.2404 10.7143 19.5103 10.7143 21C10.7143 22.4897 11.2714 23.7596 12.3857 24.8096C13.5 25.8596 14.8476 26.3846 16.4286 26.3846ZM16.4286 28C14.3611 28 12.6062 27.3204 11.1637 25.9611C9.72124 24.6019 9 22.9482 9 21C9 19.0518 9.72124 17.3981 11.1637 16.0389C12.6062 14.6796 14.3611 14 16.4286 14C17.3004 14 18.1238 14.1322 18.8989 14.3966C19.6739 14.661 20.3743 15.0328 21 15.512C21.6257 15.0328 22.3261 14.661 23.1011 14.3966C23.8762 14.1322 24.6996 14 25.5714 14C27.6389 14 29.3938 14.6796 30.8363 16.0389C32.2788 17.3981 33 19.0518 33 21C33 22.9482 32.2788 24.6019 30.8363 25.9611C29.3938 27.3204 27.6389 28 25.5714 28C24.6996 28 23.8762 27.8678 23.1011 27.6034C22.3261 27.339 21.6257 26.9672 21 26.488C20.3743 26.9672 19.6739 27.339 18.8989 27.6034C18.1238 27.8678 17.3004 28 16.4286 28Z" fill="white"/>
</svg>
