<svg width="46" height="47" viewBox="0 0 46 47" fill="none" xmlns="http://www.w3.org/2000/svg">
<g filter="url(#filter0_dd_701_3319)">
<rect x="2" y="1.93652" width="42" height="42" rx="21" fill="#5867CC"/>
</g>
<path d="M23.3559 33.9365C22.7709 33.9365 22.2758 33.7339 21.8706 33.3286C21.4653 32.9234 21.2627 32.4283 21.2627 31.8433V23.2929C21.2627 22.7079 21.4653 22.2128 21.8706 21.8076C22.2758 21.4023 22.7709 21.1997 23.3559 21.1997H31.9063C32.4913 21.1997 32.9864 21.4023 33.3916 21.8076C33.7969 22.2128 33.9995 22.7079 33.9995 23.2929V31.8433C33.9995 32.4283 33.7969 32.9234 33.3916 33.3286C32.9864 33.7339 32.4913 33.9365 31.9063 33.9365H23.3559ZM23.3559 32.1997H31.9063C31.9955 32.1997 32.0771 32.1625 32.1512 32.0882C32.2255 32.0141 32.2627 31.9325 32.2627 31.8433V23.2929C32.2627 23.2037 32.2255 23.1221 32.1512 23.048C32.0771 22.9737 31.9955 22.9365 31.9063 22.9365H23.3559C23.2667 22.9365 23.1851 22.9737 23.111 23.048C23.0367 23.1221 22.9995 23.2037 22.9995 23.2929V31.8433C22.9995 31.9325 23.0367 32.0141 23.111 32.0882C23.1851 32.1625 23.2667 32.1997 23.3559 32.1997ZM16.6311 29.4384V18.6613C16.6311 18.0764 16.8337 17.5813 17.239 17.176C17.6442 16.7707 18.1393 16.5681 18.7243 16.5681H29.5014V18.3049H18.7243C18.6351 18.3049 18.5535 18.3421 18.4794 18.4164C18.4051 18.4905 18.3679 18.5721 18.3679 18.6613V29.4384H16.6311ZM11.9995 24.8068V14.0297C11.9995 13.4448 12.2021 12.9497 12.6074 12.5444C13.0127 12.1392 13.5078 11.9365 14.0927 11.9365H24.8698V13.6734H14.0927C14.0035 13.6734 13.9219 13.7105 13.8478 13.7848C13.7735 13.8589 13.7364 13.9405 13.7364 14.0297V24.8068H11.9995Z" fill="white"/>
<defs>
<filter id="filter0_dd_701_3319" x="0" y="0.936523" width="46" height="46" filterUnits="userSpaceOnUse" color-interpolation-filters="sRGB">
<feFlood flood-opacity="0" result="BackgroundImageFix"/>
<feColorMatrix in="SourceAlpha" type="matrix" values="0 0 0 0 0 0 0 0 0 0 0 0 0 0 0 0 0 0 127 0" result="hardAlpha"/>
<feMorphology radius="1" operator="dilate" in="SourceAlpha" result="effect1_dropShadow_701_3319"/>
<feOffset/>
<feComposite in2="hardAlpha" operator="out"/>
<feColorMatrix type="matrix" values="0 0 0 0 0 0 0 0 0 0 0 0 0 0 0 0 0 0 0.08 0"/>
<feBlend mode="normal" in2="BackgroundImageFix" result="effect1_dropShadow_701_3319"/>
<feColorMatrix in="SourceAlpha" type="matrix" values="0 0 0 0 0 0 0 0 0 0 0 0 0 0 0 0 0 0 127 0" result="hardAlpha"/>
<feOffset dy="1"/>
<feGaussianBlur stdDeviation="1"/>
<feComposite in2="hardAlpha" operator="out"/>
<feColorMatrix type="matrix" values="0 0 0 0 0.270588 0 0 0 0 0.270588 0 0 0 0 0.270588 0 0 0 0.25 0"/>
<feBlend mode="normal" in2="effect1_dropShadow_701_3319" result="effect2_dropShadow_701_3319"/>
<feBlend mode="normal" in="SourceGraphic" in2="effect2_dropShadow_701_3319" result="shape"/>
</filter>
</defs>
</svg>
