<svg xmlns="http://www.w3.org/2000/svg" width="21" height="21" viewBox="0 0 21 21">
  <path id="database_24dp_000000_FILL0_wght300_GRAD0_opsz24_2_" data-name="database_24dp_000000_FILL0_wght300_GRAD0_opsz24 (2)" d="M150.5-799a19.316,19.316,0,0,1-7.5-1.27q-3-1.27-3-3.172v-12.234q0-1.789,3.074-3.056A19.469,19.469,0,0,1,150.5-820a19.469,19.469,0,0,1,7.426,1.267Q161-817.465,161-815.676v12.234q0,1.9-3,3.172A19.316,19.316,0,0,1,150.5-799Zm0-14.258a20.175,20.175,0,0,0,5.439-.764q2.738-.764,3.173-1.648-.423-.907-3.139-1.692a19.615,19.615,0,0,0-5.472-.785,19.966,19.966,0,0,0-5.453.764q-2.7.764-3.182,1.666.468.926,3.158,1.693A19.9,19.9,0,0,0,150.5-813.258Zm0,6.181a24.737,24.737,0,0,0,2.5-.123,21.4,21.4,0,0,0,2.324-.361,15.669,15.669,0,0,0,2.075-.589,11.324,11.324,0,0,0,1.746-.8v-4.383a11.382,11.382,0,0,1-1.746.8,15.707,15.707,0,0,1-2.075.589,21.382,21.382,0,0,1-2.324.361,24.772,24.772,0,0,1-2.5.123,24.53,24.53,0,0,1-2.55-.13,21.907,21.907,0,0,1-2.343-.367,15.687,15.687,0,0,1-2.054-.583,10.065,10.065,0,0,1-1.7-.79v4.383a10.028,10.028,0,0,0,1.7.79,15.725,15.725,0,0,0,2.054.583,21.861,21.861,0,0,0,2.343.367A24.531,24.531,0,0,0,150.5-807.077Zm0,6.224a21.74,21.74,0,0,0,2.953-.2,18.667,18.667,0,0,0,2.637-.542,9.682,9.682,0,0,0,2-.8,2.4,2.4,0,0,0,1.054-.953v-3.751a11.365,11.365,0,0,1-1.746.8,15.715,15.715,0,0,1-2.075.589,21.519,21.519,0,0,1-2.324.361,24.754,24.754,0,0,1-2.5.124,24.615,24.615,0,0,1-2.55-.13,21.876,21.876,0,0,1-2.343-.367,15.754,15.754,0,0,1-2.054-.583,10.046,10.046,0,0,1-1.7-.79v3.77a2.3,2.3,0,0,0,1.044.949,10.054,10.054,0,0,0,1.994.782,18.636,18.636,0,0,0,2.647.542A21.945,21.945,0,0,0,150.5-800.853Z" transform="translate(-140 820)"/>
</svg>
