<svg width="44" height="47" viewBox="0 0 44 47" fill="none" xmlns="http://www.w3.org/2000/svg">
<g filter="url(#filter0_dd_701_3338)">
<rect x="2" y="1.93652" width="40" height="42" rx="20" fill="#CCA758"/>
</g>
<path d="M26.5714 28.3211C28.1524 28.3211 29.5 27.7961 30.6143 26.7461C31.7286 25.6961 32.2857 24.4263 32.2857 22.9365C32.2857 21.4468 31.7286 20.1769 30.6143 19.1269C29.5 18.0769 28.1524 17.5519 26.5714 17.5519C25.9472 17.5519 25.3538 17.6441 24.7911 17.8284C24.2285 18.0127 23.7193 18.2699 23.2637 18.5998C23.7721 19.1976 24.1648 19.8656 24.4417 20.6036C24.7187 21.3415 24.8571 22.1191 24.8571 22.9365C24.8571 23.7539 24.7187 24.5315 24.4417 25.2694C24.1648 26.0075 23.7721 26.6754 23.2637 27.2733C23.7193 27.6032 24.2285 27.8603 24.7911 28.0446C25.3538 28.229 25.9472 28.3211 26.5714 28.3211ZM22 26.1673C22.3619 25.7186 22.6429 25.2205 22.8429 24.6731C23.0429 24.1256 23.1429 23.5468 23.1429 22.9365C23.1429 22.3263 23.0429 21.7474 22.8429 21.2C22.6429 20.6525 22.3619 20.1545 22 19.7058C21.6381 20.1545 21.3571 20.6525 21.1571 21.2C20.9571 21.7474 20.8571 22.3263 20.8571 22.9365C20.8571 23.5468 20.9571 24.1256 21.1571 24.6731C21.3571 25.2205 21.6381 25.7186 22 26.1673ZM17.4286 28.3211C18.0528 28.3211 18.6462 28.229 19.2089 28.0446C19.7715 27.8603 20.2807 27.6032 20.7363 27.2733C20.2279 26.6754 19.8352 26.0075 19.5583 25.2694C19.2813 24.5315 19.1429 23.7539 19.1429 22.9365C19.1429 22.1191 19.2813 21.3415 19.5583 20.6036C19.8352 19.8656 20.2279 19.1976 20.7363 18.5998C20.2807 18.2699 19.7715 18.0127 19.2089 17.8284C18.6462 17.6441 18.0528 17.5519 17.4286 17.5519C15.8476 17.5519 14.5 18.0769 13.3857 19.1269C12.2714 20.1769 11.7143 21.4468 11.7143 22.9365C11.7143 24.4263 12.2714 25.6961 13.3857 26.7461C14.5 27.7961 15.8476 28.3211 17.4286 28.3211ZM17.4286 29.9365C15.3611 29.9365 13.6062 29.2569 12.1637 27.8976C10.7212 26.5384 10 24.8847 10 22.9365C10 20.9884 10.7212 19.3347 12.1637 17.9754C13.6062 16.6162 15.3611 15.9365 17.4286 15.9365C18.3004 15.9365 19.1238 16.0687 19.8989 16.3331C20.6739 16.5975 21.3743 16.9693 22 17.4485C22.6257 16.9693 23.3261 16.5975 24.1011 16.3331C24.8762 16.0687 25.6996 15.9365 26.5714 15.9365C28.6389 15.9365 30.3938 16.6162 31.8363 17.9754C33.2788 19.3347 34 20.9884 34 22.9365C34 24.8847 33.2788 26.5384 31.8363 27.8976C30.3938 29.2569 28.6389 29.9365 26.5714 29.9365C25.6996 29.9365 24.8762 29.8043 24.1011 29.5399C23.3261 29.2756 22.6257 28.9038 22 28.4245C21.3743 28.9038 20.6739 29.2756 19.8989 29.5399C19.1238 29.8043 18.3004 29.9365 17.4286 29.9365Z" fill="white"/>
<defs>
<filter id="filter0_dd_701_3338" x="0" y="0.936523" width="44" height="46" filterUnits="userSpaceOnUse" color-interpolation-filters="sRGB">
<feFlood flood-opacity="0" result="BackgroundImageFix"/>
<feColorMatrix in="SourceAlpha" type="matrix" values="0 0 0 0 0 0 0 0 0 0 0 0 0 0 0 0 0 0 127 0" result="hardAlpha"/>
<feMorphology radius="1" operator="dilate" in="SourceAlpha" result="effect1_dropShadow_701_3338"/>
<feOffset/>
<feComposite in2="hardAlpha" operator="out"/>
<feColorMatrix type="matrix" values="0 0 0 0 0 0 0 0 0 0 0 0 0 0 0 0 0 0 0.08 0"/>
<feBlend mode="normal" in2="BackgroundImageFix" result="effect1_dropShadow_701_3338"/>
<feColorMatrix in="SourceAlpha" type="matrix" values="0 0 0 0 0 0 0 0 0 0 0 0 0 0 0 0 0 0 127 0" result="hardAlpha"/>
<feOffset dy="1"/>
<feGaussianBlur stdDeviation="1"/>
<feComposite in2="hardAlpha" operator="out"/>
<feColorMatrix type="matrix" values="0 0 0 0 0.270588 0 0 0 0 0.270588 0 0 0 0 0.270588 0 0 0 0.25 0"/>
<feBlend mode="normal" in2="effect1_dropShadow_701_3338" result="effect2_dropShadow_701_3338"/>
<feBlend mode="normal" in="SourceGraphic" in2="effect2_dropShadow_701_3338" result="shape"/>
</filter>
</defs>
</svg>
