<svg width="60" height="50" viewBox="0 0 60 50" fill="none" xmlns="http://www.w3.org/2000/svg">
<path d="M25.338 35.6912C31.116 35.2302 34.205 35.6912 33.338 42.3982H6.66701C5.76701 35.4982 8.74301 35.2602 14.667 35.6912V15.7912C14.667 14.0562 18.051 11.9652 19.775 11.9522C21.541 11.9392 25.336 14.1422 25.336 15.7912L25.338 35.6912ZM21.667 18.5802C22.1632 18.141 22.4693 17.5263 22.5209 16.8657C22.5724 16.2051 22.3653 15.5503 21.9432 15.0395C21.5212 14.5287 20.9172 14.2019 20.2587 14.1279C19.6003 14.054 18.9388 14.2387 18.414 14.6432C15.487 16.7512 19.393 20.7672 21.667 18.5802Z" fill="#2256A8"/>
<path d="M40.007 50.0002H0L0.22 45.0791L1.201 44.2792L38.439 44.2021C40.931 44.6721 39.774 48.1912 40.007 50.0022" fill="#2256A8"/>
<path d="M52.9533 13.3892L51.3133 17.8232L56.6243 20.4552L56.9033 21.8282L49.1913 22.6762L44.6133 16.2442L47.8223 9.34423L55.2533 8.49023L59.9993 14.9012C59.4583 15.6012 59.4463 15.5562 58.6653 15.3682C57.3963 15.0682 53.9663 12.7422 52.9533 13.3892Z" fill="#2256A8"/>
<path d="M26.231 16.4631C25.467 11.9391 22.306 10.1261 17.924 11.0291C17.343 11.1481 17.08 10.9991 17.339 10.4291C20.903 6.98609 23.875 -2.99991 30.382 0.881087C36.889 4.76209 29.446 13.0001 26.231 16.4631ZM27.446 2.66809C24.989 3.14609 24.582 6.70809 26.989 7.42909C31.573 8.80209 31.019 1.97309 27.446 2.66809Z" fill="#2256A8"/>
<path d="M33.7842 3.05327C37.7002 4.54527 48.3982 6.49527 45.2782 12.6063C42.6182 17.8233 35.9782 12.7533 32.2052 11.5603C31.6052 10.7963 33.8712 8.79527 34.1292 7.65127C34.4657 6.11683 34.3444 4.51737 33.7802 3.05127" fill="#2256A8"/>
</svg>
