<svg xmlns="http://www.w3.org/2000/svg" width="100" height="39.826" viewBox="0 0 100 39.826">
  <path id="communication_24dp_000000_FILL0_wght200_GRAD0_opsz24" d="M102.161-646.857l-2.985-2.986a9.138,9.138,0,0,0,1.08-2.907,17.191,17.191,0,0,0,.312-3.3,15.087,15.087,0,0,0-.357-3.3,8.515,8.515,0,0,0-1.126-2.788l2.985-3.013a12.6,12.6,0,0,1,2.033,4.221,18.013,18.013,0,0,1,.677,4.881,19.63,19.63,0,0,1-.631,4.913,12.251,12.251,0,0,1-1.988,4.281Zm9.3,9.231-3.013-3.013a23.069,23.069,0,0,0,4.1-7.381,25.769,25.769,0,0,0,1.3-8.123,25.649,25.649,0,0,0-1.3-8.109,22.067,22.067,0,0,0-4.1-7.275l3.013-3.013a27.319,27.319,0,0,1,4.958,8.7,29.453,29.453,0,0,1,1.644,9.7,29.579,29.579,0,0,1-1.644,9.717,28.368,28.368,0,0,1-4.958,8.8ZM76.667-653.761a6.9,6.9,0,0,1-5.077-2.065,6.9,6.9,0,0,1-2.065-5.077,6.9,6.9,0,0,1,2.065-5.077,6.9,6.9,0,0,1,5.077-2.065,6.9,6.9,0,0,1,5.077,2.065A6.9,6.9,0,0,1,83.81-660.9a6.9,6.9,0,0,1-2.065,5.077A6.9,6.9,0,0,1,76.667-653.761ZM60-634.714v-.815a5.971,5.971,0,0,1,1.181-3.635,7.985,7.985,0,0,1,3.187-2.519,26.33,26.33,0,0,1,5.912-1.932,32.263,32.263,0,0,1,6.387-.623,32.263,32.263,0,0,1,6.387.623,26.33,26.33,0,0,1,5.912,1.932,7.985,7.985,0,0,1,3.187,2.519,5.971,5.971,0,0,1,1.181,3.635v.815Zm83.333-19.048a6.9,6.9,0,0,1-5.077-2.065,6.9,6.9,0,0,1-2.065-5.077,6.9,6.9,0,0,1,2.065-5.077,6.9,6.9,0,0,1,5.077-2.065,6.9,6.9,0,0,1,5.077,2.065,6.9,6.9,0,0,1,2.065,5.077,6.9,6.9,0,0,1-2.065,5.077A6.9,6.9,0,0,1,143.333-653.761Zm-16.667,19.048v-.815a5.971,5.971,0,0,1,1.181-3.635,7.985,7.985,0,0,1,3.187-2.519,26.33,26.33,0,0,1,5.912-1.932,32.263,32.263,0,0,1,6.387-.623,32.263,32.263,0,0,1,6.387.623,26.33,26.33,0,0,1,5.912,1.932,7.985,7.985,0,0,1,3.187,2.519A5.971,5.971,0,0,1,160-635.529v.815Z" transform="translate(-60 674.54)"/>
</svg>
