<svg width="72" height="71" viewBox="0 0 72 71" fill="none" xmlns="http://www.w3.org/2000/svg">
<g id="Group" filter="url(#filter0_d_14_2805)">
<path id="forum_24dp_000000_FILL0_wght300_GRAD0_opsz24" d="M6.00055 64.8142L17.3057 53.5098H48.5178C49.2613 53.5204 49.9991 53.3786 50.6858 53.093C51.3724 52.8075 51.9932 52.3843 52.5099 51.8495C53.0448 51.3329 53.4681 50.7121 53.7536 50.0256C54.0392 49.339 54.181 48.6011 54.1703 47.8576V45.8918H19.3946C18.635 45.9027 17.8812 45.7578 17.1797 45.466C16.4782 45.1743 15.844 44.742 15.3161 44.1957C14.7697 43.6677 14.3373 43.0333 14.0455 42.3318C13.7538 41.6302 13.6089 40.8763 13.6199 40.1166V17.9998H11.6531C10.9096 17.9892 10.1717 18.1311 9.4851 18.4166C8.79849 18.7022 8.17767 19.1254 7.66096 19.6601C7.12618 20.1768 6.70294 20.7976 6.41737 21.4842C6.1318 22.1707 5.98994 22.9085 6.00055 23.6521V64.8142ZM60.6832 39.2335L56.1607 34.7112H25.7845C25.6542 34.7158 25.5243 34.6936 25.4028 34.6461C25.2813 34.5986 25.1708 34.5268 25.0781 34.435C24.9863 34.3422 24.9144 34.2317 24.8669 34.11C24.8194 33.9884 24.7973 33.8584 24.8019 33.7279V12.5937C24.7973 12.4632 24.8194 12.3331 24.8669 12.2115C24.9144 12.0899 24.9863 11.9793 25.0781 11.8865C25.1708 11.7948 25.2813 11.7229 25.4028 11.6755C25.5243 11.628 25.6542 11.6058 25.7845 11.6104H59.699C59.8295 11.6058 59.9595 11.628 60.0811 11.6755C60.2027 11.7229 60.3133 11.7948 60.4062 11.8865C60.498 11.9793 60.5699 12.0899 60.6174 12.2115C60.6649 12.3331 60.687 12.4632 60.6824 12.5937L60.6832 39.2335ZM65.4754 50.8108V12.5969C65.4863 11.8372 65.3414 11.0833 65.0497 10.3817C64.7579 9.68018 64.3256 9.04585 63.7792 8.51785C63.2513 7.97077 62.617 7.53771 61.9152 7.24542C61.2134 6.95313 60.4592 6.80781 59.699 6.81844H25.7845C25.0249 6.80756 24.2711 6.95245 23.5696 7.24418C22.8681 7.5359 22.2339 7.96824 21.706 8.51457C21.1596 9.04257 20.7272 9.67695 20.4355 10.3785C20.1437 11.0801 19.9988 11.8339 20.0097 12.5937V33.7279C19.9988 34.4876 20.1437 35.2415 20.4354 35.9431C20.7271 36.6447 21.1596 37.279 21.706 37.807C22.2339 38.3533 22.8681 38.7857 23.5696 39.0774C24.2711 39.3691 25.0249 39.514 25.7845 39.5031H54.1703L65.4754 50.8108Z" fill="black"/>
</g>
<defs>
<filter id="filter0_d_14_2805" x="0" y="0.817871" width="71.4761" height="69.9966" filterUnits="userSpaceOnUse" color-interpolation-filters="sRGB">
<feFlood flood-opacity="0" result="BackgroundImageFix"/>
<feColorMatrix in="SourceAlpha" type="matrix" values="0 0 0 0 0 0 0 0 0 0 0 0 0 0 0 0 0 0 127 0" result="hardAlpha"/>
<feOffset/>
<feGaussianBlur stdDeviation="3"/>
<feColorMatrix type="matrix" values="0 0 0 0 0 0 0 0 0 0 0 0 0 0 0 0 0 0 0.259 0"/>
<feBlend mode="normal" in2="BackgroundImageFix" result="effect1_dropShadow_14_2805"/>
<feBlend mode="normal" in="SourceGraphic" in2="effect1_dropShadow_14_2805" result="shape"/>
</filter>
</defs>
</svg>
