<svg xmlns="http://www.w3.org/2000/svg" width="78.333" height="35" viewBox="0 0 78.333 35">
  <path id="all_inclusive_24dp_000000_FILL0_wght300_GRAD0_opsz24" d="M27.5-655a16.887,16.887,0,0,1-12.409-5.09A16.882,16.882,0,0,1,10-672.5a16.89,16.89,0,0,1,5.091-12.409A16.882,16.882,0,0,1,27.5-690a15.375,15.375,0,0,1,5.592,1.035,15.912,15.912,0,0,1,4.832,2.939l6.372,5.616-3.782,3.346-5.937-5.243a11.4,11.4,0,0,0-3.288-1.975A10.28,10.28,0,0,0,27.5-685a12.037,12.037,0,0,0-8.837,3.663A12.051,12.051,0,0,0,15-672.495a12.037,12.037,0,0,0,3.66,8.838A12.047,12.047,0,0,0,27.5-660a10.279,10.279,0,0,0,3.791-.717,11.4,11.4,0,0,0,3.288-1.975L60.41-686.026a14.932,14.932,0,0,1,4.81-2.955A15.7,15.7,0,0,1,70.833-690a16.888,16.888,0,0,1,12.409,5.09A16.883,16.883,0,0,1,88.333-672.5a16.889,16.889,0,0,1-5.091,12.409A16.881,16.881,0,0,1,70.833-655a15.022,15.022,0,0,1-5.58-1.052,17.023,17.023,0,0,1-4.843-2.922L54.1-664.59l3.718-3.378,5.937,5.276a10.656,10.656,0,0,0,3.288,1.994,10.526,10.526,0,0,0,3.791.7,12.037,12.037,0,0,0,8.838-3.662,12.051,12.051,0,0,0,3.66-8.842,12.037,12.037,0,0,0-3.66-8.838A12.047,12.047,0,0,0,70.836-685a10.28,10.28,0,0,0-3.791.717,11.4,11.4,0,0,0-3.288,1.975L37.923-658.974a14.935,14.935,0,0,1-4.81,2.955A15.705,15.705,0,0,1,27.5-655Z" transform="translate(-10 690)"/>
</svg>
