<svg xmlns="http://www.w3.org/2000/svg" xmlns:xlink="http://www.w3.org/1999/xlink" width="227.155" height="244.738" viewBox="0 0 227.155 244.738">
  <defs>
    <filter id="forum_24dp_000000_FILL0_wght300_GRAD0_opsz24" x="60.155" y="70" width="108" height="105.768" filterUnits="userSpaceOnUse">
      <feOffset input="SourceAlpha"/>
      <feGaussianBlur stdDeviation="3" result="blur"/>
      <feFlood flood-opacity="0.259"/>
      <feComposite operator="in" in2="blur"/>
      <feComposite in="SourceGraphic"/>
    </filter>
    <filter id="thumb_up_24dp_000000_FILL1_wght300_GRAD0_opsz24" x="132" y="155" width="95.155" height="89.738" filterUnits="userSpaceOnUse">
      <feOffset input="SourceAlpha"/>
      <feGaussianBlur stdDeviation="3" result="blur-2"/>
      <feFlood flood-opacity="0.259"/>
      <feComposite operator="in" in2="blur-2"/>
      <feComposite in="SourceGraphic"/>
    </filter>
    <filter id="thumb_up_24dp_000000_FILL1_wght300_GRAD0_opsz24-2" x="0" y="0" width="95.155" height="89.738" filterUnits="userSpaceOnUse">
      <feOffset input="SourceAlpha"/>
      <feGaussianBlur stdDeviation="3" result="blur-3"/>
      <feFlood flood-opacity="0.259"/>
      <feComposite operator="in" in2="blur-3"/>
      <feComposite in="SourceGraphic"/>
    </filter>
  </defs>
  <g id="Group_12398" data-name="Group 12398" transform="translate(9 9)">
    <g transform="matrix(1, 0, 0, 1, -9, -9)" filter="url(#forum_24dp_000000_FILL0_wght300_GRAD0_opsz24)">
      <path id="forum_24dp_000000_FILL0_wght300_GRAD0_opsz24-2" data-name="forum_24dp_000000_FILL0_wght300_GRAD0_opsz24" d="M107.69-772.232,124.8-789.34h47.231a8.237,8.237,0,0,0,6.041-2.513,8.234,8.234,0,0,0,2.513-6.041v-2.975H127.958a8.415,8.415,0,0,1-6.171-2.567,8.416,8.416,0,0,1-2.567-6.173v-33.471h-2.976a8.237,8.237,0,0,0-6.041,2.513,8.237,8.237,0,0,0-2.513,6.041Zm82.748-38.714-6.843-6.843H137.628a1.447,1.447,0,0,1-1.068-.418,1.448,1.448,0,0,1-.418-1.07V-851.26a1.448,1.448,0,0,1,.418-1.07,1.447,1.447,0,0,1,1.068-.418H188.95a1.451,1.451,0,0,1,1.07.418,1.448,1.448,0,0,1,.418,1.07v40.314Zm7.252,17.516v-57.83a8.416,8.416,0,0,0-2.567-6.173A8.416,8.416,0,0,0,188.95-860H137.628a8.415,8.415,0,0,0-6.171,2.567,8.416,8.416,0,0,0-2.567,6.173v31.983a8.416,8.416,0,0,0,2.567,6.173,8.414,8.414,0,0,0,6.171,2.567h42.955Zm-7.252-25.847v0Z" transform="translate(-38.53 939)"/>
    </g>
    <g transform="matrix(1, 0, 0, 1, -9, -9)" filter="url(#thumb_up_24dp_000000_FILL1_wght300_GRAD0_opsz24)">
      <path id="thumb_up_24dp_000000_FILL1_wght300_GRAD0_opsz24-3" data-name="thumb_up_24dp_000000_FILL1_wght300_GRAD0_opsz24" d="M118.4-812.1H156.6v-46.293L131.01-883.84l-3.264,3.264a4.661,4.661,0,0,0-1,1.591,5.024,5.024,0,0,0-.4,1.866v.979l4.1,17.746H106.974a6.68,6.68,0,0,0-4.863,2.111A6.68,6.68,0,0,0,100-851.421v6.231a7.308,7.308,0,0,0,.126,1.3,6.24,6.24,0,0,0,.378,1.3l11.054,26.084a7.318,7.318,0,0,0,2.781,3.131A7.312,7.312,0,0,0,118.4-812.1Zm43.993-46.293V-812.1h14.764v-46.293Z" transform="translate(41 1047.84)"/>
    </g>
    <g transform="matrix(1, 0, 0, 1, -9, -9)" filter="url(#thumb_up_24dp_000000_FILL1_wght300_GRAD0_opsz24-2)">
      <path id="thumb_up_24dp_000000_FILL1_wght300_GRAD0_opsz24-4" data-name="thumb_up_24dp_000000_FILL1_wght300_GRAD0_opsz24" d="M158.756-883.84H120.55v46.293L146.144-812.1l3.264-3.264a4.661,4.661,0,0,0,1-1.591,5.024,5.024,0,0,0,.4-1.866v-.979l-4.1-17.745h23.473a6.68,6.68,0,0,0,4.863-2.111,6.68,6.68,0,0,0,2.111-4.863v-6.231a7.308,7.308,0,0,0-.126-1.3,6.24,6.24,0,0,0-.378-1.3L165.6-879.433a7.318,7.318,0,0,0-2.781-3.13A7.312,7.312,0,0,0,158.756-883.84Zm-43.993,46.293V-883.84H100v46.293Z" transform="translate(-91 892.84)"/>
    </g>
  </g>
</svg>
