<svg xmlns="http://www.w3.org/2000/svg" xmlns:xlink="http://www.w3.org/1999/xlink" width="91" height="89.189" viewBox="0 0 91 89.189">
  <defs>
    <filter id="forum_24dp_000000_FILL0_wght300_GRAD0_opsz24" x="0" y="0" width="91" height="89.189" filterUnits="userSpaceOnUse">
      <feOffset input="SourceAlpha"/>
      <feGaussianBlur stdDeviation="3" result="blur"/>
      <feFlood flood-opacity="0.259"/>
      <feComposite operator="in" in2="blur"/>
      <feComposite in="SourceGraphic"/>
    </filter>
  </defs>
  <g id="Group_12980" data-name="Group 12980" transform="translate(-37.155 -31)">
    <g transform="matrix(1, 0, 0, 1, 37.16, 31)" filter="url(#forum_24dp_000000_FILL0_wght300_GRAD0_opsz24)">
      <path id="forum_24dp_000000_FILL0_wght300_GRAD0_opsz24-2" data-name="forum_24dp_000000_FILL0_wght300_GRAD0_opsz24" d="M107.69-788.811l13.876-13.876h38.31a6.681,6.681,0,0,0,4.9-2.038,6.679,6.679,0,0,0,2.038-4.9v-2.413H124.13a6.825,6.825,0,0,1-5.006-2.082,6.826,6.826,0,0,1-2.082-5.007v-27.148h-2.414a6.681,6.681,0,0,0-4.9,2.038,6.681,6.681,0,0,0-2.038,4.9Zm67.118-31.4-5.551-5.551H131.973a1.174,1.174,0,0,1-.867-.339,1.175,1.175,0,0,1-.339-.868v-25.942a1.175,1.175,0,0,1,.339-.868,1.174,1.174,0,0,1,.867-.339H173.6a1.177,1.177,0,0,1,.868.339,1.175,1.175,0,0,1,.339.868ZM180.69-806v-46.907a6.827,6.827,0,0,0-2.082-5.007A6.826,6.826,0,0,0,173.6-860H131.973a6.825,6.825,0,0,0-5.006,2.082,6.827,6.827,0,0,0-2.082,5.007v25.942a6.826,6.826,0,0,0,2.082,5.007,6.825,6.825,0,0,0,5.006,2.082h34.841Zm-5.882-20.965v0Z" transform="translate(-98.69 869)"/>
    </g>
  </g>
</svg>
