<svg xmlns="http://www.w3.org/2000/svg" width="26.097" height="26" viewBox="0 0 26.097 26">
  <g id="Group_10350" data-name="Group 10350" transform="translate(7110 -1769)">
    <rect id="Rectangle_5634" data-name="Rectangle 5634" width="26" height="26" transform="translate(-7110 1769)" fill="none"/>
    <g id="Group_12993" data-name="Group 12993" transform="translate(-7109.213 1771.441)">
      <g id="Group_12994" data-name="Group 12994" transform="translate(0 0)">
        <path id="Path_18856" data-name="Path 18856" d="M56.327,22.341c.249-.039.383.089.565.219a29.184,29.184,0,0,1,2.593,2.6c.541.84-.367,1.18-.82,1.65-2.482,2.57-5.022,5.056-7.563,7.563-.737.728-1.53,1.765-2.312,2.415a22.342,22.342,0,0,1-4.1,1.342c-.417.059-.718-.052-.829-.483l1.272-4.28,10.693-10.7a1.116,1.116,0,0,1,.5-.333m.092,1.4L55.18,24.981,57.111,26.8l1.13-1.216ZM54.41,25.751l-8.092,8.092c.506.337,1.318,1.548,1.771,1.779.5.256,7.1-7.216,8.1-7.866.079-.089.047-.143,0-.235-.236-.458-1.439-1.262-1.779-1.771M47.142,36.264c-.143-.2-1.257-1.44-1.417-1.3l-.473,1.771Z" transform="translate(-34.438 -17.536)" fill="#161615" stroke="#000" stroke-width="0.25"/>
        <path id="Path_18857" data-name="Path 18857" d="M16.485,8.8V1H1.183l-.177.177v15.3H9.514c-.057.343-.152,1.112-.53,1.183L.291,17.613,0,17.431.049.107,17.313,0l.241.468-.008,7.211Z" fill="#161615" stroke="#000" stroke-width="0.25"/>
        <path id="Path_18858" data-name="Path 18858" d="M14.7,39.588c-.2-.177-.247-.869.117-.948l10.795.02a.711.711,0,0,1,.049.9,1.927,1.927,0,0,1-.651.176,77.868,77.868,0,0,1-8.986.006,6.28,6.28,0,0,1-1.324-.152" transform="translate(-11.421 -30.34)" fill="#161615" stroke="#000" stroke-width="0.25"/>
        <path id="Path_18859" data-name="Path 18859" d="M14.908,20.631H25.543c.374,0,.374,1.064,0,1.064H14.908c-.311,0-.45-.908,0-1.064" transform="translate(-11.48 -16.199)" fill="#161615" stroke="#000" stroke-width="0.25"/>
        <path id="Path_18860" data-name="Path 18860" d="M14.908,56.387h7.444c.394,0,.232,1.064-.118,1.064H14.908c-.311,0-.45-.908,0-1.064" transform="translate(-11.48 -44.275)" fill="#161615" stroke="#000" stroke-width="0.25"/>
      </g>
    </g>
  </g>
</svg>
