<svg width="40" height="35" viewBox="0 0 40 35" fill="none" xmlns="http://www.w3.org/2000/svg">
<g clip-path="url(#clip0_142_1819)">
<path d="M19.9635 35C18.4539 33.8804 16.7842 32.9946 15.0109 32.3726C13.2474 31.7548 11.3919 31.4413 9.52354 31.4454C8.37107 31.4443 7.22218 31.5738 6.09887 31.8316C4.97923 32.089 3.89182 32.4706 2.85688 32.9696C2.55184 33.1249 2.21022 33.1941 1.86883 33.1695C1.52743 33.1449 1.19921 33.0276 0.919541 32.8302C0.628272 32.6496 0.389855 32.3951 0.22842 32.0927C0.0669842 31.7903 -0.0117419 31.4506 0.000206601 31.1079V10.4529C-0.00207504 10.0502 0.111059 9.65532 0.326206 9.31499C0.538431 8.97099 0.855602 8.70438 1.23087 8.55457C2.51494 7.9284 3.86764 7.45424 5.26154 7.14179C6.66063 6.82739 8.09026 6.66924 9.52421 6.67022C11.3576 6.66719 13.1816 6.9326 14.9382 7.458C16.7089 7.99004 18.4086 8.73472 20.0002 9.67581V31.5628C21.573 30.5614 23.2876 29.8027 25.0862 29.3123C26.8427 28.8322 28.6553 28.5881 30.4762 28.5866C31.5142 28.5822 32.5509 28.6594 33.5769 28.8174C34.5995 28.983 35.6081 29.2267 36.5935 29.5464C36.7158 29.583 36.8456 29.5862 36.9695 29.5558C37.0855 29.5251 37.1435 29.4241 37.1435 29.2529V7.84952C37.4729 7.94735 37.7947 8.05609 38.1089 8.17571C38.4276 8.29806 38.7346 8.44895 39.0262 8.62659C39.3396 8.77307 39.597 9.01746 39.7595 9.32297C39.9213 9.62506 40.0052 9.96279 40.0035 10.3055V31.0706C40.0147 31.4151 39.9326 31.7563 39.7658 32.0579C39.599 32.3596 39.3539 32.6105 39.0562 32.7842C38.7603 32.9797 38.4192 33.096 38.0656 33.122C37.7119 33.1481 37.3575 33.0829 37.0362 32.9329C36.0149 32.4464 34.9431 32.0739 33.8402 31.8223C32.7377 31.5707 31.6104 31.444 30.4795 31.4448C28.5956 31.4415 26.7237 31.7454 24.9375 32.3446C23.1443 32.9464 21.4643 33.8439 19.9669 35H19.9635ZM23.8095 26.6809V9.52909L33.3335 0V18.105L23.8095 26.6809ZM17.1429 30.1808V11.4061C15.9573 10.8178 14.7137 10.3546 13.4322 10.024C12.1554 9.69479 10.8421 9.52869 9.52354 9.52974C8.40014 9.52465 7.2791 9.63328 6.17754 9.85393C5.16027 10.0585 4.16486 10.3598 3.20487 10.7537C3.11217 10.7874 3.02781 10.8406 2.95754 10.9098C2.92462 10.9419 2.89868 10.9804 2.88136 11.023C2.86403 11.0656 2.8557 11.1113 2.85688 11.1573V29.321C2.85688 29.4922 2.91487 29.5931 3.03087 29.6238C3.15601 29.6539 3.2874 29.6443 3.40687 29.5964C4.35075 29.2559 5.32366 29.0021 6.31354 28.8381C7.37509 28.6668 8.44895 28.5833 9.52421 28.5886C10.8966 28.5829 12.2654 28.731 13.6049 29.0301C14.819 29.297 16.004 29.6824 17.1429 30.1808Z" fill="#2256A8"/>
</g>
<defs>
<clipPath id="clip0_142_1819">
<rect width="40" height="35" fill="white"/>
</clipPath>
</defs>
</svg>
