<svg width="43" height="44" viewBox="0 0 43 44" fill="none" xmlns="http://www.w3.org/2000/svg">
<rect y="0.770508" width="43" height="43" rx="8" fill="#3B8B3F"/>
<g clip-path="url(#clip0_0_1)">
<path d="M13.0652 26.8269C12.7139 26.1934 12.4485 25.5393 12.2691 24.8647C12.0897 24.1898 12 23.5018 12 22.8005C12 20.3659 12.874 18.294 14.6219 16.5847C16.3698 14.8753 18.4959 14.0205 21 14.0205H21.9067L19.7583 11.9381L20.982 10.752L25.2254 14.8648L20.982 18.9776L19.7583 17.7914L21.9067 15.709H21C18.9826 15.709 17.2686 16.3973 15.8578 17.774C14.4472 19.1508 13.7419 20.8263 13.7419 22.8005C13.7419 23.2667 13.7944 23.7324 13.8993 24.1977C14.0044 24.6632 14.1618 25.1175 14.3716 25.5606L13.0652 26.8269ZM21.018 34.7365L16.7746 30.6237L21.018 26.5109L22.2417 27.697L20.0933 29.7795H21C23.0174 29.7795 24.7314 29.0911 26.1422 27.7145C27.5528 26.3376 28.2581 24.6621 28.2581 22.688C28.2581 22.2217 28.2056 21.756 28.1007 21.2907C27.9956 20.8253 27.8382 20.371 27.6284 19.9279L28.9348 18.6615C29.2861 19.2951 29.5515 19.9492 29.7309 20.6238C29.9103 21.2986 30 21.9867 30 22.688C30 25.1225 29.126 27.1944 27.3781 28.9037C25.6302 30.6132 23.5041 31.4679 21 31.4679H20.0933L22.2417 33.5504L21.018 34.7365Z" fill="white"/>
</g>
<defs>
<clipPath id="clip0_0_1">
<rect width="24" height="23.9846" fill="white" transform="translate(9 10.752)"/>
</clipPath>
</defs>
</svg>
