<svg id="Group_12342" data-name="Group 12342" xmlns="http://www.w3.org/2000/svg" width="67" height="67" viewBox="0 0 67 67">
  <rect id="Rectangle_7209" data-name="Rectangle 7209" width="67" height="67" rx="12" fill="#ffbb2a"/>
  <g id="shopping_bag_24dp_000000_FILL0_wght300_GRAD0_opsz24" transform="translate(19 16)">
    <path id="shopping_bag_24dp_000000_FILL0_wght300_GRAD0_opsz24-2" data-name="shopping_bag_24dp_000000_FILL0_wght300_GRAD0_opsz24" d="M183.425-824a3.306,3.306,0,0,1-2.43-.995,3.306,3.306,0,0,1-.995-2.43V-849a3.306,3.306,0,0,1,.995-2.43,3.306,3.306,0,0,1,2.43-.995h3.68v-.474a6.847,6.847,0,0,1,2.08-5.025,6.847,6.847,0,0,1,5.025-2.08,6.847,6.847,0,0,1,5.025,2.08,6.847,6.847,0,0,1,2.08,5.025v.474H205a3.306,3.306,0,0,1,2.43.995,3.306,3.306,0,0,1,.995,2.43v21.571a3.306,3.306,0,0,1-.995,2.43A3.306,3.306,0,0,1,205-824Zm0-2.842H205a.556.556,0,0,0,.4-.182.556.556,0,0,0,.182-.4V-849a.556.556,0,0,0-.182-.4.556.556,0,0,0-.4-.182h-3.68v4.263a1.374,1.374,0,0,1-.408,1.013,1.374,1.374,0,0,1-1.013.408,1.374,1.374,0,0,1-1.013-.408,1.374,1.374,0,0,1-.408-1.013v-4.263h-8.526v4.263a1.374,1.374,0,0,1-.408,1.013,1.374,1.374,0,0,1-1.013.408,1.374,1.374,0,0,1-1.013-.408,1.374,1.374,0,0,1-.408-1.013v-4.263h-3.68a.556.556,0,0,0-.4.182.556.556,0,0,0-.182.4v21.571a.556.556,0,0,0,.182.4A.556.556,0,0,0,183.425-826.842Zm6.522-25.579h8.526v-.474a4.114,4.114,0,0,0-1.241-3.023,4.113,4.113,0,0,0-3.023-1.241,4.113,4.113,0,0,0-3.023,1.241,4.114,4.114,0,0,0-1.241,3.023Zm-7.105,25.579v0Z" transform="translate(-180 860)"/>
  </g>
</svg>
