<svg xmlns="http://www.w3.org/2000/svg" width="16.579" height="21" viewBox="0 0 16.579 21">
  <path id="shopping_bag_24dp_000000_FILL0_wght300_GRAD0_opsz24" d="M182-839a1.929,1.929,0,0,1-1.418-.58A1.929,1.929,0,0,1,180-841v-12.583a1.929,1.929,0,0,1,.58-1.418,1.929,1.929,0,0,1,1.418-.58h2.147v-.276a3.994,3.994,0,0,1,1.214-2.931A3.994,3.994,0,0,1,188.289-860a3.994,3.994,0,0,1,2.931,1.214,3.994,3.994,0,0,1,1.214,2.931v.276h2.147A1.929,1.929,0,0,1,196-855a1.929,1.929,0,0,1,.58,1.418V-841a1.929,1.929,0,0,1-.58,1.418,1.929,1.929,0,0,1-1.418.58Zm0-1.658h12.583a.325.325,0,0,0,.234-.106.324.324,0,0,0,.106-.234v-12.583a.324.324,0,0,0-.106-.234.325.325,0,0,0-.234-.106h-2.147v2.487a.8.8,0,0,1-.238.591.8.8,0,0,1-.591.238.8.8,0,0,1-.591-.238.8.8,0,0,1-.238-.591v-2.487H185.8v2.487a.8.8,0,0,1-.238.591.8.8,0,0,1-.591.238.8.8,0,0,1-.591-.238.8.8,0,0,1-.238-.591v-2.487H182a.325.325,0,0,0-.234.106.325.325,0,0,0-.106.234V-841a.324.324,0,0,0,.106.234A.325.325,0,0,0,182-840.658Zm3.8-14.921h4.974v-.276a2.4,2.4,0,0,0-.724-1.763,2.4,2.4,0,0,0-1.763-.724,2.4,2.4,0,0,0-1.763.724,2.4,2.4,0,0,0-.724,1.763Zm-4.145,14.921v0Z" transform="translate(-180 860)"/>
</svg>
