<svg width="43" height="44" viewBox="0 0 43 44" fill="none" xmlns="http://www.w3.org/2000/svg">
<rect y="0.770508" width="43" height="43" rx="8" fill="#7B96FF"/>
<g clip-path="url(#clip0_0_1)">
<path d="M16.2632 29.8569L21 26.2498L25.7368 29.8569L23.9637 23.9968L28.6882 20.6421H22.8995L21 14.4904L19.1005 20.6421H13.3118L18.0363 23.9968L16.2632 29.8569ZM21.0022 34.7365C19.3424 34.7365 17.7823 34.4218 16.3219 33.7923C14.8615 33.1628 13.5912 32.3085 12.5109 31.2294C11.4307 30.1503 10.5755 28.8813 9.94516 27.4225C9.31505 25.9636 9 24.405 9 22.7464C9 21.0877 9.31495 19.5286 9.94484 18.0691C10.5747 16.6097 11.4296 15.3402 12.5094 14.2606C13.5892 13.1811 14.8589 12.3264 16.3187 11.6965C17.7785 11.0668 19.3382 10.752 20.9978 10.752C22.6576 10.752 24.2177 11.0667 25.6781 11.6962C27.1385 12.3257 28.4088 13.18 29.4891 14.2591C30.5693 15.3382 31.4245 16.6071 32.0548 18.066C32.6849 19.5248 33 21.0835 33 22.742C33 24.4007 32.6851 25.9598 32.0552 27.4193C31.4253 28.8788 30.5704 30.1483 29.4906 31.2278C28.4108 32.3073 27.1411 33.1621 25.6813 33.792C24.2215 34.4217 22.6618 34.7365 21.0022 34.7365ZM21 32.843C23.8211 32.843 26.2105 31.8647 28.1684 29.908C30.1263 27.9514 31.1053 25.5635 31.1053 22.7442C31.1053 19.925 30.1263 17.5371 28.1684 15.5804C26.2105 13.6238 23.8211 12.6455 21 12.6455C18.1789 12.6455 15.7895 13.6238 13.8316 15.5804C11.8737 17.5371 10.8947 19.925 10.8947 22.7442C10.8947 25.5635 11.8737 27.9514 13.8316 29.908C15.7895 31.8647 18.1789 32.843 21 32.843Z" fill="white"/>
</g>
<defs>
<clipPath id="clip0_0_1">
<rect width="24" height="23.9846" fill="white" transform="translate(9 10.752)"/>
</clipPath>
</defs>
</svg>
