<svg width="43" height="44" viewBox="0 0 43 44" fill="none" xmlns="http://www.w3.org/2000/svg">
<rect y="0.770508" width="43" height="43" rx="8" fill="#FF7777"/>
<path d="M20.3829 26.3289C20.7942 26.7399 21.3238 26.9351 21.9718 26.9144C22.6196 26.8936 23.095 26.6598 23.398 26.2131L29.6814 17.1106L20.5566 23.3717C20.1026 23.6747 19.8573 24.1404 19.8208 24.7689C19.7845 25.3977 19.9719 25.9176 20.3829 26.3289ZM21.9996 13.7705C23.1011 13.7705 24.1331 13.9149 25.0957 14.2035C26.0585 14.4922 26.9881 14.929 27.8847 15.5139L26.2524 16.5693C25.5934 16.2191 24.9102 15.9545 24.203 15.7756C23.4955 15.5967 22.7611 15.5073 21.9996 15.5073C19.433 15.5073 17.2476 16.4094 15.4433 18.2138C13.6389 20.0181 12.7368 22.2035 12.7368 24.7701C12.7368 25.5806 12.8477 26.3814 13.0697 27.1726C13.2916 27.9638 13.6052 28.7068 14.0104 29.4015H29.9888C30.4326 28.6682 30.7559 27.906 30.9585 27.1148C31.1611 26.3236 31.2624 25.5034 31.2624 24.6543C31.2624 23.9596 31.1767 23.2564 31.0054 22.5447C30.8338 21.8328 30.5692 21.157 30.2114 20.5173L31.2668 18.885C31.8384 19.8217 32.267 20.7588 32.5528 21.6963C32.8384 22.6338 32.9872 23.6079 32.9992 24.6187C33.011 25.6668 32.893 26.6572 32.6452 27.5901C32.3972 28.5231 32.0239 29.4357 31.5253 30.3278C31.3722 30.5787 31.157 30.7765 30.8795 30.9212C30.6018 31.0659 30.3049 31.1383 29.9888 31.1383H14.0104C13.7017 31.1383 13.4104 31.0641 13.1365 30.9157C12.8627 30.7671 12.6418 30.5563 12.4739 30.2832C12.0316 29.5113 11.6754 28.6697 11.4052 27.7582C11.1351 26.8468 11 25.8508 11 24.7701C11 23.2576 11.287 21.8356 11.8609 20.5043C12.4348 19.173 13.2182 18.0069 14.211 17.0061C15.2041 16.0054 16.3715 15.2159 17.7132 14.6377C19.0552 14.0596 20.484 13.7705 21.9996 13.7705Z" fill="white"/>
</svg>
