<svg width="17" height="22" viewBox="0 0 17 22" fill="none" xmlns="http://www.w3.org/2000/svg">
<g clip-path="url(#clip0_1_571)">
<path d="M1.99999 21.5C1.73655 21.5053 1.47483 21.4566 1.23095 21.3568C0.987071 21.2571 0.766208 21.1084 0.581995 20.92C0.392988 20.7357 0.24381 20.5147 0.143701 20.2704C0.0435923 20.0262 -0.0053172 19.7639 -6.20747e-06 19.5V6.91701C-0.00530124 6.65357 0.0434289 6.39185 0.143182 6.14797C0.242936 5.90409 0.391599 5.68326 0.579996 5.49904C0.764209 5.31065 0.985072 5.16197 1.22895 5.06222C1.47283 4.96246 1.73456 4.91373 1.99799 4.91903H4.145V4.64303C4.13641 4.09746 4.2397 3.55594 4.4485 3.05184C4.65729 2.54774 4.96716 2.09171 5.35899 1.712C5.73876 1.32065 6.19466 1.01126 6.69857 0.802816C7.20248 0.594372 7.74374 0.491315 8.28899 0.500021C8.83456 0.491437 9.37609 0.594753 9.8802 0.803548C10.3843 1.01234 10.8403 1.32218 11.22 1.71401C11.6118 2.09373 11.9217 2.54969 12.1305 3.05379C12.3393 3.5579 12.4426 4.09947 12.434 4.64504V4.92104H14.581C14.8445 4.91548 15.1064 4.96397 15.3505 5.06356C15.5945 5.16314 15.8156 5.31168 16 5.50002C16.1884 5.68423 16.3371 5.90507 16.4368 6.14895C16.5366 6.39283 16.5853 6.65461 16.58 6.91805V19.5C16.5853 19.7635 16.5366 20.0252 16.4368 20.2691C16.3371 20.5129 16.1884 20.7338 16 20.9181C15.8158 21.1064 15.5949 21.2551 15.351 21.3548C15.1072 21.4546 14.8454 21.5033 14.582 21.498L1.99999 21.5ZM1.99999 19.842H14.583C14.6271 19.8412 14.6707 19.8314 14.7109 19.8131C14.7511 19.7949 14.7872 19.7687 14.817 19.736C14.8497 19.7063 14.8759 19.6702 14.8942 19.63C14.9124 19.5897 14.9222 19.5462 14.923 19.502V6.91903C14.9222 6.87486 14.9124 6.83128 14.8942 6.79104C14.8759 6.7508 14.8497 6.71474 14.817 6.68502C14.7872 6.65238 14.7511 6.62616 14.7109 6.60793C14.6707 6.58971 14.6271 6.57984 14.583 6.579H12.436V9.066C12.4389 9.17556 12.4193 9.28459 12.3784 9.38625C12.3374 9.48792 12.276 9.58005 12.198 9.657C12.121 9.73504 12.0289 9.79648 11.9272 9.83742C11.8255 9.87836 11.7165 9.89797 11.607 9.89504C11.4974 9.89797 11.3884 9.87836 11.2868 9.83742C11.1851 9.79648 11.093 9.73504 11.016 9.657C10.938 9.58005 10.8766 9.48792 10.8356 9.38625C10.7947 9.28459 10.7751 9.17556 10.778 9.066V6.579H5.8V9.066C5.80292 9.17556 5.78331 9.28459 5.74236 9.38625C5.70142 9.48792 5.64003 9.58005 5.56199 9.657C5.48504 9.73504 5.39287 9.79648 5.29121 9.83742C5.18954 9.87836 5.08055 9.89797 4.97099 9.89504C4.86143 9.89797 4.75245 9.87836 4.65078 9.83742C4.54912 9.79648 4.45695 9.73504 4.38 9.657C4.30196 9.58005 4.24057 9.48792 4.19962 9.38625C4.15868 9.28459 4.13906 9.17556 4.14199 9.066V6.579H1.99999C1.95583 6.57984 1.91231 6.58971 1.87208 6.60793C1.83185 6.62616 1.79575 6.65238 1.766 6.68502C1.73336 6.71477 1.70712 6.75086 1.6889 6.7911C1.67067 6.83133 1.66084 6.87487 1.66 6.91903V19.5C1.66078 19.5442 1.67058 19.5877 1.68881 19.628C1.70703 19.6682 1.73331 19.7043 1.766 19.734C1.79558 19.767 1.83159 19.7936 1.87184 19.8122C1.91208 19.8308 1.95569 19.8409 1.99999 19.842ZM5.8 4.92104H10.774V4.64504C10.7801 4.31731 10.719 3.99177 10.5945 3.68856C10.47 3.38534 10.2847 3.11089 10.05 2.88204C9.82115 2.64736 9.54666 2.46206 9.24345 2.33755C8.94023 2.21303 8.61472 2.15193 8.287 2.15804C7.95927 2.15193 7.63376 2.21303 7.33054 2.33755C7.02733 2.46206 6.75284 2.64736 6.524 2.88204C6.28932 3.11089 6.104 3.38534 5.97949 3.68856C5.85497 3.99177 5.79389 4.31731 5.8 4.64504V4.92104Z" fill="black"/>
</g>
<defs>
<clipPath id="clip0_1_571">
<rect width="16.579" height="21" fill="white" transform="translate(0 0.5)"/>
</clipPath>
</defs>
</svg>
