<svg width="43" height="44" viewBox="0 0 43 44" fill="none" xmlns="http://www.w3.org/2000/svg">
<rect y="0.770508" width="43" height="43" rx="8" fill="#592FF3"/>
<g filter="url(#filter0_d_0_1)">
<path d="M15.948 16.151C19.314 16.151 21.42 17.897 21.42 20.723C21.42 23.531 19.314 25.277 15.948 25.277H13.41V28.751H10.494V16.151H15.948ZM15.786 22.901C17.568 22.901 18.468 22.091 18.468 20.723C18.468 19.337 17.568 18.527 15.786 18.527H13.41V22.901H15.786ZM27.8176 28.967C25.8196 28.967 23.8036 28.373 22.6876 27.509L23.6776 25.313C24.7396 26.087 26.3236 26.627 27.8356 26.627C29.5636 26.627 30.2656 26.051 30.2656 25.277C30.2656 22.919 22.9396 24.539 22.9396 19.859C22.9396 17.717 24.6676 15.935 28.2496 15.935C29.8336 15.935 31.4536 16.313 32.6236 17.051L31.7236 19.265C30.5536 18.599 29.3476 18.275 28.2316 18.275C26.5036 18.275 25.8376 18.923 25.8376 19.715C25.8376 22.037 33.1636 20.435 33.1636 25.061C33.1636 27.167 31.4176 28.967 27.8176 28.967Z" fill="white"/>
</g>
<defs>
<filter id="filter0_d_0_1" x="4.49414" y="12.9346" width="34.6699" height="25.0322" filterUnits="userSpaceOnUse" color-interpolation-filters="sRGB">
<feFlood flood-opacity="0" result="BackgroundImageFix"/>
<feColorMatrix in="SourceAlpha" type="matrix" values="0 0 0 0 0 0 0 0 0 0 0 0 0 0 0 0 0 0 127 0" result="hardAlpha"/>
<feOffset dy="3"/>
<feGaussianBlur stdDeviation="3"/>
<feColorMatrix type="matrix" values="0 0 0 0 0 0 0 0 0 0 0 0 0 0 0 0 0 0 0.161 0"/>
<feBlend mode="normal" in2="BackgroundImageFix" result="effect1_dropShadow_0_1"/>
<feBlend mode="normal" in="SourceGraphic" in2="effect1_dropShadow_0_1" result="shape"/>
</filter>
</defs>
</svg>
