<svg xmlns="http://www.w3.org/2000/svg" width="21" height="20.959" viewBox="0 0 21 20.959">
  <path id="magic-wand-11" d="M81.033,64.658l-15.1,17.993a.392.392,0,0,0,.048.548L68.6,85.391a.385.385,0,0,0,.542-.053l15.1-17.993a.385.385,0,0,0-.042-.543L81.58,64.61A.391.391,0,0,0,81.033,64.658Zm2.216,2.472-4.427,5.276-1.832-1.537,4.427-5.277Zm-13.463-.221.616,2,2,.616-2,.616-.616,2-.616-2-2-.616,2-.616Zm5.3-1.316.282.916.916.282-.916.282-.282.916-.282-.916-.916-.282.916-.282ZM64.848,65.25l.282.916.916.282-.916.282-.282.916-.282-.916-.916-.282.916-.282Zm18.6,6.212.282.916.916.282-.916.282-.282.916-.282-.916-.916-.282.916-.282Z" transform="translate(-63.65 -64.52)"/>
</svg>
