<svg width="558" height="416" viewBox="0 0 558 416" fill="none" xmlns="http://www.w3.org/2000/svg">
<rect x="0.5" y="0.5" width="557" height="415" rx="23.5" fill="#FFF9EE" stroke="#FFE8B7"/>
<path d="M313.01 201.536V191.647H382.234V201.536H313.01ZM313.01 220.997V211.107H382.234V220.997H313.01ZM313.01 240.457V230.568H382.234V240.457H313.01ZM248.775 188.269C245.868 188.318 242.982 187.774 240.292 186.67C237.603 185.566 235.167 183.924 233.134 181.846C231.043 179.83 229.39 177.406 228.277 174.723C227.164 172.04 226.616 169.157 226.667 166.253C226.617 163.346 227.161 160.46 228.266 157.771C229.37 155.081 231.011 152.645 233.089 150.612C235.105 148.521 237.53 146.868 240.213 145.755C242.895 144.643 245.779 144.094 248.682 144.145C251.589 144.095 254.476 144.64 257.165 145.744C259.854 146.848 262.29 148.49 264.323 150.568C266.414 152.583 268.068 155.008 269.18 157.691C270.293 160.374 270.841 163.257 270.791 166.161C270.84 169.068 270.296 171.954 269.192 174.643C268.087 177.333 266.446 179.768 264.368 181.802C262.352 183.893 259.927 185.546 257.244 186.659C254.562 187.772 251.678 188.32 248.774 188.27L248.775 188.269ZM197 239.997V228.813C197.001 226.657 197.558 224.539 198.617 222.662C199.653 220.758 201.151 219.146 202.973 217.972C209.816 214.057 217.123 211.013 224.722 208.911C232.545 206.78 240.621 205.72 248.73 205.761C256.837 205.72 264.913 206.78 272.735 208.911C280.334 211.013 287.64 214.057 294.484 217.972C296.305 219.146 297.803 220.758 298.84 222.662C299.899 224.539 300.456 226.657 300.457 228.813V239.997H197Z" fill="black" fill-opacity="0.05"/>
<path d="M317.634 178L315 175.592L338.463 153.989L353.352 167.589L375.785 147.4H363.388V144H382V160.999H378.278V149.805L353.351 172.573L338.463 158.974L317.633 178L317.634 178Z" fill="black" fill-opacity="0.05" stroke="black" stroke-opacity="0.05" stroke-width="2.5"/>
<path d="M283.01 231.536V221.647H352.234V231.536H283.01ZM283.01 250.997V241.107H352.234V250.997H283.01ZM283.01 270.457V260.568H352.234V270.457H283.01ZM218.775 218.269C215.868 218.318 212.982 217.774 210.292 216.67C207.603 215.566 205.167 213.924 203.134 211.846C201.043 209.83 199.39 207.406 198.277 204.723C197.164 202.04 196.616 199.157 196.667 196.253C196.617 193.346 197.161 190.46 198.266 187.771C199.37 185.081 201.011 182.645 203.089 180.612C205.105 178.521 207.53 176.868 210.213 175.755C212.895 174.643 215.779 174.094 218.682 174.145C221.589 174.095 224.476 174.64 227.165 175.744C229.854 176.848 232.29 178.49 234.323 180.568C236.414 182.583 238.068 185.008 239.18 187.691C240.293 190.374 240.841 193.257 240.791 196.161C240.84 199.068 240.296 201.954 239.192 204.643C238.087 207.333 236.446 209.768 234.368 211.802C232.352 213.893 229.927 215.546 227.244 216.659C224.562 217.772 221.678 218.32 218.774 218.27L218.775 218.269ZM167 269.997V258.813C167.001 256.657 167.558 254.539 168.617 252.662C169.653 250.758 171.151 249.146 172.973 247.972C179.816 244.057 187.123 241.013 194.722 238.911C202.545 236.78 210.621 235.72 218.73 235.761C226.837 235.72 234.913 236.78 242.735 238.911C250.334 241.013 257.64 244.057 264.484 247.972C266.305 249.146 267.803 250.758 268.84 252.662C269.899 254.539 270.456 256.657 270.457 258.813V269.997H167Z" fill="black"/>
<path d="M287.634 208L285 205.592L308.463 183.989L323.352 197.589L345.785 177.4H333.388V174H352V190.999H348.278V179.805L323.351 202.573L308.463 188.974L287.633 208L287.634 208Z" fill="black" stroke="black" stroke-width="2.5"/>
</svg>
