<svg xmlns="http://www.w3.org/2000/svg" width="67" height="67" viewBox="0 0 67 67">
  <g id="Group_12348" data-name="Group 12348" transform="translate(0.429)">
    <rect id="Rectangle_7209" data-name="Rectangle 7209" width="67" height="67" rx="12" transform="translate(-0.429)" fill="#ffbb2a"/>
    <path id="magic-wand-11" d="M93.507,64.757,67.574,95.662a.673.673,0,0,0,.082.941l4.488,3.766a.661.661,0,0,0,.931-.091L99.008,69.373a.662.662,0,0,0-.072-.933l-4.488-3.766A.672.672,0,0,0,93.507,64.757ZM97.313,69l-7.6,9.063-3.146-2.64,7.6-9.063Zm-23.124-.38,1.059,3.432,3.432,1.059-3.432,1.058-1.059,3.433-1.058-3.433L69.7,73.115l3.432-1.059Zm9.1-2.261.485,1.573,1.573.485-1.573.485-.485,1.573-.485-1.573-1.573-.485,1.573-.485Zm-17.586-.59.485,1.573,1.573.485-1.573.485-.485,1.573-.485-1.573-1.573-.485,1.573-.485ZM97.663,76.442l.485,1.573,1.573.485-1.573.485-.485,1.573-.485-1.573L95.6,78.5l1.573-.485Z" transform="translate(-48.65 -48.52)"/>
  </g>
</svg>
