<svg width="558" height="416" viewBox="0 0 558 416" fill="none" xmlns="http://www.w3.org/2000/svg">
<rect x="0.5" y="0.5" width="557" height="415" rx="23.5" fill="#FFF9EE" stroke="#FFE8B7"/>
<g opacity="0.05">
<path d="M298.223 133.975C298.586 134.406 305.529 134.308 306.606 133.975V108.955C305.162 107.768 303.535 106.659 303.304 104.638C302.537 97.9051 311.026 96.1012 313.336 101.464C314.748 104.745 313.151 107.19 310.417 108.954V133.977C313.197 134.379 316.02 134.379 318.799 133.977V106.921L327.051 99.7144C326.443 96.9029 328.132 93.5213 331.143 93.0992C339.133 91.9801 339.607 103.054 332.615 103.734C331.395 103.853 330.593 102.947 329.482 103.372L322.863 108.954V133.976C323.113 133.894 323.414 134.231 323.499 134.231H331.12L331.501 133.849V119.369C331.501 119.234 329.863 118.114 329.469 117.591C329.022 117.001 328.701 116.324 328.529 115.604C328.356 114.884 328.334 114.136 328.465 113.407C328.595 112.678 328.876 111.984 329.288 111.369C329.7 110.754 330.236 110.231 330.86 109.833C336.034 106.783 341.286 112.804 337.929 117.648C337.401 118.409 335.94 118.984 335.819 119.618L336.058 134.116L341.11 133.929C341.853 133.453 341.07 123.373 341.541 121.783L355.891 107.933C354.094 102.722 360.585 98.5278 364.582 102.221C368.093 105.468 365.77 111.461 361.074 111.598C360.061 111.627 359.126 110.664 358.243 111.543L345.85 123.047C345.621 123.266 345.46 123.548 345.389 123.858C345.028 125.006 345.051 131.422 345.215 132.84C345.287 133.462 345.4 134.104 346.109 134.233C347.257 134.348 348.415 134.31 349.553 134.12C350.049 133.967 353.72 130.668 353.818 130.245C353.912 129.84 353.522 128.644 353.627 127.777C354.117 123.737 359.375 121.856 362.501 124.702C365.946 127.837 364.028 133.53 359.544 133.954C358.521 134.051 356.978 133.467 356.47 133.659C356.168 133.773 352.842 136.658 352.842 136.901V141.22L353.223 141.601H364.401L376.605 128.381C376.102 125.202 376.563 122.208 379.955 121.082C387.186 118.682 389.822 129.676 383.039 131.28C381.56 131.629 380.601 131.071 379.377 131.425L365.721 145.74C362.586 145.724 359.404 145.551 356.26 145.657C355.23 145.692 354.329 146.218 353.243 145.694L352.842 146.049V150.875L353.223 151.256H367.449C369.57 147.666 374.409 146.664 376.934 150.408C380.468 155.653 373.686 161.436 368.979 157.347C368.203 156.672 367.893 155.757 366.941 155.321H353.222L352.841 155.703V163.831L353.222 164.212H377.864L383.715 157.598C384.004 156.948 383.424 156.358 383.347 155.682C382.51 148.278 392.912 147.331 393.934 153.984C394.554 158.025 390.71 160.904 386.886 160.004L379.897 168.276H353.22C352.857 168.5 352.869 168.783 352.825 169.154C352.563 171.392 353.213 173.753 353.078 175.993C353.436 176.227 353.826 176.409 354.236 176.533C355.815 176.678 358.848 176.555 360.597 176.537C361.084 176.532 361.659 176.167 362.353 176.143C366.623 175.998 371.605 176.63 375.824 176.404C378.82 176.245 377.999 175.682 379.833 174.319C382.927 172.018 386.98 172.977 388.272 176.665C389.379 179.829 387.032 183.701 383.671 184.018C382.887 184.092 380.742 183.299 380.041 182.863C378.166 181.697 379.23 180.739 376.077 180.476C370.959 180.05 365.231 180.48 360.086 180.462C359.05 180.458 353.231 180.301 352.947 180.71L353.089 188.603C354.752 188.373 356.445 188.826 358.032 188.867C359.958 188.917 361.854 188.597 363.622 188.591C368.973 188.57 374.241 188.94 379.581 188.658C382.388 190.92 384.387 194.223 386.884 196.866C387.461 197.129 388.19 196.715 388.962 196.784C392.838 197.135 395.361 201.537 393.186 204.947C390.095 209.795 382.594 207.229 383.313 201.423C383.407 200.67 383.975 200.198 383.705 199.544L378.113 192.922H352.841V201.548H367.448C369.506 197.518 375.392 196.896 377.351 201.298C380.34 208.008 370.704 212.163 367.448 205.613H353.222L352.841 205.994V210.82L353.222 211.201H365.927L379.377 225.441C381.514 226.022 382.812 225.152 384.831 226.589C390.04 230.303 385.34 238.384 379.342 235.634C376.413 234.292 376.16 231.34 376.607 228.483L364.271 215.395C361.003 215.445 356.902 214.877 353.72 215.249C353.351 215.293 353.066 215.281 352.842 215.644V219.454L355.962 222.707C356.832 222.859 357.627 222.544 358.56 222.629C363.712 223.094 365.187 230.372 360.305 232.759C359.532 233.123 358.684 233.299 357.831 233.271C356.977 233.244 356.142 233.014 355.395 232.601C354.647 232.188 354.008 231.603 353.531 230.895C353.053 230.187 352.751 229.375 352.648 228.527C352.53 227.437 353.148 226.251 352.985 225.667C352.258 224.63 351.385 223.704 350.393 222.916C349.201 222.301 346.548 222.618 345.218 222.884V232.918L358.346 245.216C359.117 245.628 360.021 244.992 360.845 244.988C363.754 244.975 366.494 247.909 366.204 250.831C365.524 257.695 355.493 256.987 355.409 250.421C355.397 249.559 356.123 248.78 355.511 248.047L341.156 234.697V222.89C339.315 222.487 337.409 222.487 335.568 222.89V237.243C341.255 240.282 339.105 248.799 332.505 247.671C327.338 246.788 326.702 239.509 331.503 237.624V223.014L331.123 222.633H323.243L322.862 223.014V247.91L329.545 253.697C332.25 252.981 335.252 253.168 336.771 255.849C340.042 261.629 331.908 266.954 327.946 261.88C326.393 259.894 327.406 257.801 326.69 256.596C326.394 256.099 322.191 252.976 321.336 252.232C320.858 251.815 318.964 250.269 318.853 249.889L318.675 223.14C318.44 222.716 318.101 222.677 317.669 222.621C316.877 222.519 311.366 222.543 310.924 222.756C310.752 222.859 310.613 223.007 310.522 223.185C310.43 223.363 310.39 223.563 310.406 223.762L310.653 248.179C313.247 249.863 314.626 252.136 313.408 255.216C311.099 261.052 301.768 258.666 303.412 251.573C303.895 249.49 306.408 248.841 306.61 247.149C307.471 239.967 305.947 231.122 306.618 223.761C306.61 223.534 306.546 223.313 306.434 223.116C306.321 222.919 306.162 222.753 305.971 222.631H298.604L298.223 223.012V249.939L289.96 256.935C290.653 259.815 288.972 263.331 285.879 263.764C276.389 265.093 278.078 250.242 287.297 253.75L294.157 247.91V222.89C293.907 222.972 293.605 222.635 293.521 222.635H285.902L285.521 223.016V237.496C290.581 239.95 289.228 247.806 283.36 247.806C277.455 247.806 276.148 239.96 281.199 237.496V223.016L280.818 222.635H276.245L275.864 223.016V234.194C271.363 239.26 266.036 243.514 261.247 248.303C262.035 252.452 259.964 256.063 255.417 255.655C249.375 255.115 249.143 246.04 255.275 245.102C256.584 244.899 257.18 245.439 257.962 245.392C258.598 245.354 266.343 238.077 267.485 236.992C268.955 235.594 270.389 234.126 271.8 232.669V223.269C271.8 222.367 267.489 222.516 266.73 222.772C265.322 223.8 264.002 224.945 262.786 226.195C262.398 227.032 262.904 227.582 262.883 228.322C262.74 233.293 256.28 235.319 253.256 231.397C252.661 230.633 252.287 229.719 252.176 228.757C252.065 227.794 252.221 226.82 252.627 225.94C253.033 225.06 253.673 224.309 254.477 223.769C255.281 223.228 256.218 222.92 257.186 222.876C258.082 222.84 258.847 223.169 259.49 223.155C260.886 223.125 262.862 220.161 264.178 219.458V215.267H253.893L241.703 228.225C241.595 230.304 242.233 231.844 240.92 233.792C236.374 240.539 226.772 231.531 233.183 226.566C235.192 225.013 236.655 225.688 238.856 225.441L252.625 210.948H264.184V205.613H249.575C247.315 209.722 241.411 210.064 239.531 205.494C237.437 200.411 243.554 195.968 247.796 199.262C248.397 199.729 249.552 201.548 250.083 201.548H263.801L264.183 201.166V193.039L263.801 192.658H239.16L233.308 199.272C233.03 199.888 233.616 200.42 233.705 201.163C234.707 209.487 222.123 209.083 223.049 201.449C223.503 197.704 227.072 196.43 230.394 196.597C232.06 194.389 233.974 192.377 235.73 190.249C235.988 189.936 236.037 189.444 236.348 189.089C237.397 187.892 238 188.598 239.15 188.609C244.75 188.666 250.415 188.595 255.924 188.725C258.577 188.788 261.259 188.147 263.926 188.343C264.399 185.905 264.217 183.268 264.071 180.706C263.62 180.059 261.07 180.722 260.257 180.734C255.033 180.814 249.749 180.693 244.507 180.734C242.6 180.749 240.657 180.15 238.769 180.585C237.625 183.712 233.376 184.645 230.778 182.753C225.671 179.033 229.196 172.022 235.289 173.162C237.603 173.595 238.234 176.228 239.656 176.417C241.003 176.597 242.273 176.147 243.469 176.14C249.051 176.1 254.699 176.073 260.259 176.14C261.504 176.155 263.123 176.917 264.184 176.024V168.398C263.96 168.035 263.677 168.046 263.306 168.003C256.918 167.254 248.389 168.223 241.694 168.019C240.049 167.968 238.375 168.162 236.744 167.888L230.279 160.127C228.908 159.603 227.722 160.145 226.266 159.568C222.121 157.925 221.999 151.711 226.068 149.849C230.846 147.661 235.268 152.483 233.217 157.168L238.902 163.952H264.179V155.696L263.797 155.314H249.575C247.921 158.624 243.091 160 240.576 156.888C235.252 150.294 245.651 143.814 249.575 151.25H263.801L264.182 150.869V146.043L263.801 145.661H252.369L238.919 131.421C237.29 130.486 235.062 132.152 232.684 129.781C232.068 129.156 231.615 128.39 231.364 127.55C231.113 126.709 231.073 125.82 231.246 124.96C231.42 124.1 231.802 123.296 232.359 122.619C232.916 121.941 233.631 121.411 234.441 121.074C235.251 120.738 236.132 120.606 237.005 120.689C237.878 120.773 238.717 121.069 239.449 121.553C240.18 122.037 240.782 122.693 241.2 123.464C241.619 124.235 241.842 125.097 241.849 125.974C241.849 126.679 241.507 127.4 241.573 127.983C241.74 129.444 252.143 138.924 253.41 141.063L254.148 141.596H263.801L264.182 141.215V137.15C264.182 136.894 260.88 133.89 260.439 133.764C259.723 133.561 257.924 134.146 256.546 133.863C253.102 133.155 251.51 128.453 253.514 125.72C255.679 122.766 259.621 122.503 262.024 125.336C263.949 127.605 262.571 128.942 263.297 130.667C263.378 130.858 266.025 133.249 266.337 133.469C267.875 134.549 270.069 134.37 271.8 133.975V123.687L258.581 111.23C257.954 110.952 256.757 111.693 255.737 111.568C254.769 111.453 253.849 111.081 253.072 110.491C252.295 109.901 251.691 109.114 251.32 108.212C250.95 107.309 250.828 106.324 250.967 105.359C251.105 104.393 251.499 103.482 252.108 102.721C255.186 98.9445 261.54 101.315 261.649 106.165C261.666 106.943 261.024 107.853 261.366 108.383L275.866 121.904V133.971C277.707 134.374 279.614 134.374 281.455 133.971V119.626L281.129 119.06C276.375 117.094 277.678 109.673 282.591 109.078C283.891 108.878 285.218 109.16 286.324 109.869C287.43 110.579 288.239 111.669 288.598 112.933C288.958 114.197 288.844 115.549 288.277 116.735C287.71 117.92 286.73 118.858 285.521 119.372V133.979C288.385 134.39 291.293 134.39 294.158 133.979V108.7L287.801 103.364C286.87 102.93 285.833 103.742 284.886 103.744C282.711 103.748 280.023 101.726 279.694 99.5368C278.598 92.2881 288.011 90.7016 289.963 96.6327C290.419 98.0172 290.123 98.8722 290.218 100.186L298.223 106.919V133.975ZM284.886 96.9738C283.569 96.9738 283.137 99.451 284.886 99.451C286.635 99.451 286.202 96.9738 284.886 96.9738ZM333.217 97.458C332.192 96.445 330.219 97.8322 331.222 99.0695C332.276 100.368 334.375 98.6068 333.217 97.458ZM309.339 104.7C310.453 103.569 308.922 101.545 307.617 102.852C306.59 103.881 308.233 105.824 309.339 104.7ZM255.725 105.061C255.494 105.16 255.3 105.33 255.172 105.546C255.043 105.762 254.987 106.014 255.011 106.264C255.035 106.515 255.138 106.751 255.305 106.939C255.473 107.127 255.695 107.257 255.941 107.31C256.124 107.35 256.313 107.345 256.493 107.298C256.674 107.251 256.84 107.161 256.98 107.037C257.119 106.913 257.227 106.758 257.296 106.584C257.364 106.411 257.39 106.223 257.372 106.038C257.354 105.852 257.293 105.673 257.193 105.516C257.093 105.358 256.957 105.226 256.797 105.131C256.636 105.036 256.456 104.98 256.269 104.968C256.083 104.955 255.897 104.987 255.725 105.061ZM361.923 105.334C361.272 104.689 359.675 105.013 359.729 106.158C359.843 108.583 363.44 106.839 361.923 105.334ZM283.164 113.183C281.095 113.75 282.947 116.777 284.367 115.163C284.53 114.967 284.627 114.724 284.646 114.47C284.664 114.216 284.603 113.962 284.471 113.744C284.338 113.526 284.141 113.355 283.907 113.254C283.673 113.154 283.413 113.129 283.164 113.183ZM334.482 115.363C334.733 115.146 334.889 114.84 334.918 114.51C334.947 114.18 334.847 113.851 334.639 113.593C334.43 113.335 334.13 113.168 333.801 113.128C333.472 113.087 333.14 113.176 332.875 113.375C331.65 114.35 333.439 116.347 334.482 115.363ZM235.898 124.871C235.014 125.183 235.035 126.922 236.114 127.122C238.452 127.556 238.112 124.09 235.898 124.871ZM380.846 127.054C382.125 128.337 383.692 126.046 382.462 125.061C381.117 123.985 379.809 126.012 380.846 127.054ZM259.057 127.921C258.358 126.808 255.87 128.076 257.046 129.554C258.028 130.79 259.8 129.104 259.057 127.921ZM358.607 127.403C356.653 127.963 358.499 131.279 359.969 129.294C360.665 128.355 359.573 127.127 358.607 127.403ZM268.5 138.04C268.371 138.493 268.282 138.956 268.233 139.425C266.93 155.971 269.544 173.869 268.233 190.483C268.998 199.151 267.259 209.473 268.233 217.943C268.264 218.213 268.233 218.544 268.492 218.714C268.878 218.694 269.265 218.729 269.641 218.82H348.395V138.04H268.5ZM245.319 152.329C243.815 150.813 242.071 154.408 244.496 154.523C245.644 154.578 245.962 152.977 245.319 152.329ZM373.376 152.31C372.193 151.567 370.507 153.34 371.742 154.322C373.22 155.497 374.488 153.009 373.376 152.31ZM227.408 155.507C228.459 156.542 230.471 155.242 229.401 153.893C228.44 152.678 226.203 154.32 227.408 155.507ZM387.707 153.853C386.8 154.76 387.957 156.564 389.169 155.957C390.862 155.109 389.026 152.535 387.707 153.853ZM233.368 177.195C232.552 177.425 232.024 178.998 233.263 179.515C235.544 180.469 235.559 176.577 233.368 177.195ZM382.733 177.45C382.515 177.554 382.338 177.729 382.233 177.946C382.128 178.164 382.1 178.41 382.154 178.646C382.207 178.882 382.34 179.092 382.529 179.242C382.718 179.392 382.953 179.473 383.195 179.472C385.241 179.601 384.417 176.879 382.733 177.45ZM229.315 203.01C230.266 202.048 228.954 200.021 227.612 201.18C226.243 202.363 228.35 203.986 229.315 203.01ZM389.618 203.01C390.439 202.091 389.096 200.102 387.767 201.291C386.514 202.411 388.532 204.228 389.618 203.01ZM243.641 204.563C244.81 205.296 246.525 203.536 245.279 202.545C243.691 201.28 242.755 204.008 243.641 204.563ZM371.703 204.537C373.207 206.054 374.952 202.459 372.527 202.343C371.379 202.288 371.06 203.89 371.703 204.537ZM358.875 227.018C357.322 225.469 355.779 228.902 357.83 229.167C358.09 229.195 358.352 229.142 358.58 229.015C358.809 228.888 358.993 228.694 359.107 228.459C359.221 228.224 359.26 227.96 359.219 227.702C359.178 227.444 359.058 227.205 358.875 227.018ZM258.535 228.933C259.282 227.654 257.481 226.125 256.537 227.312C255.412 228.731 257.807 230.179 258.535 228.933ZM236.167 229.533C233.973 230.131 236.198 233.445 237.522 231.416C237.653 231.205 237.718 230.96 237.71 230.711C237.701 230.463 237.619 230.223 237.474 230.021C237.329 229.82 237.128 229.666 236.895 229.579C236.662 229.492 236.409 229.476 236.167 229.533ZM382.773 230.046C382.074 228.933 379.586 230.202 380.761 231.679C381.744 232.914 383.516 231.229 382.773 230.046ZM284.447 241.744C283.734 240.509 281.174 241.718 282.448 243.364C283.359 244.544 285.2 243.05 284.447 241.744ZM333.204 241.215C331.702 241.656 332.384 244.263 334.126 243.687C335.372 243.275 334.708 240.772 333.204 241.215ZM255.966 249.107C255.697 249.136 255.445 249.251 255.248 249.435C255.051 249.619 254.919 249.862 254.872 250.128C254.825 250.394 254.866 250.667 254.988 250.908C255.11 251.149 255.307 251.343 255.55 251.462C257.677 252.43 257.871 248.936 255.966 249.107ZM360.642 249.082C359.382 249.404 359.231 251.859 361.082 251.601C362.751 251.369 361.844 248.774 360.642 249.082ZM309.334 252.169C308.044 250.925 306.295 253.48 307.875 254.263C308.153 254.415 308.477 254.459 308.785 254.387C309.094 254.315 309.364 254.131 309.545 253.871C309.726 253.612 309.805 253.294 309.766 252.98C309.727 252.666 309.573 252.377 309.334 252.169ZM284.166 257.476C283.936 257.598 283.751 257.792 283.64 258.028C283.529 258.264 283.497 258.53 283.549 258.786C283.601 259.042 283.735 259.274 283.93 259.447C284.125 259.621 284.371 259.727 284.631 259.749C286.883 259.865 286.293 256.729 284.166 257.476ZM331.683 257.48C330.304 257.889 331.034 260.464 332.774 259.598C334.045 258.966 333.22 257.023 331.683 257.48Z" fill="#161615"/>
<path d="M278.025 147.439H338.995C339.357 147.662 339.345 147.945 339.389 148.317C340.353 156.539 338.43 166.387 339.646 174.75C339.245 179.891 339.387 185.103 339.365 190.236C339.342 195.741 340 203.338 339.389 208.55C339.345 208.92 339.357 209.203 338.995 209.428H278.025C277.663 209.205 277.674 208.922 277.631 208.55C276.987 203.066 277.719 195.265 277.655 189.474C277.503 175.778 277.495 162.059 277.631 148.317L278.025 147.439ZM335.31 205.359L335.183 151.505H281.836L281.709 205.359H335.31Z" fill="#161615"/>
<path d="M307.586 186.089L299.009 186.079C298.624 187.39 297.357 191.836 296.329 192.417C296.016 192.587 295.668 192.683 295.311 192.698C294.955 192.714 294.6 192.649 294.273 192.507C293.945 192.366 293.655 192.152 293.422 191.882C293.189 191.611 293.021 191.292 292.93 190.947C292.705 189.853 293.981 187.518 294.326 186.349C296.383 179.377 298.689 172.531 301.068 165.657C301.236 165.222 301.527 164.846 301.906 164.576C302.285 164.305 302.736 164.153 303.201 164.136C303.666 164.12 304.126 164.241 304.523 164.484C304.921 164.727 305.238 165.081 305.435 165.503L313.404 189.289C314.41 192.299 310.882 194.161 309.352 191.315C308.939 190.548 307.823 186.24 307.591 186.091M300.769 181.483H305.85L303.185 173.861C302.346 176.375 301.019 178.791 300.769 181.483Z" fill="#161615"/>
<path d="M321.533 164.252C323.103 164.06 324.012 165.152 324.145 166.607C324.842 174.182 323.594 182.816 324.139 190.504C324.183 192.696 320.725 193.387 319.945 191.637C319.751 190.503 319.616 189.36 319.54 188.212C319.54 187.616 319.825 187.053 319.826 186.444C319.835 179.577 319.807 172.711 319.802 165.845C319.793 164.977 320.769 164.347 321.533 164.253" fill="#161615"/>
</g>
<path d="M268.223 163.975C268.586 164.406 275.529 164.308 276.606 163.975V138.955C275.162 137.768 273.535 136.659 273.304 134.638C272.537 127.905 281.026 126.101 283.336 131.464C284.748 134.745 283.151 137.19 280.417 138.954V163.977C283.197 164.379 286.02 164.379 288.799 163.977V136.921L297.051 129.714C296.443 126.903 298.132 123.521 301.143 123.099C309.133 121.98 309.607 133.054 302.615 133.734C301.395 133.853 300.593 132.947 299.482 133.372L292.863 138.954V163.976C293.113 163.894 293.414 164.231 293.499 164.231H301.12L301.501 163.849V149.369C301.501 149.234 299.863 148.114 299.469 147.591C299.022 147.001 298.701 146.324 298.529 145.604C298.356 144.884 298.334 144.136 298.465 143.407C298.595 142.678 298.876 141.984 299.288 141.369C299.7 140.754 300.236 140.231 300.86 139.833C306.034 136.783 311.286 142.804 307.929 147.648C307.401 148.409 305.94 148.984 305.819 149.618L306.058 164.116L311.11 163.929C311.853 163.453 311.07 153.373 311.541 151.783L325.891 137.933C324.094 132.722 330.585 128.528 334.582 132.221C338.093 135.468 335.77 141.461 331.074 141.598C330.061 141.627 329.126 140.664 328.243 141.543L315.85 153.047C315.621 153.266 315.46 153.548 315.389 153.858C315.028 155.006 315.051 161.422 315.215 162.84C315.287 163.462 315.4 164.104 316.109 164.233C317.257 164.348 318.415 164.31 319.553 164.12C320.049 163.967 323.72 160.668 323.818 160.245C323.912 159.84 323.522 158.644 323.627 157.777C324.117 153.737 329.375 151.856 332.501 154.702C335.946 157.837 334.028 163.53 329.544 163.954C328.521 164.051 326.978 163.467 326.47 163.659C326.168 163.773 322.842 166.658 322.842 166.901V171.22L323.223 171.601H334.401L346.605 158.381C346.102 155.202 346.563 152.208 349.955 151.082C357.186 148.682 359.822 159.676 353.039 161.28C351.56 161.629 350.601 161.071 349.377 161.425L335.721 175.74C332.586 175.724 329.404 175.551 326.26 175.657C325.23 175.692 324.329 176.218 323.243 175.694L322.842 176.049V180.875L323.223 181.256H337.449C339.57 177.666 344.409 176.664 346.934 180.408C350.468 185.653 343.686 191.436 338.979 187.347C338.203 186.672 337.893 185.757 336.941 185.321H323.222L322.841 185.703V193.831L323.222 194.212H347.864L353.715 187.598C354.004 186.948 353.424 186.358 353.347 185.682C352.51 178.278 362.912 177.331 363.934 183.984C364.554 188.025 360.71 190.904 356.886 190.004L349.897 198.276H323.22C322.857 198.5 322.869 198.783 322.825 199.154C322.563 201.392 323.213 203.753 323.078 205.993C323.436 206.227 323.826 206.409 324.236 206.533C325.815 206.678 328.848 206.555 330.597 206.537C331.084 206.532 331.659 206.167 332.353 206.143C336.623 205.998 341.605 206.63 345.824 206.404C348.82 206.245 347.999 205.682 349.833 204.319C352.927 202.018 356.98 202.977 358.272 206.665C359.379 209.829 357.032 213.701 353.671 214.018C352.887 214.092 350.742 213.299 350.041 212.863C348.166 211.697 349.23 210.739 346.077 210.476C340.959 210.05 335.231 210.48 330.086 210.462C329.05 210.458 323.231 210.301 322.947 210.71L323.089 218.603C324.752 218.373 326.445 218.826 328.032 218.867C329.958 218.917 331.854 218.597 333.622 218.591C338.973 218.57 344.241 218.94 349.581 218.658C352.388 220.92 354.387 224.223 356.884 226.866C357.461 227.129 358.19 226.715 358.962 226.784C362.838 227.135 365.361 231.537 363.186 234.947C360.095 239.795 352.594 237.229 353.313 231.423C353.407 230.67 353.975 230.198 353.705 229.544L348.113 222.922H322.841V231.548H337.448C339.506 227.518 345.392 226.896 347.351 231.298C350.34 238.008 340.704 242.163 337.448 235.613H323.222L322.841 235.994V240.82L323.222 241.201H335.927L349.377 255.441C351.514 256.022 352.812 255.152 354.831 256.589C360.04 260.303 355.34 268.384 349.342 265.634C346.413 264.292 346.16 261.34 346.607 258.483L334.271 245.395C331.003 245.445 326.902 244.877 323.72 245.249C323.351 245.293 323.066 245.281 322.842 245.644V249.454L325.962 252.707C326.832 252.859 327.627 252.544 328.56 252.629C333.712 253.094 335.187 260.372 330.305 262.759C329.532 263.123 328.684 263.299 327.831 263.271C326.977 263.244 326.142 263.014 325.395 262.601C324.647 262.188 324.008 261.603 323.531 260.895C323.053 260.187 322.751 259.375 322.648 258.527C322.53 257.437 323.148 256.251 322.985 255.667C322.258 254.63 321.385 253.704 320.393 252.916C319.201 252.301 316.548 252.618 315.218 252.884V262.918L328.346 275.216C329.117 275.628 330.021 274.992 330.845 274.988C333.754 274.975 336.494 277.909 336.204 280.831C335.524 287.695 325.493 286.987 325.409 280.421C325.397 279.559 326.123 278.78 325.511 278.047L311.156 264.697V252.89C309.315 252.487 307.409 252.487 305.568 252.89V267.243C311.255 270.282 309.105 278.799 302.505 277.671C297.338 276.788 296.702 269.509 301.503 267.624V253.014L301.123 252.633H293.243L292.862 253.014V277.91L299.545 283.697C302.25 282.981 305.252 283.168 306.771 285.849C310.042 291.629 301.908 296.954 297.946 291.88C296.393 289.894 297.406 287.801 296.69 286.596C296.394 286.099 292.191 282.976 291.336 282.232C290.858 281.815 288.964 280.269 288.853 279.889L288.675 253.14C288.44 252.716 288.101 252.677 287.669 252.621C286.877 252.519 281.366 252.543 280.924 252.756C280.752 252.859 280.613 253.007 280.522 253.185C280.43 253.363 280.39 253.563 280.406 253.762L280.653 278.179C283.247 279.863 284.626 282.136 283.408 285.216C281.099 291.052 271.768 288.666 273.412 281.573C273.895 279.49 276.408 278.841 276.61 277.149C277.471 269.967 275.947 261.122 276.618 253.761C276.61 253.534 276.546 253.313 276.434 253.116C276.321 252.919 276.162 252.753 275.971 252.631H268.604L268.223 253.012V279.939L259.96 286.935C260.653 289.815 258.972 293.331 255.879 293.764C246.389 295.093 248.078 280.242 257.297 283.75L264.157 277.91V252.89C263.907 252.972 263.605 252.635 263.521 252.635H255.902L255.521 253.016V267.496C260.581 269.95 259.228 277.806 253.36 277.806C247.455 277.806 246.148 269.96 251.199 267.496V253.016L250.818 252.635H246.245L245.864 253.016V264.194C241.363 269.26 236.036 273.514 231.247 278.303C232.035 282.452 229.964 286.063 225.417 285.655C219.375 285.115 219.143 276.04 225.275 275.102C226.584 274.899 227.18 275.439 227.962 275.392C228.598 275.354 236.343 268.077 237.485 266.992C238.955 265.594 240.389 264.126 241.8 262.669V253.269C241.8 252.367 237.489 252.516 236.73 252.772C235.322 253.8 234.002 254.945 232.786 256.195C232.398 257.032 232.904 257.582 232.883 258.322C232.74 263.293 226.28 265.319 223.256 261.397C222.661 260.633 222.287 259.719 222.176 258.757C222.065 257.794 222.221 256.82 222.627 255.94C223.033 255.06 223.673 254.309 224.477 253.769C225.281 253.228 226.218 252.92 227.186 252.876C228.082 252.84 228.847 253.169 229.49 253.155C230.886 253.125 232.862 250.161 234.178 249.458V245.267H223.893L211.703 258.225C211.595 260.304 212.233 261.844 210.92 263.792C206.374 270.539 196.772 261.531 203.183 256.566C205.192 255.013 206.655 255.688 208.856 255.441L222.625 240.948H234.184V235.613H219.575C217.315 239.722 211.411 240.064 209.531 235.494C207.437 230.411 213.554 225.968 217.796 229.262C218.397 229.729 219.552 231.548 220.083 231.548H233.801L234.183 231.166V223.039L233.801 222.658H209.16L203.308 229.272C203.03 229.888 203.616 230.42 203.705 231.163C204.707 239.487 192.123 239.083 193.049 231.449C193.503 227.704 197.072 226.43 200.394 226.597C202.06 224.389 203.974 222.377 205.73 220.249C205.988 219.936 206.037 219.444 206.348 219.089C207.397 217.892 208 218.598 209.15 218.609C214.75 218.666 220.415 218.595 225.924 218.725C228.577 218.788 231.259 218.147 233.926 218.343C234.399 215.905 234.217 213.268 234.071 210.706C233.62 210.059 231.07 210.722 230.257 210.734C225.033 210.814 219.749 210.693 214.507 210.734C212.6 210.749 210.657 210.15 208.769 210.585C207.625 213.712 203.376 214.645 200.778 212.753C195.671 209.033 199.196 202.022 205.289 203.162C207.603 203.595 208.234 206.228 209.656 206.417C211.003 206.597 212.273 206.147 213.469 206.14C219.051 206.1 224.699 206.073 230.259 206.14C231.504 206.155 233.123 206.917 234.184 206.024V198.398C233.96 198.035 233.677 198.046 233.306 198.003C226.918 197.254 218.389 198.223 211.694 198.019C210.049 197.968 208.375 198.162 206.744 197.888L200.279 190.127C198.908 189.603 197.722 190.145 196.266 189.568C192.121 187.925 191.999 181.711 196.068 179.849C200.846 177.661 205.268 182.483 203.217 187.168L208.902 193.952H234.179V185.696L233.797 185.314H219.575C217.921 188.624 213.091 190 210.576 186.888C205.252 180.294 215.651 173.814 219.575 181.25H233.801L234.182 180.869V176.043L233.801 175.661H222.369L208.919 161.421C207.29 160.486 205.062 162.152 202.684 159.781C202.068 159.156 201.615 158.39 201.364 157.55C201.113 156.709 201.073 155.82 201.246 154.96C201.42 154.1 201.802 153.296 202.359 152.619C202.916 151.941 203.631 151.411 204.441 151.074C205.251 150.738 206.132 150.606 207.005 150.689C207.878 150.773 208.717 151.069 209.449 151.553C210.18 152.037 210.782 152.693 211.2 153.464C211.619 154.235 211.842 155.097 211.849 155.974C211.849 156.679 211.507 157.4 211.573 157.983C211.74 159.444 222.143 168.924 223.41 171.063L224.148 171.596H233.801L234.182 171.215V167.15C234.182 166.894 230.88 163.89 230.439 163.764C229.723 163.561 227.924 164.146 226.546 163.863C223.102 163.155 221.51 158.453 223.514 155.72C225.679 152.766 229.621 152.503 232.024 155.336C233.949 157.605 232.571 158.942 233.297 160.667C233.378 160.858 236.025 163.249 236.337 163.469C237.875 164.549 240.069 164.37 241.8 163.975V153.687L228.581 141.23C227.954 140.952 226.757 141.693 225.737 141.568C224.769 141.453 223.849 141.081 223.072 140.491C222.295 139.901 221.691 139.114 221.32 138.212C220.95 137.309 220.828 136.324 220.967 135.359C221.105 134.393 221.499 133.482 222.108 132.721C225.186 128.945 231.54 131.315 231.649 136.165C231.666 136.943 231.024 137.853 231.366 138.383L245.866 151.904V163.971C247.707 164.374 249.614 164.374 251.455 163.971V149.626L251.129 149.06C246.375 147.094 247.678 139.673 252.591 139.078C253.891 138.878 255.218 139.16 256.324 139.869C257.43 140.579 258.239 141.669 258.598 142.933C258.958 144.197 258.844 145.549 258.277 146.735C257.71 147.92 256.73 148.858 255.521 149.372V163.979C258.385 164.39 261.293 164.39 264.158 163.979V138.7L257.801 133.364C256.87 132.93 255.833 133.742 254.886 133.744C252.711 133.748 250.023 131.726 249.694 129.537C248.598 122.288 258.011 120.702 259.963 126.633C260.419 128.017 260.123 128.872 260.218 130.186L268.223 136.919V163.975ZM254.886 126.974C253.569 126.974 253.137 129.451 254.886 129.451C256.635 129.451 256.202 126.974 254.886 126.974ZM303.217 127.458C302.192 126.445 300.219 127.832 301.222 129.069C302.276 130.368 304.375 128.607 303.217 127.458ZM279.339 134.7C280.453 133.569 278.922 131.545 277.617 132.852C276.59 133.881 278.233 135.824 279.339 134.7ZM225.725 135.061C225.494 135.16 225.3 135.33 225.172 135.546C225.043 135.762 224.987 136.014 225.011 136.264C225.035 136.515 225.138 136.751 225.305 136.939C225.473 137.127 225.695 137.257 225.941 137.31C226.124 137.35 226.313 137.345 226.493 137.298C226.674 137.251 226.84 137.161 226.98 137.037C227.119 136.913 227.227 136.758 227.296 136.584C227.364 136.411 227.39 136.223 227.372 136.038C227.354 135.852 227.293 135.673 227.193 135.516C227.093 135.358 226.957 135.226 226.797 135.131C226.636 135.036 226.456 134.98 226.269 134.968C226.083 134.955 225.897 134.987 225.725 135.061ZM331.923 135.334C331.272 134.689 329.675 135.013 329.729 136.158C329.843 138.583 333.44 136.839 331.923 135.334ZM253.164 143.183C251.095 143.75 252.947 146.777 254.367 145.163C254.53 144.967 254.627 144.724 254.646 144.47C254.664 144.216 254.603 143.962 254.471 143.744C254.338 143.526 254.141 143.355 253.907 143.254C253.673 143.154 253.413 143.129 253.164 143.183ZM304.482 145.363C304.733 145.146 304.889 144.84 304.918 144.51C304.947 144.18 304.847 143.851 304.639 143.593C304.43 143.335 304.13 143.168 303.801 143.128C303.472 143.087 303.14 143.176 302.875 143.375C301.65 144.35 303.439 146.347 304.482 145.363ZM205.898 154.871C205.014 155.183 205.035 156.922 206.114 157.122C208.452 157.556 208.112 154.09 205.898 154.871ZM350.846 157.054C352.125 158.337 353.692 156.046 352.462 155.061C351.117 153.985 349.809 156.012 350.846 157.054ZM229.057 157.921C228.358 156.808 225.87 158.076 227.046 159.554C228.028 160.79 229.8 159.104 229.057 157.921ZM328.607 157.403C326.653 157.963 328.499 161.279 329.969 159.294C330.665 158.355 329.573 157.127 328.607 157.403ZM238.5 168.04C238.371 168.493 238.282 168.956 238.233 169.425C236.93 185.971 239.544 203.869 238.233 220.483C238.998 229.151 237.259 239.473 238.233 247.943C238.264 248.213 238.233 248.544 238.492 248.714C238.878 248.694 239.265 248.729 239.641 248.82H318.395V168.04H238.5ZM215.319 182.329C213.815 180.813 212.071 184.408 214.496 184.523C215.644 184.578 215.962 182.977 215.319 182.329ZM343.376 182.31C342.193 181.567 340.507 183.34 341.742 184.322C343.22 185.497 344.488 183.009 343.376 182.31ZM197.408 185.507C198.459 186.542 200.471 185.242 199.401 183.893C198.44 182.678 196.203 184.32 197.408 185.507ZM357.707 183.853C356.8 184.76 357.957 186.564 359.169 185.957C360.862 185.109 359.026 182.535 357.707 183.853ZM203.368 207.195C202.552 207.425 202.024 208.998 203.263 209.515C205.544 210.469 205.559 206.577 203.368 207.195ZM352.733 207.45C352.515 207.554 352.338 207.729 352.233 207.946C352.128 208.164 352.1 208.41 352.154 208.646C352.207 208.882 352.34 209.092 352.529 209.242C352.718 209.392 352.953 209.473 353.195 209.472C355.241 209.601 354.417 206.879 352.733 207.45ZM199.315 233.01C200.266 232.048 198.954 230.021 197.612 231.18C196.243 232.363 198.35 233.986 199.315 233.01ZM359.618 233.01C360.439 232.091 359.096 230.102 357.767 231.291C356.514 232.411 358.532 234.228 359.618 233.01ZM213.641 234.563C214.81 235.296 216.525 233.536 215.279 232.545C213.691 231.28 212.755 234.008 213.641 234.563ZM341.703 234.537C343.207 236.054 344.952 232.459 342.527 232.343C341.379 232.288 341.06 233.89 341.703 234.537ZM328.875 257.018C327.322 255.469 325.779 258.902 327.83 259.167C328.09 259.195 328.352 259.142 328.58 259.015C328.809 258.888 328.993 258.694 329.107 258.459C329.221 258.224 329.26 257.96 329.219 257.702C329.178 257.444 329.058 257.205 328.875 257.018ZM228.535 258.933C229.282 257.654 227.481 256.125 226.537 257.312C225.412 258.731 227.807 260.179 228.535 258.933ZM206.167 259.533C203.973 260.131 206.198 263.445 207.522 261.416C207.653 261.205 207.718 260.96 207.71 260.711C207.701 260.463 207.619 260.223 207.474 260.021C207.329 259.82 207.128 259.666 206.895 259.579C206.662 259.492 206.409 259.476 206.167 259.533ZM352.773 260.046C352.074 258.933 349.586 260.202 350.761 261.679C351.744 262.914 353.516 261.229 352.773 260.046ZM254.447 271.744C253.734 270.509 251.174 271.718 252.448 273.364C253.359 274.544 255.2 273.05 254.447 271.744ZM303.204 271.215C301.702 271.656 302.384 274.263 304.126 273.687C305.372 273.275 304.708 270.772 303.204 271.215ZM225.966 279.107C225.697 279.136 225.445 279.251 225.248 279.435C225.051 279.619 224.919 279.862 224.872 280.128C224.825 280.394 224.866 280.667 224.988 280.908C225.11 281.149 225.307 281.343 225.55 281.462C227.677 282.43 227.871 278.936 225.966 279.107ZM330.642 279.082C329.382 279.404 329.231 281.859 331.082 281.601C332.751 281.369 331.844 278.774 330.642 279.082ZM279.334 282.169C278.044 280.925 276.295 283.48 277.875 284.263C278.153 284.415 278.477 284.459 278.785 284.387C279.094 284.315 279.364 284.131 279.545 283.871C279.726 283.612 279.805 283.294 279.766 282.98C279.727 282.666 279.573 282.377 279.334 282.169ZM254.166 287.476C253.936 287.598 253.751 287.792 253.64 288.028C253.529 288.264 253.497 288.53 253.549 288.786C253.601 289.042 253.735 289.274 253.93 289.447C254.125 289.621 254.371 289.727 254.631 289.749C256.883 289.865 256.293 286.729 254.166 287.476ZM301.683 287.48C300.304 287.889 301.034 290.464 302.774 289.598C304.045 288.966 303.22 287.023 301.683 287.48Z" fill="#161615"/>
<path d="M248.025 177.439H308.995C309.357 177.662 309.345 177.945 309.389 178.317C310.353 186.539 308.43 196.387 309.646 204.75C309.245 209.891 309.387 215.103 309.365 220.236C309.342 225.741 310 233.338 309.389 238.55C309.345 238.92 309.357 239.203 308.995 239.428H248.025C247.663 239.205 247.674 238.922 247.631 238.55C246.987 233.066 247.719 225.265 247.655 219.474C247.503 205.778 247.495 192.059 247.631 178.317L248.025 177.439ZM305.31 235.359L305.183 181.505H251.836L251.709 235.359H305.31Z" fill="#161615"/>
<path d="M277.586 216.089L269.009 216.079C268.624 217.39 267.357 221.836 266.329 222.417C266.016 222.587 265.668 222.683 265.311 222.698C264.955 222.714 264.6 222.649 264.273 222.507C263.945 222.366 263.655 222.152 263.422 221.882C263.189 221.611 263.021 221.292 262.93 220.947C262.705 219.853 263.981 217.518 264.326 216.349C266.383 209.377 268.689 202.531 271.068 195.657C271.236 195.222 271.527 194.846 271.906 194.576C272.285 194.305 272.736 194.153 273.201 194.136C273.666 194.12 274.126 194.241 274.523 194.484C274.921 194.727 275.238 195.081 275.435 195.503L283.404 219.289C284.41 222.299 280.882 224.161 279.352 221.315C278.939 220.548 277.823 216.24 277.591 216.091M270.769 211.483H275.85L273.185 203.861C272.346 206.375 271.019 208.791 270.769 211.483Z" fill="#161615"/>
<path d="M291.533 194.252C293.103 194.06 294.012 195.152 294.145 196.607C294.842 204.182 293.594 212.816 294.139 220.504C294.183 222.696 290.725 223.387 289.945 221.637C289.751 220.503 289.616 219.36 289.54 218.212C289.54 217.616 289.825 217.053 289.826 216.444C289.835 209.577 289.807 202.711 289.802 195.845C289.793 194.977 290.769 194.347 291.533 194.253" fill="#161615"/>
</svg>
