<svg width="558" height="416" viewBox="0 0 558 416" fill="none" xmlns="http://www.w3.org/2000/svg">
<rect x="0.5" y="0.5" width="557" height="415" rx="23.5" fill="#FFF9EE" stroke="#FFE8B7"/>
<g opacity="0.05" clip-path="url(#clip0_239_3193)">
<mask id="mask0_239_3193" style="mask-type:luminance" maskUnits="userSpaceOnUse" x="231" y="101" width="155" height="154">
<path d="M386 101H231V255H386V101Z" fill="white"/>
</mask>
<g mask="url(#mask0_239_3193)">
<path d="M344.472 223.35H272.88C271.538 223.347 270.211 223.08 268.973 222.563C267.734 222.047 266.61 221.292 265.664 220.34C264.717 219.389 263.967 218.26 263.457 217.018C262.946 215.777 262.685 214.447 262.689 213.104V141.13C262.685 139.787 262.946 138.457 263.457 137.216C263.967 135.974 264.717 134.845 265.664 133.894C266.61 132.942 267.734 132.187 268.973 131.67C270.211 131.154 271.538 130.887 272.88 130.884H344.472C345.813 130.887 347.141 131.154 348.379 131.67C349.618 132.187 350.742 132.942 351.688 133.894C352.635 134.845 353.385 135.974 353.895 137.215C354.406 138.457 354.667 139.787 354.664 141.13V213.104C354.667 214.447 354.406 215.777 353.895 217.018C353.385 218.26 352.635 219.389 351.689 220.34C350.742 221.292 349.618 222.047 348.38 222.563C347.142 223.08 345.813 223.347 344.472 223.35Z" fill="#161615"/>
<path d="M326.258 201.594H317.497C316.636 201.629 315.787 201.386 315.074 200.901C314.459 200.467 313.997 199.849 313.756 199.136L310.88 190.6H292.355L289.479 199.136C289.189 199.872 288.681 200.503 288.023 200.942C287.365 201.381 286.589 201.608 285.798 201.592H276.972L295.832 152.613H307.398L326.258 201.594ZM294.961 182.869H308.268L303.788 169.456C303.498 168.606 303.159 167.603 302.771 166.447C302.379 165.295 301.997 164.047 301.615 162.7C301.259 164.067 300.892 165.336 300.511 166.498C300.129 167.66 299.777 168.67 299.441 169.523L294.961 182.869Z" fill="white"/>
<path d="M342.573 152.622H331.206V201.597H342.573V152.622Z" fill="white"/>
<path d="M356.636 117.795H261.487C254.427 117.795 248.703 123.524 248.703 130.592V226.359C248.703 233.426 254.427 239.155 261.487 239.155H356.636C363.696 239.155 369.419 233.426 369.419 226.359V130.592C369.419 123.524 363.696 117.795 356.636 117.795Z" stroke="#161615" stroke-width="16" stroke-miterlimit="10"/>
<path d="M287.077 101H279.533V115.278H287.077V101Z" fill="#161615"/>
<path d="M312.041 101H304.497V115.278H312.041V101Z" fill="#161615"/>
<path d="M337.004 101H329.46V115.278H337.004V101Z" fill="#161615"/>
<path d="M287.077 240.722H279.533V255H287.077V240.722Z" fill="#161615"/>
<path d="M312.041 240.722H304.497V255H312.041V240.722Z" fill="#161615"/>
<path d="M337.004 240.722H329.46V255H337.004V240.722Z" fill="#161615"/>
<path d="M245.203 198.419H231V206.004H245.203V198.419Z" fill="#161615"/>
<path d="M245.203 173.322H231V180.907H245.203V173.322Z" fill="#161615"/>
<path d="M245.203 148.226H231V155.81H245.203V148.226Z" fill="#161615"/>
<path d="M386 198.419H371.798V206.004H386V198.419Z" fill="#161615"/>
<path d="M386 173.322H371.798V180.907H386V173.322Z" fill="#161615"/>
<path d="M386 148.226H371.798V155.81H386V148.226Z" fill="#161615"/>
</g>
</g>
<g clip-path="url(#clip1_239_3193)">
<mask id="mask1_239_3193" style="mask-type:luminance" maskUnits="userSpaceOnUse" x="201" y="131" width="155" height="154">
<path d="M356 131H201V285H356V131Z" fill="white"/>
</mask>
<g mask="url(#mask1_239_3193)">
<path d="M314.472 253.35H242.88C241.538 253.347 240.211 253.08 238.973 252.563C237.734 252.047 236.61 251.292 235.664 250.34C234.717 249.389 233.967 248.26 233.457 247.018C232.946 245.777 232.685 244.447 232.689 243.104V171.13C232.685 169.787 232.946 168.457 233.457 167.216C233.967 165.974 234.717 164.845 235.664 163.894C236.61 162.942 237.734 162.187 238.973 161.67C240.211 161.154 241.538 160.887 242.88 160.884H314.472C315.813 160.887 317.141 161.154 318.379 161.67C319.618 162.187 320.742 162.942 321.688 163.894C322.635 164.845 323.385 165.974 323.895 167.215C324.406 168.457 324.667 169.787 324.664 171.13V243.104C324.667 244.447 324.406 245.777 323.895 247.018C323.385 248.26 322.635 249.389 321.689 250.34C320.742 251.292 319.618 252.047 318.38 252.563C317.142 253.08 315.813 253.347 314.472 253.35Z" fill="#161615"/>
<path d="M296.258 231.594H287.497C286.636 231.629 285.787 231.386 285.074 230.901C284.459 230.467 283.997 229.849 283.756 229.136L280.88 220.6H262.355L259.479 229.136C259.189 229.872 258.681 230.503 258.023 230.942C257.365 231.381 256.589 231.608 255.798 231.592H246.972L265.832 182.613H277.398L296.258 231.594ZM264.961 212.869H278.268L273.788 199.456C273.498 198.606 273.159 197.603 272.771 196.447C272.379 195.295 271.997 194.047 271.615 192.7C271.259 194.067 270.892 195.336 270.511 196.498C270.129 197.66 269.777 198.67 269.441 199.523L264.961 212.869Z" fill="white"/>
<path d="M312.573 182.622H301.206V231.597H312.573V182.622Z" fill="white"/>
<path d="M326.636 147.795H231.487C224.427 147.795 218.703 153.524 218.703 160.592V256.359C218.703 263.426 224.427 269.155 231.487 269.155H326.636C333.696 269.155 339.419 263.426 339.419 256.359V160.592C339.419 153.524 333.696 147.795 326.636 147.795Z" stroke="#161615" stroke-width="16" stroke-miterlimit="10"/>
<path d="M257.077 131H249.533V145.278H257.077V131Z" fill="#161615"/>
<path d="M282.041 131H274.497V145.278H282.041V131Z" fill="#161615"/>
<path d="M307.004 131H299.46V145.278H307.004V131Z" fill="#161615"/>
<path d="M257.077 270.722H249.533V285H257.077V270.722Z" fill="#161615"/>
<path d="M282.041 270.722H274.497V285H282.041V270.722Z" fill="#161615"/>
<path d="M307.004 270.722H299.46V285H307.004V270.722Z" fill="#161615"/>
<path d="M215.203 228.419H201V236.004H215.203V228.419Z" fill="#161615"/>
<path d="M215.203 203.322H201V210.907H215.203V203.322Z" fill="#161615"/>
<path d="M215.203 178.226H201V185.81H215.203V178.226Z" fill="#161615"/>
<path d="M356 228.419H341.798V236.004H356V228.419Z" fill="#161615"/>
<path d="M356 203.322H341.798V210.907H356V203.322Z" fill="#161615"/>
<path d="M356 178.226H341.798V185.81H356V178.226Z" fill="#161615"/>
</g>
</g>
<defs>
<clipPath id="clip0_239_3193">
<rect width="155" height="154" fill="white" transform="translate(231 101)"/>
</clipPath>
<clipPath id="clip1_239_3193">
<rect width="155" height="154" fill="white" transform="translate(201 131)"/>
</clipPath>
</defs>
</svg>
