<svg width="558" height="416" viewBox="0 0 558 416" fill="none" xmlns="http://www.w3.org/2000/svg">
<rect x="0.5" y="0.5" width="557" height="415" rx="23.5" fill="#FFF9EE" stroke="#FFE8B7"/>
<g clip-path="url(#clip0_0_1)">
<mask id="mask0_0_1" style="mask-type:luminance" maskUnits="userSpaceOnUse" x="214" y="117" width="122" height="160">
<path d="M336 117H214V277H336V117Z" fill="white"/>
</mask>
<g mask="url(#mask0_0_1)">
<path d="M219.272 237.377L214.559 232.476C214.194 232.096 213.994 231.592 214.002 231.07C214.01 230.548 214.225 230.05 214.602 229.681L253.668 191.418C254.053 191.042 254.574 190.831 255.117 190.831C255.661 190.831 256.182 191.042 256.566 191.418L284.25 218.538C284.634 218.914 285.156 219.125 285.699 219.125C286.243 219.125 286.764 218.914 287.148 218.538L312.784 193.428C313.07 193.148 313.264 192.79 313.343 192.401C313.421 192.012 313.381 191.609 313.226 191.243C313.071 190.877 312.808 190.564 312.472 190.343C312.135 190.123 311.74 190.005 311.335 190.005H305.438C304.894 190.004 304.373 189.793 303.989 189.416C303.605 189.04 303.389 188.53 303.389 187.997V182.255C303.389 181.723 303.605 181.212 303.989 180.836C304.373 180.459 304.894 180.248 305.438 180.248H333.951C334.495 180.248 335.016 180.459 335.4 180.836C335.784 181.212 336 181.722 336 182.255V207.172C336 207.704 335.784 208.215 335.4 208.591C335.016 208.967 334.495 209.179 333.951 209.179H328.402C327.858 209.179 327.337 208.967 326.953 208.591C326.568 208.215 326.352 207.704 326.352 207.172V200.273C326.352 199.877 326.233 199.49 326.008 199.16C325.784 198.831 325.465 198.573 325.092 198.421C324.719 198.268 324.308 198.228 323.911 198.303C323.514 198.379 323.149 198.568 322.861 198.847L287.149 233.479C286.764 233.852 286.244 234.061 285.702 234.06C285.16 234.059 284.641 233.847 284.258 233.472L256.57 206.354C256.379 206.168 256.153 206.02 255.904 205.919C255.654 205.818 255.387 205.766 255.117 205.767C254.847 205.767 254.58 205.82 254.331 205.922C254.082 206.024 253.857 206.173 253.667 206.361L222.217 237.414C222.024 237.605 221.793 237.756 221.538 237.858C221.284 237.96 221.011 238.011 220.736 238.007C220.461 238.004 220.189 237.946 219.938 237.838C219.686 237.729 219.459 237.573 219.27 237.377" fill="#040405"/>
<path d="M221.233 247.251H230.975C231.887 247.251 232.762 247.606 233.407 248.238C234.052 248.869 234.414 249.726 234.414 250.619V273.632C234.414 274.525 234.052 275.382 233.407 276.014C232.762 276.645 231.887 277 230.975 277H221.233C220.321 277 219.447 276.645 218.802 276.014C218.157 275.382 217.795 274.525 217.795 273.632V250.619C217.795 249.726 218.157 248.869 218.802 248.238C219.447 247.606 220.321 247.251 221.233 247.251Z" fill="#040405"/>
<path d="M255.044 232.658H264.786C265.698 232.658 266.573 233.013 267.217 233.644C267.862 234.276 268.224 235.132 268.224 236.025V273.632C268.224 274.525 267.862 275.382 267.217 276.013C266.573 276.645 265.698 277 264.786 277H255.044C254.132 277 253.257 276.645 252.613 276.013C251.968 275.382 251.605 274.525 251.605 273.632V236.025C251.605 235.132 251.968 234.276 252.613 233.644C253.257 233.013 254.132 232.658 255.044 232.658Z" fill="#040405"/>
<path d="M288.855 245.006H298.598C299.509 245.006 300.384 245.361 301.029 245.993C301.674 246.624 302.036 247.481 302.036 248.374V273.632C302.036 274.525 301.674 275.382 301.029 276.014C300.384 276.645 299.509 277 298.598 277H288.855C287.943 277 287.069 276.645 286.424 276.014C285.779 275.382 285.417 274.525 285.417 273.632V248.374C285.417 247.481 285.779 246.624 286.424 245.993C287.069 245.361 287.943 245.006 288.855 245.006Z" fill="#040405"/>
<path d="M322.666 219.748H332.408C333.32 219.748 334.195 220.103 334.839 220.734C335.484 221.366 335.847 222.223 335.847 223.116V273.632C335.847 274.525 335.484 275.382 334.839 276.014C334.195 276.645 333.32 277 332.408 277H322.666C321.754 277 320.879 276.645 320.235 276.014C319.59 275.382 319.228 274.525 319.228 273.632V223.116C319.228 222.223 319.59 221.366 320.235 220.734C320.879 220.103 321.754 219.748 322.666 219.748Z" fill="#040405"/>
<path d="M282.528 117V127.04C284.543 127.459 286.532 127.985 288.488 128.616C290.646 129.319 292.723 130.238 294.688 131.36L290.872 140.934C287.006 138.695 282.609 137.487 278.118 137.431C276.147 137.352 274.191 137.796 272.456 138.715C271.77 139.076 271.2 139.616 270.81 140.276C270.421 140.936 270.227 141.69 270.251 142.452C270.217 143.19 270.374 143.925 270.708 144.588C271.041 145.252 271.54 145.822 272.158 146.246C273.429 147.142 275.534 148.056 278.475 148.989L282.767 150.392C292.779 153.428 297.786 159.11 297.786 167.438C297.795 169.413 297.432 171.373 296.713 173.219C295.993 175.056 294.921 176.74 293.554 178.181C292.066 179.729 290.285 180.978 288.309 181.859C286.028 182.88 283.592 183.531 281.098 183.785V194.402H271.681V184.014C268.96 183.73 266.269 183.222 263.635 182.496C261.058 181.762 258.622 180.618 256.424 179.11L261.073 169.304C263.205 170.778 265.557 171.92 268.046 172.689C270.264 173.371 272.574 173.725 274.899 173.74C278.077 173.74 280.361 173.195 281.753 172.106C282.396 171.652 282.919 171.055 283.282 170.366C283.644 169.676 283.835 168.912 283.839 168.136C283.86 167.414 283.721 166.696 283.433 166.031C283.145 165.367 282.715 164.77 282.171 164.283C281.057 163.272 278.991 162.3 275.972 161.364L271.324 159.849C269.299 159.245 267.343 158.443 265.483 157.455C263.732 156.539 262.125 155.379 260.715 154.011C259.359 152.682 258.267 151.118 257.495 149.398C256.67 147.498 256.264 145.449 256.303 143.385C256.277 141.184 256.703 139 257.555 136.964C258.355 135.067 259.553 133.357 261.071 131.944C262.628 130.512 264.449 129.383 266.435 128.616C268.567 127.785 270.82 127.292 273.11 127.157V117H282.528Z" fill="#040405"/>
</g>
</g>
<defs>
<clipPath id="clip0_0_1">
<rect width="122" height="160" fill="white" transform="translate(214 117)"/>
</clipPath>
</defs>
</svg>
