<svg xmlns="http://www.w3.org/2000/svg" width="65" height="65" viewBox="0 0 65 65">
  <g id="Group_12534" data-name="Group 12534" transform="translate(0 12779)">
    <circle id="Ellipse_1193" data-name="Ellipse 1193" cx="32.5" cy="32.5" r="32.5" transform="translate(0 -12779)" fill="#fae7cd"/>
    <g id="dataset_24dp_000000_FILL0_wght400_GRAD0_opsz24" transform="translate(20 -12759)">
      <path id="dataset_24dp_000000_FILL0_wght400_GRAD0_opsz24-2" data-name="dataset_24dp_000000_FILL0_wght400_GRAD0_opsz24" d="M125.778-819.778h5.778v-5.778h-5.778Zm8.667,0h5.778v-5.778h-5.778Zm-8.667-8.667h5.778v-5.778h-5.778Zm8.667,0h5.778v-5.778h-5.778ZM122.889-814a2.782,2.782,0,0,1-2.04-.849,2.782,2.782,0,0,1-.849-2.04v-20.222a2.782,2.782,0,0,1,.849-2.04,2.782,2.782,0,0,1,2.04-.849h20.222a2.782,2.782,0,0,1,2.04.849,2.782,2.782,0,0,1,.849,2.04v20.222a2.782,2.782,0,0,1-.849,2.04,2.782,2.782,0,0,1-2.04.849Zm0-2.889h20.222v-20.222H122.889Zm0-20.222v0Z" transform="translate(-120 840)" fill="#915e18"/>
    </g>
  </g>
</svg>
