<svg width="25" height="23" viewBox="0 0 25 23" fill="none" xmlns="http://www.w3.org/2000/svg">
<path d="M18.4174 10.6369L18.2033 8.93054C18.0424 8.87539 17.8873 8.80454 17.7404 8.71904C17.591 8.63561 17.449 8.53957 17.316 8.43196L15.7306 9.10186L14.4333 6.86156L15.8046 5.82899C15.7918 5.74542 15.7825 5.66182 15.7767 5.57824C15.771 5.49466 15.7684 5.41106 15.769 5.32749C15.769 5.24774 15.7716 5.16674 15.7767 5.08444C15.7818 5.00214 15.7911 4.9122 15.8046 4.81459L14.4333 3.78103L15.7306 1.55124L17.3112 2.21349C17.4485 2.10522 17.5936 2.00702 17.7452 1.91969C17.8898 1.83553 18.0414 1.7641 18.1985 1.70626L18.4174 0H21.01L21.2242 1.71205C21.3834 1.76843 21.5367 1.83985 21.6822 1.92542C21.8264 2.01182 21.9647 2.10772 22.0961 2.2125L23.6978 1.55031L24.995 3.78004L23.6017 4.83276C23.6208 4.91604 23.6318 5.00098 23.6344 5.08637C23.6344 5.16484 23.6344 5.24394 23.6344 5.32369C23.6344 5.40344 23.6325 5.48094 23.6286 5.55622C23.6235 5.64709 23.6106 5.73735 23.5902 5.82607L24.973 6.86442L23.6757 9.10472L22.0932 8.43482C21.9582 8.54268 21.8158 8.64087 21.6668 8.72862C21.5254 8.81223 21.3762 8.88211 21.2213 8.93726L21.0072 10.6493L18.4174 10.6369ZM19.152 9.79664H20.2572L20.4589 8.2961C20.7343 8.22599 20.9989 8.11877 21.2453 7.97742C21.4955 7.82999 21.7262 7.65186 21.9319 7.44723L23.3281 8.03197L23.8812 7.07499L22.6617 6.15912C22.7073 6.02023 22.7394 5.87732 22.7577 5.73232C22.7745 5.59228 22.7829 5.45136 22.7827 5.31031C22.7831 5.16926 22.7747 5.02827 22.7577 4.88825C22.7394 4.74669 22.7072 4.60726 22.6617 4.47196L23.8917 3.54558L23.3386 2.5886L21.9261 3.18192C21.7288 2.97366 21.5024 2.79479 21.2539 2.65081C21.006 2.50321 20.7374 2.39322 20.4569 2.32447L20.2793 0.823927H19.1635L18.9772 2.31875C18.6988 2.38302 18.4312 2.48751 18.1831 2.62884C17.9286 2.77719 17.6948 2.95833 17.4879 3.16761L16.0917 2.58766L15.5386 3.54465L16.7523 4.44614C16.7059 4.58056 16.6738 4.71943 16.6563 4.8605C16.6372 5.01095 16.6279 5.16247 16.6285 5.31411C16.6282 5.45748 16.6375 5.6007 16.6563 5.74284C16.6762 5.88348 16.7083 6.02211 16.7523 6.1572L15.5434 7.07306L16.0965 8.03004L17.4879 7.44151C17.69 7.6512 17.9205 7.83186 18.1725 7.97835C18.4251 8.12137 18.6962 8.22926 18.9782 8.29896L19.152 9.79664ZM19.7204 6.99555C19.9425 6.99931 20.1629 6.95767 20.3682 6.87324C20.5735 6.7888 20.7593 6.66336 20.914 6.50462C21.0733 6.35039 21.1992 6.16523 21.2839 5.96065C21.3686 5.75606 21.4104 5.53634 21.4066 5.31505C21.4104 5.09375 21.3686 4.87409 21.2839 4.6695C21.1992 4.46492 21.0733 4.27976 20.914 4.12553C20.7593 3.96679 20.5735 3.84134 20.3682 3.75691C20.1629 3.67247 19.9425 3.63084 19.7204 3.6346C19.4976 3.62995 19.2761 3.67116 19.0699 3.75562C18.8637 3.84009 18.6772 3.96601 18.5221 4.12553C18.364 4.28041 18.2392 4.46575 18.1553 4.67026C18.0714 4.87477 18.0303 5.09415 18.0343 5.31505C18.0303 5.53594 18.0714 5.75538 18.1553 5.95989C18.2392 6.1644 18.364 6.34974 18.5221 6.50462C18.6773 6.66425 18.864 6.79023 19.0704 6.8747C19.2767 6.95917 19.4974 7.00033 19.7204 6.99555Z" fill="#070748"/>
<path d="M6.30495 17.6802L15.457 20.2641L22.9844 17.9386C22.9354 17.6785 22.7931 17.4451 22.5839 17.2821C22.3872 17.1315 22.1454 17.051 21.8974 17.0534H15.723C15.2546 17.0572 14.7863 17.0361 14.3201 16.9902C13.9155 16.9438 13.5176 16.8513 13.1342 16.7146L10.2871 15.7768L10.8469 13.9298L13.4002 14.8141C13.8292 14.9524 14.273 15.0408 14.7224 15.0772C15.2218 15.1238 15.9323 15.1538 16.8542 15.1672C16.8616 14.8844 16.7883 14.6053 16.6429 14.3624C16.5178 14.1497 16.3212 13.988 16.0879 13.9059L8.77181 11.2263C8.74979 11.2189 8.72734 11.2128 8.70459 11.2081C8.6828 11.2036 8.66059 11.2014 8.63833 11.2014H6.30495V17.6802ZM0 21.3541V9.31812H8.62393C8.75919 9.31831 8.89406 9.33273 9.02628 9.36116C9.15415 9.38806 9.28045 9.42194 9.40461 9.46262L16.7524 12.1603C17.3326 12.3773 17.8309 12.7686 18.1783 13.28C18.5621 13.8335 18.7607 14.4936 18.7458 15.1662H21.8983C22.3071 15.1515 22.7145 15.2216 23.0946 15.372C23.4748 15.5224 23.8195 15.7499 24.1069 16.04C24.3943 16.3418 24.6181 16.6981 24.7649 17.0877C24.9117 17.4772 24.9785 17.8922 24.9615 18.308V19.3224L15.5156 22.247L6.30495 19.6239V21.3464L0 21.3541ZM1.89168 19.4688H4.41423V11.2024H1.89168V19.4688Z" fill="#070748"/>
</svg>
