<svg width="55" height="60" viewBox="0 0 55 60" fill="none" xmlns="http://www.w3.org/2000/svg">
<g clip-path="url(#clip0_138_5203)">
<mask id="mask0_138_5203" style="mask-type:luminance" maskUnits="userSpaceOnUse" x="0" y="0" width="55" height="60">
<path d="M55 0H0V60H55V0Z" fill="white"/>
</mask>
<g mask="url(#mask0_138_5203)">
<path d="M8.37066 9.39137C8.61754 9.33855 8.87451 9.35985 9.10931 9.4526C9.34412 9.54535 9.54628 9.70542 9.69041 9.91269C9.83454 10.12 9.91421 10.3652 9.91942 10.6176C9.92462 10.87 9.85513 11.1183 9.71966 11.3314C9.25966 12.0634 5.73466 13.5504 4.72966 14.4844C3.81062 15.3875 3.18658 16.5477 2.93966 17.8124V41.5904C3.17348 43.0551 3.9495 44.3783 5.11366 45.2974L24.8467 56.8124C25.6633 57.247 26.5741 57.4742 27.4992 57.4742C28.4242 57.4742 29.3351 57.247 30.1517 56.8124C36.6767 53.8864 43.3517 48.4894 49.8857 45.2984C51.0495 44.3792 51.8252 43.0559 52.0587 41.5914L52.0407 17.6444C51.7431 16.4031 51.0934 15.2742 50.1697 14.3934C49.1837 13.5224 45.7127 12.0244 45.2777 11.3324C45.1617 11.1409 45.0965 10.9231 45.0882 10.6995C45.0799 10.4758 45.1287 10.2538 45.2301 10.0543C45.3315 9.85474 45.4821 9.68439 45.6677 9.5593C45.8533 9.43421 46.0677 9.35852 46.2907 9.33937C47.0317 9.33237 51.5907 12.2004 52.2537 12.8664C53.7996 14.5951 54.6714 16.8226 54.7097 19.1414C55.0963 26.1748 55.093 33.2243 54.6997 40.2574C54.4607 43.8964 53.4057 45.9424 50.4117 47.9224C45.1597 51.3924 37.9487 55.5334 32.3497 58.4524C28.4867 60.4664 26.6667 60.5414 22.7727 58.5184C16.1817 55.0954 9.71666 50.6744 3.22766 47.0054C1.17066 45.2904 0.467663 42.8584 0.299663 40.2564C-0.0939191 33.2233 -0.0972576 26.1738 0.289663 19.1404C0.483663 16.0664 1.47766 13.6464 4.01466 11.8604C5.41536 10.9483 6.87114 10.1237 8.37366 9.39137" fill="#2256A8"/>
<path d="M23.1049 40.398C25.9181 40.1565 28.7462 40.1411 31.5619 40.352C32.333 40.4667 33.064 40.7698 33.69 41.2345C34.316 41.6992 34.8178 42.3111 35.1509 43.016C35.7439 44.476 35.8039 48.531 35.6239 50.147C35.605 50.6012 35.4441 51.038 35.1639 51.396C33.3429 52.408 31.4459 53.837 29.5829 54.716C27.7739 55.569 27.3829 55.629 25.5439 54.78C23.6659 53.915 21.7949 52.446 19.9319 51.491C19.1589 50.691 19.2779 46.637 19.3699 45.386C19.5409 43.086 20.6129 40.823 23.1059 40.399" fill="#2256A8"/>
<path d="M48.9714 43.3302L39.5384 48.9542C37.5744 49.7542 38.3714 45.8982 38.2664 44.6352C38.1572 43.1269 37.6351 41.6777 36.7574 40.4462C35.9574 39.4032 34.2874 38.8942 34.7184 37.4462C34.9294 36.7342 36.9034 35.7152 37.6184 35.6172C39.1074 35.4172 45.5524 35.4282 46.8184 35.8342C47.5287 36.1003 48.1668 36.5291 48.6815 37.0863C49.1962 37.6435 49.5731 38.3136 49.7822 39.0427C49.9912 39.7719 50.0264 40.5399 49.8851 41.2851C49.7438 42.0304 49.4298 42.7322 48.9684 43.3342" fill="#2256A8"/>
<path d="M6.02867 43.33C3.92867 41.067 5.23767 36.776 8.17867 35.83C9.44267 35.424 15.8877 35.4091 17.3787 35.6131C18.5887 35.7791 20.9657 37.1351 20.2297 38.6421C20.1467 38.8121 18.6237 39.9681 18.2497 40.4511C17.3926 41.6212 16.869 43.0019 16.7347 44.4461C16.6247 45.6551 16.9347 47.3341 16.7267 48.4311C16.7104 48.5695 16.6574 48.7011 16.5734 48.8123C16.4893 48.9235 16.3771 49.0102 16.2483 49.0636C16.1195 49.117 15.9788 49.1351 15.8407 49.116C15.7026 49.0969 15.5721 49.0414 15.4627 48.955L6.02867 43.33Z" fill="#2256A8"/>
<path d="M16.5314 19.0641C14.2414 19.0451 11.7894 17.5881 11.4584 15.1381C11.1766 11.4141 11.1766 7.67414 11.4584 3.95013C11.6869 2.96566 12.2168 2.077 12.9743 1.40802C13.7319 0.739045 14.6792 0.323088 15.6844 0.218134C23.2414 -0.473866 31.8314 0.753134 39.4974 0.225134C40.4966 0.370288 41.4253 0.824339 42.1535 1.52369C42.8817 2.22304 43.373 3.13266 43.5584 4.12513C43.827 7.84585 43.8126 11.5816 43.5154 15.3001C43.1254 17.6371 40.7324 19.0301 38.5474 19.0361C38.0924 19.8461 39.1974 21.7291 38.2714 22.1921C37.3854 22.6351 36.1834 21.7121 35.5254 21.1501C34.9504 20.6581 33.9604 19.1561 33.4474 19.0581C32.3474 18.9646 31.2404 18.9958 30.1474 19.1511C29.3324 19.5241 28.5974 22.3511 27.4354 22.2511C26.3354 22.1511 25.6574 19.5221 24.8534 19.1511C23.6264 18.9406 22.3703 18.9674 21.1534 19.2301C20.7094 19.5011 19.7824 20.9911 18.9424 21.5691C15.0364 24.2571 16.9014 19.4551 16.5274 19.0641M37.3184 20.7641C36.9794 19.9951 37.0994 18.0191 38.0184 17.7641C38.4544 17.6421 38.9714 17.7781 39.4464 17.6801C40.2001 17.5253 40.8867 17.1394 41.4108 16.576C41.9349 16.0127 42.2703 15.3 42.3704 14.5371C42.6397 11.3274 42.6554 8.10137 42.4174 4.88913C42.3842 4.08319 42.0763 3.31287 41.5447 2.70618C41.0132 2.09948 40.29 1.69295 39.4954 1.55413C31.8694 2.12613 23.1774 0.809134 15.6774 1.54913C14.8443 1.6383 14.0714 2.02532 13.5009 2.639C12.9304 3.25267 12.6007 4.05172 12.5724 4.88913C12.3287 8.15245 12.3561 11.4304 12.6544 14.6891C12.7757 15.4214 13.1168 16.0994 13.6324 16.6332C14.148 17.1671 14.8138 17.5315 15.5414 17.6781C16.2494 17.8231 16.8414 17.4781 17.4004 18.0891C17.659 18.4797 17.8188 18.9273 17.8658 19.3933C17.9128 19.8593 17.8458 20.3298 17.6704 20.7641C19.6554 20.1041 19.4704 17.9321 21.7224 17.7131C24.6034 17.4311 26.0784 17.6571 27.2894 20.4561L27.6794 20.5741C28.1394 19.6501 28.9024 18.0841 29.9444 17.8131C31.3088 17.6095 32.6972 17.6288 34.0554 17.8701C35.3754 18.3021 35.7714 20.4301 37.3174 20.7701" fill="#2256A8"/>
<path d="M12.9196 24.8041C19.2436 24.5701 19.6096 33.8761 14.1646 34.6311C6.64063 35.6751 6.35963 25.0471 12.9196 24.8041Z" fill="#2256A8"/>
<path d="M41.6324 24.8013C47.8374 24.4643 48.5374 33.8473 42.8804 34.6323C35.5064 35.6553 35.0344 25.1593 41.6324 24.8013Z" fill="#2256A8"/>
<path d="M27.0817 29.5619C33.4817 29.0359 34.1457 38.6059 28.5187 39.3859C21.1947 40.4019 20.6847 30.0859 27.0817 29.5619Z" fill="#2256A8"/>
<path d="M17.9585 13.3481C17.8685 13.3341 17.5035 13.1421 17.4775 13.0301L17.7695 12.0171H30.4275C30.9765 12.0171 30.9765 13.3481 30.4275 13.3481H17.9585Z" fill="#2256A8"/>
<path d="M37.2285 5.93115L37.5285 6.40915C37.5985 7.14615 36.8595 7.22115 36.2955 7.27215C33.1509 7.49963 29.9937 7.4906 26.8505 7.24515C26.4665 7.18915 26.1655 7.11515 26.0625 6.70215L26.1625 6.21315C26.2625 6.15315 26.4075 5.93215 26.4625 5.93215L37.2285 5.93115Z" fill="#2256A8"/>
<path d="M24.2876 5.93115L24.4666 6.76415C24.2666 7.42415 20.0666 7.33015 19.2736 7.27015C18.3386 7.20115 16.8106 7.11615 17.7736 5.93115H24.2876Z" fill="#2256A8"/>
<path d="M37.2284 12.0171L37.5204 13.0301C37.4794 13.1521 37.0884 13.3481 37.0394 13.3481H32.8834C32.3344 13.3481 32.3344 12.0171 32.8834 12.0171H37.2284Z" fill="#2256A8"/>
</g>
</g>
<defs>
<clipPath id="clip0_138_5203">
<rect width="55" height="60" fill="white"/>
</clipPath>
</defs>
</svg>
