<svg xmlns="http://www.w3.org/2000/svg" width="24" height="24" viewBox="0 0 24 24">
  <path id="info_FILL0_wght300_GRAD0_opsz24" d="M111.054-842h1.895v-7.263h-1.895Zm.947-9.425a.988.988,0,0,0,.727-.293.988.988,0,0,0,.293-.727.987.987,0,0,0-.293-.727.987.987,0,0,0-.727-.293.987.987,0,0,0-.727.293.987.987,0,0,0-.293.727.988.988,0,0,0,.293.727A.988.988,0,0,0,112-851.424ZM112-836a11.689,11.689,0,0,1-4.68-.945,12.124,12.124,0,0,1-3.811-2.565,12.117,12.117,0,0,1-2.566-3.809A11.678,11.678,0,0,1,100-848a11.69,11.69,0,0,1,.945-4.68,12.122,12.122,0,0,1,2.565-3.811,12.113,12.113,0,0,1,3.809-2.566A11.678,11.678,0,0,1,112-860a11.691,11.691,0,0,1,4.68.945,12.124,12.124,0,0,1,3.811,2.565,12.117,12.117,0,0,1,2.566,3.809A11.678,11.678,0,0,1,124-848a11.69,11.69,0,0,1-.945,4.68,12.122,12.122,0,0,1-2.565,3.811,12.113,12.113,0,0,1-3.809,2.566A11.678,11.678,0,0,1,112-836Zm0-1.895a9.753,9.753,0,0,0,7.168-2.937A9.753,9.753,0,0,0,122.106-848a9.753,9.753,0,0,0-2.937-7.169A9.753,9.753,0,0,0,112-858.1a9.753,9.753,0,0,0-7.168,2.937A9.753,9.753,0,0,0,101.9-848a9.753,9.753,0,0,0,2.937,7.169A9.753,9.753,0,0,0,112-837.894ZM112-848Z" transform="translate(-100.001 859.999)" fill="#e81e1f"/>
</svg>
