<svg xmlns="http://www.w3.org/2000/svg" width="26" height="26" viewBox="0 0 26 26">
  <g id="Group_10350" data-name="Group 10350" transform="translate(7110 -1769)">
    <rect id="Rectangle_5634" data-name="Rectangle 5634" width="26" height="26" transform="translate(-7110 1769)" fill="none"/>
    <path id="quiz_24dp_000000_FILL0_wght300_GRAD0_opsz24" d="M125.162-843.088a1.211,1.211,0,0,0,.884-.378,1.211,1.211,0,0,0,.378-.884,1.211,1.211,0,0,0-.378-.884,1.211,1.211,0,0,0-.884-.378,1.211,1.211,0,0,0-.884.378,1.21,1.21,0,0,0-.378.884,1.21,1.21,0,0,0,.378.884A1.211,1.211,0,0,0,125.162-843.088Zm-.822-4.146h1.643a3.648,3.648,0,0,1,.24-1.385,4.934,4.934,0,0,1,1.011-1.223,7.044,7.044,0,0,0,1.3-1.545,3.009,3.009,0,0,0,.345-1.466,3.153,3.153,0,0,0-1.039-2.427,3.8,3.8,0,0,0-2.677-.956,3.729,3.729,0,0,0-2.252.706,4,4,0,0,0-1.411,1.9l1.49.625a2.976,2.976,0,0,1,.9-1.252,2.046,2.046,0,0,1,1.276-.418,2.142,2.142,0,0,1,1.49.525,1.772,1.772,0,0,1,.583,1.384,1.773,1.773,0,0,1-.3.979,6.367,6.367,0,0,1-1.024,1.125,5.244,5.244,0,0,0-1.29,1.482A4.871,4.871,0,0,0,124.34-847.234Zm-7.024,7.91a2.4,2.4,0,0,1-1.768-.724,2.4,2.4,0,0,1-.724-1.768v-15.692a2.4,2.4,0,0,1,.724-1.768,2.406,2.406,0,0,1,1.768-.724h15.692a2.406,2.406,0,0,1,1.768.724,2.4,2.4,0,0,1,.724,1.768v15.692a2.4,2.4,0,0,1-.724,1.768,2.4,2.4,0,0,1-1.768.724Zm0-2.068h15.692a.4.4,0,0,0,.292-.133.4.4,0,0,0,.133-.292v-15.692a.4.4,0,0,0-.133-.292.4.4,0,0,0-.292-.133H117.316a.4.4,0,0,0-.292.133.4.4,0,0,0-.133.292v15.692a.4.4,0,0,0,.133.292A.4.4,0,0,0,117.316-841.392Zm-4.824,6.892a2.4,2.4,0,0,1-1.768-.724,2.4,2.4,0,0,1-.724-1.768v-17.76h2.068v17.76a.4.4,0,0,0,.133.292.4.4,0,0,0,.292.133h17.76v2.068Zm4.4-23.432v0Z" transform="translate(-7220 2629)"/>
  </g>
</svg>
