<svg xmlns="http://www.w3.org/2000/svg" width="50" height="38.889" viewBox="0 0 50 38.889">
  <path id="mail_24dp_000000_FILL0_wght200_GRAD0_opsz24" d="M124.488-721.111a4.347,4.347,0,0,1-3.2-1.285A4.347,4.347,0,0,1,120-725.6v-29.914a4.347,4.347,0,0,1,1.285-3.2,4.347,4.347,0,0,1,3.2-1.285h41.025a4.347,4.347,0,0,1,3.2,1.285,4.347,4.347,0,0,1,1.285,3.2V-725.6a4.347,4.347,0,0,1-1.285,3.2,4.347,4.347,0,0,1-3.2,1.285ZM145-740.235l-22.222-14.531V-725.6a1.666,1.666,0,0,0,.481,1.229,1.666,1.666,0,0,0,1.229.481h41.025a1.666,1.666,0,0,0,1.229-.481,1.666,1.666,0,0,0,.481-1.229v-29.167Zm0-3.1,21.367-13.889H123.633Zm-22.222-11.432V-725.6a1.666,1.666,0,0,0,.481,1.229,1.666,1.666,0,0,0,1.229.481h-1.71Z" transform="translate(-120 760)"/>
</svg>
