<svg xmlns="http://www.w3.org/2000/svg" width="50" height="38.889" viewBox="0 0 50 38.889">
  <path id="web_24dp_000000_FILL0_wght200_GRAD0_opsz24" d="M124.488-721.111a4.347,4.347,0,0,1-3.2-1.285A4.347,4.347,0,0,1,120-725.6v-29.914a4.346,4.346,0,0,1,1.285-3.2,4.346,4.346,0,0,1,3.2-1.285h41.025a4.346,4.346,0,0,1,3.2,1.285,4.347,4.347,0,0,1,1.285,3.2V-725.6a4.347,4.347,0,0,1-1.285,3.2,4.347,4.347,0,0,1-3.2,1.285Zm0-2.778h28.846v-10.79H122.778v9.081a1.634,1.634,0,0,0,.534,1.176A1.634,1.634,0,0,0,124.488-723.889Zm31.624,0h9.4a1.634,1.634,0,0,0,1.176-.534,1.634,1.634,0,0,0,.534-1.176v-22.649H156.111Zm-33.333-13.568h30.556v-10.791H122.778Z" transform="translate(-120 760)"/>
</svg>
