<svg xmlns="http://www.w3.org/2000/svg" width="50" height="47.436" viewBox="0 0 50 47.436">
  <path id="chat_24dp_000000_FILL0_wght200_GRAD0_opsz24" d="M129.722-810.833h19.444v-2.778H129.722Zm0-8.333h30.556v-2.778H129.722Zm0-8.333h30.556v-2.778H129.722ZM120-792.564v-42.949a4.347,4.347,0,0,1,1.285-3.2,4.347,4.347,0,0,1,3.2-1.285h41.025a4.347,4.347,0,0,1,3.2,1.285,4.347,4.347,0,0,1,1.285,3.2V-805.6a4.346,4.346,0,0,1-1.285,3.2,4.347,4.347,0,0,1-3.2,1.285H128.547Zm7.361-11.325h38.151a1.634,1.634,0,0,0,1.176-.534,1.634,1.634,0,0,0,.534-1.176v-29.914a1.634,1.634,0,0,0-.534-1.176,1.634,1.634,0,0,0-1.176-.534H124.488a1.634,1.634,0,0,0-1.176.534,1.634,1.634,0,0,0-.534,1.176v36.191Zm-4.583,0v0Z" transform="translate(-120 840)"/>
</svg>
