<svg width="60" height="56" viewBox="0 0 60 56" fill="none" xmlns="http://www.w3.org/2000/svg">
<path d="M13.6716 1.04184C15.63 0.877661 17.5954 1.26267 19.3471 2.15363C21.0988 3.04459 22.5675 4.40622 23.5882 6.08565C24.6089 7.76507 25.1412 9.69577 25.1254 11.661C25.1095 13.6262 24.5462 15.5481 23.4986 17.2108C22.6627 18.4728 21.5717 19.5457 20.2959 20.3603C19.0201 21.1749 17.5878 21.7132 16.0913 21.9406C14.5948 22.1679 13.0672 22.0792 11.6071 21.6802C10.1469 21.2812 8.78653 20.5807 7.6136 19.6238C5.99486 18.2776 4.81742 16.4766 4.23366 14.4538C3.64989 12.431 3.68668 10.2795 4.33925 8.27786C4.99182 6.27619 6.23015 4.51644 7.89396 3.22638C9.55777 1.93631 11.5705 1.1753 13.6716 1.04184ZM16.8716 6.56184C16.6659 6.34462 16.4326 6.15534 16.1776 5.99884C15.9776 5.88084 15.4526 5.75084 15.3636 5.59884C15.1776 5.29084 15.5286 4.95284 15.0146 4.54584C14.1836 3.88784 13.4146 4.81084 13.5796 5.68384C12.9168 5.84991 12.3192 6.21131 11.8644 6.72117C11.4095 7.23103 11.1183 7.86581 11.0286 8.54317C10.939 9.22053 11.0549 9.90921 11.3614 10.5199C11.6679 11.1305 12.1509 11.635 12.7476 11.9678C13.6766 12.4878 14.5476 12.2168 15.3196 12.6268C17.4416 13.7578 15.3676 16.9548 13.3876 15.4268C12.6566 14.8628 12.9386 14.4588 12.6876 13.8198C12.605 13.6129 12.4486 13.444 12.2486 13.3457C12.0486 13.2475 11.8192 13.2269 11.605 13.288C11.3907 13.3491 11.2067 13.4875 11.0886 13.6765C10.9705 13.8654 10.9267 14.0915 10.9656 14.3108C11.0373 14.9246 11.2585 15.5115 11.6098 16.0199C11.9611 16.5283 12.4318 16.9427 12.9806 17.2268C13.1306 17.2978 13.5586 17.3628 13.5806 17.3858C13.6806 17.5048 13.3656 18.6558 14.3736 18.7528C15.4396 18.8528 15.2016 17.6258 15.4096 17.4238C15.5256 17.3108 16.0266 17.2008 16.2556 17.0608C16.8124 16.7352 17.2656 16.2586 17.563 15.6862C17.8604 15.1138 17.9897 14.469 17.9361 13.8262C17.8824 13.1834 17.648 12.5689 17.2598 12.0537C16.8717 11.5385 16.3457 11.1437 15.7426 10.9148C14.9026 10.5938 13.9656 10.8318 13.2956 10.2318C12.9858 9.93324 12.8 9.52882 12.7752 9.09927C12.7504 8.66971 12.8884 8.24659 13.1617 7.91431C13.4351 7.58202 13.8237 7.365 14.2499 7.30653C14.6762 7.24806 15.1089 7.35243 15.4616 7.59884C16.4176 8.28784 15.9896 9.05484 16.4216 9.54684C16.5159 9.65553 16.6355 9.73937 16.7699 9.79097C16.9042 9.84258 17.0492 9.86038 17.192 9.8428C17.3348 9.82521 17.4711 9.77279 17.589 9.69015C17.7068 9.6075 17.8025 9.49716 17.8676 9.36884C18.2676 8.45284 17.5086 7.16884 16.8676 6.56184" fill="#2256A8"/>
<path d="M46.3057 52.403V20.421C46.3057 19.861 47.2387 19.092 47.7987 18.998C49.6453 18.8485 51.5006 18.8392 53.3487 18.97C53.6696 18.9819 53.9825 19.073 54.2596 19.2353C54.5367 19.3976 54.7693 19.6259 54.9367 19.9C55.0523 20.1309 55.1467 20.3719 55.2187 20.62V52.353L46.3057 52.403Z" fill="#2256A8"/>
<path d="M32.5303 28.0053C32.6628 27.727 32.8542 27.4808 33.0913 27.2838C33.3284 27.0868 33.6054 26.9436 33.9033 26.8643C35.8582 26.7196 37.8209 26.7159 39.7763 26.8533C40.3763 26.9113 41.3413 27.5843 41.3413 28.2053V52.3543L32.5293 52.5033L32.5303 28.0053Z" fill="#2256A8"/>
<path d="M27.4663 52.503L18.6543 52.403V36.084C18.6543 35.569 19.4113 34.873 19.9153 34.732C21.9293 34.5429 23.9554 34.5191 25.9733 34.661C26.4303 34.736 27.4663 35.432 27.4663 35.885V52.503Z" fill="#2256A8"/>
<path d="M54.1709 0.347082C54.7089 0.877082 54.4709 1.86808 54.5049 2.56308C54.6899 4.78684 54.7263 7.02047 54.6139 9.24908C54.615 9.46675 54.5615 9.68122 54.4585 9.87296C54.3554 10.0647 54.2061 10.2276 54.024 10.3469C53.8419 10.4662 53.6329 10.538 53.416 10.5558C53.199 10.5737 52.9811 10.537 52.7819 10.4491C52.2289 10.2831 50.3289 8.60408 49.9189 8.70408C49.2841 9.31303 48.6861 9.95917 48.1279 10.6391C37.5559 21.5661 24.5279 29.7711 9.12793 32.1391L14.4469 30.5451C27.5189 26.2241 38.7059 17.5051 46.9109 6.74508C46.9109 6.27708 44.7109 5.63208 44.4999 4.62708C44.4159 4.31374 44.4565 3.98002 44.6134 3.69602C44.7702 3.41202 45.031 3.19985 45.3409 3.10408C47.6189 1.94408 50.4709 1.20408 52.8049 0.0820825C53.035 -0.00217797 53.2838 -0.0220288 53.5243 0.0246705C53.7648 0.0713698 53.9891 0.182847 54.1709 0.347082Z" fill="#2256A8"/>
<path d="M0.597341 54.2202L59.4773 54.2432C59.6341 54.324 59.7656 54.4463 59.8575 54.5969C59.9493 54.7475 59.9979 54.9204 59.9979 55.0967C59.9979 55.2731 59.9493 55.446 59.8575 55.5966C59.7656 55.7471 59.6341 55.8695 59.4773 55.9502L0.877341 55.9992C-0.172659 56.0832 -0.298659 54.4182 0.599341 54.2192" fill="#2256A8"/>
<path d="M13.6884 52.403L4.77539 52.353V46.266C4.88732 45.8652 5.07059 45.4878 5.31639 45.152C5.70032 44.852 6.16083 44.666 6.64539 44.615C8.49378 44.4842 10.3494 44.4935 12.1964 44.643C12.7644 44.743 13.6894 45.477 13.6894 46.066L13.6884 52.403Z" fill="#2256A8"/>
</svg>
