<svg width="39" height="35" viewBox="0 0 39 35" fill="none" xmlns="http://www.w3.org/2000/svg">
<g clip-path="url(#clip0_142_1803)">
<path d="M19.1033 32.2342C19.2965 32.232 19.4871 32.1885 19.6619 32.1068C19.8276 32.037 19.9793 31.9384 20.11 31.8156L34.9528 17.0659C35.3482 16.6831 35.6689 16.231 35.899 15.7323C36.1095 15.2639 36.2176 14.7565 36.216 14.2435C36.217 13.7086 36.1091 13.1791 35.899 12.6867C35.6806 12.1784 35.3585 11.7207 34.9528 11.3426L27.5293 3.96748C27.1649 3.57737 26.7224 3.26735 26.2302 3.05745C25.75 2.86241 25.2356 2.76437 24.7169 2.76906C24.2003 2.76774 23.6883 2.86566 23.2092 3.05745C22.7054 3.26425 22.2512 3.57437 21.8762 3.96748L20.8124 5.02445L24.2455 8.46425C24.6498 8.84135 24.965 9.30277 25.1685 9.81528C25.3663 10.3168 25.4674 10.8509 25.4665 11.3896C25.4808 11.9111 25.3875 12.43 25.1923 12.9143C24.9971 13.3986 24.7042 13.8381 24.3315 14.2057C23.9616 14.5759 23.5193 14.867 23.0318 15.061C22.5444 15.2549 22.0221 15.3476 21.4972 15.3334C20.9556 15.3344 20.4178 15.2432 19.9071 15.0639C19.3922 14.883 18.9254 14.5884 18.5417 14.2022L15.0262 10.7379L6.96159 18.7515C6.82552 18.8847 6.71814 19.044 6.64597 19.2198C6.57656 19.3887 6.54091 19.5693 6.54099 19.7517C6.53841 19.9131 6.56823 20.0734 6.62871 20.2231C6.6892 20.3729 6.77913 20.5092 6.89325 20.624C7.00357 20.7412 7.1375 20.834 7.28632 20.8963C7.43514 20.9587 7.59551 20.9892 7.75699 20.9858C7.95026 20.9837 8.14081 20.9403 8.31567 20.8585C8.48133 20.7888 8.63309 20.6901 8.76375 20.5673L14.8564 14.5108L16.8122 16.454L10.7449 22.5105C10.6089 22.6438 10.5015 22.8031 10.4292 22.9788C10.3598 23.1477 10.3242 23.3283 10.3243 23.5107C10.3225 23.6691 10.3534 23.8262 10.4151 23.9722C10.4767 24.1182 10.5679 24.2502 10.6829 24.3599C10.7932 24.4741 10.926 24.5647 11.073 24.6259C11.22 24.6872 11.3781 24.7179 11.5374 24.7162C11.7307 24.7141 11.9213 24.6706 12.0961 24.5888C12.2619 24.5192 12.4136 24.4206 12.5442 24.2976L18.8546 18.0563L20.811 19.9995L14.5295 26.2695C14.3925 26.3907 14.2873 26.5432 14.2231 26.714C14.1494 26.89 14.1107 27.0784 14.1089 27.2691C14.1071 27.4275 14.138 27.5847 14.1996 27.7309C14.2613 27.877 14.3525 28.0091 14.4675 28.1188C14.5779 28.2331 14.7107 28.3237 14.8577 28.3849C15.0047 28.4462 15.1627 28.4769 15.3221 28.4752C15.5057 28.4752 15.6875 28.4398 15.8575 28.3709C16.0342 28.2991 16.1943 28.1924 16.3282 28.0573L22.6385 21.8161L24.595 23.7593L18.2846 30.0292C18.1456 30.1667 18.0379 30.3324 17.969 30.515C17.9018 30.6845 17.8662 30.8648 17.864 31.047C17.8607 31.2077 17.8933 31.3672 17.9593 31.514C18.0253 31.6608 18.1231 31.7912 18.2459 31.896C18.4783 32.1125 18.7847 32.2334 19.1033 32.2342ZM19.0744 34.9999C18.0506 35.0111 17.0635 34.6213 16.3267 33.9149C15.9474 33.5717 15.643 33.1547 15.4325 32.6897C15.222 32.2248 15.1098 31.7219 15.103 31.2122C14.1181 31.1692 13.182 30.7739 12.4674 30.0992C11.7498 29.4013 11.3375 28.4507 11.3197 27.4532C10.3171 27.4229 9.36418 27.0124 8.65666 26.3059C7.97375 25.603 7.58452 24.6689 7.56748 23.6921C6.53734 23.6544 5.56016 23.229 4.83395 22.5021C4.4768 22.1398 4.19717 21.7094 4.01192 21.2368C3.82667 20.7643 3.73962 20.2593 3.75603 19.7525C3.75669 19.2049 3.86262 18.6625 4.06813 18.1544C4.27223 17.639 4.58141 17.1712 4.97626 16.7803L15.0262 6.82277L20.4623 12.2232C20.5798 12.3567 20.7269 12.4612 20.892 12.5285C21.0745 12.6051 21.2709 12.6436 21.469 12.6419C21.7929 12.6473 22.1062 12.5278 22.3433 12.3087C22.4647 12.1984 22.5605 12.0632 22.624 11.9125C22.6875 11.7617 22.7172 11.599 22.7111 11.4357C22.7129 11.2391 22.6741 11.0442 22.597 10.8631C22.5292 10.6991 22.424 10.553 22.2898 10.4362L15.78 3.96817C15.4135 3.57642 14.9676 3.26629 14.4717 3.05817C13.9882 2.8637 13.4709 2.76571 12.9493 2.76978C12.4383 2.76736 11.9319 2.86537 11.4592 3.05817C10.9586 3.27077 10.5055 3.58009 10.1263 3.96817L4.03009 10.0533C3.68542 10.3986 3.40451 10.8014 3.20017 11.2433C2.98962 11.6834 2.86097 12.1577 2.82044 12.6433C2.78199 13.0321 2.80002 13.4244 2.87398 13.8081C2.94578 14.1873 3.077 14.5529 3.26287 14.8917L1.21484 16.9259C0.788958 16.3101 0.469421 15.628 0.269374 14.9078C0.0585001 14.1717 -0.0295563 13.4062 0.00870356 12.6419C0.0466856 11.7937 0.242811 10.9598 0.587112 10.1828C0.934898 9.39133 1.43019 8.67242 2.04687 8.06387L8.12475 2.02496C8.77756 1.38167 9.54738 0.867408 10.3933 0.50948C11.2088 0.170546 12.0844 -0.00253298 12.9683 0.000544242C13.8493 -0.00308699 14.7221 0.170038 15.5342 0.50948C16.3702 0.864982 17.128 1.37984 17.7647 2.02496L18.8285 3.08124L19.8916 2.02496C20.5421 1.38313 21.3087 0.86899 22.151 0.50948C22.9634 0.170075 23.8363 -0.00304677 24.7176 0.000544242C25.6015 -0.00253298 26.4771 0.170546 27.2926 0.50948C28.1321 0.863445 28.8932 1.37842 29.5322 2.02496L36.9078 9.35467C37.5713 10.01 38.0981 10.789 38.4578 11.6471C38.8117 12.478 38.9949 13.3707 38.9967 14.2729C39 15.1511 38.8163 16.0202 38.4578 16.823C38.0839 17.6508 37.5583 18.4023 36.9078 19.0391L22.0636 33.7595C21.6691 34.1561 21.1989 34.4707 20.6807 34.6849C20.1714 34.8941 19.6255 35.0012 19.0744 34.9999Z" fill="#2256A8"/>
</g>
<defs>
<clipPath id="clip0_142_1803">
<rect width="39" height="35" fill="white"/>
</clipPath>
</defs>
</svg>
