<svg xmlns="http://www.w3.org/2000/svg" width="26" height="26" viewBox="0 0 26 26">
  <path id="call_24dp_000000_FILL0_wght300_GRAD0_opsz24" d="M164.379-794a20.618,20.618,0,0,1-8.687-2.01,27.659,27.659,0,0,1-8.018-5.672,27.852,27.852,0,0,1-5.665-8.018,20.567,20.567,0,0,1-2.01-8.679,1.578,1.578,0,0,1,.459-1.158,1.549,1.549,0,0,1,1.147-.463h4.988a1.528,1.528,0,0,1,1.022.378,1.662,1.662,0,0,1,.563.934l.877,4.5a2.576,2.576,0,0,1-.038,1.076,1.6,1.6,0,0,1-.465.756l-3.532,3.439a21.208,21.208,0,0,0,1.948,2.954,29.087,29.087,0,0,0,2.372,2.66,26.355,26.355,0,0,0,2.676,2.339,26.921,26.921,0,0,0,3.062,2.009l3.432-3.462a1.944,1.944,0,0,1,.869-.524,2.5,2.5,0,0,1,1.06-.074l4.247.865a1.8,1.8,0,0,1,.946.591,1.507,1.507,0,0,1,.366.994v4.959a1.549,1.549,0,0,1-.463,1.147A1.578,1.578,0,0,1,164.379-794Zm-20.444-17.088,2.73-2.612a.273.273,0,0,0,.1-.162.357.357,0,0,0-.007-.191l-.665-3.418a.316.316,0,0,0-.1-.176.3.3,0,0,0-.191-.059h-3.271a.2.2,0,0,0-.147.059.2.2,0,0,0-.059.147,19.526,19.526,0,0,0,.513,3.185A19.448,19.448,0,0,0,143.935-811.088Zm13.306,13.218a15.724,15.724,0,0,0,3.172,1.084,18.017,18.017,0,0,0,3.087.445.2.2,0,0,0,.147-.059.2.2,0,0,0,.059-.147v-3.218a.3.3,0,0,0-.059-.191.316.316,0,0,0-.176-.1l-3.212-.653a.24.24,0,0,0-.154-.007.377.377,0,0,0-.14.1l-2.723,2.753ZM143.935-811.088ZM157.241-797.871Z" transform="translate(-140 820)" fill="#070748"/>
</svg>
