<svg xmlns="http://www.w3.org/2000/svg" width="26" height="20.526" viewBox="0 0 26 20.526">
  <path id="home_repair_service_24dp_000000_FILL0_wght300_GRAD0_opsz24" d="M113-767.184Zm-13,7.711v-12.947a2.388,2.388,0,0,1,.718-1.755,2.388,2.388,0,0,1,1.755-.719H106.5v-2.631a2.388,2.388,0,0,1,.718-1.755,2.388,2.388,0,0,1,1.755-.718h8.052a2.388,2.388,0,0,1,1.755.718,2.388,2.388,0,0,1,.718,1.755v2.631h4.026a2.388,2.388,0,0,1,1.755.718,2.388,2.388,0,0,1,.718,1.755v12.947Zm7.105-6.684v1.368h-2.053v-1.368h-3v4.632h21.895v-4.632h-3v1.368h-2.053v-1.368Zm-5.053-6.263v4.211h3v-1.368h2.053v1.368h11.79v-1.368h2.053v1.368h3v-4.211a.4.4,0,0,0-.132-.289.4.4,0,0,0-.289-.132H102.474a.4.4,0,0,0-.289.132A.4.4,0,0,0,102.053-772.421Zm6.5-2.474h8.895v-2.631a.4.4,0,0,0-.132-.289.4.4,0,0,0-.289-.132h-8.052a.4.4,0,0,0-.289.132.4.4,0,0,0-.132.289Z" transform="translate(-100 780)"/>
</svg>
