<svg width="151" height="151" viewBox="0 0 151 151" fill="none" xmlns="http://www.w3.org/2000/svg">
<path d="M118.055 0.28125H32.0547C14.3816 0.28125 0.0546875 14.608 0.0546875 32.281V118.28C0.0546875 135.953 14.3816 150.28 32.0547 150.28H118.055C135.728 150.28 150.055 135.953 150.055 118.28V32.281C150.055 14.608 135.728 0.28125 118.055 0.28125Z" fill="#EDDEC2"/>
<rect x="55.0547" y="40.2812" width="41" height="40.9996" rx="8" fill="#F8BB3E"/>
<path d="M69.9516 65.9052H71.2642V58.4042H69.9516V65.9052ZM74.8994 65.9052H76.2121V54.6537H74.8994V65.9052ZM79.8472 65.9052H81.1599V62.1547H79.8472V65.9052ZM67.1746 70.2806C66.8944 70.2876 66.6158 70.2399 66.3557 70.1405C66.0956 70.041 65.8597 69.892 65.6624 69.7025C65.4634 69.5146 65.3069 69.2899 65.2025 69.0422C65.0981 68.7945 65.0481 68.5291 65.0554 68.2623V52.3002C65.0481 52.0334 65.0981 51.768 65.2025 51.5203C65.3069 51.2726 65.4634 51.0479 65.6624 50.86C65.8597 50.6705 66.0956 50.5214 66.3557 50.422C66.6158 50.3226 66.8944 50.2749 67.1746 50.2819H83.9348C84.2149 50.2749 84.4936 50.3226 84.7537 50.422C85.0137 50.5214 85.2497 50.6705 85.447 50.86C85.646 51.0479 85.8025 51.2726 85.9069 51.5203C86.0112 51.768 86.0613 52.0334 86.054 52.3002V68.2623C86.0613 68.5291 86.0112 68.7945 85.9069 69.0422C85.8025 69.2899 85.646 69.5146 85.447 69.7025C85.2497 69.892 85.0137 70.041 84.7537 70.1405C84.4936 70.2399 84.2149 70.2876 83.9348 70.2806H67.1746ZM67.1746 69.0304H83.9348C84.0397 69.0284 84.1431 69.0061 84.2386 68.9649C84.3342 68.9236 84.4199 68.8642 84.4905 68.7904C84.5681 68.7231 84.6304 68.6414 84.6738 68.5504C84.7171 68.4594 84.7405 68.361 84.7426 68.2611V52.299C84.7405 52.1991 84.7171 52.1006 84.6738 52.0096C84.6304 51.9186 84.5681 51.837 84.4905 51.7697C84.4199 51.6959 84.3342 51.6365 84.2386 51.5952C84.1431 51.554 84.0397 51.5317 83.9348 51.5297H67.1746C67.0697 51.5317 66.9663 51.554 66.8708 51.5952C66.7752 51.6365 66.6895 51.6959 66.6188 51.7697C66.5413 51.837 66.479 51.9186 66.4356 52.0096C66.3923 52.1006 66.3689 52.1991 66.3668 52.299V68.2611C66.3689 68.361 66.3923 68.4594 66.4356 68.5504C66.479 68.6414 66.5413 68.7231 66.6188 68.7904C66.6895 68.8642 66.7752 68.9236 66.8708 68.9649C66.9663 69.0061 67.0697 69.0284 67.1746 69.0304Z" fill="black"/>
<path d="M54.5077 109.208C54.5824 109.208 54.6501 109.239 54.7107 109.299L55.2427 109.88C54.8321 110.356 54.3327 110.727 53.7447 110.993C53.1614 111.259 52.4567 111.392 51.6307 111.392C50.9074 111.392 50.2517 111.269 49.6637 111.021C49.0757 110.769 48.5741 110.419 48.1587 109.971C47.7434 109.519 47.4214 108.977 47.1927 108.347C46.9641 107.717 46.8497 107.024 46.8497 106.268C46.8497 105.512 46.9711 104.819 47.2137 104.189C47.4611 103.559 47.8064 103.018 48.2497 102.565C48.6931 102.113 49.2227 101.763 49.8387 101.515C50.4594 101.263 51.1431 101.137 51.8897 101.137C52.6271 101.137 53.2617 101.252 53.7937 101.48C54.3304 101.709 54.8064 102.019 55.2217 102.411L54.7807 103.034C54.7481 103.081 54.7107 103.121 54.6687 103.153C54.6267 103.181 54.5661 103.195 54.4867 103.195C54.4261 103.195 54.3607 103.174 54.2907 103.132C54.2254 103.086 54.1461 103.03 54.0527 102.964C53.9594 102.899 53.8497 102.829 53.7237 102.754C53.5977 102.68 53.4484 102.61 53.2757 102.544C53.1031 102.479 52.9024 102.425 52.6737 102.383C52.4451 102.337 52.1814 102.313 51.8827 102.313C51.3461 102.313 50.8537 102.407 50.4057 102.593C49.9624 102.775 49.5797 103.037 49.2577 103.377C48.9357 103.718 48.6837 104.133 48.5017 104.623C48.3244 105.113 48.2357 105.662 48.2357 106.268C48.2357 106.894 48.3244 107.451 48.5017 107.941C48.6837 108.431 48.9287 108.847 49.2367 109.187C49.5494 109.523 49.9181 109.78 50.3427 109.957C50.7674 110.135 51.2247 110.223 51.7147 110.223C52.0134 110.223 52.2817 110.207 52.5197 110.174C52.7577 110.137 52.9771 110.081 53.1777 110.006C53.3831 109.932 53.5721 109.838 53.7447 109.726C53.9221 109.61 54.0994 109.472 54.2767 109.313C54.3561 109.243 54.4331 109.208 54.5077 109.208ZM59.6957 104.077C60.2137 104.077 60.6804 104.164 61.0957 104.336C61.5157 104.509 61.8704 104.754 62.1597 105.071C62.4537 105.389 62.6777 105.774 62.8317 106.226C62.9904 106.674 63.0697 107.176 63.0697 107.731C63.0697 108.291 62.9904 108.795 62.8317 109.243C62.6777 109.691 62.4537 110.074 62.1597 110.391C61.8704 110.709 61.5157 110.954 61.0957 111.126C60.6804 111.294 60.2137 111.378 59.6957 111.378C59.1777 111.378 58.7087 111.294 58.2887 111.126C57.8734 110.954 57.5187 110.709 57.2247 110.391C56.9307 110.074 56.7044 109.691 56.5457 109.243C56.387 108.795 56.3077 108.291 56.3077 107.731C56.3077 107.176 56.387 106.674 56.5457 106.226C56.7044 105.774 56.9307 105.389 57.2247 105.071C57.5187 104.754 57.8734 104.509 58.2887 104.336C58.7087 104.164 59.1777 104.077 59.6957 104.077ZM59.6957 110.405C60.3957 110.405 60.9184 110.172 61.2637 109.705C61.609 109.234 61.7817 108.578 61.7817 107.738C61.7817 106.894 61.609 106.236 61.2637 105.764C60.9184 105.293 60.3957 105.057 59.6957 105.057C59.341 105.057 59.033 105.118 58.7717 105.239C58.5104 105.361 58.291 105.536 58.1137 105.764C57.941 105.993 57.8104 106.275 57.7217 106.611C57.6377 106.943 57.5957 107.318 57.5957 107.738C57.5957 108.158 57.6377 108.534 57.7217 108.865C57.8104 109.197 57.941 109.477 58.1137 109.705C58.291 109.929 58.5104 110.102 58.7717 110.223C59.033 110.345 59.341 110.405 59.6957 110.405ZM64.605 111.28V104.189H65.347C65.5243 104.189 65.6363 104.276 65.683 104.448L65.774 105.176C66.0353 104.854 66.327 104.591 66.649 104.385C66.9757 104.18 67.3537 104.077 67.783 104.077C68.2637 104.077 68.651 104.21 68.945 104.476C69.2437 104.742 69.4583 105.102 69.589 105.554C69.687 105.298 69.8153 105.076 69.974 104.889C70.1373 104.703 70.3193 104.549 70.52 104.427C70.7207 104.306 70.933 104.217 71.157 104.161C71.3857 104.105 71.6167 104.077 71.85 104.077C72.2233 104.077 72.5547 104.138 72.844 104.259C73.138 104.376 73.3853 104.549 73.586 104.777C73.7913 105.006 73.9477 105.288 74.055 105.624C74.1623 105.956 74.216 106.336 74.216 106.765V111.28H72.97V106.765C72.97 106.21 72.8487 105.79 72.606 105.505C72.3633 105.216 72.011 105.071 71.549 105.071C71.3437 105.071 71.1477 105.109 70.961 105.183C70.779 105.253 70.618 105.358 70.478 105.498C70.338 105.638 70.226 105.816 70.142 106.03C70.0627 106.24 70.023 106.485 70.023 106.765V111.28H68.777V106.765C68.777 106.196 68.6627 105.771 68.434 105.491C68.2053 105.211 67.8717 105.071 67.433 105.071C67.125 105.071 66.838 105.155 66.572 105.323C66.3107 105.487 66.0703 105.711 65.851 105.995V111.28H64.605ZM76.1031 113.681V104.189H76.8451C77.0224 104.189 77.1344 104.276 77.1811 104.448L77.2861 105.288C77.5894 104.92 77.9347 104.623 78.3221 104.399C78.7141 104.175 79.1644 104.063 79.6731 104.063C80.0791 104.063 80.4477 104.143 80.7791 104.301C81.1104 104.455 81.3927 104.686 81.6261 104.994C81.8594 105.298 82.0391 105.676 82.1651 106.128C82.2911 106.581 82.3541 107.101 82.3541 107.689C82.3541 108.212 82.2841 108.7 82.1441 109.152C82.0041 109.6 81.8034 109.99 81.5421 110.321C81.2807 110.648 80.9587 110.907 80.5761 111.098C80.1981 111.285 79.7711 111.378 79.2951 111.378C78.8564 111.378 78.4807 111.306 78.1681 111.161C77.8601 111.017 77.5871 110.811 77.3491 110.545V113.681H76.1031ZM79.2601 105.071C78.8541 105.071 78.4971 105.165 78.1891 105.351C77.8857 105.538 77.6057 105.802 77.3491 106.142V109.572C77.5777 109.88 77.8274 110.097 78.0981 110.223C78.3734 110.349 78.6791 110.412 79.0151 110.412C79.6731 110.412 80.1794 110.177 80.5341 109.705C80.8887 109.234 81.0661 108.562 81.0661 107.689C81.0661 107.227 81.0241 106.831 80.9401 106.499C80.8607 106.168 80.7441 105.897 80.5901 105.687C80.4361 105.473 80.2471 105.316 80.0231 105.218C79.7991 105.12 79.5447 105.071 79.2601 105.071ZM89.0357 111.28H88.4827C88.3613 111.28 88.2633 111.262 88.1887 111.224C88.114 111.187 88.065 111.108 88.0417 110.986L87.9017 110.328C87.715 110.496 87.533 110.648 87.3557 110.783C87.1783 110.914 86.9917 111.026 86.7957 111.119C86.5997 111.208 86.3897 111.276 86.1657 111.322C85.9463 111.369 85.7013 111.392 85.4307 111.392C85.1553 111.392 84.8963 111.355 84.6537 111.28C84.4157 111.201 84.208 111.084 84.0307 110.93C83.8533 110.776 83.711 110.583 83.6037 110.349C83.501 110.111 83.4497 109.831 83.4497 109.509C83.4497 109.229 83.5267 108.961 83.6807 108.704C83.8347 108.443 84.082 108.212 84.4227 108.011C84.768 107.811 85.2183 107.647 85.7737 107.521C86.329 107.391 87.008 107.316 87.8107 107.297V106.744C87.8107 106.194 87.6917 105.778 87.4537 105.498C87.2203 105.214 86.8727 105.071 86.4107 105.071C86.1073 105.071 85.8507 105.111 85.6407 105.19C85.4353 105.265 85.2557 105.351 85.1017 105.449C84.9523 105.543 84.8217 105.629 84.7097 105.708C84.6023 105.783 84.495 105.82 84.3877 105.82C84.3037 105.82 84.229 105.799 84.1637 105.757C84.103 105.711 84.054 105.655 84.0167 105.589L83.7927 105.19C84.1847 104.812 84.607 104.53 85.0597 104.343C85.5123 104.157 86.014 104.063 86.5647 104.063C86.9613 104.063 87.3137 104.129 87.6217 104.259C87.9297 104.39 88.1887 104.572 88.3987 104.805C88.6087 105.039 88.7673 105.321 88.8747 105.652C88.982 105.984 89.0357 106.348 89.0357 106.744V111.28ZM85.8017 110.517C86.021 110.517 86.2217 110.496 86.4037 110.454C86.5857 110.408 86.756 110.345 86.9147 110.265C87.078 110.181 87.232 110.081 87.3767 109.964C87.526 109.848 87.6707 109.715 87.8107 109.565V108.088C87.2367 108.107 86.749 108.154 86.3477 108.228C85.9463 108.298 85.6197 108.392 85.3677 108.508C85.1157 108.625 84.9313 108.763 84.8147 108.921C84.7027 109.08 84.6467 109.257 84.6467 109.453C84.6467 109.64 84.677 109.801 84.7377 109.936C84.7983 110.072 84.88 110.184 84.9827 110.272C85.0853 110.356 85.2067 110.419 85.3467 110.461C85.4867 110.499 85.6383 110.517 85.8017 110.517ZM90.9234 111.28V104.189H91.6374C91.7727 104.189 91.866 104.215 91.9174 104.266C91.9687 104.318 92.0037 104.406 92.0224 104.532L92.1064 105.638C92.349 105.144 92.6477 104.759 93.0024 104.483C93.3617 104.203 93.7817 104.063 94.2624 104.063C94.4584 104.063 94.6357 104.087 94.7944 104.133C94.953 104.175 95.1 104.236 95.2354 104.315L95.0744 105.246C95.0417 105.363 94.9694 105.421 94.8574 105.421C94.792 105.421 94.6917 105.4 94.5564 105.358C94.421 105.312 94.232 105.288 93.9894 105.288C93.5554 105.288 93.1914 105.414 92.8974 105.666C92.608 105.918 92.3654 106.285 92.1694 106.765V111.28H90.9234ZM99.3769 104.077C99.8015 104.077 100.194 104.15 100.553 104.294C100.912 104.434 101.223 104.64 101.484 104.91C101.745 105.176 101.948 105.508 102.093 105.904C102.242 106.296 102.317 106.744 102.317 107.248C102.317 107.444 102.296 107.575 102.254 107.64C102.212 107.706 102.133 107.738 102.016 107.738H97.2979C97.3072 108.186 97.3679 108.576 97.4799 108.907C97.5919 109.239 97.7459 109.516 97.9419 109.74C98.1379 109.96 98.3712 110.125 98.6419 110.237C98.9125 110.345 99.2159 110.398 99.5519 110.398C99.8645 110.398 100.133 110.363 100.357 110.293C100.586 110.219 100.782 110.139 100.945 110.055C101.108 109.971 101.244 109.894 101.351 109.824C101.463 109.75 101.559 109.712 101.638 109.712C101.741 109.712 101.82 109.752 101.876 109.831L102.226 110.286C102.072 110.473 101.888 110.636 101.673 110.776C101.458 110.912 101.227 111.024 100.98 111.112C100.737 111.201 100.485 111.266 100.224 111.308C99.9625 111.355 99.7035 111.378 99.4469 111.378C98.9569 111.378 98.5042 111.297 98.0889 111.133C97.6782 110.965 97.3212 110.723 97.0179 110.405C96.7192 110.083 96.4859 109.687 96.3179 109.215C96.1499 108.744 96.0659 108.203 96.0659 107.591C96.0659 107.097 96.1405 106.635 96.2899 106.205C96.4439 105.776 96.6632 105.405 96.9479 105.092C97.2325 104.775 97.5802 104.528 97.9909 104.35C98.4015 104.168 98.8635 104.077 99.3769 104.077ZM99.4049 104.994C98.8029 104.994 98.3292 105.169 97.9839 105.519C97.6385 105.865 97.4239 106.345 97.3399 106.961H101.197C101.197 106.672 101.157 106.408 101.078 106.17C100.999 105.928 100.882 105.72 100.728 105.547C100.574 105.37 100.385 105.235 100.161 105.141C99.9415 105.043 99.6895 104.994 99.4049 104.994Z" fill="black"/>
</svg>
