<svg width="166" height="167" viewBox="0 0 166 167" fill="none" xmlns="http://www.w3.org/2000/svg">
<g filter="url(#filter0_d_404_11767)">
<path d="M126 4.24512H40C22.3269 4.24512 8 18.5719 8 36.2448V122.244C8 139.917 22.3269 154.244 40 154.244H126C143.673 154.244 158 139.917 158 122.244V36.2448C158 18.5719 143.673 4.24512 126 4.24512Z" fill="#FFF4DF"/>
</g>
<rect x="63" y="44.2451" width="41" height="40.9996" rx="8" fill="#F0C15B"/>
<path d="M76.5857 70.2432C75.8497 70.257 75.1186 70.1223 74.4375 69.8472C73.7564 69.5721 73.1398 69.1625 72.6257 68.6437C72.0986 68.1375 71.6825 67.5304 71.4031 66.8596C71.1237 66.1889 70.9868 65.469 71.001 64.7441C70.987 64.0194 71.124 63.2995 71.4034 62.6289C71.6828 61.9583 72.0988 61.3511 72.6257 60.8449C73.1397 60.3259 73.7563 59.9163 74.4374 59.6411C75.1185 59.366 75.8496 59.2312 76.5857 59.2451C77.1959 59.2433 77.8011 59.3536 78.3702 59.5703C78.9361 59.785 79.4584 60.0978 79.9122 60.4939L81.9457 62.2586L80.7388 63.31L78.8441 61.6625C78.5325 61.3988 78.1777 61.1889 77.7948 61.0419C77.4099 60.8922 76.9996 60.8157 76.5857 60.8163C76.0607 60.8082 75.5396 60.9061 75.0545 61.1041C74.5695 61.3021 74.1308 61.5958 73.7656 61.9673C73.3884 62.3273 73.09 62.7595 72.889 63.2373C72.6879 63.7152 72.5884 64.2285 72.5966 64.7457C72.5882 65.2626 72.6875 65.7758 72.8884 66.2534C73.0893 66.7311 73.3875 67.1631 73.7646 67.5229C74.1302 67.894 74.5692 68.1874 75.0543 68.385C75.5395 68.5826 76.0607 68.6803 76.5857 68.672C76.9998 68.6728 77.4103 68.5963 77.7955 68.4467C78.1783 68.2997 78.5331 68.0898 78.8448 67.8261L87.0881 60.4939C87.5351 60.0911 88.0561 59.7759 88.6231 59.5653C89.1953 59.3518 89.8024 59.2432 90.4143 59.2451C91.1503 59.2313 91.8814 59.3661 92.5625 59.6411C93.2436 59.9162 93.8602 60.3258 94.3743 60.8446C94.9014 61.3508 95.3174 61.9579 95.5969 62.6287C95.8763 63.2994 96.0132 64.0193 95.999 64.7441C96.013 65.4689 95.8761 66.1888 95.5966 66.8594C95.3172 67.53 94.9012 68.1372 94.3743 68.6434C93.8603 69.1623 93.2437 69.572 92.5626 69.8472C91.8815 70.1223 91.1504 70.2571 90.4143 70.2432C89.8048 70.2454 89.2004 70.1332 88.6336 69.9126C88.07 69.6935 87.5477 69.3832 87.0881 68.9944L85.0744 67.2297L86.2609 66.1682L88.1556 67.8261C88.4638 68.0959 88.8194 68.3082 89.2048 68.4527C89.5909 68.5987 90.0011 68.6733 90.4146 68.6726C90.9397 68.6808 91.4608 68.583 91.9459 68.385C92.431 68.1871 92.8698 67.8934 93.2351 67.5219C93.6121 67.1619 93.9103 66.7296 94.1112 66.2518C94.312 65.7739 94.4114 65.2606 94.4031 64.7435C94.4115 64.2266 94.3122 63.7134 94.1113 63.2358C93.9104 62.7581 93.6122 62.3261 93.2351 61.9663C92.8697 61.5952 92.431 61.3018 91.946 61.104C91.4611 60.9062 90.9401 60.8083 90.4153 60.8163C90.0012 60.8155 89.5907 60.892 89.2055 61.0416C88.8226 61.1886 88.4678 61.3984 88.1562 61.6622L79.9119 68.9944C79.4649 69.3972 78.9439 69.7123 78.3769 69.923C77.8047 70.1365 77.1976 70.245 76.5857 70.2432Z" fill="white"/>
<path d="M37.1978 101.781C37.1558 101.851 37.1115 101.905 37.0648 101.942C37.0181 101.975 36.9575 101.991 36.8828 101.991C36.8035 101.991 36.7101 101.951 36.6028 101.872C36.5001 101.793 36.3671 101.706 36.2038 101.613C36.0451 101.515 35.8515 101.426 35.6228 101.347C35.3988 101.268 35.1258 101.228 34.8038 101.228C34.5005 101.228 34.2321 101.27 33.9988 101.354C33.7655 101.433 33.5695 101.543 33.4108 101.683C33.2568 101.823 33.1401 101.989 33.0608 102.18C32.9815 102.367 32.9418 102.57 32.9418 102.789C32.9418 103.069 33.0095 103.302 33.1448 103.489C33.2848 103.671 33.4668 103.827 33.6908 103.958C33.9195 104.089 34.1761 104.203 34.4608 104.301C34.7501 104.394 35.0441 104.492 35.3428 104.595C35.6461 104.698 35.9401 104.814 36.2248 104.945C36.5141 105.071 36.7708 105.232 36.9948 105.428C37.2235 105.624 37.4055 105.864 37.5408 106.149C37.6808 106.434 37.7508 106.784 37.7508 107.199C37.7508 107.638 37.6761 108.051 37.5268 108.438C37.3775 108.821 37.1581 109.154 36.8688 109.439C36.5841 109.724 36.2318 109.948 35.8118 110.111C35.3965 110.274 34.9228 110.356 34.3908 110.356C33.7421 110.356 33.1495 110.239 32.6128 110.006C32.0808 109.768 31.6258 109.448 31.2478 109.047L31.6398 108.403C31.6771 108.352 31.7215 108.31 31.7728 108.277C31.8288 108.24 31.8895 108.221 31.9548 108.221C32.0528 108.221 32.1648 108.275 32.2908 108.382C32.4168 108.485 32.5731 108.599 32.7598 108.725C32.9511 108.851 33.1798 108.968 33.4458 109.075C33.7165 109.178 34.0455 109.229 34.4328 109.229C34.7548 109.229 35.0418 109.185 35.2938 109.096C35.5458 109.007 35.7581 108.884 35.9308 108.725C36.1081 108.562 36.2435 108.368 36.3368 108.144C36.4301 107.92 36.4768 107.67 36.4768 107.395C36.4768 107.092 36.4068 106.844 36.2668 106.653C36.1315 106.457 35.9518 106.294 35.7278 106.163C35.5038 106.032 35.2471 105.923 34.9578 105.834C34.6731 105.741 34.3791 105.647 34.0758 105.554C33.7771 105.456 33.4831 105.344 33.1938 105.218C32.9091 105.092 32.6548 104.929 32.4308 104.728C32.2068 104.527 32.0248 104.278 31.8848 103.979C31.7495 103.676 31.6818 103.302 31.6818 102.859C31.6818 102.504 31.7495 102.161 31.8848 101.83C32.0248 101.499 32.2255 101.205 32.4868 100.948C32.7481 100.691 33.0701 100.486 33.4528 100.332C33.8401 100.178 34.2835 100.101 34.7828 100.101C35.3428 100.101 35.8538 100.19 36.3158 100.367C36.7778 100.544 37.1815 100.801 37.5268 101.137L37.1978 101.781ZM39.2876 110.244V103.153H40.0296C40.207 103.153 40.319 103.239 40.3656 103.412L40.4566 104.14C40.718 103.818 41.0096 103.554 41.3316 103.349C41.6583 103.144 42.0363 103.041 42.4656 103.041C42.9463 103.041 43.3336 103.174 43.6276 103.44C43.9263 103.706 44.141 104.065 44.2716 104.518C44.3696 104.261 44.498 104.04 44.6566 103.853C44.82 103.666 45.002 103.512 45.2026 103.391C45.4033 103.27 45.6156 103.181 45.8396 103.125C46.0683 103.069 46.2993 103.041 46.5326 103.041C46.906 103.041 47.2373 103.102 47.5266 103.223C47.8206 103.34 48.068 103.512 48.2686 103.741C48.474 103.97 48.6303 104.252 48.7376 104.588C48.845 104.919 48.8986 105.3 48.8986 105.729V110.244H47.6526V105.729C47.6526 105.174 47.5313 104.754 47.2886 104.469C47.046 104.18 46.6936 104.035 46.2316 104.035C46.0263 104.035 45.8303 104.072 45.6436 104.147C45.4616 104.217 45.3006 104.322 45.1606 104.462C45.0206 104.602 44.9086 104.779 44.8246 104.994C44.7453 105.204 44.7056 105.449 44.7056 105.729V110.244H43.4596V105.729C43.4596 105.16 43.3453 104.735 43.1166 104.455C42.888 104.175 42.5543 104.035 42.1156 104.035C41.8076 104.035 41.5206 104.119 41.2546 104.287C40.9933 104.45 40.753 104.674 40.5336 104.959V110.244H39.2876ZM55.9937 110.244H55.4407C55.3193 110.244 55.2213 110.225 55.1467 110.188C55.072 110.151 55.023 110.071 54.9997 109.95L54.8597 109.292C54.673 109.46 54.491 109.612 54.3137 109.747C54.1363 109.878 53.9497 109.99 53.7537 110.083C53.5577 110.172 53.3477 110.239 53.1237 110.286C52.9043 110.333 52.6593 110.356 52.3887 110.356C52.1133 110.356 51.8543 110.319 51.6117 110.244C51.3737 110.165 51.166 110.048 50.9887 109.894C50.8113 109.74 50.669 109.546 50.5617 109.313C50.459 109.075 50.4077 108.795 50.4077 108.473C50.4077 108.193 50.4847 107.925 50.6387 107.668C50.7927 107.407 51.04 107.176 51.3807 106.975C51.726 106.774 52.1763 106.611 52.7317 106.485C53.287 106.354 53.966 106.28 54.7687 106.261V105.708C54.7687 105.157 54.6497 104.742 54.4117 104.462C54.1783 104.177 53.8307 104.035 53.3687 104.035C53.0653 104.035 52.8087 104.075 52.5987 104.154C52.3933 104.229 52.2137 104.315 52.0597 104.413C51.9103 104.506 51.7797 104.593 51.6677 104.672C51.5603 104.747 51.453 104.784 51.3457 104.784C51.2617 104.784 51.187 104.763 51.1217 104.721C51.061 104.674 51.012 104.618 50.9747 104.553L50.7507 104.154C51.1427 103.776 51.565 103.494 52.0177 103.307C52.4703 103.12 52.972 103.027 53.5227 103.027C53.9193 103.027 54.2717 103.092 54.5797 103.223C54.8877 103.354 55.1467 103.536 55.3567 103.769C55.5667 104.002 55.7253 104.285 55.8327 104.616C55.94 104.947 55.9937 105.311 55.9937 105.708V110.244ZM52.7597 109.481C52.979 109.481 53.1797 109.46 53.3617 109.418C53.5437 109.371 53.714 109.308 53.8727 109.229C54.036 109.145 54.19 109.045 54.3347 108.928C54.484 108.811 54.6287 108.678 54.7687 108.529V107.052C54.1947 107.071 53.707 107.117 53.3057 107.192C52.9043 107.262 52.5777 107.355 52.3257 107.472C52.0737 107.589 51.8893 107.726 51.7727 107.885C51.6607 108.044 51.6047 108.221 51.6047 108.417C51.6047 108.604 51.635 108.765 51.6957 108.9C51.7563 109.035 51.838 109.147 51.9407 109.236C52.0433 109.32 52.1647 109.383 52.3047 109.425C52.4447 109.462 52.5963 109.481 52.7597 109.481ZM57.8814 110.244V103.153H58.5954C58.7307 103.153 58.824 103.179 58.8754 103.23C58.9267 103.281 58.9617 103.37 58.9804 103.496L59.0644 104.602C59.307 104.107 59.6057 103.722 59.9604 103.447C60.3197 103.167 60.7397 103.027 61.2204 103.027C61.4164 103.027 61.5937 103.05 61.7524 103.097C61.911 103.139 62.058 103.2 62.1934 103.279L62.0324 104.21C61.9997 104.327 61.9274 104.385 61.8154 104.385C61.75 104.385 61.6497 104.364 61.5144 104.322C61.379 104.275 61.19 104.252 60.9474 104.252C60.5134 104.252 60.1494 104.378 59.8554 104.63C59.566 104.882 59.3234 105.248 59.1274 105.729V110.244H57.8814ZM65.6769 110.356C65.1169 110.356 64.6852 110.2 64.3819 109.887C64.0832 109.574 63.9339 109.124 63.9339 108.536V104.196H63.0799C63.0052 104.196 62.9422 104.175 62.8909 104.133C62.8395 104.086 62.8139 104.016 62.8139 103.923V103.426L63.9759 103.279L64.2629 101.088C64.2722 101.018 64.3025 100.962 64.3539 100.92C64.4052 100.873 64.4705 100.85 64.5499 100.85H65.1799V103.293H67.2099V104.196H65.1799V108.452C65.1799 108.751 65.2522 108.972 65.3969 109.117C65.5415 109.262 65.7282 109.334 65.9569 109.334C66.0875 109.334 66.1995 109.318 66.2929 109.285C66.3909 109.248 66.4749 109.208 66.5449 109.166C66.6149 109.124 66.6732 109.087 66.7199 109.054C66.7712 109.017 66.8155 108.998 66.8529 108.998C66.9182 108.998 66.9765 109.038 67.0279 109.117L67.3919 109.712C67.1772 109.913 66.9182 110.071 66.6149 110.188C66.3115 110.3 65.9989 110.356 65.6769 110.356ZM71.5575 103.041C71.9822 103.041 72.3742 103.113 72.7335 103.258C73.0928 103.398 73.4032 103.603 73.6645 103.874C73.9258 104.14 74.1288 104.471 74.2735 104.868C74.4228 105.26 74.4975 105.708 74.4975 106.212C74.4975 106.408 74.4765 106.539 74.4345 106.604C74.3925 106.669 74.3132 106.702 74.1965 106.702H69.4785C69.4878 107.15 69.5485 107.54 69.6605 107.871C69.7725 108.202 69.9265 108.48 70.1225 108.704C70.3185 108.923 70.5518 109.089 70.8225 109.201C71.0932 109.308 71.3965 109.362 71.7325 109.362C72.0452 109.362 72.3135 109.327 72.5375 109.257C72.7662 109.182 72.9622 109.103 73.1255 109.019C73.2888 108.935 73.4242 108.858 73.5315 108.788C73.6435 108.713 73.7392 108.676 73.8185 108.676C73.9212 108.676 74.0005 108.716 74.0565 108.795L74.4065 109.25C74.2525 109.437 74.0682 109.6 73.8535 109.74C73.6388 109.875 73.4078 109.987 73.1605 110.076C72.9178 110.165 72.6658 110.23 72.4045 110.272C72.1432 110.319 71.8842 110.342 71.6275 110.342C71.1375 110.342 70.6848 110.26 70.2695 110.097C69.8588 109.929 69.5018 109.686 69.1985 109.369C68.8998 109.047 68.6665 108.65 68.4985 108.179C68.3305 107.708 68.2465 107.166 68.2465 106.555C68.2465 106.06 68.3212 105.598 68.4705 105.169C68.6245 104.74 68.8438 104.369 69.1285 104.056C69.4132 103.739 69.7608 103.491 70.1715 103.314C70.5822 103.132 71.0442 103.041 71.5575 103.041ZM71.5855 103.958C70.9835 103.958 70.5098 104.133 70.1645 104.483C69.8192 104.828 69.6045 105.309 69.5205 105.925H73.3775C73.3775 105.636 73.3378 105.372 73.2585 105.134C73.1792 104.891 73.0625 104.684 72.9085 104.511C72.7545 104.334 72.5655 104.198 72.3415 104.105C72.1222 104.007 71.8702 103.958 71.5855 103.958ZM76.0923 110.244V103.153H76.8063C76.9416 103.153 77.035 103.179 77.0863 103.23C77.1376 103.281 77.1726 103.37 77.1913 103.496L77.2753 104.602C77.518 104.107 77.8166 103.722 78.1713 103.447C78.5306 103.167 78.9506 103.027 79.4313 103.027C79.6273 103.027 79.8046 103.05 79.9633 103.097C80.122 103.139 80.269 103.2 80.4043 103.279L80.2433 104.21C80.2106 104.327 80.1383 104.385 80.0263 104.385C79.961 104.385 79.8606 104.364 79.7253 104.322C79.59 104.275 79.401 104.252 79.1583 104.252C78.7243 104.252 78.3603 104.378 78.0663 104.63C77.777 104.882 77.5343 105.248 77.3383 105.729V110.244H76.0923ZM90.8228 100.213V101.319H86.0068V104.826H90.1228V105.932H86.0068V110.244H84.6418V100.213H90.8228ZM94.6903 103.041C95.115 103.041 95.507 103.113 95.8663 103.258C96.2257 103.398 96.536 103.603 96.7973 103.874C97.0587 104.14 97.2617 104.471 97.4063 104.868C97.5557 105.26 97.6303 105.708 97.6303 106.212C97.6303 106.408 97.6093 106.539 97.5673 106.604C97.5253 106.669 97.446 106.702 97.3293 106.702H92.6113C92.6207 107.15 92.6813 107.54 92.7933 107.871C92.9053 108.202 93.0593 108.48 93.2553 108.704C93.4513 108.923 93.6847 109.089 93.9553 109.201C94.226 109.308 94.5293 109.362 94.8653 109.362C95.178 109.362 95.4463 109.327 95.6703 109.257C95.899 109.182 96.095 109.103 96.2583 109.019C96.4217 108.935 96.557 108.858 96.6643 108.788C96.7763 108.713 96.872 108.676 96.9513 108.676C97.054 108.676 97.1333 108.716 97.1893 108.795L97.5393 109.25C97.3853 109.437 97.201 109.6 96.9863 109.74C96.7717 109.875 96.5407 109.987 96.2933 110.076C96.0507 110.165 95.7987 110.23 95.5373 110.272C95.276 110.319 95.017 110.342 94.7603 110.342C94.2703 110.342 93.8177 110.26 93.4023 110.097C92.9917 109.929 92.6347 109.686 92.3313 109.369C92.0327 109.047 91.7993 108.65 91.6313 108.179C91.4633 107.708 91.3793 107.166 91.3793 106.555C91.3793 106.06 91.454 105.598 91.6033 105.169C91.7573 104.74 91.9767 104.369 92.2613 104.056C92.546 103.739 92.8937 103.491 93.3043 103.314C93.715 103.132 94.177 103.041 94.6903 103.041ZM94.7183 103.958C94.1163 103.958 93.6427 104.133 93.2973 104.483C92.952 104.828 92.7373 105.309 92.6533 105.925H96.5103C96.5103 105.636 96.4707 105.372 96.3913 105.134C96.312 104.891 96.1953 104.684 96.0413 104.511C95.8873 104.334 95.6983 104.198 95.4743 104.105C95.255 104.007 95.003 103.958 94.7183 103.958ZM102.032 103.041C102.457 103.041 102.849 103.113 103.208 103.258C103.567 103.398 103.878 103.603 104.139 103.874C104.4 104.14 104.603 104.471 104.748 104.868C104.897 105.26 104.972 105.708 104.972 106.212C104.972 106.408 104.951 106.539 104.909 106.604C104.867 106.669 104.788 106.702 104.671 106.702H99.9531C99.9625 107.15 100.023 107.54 100.135 107.871C100.247 108.202 100.401 108.48 100.597 108.704C100.793 108.923 101.026 109.089 101.297 109.201C101.568 109.308 101.871 109.362 102.207 109.362C102.52 109.362 102.788 109.327 103.012 109.257C103.241 109.182 103.437 109.103 103.6 109.019C103.763 108.935 103.899 108.858 104.006 108.788C104.118 108.713 104.214 108.676 104.293 108.676C104.396 108.676 104.475 108.716 104.531 108.795L104.881 109.25C104.727 109.437 104.543 109.6 104.328 109.74C104.113 109.875 103.882 109.987 103.635 110.076C103.392 110.165 103.14 110.23 102.879 110.272C102.618 110.319 102.359 110.342 102.102 110.342C101.612 110.342 101.159 110.26 100.744 110.097C100.333 109.929 99.9765 109.686 99.6731 109.369C99.3745 109.047 99.1411 108.65 98.9731 108.179C98.8051 107.708 98.7211 107.166 98.7211 106.555C98.7211 106.06 98.7958 105.598 98.9451 105.169C99.0991 104.74 99.3185 104.369 99.6031 104.056C99.8878 103.739 100.235 103.491 100.646 103.314C101.057 103.132 101.519 103.041 102.032 103.041ZM102.06 103.958C101.458 103.958 100.984 104.133 100.639 104.483C100.294 104.828 100.079 105.309 99.9951 105.925H103.852C103.852 105.636 103.812 105.372 103.733 105.134C103.654 104.891 103.537 104.684 103.383 104.511C103.229 104.334 103.04 104.198 102.816 104.105C102.597 104.007 102.345 103.958 102.06 103.958ZM111.558 110.244C111.381 110.244 111.269 110.158 111.222 109.985L111.11 109.124C110.807 109.493 110.459 109.789 110.067 110.013C109.68 110.232 109.234 110.342 108.73 110.342C108.324 110.342 107.955 110.265 107.624 110.111C107.293 109.952 107.01 109.721 106.777 109.418C106.544 109.115 106.364 108.737 106.238 108.284C106.112 107.831 106.049 107.311 106.049 106.723C106.049 106.2 106.119 105.715 106.259 105.267C106.399 104.814 106.6 104.422 106.861 104.091C107.127 103.76 107.449 103.501 107.827 103.314C108.205 103.123 108.634 103.027 109.115 103.027C109.549 103.027 109.92 103.102 110.228 103.251C110.536 103.396 110.811 103.601 111.054 103.867V99.9331H112.3V110.244H111.558ZM109.143 109.334C109.549 109.334 109.904 109.241 110.207 109.054C110.515 108.867 110.797 108.604 111.054 108.263V104.833C110.825 104.525 110.573 104.31 110.298 104.189C110.027 104.063 109.726 104 109.395 104C108.732 104 108.224 104.236 107.869 104.707C107.514 105.178 107.337 105.85 107.337 106.723C107.337 107.185 107.377 107.582 107.456 107.913C107.535 108.24 107.652 108.51 107.806 108.725C107.96 108.935 108.149 109.089 108.373 109.187C108.597 109.285 108.854 109.334 109.143 109.334ZM114.429 110.244V99.9331H115.682V104.175C115.976 103.834 116.312 103.561 116.69 103.356C117.073 103.146 117.509 103.041 117.999 103.041C118.41 103.041 118.781 103.118 119.112 103.272C119.444 103.426 119.726 103.657 119.959 103.965C120.193 104.268 120.372 104.646 120.498 105.099C120.624 105.547 120.687 106.065 120.687 106.653C120.687 107.176 120.617 107.663 120.477 108.116C120.337 108.564 120.134 108.954 119.868 109.285C119.607 109.612 119.285 109.871 118.902 110.062C118.524 110.249 118.097 110.342 117.621 110.342C117.164 110.342 116.774 110.253 116.452 110.076C116.135 109.899 115.857 109.651 115.619 109.334L115.556 109.978C115.519 110.155 115.412 110.244 115.234 110.244H114.429ZM117.593 104.035C117.187 104.035 116.83 104.128 116.522 104.315C116.219 104.502 115.939 104.765 115.682 105.106V108.536C115.906 108.844 116.154 109.061 116.424 109.187C116.7 109.313 117.005 109.376 117.341 109.376C118.004 109.376 118.513 109.14 118.867 108.669C119.222 108.198 119.399 107.526 119.399 106.653C119.399 106.191 119.357 105.794 119.273 105.463C119.194 105.132 119.077 104.861 118.923 104.651C118.769 104.436 118.58 104.28 118.356 104.182C118.132 104.084 117.878 104.035 117.593 104.035ZM127.416 110.244H126.863C126.741 110.244 126.643 110.225 126.569 110.188C126.494 110.151 126.445 110.071 126.422 109.95L126.282 109.292C126.095 109.46 125.913 109.612 125.736 109.747C125.558 109.878 125.372 109.99 125.176 110.083C124.98 110.172 124.77 110.239 124.546 110.286C124.326 110.333 124.081 110.356 123.811 110.356C123.535 110.356 123.276 110.319 123.034 110.244C122.796 110.165 122.588 110.048 122.411 109.894C122.233 109.74 122.091 109.546 121.984 109.313C121.881 109.075 121.83 108.795 121.83 108.473C121.83 108.193 121.907 107.925 122.061 107.668C122.215 107.407 122.462 107.176 122.803 106.975C123.148 106.774 123.598 106.611 124.154 106.485C124.709 106.354 125.388 106.28 126.191 106.261V105.708C126.191 105.157 126.072 104.742 125.834 104.462C125.6 104.177 125.253 104.035 124.791 104.035C124.487 104.035 124.231 104.075 124.021 104.154C123.815 104.229 123.636 104.315 123.482 104.413C123.332 104.506 123.202 104.593 123.09 104.672C122.982 104.747 122.875 104.784 122.768 104.784C122.684 104.784 122.609 104.763 122.544 104.721C122.483 104.674 122.434 104.618 122.397 104.553L122.173 104.154C122.565 103.776 122.987 103.494 123.44 103.307C123.892 103.12 124.394 103.027 124.945 103.027C125.341 103.027 125.694 103.092 126.002 103.223C126.31 103.354 126.569 103.536 126.779 103.769C126.989 104.002 127.147 104.285 127.255 104.616C127.362 104.947 127.416 105.311 127.416 105.708V110.244ZM124.182 109.481C124.401 109.481 124.602 109.46 124.784 109.418C124.966 109.371 125.136 109.308 125.295 109.229C125.458 109.145 125.612 109.045 125.757 108.928C125.906 108.811 126.051 108.678 126.191 108.529V107.052C125.617 107.071 125.129 107.117 124.728 107.192C124.326 107.262 124 107.355 123.748 107.472C123.496 107.589 123.311 107.726 123.195 107.885C123.083 108.044 123.027 108.221 123.027 108.417C123.027 108.604 123.057 108.765 123.118 108.9C123.178 109.035 123.26 109.147 123.363 109.236C123.465 109.32 123.587 109.383 123.727 109.425C123.867 109.462 124.018 109.481 124.182 109.481ZM134.14 104.413C134.103 104.464 134.066 104.504 134.028 104.532C133.991 104.56 133.937 104.574 133.867 104.574C133.797 104.574 133.72 104.546 133.636 104.49C133.557 104.429 133.454 104.364 133.328 104.294C133.202 104.224 133.048 104.161 132.866 104.105C132.689 104.044 132.47 104.014 132.208 104.014C131.863 104.014 131.557 104.077 131.291 104.203C131.025 104.324 130.801 104.502 130.619 104.735C130.442 104.968 130.307 105.251 130.213 105.582C130.125 105.913 130.08 106.284 130.08 106.695C130.08 107.124 130.129 107.507 130.227 107.843C130.325 108.174 130.463 108.454 130.64 108.683C130.818 108.907 131.032 109.08 131.284 109.201C131.541 109.318 131.828 109.376 132.145 109.376C132.449 109.376 132.698 109.341 132.894 109.271C133.09 109.196 133.254 109.115 133.384 109.026C133.515 108.937 133.622 108.858 133.706 108.788C133.79 108.713 133.874 108.676 133.958 108.676C134.066 108.676 134.145 108.716 134.196 108.795L134.546 109.25C134.238 109.628 133.853 109.906 133.391 110.083C132.929 110.256 132.442 110.342 131.928 110.342C131.485 110.342 131.072 110.26 130.689 110.097C130.311 109.934 129.982 109.698 129.702 109.39C129.422 109.077 129.201 108.695 129.037 108.242C128.879 107.789 128.799 107.274 128.799 106.695C128.799 106.168 128.872 105.68 129.016 105.232C129.166 104.784 129.38 104.399 129.66 104.077C129.945 103.75 130.295 103.496 130.71 103.314C131.126 103.132 131.602 103.041 132.138 103.041C132.633 103.041 133.072 103.123 133.454 103.286C133.837 103.445 134.175 103.671 134.469 103.965L134.14 104.413ZM137.133 99.9331V106.002H137.455C137.549 106.002 137.626 105.99 137.686 105.967C137.747 105.939 137.815 105.885 137.889 105.806L140.129 103.405C140.199 103.33 140.269 103.27 140.339 103.223C140.409 103.176 140.503 103.153 140.619 103.153H141.753L139.142 105.932C139.077 106.011 139.012 106.081 138.946 106.142C138.886 106.203 138.816 106.256 138.736 106.303C138.82 106.359 138.895 106.424 138.96 106.499C139.03 106.569 139.096 106.651 139.156 106.744L141.928 110.244H140.808C140.706 110.244 140.617 110.225 140.542 110.188C140.472 110.146 140.405 110.083 140.339 109.999L138.008 107.094C137.938 106.996 137.868 106.933 137.798 106.905C137.728 106.872 137.623 106.856 137.483 106.856H137.133V110.244H135.88V99.9331H137.133Z" fill="black"/>
<defs>
<filter id="filter0_d_404_11767" x="0" y="0.245117" width="166" height="165.999" filterUnits="userSpaceOnUse" color-interpolation-filters="sRGB">
<feFlood flood-opacity="0" result="BackgroundImageFix"/>
<feColorMatrix in="SourceAlpha" type="matrix" values="0 0 0 0 0 0 0 0 0 0 0 0 0 0 0 0 0 0 127 0" result="hardAlpha"/>
<feOffset dy="4"/>
<feGaussianBlur stdDeviation="4"/>
<feComposite in2="hardAlpha" operator="out"/>
<feColorMatrix type="matrix" values="0 0 0 0 0 0 0 0 0 0 0 0 0 0 0 0 0 0 0.25 0"/>
<feBlend mode="normal" in2="BackgroundImageFix" result="effect1_dropShadow_404_11767"/>
<feBlend mode="normal" in="SourceGraphic" in2="effect1_dropShadow_404_11767" result="shape"/>
</filter>
</defs>
</svg>
