<svg width="151" height="151" viewBox="0 0 151 151" fill="none" xmlns="http://www.w3.org/2000/svg">
<path d="M118.055 0.529297H32.0547C14.3816 0.529297 0.0546875 14.8561 0.0546875 32.529V118.528C0.0546875 136.201 14.3816 150.528 32.0547 150.528H118.055C135.728 150.528 150.055 136.201 150.055 118.528V32.529C150.055 14.8561 135.728 0.529297 118.055 0.529297Z" fill="#EDDEC2"/>
<rect x="55.0547" y="40.5293" width="41" height="40.9996" rx="8" fill="#3498D9"/>
<path d="M71.1783 68.6083L75.5547 65.963L79.9311 68.6432L78.7849 63.6312L82.6401 60.2898L77.569 59.8373L75.553 55.1035L73.537 59.8024L68.4659 60.2548L72.3249 63.6312L71.1783 68.6083ZM69.0598 71.5293L70.7818 64.1317L65.0547 59.1601L72.5996 58.5039L75.5547 51.5293L78.5098 58.5039L86.0547 59.1601L80.3263 64.1317L82.0483 71.5293L75.5547 67.6032L69.0598 71.5293Z" fill="white"/>
<path d="M50.7743 101.516C50.7743 102.268 50.6553 102.958 50.4173 103.588C50.1793 104.214 49.8433 104.753 49.4093 105.205C48.9753 105.658 48.4526 106.01 47.8413 106.262C47.2346 106.51 46.5626 106.633 45.8253 106.633C45.0879 106.633 44.4159 106.51 43.8093 106.262C43.2026 106.01 42.6823 105.658 42.2483 105.205C41.8143 104.753 41.4783 104.214 41.2403 103.588C41.0023 102.958 40.8833 102.268 40.8833 101.516C40.8833 100.765 41.0023 100.077 41.2403 99.4513C41.4783 98.8213 41.8143 98.28 42.2483 97.8273C42.6823 97.37 43.2026 97.0153 43.8093 96.7633C44.4159 96.5113 45.0879 96.3853 45.8253 96.3853C46.5626 96.3853 47.2346 96.5113 47.8413 96.7633C48.4526 97.0153 48.9753 97.37 49.4093 97.8273C49.8433 98.28 50.1793 98.8213 50.4173 99.4513C50.6553 100.077 50.7743 100.765 50.7743 101.516ZM49.3813 101.516C49.3813 100.9 49.2973 100.347 49.1293 99.8573C48.9613 99.3673 48.7233 98.9543 48.4153 98.6183C48.1073 98.2777 47.7339 98.0163 47.2953 97.8343C46.8566 97.6523 46.3666 97.5613 45.8253 97.5613C45.2886 97.5613 44.8009 97.6523 44.3623 97.8343C43.9236 98.0163 43.5479 98.2777 43.2353 98.6183C42.9273 98.9543 42.6893 99.3673 42.5213 99.8573C42.3533 100.347 42.2693 100.9 42.2693 101.516C42.2693 102.132 42.3533 102.685 42.5213 103.175C42.6893 103.661 42.9273 104.074 43.2353 104.414C43.5479 104.75 43.9236 105.009 44.3623 105.191C44.8009 105.369 45.2886 105.457 45.8253 105.457C46.3666 105.457 46.8566 105.369 47.2953 105.191C47.7339 105.009 48.1073 104.75 48.4153 104.414C48.7233 104.074 48.9613 103.661 49.1293 103.175C49.2973 102.685 49.3813 102.132 49.3813 101.516ZM52.4312 108.929V99.4373H53.1732C53.3505 99.4373 53.4625 99.5237 53.5092 99.6963L53.6142 100.536C53.9175 100.168 54.2628 99.8713 54.6502 99.6473C55.0422 99.4233 55.4925 99.3113 56.0012 99.3113C56.4072 99.3113 56.7758 99.3907 57.1072 99.5493C57.4385 99.7033 57.7208 99.9343 57.9542 100.242C58.1875 100.546 58.3672 100.924 58.4932 101.376C58.6192 101.829 58.6822 102.349 58.6822 102.937C58.6822 103.46 58.6122 103.948 58.4722 104.4C58.3322 104.848 58.1315 105.238 57.8702 105.569C57.6088 105.896 57.2868 106.155 56.9042 106.346C56.5262 106.533 56.0992 106.626 55.6232 106.626C55.1845 106.626 54.8088 106.554 54.4962 106.409C54.1882 106.265 53.9152 106.059 53.6772 105.793V108.929H52.4312ZM55.5882 100.319C55.1822 100.319 54.8252 100.413 54.5172 100.599C54.2138 100.786 53.9338 101.05 53.6772 101.39V104.82C53.9058 105.128 54.1555 105.345 54.4262 105.471C54.7015 105.597 55.0072 105.66 55.3432 105.66C56.0012 105.66 56.5075 105.425 56.8622 104.953C57.2168 104.482 57.3942 103.81 57.3942 102.937C57.3942 102.475 57.3522 102.079 57.2682 101.747C57.1888 101.416 57.0722 101.145 56.9182 100.935C56.7642 100.721 56.5752 100.564 56.3512 100.466C56.1272 100.368 55.8728 100.319 55.5882 100.319ZM62.3048 106.64C61.7448 106.64 61.3131 106.484 61.0098 106.171C60.7111 105.859 60.5618 105.408 60.5618 104.82V100.48H59.7078C59.6331 100.48 59.5701 100.459 59.5188 100.417C59.4675 100.371 59.4418 100.301 59.4418 100.207V99.7103L60.6038 99.5633L60.8908 97.3723C60.9001 97.3023 60.9305 97.2463 60.9818 97.2043C61.0331 97.1577 61.0985 97.1343 61.1778 97.1343H61.8078V99.5773H63.8378V100.48H61.8078V104.736C61.8078 105.035 61.8801 105.257 62.0248 105.401C62.1695 105.546 62.3561 105.618 62.5848 105.618C62.7155 105.618 62.8275 105.602 62.9208 105.569C63.0188 105.532 63.1028 105.492 63.1728 105.45C63.2428 105.408 63.3011 105.371 63.3478 105.338C63.3991 105.301 63.4435 105.282 63.4808 105.282C63.5461 105.282 63.6045 105.322 63.6558 105.401L64.0198 105.996C63.8051 106.197 63.5461 106.356 63.2428 106.472C62.9395 106.584 62.6268 106.64 62.3048 106.64ZM66.7644 99.4373V106.528H65.5184V99.4373H66.7644ZM67.0444 97.2113C67.0444 97.3327 67.0188 97.447 66.9674 97.5543C66.9208 97.657 66.8554 97.7503 66.7714 97.8343C66.6921 97.9137 66.5988 97.9767 66.4914 98.0233C66.3841 98.07 66.2698 98.0933 66.1484 98.0933C66.0271 98.0933 65.9128 98.07 65.8054 98.0233C65.7028 97.9767 65.6094 97.9137 65.5254 97.8343C65.4461 97.7503 65.3831 97.657 65.3364 97.5543C65.2898 97.447 65.2664 97.3327 65.2664 97.2113C65.2664 97.09 65.2898 96.9757 65.3364 96.8683C65.3831 96.7563 65.4461 96.6607 65.5254 96.5813C65.6094 96.4973 65.7028 96.432 65.8054 96.3853C65.9128 96.3387 66.0271 96.3153 66.1484 96.3153C66.2698 96.3153 66.3841 96.3387 66.4914 96.3853C66.5988 96.432 66.6921 96.4973 66.7714 96.5813C66.8554 96.6607 66.9208 96.7563 66.9674 96.8683C67.0188 96.9757 67.0444 97.09 67.0444 97.2113ZM68.9605 106.528V99.4373H69.7025C69.8798 99.4373 69.9918 99.5237 70.0385 99.6963L70.1295 100.424C70.3908 100.102 70.6825 99.8387 71.0045 99.6333C71.3311 99.428 71.7091 99.3253 72.1385 99.3253C72.6191 99.3253 73.0065 99.4583 73.3005 99.7243C73.5991 99.9903 73.8138 100.35 73.9445 100.802C74.0425 100.546 74.1708 100.324 74.3295 100.137C74.4928 99.9507 74.6748 99.7967 74.8755 99.6753C75.0761 99.554 75.2885 99.4653 75.5125 99.4093C75.7411 99.3533 75.9721 99.3253 76.2055 99.3253C76.5788 99.3253 76.9101 99.386 77.1995 99.5073C77.4935 99.624 77.7408 99.7967 77.9415 100.025C78.1468 100.254 78.3031 100.536 78.4105 100.872C78.5178 101.204 78.5715 101.584 78.5715 102.013V106.528H77.3255V102.013C77.3255 101.458 77.2041 101.038 76.9615 100.753C76.7188 100.464 76.3665 100.319 75.9045 100.319C75.6991 100.319 75.5031 100.357 75.3165 100.431C75.1345 100.501 74.9735 100.606 74.8335 100.746C74.6935 100.886 74.5815 101.064 74.4975 101.278C74.4181 101.488 74.3785 101.733 74.3785 102.013V106.528H73.1325V102.013C73.1325 101.444 73.0181 101.019 72.7895 100.739C72.5608 100.459 72.2271 100.319 71.7885 100.319C71.4805 100.319 71.1935 100.403 70.9275 100.571C70.6661 100.735 70.4258 100.959 70.2065 101.243V106.528H68.9605ZM81.8445 99.4373V106.528H80.5985V99.4373H81.8445ZM82.1245 97.2113C82.1245 97.3327 82.0989 97.447 82.0475 97.5543C82.0009 97.657 81.9355 97.7503 81.8515 97.8343C81.7722 97.9137 81.6789 97.9767 81.5715 98.0233C81.4642 98.07 81.3499 98.0933 81.2285 98.0933C81.1072 98.0933 80.9929 98.07 80.8855 98.0233C80.7829 97.9767 80.6895 97.9137 80.6055 97.8343C80.5262 97.7503 80.4632 97.657 80.4165 97.5543C80.3699 97.447 80.3465 97.3327 80.3465 97.2113C80.3465 97.09 80.3699 96.9757 80.4165 96.8683C80.4632 96.7563 80.5262 96.6607 80.6055 96.5813C80.6895 96.4973 80.7829 96.432 80.8855 96.3853C80.9929 96.3387 81.1072 96.3153 81.2285 96.3153C81.3499 96.3153 81.4642 96.3387 81.5715 96.3853C81.6789 96.432 81.7722 96.4973 81.8515 96.5813C81.9355 96.6607 82.0009 96.7563 82.0475 96.8683C82.0989 96.9757 82.1245 97.09 82.1245 97.2113ZM88.9896 99.9693C88.9896 100.058 88.9732 100.144 88.9406 100.228C88.9079 100.308 88.8659 100.38 88.8146 100.445L84.9786 105.555H88.8496V106.528H83.5086V106.01C83.5086 105.95 83.5226 105.88 83.5506 105.8C83.5832 105.716 83.6276 105.637 83.6836 105.562L87.5406 100.417H83.7256V99.4373H88.9896V99.9693ZM93.3144 99.3253C93.739 99.3253 94.131 99.3977 94.4904 99.5423C94.8497 99.6823 95.16 99.8877 95.4214 100.158C95.6827 100.424 95.8857 100.756 96.0304 101.152C96.1797 101.544 96.2544 101.992 96.2544 102.496C96.2544 102.692 96.2334 102.823 96.1914 102.888C96.1494 102.954 96.07 102.986 95.9534 102.986H91.2354C91.2447 103.434 91.3054 103.824 91.4174 104.155C91.5294 104.487 91.6834 104.764 91.8794 104.988C92.0754 105.208 92.3087 105.373 92.5794 105.485C92.85 105.593 93.1534 105.646 93.4894 105.646C93.802 105.646 94.0704 105.611 94.2944 105.541C94.523 105.467 94.719 105.387 94.8824 105.303C95.0457 105.219 95.181 105.142 95.2884 105.072C95.4004 104.998 95.496 104.96 95.5754 104.96C95.678 104.96 95.7574 105 95.8134 105.079L96.1634 105.534C96.0094 105.721 95.825 105.884 95.6104 106.024C95.3957 106.16 95.1647 106.272 94.9174 106.36C94.6747 106.449 94.4227 106.514 94.1614 106.556C93.9 106.603 93.641 106.626 93.3844 106.626C92.8944 106.626 92.4417 106.545 92.0264 106.381C91.6157 106.213 91.2587 105.971 90.9554 105.653C90.6567 105.331 90.4234 104.935 90.2554 104.463C90.0874 103.992 90.0034 103.451 90.0034 102.839C90.0034 102.345 90.078 101.883 90.2274 101.453C90.3814 101.024 90.6007 100.653 90.8854 100.34C91.17 100.023 91.5177 99.7757 91.9284 99.5983C92.339 99.4163 92.801 99.3253 93.3144 99.3253ZM93.3424 100.242C92.7404 100.242 92.2667 100.417 91.9214 100.767C91.576 101.113 91.3614 101.593 91.2774 102.209H95.1344C95.1344 101.92 95.0947 101.656 95.0154 101.418C94.936 101.176 94.8194 100.968 94.6654 100.795C94.5114 100.618 94.3224 100.483 94.0984 100.389C93.879 100.291 93.627 100.242 93.3424 100.242ZM109.005 106.528H107.955C107.834 106.528 107.736 106.498 107.661 106.437C107.587 106.377 107.531 106.3 107.493 106.206L106.555 103.784H102.054L101.116 106.206C101.084 106.29 101.028 106.365 100.948 106.43C100.869 106.496 100.771 106.528 100.654 106.528H99.6042L103.615 96.4973H104.994L109.005 106.528ZM102.432 102.804H106.177L104.602 98.7233C104.5 98.4713 104.399 98.1563 104.301 97.7783C104.25 97.9697 104.199 98.147 104.147 98.3103C104.101 98.469 104.054 98.609 104.007 98.7303L102.432 102.804ZM115.063 106.528C114.885 106.528 114.773 106.442 114.727 106.269L114.615 105.408C114.311 105.777 113.964 106.073 113.572 106.297C113.184 106.517 112.739 106.626 112.235 106.626C111.829 106.626 111.46 106.549 111.129 106.395C110.797 106.237 110.515 106.006 110.282 105.702C110.048 105.399 109.869 105.021 109.743 104.568C109.617 104.116 109.554 103.595 109.554 103.007C109.554 102.485 109.624 101.999 109.764 101.551C109.904 101.099 110.104 100.707 110.366 100.375C110.632 100.044 110.954 99.785 111.332 99.5983C111.71 99.407 112.139 99.3113 112.62 99.3113C113.054 99.3113 113.425 99.386 113.733 99.5353C114.041 99.68 114.316 99.8853 114.559 100.151V96.2173H115.805V106.528H115.063ZM112.648 105.618C113.054 105.618 113.408 105.525 113.712 105.338C114.02 105.152 114.302 104.888 114.559 104.547V101.117C114.33 100.809 114.078 100.595 113.803 100.473C113.532 100.347 113.231 100.284 112.9 100.284C112.237 100.284 111.728 100.52 111.374 100.991C111.019 101.463 110.842 102.135 110.842 103.007C110.842 103.469 110.881 103.866 110.961 104.197C111.04 104.524 111.157 104.795 111.311 105.009C111.465 105.219 111.654 105.373 111.878 105.471C112.102 105.569 112.358 105.618 112.648 105.618ZM65.8658 122.065C65.8238 122.135 65.7794 122.189 65.7328 122.226C65.6861 122.259 65.6254 122.275 65.5508 122.275C65.4714 122.275 65.3781 122.236 65.2708 122.156C65.1681 122.077 65.0351 121.991 64.8718 121.897C64.7131 121.799 64.5194 121.711 64.2908 121.631C64.0668 121.552 63.7938 121.512 63.4718 121.512C63.1684 121.512 62.9001 121.554 62.6668 121.638C62.4334 121.718 62.2374 121.827 62.0788 121.967C61.9248 122.107 61.8081 122.273 61.7288 122.464C61.6494 122.651 61.6098 122.854 61.6098 123.073C61.6098 123.353 61.6774 123.587 61.8128 123.773C61.9528 123.955 62.1348 124.112 62.3588 124.242C62.5874 124.373 62.8441 124.487 63.1288 124.585C63.4181 124.679 63.7121 124.777 64.0108 124.879C64.3141 124.982 64.6081 125.099 64.8928 125.229C65.1821 125.355 65.4388 125.516 65.6628 125.712C65.8914 125.908 66.0734 126.149 66.2088 126.433C66.3488 126.718 66.4188 127.068 66.4188 127.483C66.4188 127.922 66.3441 128.335 66.1948 128.722C66.0454 129.105 65.8261 129.439 65.5368 129.723C65.2521 130.008 64.8998 130.232 64.4798 130.395C64.0644 130.559 63.5908 130.64 63.0588 130.64C62.4101 130.64 61.8174 130.524 61.2808 130.29C60.7488 130.052 60.2938 129.733 59.9158 129.331L60.3078 128.687C60.3451 128.636 60.3894 128.594 60.4408 128.561C60.4968 128.524 60.5574 128.505 60.6228 128.505C60.7208 128.505 60.8328 128.559 60.9588 128.666C61.0848 128.769 61.2411 128.883 61.4278 129.009C61.6191 129.135 61.8478 129.252 62.1138 129.359C62.3844 129.462 62.7134 129.513 63.1008 129.513C63.4228 129.513 63.7098 129.469 63.9618 129.38C64.2138 129.292 64.4261 129.168 64.5988 129.009C64.7761 128.846 64.9114 128.652 65.0048 128.428C65.0981 128.204 65.1448 127.955 65.1448 127.679C65.1448 127.376 65.0748 127.129 64.9348 126.937C64.7994 126.741 64.6198 126.578 64.3958 126.447C64.1718 126.317 63.9151 126.207 63.6258 126.118C63.3411 126.025 63.0471 125.932 62.7438 125.838C62.4451 125.74 62.1511 125.628 61.8618 125.502C61.5771 125.376 61.3228 125.213 61.0988 125.012C60.8748 124.812 60.6928 124.562 60.5528 124.263C60.4174 123.96 60.3498 123.587 60.3498 123.143C60.3498 122.789 60.4174 122.446 60.5528 122.114C60.6928 121.783 60.8934 121.489 61.1548 121.232C61.4161 120.976 61.7381 120.77 62.1208 120.616C62.5081 120.462 62.9514 120.385 63.4508 120.385C64.0108 120.385 64.5218 120.474 64.9838 120.651C65.4458 120.829 65.8494 121.085 66.1948 121.421L65.8658 122.065ZM67.9556 132.929V123.437H68.6976C68.8749 123.437 68.9869 123.524 69.0336 123.696L69.1386 124.536C69.4419 124.168 69.7873 123.871 70.1746 123.647C70.5666 123.423 71.0169 123.311 71.5256 123.311C71.9316 123.311 72.3003 123.391 72.6316 123.549C72.9629 123.703 73.2453 123.934 73.4786 124.242C73.7119 124.546 73.8916 124.924 74.0176 125.376C74.1436 125.829 74.2066 126.349 74.2066 126.937C74.2066 127.46 74.1366 127.948 73.9966 128.4C73.8566 128.848 73.6559 129.238 73.3946 129.569C73.1333 129.896 72.8113 130.155 72.4286 130.346C72.0506 130.533 71.6236 130.626 71.1476 130.626C70.7089 130.626 70.3333 130.554 70.0206 130.409C69.7126 130.265 69.4396 130.059 69.2016 129.793V132.929H67.9556ZM71.1126 124.319C70.7066 124.319 70.3496 124.413 70.0416 124.599C69.7383 124.786 69.4583 125.05 69.2016 125.39V128.82C69.4303 129.128 69.6799 129.345 69.9506 129.471C70.2259 129.597 70.5316 129.66 70.8676 129.66C71.5256 129.66 72.0319 129.425 72.3866 128.953C72.7413 128.482 72.9186 127.81 72.9186 126.937C72.9186 126.475 72.8766 126.079 72.7926 125.747C72.7133 125.416 72.5966 125.145 72.4426 124.935C72.2886 124.721 72.0996 124.564 71.8756 124.466C71.6516 124.368 71.3973 124.319 71.1126 124.319ZM78.4872 123.325C78.9119 123.325 79.3039 123.398 79.6632 123.542C80.0225 123.682 80.3329 123.888 80.5942 124.158C80.8555 124.424 81.0585 124.756 81.2032 125.152C81.3525 125.544 81.4272 125.992 81.4272 126.496C81.4272 126.692 81.4062 126.823 81.3642 126.888C81.3222 126.954 81.2429 126.986 81.1262 126.986H76.4082C76.4175 127.434 76.4782 127.824 76.5902 128.155C76.7022 128.487 76.8562 128.764 77.0522 128.988C77.2482 129.208 77.4815 129.373 77.7522 129.485C78.0229 129.593 78.3262 129.646 78.6622 129.646C78.9749 129.646 79.2432 129.611 79.4672 129.541C79.6959 129.467 79.8919 129.387 80.0552 129.303C80.2185 129.219 80.3539 129.142 80.4612 129.072C80.5732 128.998 80.6689 128.96 80.7482 128.96C80.8509 128.96 80.9302 129 80.9862 129.079L81.3362 129.534C81.1822 129.721 80.9979 129.884 80.7832 130.024C80.5685 130.16 80.3375 130.272 80.0902 130.36C79.8475 130.449 79.5955 130.514 79.3342 130.556C79.0729 130.603 78.8139 130.626 78.5572 130.626C78.0672 130.626 77.6145 130.545 77.1992 130.381C76.7885 130.213 76.4315 129.971 76.1282 129.653C75.8295 129.331 75.5962 128.935 75.4282 128.463C75.2602 127.992 75.1762 127.451 75.1762 126.839C75.1762 126.345 75.2509 125.883 75.4002 125.453C75.5542 125.024 75.7735 124.653 76.0582 124.34C76.3429 124.023 76.6905 123.776 77.1012 123.598C77.5119 123.416 77.9739 123.325 78.4872 123.325ZM78.5152 124.242C77.9132 124.242 77.4395 124.417 77.0942 124.767C76.7489 125.113 76.5342 125.593 76.4502 126.209H80.3072C80.3072 125.92 80.2675 125.656 80.1882 125.418C80.1089 125.176 79.9922 124.968 79.8382 124.795C79.6842 124.618 79.4952 124.483 79.2712 124.389C79.0519 124.291 78.7999 124.242 78.5152 124.242ZM83.022 130.528V123.437H83.764C83.9413 123.437 84.0533 123.524 84.1 123.696L84.198 124.466C84.506 124.126 84.849 123.85 85.227 123.64C85.6097 123.43 86.0507 123.325 86.55 123.325C86.9373 123.325 87.278 123.391 87.572 123.521C87.8707 123.647 88.118 123.829 88.314 124.067C88.5147 124.301 88.6663 124.583 88.769 124.914C88.8717 125.246 88.923 125.612 88.923 126.013V130.528H87.677V126.013C87.677 125.477 87.5533 125.061 87.306 124.767C87.0633 124.469 86.69 124.319 86.186 124.319C85.8173 124.319 85.472 124.408 85.15 124.585C84.8327 124.763 84.5387 125.003 84.268 125.306V130.528H83.022ZM95.7923 130.528C95.615 130.528 95.503 130.442 95.4563 130.269L95.3443 129.408C95.041 129.777 94.6933 130.073 94.3013 130.297C93.914 130.517 93.4683 130.626 92.9643 130.626C92.5583 130.626 92.1896 130.549 91.8583 130.395C91.527 130.237 91.2446 130.006 91.0113 129.702C90.778 129.399 90.5983 129.021 90.4723 128.568C90.3463 128.116 90.2833 127.595 90.2833 127.007C90.2833 126.485 90.3533 125.999 90.4933 125.551C90.6333 125.099 90.834 124.707 91.0953 124.375C91.3613 124.044 91.6833 123.785 92.0613 123.598C92.4393 123.407 92.8686 123.311 93.3493 123.311C93.7833 123.311 94.1543 123.386 94.4623 123.535C94.7703 123.68 95.0456 123.885 95.2883 124.151V120.217H96.5343V130.528H95.7923ZM93.3773 129.618C93.7833 129.618 94.138 129.525 94.4413 129.338C94.7493 129.152 95.0316 128.888 95.2883 128.547V125.117C95.0596 124.809 94.8076 124.595 94.5323 124.473C94.2616 124.347 93.9606 124.284 93.6293 124.284C92.9666 124.284 92.458 124.52 92.1033 124.991C91.7486 125.463 91.5713 126.135 91.5713 127.007C91.5713 127.469 91.611 127.866 91.6903 128.197C91.7696 128.524 91.8863 128.795 92.0403 129.009C92.1943 129.219 92.3833 129.373 92.6073 129.471C92.8313 129.569 93.088 129.618 93.3773 129.618Z" fill="black"/>
</svg>
