<svg width="151" height="151" viewBox="0 0 151 151" fill="none" xmlns="http://www.w3.org/2000/svg">
<path d="M118.055 0.28125H32.0547C14.3816 0.28125 0.0546875 14.608 0.0546875 32.281V118.28C0.0546875 135.953 14.3816 150.28 32.0547 150.28H118.055C135.728 150.28 150.055 135.953 150.055 118.28V32.281C150.055 14.608 135.728 0.28125 118.055 0.28125Z" fill="#EDDEC2"/>
<rect x="55.0547" y="40.2812" width="41" height="40.9996" rx="8" fill="#143E7E"/>
<path d="M64.959 66.2803L64.0547 65.4311L72.1093 57.8078L77.2203 62.6068L84.9217 55.4801H80.6657V54.2803H87.0547V60.2792H85.7768V56.3289L77.2208 64.3626L72.1093 59.5661L64.959 66.2803Z" fill="white"/>
<path d="M56.7957 106.268C56.7957 107.02 56.6767 107.71 56.4387 108.34C56.2007 108.966 55.8647 109.505 55.4307 109.957C54.9967 110.41 54.4741 110.762 53.8627 111.014C53.2561 111.262 52.5841 111.385 51.8467 111.385C51.1094 111.385 50.4374 111.262 49.8307 111.014C49.2241 110.762 48.7037 110.41 48.2697 109.957C47.8357 109.505 47.4997 108.966 47.2617 108.34C47.0237 107.71 46.9047 107.02 46.9047 106.268C46.9047 105.517 47.0237 104.829 47.2617 104.203C47.4997 103.573 47.8357 103.032 48.2697 102.579C48.7037 102.122 49.2241 101.767 49.8307 101.515C50.4374 101.263 51.1094 101.137 51.8467 101.137C52.5841 101.137 53.2561 101.263 53.8627 101.515C54.4741 101.767 54.9967 102.122 55.4307 102.579C55.8647 103.032 56.2007 103.573 56.4387 104.203C56.6767 104.829 56.7957 105.517 56.7957 106.268ZM55.4027 106.268C55.4027 105.652 55.3187 105.099 55.1507 104.609C54.9827 104.119 54.7447 103.706 54.4367 103.37C54.1287 103.03 53.7554 102.768 53.3167 102.586C52.8781 102.404 52.3881 102.313 51.8467 102.313C51.3101 102.313 50.8224 102.404 50.3837 102.586C49.9451 102.768 49.5694 103.03 49.2567 103.37C48.9487 103.706 48.7107 104.119 48.5427 104.609C48.3747 105.099 48.2907 105.652 48.2907 106.268C48.2907 106.884 48.3747 107.437 48.5427 107.927C48.7107 108.413 48.9487 108.826 49.2567 109.166C49.5694 109.502 49.9451 109.761 50.3837 109.943C50.8224 110.121 51.3101 110.209 51.8467 110.209C52.3881 110.209 52.8781 110.121 53.3167 109.943C53.7554 109.761 54.1287 109.502 54.4367 109.166C54.7447 108.826 54.9827 108.413 55.1507 107.927C55.3187 107.437 55.4027 106.884 55.4027 106.268ZM58.4527 113.681V104.189H59.1947C59.372 104.189 59.484 104.276 59.5307 104.448L59.6357 105.288C59.939 104.92 60.2843 104.623 60.6717 104.399C61.0637 104.175 61.514 104.063 62.0227 104.063C62.4287 104.063 62.7973 104.143 63.1287 104.301C63.46 104.455 63.7423 104.686 63.9757 104.994C64.209 105.298 64.3887 105.676 64.5147 106.128C64.6407 106.581 64.7037 107.101 64.7037 107.689C64.7037 108.212 64.6337 108.7 64.4937 109.152C64.3537 109.6 64.153 109.99 63.8917 110.321C63.6303 110.648 63.3083 110.907 62.9257 111.098C62.5477 111.285 62.1207 111.378 61.6447 111.378C61.206 111.378 60.8303 111.306 60.5177 111.161C60.2097 111.017 59.9367 110.811 59.6987 110.545V113.681H58.4527ZM61.6097 105.071C61.2037 105.071 60.8467 105.165 60.5387 105.351C60.2353 105.538 59.9553 105.802 59.6987 106.142V109.572C59.9273 109.88 60.177 110.097 60.4477 110.223C60.723 110.349 61.0287 110.412 61.3647 110.412C62.0227 110.412 62.529 110.177 62.8837 109.705C63.2383 109.234 63.4157 108.562 63.4157 107.689C63.4157 107.227 63.3737 106.831 63.2897 106.499C63.2103 106.168 63.0937 105.897 62.9397 105.687C62.7857 105.473 62.5967 105.316 62.3727 105.218C62.1487 105.12 61.8943 105.071 61.6097 105.071ZM68.3263 111.392C67.7663 111.392 67.3346 111.236 67.0313 110.923C66.7326 110.611 66.5833 110.16 66.5833 109.572V105.232H65.7293C65.6546 105.232 65.5916 105.211 65.5403 105.169C65.4889 105.123 65.4633 105.053 65.4633 104.959V104.462L66.6253 104.315L66.9123 102.124C66.9216 102.054 66.9519 101.998 67.0033 101.956C67.0546 101.91 67.1199 101.886 67.1993 101.886H67.8293V104.329H69.8593V105.232H67.8293V109.488C67.8293 109.787 67.9016 110.009 68.0463 110.153C68.1909 110.298 68.3776 110.37 68.6063 110.37C68.7369 110.37 68.8489 110.354 68.9423 110.321C69.0403 110.284 69.1243 110.244 69.1943 110.202C69.2643 110.16 69.3226 110.123 69.3693 110.09C69.4206 110.053 69.4649 110.034 69.5023 110.034C69.5676 110.034 69.6259 110.074 69.6773 110.153L70.0413 110.748C69.8266 110.949 69.5676 111.108 69.2643 111.224C68.9609 111.336 68.6483 111.392 68.3263 111.392ZM72.7859 104.189V111.28H71.5399V104.189H72.7859ZM73.0659 101.963C73.0659 102.085 73.0403 102.199 72.9889 102.306C72.9423 102.409 72.8769 102.502 72.7929 102.586C72.7136 102.666 72.6203 102.729 72.5129 102.775C72.4056 102.822 72.2913 102.845 72.1699 102.845C72.0486 102.845 71.9343 102.822 71.8269 102.775C71.7243 102.729 71.6309 102.666 71.5469 102.586C71.4676 102.502 71.4046 102.409 71.3579 102.306C71.3113 102.199 71.2879 102.085 71.2879 101.963C71.2879 101.842 71.3113 101.728 71.3579 101.62C71.4046 101.508 71.4676 101.413 71.5469 101.333C71.6309 101.249 71.7243 101.184 71.8269 101.137C71.9343 101.091 72.0486 101.067 72.1699 101.067C72.2913 101.067 72.4056 101.091 72.5129 101.137C72.6203 101.184 72.7136 101.249 72.7929 101.333C72.8769 101.413 72.9423 101.508 72.9889 101.62C73.0403 101.728 73.0659 101.842 73.0659 101.963ZM74.982 111.28V104.189H75.724C75.9013 104.189 76.0133 104.276 76.06 104.448L76.151 105.176C76.4123 104.854 76.704 104.591 77.026 104.385C77.3526 104.18 77.7306 104.077 78.16 104.077C78.6406 104.077 79.028 104.21 79.322 104.476C79.6206 104.742 79.8353 105.102 79.966 105.554C80.064 105.298 80.1923 105.076 80.351 104.889C80.5143 104.703 80.6963 104.549 80.897 104.427C81.0976 104.306 81.31 104.217 81.534 104.161C81.7626 104.105 81.9936 104.077 82.227 104.077C82.6003 104.077 82.9316 104.138 83.221 104.259C83.515 104.376 83.7623 104.549 83.963 104.777C84.1683 105.006 84.3246 105.288 84.432 105.624C84.5393 105.956 84.593 106.336 84.593 106.765V111.28H83.347V106.765C83.347 106.21 83.2256 105.79 82.983 105.505C82.7403 105.216 82.388 105.071 81.926 105.071C81.7206 105.071 81.5246 105.109 81.338 105.183C81.156 105.253 80.995 105.358 80.855 105.498C80.715 105.638 80.603 105.816 80.519 106.03C80.4396 106.24 80.4 106.485 80.4 106.765V111.28H79.154V106.765C79.154 106.196 79.0396 105.771 78.811 105.491C78.5823 105.211 78.2486 105.071 77.81 105.071C77.502 105.071 77.215 105.155 76.949 105.323C76.6876 105.487 76.4473 105.711 76.228 105.995V111.28H74.982ZM87.866 104.189V111.28H86.62V104.189H87.866ZM88.146 101.963C88.146 102.085 88.1203 102.199 88.069 102.306C88.0223 102.409 87.957 102.502 87.873 102.586C87.7937 102.666 87.7003 102.729 87.593 102.775C87.4857 102.822 87.3713 102.845 87.25 102.845C87.1287 102.845 87.0143 102.822 86.907 102.775C86.8043 102.729 86.711 102.666 86.627 102.586C86.5477 102.502 86.4847 102.409 86.438 102.306C86.3913 102.199 86.368 102.085 86.368 101.963C86.368 101.842 86.3913 101.728 86.438 101.62C86.4847 101.508 86.5477 101.413 86.627 101.333C86.711 101.249 86.8043 101.184 86.907 101.137C87.0143 101.091 87.1287 101.067 87.25 101.067C87.3713 101.067 87.4857 101.091 87.593 101.137C87.7003 101.184 87.7937 101.249 87.873 101.333C87.957 101.413 88.0223 101.508 88.069 101.62C88.1203 101.728 88.146 101.842 88.146 101.963ZM95.011 104.721C95.011 104.81 94.9947 104.896 94.962 104.98C94.9294 105.06 94.8874 105.132 94.836 105.197L91 110.307H94.871V111.28H89.53V110.762C89.53 110.702 89.544 110.632 89.572 110.552C89.6047 110.468 89.649 110.389 89.705 110.314L93.562 105.169H89.747V104.189H95.011V104.721ZM99.3358 104.077C99.7605 104.077 100.153 104.15 100.512 104.294C100.871 104.434 101.182 104.64 101.443 104.91C101.704 105.176 101.907 105.508 102.052 105.904C102.201 106.296 102.276 106.744 102.276 107.248C102.276 107.444 102.255 107.575 102.213 107.64C102.171 107.706 102.092 107.738 101.975 107.738H97.2568C97.2662 108.186 97.3268 108.576 97.4388 108.907C97.5508 109.239 97.7048 109.516 97.9008 109.74C98.0968 109.96 98.3302 110.125 98.6008 110.237C98.8715 110.345 99.1748 110.398 99.5108 110.398C99.8235 110.398 100.092 110.363 100.316 110.293C100.545 110.219 100.741 110.139 100.904 110.055C101.067 109.971 101.203 109.894 101.31 109.824C101.422 109.75 101.518 109.712 101.597 109.712C101.7 109.712 101.779 109.752 101.835 109.831L102.185 110.286C102.031 110.473 101.847 110.636 101.632 110.776C101.417 110.912 101.186 111.024 100.939 111.112C100.696 111.201 100.444 111.266 100.183 111.308C99.9215 111.355 99.6625 111.378 99.4058 111.378C98.9158 111.378 98.4632 111.297 98.0478 111.133C97.6372 110.965 97.2802 110.723 96.9768 110.405C96.6782 110.083 96.4448 109.687 96.2768 109.215C96.1088 108.744 96.0248 108.203 96.0248 107.591C96.0248 107.097 96.0995 106.635 96.2488 106.205C96.4028 105.776 96.6222 105.405 96.9068 105.092C97.1915 104.775 97.5392 104.528 97.9498 104.35C98.3605 104.168 98.8225 104.077 99.3358 104.077ZM99.3638 104.994C98.7618 104.994 98.2882 105.169 97.9428 105.519C97.5975 105.865 97.3828 106.345 97.2988 106.961H101.156C101.156 106.672 101.116 106.408 101.037 106.17C100.958 105.928 100.841 105.72 100.687 105.547C100.533 105.37 100.344 105.235 100.12 105.141C99.9005 105.043 99.6485 104.994 99.3638 104.994Z" fill="black"/>
</svg>
