<svg width="151" height="151" viewBox="0 0 151 151" fill="none" xmlns="http://www.w3.org/2000/svg">
<path d="M118.055 0.599609H32.0547C14.3816 0.599609 0.0546875 14.9264 0.0546875 32.5993V118.599C0.0546875 136.271 14.3816 150.598 32.0547 150.598H118.055C135.728 150.598 150.055 136.271 150.055 118.599V32.5993C150.055 14.9264 135.728 0.599609 118.055 0.599609Z" fill="#EDDEC2"/>
<rect x="55.0547" y="40.5996" width="41" height="40.9996" rx="8" fill="#48CC26"/>
<path d="M81.4607 62.3691V60.9424H86.0547V62.3707L81.4607 62.3691ZM83.003 71.5996L79.3275 68.8302L80.2137 67.6985L83.8887 70.4679L83.003 71.5996ZM80.105 55.5007L79.2192 54.369L82.8942 51.5996L83.78 52.7313L80.105 55.5007ZM65.0547 64.5122V58.798H69.9216L75.0078 53.6879V69.6223L69.9216 64.5122H65.0547ZM73.5861 57.1552L70.529 60.2267H66.4764V63.0839H70.529L73.5861 66.1554V57.1552Z" fill="white"/>
<path d="M33.6297 101.587C33.6297 102.338 33.5107 103.029 33.2727 103.659C33.0347 104.284 32.6987 104.823 32.2647 105.276C31.8307 105.728 31.3081 106.081 30.6967 106.333C30.0901 106.58 29.4181 106.704 28.6807 106.704C27.9434 106.704 27.2714 106.58 26.6647 106.333C26.0581 106.081 25.5377 105.728 25.1037 105.276C24.6697 104.823 24.3337 104.284 24.0957 103.659C23.8577 103.029 23.7387 102.338 23.7387 101.587C23.7387 100.835 23.8577 100.147 24.0957 99.5216C24.3337 98.8916 24.6697 98.3503 25.1037 97.8976C25.5377 97.4403 26.0581 97.0856 26.6647 96.8336C27.2714 96.5816 27.9434 96.4556 28.6807 96.4556C29.4181 96.4556 30.0901 96.5816 30.6967 96.8336C31.3081 97.0856 31.8307 97.4403 32.2647 97.8976C32.6987 98.3503 33.0347 98.8916 33.2727 99.5216C33.5107 100.147 33.6297 100.835 33.6297 101.587ZM32.2367 101.587C32.2367 100.971 32.1527 100.418 31.9847 99.9276C31.8167 99.4376 31.5787 99.0246 31.2707 98.6886C30.9627 98.348 30.5894 98.0866 30.1507 97.9046C29.7121 97.7226 29.2221 97.6316 28.6807 97.6316C28.1441 97.6316 27.6564 97.7226 27.2177 97.9046C26.7791 98.0866 26.4034 98.348 26.0907 98.6886C25.7827 99.0246 25.5447 99.4376 25.3767 99.9276C25.2087 100.418 25.1247 100.971 25.1247 101.587C25.1247 102.203 25.2087 102.756 25.3767 103.246C25.5447 103.731 25.7827 104.144 26.0907 104.485C26.4034 104.821 26.7791 105.08 27.2177 105.262C27.6564 105.439 28.1441 105.528 28.6807 105.528C29.2221 105.528 29.7121 105.439 30.1507 105.262C30.5894 105.08 30.9627 104.821 31.2707 104.485C31.5787 104.144 31.8167 103.731 31.9847 103.246C32.1527 102.756 32.2367 102.203 32.2367 101.587ZM35.2866 109V99.5076H36.0286C36.206 99.5076 36.318 99.594 36.3646 99.7666L36.4696 100.607C36.773 100.238 37.1183 99.9416 37.5056 99.7176C37.8976 99.4936 38.348 99.3816 38.8566 99.3816C39.2626 99.3816 39.6313 99.461 39.9626 99.6196C40.294 99.7736 40.5763 100.005 40.8096 100.313C41.043 100.616 41.2226 100.994 41.3486 101.447C41.4746 101.899 41.5376 102.42 41.5376 103.008C41.5376 103.53 41.4676 104.018 41.3276 104.471C41.1876 104.919 40.987 105.308 40.7256 105.64C40.4643 105.966 40.1423 106.225 39.7596 106.417C39.3816 106.603 38.9546 106.697 38.4786 106.697C38.04 106.697 37.6643 106.624 37.3516 106.48C37.0436 106.335 36.7706 106.13 36.5326 105.864V109H35.2866ZM38.4436 100.39C38.0376 100.39 37.6806 100.483 37.3726 100.67C37.0693 100.856 36.7893 101.12 36.5326 101.461V104.891C36.7613 105.199 37.011 105.416 37.2816 105.542C37.557 105.668 37.8626 105.731 38.1986 105.731C38.8566 105.731 39.363 105.495 39.7176 105.024C40.0723 104.552 40.2496 103.88 40.2496 103.008C40.2496 102.546 40.2076 102.149 40.1236 101.818C40.0443 101.486 39.9276 101.216 39.7736 101.006C39.6196 100.791 39.4306 100.635 39.2066 100.537C38.9826 100.439 38.7283 100.39 38.4436 100.39ZM45.1603 106.711C44.6003 106.711 44.1686 106.554 43.8653 106.242C43.5666 105.929 43.4173 105.479 43.4173 104.891V100.551H42.5633C42.4886 100.551 42.4256 100.53 42.3743 100.488C42.3229 100.441 42.2973 100.371 42.2973 100.278V99.7806L43.4593 99.6336L43.7463 97.4426C43.7556 97.3726 43.7859 97.3166 43.8373 97.2746C43.8886 97.228 43.9539 97.2046 44.0333 97.2046H44.6633V99.6476H46.6933V100.551H44.6633V104.807C44.6633 105.105 44.7356 105.327 44.8803 105.472C45.0249 105.616 45.2116 105.689 45.4403 105.689C45.5709 105.689 45.6829 105.672 45.7763 105.64C45.8743 105.602 45.9583 105.563 46.0283 105.521C46.0983 105.479 46.1566 105.441 46.2033 105.409C46.2546 105.371 46.2989 105.353 46.3363 105.353C46.4016 105.353 46.4599 105.392 46.5113 105.472L46.8753 106.067C46.6606 106.267 46.4016 106.426 46.0983 106.543C45.7949 106.655 45.4823 106.711 45.1603 106.711ZM49.6199 99.5076V106.599H48.3739V99.5076H49.6199ZM49.8999 97.2816C49.8999 97.403 49.8742 97.5173 49.8229 97.6246C49.7762 97.7273 49.7109 97.8206 49.6269 97.9046C49.5476 97.984 49.4542 98.047 49.3469 98.0936C49.2396 98.1403 49.1252 98.1636 49.0039 98.1636C48.8826 98.1636 48.7682 98.1403 48.6609 98.0936C48.5582 98.047 48.4649 97.984 48.3809 97.9046C48.3016 97.8206 48.2386 97.7273 48.1919 97.6246C48.1452 97.5173 48.1219 97.403 48.1219 97.2816C48.1219 97.1603 48.1452 97.046 48.1919 96.9386C48.2386 96.8266 48.3016 96.731 48.3809 96.6516C48.4649 96.5676 48.5582 96.5023 48.6609 96.4556C48.7682 96.409 48.8826 96.3856 49.0039 96.3856C49.1252 96.3856 49.2396 96.409 49.3469 96.4556C49.4542 96.5023 49.5476 96.5676 49.6269 96.6516C49.7109 96.731 49.7762 96.8266 49.8229 96.9386C49.8742 97.046 49.8999 97.1603 49.8999 97.2816ZM51.8159 106.599V99.5076H52.5579C52.7353 99.5076 52.8473 99.594 52.8939 99.7666L52.9849 100.495C53.2463 100.173 53.5379 99.909 53.8599 99.7036C54.1866 99.4983 54.5646 99.3956 54.9939 99.3956C55.4746 99.3956 55.8619 99.5286 56.1559 99.7946C56.4546 100.061 56.6693 100.42 56.7999 100.873C56.8979 100.616 57.0263 100.394 57.1849 100.208C57.3483 100.021 57.5303 99.867 57.7309 99.7456C57.9316 99.6243 58.1439 99.5356 58.3679 99.4796C58.5966 99.4236 58.8276 99.3956 59.0609 99.3956C59.4343 99.3956 59.7656 99.4563 60.0549 99.5776C60.3489 99.6943 60.5963 99.867 60.7969 100.096C61.0023 100.324 61.1586 100.607 61.2659 100.943C61.3733 101.274 61.4269 101.654 61.4269 102.084V106.599H60.1809V102.084C60.1809 101.528 60.0596 101.108 59.8169 100.824C59.5743 100.534 59.2219 100.39 58.7599 100.39C58.5546 100.39 58.3586 100.427 58.1719 100.502C57.9899 100.572 57.8289 100.677 57.6889 100.817C57.5489 100.957 57.4369 101.134 57.3529 101.349C57.2736 101.559 57.2339 101.804 57.2339 102.084V106.599H55.9879V102.084C55.9879 101.514 55.8736 101.09 55.6449 100.81C55.4163 100.53 55.0826 100.39 54.6439 100.39C54.3359 100.39 54.0489 100.474 53.7829 100.642C53.5216 100.805 53.2813 101.029 53.0619 101.314V106.599H51.8159ZM64.7 99.5076V106.599H63.454V99.5076H64.7ZM64.98 97.2816C64.98 97.403 64.9543 97.5173 64.903 97.6246C64.8563 97.7273 64.791 97.8206 64.707 97.9046C64.6277 97.984 64.5343 98.047 64.427 98.0936C64.3197 98.1403 64.2053 98.1636 64.084 98.1636C63.9627 98.1636 63.8483 98.1403 63.741 98.0936C63.6383 98.047 63.545 97.984 63.461 97.9046C63.3817 97.8206 63.3187 97.7273 63.272 97.6246C63.2253 97.5173 63.202 97.403 63.202 97.2816C63.202 97.1603 63.2253 97.046 63.272 96.9386C63.3187 96.8266 63.3817 96.731 63.461 96.6516C63.545 96.5676 63.6383 96.5023 63.741 96.4556C63.8483 96.409 63.9627 96.3856 64.084 96.3856C64.2053 96.3856 64.3197 96.409 64.427 96.4556C64.5343 96.5023 64.6277 96.5676 64.707 96.6516C64.791 96.731 64.8563 96.8266 64.903 96.9386C64.9543 97.046 64.98 97.1603 64.98 97.2816ZM71.845 100.04C71.845 100.128 71.8287 100.215 71.796 100.299C71.7634 100.378 71.7214 100.45 71.67 100.516L67.834 105.626H71.705V106.599H66.364V106.081C66.364 106.02 66.378 105.95 66.406 105.871C66.4387 105.787 66.483 105.707 66.539 105.633L70.396 100.488H66.581V99.5076H71.845V100.04ZM76.1698 99.3956C76.5945 99.3956 76.9865 99.468 77.3458 99.6126C77.7052 99.7526 78.0155 99.958 78.2768 100.229C78.5382 100.495 78.7412 100.826 78.8858 101.223C79.0352 101.615 79.1098 102.063 79.1098 102.567C79.1098 102.763 79.0888 102.893 79.0468 102.959C79.0048 103.024 78.9255 103.057 78.8088 103.057H74.0908C74.1002 103.505 74.1608 103.894 74.2728 104.226C74.3848 104.557 74.5388 104.835 74.7348 105.059C74.9308 105.278 75.1642 105.444 75.4348 105.556C75.7055 105.663 76.0088 105.717 76.3448 105.717C76.6575 105.717 76.9258 105.682 77.1498 105.612C77.3785 105.537 77.5745 105.458 77.7378 105.374C77.9012 105.29 78.0365 105.213 78.1438 105.143C78.2558 105.068 78.3515 105.031 78.4308 105.031C78.5335 105.031 78.6128 105.07 78.6688 105.15L79.0188 105.605C78.8648 105.791 78.6805 105.955 78.4658 106.095C78.2512 106.23 78.0202 106.342 77.7728 106.431C77.5302 106.519 77.2782 106.585 77.0168 106.627C76.7555 106.673 76.4965 106.697 76.2398 106.697C75.7498 106.697 75.2972 106.615 74.8818 106.452C74.4712 106.284 74.1142 106.041 73.8108 105.724C73.5122 105.402 73.2788 105.005 73.1108 104.534C72.9428 104.062 72.8588 103.521 72.8588 102.91C72.8588 102.415 72.9335 101.953 73.0828 101.524C73.2368 101.094 73.4562 100.723 73.7408 100.411C74.0255 100.093 74.3732 99.846 74.7838 99.6686C75.1945 99.4866 75.6565 99.3956 76.1698 99.3956ZM76.1978 100.313C75.5958 100.313 75.1222 100.488 74.7768 100.838C74.4315 101.183 74.2168 101.664 74.1328 102.28H77.9898C77.9898 101.99 77.9502 101.727 77.8708 101.489C77.7915 101.246 77.6748 101.038 77.5208 100.866C77.3668 100.688 77.1778 100.553 76.9538 100.46C76.7345 100.362 76.4825 100.313 76.1978 100.313ZM82.4876 96.5676H83.6146C83.736 96.5676 83.8363 96.598 83.9156 96.6586C83.995 96.7193 84.0486 96.7963 84.0766 96.8896L86.1486 103.862C86.186 103.988 86.2186 104.123 86.2466 104.268C86.2793 104.412 86.3096 104.564 86.3376 104.723C86.3703 104.564 86.403 104.412 86.4356 104.268C86.4683 104.118 86.5056 103.983 86.5476 103.862L88.9066 96.8896C88.9346 96.8103 88.9883 96.738 89.0676 96.6726C89.1516 96.6026 89.252 96.5676 89.3686 96.5676H89.7606C89.882 96.5676 89.98 96.598 90.0546 96.6586C90.134 96.7193 90.19 96.7963 90.2226 96.8896L92.5676 103.862C92.6516 104.104 92.7263 104.382 92.7916 104.695C92.8196 104.541 92.8453 104.394 92.8686 104.254C92.892 104.114 92.9223 103.983 92.9596 103.862L95.0386 96.8896C95.062 96.8056 95.1133 96.731 95.1926 96.6656C95.2766 96.6003 95.377 96.5676 95.4936 96.5676H96.5506L93.4216 106.599H92.2036L89.6626 98.9476C89.6113 98.803 89.5646 98.635 89.5226 98.4436C89.4993 98.537 89.476 98.628 89.4526 98.7166C89.434 98.8006 89.413 98.8776 89.3896 98.9476L86.8346 106.599H85.6166L82.4876 96.5676ZM99.0574 99.5076V106.599H97.8114V99.5076H99.0574ZM99.3374 97.2816C99.3374 97.403 99.3117 97.5173 99.2604 97.6246C99.2137 97.7273 99.1484 97.8206 99.0644 97.9046C98.9851 97.984 98.8917 98.047 98.7844 98.0936C98.6771 98.1403 98.5627 98.1636 98.4414 98.1636C98.3201 98.1636 98.2057 98.1403 98.0984 98.0936C97.9957 98.047 97.9024 97.984 97.8184 97.9046C97.7391 97.8206 97.6761 97.7273 97.6294 97.6246C97.5827 97.5173 97.5594 97.403 97.5594 97.2816C97.5594 97.1603 97.5827 97.046 97.6294 96.9386C97.6761 96.8266 97.7391 96.731 97.8184 96.6516C97.9024 96.5676 97.9957 96.5023 98.0984 96.4556C98.2057 96.409 98.3201 96.3856 98.4414 96.3856C98.5627 96.3856 98.6771 96.409 98.7844 96.4556C98.8917 96.5023 98.9851 96.5676 99.0644 96.6516C99.1484 96.731 99.2137 96.8266 99.2604 96.9386C99.3117 97.046 99.3374 97.1603 99.3374 97.2816ZM103.402 106.711C102.842 106.711 102.411 106.554 102.107 106.242C101.809 105.929 101.659 105.479 101.659 104.891V100.551H100.805C100.731 100.551 100.668 100.53 100.616 100.488C100.565 100.441 100.539 100.371 100.539 100.278V99.7806L101.701 99.6336L101.988 97.4426C101.998 97.3726 102.028 97.3166 102.079 97.2746C102.131 97.228 102.196 97.2046 102.275 97.2046H102.905V99.6476H104.935V100.551H102.905V104.807C102.905 105.105 102.978 105.327 103.122 105.472C103.267 105.616 103.454 105.689 103.682 105.689C103.813 105.689 103.925 105.672 104.018 105.64C104.116 105.602 104.2 105.563 104.27 105.521C104.34 105.479 104.399 105.441 104.445 105.409C104.497 105.371 104.541 105.353 104.578 105.353C104.644 105.353 104.702 105.392 104.753 105.472L105.117 106.067C104.903 106.267 104.644 106.426 104.34 106.543C104.037 106.655 103.724 106.711 103.402 106.711ZM106.476 106.599V96.2876H107.722V100.46C108.025 100.138 108.361 99.881 108.73 99.6896C109.099 99.4936 109.523 99.3956 110.004 99.3956C110.391 99.3956 110.732 99.461 111.026 99.5916C111.325 99.7176 111.572 99.8996 111.768 100.138C111.969 100.371 112.12 100.653 112.223 100.985C112.326 101.316 112.377 101.682 112.377 102.084V106.599H111.131V102.084C111.131 101.547 111.007 101.132 110.76 100.838C110.517 100.539 110.144 100.39 109.64 100.39C109.271 100.39 108.926 100.478 108.604 100.656C108.287 100.833 107.993 101.073 107.722 101.377V106.599H106.476ZM117.125 99.3956C117.643 99.3956 118.11 99.482 118.525 99.6546C118.945 99.8273 119.3 100.072 119.589 100.39C119.883 100.707 120.107 101.092 120.261 101.545C120.42 101.993 120.499 102.494 120.499 103.05C120.499 103.61 120.42 104.114 120.261 104.562C120.107 105.01 119.883 105.392 119.589 105.71C119.3 106.027 118.945 106.272 118.525 106.445C118.11 106.613 117.643 106.697 117.125 106.697C116.607 106.697 116.138 106.613 115.718 106.445C115.303 106.272 114.948 106.027 114.654 105.71C114.36 105.392 114.134 105.01 113.975 104.562C113.817 104.114 113.737 103.61 113.737 103.05C113.737 102.494 113.817 101.993 113.975 101.545C114.134 101.092 114.36 100.707 114.654 100.39C114.948 100.072 115.303 99.8273 115.718 99.6546C116.138 99.482 116.607 99.3956 117.125 99.3956ZM117.125 105.724C117.825 105.724 118.348 105.49 118.693 105.024C119.039 104.552 119.211 103.897 119.211 103.057C119.211 102.212 119.039 101.554 118.693 101.083C118.348 100.611 117.825 100.376 117.125 100.376C116.771 100.376 116.463 100.436 116.201 100.558C115.94 100.679 115.721 100.854 115.543 101.083C115.371 101.311 115.24 101.594 115.151 101.93C115.067 102.261 115.025 102.637 115.025 103.057C115.025 103.477 115.067 103.852 115.151 104.184C115.24 104.515 115.371 104.795 115.543 105.024C115.721 105.248 115.94 105.42 116.201 105.542C116.463 105.663 116.771 105.724 117.125 105.724ZM123.113 99.5076V104.03C123.113 104.566 123.236 104.982 123.484 105.276C123.731 105.57 124.104 105.717 124.604 105.717C124.968 105.717 125.311 105.63 125.633 105.458C125.955 105.285 126.251 105.045 126.522 104.737V99.5076H127.768V106.599H127.026C126.848 106.599 126.736 106.512 126.69 106.34L126.592 105.577C126.284 105.917 125.938 106.193 125.556 106.403C125.173 106.608 124.734 106.711 124.24 106.711C123.852 106.711 123.509 106.648 123.211 106.522C122.917 106.391 122.669 106.209 122.469 105.976C122.268 105.742 122.116 105.46 122.014 105.129C121.916 104.797 121.867 104.431 121.867 104.03V99.5076H123.113ZM131.963 106.711C131.403 106.711 130.971 106.554 130.668 106.242C130.369 105.929 130.22 105.479 130.22 104.891V100.551H129.366C129.291 100.551 129.228 100.53 129.177 100.488C129.126 100.441 129.1 100.371 129.1 100.278V99.7806L130.262 99.6336L130.549 97.4426C130.558 97.3726 130.589 97.3166 130.64 97.2746C130.691 97.228 130.757 97.2046 130.836 97.2046H131.466V99.6476H133.496V100.551H131.466V104.807C131.466 105.105 131.538 105.327 131.683 105.472C131.828 105.616 132.014 105.689 132.243 105.689C132.374 105.689 132.486 105.672 132.579 105.64C132.677 105.602 132.761 105.563 132.831 105.521C132.901 105.479 132.959 105.441 133.006 105.409C133.057 105.371 133.102 105.353 133.139 105.353C133.204 105.353 133.263 105.392 133.314 105.472L133.678 106.067C133.463 106.267 133.204 106.426 132.901 106.543C132.598 106.655 132.285 106.711 131.963 106.711ZM68.6598 129.612C68.9304 129.612 69.1778 129.6 69.4018 129.577C69.6304 129.549 69.8451 129.509 70.0458 129.458C70.2464 129.406 70.4354 129.346 70.6128 129.276C70.7901 129.201 70.9674 129.117 71.1448 129.024V126.812H69.5908C69.5021 126.812 69.4298 126.786 69.3738 126.735C69.3224 126.683 69.2968 126.62 69.2968 126.546V125.776H72.3768V129.626C72.1248 129.808 71.8611 129.966 71.5858 130.102C71.3151 130.237 71.0234 130.351 70.7108 130.445C70.4028 130.533 70.0714 130.599 69.7168 130.641C69.3621 130.687 68.9771 130.711 68.5618 130.711C67.8338 130.711 67.1664 130.587 66.5598 130.34C65.9531 130.088 65.4304 129.738 64.9918 129.29C64.5531 128.837 64.2101 128.296 63.9628 127.666C63.7201 127.036 63.5988 126.343 63.5988 125.587C63.5988 124.821 63.7178 124.124 63.9558 123.494C64.1984 122.864 64.5414 122.325 64.9848 121.877C65.4328 121.424 65.9718 121.074 66.6018 120.827C67.2364 120.579 67.9458 120.456 68.7298 120.456C69.1264 120.456 69.4951 120.486 69.8358 120.547C70.1764 120.603 70.4914 120.687 70.7808 120.799C71.0748 120.906 71.3454 121.039 71.5928 121.198C71.8401 121.352 72.0711 121.527 72.2858 121.723L71.9008 122.339C71.8214 122.465 71.7188 122.528 71.5928 122.528C71.5181 122.528 71.4364 122.502 71.3478 122.451C71.2311 122.385 71.1004 122.306 70.9558 122.213C70.8111 122.119 70.6338 122.031 70.4238 121.947C70.2184 121.858 69.9734 121.783 69.6888 121.723C69.4088 121.662 69.0751 121.632 68.6878 121.632C68.1231 121.632 67.6121 121.725 67.1548 121.912C66.6974 122.094 66.3078 122.357 65.9858 122.703C65.6638 123.043 65.4164 123.459 65.2438 123.949C65.0711 124.434 64.9848 124.98 64.9848 125.587C64.9848 126.221 65.0734 126.788 65.2508 127.288C65.4328 127.782 65.6871 128.202 66.0138 128.548C66.3404 128.893 66.7278 129.157 67.1758 129.339C67.6238 129.521 68.1184 129.612 68.6598 129.612ZM79.48 130.599H78.927C78.8057 130.599 78.7077 130.58 78.633 130.543C78.5583 130.505 78.5093 130.426 78.486 130.305L78.346 129.647C78.1593 129.815 77.9773 129.966 77.8 130.102C77.6227 130.232 77.436 130.344 77.24 130.438C77.044 130.526 76.834 130.594 76.61 130.641C76.3907 130.687 76.1457 130.711 75.875 130.711C75.5997 130.711 75.3407 130.673 75.098 130.599C74.86 130.519 74.6523 130.403 74.475 130.249C74.2977 130.095 74.1553 129.901 74.048 129.668C73.9453 129.43 73.894 129.15 73.894 128.828C73.894 128.548 73.971 128.279 74.125 128.023C74.279 127.761 74.5263 127.53 74.867 127.33C75.2123 127.129 75.6627 126.966 76.218 126.84C76.7733 126.709 77.4523 126.634 78.255 126.616V126.063C78.255 125.512 78.136 125.097 77.898 124.817C77.6647 124.532 77.317 124.39 76.855 124.39C76.5517 124.39 76.295 124.429 76.085 124.509C75.8797 124.583 75.7 124.67 75.546 124.768C75.3967 124.861 75.266 124.947 75.154 125.027C75.0467 125.101 74.9393 125.139 74.832 125.139C74.748 125.139 74.6733 125.118 74.608 125.076C74.5473 125.029 74.4983 124.973 74.461 124.908L74.237 124.509C74.629 124.131 75.0513 123.848 75.504 123.662C75.9567 123.475 76.4583 123.382 77.009 123.382C77.4057 123.382 77.758 123.447 78.066 123.578C78.374 123.708 78.633 123.89 78.843 124.124C79.053 124.357 79.2117 124.639 79.319 124.971C79.4263 125.302 79.48 125.666 79.48 126.063V130.599ZM76.246 129.836C76.4653 129.836 76.666 129.815 76.848 129.773C77.03 129.726 77.2003 129.663 77.359 129.584C77.5223 129.5 77.6763 129.399 77.821 129.283C77.9703 129.166 78.115 129.033 78.255 128.884V127.407C77.681 127.425 77.1933 127.472 76.792 127.547C76.3907 127.617 76.064 127.71 75.812 127.827C75.56 127.943 75.3757 128.081 75.259 128.24C75.147 128.398 75.091 128.576 75.091 128.772C75.091 128.958 75.1213 129.119 75.182 129.255C75.2427 129.39 75.3243 129.502 75.427 129.591C75.5297 129.675 75.651 129.738 75.791 129.78C75.931 129.817 76.0827 129.836 76.246 129.836ZM81.3677 133V123.508H82.1097C82.287 123.508 82.399 123.594 82.4457 123.767L82.5507 124.607C82.854 124.238 83.1994 123.942 83.5867 123.718C83.9787 123.494 84.429 123.382 84.9377 123.382C85.3437 123.382 85.7124 123.461 86.0437 123.62C86.375 123.774 86.6574 124.005 86.8907 124.313C87.124 124.616 87.3037 124.994 87.4297 125.447C87.5557 125.899 87.6187 126.42 87.6187 127.008C87.6187 127.53 87.5487 128.018 87.4087 128.471C87.2687 128.919 87.068 129.308 86.8067 129.64C86.5454 129.966 86.2234 130.225 85.8407 130.417C85.4627 130.603 85.0357 130.697 84.5597 130.697C84.121 130.697 83.7454 130.624 83.4327 130.48C83.1247 130.335 82.8517 130.13 82.6137 129.864V133H81.3677ZM84.5247 124.39C84.1187 124.39 83.7617 124.483 83.4537 124.67C83.1504 124.856 82.8704 125.12 82.6137 125.461V128.891C82.8424 129.199 83.092 129.416 83.3627 129.542C83.638 129.668 83.9437 129.731 84.2797 129.731C84.9377 129.731 85.444 129.495 85.7987 129.024C86.1534 128.552 86.3307 127.88 86.3307 127.008C86.3307 126.546 86.2887 126.149 86.2047 125.818C86.1254 125.486 86.0087 125.216 85.8547 125.006C85.7007 124.791 85.5117 124.635 85.2877 124.537C85.0637 124.439 84.8094 124.39 84.5247 124.39ZM93.1523 124.677C93.0963 124.779 93.01 124.831 92.8933 124.831C92.8233 124.831 92.744 124.805 92.6553 124.754C92.5666 124.702 92.457 124.646 92.3263 124.586C92.2003 124.52 92.0486 124.462 91.8713 124.411C91.694 124.355 91.484 124.327 91.2413 124.327C91.0313 124.327 90.8423 124.355 90.6743 124.411C90.5063 124.462 90.3616 124.534 90.2403 124.628C90.1236 124.721 90.0326 124.831 89.9673 124.957C89.9066 125.078 89.8763 125.211 89.8763 125.356C89.8763 125.538 89.9276 125.689 90.0303 125.811C90.1376 125.932 90.2776 126.037 90.4503 126.126C90.623 126.214 90.819 126.294 91.0383 126.364C91.2576 126.429 91.4816 126.501 91.7103 126.581C91.9436 126.655 92.17 126.739 92.3893 126.833C92.6086 126.926 92.8046 127.043 92.9773 127.183C93.15 127.323 93.2876 127.495 93.3903 127.701C93.4976 127.901 93.5513 128.144 93.5513 128.429C93.5513 128.755 93.493 129.059 93.3763 129.339C93.2596 129.614 93.087 129.854 92.8583 130.06C92.6296 130.26 92.3496 130.419 92.0183 130.536C91.687 130.652 91.3043 130.711 90.8703 130.711C90.3756 130.711 89.9276 130.631 89.5263 130.473C89.125 130.309 88.7843 130.102 88.5043 129.85L88.7983 129.374C88.8356 129.313 88.88 129.266 88.9313 129.234C88.9826 129.201 89.0503 129.185 89.1343 129.185C89.2183 129.185 89.307 129.217 89.4003 129.283C89.4936 129.348 89.6056 129.42 89.7363 129.5C89.8716 129.579 90.0326 129.651 90.2193 129.717C90.4106 129.782 90.6486 129.815 90.9333 129.815C91.176 129.815 91.3883 129.784 91.5703 129.724C91.7523 129.658 91.904 129.572 92.0253 129.465C92.1466 129.357 92.2353 129.234 92.2913 129.094C92.352 128.954 92.3823 128.804 92.3823 128.646C92.3823 128.45 92.3286 128.289 92.2213 128.163C92.1186 128.032 91.981 127.922 91.8083 127.834C91.6356 127.74 91.4373 127.661 91.2133 127.596C90.994 127.526 90.7676 127.453 90.5343 127.379C90.3056 127.304 90.0793 127.22 89.8553 127.127C89.636 127.029 89.44 126.907 89.2673 126.763C89.0946 126.618 88.9546 126.441 88.8473 126.231C88.7446 126.016 88.6933 125.757 88.6933 125.454C88.6933 125.183 88.7493 124.924 88.8613 124.677C88.9733 124.425 89.1366 124.205 89.3513 124.019C89.566 123.827 89.8296 123.676 90.1423 123.564C90.455 123.452 90.812 123.396 91.2133 123.396C91.68 123.396 92.0976 123.47 92.4663 123.62C92.8396 123.764 93.1616 123.965 93.4323 124.222L93.1523 124.677Z" fill="black"/>
</svg>
