<svg width="151" height="151" viewBox="0 0 151 151" fill="none" xmlns="http://www.w3.org/2000/svg">
<path d="M118.055 0.599609H32.0547C14.3816 0.599609 0.0546875 14.9264 0.0546875 32.5993V118.599C0.0546875 136.271 14.3816 150.598 32.0547 150.598H118.055C135.728 150.598 150.055 136.271 150.055 118.599V32.5993C150.055 14.9264 135.728 0.599609 118.055 0.599609Z" fill="#EDDEC2"/>
<rect x="55.0547" y="40.5996" width="41" height="40.9996" rx="8" fill="#8634D9"/>
<path d="M73.595 62.5496L72.8487 61.7998C72.9795 61.5738 73.0708 61.3269 73.1187 61.0699C73.1712 60.7969 73.1973 60.5194 73.1967 60.2413C73.1974 59.9627 73.1675 59.6848 73.1075 59.4127C73.0557 59.1645 72.9604 58.9274 72.826 58.7127L73.5722 57.9561C73.8061 58.2744 73.9785 58.6339 74.0804 59.016C74.1925 59.4148 74.2494 59.8272 74.2497 60.2416C74.2492 60.6578 74.1962 61.0723 74.0919 61.4752C73.9972 61.8625 73.8284 62.2271 73.595 62.5496ZM75.9199 64.8675L75.1667 64.1109C75.619 63.5617 75.9664 62.9334 76.1917 62.2576C76.4081 61.5996 76.5178 60.9109 76.5167 60.218C76.5179 59.5261 76.4082 58.8386 76.1917 58.1819C75.9689 57.513 75.621 56.893 75.1667 56.3552L75.9199 55.5986C76.4636 56.2439 76.8838 56.9845 77.1594 57.7831C77.4314 58.5661 77.5704 59.3895 77.5704 60.2187C77.5702 61.0494 77.4313 61.8741 77.1594 62.6586C76.8812 63.4637 76.4614 64.2113 75.9199 64.8675ZM67.2215 60.8161C66.9859 60.8213 66.7517 60.778 66.5334 60.6888C66.3151 60.5997 66.1173 60.4665 65.9523 60.2976C65.7841 60.1318 65.6515 59.9331 65.5627 59.7139C65.4739 59.4946 65.4308 59.2594 65.436 59.0228C65.4308 58.7861 65.4739 58.5509 65.5627 58.3317C65.6515 58.1124 65.7841 57.9138 65.9523 57.748C66.1173 57.5791 66.3151 57.4459 66.5334 57.3567C66.7517 57.2675 66.9859 57.2242 67.2215 57.2295C67.4571 57.2242 67.6913 57.2675 67.9096 57.3567C68.1279 57.4459 68.3257 57.5791 68.4907 57.748C68.6591 57.9138 68.7917 58.1126 68.8806 58.332C68.9694 58.5514 69.0125 58.7867 69.0072 59.0235C69.0125 59.2602 68.9693 59.4954 68.8805 59.7146C68.7918 59.9339 68.6592 60.1325 68.491 60.2983C68.3258 60.4671 68.128 60.6002 67.9096 60.6892C67.6913 60.7783 67.4571 60.8214 67.2215 60.8161ZM63.0548 65.5986V65.394C63.051 65.0655 63.1547 64.7448 63.35 64.4813C63.5569 64.205 63.8313 63.9871 64.1468 63.8488C64.6186 63.629 65.1148 63.4661 65.6248 63.3637C66.1505 63.2583 66.6854 63.2059 67.2215 63.2072C67.7576 63.2059 68.2925 63.2583 68.8182 63.3637C69.3283 63.4661 69.8244 63.629 70.2962 63.8488C70.6117 63.9871 70.8861 64.205 71.093 64.4813C71.2883 64.7448 71.392 65.0655 71.3882 65.394V65.5986H63.0548ZM83.8879 60.8158C83.6523 60.8211 83.4181 60.7777 83.1998 60.6886C82.9815 60.5994 82.7837 60.4662 82.6186 60.2973C82.4504 60.1315 82.3179 59.9329 82.2291 59.7136C82.1403 59.4944 82.0972 59.2592 82.1024 59.0225C82.0972 58.7859 82.1403 58.5507 82.2291 58.3314C82.3179 58.1122 82.4504 57.9135 82.6186 57.7477C82.7837 57.5788 82.9815 57.4456 83.1998 57.3565C83.4181 57.2673 83.6523 57.224 83.8879 57.2292C84.1235 57.224 84.3577 57.2673 84.5759 57.3565C84.7942 57.4456 84.992 57.5788 85.1571 57.7477C85.3253 57.9135 85.4579 58.1122 85.5467 58.3314C85.6355 58.5507 85.6786 58.7859 85.6734 59.0225C85.6786 59.2592 85.6355 59.4944 85.5467 59.7136C85.4579 59.9329 85.3253 60.1315 85.1571 60.2973C84.9921 60.4663 84.7943 60.5995 84.576 60.6887C84.3577 60.7779 84.1235 60.821 83.8879 60.8158ZM79.7212 65.5986V65.394C79.7173 65.0655 79.8211 64.7448 80.0164 64.4813C80.2233 64.205 80.4977 63.9871 80.8131 63.8488C81.285 63.629 81.7811 63.4661 82.2911 63.3637C82.8169 63.2583 83.3518 63.2059 83.8879 63.2072C84.424 63.2059 84.9589 63.2583 85.4846 63.3637C85.9946 63.4661 86.4907 63.629 86.9626 63.8488C87.278 63.9871 87.5525 64.205 87.7593 64.4813C87.9547 64.7448 88.0584 65.0655 88.0546 65.394V65.5986H79.7212Z" fill="white"/>
<path d="M25.4688 102.847V106.599H24.1178V96.5676H27.0788C27.7134 96.5676 28.2641 96.6423 28.7308 96.7916C29.2021 96.9363 29.5918 97.144 29.8998 97.4146C30.2078 97.6853 30.4364 98.012 30.5858 98.3946C30.7398 98.7773 30.8168 99.2043 30.8168 99.6756C30.8168 100.142 30.7351 100.569 30.5718 100.957C30.4084 101.344 30.1681 101.678 29.8508 101.958C29.5381 102.238 29.1484 102.457 28.6818 102.616C28.2151 102.77 27.6808 102.847 27.0788 102.847H25.4688ZM25.4688 101.769H27.0788C27.4661 101.769 27.8068 101.717 28.1008 101.615C28.3994 101.512 28.6491 101.37 28.8498 101.188C29.0504 101.001 29.2021 100.779 29.3048 100.523C29.4074 100.266 29.4588 99.9836 29.4588 99.6756C29.4588 99.0363 29.2604 98.537 28.8638 98.1776C28.4718 97.8183 27.8768 97.6386 27.0788 97.6386H25.4688V101.769ZM32.3404 106.599V99.5076H33.0544C33.1897 99.5076 33.283 99.5333 33.3344 99.5846C33.3857 99.636 33.4207 99.7246 33.4394 99.8506L33.5234 100.957C33.766 100.462 34.0647 100.077 34.4194 99.8016C34.7787 99.5216 35.1987 99.3816 35.6794 99.3816C35.8754 99.3816 36.0527 99.405 36.2114 99.4516C36.37 99.4936 36.517 99.5543 36.6524 99.6336L36.4914 100.565C36.4587 100.681 36.3864 100.74 36.2744 100.74C36.209 100.74 36.1087 100.719 35.9734 100.677C35.838 100.63 35.649 100.607 35.4064 100.607C34.9724 100.607 34.6084 100.733 34.3144 100.985C34.025 101.237 33.7824 101.603 33.5864 102.084V106.599H32.3404ZM40.7938 99.3956C41.2185 99.3956 41.6105 99.468 41.9698 99.6126C42.3292 99.7526 42.6395 99.958 42.9008 100.229C43.1622 100.495 43.3652 100.826 43.5098 101.223C43.6592 101.615 43.7338 102.063 43.7338 102.567C43.7338 102.763 43.7128 102.893 43.6708 102.959C43.6288 103.024 43.5495 103.057 43.4328 103.057H38.7148C38.7242 103.505 38.7848 103.894 38.8968 104.226C39.0088 104.557 39.1628 104.835 39.3588 105.059C39.5548 105.278 39.7882 105.444 40.0588 105.556C40.3295 105.663 40.6328 105.717 40.9688 105.717C41.2815 105.717 41.5498 105.682 41.7738 105.612C42.0025 105.537 42.1985 105.458 42.3618 105.374C42.5252 105.29 42.6605 105.213 42.7678 105.143C42.8798 105.068 42.9755 105.031 43.0548 105.031C43.1575 105.031 43.2368 105.07 43.2928 105.15L43.6428 105.605C43.4888 105.791 43.3045 105.955 43.0898 106.095C42.8752 106.23 42.6442 106.342 42.3968 106.431C42.1542 106.519 41.9022 106.585 41.6408 106.627C41.3795 106.673 41.1205 106.697 40.8638 106.697C40.3738 106.697 39.9212 106.615 39.5058 106.452C39.0952 106.284 38.7382 106.041 38.4348 105.724C38.1362 105.402 37.9028 105.005 37.7348 104.534C37.5668 104.062 37.4828 103.521 37.4828 102.91C37.4828 102.415 37.5575 101.953 37.7068 101.524C37.8608 101.094 38.0802 100.723 38.3648 100.411C38.6495 100.093 38.9972 99.846 39.4078 99.6686C39.8185 99.4866 40.2805 99.3956 40.7938 99.3956ZM40.8218 100.313C40.2198 100.313 39.7462 100.488 39.4008 100.838C39.0555 101.183 38.8408 101.664 38.7568 102.28H42.6138C42.6138 101.99 42.5742 101.727 42.4948 101.489C42.4155 101.246 42.2988 101.038 42.1448 100.866C41.9908 100.688 41.8018 100.553 41.5778 100.46C41.3585 100.362 41.1065 100.313 40.8218 100.313ZM50.1656 100.768C50.1283 100.819 50.091 100.859 50.0536 100.887C50.0163 100.915 49.9626 100.929 49.8926 100.929C49.8226 100.929 49.7456 100.901 49.6616 100.845C49.5823 100.784 49.4796 100.719 49.3536 100.649C49.2276 100.579 49.0736 100.516 48.8916 100.46C48.7143 100.399 48.495 100.369 48.2336 100.369C47.8883 100.369 47.5826 100.432 47.3166 100.558C47.0506 100.679 46.8266 100.856 46.6446 101.09C46.4673 101.323 46.332 101.605 46.2386 101.937C46.15 102.268 46.1056 102.639 46.1056 103.05C46.1056 103.479 46.1546 103.862 46.2526 104.198C46.3506 104.529 46.4883 104.809 46.6656 105.038C46.843 105.262 47.0576 105.434 47.3096 105.556C47.5663 105.672 47.8533 105.731 48.1706 105.731C48.474 105.731 48.7236 105.696 48.9196 105.626C49.1156 105.551 49.279 105.469 49.4096 105.381C49.5403 105.292 49.6476 105.213 49.7316 105.143C49.8156 105.068 49.8996 105.031 49.9836 105.031C50.091 105.031 50.1703 105.07 50.2216 105.15L50.5716 105.605C50.2636 105.983 49.8786 106.26 49.4166 106.438C48.9546 106.61 48.467 106.697 47.9536 106.697C47.5103 106.697 47.0973 106.615 46.7146 106.452C46.3366 106.288 46.0076 106.053 45.7276 105.745C45.4476 105.432 45.226 105.049 45.0626 104.597C44.904 104.144 44.8246 103.628 44.8246 103.05C44.8246 102.522 44.897 102.035 45.0416 101.587C45.191 101.139 45.4056 100.754 45.6856 100.432C45.9703 100.105 46.3203 99.8506 46.7356 99.6686C47.151 99.4866 47.627 99.3956 48.1636 99.3956C48.6583 99.3956 49.097 99.4773 49.4796 99.6406C49.8623 99.7993 50.2006 100.026 50.4946 100.32L50.1656 100.768ZM53.2498 99.5076V106.599H52.0038V99.5076H53.2498ZM53.5298 97.2816C53.5298 97.403 53.5041 97.5173 53.4528 97.6246C53.4061 97.7273 53.3408 97.8206 53.2568 97.9046C53.1775 97.984 53.0841 98.047 52.9768 98.0936C52.8695 98.1403 52.7551 98.1636 52.6338 98.1636C52.5125 98.1636 52.3981 98.1403 52.2908 98.0936C52.1881 98.047 52.0948 97.984 52.0108 97.9046C51.9315 97.8206 51.8685 97.7273 51.8218 97.6246C51.7751 97.5173 51.7518 97.403 51.7518 97.2816C51.7518 97.1603 51.7751 97.046 51.8218 96.9386C51.8685 96.8266 51.9315 96.731 52.0108 96.6516C52.0948 96.5676 52.1881 96.5023 52.2908 96.4556C52.3981 96.409 52.5125 96.3856 52.6338 96.3856C52.7551 96.3856 52.8695 96.409 52.9768 96.4556C53.0841 96.5023 53.1775 96.5676 53.2568 96.6516C53.3408 96.731 53.4061 96.8266 53.4528 96.9386C53.5041 97.046 53.5298 97.1603 53.5298 97.2816ZM59.5058 100.677C59.4498 100.779 59.3635 100.831 59.2468 100.831C59.1768 100.831 59.0975 100.805 59.0088 100.754C58.9202 100.702 58.8105 100.646 58.6798 100.586C58.5538 100.52 58.4022 100.462 58.2248 100.411C58.0475 100.355 57.8375 100.327 57.5948 100.327C57.3848 100.327 57.1958 100.355 57.0278 100.411C56.8598 100.462 56.7152 100.534 56.5938 100.628C56.4772 100.721 56.3862 100.831 56.3208 100.957C56.2602 101.078 56.2298 101.211 56.2298 101.356C56.2298 101.538 56.2812 101.689 56.3838 101.811C56.4912 101.932 56.6312 102.037 56.8038 102.126C56.9765 102.214 57.1725 102.294 57.3918 102.364C57.6112 102.429 57.8352 102.501 58.0638 102.581C58.2972 102.655 58.5235 102.739 58.7428 102.833C58.9622 102.926 59.1582 103.043 59.3308 103.183C59.5035 103.323 59.6412 103.495 59.7438 103.701C59.8512 103.901 59.9048 104.144 59.9048 104.429C59.9048 104.755 59.8465 105.059 59.7298 105.339C59.6132 105.614 59.4405 105.854 59.2118 106.06C58.9832 106.26 58.7032 106.419 58.3718 106.536C58.0405 106.652 57.6578 106.711 57.2238 106.711C56.7292 106.711 56.2812 106.631 55.8798 106.473C55.4785 106.309 55.1378 106.102 54.8578 105.85L55.1518 105.374C55.1892 105.313 55.2335 105.266 55.2848 105.234C55.3362 105.201 55.4038 105.185 55.4878 105.185C55.5718 105.185 55.6605 105.217 55.7538 105.283C55.8472 105.348 55.9592 105.42 56.0898 105.5C56.2252 105.579 56.3862 105.651 56.5728 105.717C56.7642 105.782 57.0022 105.815 57.2868 105.815C57.5295 105.815 57.7418 105.784 57.9238 105.724C58.1058 105.658 58.2575 105.572 58.3788 105.465C58.5002 105.357 58.5888 105.234 58.6448 105.094C58.7055 104.954 58.7358 104.804 58.7358 104.646C58.7358 104.45 58.6822 104.289 58.5748 104.163C58.4722 104.032 58.3345 103.922 58.1618 103.834C57.9892 103.74 57.7908 103.661 57.5668 103.596C57.3475 103.526 57.1212 103.453 56.8878 103.379C56.6592 103.304 56.4328 103.22 56.2088 103.127C55.9895 103.029 55.7935 102.907 55.6208 102.763C55.4482 102.618 55.3082 102.441 55.2008 102.231C55.0982 102.016 55.0468 101.757 55.0468 101.454C55.0468 101.183 55.1028 100.924 55.2148 100.677C55.3268 100.425 55.4902 100.205 55.7048 100.019C55.9195 99.8273 56.1832 99.6756 56.4958 99.5636C56.8085 99.4516 57.1655 99.3956 57.5668 99.3956C58.0335 99.3956 58.4512 99.4703 58.8198 99.6196C59.1932 99.7643 59.5152 99.965 59.7858 100.222L59.5058 100.677ZM62.9021 99.5076V106.599H61.6561V99.5076H62.9021ZM63.1821 97.2816C63.1821 97.403 63.1565 97.5173 63.1051 97.6246C63.0585 97.7273 62.9931 97.8206 62.9091 97.9046C62.8298 97.984 62.7365 98.047 62.6291 98.0936C62.5218 98.1403 62.4075 98.1636 62.2861 98.1636C62.1648 98.1636 62.0505 98.1403 61.9431 98.0936C61.8405 98.047 61.7471 97.984 61.6631 97.9046C61.5838 97.8206 61.5208 97.7273 61.4741 97.6246C61.4275 97.5173 61.4041 97.403 61.4041 97.2816C61.4041 97.1603 61.4275 97.046 61.4741 96.9386C61.5208 96.8266 61.5838 96.731 61.6631 96.6516C61.7471 96.5676 61.8405 96.5023 61.9431 96.4556C62.0505 96.409 62.1648 96.3856 62.2861 96.3856C62.4075 96.3856 62.5218 96.409 62.6291 96.4556C62.7365 96.5023 62.8298 96.5676 62.9091 96.6516C62.9931 96.731 63.0585 96.8266 63.1051 96.9386C63.1565 97.046 63.1821 97.1603 63.1821 97.2816ZM67.9682 99.3956C68.4862 99.3956 68.9528 99.482 69.3682 99.6546C69.7882 99.8273 70.1428 100.072 70.4322 100.39C70.7262 100.707 70.9502 101.092 71.1042 101.545C71.2628 101.993 71.3422 102.494 71.3422 103.05C71.3422 103.61 71.2628 104.114 71.1042 104.562C70.9502 105.01 70.7262 105.392 70.4322 105.71C70.1428 106.027 69.7882 106.272 69.3682 106.445C68.9528 106.613 68.4862 106.697 67.9682 106.697C67.4502 106.697 66.9812 106.613 66.5612 106.445C66.1458 106.272 65.7912 106.027 65.4972 105.71C65.2032 105.392 64.9768 105.01 64.8182 104.562C64.6595 104.114 64.5802 103.61 64.5802 103.05C64.5802 102.494 64.6595 101.993 64.8182 101.545C64.9768 101.092 65.2032 100.707 65.4972 100.39C65.7912 100.072 66.1458 99.8273 66.5612 99.6546C66.9812 99.482 67.4502 99.3956 67.9682 99.3956ZM67.9682 105.724C68.6682 105.724 69.1908 105.49 69.5362 105.024C69.8815 104.552 70.0542 103.897 70.0542 103.057C70.0542 102.212 69.8815 101.554 69.5362 101.083C69.1908 100.611 68.6682 100.376 67.9682 100.376C67.6135 100.376 67.3055 100.436 67.0442 100.558C66.7828 100.679 66.5635 100.854 66.3862 101.083C66.2135 101.311 66.0828 101.594 65.9942 101.93C65.9102 102.261 65.8682 102.637 65.8682 103.057C65.8682 103.477 65.9102 103.852 65.9942 104.184C66.0828 104.515 66.2135 104.795 66.3862 105.024C66.5635 105.248 66.7828 105.42 67.0442 105.542C67.3055 105.663 67.6135 105.724 67.9682 105.724ZM72.8775 106.599V99.5076H73.6195C73.7968 99.5076 73.9088 99.594 73.9555 99.7666L74.0535 100.537C74.3615 100.196 74.7045 99.9206 75.0825 99.7106C75.4651 99.5006 75.9061 99.3956 76.4055 99.3956C76.7928 99.3956 77.1335 99.461 77.4275 99.5916C77.7261 99.7176 77.9735 99.8996 78.1695 100.138C78.3701 100.371 78.5218 100.653 78.6245 100.985C78.7271 101.316 78.7785 101.682 78.7785 102.084V106.599H77.5325V102.084C77.5325 101.547 77.4088 101.132 77.1615 100.838C76.9188 100.539 76.5455 100.39 76.0415 100.39C75.6728 100.39 75.3275 100.478 75.0055 100.656C74.6881 100.833 74.3941 101.073 74.1235 101.377V106.599H72.8775ZM90.3918 96.5676V97.7086H87.1508V106.599H85.7928V97.7086H82.5378V96.5676H90.3918ZM90.5005 106.599V99.5076H91.2145C91.3498 99.5076 91.4432 99.5333 91.4945 99.5846C91.5458 99.636 91.5808 99.7246 91.5995 99.8506L91.6835 100.957C91.9262 100.462 92.2248 100.077 92.5795 99.8016C92.9388 99.5216 93.3588 99.3816 93.8395 99.3816C94.0355 99.3816 94.2128 99.405 94.3715 99.4516C94.5302 99.4936 94.6772 99.5543 94.8125 99.6336L94.6515 100.565C94.6188 100.681 94.5465 100.74 94.4345 100.74C94.3692 100.74 94.2688 100.719 94.1335 100.677C93.9982 100.63 93.8092 100.607 93.5665 100.607C93.1325 100.607 92.7685 100.733 92.4745 100.985C92.1852 101.237 91.9425 101.603 91.7465 102.084V106.599H90.5005ZM101.095 106.599H100.542C100.421 106.599 100.323 106.58 100.248 106.543C100.174 106.505 100.125 106.426 100.101 106.305L99.9612 105.647C99.7746 105.815 99.5926 105.966 99.4152 106.102C99.2379 106.232 99.0512 106.344 98.8552 106.438C98.6592 106.526 98.4492 106.594 98.2252 106.641C98.0059 106.687 97.7609 106.711 97.4902 106.711C97.2149 106.711 96.9559 106.673 96.7132 106.599C96.4752 106.519 96.2676 106.403 96.0902 106.249C95.9129 106.095 95.7706 105.901 95.6632 105.668C95.5606 105.43 95.5092 105.15 95.5092 104.828C95.5092 104.548 95.5862 104.279 95.7402 104.023C95.8942 103.761 96.1416 103.53 96.4822 103.33C96.8276 103.129 97.2779 102.966 97.8332 102.84C98.3886 102.709 99.0676 102.634 99.8702 102.616V102.063C99.8702 101.512 99.7512 101.097 99.5132 100.817C99.2799 100.532 98.9322 100.39 98.4702 100.39C98.1669 100.39 97.9102 100.429 97.7002 100.509C97.4949 100.583 97.3152 100.67 97.1612 100.768C97.0119 100.861 96.8812 100.947 96.7692 101.027C96.6619 101.101 96.5546 101.139 96.4472 101.139C96.3632 101.139 96.2886 101.118 96.2232 101.076C96.1626 101.029 96.1136 100.973 96.0762 100.908L95.8522 100.509C96.2442 100.131 96.6666 99.8483 97.1192 99.6616C97.5719 99.475 98.0736 99.3816 98.6242 99.3816C99.0209 99.3816 99.3732 99.447 99.6812 99.5776C99.9892 99.7083 100.248 99.8903 100.458 100.124C100.668 100.357 100.827 100.639 100.934 100.971C101.042 101.302 101.095 101.666 101.095 102.063V106.599ZM97.8612 105.836C98.0806 105.836 98.2812 105.815 98.4632 105.773C98.6452 105.726 98.8156 105.663 98.9742 105.584C99.1376 105.5 99.2916 105.399 99.4362 105.283C99.5856 105.166 99.7302 105.033 99.8702 104.884V103.407C99.2962 103.425 98.8086 103.472 98.4072 103.547C98.0059 103.617 97.6792 103.71 97.4272 103.827C97.1752 103.943 96.9909 104.081 96.8742 104.24C96.7622 104.398 96.7062 104.576 96.7062 104.772C96.7062 104.958 96.7366 105.119 96.7972 105.255C96.8579 105.39 96.9396 105.502 97.0422 105.591C97.1449 105.675 97.2662 105.738 97.4062 105.78C97.5462 105.817 97.6979 105.836 97.8612 105.836ZM107.82 100.768C107.783 100.819 107.745 100.859 107.708 100.887C107.671 100.915 107.617 100.929 107.547 100.929C107.477 100.929 107.4 100.901 107.316 100.845C107.237 100.784 107.134 100.719 107.008 100.649C106.882 100.579 106.728 100.516 106.546 100.46C106.369 100.399 106.149 100.369 105.888 100.369C105.543 100.369 105.237 100.432 104.971 100.558C104.705 100.679 104.481 100.856 104.299 101.09C104.122 101.323 103.986 101.605 103.893 101.937C103.804 102.268 103.76 102.639 103.76 103.05C103.76 103.479 103.809 103.862 103.907 104.198C104.005 104.529 104.143 104.809 104.32 105.038C104.497 105.262 104.712 105.434 104.964 105.556C105.221 105.672 105.508 105.731 105.825 105.731C106.128 105.731 106.378 105.696 106.574 105.626C106.77 105.551 106.933 105.469 107.064 105.381C107.195 105.292 107.302 105.213 107.386 105.143C107.47 105.068 107.554 105.031 107.638 105.031C107.745 105.031 107.825 105.07 107.876 105.15L108.226 105.605C107.918 105.983 107.533 106.26 107.071 106.438C106.609 106.61 106.121 106.697 105.608 106.697C105.165 106.697 104.752 106.615 104.369 106.452C103.991 106.288 103.662 106.053 103.382 105.745C103.102 105.432 102.88 105.049 102.717 104.597C102.558 104.144 102.479 103.628 102.479 103.05C102.479 102.522 102.551 102.035 102.696 101.587C102.845 101.139 103.06 100.754 103.34 100.432C103.625 100.105 103.975 99.8506 104.39 99.6686C104.805 99.4866 105.281 99.3956 105.818 99.3956C106.313 99.3956 106.751 99.4773 107.134 99.6406C107.517 99.7993 107.855 100.026 108.149 100.32L107.82 100.768ZM110.813 96.2876V102.357H111.135C111.228 102.357 111.305 102.345 111.366 102.322C111.427 102.294 111.494 102.24 111.569 102.161L113.809 99.7596C113.879 99.685 113.949 99.6243 114.019 99.5776C114.089 99.531 114.182 99.5076 114.299 99.5076H115.433L112.822 102.287C112.757 102.366 112.691 102.436 112.626 102.497C112.565 102.557 112.495 102.611 112.416 102.658C112.5 102.714 112.575 102.779 112.64 102.854C112.71 102.924 112.775 103.005 112.836 103.099L115.608 106.599H114.488C114.385 106.599 114.297 106.58 114.222 106.543C114.152 106.501 114.084 106.438 114.019 106.354L111.688 103.449C111.618 103.351 111.548 103.288 111.478 103.26C111.408 103.227 111.303 103.211 111.163 103.211H110.813V106.599H109.56V96.2876H110.813ZM118.246 99.5076V106.599H117V99.5076H118.246ZM118.526 97.2816C118.526 97.403 118.5 97.5173 118.449 97.6246C118.402 97.7273 118.337 97.8206 118.253 97.9046C118.174 97.984 118.08 98.047 117.973 98.0936C117.866 98.1403 117.751 98.1636 117.63 98.1636C117.509 98.1636 117.394 98.1403 117.287 98.0936C117.184 98.047 117.091 97.984 117.007 97.9046C116.928 97.8206 116.865 97.7273 116.818 97.6246C116.771 97.5173 116.748 97.403 116.748 97.2816C116.748 97.1603 116.771 97.046 116.818 96.9386C116.865 96.8266 116.928 96.731 117.007 96.6516C117.091 96.5676 117.184 96.5023 117.287 96.4556C117.394 96.409 117.509 96.3856 117.63 96.3856C117.751 96.3856 117.866 96.409 117.973 96.4556C118.08 96.5023 118.174 96.5676 118.253 96.6516C118.337 96.731 118.402 96.8266 118.449 96.9386C118.5 97.046 118.526 97.1603 118.526 97.2816ZM120.442 106.599V99.5076H121.184C121.361 99.5076 121.473 99.594 121.52 99.7666L121.618 100.537C121.926 100.196 122.269 99.9206 122.647 99.7106C123.03 99.5006 123.471 99.3956 123.97 99.3956C124.357 99.3956 124.698 99.461 124.992 99.5916C125.291 99.7176 125.538 99.8996 125.734 100.138C125.935 100.371 126.086 100.653 126.189 100.985C126.292 101.316 126.343 101.682 126.343 102.084V106.599H125.097V102.084C125.097 101.547 124.973 101.132 124.726 100.838C124.483 100.539 124.11 100.39 123.606 100.39C123.237 100.39 122.892 100.478 122.57 100.656C122.253 100.833 121.959 101.073 121.688 101.377V106.599H120.442ZM130.608 99.3886C130.916 99.3886 131.203 99.4236 131.469 99.4936C131.74 99.559 131.985 99.657 132.204 99.7876H134.129V100.25C134.129 100.404 134.031 100.502 133.835 100.544L133.03 100.656C133.189 100.959 133.268 101.297 133.268 101.671C133.268 102.016 133.201 102.331 133.065 102.616C132.935 102.896 132.75 103.136 132.512 103.337C132.279 103.537 131.999 103.691 131.672 103.799C131.35 103.906 130.996 103.96 130.608 103.96C130.277 103.96 129.964 103.92 129.67 103.841C129.521 103.934 129.407 104.034 129.327 104.142C129.253 104.249 129.215 104.354 129.215 104.457C129.215 104.625 129.283 104.753 129.418 104.842C129.554 104.926 129.733 104.986 129.957 105.024C130.181 105.061 130.436 105.084 130.72 105.094C131.005 105.103 131.294 105.119 131.588 105.143C131.887 105.161 132.179 105.196 132.463 105.248C132.748 105.299 133.002 105.383 133.226 105.5C133.45 105.616 133.63 105.777 133.765 105.983C133.901 106.188 133.968 106.454 133.968 106.781C133.968 107.084 133.891 107.378 133.737 107.663C133.588 107.947 133.371 108.199 133.086 108.419C132.802 108.643 132.454 108.82 132.043 108.951C131.633 109.086 131.168 109.154 130.65 109.154C130.132 109.154 129.677 109.102 129.285 109C128.898 108.897 128.576 108.759 128.319 108.587C128.063 108.414 127.869 108.213 127.738 107.985C127.612 107.761 127.549 107.525 127.549 107.278C127.549 106.928 127.659 106.631 127.878 106.389C128.102 106.141 128.408 105.945 128.795 105.801C128.595 105.707 128.434 105.584 128.312 105.43C128.196 105.271 128.137 105.061 128.137 104.8C128.137 104.697 128.156 104.592 128.193 104.485C128.231 104.373 128.287 104.263 128.361 104.156C128.441 104.048 128.536 103.946 128.648 103.848C128.76 103.75 128.891 103.663 129.04 103.589C128.69 103.393 128.415 103.134 128.214 102.812C128.018 102.485 127.92 102.105 127.92 101.671C127.92 101.325 127.986 101.013 128.116 100.733C128.252 100.448 128.438 100.208 128.676 100.012C128.914 99.811 129.197 99.657 129.523 99.5496C129.855 99.4423 130.216 99.3886 130.608 99.3886ZM132.82 106.984C132.82 106.806 132.771 106.664 132.673 106.557C132.575 106.449 132.442 106.368 132.274 106.312C132.106 106.251 131.913 106.207 131.693 106.179C131.474 106.151 131.243 106.132 131 106.123C130.758 106.109 130.51 106.095 130.258 106.081C130.006 106.067 129.766 106.041 129.537 106.004C129.271 106.13 129.054 106.284 128.886 106.466C128.723 106.648 128.641 106.865 128.641 107.117C128.641 107.275 128.681 107.422 128.76 107.558C128.844 107.698 128.97 107.817 129.138 107.915C129.306 108.017 129.516 108.097 129.768 108.153C130.025 108.213 130.326 108.244 130.671 108.244C131.007 108.244 131.308 108.213 131.574 108.153C131.84 108.092 132.064 108.006 132.246 107.894C132.433 107.782 132.575 107.649 132.673 107.495C132.771 107.341 132.82 107.17 132.82 106.984ZM130.608 103.134C130.86 103.134 131.082 103.099 131.273 103.029C131.469 102.959 131.633 102.861 131.763 102.735C131.894 102.609 131.992 102.459 132.057 102.287C132.123 102.109 132.155 101.916 132.155 101.706C132.155 101.272 132.022 100.926 131.756 100.67C131.495 100.413 131.112 100.285 130.608 100.285C130.109 100.285 129.726 100.413 129.46 100.67C129.199 100.926 129.068 101.272 129.068 101.706C129.068 101.916 129.101 102.109 129.166 102.287C129.236 102.459 129.337 102.609 129.467 102.735C129.598 102.861 129.759 102.959 129.95 103.029C130.142 103.099 130.361 103.134 130.608 103.134Z" fill="black"/>
</svg>
