<svg width="166" height="167" viewBox="0 0 166 167" fill="none" xmlns="http://www.w3.org/2000/svg">
<g filter="url(#filter0_d_404_11778)">
<path d="M126 4.24805H40C22.3269 4.24805 8 18.5748 8 36.2478V122.247C8 139.92 22.3269 154.247 40 154.247H126C143.673 154.247 158 139.92 158 122.247V36.2478C158 18.5748 143.673 4.24805 126 4.24805Z" fill="#FFF4DF"/>
</g>
<rect x="63" y="44.248" width="41" height="40.9996" rx="8" fill="#238457"/>
<path d="M78.7018 70.3063H92.004C92.1027 70.3043 92.2 70.2823 92.2899 70.2415C92.3798 70.2007 92.4604 70.142 92.5269 70.069C92.5999 70.0025 92.6586 69.9219 92.6994 69.832C92.7402 69.7421 92.7622 69.6448 92.7642 69.5461V57.9547H77.9417V69.5461C77.9436 69.6448 77.9657 69.7421 78.0065 69.832C78.0473 69.9219 78.1059 70.0025 78.1789 70.069C78.2454 70.142 78.326 70.2007 78.4159 70.2415C78.5058 70.2823 78.6031 70.3043 78.7018 70.3063ZM78.7018 71.5415C78.438 71.5486 78.1755 71.5015 77.9306 71.4033C77.6857 71.3051 77.4635 71.1577 77.2777 70.9703C77.0903 70.7845 76.9429 70.5623 76.8447 70.3173C76.7464 70.0724 76.6994 69.8099 76.7065 69.5461V56.2441C76.6994 55.9803 76.7464 55.7178 76.8447 55.4729C76.9429 55.2279 77.0903 55.0057 77.2777 54.8199C77.4635 54.6325 77.6857 54.4851 77.9306 54.3869C78.1755 54.2887 78.438 54.2416 78.7018 54.2487H92.004C92.2678 54.2416 92.5303 54.2887 92.7752 54.3869C93.0201 54.4851 93.2424 54.6325 93.4281 54.8199C93.6156 55.0057 93.7629 55.2279 93.8612 55.4729C93.9594 55.7178 94.0064 55.9803 93.9993 56.2441V69.5461C94.0064 69.8099 93.9594 70.0724 93.8612 70.3173C93.7629 70.5623 93.6156 70.7845 93.4281 70.9703C93.2424 71.1577 93.0201 71.3051 92.7752 71.4033C92.5303 71.5015 92.2678 71.5486 92.004 71.5415H78.7018ZM74.996 75.2473C74.7322 75.2545 74.4697 75.2074 74.2248 75.1092C73.9798 75.011 73.7576 74.8636 73.5719 74.6762C73.3845 74.4904 73.2371 74.2683 73.1389 74.0234C73.0407 73.7786 72.9936 73.5162 73.0007 73.2524V58.7148H74.2358V73.2524C74.2378 73.3511 74.2599 73.4483 74.3007 73.5381C74.3415 73.6279 74.4001 73.7085 74.4731 73.7749C74.5396 73.8479 74.6202 73.9066 74.7101 73.9474C74.8 73.9882 74.8973 74.0102 74.996 74.0122H89.5333V75.2473H74.996Z" fill="white"/>
<path d="M53.1563 106.061V110.247H51.8053V100.216H54.6403C55.2749 100.216 55.8233 100.281 56.2853 100.412C56.7473 100.538 57.1276 100.722 57.4263 100.965C57.7296 101.208 57.9536 101.502 58.0983 101.847C58.2429 102.188 58.3153 102.57 58.3153 102.995C58.3153 103.35 58.2593 103.681 58.1473 103.989C58.0353 104.297 57.8719 104.575 57.6573 104.822C57.4473 105.065 57.1883 105.272 56.8803 105.445C56.5769 105.618 56.2316 105.748 55.8443 105.837C56.0123 105.935 56.1616 106.077 56.2923 106.264L59.2183 110.247H58.0143C57.7669 110.247 57.5849 110.151 57.4683 109.96L54.8643 106.376C54.7849 106.264 54.6986 106.185 54.6053 106.138C54.5119 106.087 54.3719 106.061 54.1853 106.061H53.1563ZM53.1563 105.074H54.5773C54.9739 105.074 55.3216 105.027 55.6203 104.934C55.9236 104.836 56.1756 104.701 56.3763 104.528C56.5816 104.351 56.7356 104.141 56.8383 103.898C56.9409 103.655 56.9923 103.387 56.9923 103.093C56.9923 102.496 56.7939 102.045 56.3973 101.742C56.0053 101.439 55.4196 101.287 54.6403 101.287H53.1563V105.074ZM65.687 110.247H65.134C65.0127 110.247 64.9147 110.228 64.84 110.191C64.7654 110.154 64.7164 110.074 64.693 109.953L64.553 109.295C64.3664 109.463 64.1844 109.615 64.007 109.75C63.8297 109.881 63.643 109.993 63.447 110.086C63.251 110.175 63.041 110.242 62.817 110.289C62.5977 110.336 62.3527 110.359 62.082 110.359C61.8067 110.359 61.5477 110.322 61.305 110.247C61.067 110.168 60.8594 110.051 60.682 109.897C60.5047 109.743 60.3624 109.549 60.255 109.316C60.1524 109.078 60.101 108.798 60.101 108.476C60.101 108.196 60.178 107.928 60.332 107.671C60.486 107.41 60.7334 107.179 61.074 106.978C61.4194 106.777 61.8697 106.614 62.425 106.488C62.9804 106.357 63.6594 106.283 64.462 106.264V105.711C64.462 105.16 64.343 104.745 64.105 104.465C63.8717 104.18 63.524 104.038 63.062 104.038C62.7587 104.038 62.502 104.078 62.292 104.157C62.0867 104.232 61.907 104.318 61.753 104.416C61.6037 104.509 61.473 104.596 61.361 104.675C61.2537 104.75 61.1464 104.787 61.039 104.787C60.955 104.787 60.8804 104.766 60.815 104.724C60.7544 104.677 60.7054 104.621 60.668 104.556L60.444 104.157C60.836 103.779 61.2584 103.497 61.711 103.31C62.1637 103.123 62.6654 103.03 63.216 103.03C63.6127 103.03 63.965 103.095 64.273 103.226C64.581 103.357 64.84 103.539 65.05 103.772C65.26 104.005 65.4187 104.288 65.526 104.619C65.6334 104.95 65.687 105.314 65.687 105.711V110.247ZM62.453 109.484C62.6724 109.484 62.873 109.463 63.055 109.421C63.237 109.374 63.4074 109.311 63.566 109.232C63.7294 109.148 63.8834 109.048 64.028 108.931C64.1774 108.814 64.322 108.681 64.462 108.532V107.055C63.888 107.074 63.4004 107.12 62.999 107.195C62.5977 107.265 62.271 107.358 62.019 107.475C61.767 107.592 61.5827 107.729 61.466 107.888C61.354 108.047 61.298 108.224 61.298 108.42C61.298 108.607 61.3284 108.768 61.389 108.903C61.4497 109.038 61.5314 109.15 61.634 109.239C61.7367 109.323 61.858 109.386 61.998 109.428C62.138 109.465 62.2897 109.484 62.453 109.484ZM67.5747 110.247V103.156H68.3167C68.4941 103.156 68.6061 103.242 68.6527 103.415L68.7507 104.185C69.0587 103.844 69.4017 103.569 69.7797 103.359C70.1624 103.149 70.6034 103.044 71.1027 103.044C71.4901 103.044 71.8307 103.109 72.1247 103.24C72.4234 103.366 72.6707 103.548 72.8667 103.786C73.0674 104.019 73.2191 104.302 73.3217 104.633C73.4244 104.964 73.4757 105.331 73.4757 105.732V110.247H72.2297V105.732C72.2297 105.195 72.1061 104.78 71.8587 104.486C71.6161 104.187 71.2427 104.038 70.7387 104.038C70.3701 104.038 70.0247 104.127 69.7027 104.304C69.3854 104.481 69.0914 104.722 68.8207 105.025V110.247H67.5747ZM76.649 99.9361V106.005H76.971C77.0644 106.005 77.1414 105.993 77.202 105.97C77.2627 105.942 77.3304 105.888 77.405 105.809L79.645 103.408C79.715 103.333 79.785 103.273 79.855 103.226C79.925 103.179 80.0184 103.156 80.135 103.156H81.269L78.658 105.935C78.5927 106.014 78.5274 106.084 78.462 106.145C78.4014 106.206 78.3314 106.259 78.252 106.306C78.336 106.362 78.4107 106.427 78.476 106.502C78.546 106.572 78.6114 106.654 78.672 106.747L81.444 110.247H80.324C80.2214 110.247 80.1327 110.228 80.058 110.191C79.988 110.149 79.9204 110.086 79.855 110.002L77.524 107.097C77.454 106.999 77.384 106.936 77.314 106.908C77.244 106.875 77.139 106.859 76.999 106.859H76.649V110.247H75.396V99.9361H76.649ZM89.0009 100.104C89.3695 100.104 89.7055 100.165 90.0089 100.286C90.3122 100.403 90.5735 100.559 90.7929 100.755C91.0169 100.951 91.1919 101.18 91.3179 101.441C91.4485 101.698 91.5232 101.966 91.5419 102.246L90.7649 102.4C90.7415 102.405 90.7205 102.407 90.7019 102.407C90.6412 102.407 90.5829 102.391 90.5269 102.358C90.4755 102.325 90.4382 102.267 90.4149 102.183C90.3822 102.062 90.3285 101.936 90.2539 101.805C90.1839 101.674 90.0905 101.555 89.9739 101.448C89.8619 101.341 89.7242 101.252 89.5609 101.182C89.4022 101.112 89.2155 101.077 89.0009 101.077C88.7675 101.077 88.5575 101.114 88.3709 101.189C88.1842 101.264 88.0232 101.369 87.8879 101.504C87.7572 101.635 87.6545 101.791 87.5799 101.973C87.5099 102.15 87.4749 102.344 87.4749 102.554C87.4749 102.717 87.4935 102.874 87.5309 103.023C87.5729 103.172 87.6335 103.324 87.7129 103.478C87.7922 103.627 87.8949 103.784 88.0209 103.947C88.1469 104.106 88.2985 104.274 88.4759 104.451L91.3599 107.384C91.5372 107.071 91.6772 106.745 91.7799 106.404C91.8872 106.059 91.9595 105.713 91.9969 105.368C92.0062 105.279 92.0342 105.209 92.0809 105.158C92.1275 105.107 92.1929 105.081 92.2769 105.081H93.0469C93.0375 105.618 92.9512 106.145 92.7879 106.663C92.6245 107.181 92.3889 107.666 92.0809 108.119L94.1809 110.247H92.9769C92.8415 110.247 92.7319 110.231 92.6479 110.198C92.5639 110.165 92.4705 110.098 92.3679 109.995L91.3599 108.98C90.9212 109.405 90.4149 109.741 89.8409 109.988C89.2715 110.235 88.6439 110.359 87.9579 110.359C87.5845 110.359 87.2182 110.296 86.8589 110.17C86.4995 110.044 86.1775 109.862 85.8929 109.624C85.6129 109.381 85.3865 109.087 85.2139 108.742C85.0412 108.397 84.9549 108.007 84.9549 107.573C84.9549 107.246 85.0085 106.938 85.1159 106.649C85.2279 106.355 85.3795 106.084 85.5709 105.837C85.7669 105.59 85.9979 105.368 86.2639 105.172C86.5299 104.976 86.8215 104.808 87.1389 104.668C86.8542 104.309 86.6442 103.959 86.5089 103.618C86.3735 103.277 86.3059 102.925 86.3059 102.561C86.3059 102.22 86.3665 101.901 86.4879 101.602C86.6139 101.303 86.7935 101.044 87.0269 100.825C87.2602 100.601 87.5425 100.426 87.8739 100.3C88.2099 100.169 88.5855 100.104 89.0009 100.104ZM86.2219 107.475C86.2219 107.778 86.2779 108.047 86.3899 108.28C86.5019 108.509 86.6489 108.702 86.8309 108.861C87.0129 109.02 87.2205 109.141 87.4539 109.225C87.6872 109.304 87.9252 109.344 88.1679 109.344C88.6905 109.344 89.1595 109.248 89.5749 109.057C89.9902 108.866 90.3565 108.611 90.6739 108.294L87.7129 105.305C87.2182 105.571 86.8449 105.891 86.5929 106.264C86.3455 106.633 86.2219 107.036 86.2219 107.475ZM97.0296 100.216H98.1566C98.278 100.216 98.3783 100.246 98.4576 100.307C98.537 100.368 98.5906 100.445 98.6186 100.538L100.691 107.51C100.728 107.636 100.761 107.771 100.789 107.916C100.821 108.061 100.852 108.212 100.88 108.371C100.912 108.212 100.945 108.061 100.978 107.916C101.01 107.767 101.048 107.631 101.09 107.51L103.449 100.538C103.477 100.459 103.53 100.386 103.61 100.321C103.694 100.251 103.794 100.216 103.911 100.216H104.303C104.424 100.216 104.522 100.246 104.597 100.307C104.676 100.368 104.732 100.445 104.765 100.538L107.11 107.51C107.194 107.753 107.268 108.03 107.334 108.343C107.362 108.189 107.387 108.042 107.411 107.902C107.434 107.762 107.464 107.631 107.502 107.51L109.581 100.538C109.604 100.454 109.655 100.379 109.735 100.314C109.819 100.249 109.919 100.216 110.036 100.216H111.093L107.964 110.247H106.746L104.205 102.596C104.153 102.451 104.107 102.283 104.065 102.092C104.041 102.185 104.018 102.276 103.995 102.365C103.976 102.449 103.955 102.526 103.932 102.596L101.377 110.247H100.159L97.0296 100.216ZM113.599 103.156V110.247H112.353V103.156H113.599ZM113.879 100.93C113.879 101.051 113.854 101.166 113.802 101.273C113.756 101.376 113.69 101.469 113.606 101.553C113.527 101.632 113.434 101.695 113.326 101.742C113.219 101.789 113.105 101.812 112.983 101.812C112.862 101.812 112.748 101.789 112.64 101.742C112.538 101.695 112.444 101.632 112.36 101.553C112.281 101.469 112.218 101.376 112.171 101.273C112.125 101.166 112.101 101.051 112.101 100.93C112.101 100.809 112.125 100.694 112.171 100.587C112.218 100.475 112.281 100.379 112.36 100.3C112.444 100.216 112.538 100.151 112.64 100.104C112.748 100.057 112.862 100.034 112.983 100.034C113.105 100.034 113.219 100.057 113.326 100.104C113.434 100.151 113.527 100.216 113.606 100.3C113.69 100.379 113.756 100.475 113.802 100.587C113.854 100.694 113.879 100.809 113.879 100.93ZM115.795 110.247V103.156H116.537C116.715 103.156 116.827 103.242 116.873 103.415L116.971 104.185C117.279 103.844 117.622 103.569 118 103.359C118.383 103.149 118.824 103.044 119.323 103.044C119.711 103.044 120.051 103.109 120.345 103.24C120.644 103.366 120.891 103.548 121.087 103.786C121.288 104.019 121.44 104.302 121.542 104.633C121.645 104.964 121.696 105.331 121.696 105.732V110.247H120.45V105.732C120.45 105.195 120.327 104.78 120.079 104.486C119.837 104.187 119.463 104.038 118.959 104.038C118.591 104.038 118.245 104.127 117.923 104.304C117.606 104.481 117.312 104.722 117.041 105.025V110.247H115.795Z" fill="black"/>
<defs>
<filter id="filter0_d_404_11778" x="0" y="0.248047" width="166" height="165.999" filterUnits="userSpaceOnUse" color-interpolation-filters="sRGB">
<feFlood flood-opacity="0" result="BackgroundImageFix"/>
<feColorMatrix in="SourceAlpha" type="matrix" values="0 0 0 0 0 0 0 0 0 0 0 0 0 0 0 0 0 0 127 0" result="hardAlpha"/>
<feOffset dy="4"/>
<feGaussianBlur stdDeviation="4"/>
<feComposite in2="hardAlpha" operator="out"/>
<feColorMatrix type="matrix" values="0 0 0 0 0 0 0 0 0 0 0 0 0 0 0 0 0 0 0.25 0"/>
<feBlend mode="normal" in2="BackgroundImageFix" result="effect1_dropShadow_404_11778"/>
<feBlend mode="normal" in="SourceGraphic" in2="effect1_dropShadow_404_11778" result="shape"/>
</filter>
</defs>
</svg>
