<svg width="166" height="167" viewBox="0 0 166 167" fill="none" xmlns="http://www.w3.org/2000/svg">
<g filter="url(#filter0_d_404_11795)">
<path d="M126 4.25342H40C22.3269 4.25342 8 18.5802 8 36.2531V122.252C8 139.925 22.3269 154.252 40 154.252H126C143.673 154.252 158 139.925 158 122.252V36.2531C158 18.5802 143.673 4.25342 126 4.25342Z" fill="#FFF4DF"/>
</g>
<rect x="63" y="44.2529" width="41" height="40.9996" rx="8" fill="#8CCDF0"/>
<path d="M74.8857 72.2523C74.6367 72.2587 74.389 72.2151 74.1578 72.1241C73.9267 72.0332 73.717 71.8969 73.5416 71.7237C73.3643 71.5518 73.2248 71.3462 73.1318 71.1195C73.0387 70.8928 72.9941 70.6498 73.0006 70.4055V58.0987C72.9941 57.8548 73.0387 57.6122 73.1315 57.3858C73.2243 57.1594 73.3634 56.954 73.5404 56.7822C73.7157 56.6089 73.9254 56.4726 74.1566 56.3817C74.3877 56.2908 74.6354 56.2472 74.8844 56.2535H92.1156C92.3646 56.2472 92.6123 56.2908 92.8435 56.3817C93.0746 56.4726 93.2843 56.6089 93.4597 56.7822C93.6366 56.954 93.7757 57.1594 93.8685 57.3858C93.9613 57.6122 94.0059 57.8548 93.9994 58.0987V70.4055C94.0059 70.6494 93.9613 70.892 93.8685 71.1184C93.7757 71.3449 93.6366 71.5502 93.4597 71.722C93.2843 71.8953 93.0746 72.0316 92.8434 72.1225C92.6123 72.2134 92.3646 72.257 92.1156 72.2507L74.8857 72.2523ZM74.8857 71.1095H87.0015V66.6704H74.1674V70.4063C74.1693 70.4977 74.1901 70.5877 74.2287 70.6709C74.2673 70.7541 74.3227 70.8287 74.3917 70.8902C74.4545 70.9577 74.5307 71.0119 74.6156 71.0496C74.7006 71.0873 74.7924 71.1077 74.8857 71.1095ZM88.1683 71.1095H92.1164C92.2097 71.1076 92.3016 71.0872 92.3865 71.0494C92.4714 71.0117 92.5476 70.9573 92.6104 70.8898C92.6794 70.8283 92.7348 70.7537 92.7734 70.6705C92.812 70.5873 92.8328 70.4973 92.8347 70.4059V61.088H88.1679L88.1683 71.1095ZM74.1679 65.5275H87.0019V61.088H74.1674L74.1679 65.5275Z" fill="black"/>
<path d="M48.867 109.112H53.207V110.253H47.509V100.222H48.867V109.112ZM59.7124 110.253H59.1594C59.0381 110.253 58.9401 110.234 58.8654 110.197C58.7908 110.16 58.7418 110.08 58.7184 109.959L58.5784 109.301C58.3918 109.469 58.2098 109.621 58.0324 109.756C57.8551 109.887 57.6684 109.999 57.4724 110.092C57.2764 110.181 57.0664 110.248 56.8424 110.295C56.6231 110.342 56.3781 110.365 56.1074 110.365C55.8321 110.365 55.5731 110.328 55.3304 110.253C55.0924 110.174 54.8848 110.057 54.7074 109.903C54.5301 109.749 54.3878 109.555 54.2804 109.322C54.1778 109.084 54.1264 108.804 54.1264 108.482C54.1264 108.202 54.2034 107.934 54.3574 107.677C54.5114 107.416 54.7588 107.185 55.0994 106.984C55.4448 106.783 55.8951 106.62 56.4504 106.494C57.0058 106.363 57.6848 106.289 58.4874 106.27V105.717C58.4874 105.166 58.3684 104.751 58.1304 104.471C57.8971 104.186 57.5494 104.044 57.0874 104.044C56.7841 104.044 56.5274 104.084 56.3174 104.163C56.1121 104.238 55.9324 104.324 55.7784 104.422C55.6291 104.515 55.4984 104.602 55.3864 104.681C55.2791 104.756 55.1718 104.793 55.0644 104.793C54.9804 104.793 54.9058 104.772 54.8404 104.73C54.7798 104.683 54.7308 104.627 54.6934 104.562L54.4694 104.163C54.8614 103.785 55.2838 103.503 55.7364 103.316C56.1891 103.129 56.6908 103.036 57.2414 103.036C57.6381 103.036 57.9904 103.101 58.2984 103.232C58.6064 103.363 58.8654 103.545 59.0754 103.778C59.2854 104.011 59.4441 104.294 59.5514 104.625C59.6588 104.956 59.7124 105.32 59.7124 105.717V110.253ZM56.4784 109.49C56.6978 109.49 56.8984 109.469 57.0804 109.427C57.2624 109.38 57.4328 109.317 57.5914 109.238C57.7548 109.154 57.9088 109.054 58.0534 108.937C58.2028 108.82 58.3474 108.687 58.4874 108.538V107.061C57.9134 107.08 57.4258 107.126 57.0244 107.201C56.6231 107.271 56.2964 107.364 56.0444 107.481C55.7924 107.598 55.6081 107.735 55.4914 107.894C55.3794 108.053 55.3234 108.23 55.3234 108.426C55.3234 108.613 55.3538 108.774 55.4144 108.909C55.4751 109.044 55.5568 109.156 55.6594 109.245C55.7621 109.329 55.8834 109.392 56.0234 109.434C56.1634 109.471 56.3151 109.49 56.4784 109.49ZM61.6001 110.253V103.162H62.3421C62.5195 103.162 62.6315 103.248 62.6781 103.421L62.7761 104.191C63.0841 103.85 63.4271 103.575 63.8051 103.365C64.1878 103.155 64.6288 103.05 65.1281 103.05C65.5155 103.05 65.8561 103.115 66.1501 103.246C66.4488 103.372 66.6961 103.554 66.8921 103.792C67.0928 104.025 67.2445 104.308 67.3471 104.639C67.4498 104.97 67.5011 105.337 67.5011 105.738V110.253H66.2551V105.738C66.2551 105.201 66.1315 104.786 65.8841 104.492C65.6415 104.193 65.2681 104.044 64.7641 104.044C64.3955 104.044 64.0501 104.133 63.7281 104.31C63.4108 104.487 63.1168 104.728 62.8461 105.031V110.253H61.6001ZM74.3704 110.253C74.1931 110.253 74.0811 110.167 74.0344 109.994L73.9224 109.133C73.6191 109.502 73.2714 109.798 72.8794 110.022C72.4921 110.241 72.0464 110.351 71.5424 110.351C71.1364 110.351 70.7678 110.274 70.4364 110.12C70.1051 109.961 69.8228 109.73 69.5894 109.427C69.3561 109.124 69.1764 108.746 69.0504 108.293C68.9244 107.84 68.8614 107.32 68.8614 106.732C68.8614 106.209 68.9314 105.724 69.0714 105.276C69.2114 104.823 69.4121 104.431 69.6734 104.1C69.9394 103.769 70.2614 103.51 70.6394 103.323C71.0174 103.132 71.4468 103.036 71.9274 103.036C72.3614 103.036 72.7324 103.111 73.0404 103.26C73.3484 103.405 73.6238 103.61 73.8664 103.876V99.9419H75.1124V110.253H74.3704ZM71.9554 109.343C72.3614 109.343 72.7161 109.25 73.0194 109.063C73.3274 108.876 73.6098 108.613 73.8664 108.272V104.842C73.6378 104.534 73.3858 104.319 73.1104 104.198C72.8398 104.072 72.5388 104.009 72.2074 104.009C71.5448 104.009 71.0361 104.245 70.6814 104.716C70.3268 105.187 70.1494 105.859 70.1494 106.732C70.1494 107.194 70.1891 107.591 70.2684 107.922C70.3478 108.249 70.4644 108.519 70.6184 108.734C70.7724 108.944 70.9614 109.098 71.1854 109.196C71.4094 109.294 71.6661 109.343 71.9554 109.343ZM78.5857 103.162V110.253H77.3397V103.162H78.5857ZM78.8657 100.936C78.8657 101.057 78.8401 101.172 78.7887 101.279C78.7421 101.382 78.6767 101.475 78.5927 101.559C78.5134 101.638 78.4201 101.701 78.3127 101.748C78.2054 101.795 78.0911 101.818 77.9697 101.818C77.8484 101.818 77.7341 101.795 77.6267 101.748C77.5241 101.701 77.4307 101.638 77.3467 101.559C77.2674 101.475 77.2044 101.382 77.1577 101.279C77.1111 101.172 77.0877 101.057 77.0877 100.936C77.0877 100.815 77.1111 100.7 77.1577 100.593C77.2044 100.481 77.2674 100.385 77.3467 100.306C77.4307 100.222 77.5241 100.157 77.6267 100.11C77.7341 100.063 77.8484 100.04 77.9697 100.04C78.0911 100.04 78.2054 100.063 78.3127 100.11C78.4201 100.157 78.5134 100.222 78.5927 100.306C78.6767 100.385 78.7421 100.481 78.7887 100.593C78.8401 100.7 78.8657 100.815 78.8657 100.936ZM80.7818 110.253V103.162H81.5238C81.7011 103.162 81.8131 103.248 81.8598 103.421L81.9578 104.191C82.2658 103.85 82.6088 103.575 82.9868 103.365C83.3694 103.155 83.8104 103.05 84.3098 103.05C84.6971 103.05 85.0378 103.115 85.3318 103.246C85.6304 103.372 85.8778 103.554 86.0738 103.792C86.2744 104.025 86.4261 104.308 86.5288 104.639C86.6314 104.97 86.6828 105.337 86.6828 105.738V110.253H85.4368V105.738C85.4368 105.201 85.3131 104.786 85.0658 104.492C84.8231 104.193 84.4498 104.044 83.9458 104.044C83.5771 104.044 83.2318 104.133 82.9098 104.31C82.5924 104.487 82.2984 104.728 82.0278 105.031V110.253H80.7818ZM90.9481 103.043C91.2561 103.043 91.5431 103.078 91.8091 103.148C92.0797 103.213 92.3247 103.311 92.5441 103.442H94.4691V103.904C94.4691 104.058 94.3711 104.156 94.1751 104.198L93.3701 104.31C93.5287 104.613 93.6081 104.952 93.6081 105.325C93.6081 105.67 93.5404 105.985 93.4051 106.27C93.2744 106.55 93.0901 106.79 92.8521 106.991C92.6187 107.192 92.3387 107.346 92.0121 107.453C91.6901 107.56 91.3354 107.614 90.9481 107.614C90.6167 107.614 90.3041 107.574 90.0101 107.495C89.8607 107.588 89.7464 107.689 89.6671 107.796C89.5924 107.903 89.5551 108.008 89.5551 108.111C89.5551 108.279 89.6227 108.407 89.7581 108.496C89.8934 108.58 90.0731 108.641 90.2971 108.678C90.5211 108.715 90.7754 108.739 91.0601 108.748C91.3447 108.757 91.6341 108.774 91.9281 108.797C92.2267 108.816 92.5184 108.851 92.8031 108.902C93.0877 108.953 93.3421 109.037 93.5661 109.154C93.7901 109.271 93.9697 109.432 94.1051 109.637C94.2404 109.842 94.3081 110.108 94.3081 110.435C94.3081 110.738 94.2311 111.032 94.0771 111.317C93.9277 111.602 93.7107 111.854 93.4261 112.073C93.1414 112.297 92.7937 112.474 92.3831 112.605C91.9724 112.74 91.5081 112.808 90.9901 112.808C90.4721 112.808 90.0171 112.757 89.6251 112.654C89.2377 112.551 88.9157 112.414 88.6591 112.241C88.4024 112.068 88.2087 111.868 88.0781 111.639C87.9521 111.415 87.8891 111.179 87.8891 110.932C87.8891 110.582 87.9987 110.286 88.2181 110.043C88.4421 109.796 88.7477 109.6 89.1351 109.455C88.9344 109.362 88.7734 109.238 88.6521 109.084C88.5354 108.925 88.4771 108.715 88.4771 108.454C88.4771 108.351 88.4957 108.246 88.5331 108.139C88.5704 108.027 88.6264 107.917 88.7011 107.81C88.7804 107.703 88.8761 107.6 88.9881 107.502C89.1001 107.404 89.2307 107.318 89.3801 107.243C89.0301 107.047 88.7547 106.788 88.5541 106.466C88.3581 106.139 88.2601 105.759 88.2601 105.325C88.2601 104.98 88.3254 104.667 88.4561 104.387C88.5914 104.102 88.7781 103.862 89.0161 103.666C89.2541 103.465 89.5364 103.311 89.8631 103.204C90.1944 103.097 90.5561 103.043 90.9481 103.043ZM93.1601 110.638C93.1601 110.461 93.1111 110.318 93.0131 110.211C92.9151 110.104 92.7821 110.022 92.6141 109.966C92.4461 109.905 92.2524 109.861 92.0331 109.833C91.8137 109.805 91.5827 109.786 91.3401 109.777C91.0974 109.763 90.8501 109.749 90.5981 109.735C90.3461 109.721 90.1057 109.695 89.8771 109.658C89.6111 109.784 89.3941 109.938 89.2261 110.12C89.0627 110.302 88.9811 110.519 88.9811 110.771C88.9811 110.93 89.0207 111.077 89.1001 111.212C89.1841 111.352 89.3101 111.471 89.4781 111.569C89.6461 111.672 89.8561 111.751 90.1081 111.807C90.3647 111.868 90.6657 111.898 91.0111 111.898C91.3471 111.898 91.6481 111.868 91.9141 111.807C92.1801 111.746 92.4041 111.66 92.5861 111.548C92.7727 111.436 92.9151 111.303 93.0131 111.149C93.1111 110.995 93.1601 110.825 93.1601 110.638ZM90.9481 106.788C91.2001 106.788 91.4217 106.753 91.6131 106.683C91.8091 106.613 91.9724 106.515 92.1031 106.389C92.2337 106.263 92.3317 106.114 92.3971 105.941C92.4624 105.764 92.4951 105.57 92.4951 105.36C92.4951 104.926 92.3621 104.581 92.0961 104.324C91.8347 104.067 91.4521 103.939 90.9481 103.939C90.4487 103.939 90.0661 104.067 89.8001 104.324C89.5387 104.581 89.4081 104.926 89.4081 105.36C89.4081 105.57 89.4407 105.764 89.5061 105.941C89.5761 106.114 89.6764 106.263 89.8071 106.389C89.9377 106.515 90.0987 106.613 90.2901 106.683C90.4814 106.753 90.7007 106.788 90.9481 106.788ZM98.4185 112.654V103.162H99.1605C99.3378 103.162 99.4498 103.248 99.4965 103.421L99.6015 104.261C99.9048 103.892 100.25 103.596 100.637 103.372C101.029 103.148 101.48 103.036 101.988 103.036C102.394 103.036 102.763 103.115 103.094 103.274C103.426 103.428 103.708 103.659 103.941 103.967C104.175 104.27 104.354 104.648 104.48 105.101C104.606 105.554 104.669 106.074 104.669 106.662C104.669 107.185 104.599 107.672 104.459 108.125C104.319 108.573 104.119 108.963 103.857 109.294C103.596 109.621 103.274 109.88 102.891 110.071C102.513 110.258 102.086 110.351 101.61 110.351C101.172 110.351 100.796 110.279 100.483 110.134C100.175 109.989 99.9025 109.784 99.6645 109.518V112.654H98.4185ZM101.575 104.044C101.169 104.044 100.812 104.137 100.504 104.324C100.201 104.511 99.9212 104.774 99.6645 105.115V108.545C99.8932 108.853 100.143 109.07 100.413 109.196C100.689 109.322 100.994 109.385 101.33 109.385C101.988 109.385 102.495 109.149 102.849 108.678C103.204 108.207 103.381 107.535 103.381 106.662C103.381 106.2 103.339 105.803 103.255 105.472C103.176 105.141 103.059 104.87 102.905 104.66C102.751 104.445 102.562 104.289 102.338 104.191C102.114 104.093 101.86 104.044 101.575 104.044ZM111.351 110.253H110.798C110.677 110.253 110.579 110.234 110.504 110.197C110.429 110.16 110.38 110.08 110.357 109.959L110.217 109.301C110.03 109.469 109.848 109.621 109.671 109.756C109.494 109.887 109.307 109.999 109.111 110.092C108.915 110.181 108.705 110.248 108.481 110.295C108.262 110.342 108.017 110.365 107.746 110.365C107.471 110.365 107.212 110.328 106.969 110.253C106.731 110.174 106.523 110.057 106.346 109.903C106.169 109.749 106.026 109.555 105.919 109.322C105.816 109.084 105.765 108.804 105.765 108.482C105.765 108.202 105.842 107.934 105.996 107.677C106.15 107.416 106.397 107.185 106.738 106.984C107.083 106.783 107.534 106.62 108.089 106.494C108.644 106.363 109.323 106.289 110.126 106.27V105.717C110.126 105.166 110.007 104.751 109.769 104.471C109.536 104.186 109.188 104.044 108.726 104.044C108.423 104.044 108.166 104.084 107.956 104.163C107.751 104.238 107.571 104.324 107.417 104.422C107.268 104.515 107.137 104.602 107.025 104.681C106.918 104.756 106.81 104.793 106.703 104.793C106.619 104.793 106.544 104.772 106.479 104.73C106.418 104.683 106.369 104.627 106.332 104.562L106.108 104.163C106.5 103.785 106.922 103.503 107.375 103.316C107.828 103.129 108.329 103.036 108.88 103.036C109.277 103.036 109.629 103.101 109.937 103.232C110.245 103.363 110.504 103.545 110.714 103.778C110.924 104.011 111.083 104.294 111.19 104.625C111.297 104.956 111.351 105.32 111.351 105.717V110.253ZM108.117 109.49C108.336 109.49 108.537 109.469 108.719 109.427C108.901 109.38 109.071 109.317 109.23 109.238C109.393 109.154 109.547 109.054 109.692 108.937C109.841 108.82 109.986 108.687 110.126 108.538V107.061C109.552 107.08 109.064 107.126 108.663 107.201C108.262 107.271 107.935 107.364 107.683 107.481C107.431 107.598 107.247 107.735 107.13 107.894C107.018 108.053 106.962 108.23 106.962 108.426C106.962 108.613 106.992 108.774 107.053 108.909C107.114 109.044 107.195 109.156 107.298 109.245C107.401 109.329 107.522 109.392 107.662 109.434C107.802 109.471 107.954 109.49 108.117 109.49ZM115.626 103.043C115.934 103.043 116.221 103.078 116.487 103.148C116.757 103.213 117.002 103.311 117.222 103.442H119.147V103.904C119.147 104.058 119.049 104.156 118.853 104.198L118.048 104.31C118.206 104.613 118.286 104.952 118.286 105.325C118.286 105.67 118.218 105.985 118.083 106.27C117.952 106.55 117.768 106.79 117.53 106.991C117.296 107.192 117.016 107.346 116.69 107.453C116.368 107.56 116.013 107.614 115.626 107.614C115.294 107.614 114.982 107.574 114.688 107.495C114.538 107.588 114.424 107.689 114.345 107.796C114.27 107.903 114.233 108.008 114.233 108.111C114.233 108.279 114.3 108.407 114.436 108.496C114.571 108.58 114.751 108.641 114.975 108.678C115.199 108.715 115.453 108.739 115.738 108.748C116.022 108.757 116.312 108.774 116.606 108.797C116.904 108.816 117.196 108.851 117.481 108.902C117.765 108.953 118.02 109.037 118.244 109.154C118.468 109.271 118.647 109.432 118.783 109.637C118.918 109.842 118.986 110.108 118.986 110.435C118.986 110.738 118.909 111.032 118.755 111.317C118.605 111.602 118.388 111.854 118.104 112.073C117.819 112.297 117.471 112.474 117.061 112.605C116.65 112.74 116.186 112.808 115.668 112.808C115.15 112.808 114.695 112.757 114.303 112.654C113.915 112.551 113.593 112.414 113.337 112.241C113.08 112.068 112.886 111.868 112.756 111.639C112.63 111.415 112.567 111.179 112.567 110.932C112.567 110.582 112.676 110.286 112.896 110.043C113.12 109.796 113.425 109.6 113.813 109.455C113.612 109.362 113.451 109.238 113.33 109.084C113.213 108.925 113.155 108.715 113.155 108.454C113.155 108.351 113.173 108.246 113.211 108.139C113.248 108.027 113.304 107.917 113.379 107.81C113.458 107.703 113.554 107.6 113.666 107.502C113.778 107.404 113.908 107.318 114.058 107.243C113.708 107.047 113.432 106.788 113.232 106.466C113.036 106.139 112.938 105.759 112.938 105.325C112.938 104.98 113.003 104.667 113.134 104.387C113.269 104.102 113.456 103.862 113.694 103.666C113.932 103.465 114.214 103.311 114.541 103.204C114.872 103.097 115.234 103.043 115.626 103.043ZM117.838 110.638C117.838 110.461 117.789 110.318 117.691 110.211C117.593 110.104 117.46 110.022 117.292 109.966C117.124 109.905 116.93 109.861 116.711 109.833C116.491 109.805 116.26 109.786 116.018 109.777C115.775 109.763 115.528 109.749 115.276 109.735C115.024 109.721 114.783 109.695 114.555 109.658C114.289 109.784 114.072 109.938 113.904 110.12C113.74 110.302 113.659 110.519 113.659 110.771C113.659 110.93 113.698 111.077 113.778 111.212C113.862 111.352 113.988 111.471 114.156 111.569C114.324 111.672 114.534 111.751 114.786 111.807C115.042 111.868 115.343 111.898 115.689 111.898C116.025 111.898 116.326 111.868 116.592 111.807C116.858 111.746 117.082 111.66 117.264 111.548C117.45 111.436 117.593 111.303 117.691 111.149C117.789 110.995 117.838 110.825 117.838 110.638ZM115.626 106.788C115.878 106.788 116.099 106.753 116.291 106.683C116.487 106.613 116.65 106.515 116.781 106.389C116.911 106.263 117.009 106.114 117.075 105.941C117.14 105.764 117.173 105.57 117.173 105.36C117.173 104.926 117.04 104.581 116.774 104.324C116.512 104.067 116.13 103.939 115.626 103.939C115.126 103.939 114.744 104.067 114.478 104.324C114.216 104.581 114.086 104.926 114.086 105.36C114.086 105.57 114.118 105.764 114.184 105.941C114.254 106.114 114.354 106.263 114.485 106.389C114.615 106.515 114.776 106.613 114.968 106.683C115.159 106.753 115.378 106.788 115.626 106.788ZM123.196 103.05C123.621 103.05 124.013 103.122 124.372 103.267C124.732 103.407 125.042 103.612 125.303 103.883C125.565 104.149 125.768 104.48 125.912 104.877C126.062 105.269 126.136 105.717 126.136 106.221C126.136 106.417 126.115 106.548 126.073 106.613C126.031 106.678 125.952 106.711 125.835 106.711H121.117C121.127 107.159 121.187 107.549 121.299 107.88C121.411 108.211 121.565 108.489 121.761 108.713C121.957 108.932 122.191 109.098 122.461 109.21C122.732 109.317 123.035 109.371 123.371 109.371C123.684 109.371 123.952 109.336 124.176 109.266C124.405 109.191 124.601 109.112 124.764 109.028C124.928 108.944 125.063 108.867 125.17 108.797C125.282 108.722 125.378 108.685 125.457 108.685C125.56 108.685 125.639 108.725 125.695 108.804L126.045 109.259C125.891 109.446 125.707 109.609 125.492 109.749C125.278 109.884 125.047 109.996 124.799 110.085C124.557 110.174 124.305 110.239 124.043 110.281C123.782 110.328 123.523 110.351 123.266 110.351C122.776 110.351 122.324 110.269 121.908 110.106C121.498 109.938 121.141 109.695 120.837 109.378C120.539 109.056 120.305 108.659 120.137 108.188C119.969 107.717 119.885 107.175 119.885 106.564C119.885 106.069 119.96 105.607 120.109 105.178C120.263 104.749 120.483 104.378 120.767 104.065C121.052 103.748 121.4 103.5 121.81 103.323C122.221 103.141 122.683 103.05 123.196 103.05ZM123.224 103.967C122.622 103.967 122.149 104.142 121.803 104.492C121.458 104.837 121.243 105.318 121.159 105.934H125.016C125.016 105.645 124.977 105.381 124.897 105.143C124.818 104.9 124.701 104.693 124.547 104.52C124.393 104.343 124.204 104.207 123.98 104.114C123.761 104.016 123.509 103.967 123.224 103.967ZM52.2392 127.05C52.6638 127.05 53.0558 127.122 53.4152 127.267C53.7745 127.407 54.0848 127.612 54.3462 127.883C54.6075 128.149 54.8105 128.48 54.9552 128.877C55.1045 129.269 55.1792 129.717 55.1792 130.221C55.1792 130.417 55.1582 130.548 55.1162 130.613C55.0742 130.678 54.9948 130.711 54.8782 130.711H50.1602C50.1695 131.159 50.2302 131.549 50.3422 131.88C50.4542 132.211 50.6082 132.489 50.8042 132.713C51.0002 132.932 51.2335 133.098 51.5042 133.21C51.7748 133.317 52.0782 133.371 52.4142 133.371C52.7268 133.371 52.9952 133.336 53.2192 133.266C53.4478 133.191 53.6438 133.112 53.8072 133.028C53.9705 132.944 54.1058 132.867 54.2132 132.797C54.3252 132.722 54.4208 132.685 54.5002 132.685C54.6028 132.685 54.6822 132.725 54.7382 132.804L55.0882 133.259C54.9342 133.446 54.7498 133.609 54.5352 133.749C54.3205 133.884 54.0895 133.996 53.8422 134.085C53.5995 134.174 53.3475 134.239 53.0862 134.281C52.8248 134.328 52.5658 134.351 52.3092 134.351C51.8192 134.351 51.3665 134.269 50.9512 134.106C50.5405 133.938 50.1835 133.695 49.8802 133.378C49.5815 133.056 49.3482 132.659 49.1802 132.188C49.0122 131.717 48.9282 131.175 48.9282 130.564C48.9282 130.069 49.0028 129.607 49.1522 129.178C49.3062 128.749 49.5255 128.378 49.8102 128.065C50.0948 127.748 50.4425 127.5 50.8532 127.323C51.2638 127.141 51.7258 127.05 52.2392 127.05ZM52.2672 127.967C51.6652 127.967 51.1915 128.142 50.8462 128.492C50.5008 128.837 50.2862 129.318 50.2022 129.934H54.0592C54.0592 129.645 54.0195 129.381 53.9402 129.143C53.8608 128.9 53.7442 128.693 53.5902 128.52C53.4362 128.343 53.2472 128.207 53.0232 128.114C52.8038 128.016 52.5518 127.967 52.2672 127.967ZM58.0091 130.62L55.6221 127.162H56.8191C56.9218 127.162 56.9965 127.178 57.0431 127.211C57.0898 127.244 57.1318 127.29 57.1691 127.351L58.9051 130.011C58.9471 129.88 59.0078 129.75 59.0871 129.619L60.6131 127.379C60.6598 127.314 60.7065 127.262 60.7531 127.225C60.7998 127.183 60.8581 127.162 60.9281 127.162H62.0761L59.6891 130.55L62.1741 134.253H60.9771C60.8745 134.253 60.7928 134.227 60.7321 134.176C60.6761 134.12 60.6295 134.059 60.5921 133.994L58.8071 131.215C58.7745 131.35 58.7255 131.472 58.6601 131.579L57.0081 133.994C56.9615 134.059 56.9101 134.12 56.8541 134.176C56.8028 134.227 56.7305 134.253 56.6371 134.253H55.5241L58.0091 130.62ZM63.4048 136.654V127.162H64.1468C64.3241 127.162 64.4361 127.248 64.4828 127.421L64.5878 128.261C64.8911 127.892 65.2365 127.596 65.6238 127.372C66.0158 127.148 66.4661 127.036 66.9748 127.036C67.3808 127.036 67.7495 127.115 68.0808 127.274C68.4121 127.428 68.6945 127.659 68.9278 127.967C69.1611 128.27 69.3408 128.648 69.4668 129.101C69.5928 129.554 69.6558 130.074 69.6558 130.662C69.6558 131.185 69.5858 131.672 69.4458 132.125C69.3058 132.573 69.1051 132.963 68.8438 133.294C68.5825 133.621 68.2605 133.88 67.8778 134.071C67.4998 134.258 67.0728 134.351 66.5968 134.351C66.1581 134.351 65.7825 134.279 65.4698 134.134C65.1618 133.989 64.8888 133.784 64.6508 133.518V136.654H63.4048ZM66.5618 128.044C66.1558 128.044 65.7988 128.137 65.4908 128.324C65.1875 128.511 64.9075 128.774 64.6508 129.115V132.545C64.8795 132.853 65.1291 133.07 65.3998 133.196C65.6751 133.322 65.9808 133.385 66.3168 133.385C66.9748 133.385 67.4811 133.149 67.8358 132.678C68.1905 132.207 68.3678 131.535 68.3678 130.662C68.3678 130.2 68.3258 129.803 68.2418 129.472C68.1625 129.141 68.0458 128.87 67.8918 128.66C67.7378 128.445 67.5488 128.289 67.3248 128.191C67.1008 128.093 66.8465 128.044 66.5618 128.044ZM73.9364 127.05C74.3611 127.05 74.7531 127.122 75.1124 127.267C75.4718 127.407 75.7821 127.612 76.0434 127.883C76.3048 128.149 76.5078 128.48 76.6524 128.877C76.8018 129.269 76.8764 129.717 76.8764 130.221C76.8764 130.417 76.8554 130.548 76.8134 130.613C76.7714 130.678 76.6921 130.711 76.5754 130.711H71.8574C71.8668 131.159 71.9274 131.549 72.0394 131.88C72.1514 132.211 72.3054 132.489 72.5014 132.713C72.6974 132.932 72.9308 133.098 73.2014 133.21C73.4721 133.317 73.7754 133.371 74.1114 133.371C74.4241 133.371 74.6924 133.336 74.9164 133.266C75.1451 133.191 75.3411 133.112 75.5044 133.028C75.6678 132.944 75.8031 132.867 75.9104 132.797C76.0224 132.722 76.1181 132.685 76.1974 132.685C76.3001 132.685 76.3794 132.725 76.4354 132.804L76.7854 133.259C76.6314 133.446 76.4471 133.609 76.2324 133.749C76.0178 133.884 75.7868 133.996 75.5394 134.085C75.2968 134.174 75.0448 134.239 74.7834 134.281C74.5221 134.328 74.2631 134.351 74.0064 134.351C73.5164 134.351 73.0638 134.269 72.6484 134.106C72.2378 133.938 71.8808 133.695 71.5774 133.378C71.2788 133.056 71.0454 132.659 70.8774 132.188C70.7094 131.717 70.6254 131.175 70.6254 130.564C70.6254 130.069 70.7001 129.607 70.8494 129.178C71.0034 128.749 71.2228 128.378 71.5074 128.065C71.7921 127.748 72.1398 127.5 72.5504 127.323C72.9611 127.141 73.4231 127.05 73.9364 127.05ZM73.9644 127.967C73.3624 127.967 72.8888 128.142 72.5434 128.492C72.1981 128.837 71.9834 129.318 71.8994 129.934H75.7564C75.7564 129.645 75.7168 129.381 75.6374 129.143C75.5581 128.9 75.4414 128.693 75.2874 128.52C75.1334 128.343 74.9444 128.207 74.7204 128.114C74.5011 128.016 74.2491 127.967 73.9644 127.967ZM78.4712 134.253V127.162H79.1852C79.3206 127.162 79.4139 127.188 79.4652 127.239C79.5166 127.29 79.5516 127.379 79.5702 127.505L79.6542 128.611C79.8969 128.116 80.1956 127.731 80.5502 127.456C80.9096 127.176 81.3296 127.036 81.8102 127.036C82.0062 127.036 82.1836 127.059 82.3422 127.106C82.5009 127.148 82.6479 127.209 82.7832 127.288L82.6222 128.219C82.5896 128.336 82.5172 128.394 82.4052 128.394C82.3399 128.394 82.2396 128.373 82.1042 128.331C81.9689 128.284 81.7799 128.261 81.5372 128.261C81.1032 128.261 80.7392 128.387 80.4452 128.639C80.1559 128.891 79.9132 129.257 79.7172 129.738V134.253H78.4712ZM85.5037 127.162V134.253H84.2577V127.162H85.5037ZM85.7837 124.936C85.7837 125.057 85.758 125.172 85.7067 125.279C85.66 125.382 85.5947 125.475 85.5107 125.559C85.4314 125.638 85.338 125.701 85.2307 125.748C85.1234 125.795 85.009 125.818 84.8877 125.818C84.7664 125.818 84.652 125.795 84.5447 125.748C84.442 125.701 84.3487 125.638 84.2647 125.559C84.1854 125.475 84.1224 125.382 84.0757 125.279C84.029 125.172 84.0057 125.057 84.0057 124.936C84.0057 124.815 84.029 124.7 84.0757 124.593C84.1224 124.481 84.1854 124.385 84.2647 124.306C84.3487 124.222 84.442 124.157 84.5447 124.11C84.652 124.063 84.7664 124.04 84.8877 124.04C85.009 124.04 85.1234 124.063 85.2307 124.11C85.338 124.157 85.4314 124.222 85.5107 124.306C85.5947 124.385 85.66 124.481 85.7067 124.593C85.758 124.7 85.7837 124.815 85.7837 124.936ZM87.6997 134.253V127.162H88.4417C88.6191 127.162 88.7311 127.248 88.7777 127.421L88.8687 128.149C89.1301 127.827 89.4217 127.563 89.7437 127.358C90.0704 127.153 90.4484 127.05 90.8777 127.05C91.3584 127.05 91.7457 127.183 92.0397 127.449C92.3384 127.715 92.5531 128.074 92.6837 128.527C92.7817 128.27 92.9101 128.049 93.0687 127.862C93.2321 127.675 93.4141 127.521 93.6147 127.4C93.8154 127.279 94.0277 127.19 94.2517 127.134C94.4804 127.078 94.7114 127.05 94.9447 127.05C95.3181 127.05 95.6494 127.111 95.9387 127.232C96.2327 127.349 96.4801 127.521 96.6807 127.75C96.8861 127.979 97.0424 128.261 97.1497 128.597C97.2571 128.928 97.3107 129.309 97.3107 129.738V134.253H96.0647V129.738C96.0647 129.183 95.9434 128.763 95.7007 128.478C95.4581 128.189 95.1057 128.044 94.6437 128.044C94.4384 128.044 94.2424 128.081 94.0557 128.156C93.8737 128.226 93.7127 128.331 93.5727 128.471C93.4327 128.611 93.3207 128.788 93.2367 129.003C93.1574 129.213 93.1177 129.458 93.1177 129.738V134.253H91.8717V129.738C91.8717 129.169 91.7574 128.744 91.5287 128.464C91.3001 128.184 90.9664 128.044 90.5277 128.044C90.2197 128.044 89.9327 128.128 89.6667 128.296C89.4054 128.459 89.1651 128.683 88.9457 128.968V134.253H87.6997ZM102.005 127.05C102.429 127.05 102.821 127.122 103.181 127.267C103.54 127.407 103.85 127.612 104.112 127.883C104.373 128.149 104.576 128.48 104.721 128.877C104.87 129.269 104.945 129.717 104.945 130.221C104.945 130.417 104.924 130.548 104.882 130.613C104.84 130.678 104.76 130.711 104.644 130.711H99.9258C99.9351 131.159 99.9958 131.549 100.108 131.88C100.22 132.211 100.374 132.489 100.57 132.713C100.766 132.932 100.999 133.098 101.27 133.21C101.54 133.317 101.844 133.371 102.18 133.371C102.492 133.371 102.761 133.336 102.985 133.266C103.213 133.191 103.409 133.112 103.573 133.028C103.736 132.944 103.871 132.867 103.979 132.797C104.091 132.722 104.186 132.685 104.266 132.685C104.368 132.685 104.448 132.725 104.504 132.804L104.854 133.259C104.7 133.446 104.515 133.609 104.301 133.749C104.086 133.884 103.855 133.996 103.608 134.085C103.365 134.174 103.113 134.239 102.852 134.281C102.59 134.328 102.331 134.351 102.075 134.351C101.585 134.351 101.132 134.269 100.717 134.106C100.306 133.938 99.9491 133.695 99.6458 133.378C99.3471 133.056 99.1138 132.659 98.9458 132.188C98.7778 131.717 98.6938 131.175 98.6938 130.564C98.6938 130.069 98.7684 129.607 98.9178 129.178C99.0718 128.749 99.2911 128.378 99.5758 128.065C99.8604 127.748 100.208 127.5 100.619 127.323C101.029 127.141 101.491 127.05 102.005 127.05ZM102.033 127.967C101.431 127.967 100.957 128.142 100.612 128.492C100.266 128.837 100.052 129.318 99.9678 129.934H103.825C103.825 129.645 103.785 129.381 103.706 129.143C103.626 128.9 103.51 128.693 103.356 128.52C103.202 128.343 103.013 128.207 102.789 128.114C102.569 128.016 102.317 127.967 102.033 127.967ZM106.54 134.253V127.162H107.282C107.459 127.162 107.571 127.248 107.618 127.421L107.716 128.191C108.024 127.85 108.367 127.575 108.745 127.365C109.127 127.155 109.568 127.05 110.068 127.05C110.455 127.05 110.796 127.115 111.09 127.246C111.388 127.372 111.636 127.554 111.832 127.792C112.032 128.025 112.184 128.308 112.287 128.639C112.389 128.97 112.441 129.337 112.441 129.738V134.253H111.195V129.738C111.195 129.201 111.071 128.786 110.824 128.492C110.581 128.193 110.208 128.044 109.704 128.044C109.335 128.044 108.99 128.133 108.668 128.31C108.35 128.487 108.056 128.728 107.786 129.031V134.253H106.54ZM116.468 134.365C115.908 134.365 115.476 134.209 115.173 133.896C114.874 133.583 114.725 133.133 114.725 132.545V128.205H113.871C113.796 128.205 113.733 128.184 113.682 128.142C113.631 128.095 113.605 128.025 113.605 127.932V127.435L114.767 127.288L115.054 125.097C115.063 125.027 115.094 124.971 115.145 124.929C115.196 124.882 115.262 124.859 115.341 124.859H115.971V127.302H118.001V128.205H115.971V132.461C115.971 132.76 116.043 132.981 116.188 133.126C116.333 133.271 116.519 133.343 116.748 133.343C116.879 133.343 116.991 133.327 117.084 133.294C117.182 133.257 117.266 133.217 117.336 133.175C117.406 133.133 117.464 133.096 117.511 133.063C117.562 133.026 117.607 133.007 117.644 133.007C117.709 133.007 117.768 133.047 117.819 133.126L118.183 133.721C117.968 133.922 117.709 134.08 117.406 134.197C117.103 134.309 116.79 134.365 116.468 134.365ZM123.602 128.331C123.546 128.434 123.459 128.485 123.343 128.485C123.273 128.485 123.193 128.459 123.105 128.408C123.016 128.357 122.906 128.301 122.776 128.24C122.65 128.175 122.498 128.116 122.321 128.065C122.143 128.009 121.933 127.981 121.691 127.981C121.481 127.981 121.292 128.009 121.124 128.065C120.956 128.116 120.811 128.189 120.69 128.282C120.573 128.375 120.482 128.485 120.417 128.611C120.356 128.732 120.326 128.865 120.326 129.01C120.326 129.192 120.377 129.344 120.48 129.465C120.587 129.586 120.727 129.691 120.9 129.78C121.072 129.869 121.268 129.948 121.488 130.018C121.707 130.083 121.931 130.156 122.16 130.235C122.393 130.31 122.619 130.394 122.839 130.487C123.058 130.58 123.254 130.697 123.427 130.837C123.599 130.977 123.737 131.15 123.84 131.355C123.947 131.556 124.001 131.798 124.001 132.083C124.001 132.41 123.942 132.713 123.826 132.993C123.709 133.268 123.536 133.509 123.308 133.714C123.079 133.915 122.799 134.073 122.468 134.19C122.136 134.307 121.754 134.365 121.32 134.365C120.825 134.365 120.377 134.286 119.976 134.127C119.574 133.964 119.234 133.756 118.954 133.504L119.248 133.028C119.285 132.967 119.329 132.921 119.381 132.888C119.432 132.855 119.5 132.839 119.584 132.839C119.668 132.839 119.756 132.872 119.85 132.937C119.943 133.002 120.055 133.075 120.186 133.154C120.321 133.233 120.482 133.306 120.669 133.371C120.86 133.436 121.098 133.469 121.383 133.469C121.625 133.469 121.838 133.439 122.02 133.378C122.202 133.313 122.353 133.226 122.475 133.119C122.596 133.012 122.685 132.888 122.741 132.748C122.801 132.608 122.832 132.459 122.832 132.3C122.832 132.104 122.778 131.943 122.671 131.817C122.568 131.686 122.43 131.577 122.258 131.488C122.085 131.395 121.887 131.315 121.663 131.25C121.443 131.18 121.217 131.108 120.984 131.033C120.755 130.958 120.529 130.874 120.305 130.781C120.085 130.683 119.889 130.562 119.717 130.417C119.544 130.272 119.404 130.095 119.297 129.885C119.194 129.67 119.143 129.411 119.143 129.108C119.143 128.837 119.199 128.578 119.311 128.331C119.423 128.079 119.586 127.86 119.801 127.673C120.015 127.482 120.279 127.33 120.592 127.218C120.904 127.106 121.261 127.05 121.663 127.05C122.129 127.05 122.547 127.125 122.916 127.274C123.289 127.419 123.611 127.619 123.882 127.876L123.602 128.331Z" fill="black"/>
<defs>
<filter id="filter0_d_404_11795" x="0" y="0.253418" width="166" height="165.999" filterUnits="userSpaceOnUse" color-interpolation-filters="sRGB">
<feFlood flood-opacity="0" result="BackgroundImageFix"/>
<feColorMatrix in="SourceAlpha" type="matrix" values="0 0 0 0 0 0 0 0 0 0 0 0 0 0 0 0 0 0 127 0" result="hardAlpha"/>
<feOffset dy="4"/>
<feGaussianBlur stdDeviation="4"/>
<feComposite in2="hardAlpha" operator="out"/>
<feColorMatrix type="matrix" values="0 0 0 0 0 0 0 0 0 0 0 0 0 0 0 0 0 0 0.25 0"/>
<feBlend mode="normal" in2="BackgroundImageFix" result="effect1_dropShadow_404_11795"/>
<feBlend mode="normal" in="SourceGraphic" in2="effect1_dropShadow_404_11795" result="shape"/>
</filter>
</defs>
</svg>
