<svg width="151" height="151" viewBox="0 0 151 151" fill="none" xmlns="http://www.w3.org/2000/svg">
<path d="M118.055 0.529297H32.0547C14.3816 0.529297 0.0546875 14.8561 0.0546875 32.529V118.528C0.0546875 136.201 14.3816 150.528 32.0547 150.528H118.055C135.728 150.528 150.055 136.201 150.055 118.528V32.529C150.055 14.8561 135.728 0.529297 118.055 0.529297Z" fill="#EDDEC2"/>
<rect x="55.0547" y="40.5293" width="41" height="40.9996" rx="8" fill="#238457"/>
<path d="M70.7565 66.5875H84.0587C84.1574 66.5856 84.2547 66.5635 84.3446 66.5227C84.4345 66.4819 84.5151 66.4232 84.5816 66.3502C84.6546 66.2838 84.7133 66.2031 84.754 66.1132C84.7948 66.0233 84.8169 65.9261 84.8188 65.8274V54.2359H69.9964V65.8274C69.9983 65.9261 70.0204 66.0233 70.0612 66.1132C70.1019 66.2031 70.1606 66.2838 70.2336 66.3502C70.3001 66.4232 70.3807 66.4819 70.4706 66.5227C70.5605 66.5635 70.6578 66.5856 70.7565 66.5875ZM70.7565 67.8227C70.4927 67.8298 70.2302 67.7828 69.9853 67.6846C69.7404 67.5863 69.5182 67.4389 69.3324 67.2515C69.145 67.0657 68.9976 66.8435 68.8993 66.5986C68.8011 66.3536 68.7541 66.0912 68.7612 65.8274V52.5253C68.7541 52.2615 68.8011 51.9991 68.8993 51.7541C68.9976 51.5092 69.145 51.287 69.3324 51.1012C69.5182 50.9138 69.7404 50.7664 69.9853 50.6681C70.2302 50.5699 70.4927 50.5229 70.7565 50.53H84.0587C84.3225 50.5229 84.585 50.5699 84.8299 50.6681C85.0748 50.7664 85.297 50.9138 85.4828 51.1012C85.6702 51.287 85.8176 51.5092 85.9159 51.7541C86.0141 51.9991 86.0611 52.2615 86.054 52.5253V65.8274C86.0611 66.0912 86.0141 66.3536 85.9159 66.5986C85.8176 66.8435 85.6702 67.0657 85.4828 67.2515C85.297 67.4389 85.0748 67.5863 84.8299 67.6846C84.585 67.7828 84.3225 67.8298 84.0587 67.8227H70.7565ZM67.0507 71.5286C66.7869 71.5357 66.5244 71.4887 66.2795 71.3905C66.0345 71.2922 65.8123 71.1449 65.6265 70.9574C65.4392 70.7717 65.2918 70.5495 65.1936 70.3047C65.0954 70.0598 65.0483 69.7974 65.0554 69.5337V54.9961H66.2905V69.5337C66.2925 69.6323 66.3146 69.7295 66.3554 69.8193C66.3962 69.9092 66.4548 69.9898 66.5278 70.0562C66.5943 70.1292 66.6749 70.1878 66.7648 70.2286C66.8547 70.2694 66.952 70.2915 67.0507 70.2934H81.588V71.5286H67.0507Z" fill="white"/>
<path d="M41.211 102.342V106.528H39.86V96.4973H42.695C43.3296 96.4973 43.878 96.5627 44.34 96.6933C44.802 96.8193 45.1823 97.0037 45.481 97.2463C45.7843 97.489 46.0083 97.783 46.153 98.1283C46.2976 98.469 46.37 98.8517 46.37 99.2763C46.37 99.631 46.314 99.9623 46.202 100.27C46.09 100.578 45.9266 100.856 45.712 101.103C45.502 101.346 45.243 101.554 44.935 101.726C44.6316 101.899 44.2863 102.03 43.899 102.118C44.067 102.216 44.2163 102.359 44.347 102.545L47.273 106.528H46.069C45.8216 106.528 45.6396 106.433 45.523 106.241L42.919 102.657C42.8396 102.545 42.7533 102.466 42.66 102.419C42.5666 102.368 42.4266 102.342 42.24 102.342H41.211ZM41.211 101.355H42.632C43.0286 101.355 43.3763 101.309 43.675 101.215C43.9783 101.117 44.2303 100.982 44.431 100.809C44.6363 100.632 44.7903 100.422 44.893 100.179C44.9956 99.9367 45.047 99.6683 45.047 99.3743C45.047 98.777 44.8486 98.3267 44.452 98.0233C44.06 97.72 43.4743 97.5683 42.695 97.5683H41.211V101.355ZM53.7417 106.528H53.1887C53.0674 106.528 52.9694 106.51 52.8947 106.472C52.8201 106.435 52.7711 106.356 52.7477 106.234L52.6077 105.576C52.4211 105.744 52.2391 105.896 52.0617 106.031C51.8844 106.162 51.6977 106.274 51.5017 106.367C51.3057 106.456 51.0957 106.524 50.8717 106.57C50.6524 106.617 50.4074 106.64 50.1367 106.64C49.8614 106.64 49.6024 106.603 49.3597 106.528C49.1217 106.449 48.9141 106.332 48.7367 106.178C48.5594 106.024 48.4171 105.831 48.3097 105.597C48.2071 105.359 48.1557 105.079 48.1557 104.757C48.1557 104.477 48.2327 104.209 48.3867 103.952C48.5407 103.691 48.7881 103.46 49.1287 103.259C49.4741 103.059 49.9244 102.895 50.4797 102.769C51.0351 102.639 51.7141 102.564 52.5167 102.545V101.992C52.5167 101.442 52.3977 101.026 52.1597 100.746C51.9264 100.462 51.5787 100.319 51.1167 100.319C50.8134 100.319 50.5567 100.359 50.3467 100.438C50.1414 100.513 49.9617 100.599 49.8077 100.697C49.6584 100.791 49.5277 100.877 49.4157 100.956C49.3084 101.031 49.2011 101.068 49.0937 101.068C49.0097 101.068 48.9351 101.047 48.8697 101.005C48.8091 100.959 48.7601 100.903 48.7227 100.837L48.4987 100.438C48.8907 100.06 49.3131 99.778 49.7657 99.5913C50.2184 99.4047 50.7201 99.3113 51.2707 99.3113C51.6674 99.3113 52.0197 99.3767 52.3277 99.5073C52.6357 99.638 52.8947 99.82 53.1047 100.053C53.3147 100.287 53.4734 100.569 53.5807 100.9C53.6881 101.232 53.7417 101.596 53.7417 101.992V106.528ZM50.5077 105.765C50.7271 105.765 50.9277 105.744 51.1097 105.702C51.2917 105.656 51.4621 105.593 51.6207 105.513C51.7841 105.429 51.9381 105.329 52.0827 105.212C52.2321 105.096 52.3767 104.963 52.5167 104.813V103.336C51.9427 103.355 51.4551 103.402 51.0537 103.476C50.6524 103.546 50.3257 103.64 50.0737 103.756C49.8217 103.873 49.6374 104.011 49.5207 104.169C49.4087 104.328 49.3527 104.505 49.3527 104.701C49.3527 104.888 49.3831 105.049 49.4437 105.184C49.5044 105.32 49.5861 105.432 49.6887 105.52C49.7914 105.604 49.9127 105.667 50.0527 105.709C50.1927 105.747 50.3444 105.765 50.5077 105.765ZM55.6294 106.528V99.4373H56.3714C56.5488 99.4373 56.6608 99.5237 56.7074 99.6963L56.8054 100.466C57.1134 100.126 57.4564 99.8503 57.8344 99.6403C58.2171 99.4303 58.6581 99.3253 59.1574 99.3253C59.5448 99.3253 59.8854 99.3907 60.1794 99.5213C60.4781 99.6473 60.7254 99.8293 60.9214 100.067C61.1221 100.301 61.2738 100.583 61.3764 100.914C61.4791 101.246 61.5304 101.612 61.5304 102.013V106.528H60.2844V102.013C60.2844 101.477 60.1608 101.061 59.9134 100.767C59.6708 100.469 59.2974 100.319 58.7934 100.319C58.4248 100.319 58.0794 100.408 57.7574 100.585C57.4401 100.763 57.1461 101.003 56.8754 101.306V106.528H55.6294ZM64.7037 96.2173V102.286H65.0257C65.1191 102.286 65.1961 102.275 65.2567 102.251C65.3174 102.223 65.3851 102.17 65.4597 102.09L67.6997 99.6893C67.7697 99.6147 67.8397 99.554 67.9097 99.5073C67.9797 99.4607 68.0731 99.4373 68.1897 99.4373H69.3237L66.7127 102.216C66.6474 102.296 66.5821 102.366 66.5167 102.426C66.4561 102.487 66.3861 102.541 66.3067 102.587C66.3907 102.643 66.4654 102.709 66.5307 102.783C66.6007 102.853 66.6661 102.935 66.7267 103.028L69.4987 106.528H68.3787C68.2761 106.528 68.1874 106.51 68.1127 106.472C68.0427 106.43 67.9751 106.367 67.9097 106.283L65.5787 103.378C65.5087 103.28 65.4387 103.217 65.3687 103.189C65.2987 103.157 65.1937 103.14 65.0537 103.14H64.7037V106.528H63.4507V96.2173H64.7037ZM77.0555 96.3853C77.4242 96.3853 77.7602 96.446 78.0635 96.5673C78.3669 96.684 78.6282 96.8403 78.8475 97.0363C79.0715 97.2323 79.2465 97.461 79.3725 97.7223C79.5032 97.979 79.5779 98.2473 79.5965 98.5273L78.8195 98.6813C78.7962 98.686 78.7752 98.6883 78.7565 98.6883C78.6959 98.6883 78.6375 98.672 78.5815 98.6393C78.5302 98.6067 78.4929 98.5483 78.4695 98.4643C78.4369 98.343 78.3832 98.217 78.3085 98.0863C78.2385 97.9557 78.1452 97.8367 78.0285 97.7293C77.9165 97.622 77.7789 97.5333 77.6155 97.4633C77.4569 97.3933 77.2702 97.3583 77.0555 97.3583C76.8222 97.3583 76.6122 97.3957 76.4255 97.4703C76.2389 97.545 76.0779 97.65 75.9425 97.7853C75.8119 97.916 75.7092 98.0723 75.6345 98.2543C75.5645 98.4317 75.5295 98.6253 75.5295 98.8353C75.5295 98.9987 75.5482 99.155 75.5855 99.3043C75.6275 99.4537 75.6882 99.6053 75.7675 99.7593C75.8469 99.9087 75.9495 100.065 76.0755 100.228C76.2015 100.387 76.3532 100.555 76.5305 100.732L79.4145 103.665C79.5919 103.353 79.7319 103.026 79.8345 102.685C79.9419 102.34 80.0142 101.995 80.0515 101.649C80.0609 101.561 80.0889 101.491 80.1355 101.439C80.1822 101.388 80.2475 101.362 80.3315 101.362H81.1015C81.0922 101.899 81.0059 102.426 80.8425 102.944C80.6792 103.462 80.4435 103.948 80.1355 104.4L82.2355 106.528H81.0315C80.8962 106.528 80.7865 106.512 80.7025 106.479C80.6185 106.447 80.5252 106.379 80.4225 106.276L79.4145 105.261C78.9759 105.686 78.4695 106.022 77.8955 106.269C77.3262 106.517 76.6985 106.64 76.0125 106.64C75.6392 106.64 75.2729 106.577 74.9135 106.451C74.5542 106.325 74.2322 106.143 73.9475 105.905C73.6675 105.663 73.4412 105.369 73.2685 105.023C73.0959 104.678 73.0095 104.288 73.0095 103.854C73.0095 103.528 73.0632 103.22 73.1705 102.93C73.2825 102.636 73.4342 102.366 73.6255 102.118C73.8215 101.871 74.0525 101.649 74.3185 101.453C74.5845 101.257 74.8762 101.089 75.1935 100.949C74.9089 100.59 74.6989 100.24 74.5635 99.8993C74.4282 99.5587 74.3605 99.2063 74.3605 98.8423C74.3605 98.5017 74.4212 98.182 74.5425 97.8833C74.6685 97.5847 74.8482 97.3257 75.0815 97.1063C75.3149 96.8823 75.5972 96.7073 75.9285 96.5813C76.2645 96.4507 76.6402 96.3853 77.0555 96.3853ZM74.2765 103.756C74.2765 104.06 74.3325 104.328 74.4445 104.561C74.5565 104.79 74.7035 104.984 74.8855 105.142C75.0675 105.301 75.2752 105.422 75.5085 105.506C75.7419 105.586 75.9799 105.625 76.2225 105.625C76.7452 105.625 77.2142 105.53 77.6295 105.338C78.0449 105.147 78.4112 104.893 78.7285 104.575L75.7675 101.586C75.2729 101.852 74.8995 102.172 74.6475 102.545C74.4002 102.914 74.2765 103.318 74.2765 103.756ZM85.0843 96.4973H86.2113C86.3327 96.4973 86.433 96.5277 86.5123 96.5883C86.5917 96.649 86.6453 96.726 86.6733 96.8193L88.7453 103.791C88.7827 103.917 88.8153 104.053 88.8433 104.197C88.876 104.342 88.9063 104.494 88.9343 104.652C88.967 104.494 88.9997 104.342 89.0323 104.197C89.065 104.048 89.1023 103.913 89.1443 103.791L91.5033 96.8193C91.5313 96.74 91.585 96.6677 91.6643 96.6023C91.7483 96.5323 91.8487 96.4973 91.9653 96.4973H92.3573C92.4787 96.4973 92.5767 96.5277 92.6513 96.5883C92.7307 96.649 92.7867 96.726 92.8193 96.8193L95.1643 103.791C95.2483 104.034 95.323 104.312 95.3883 104.624C95.4163 104.47 95.442 104.323 95.4653 104.183C95.4887 104.043 95.519 103.913 95.5563 103.791L97.6353 96.8193C97.6587 96.7353 97.71 96.6607 97.7893 96.5953C97.8733 96.53 97.9737 96.4973 98.0903 96.4973H99.1473L96.0183 106.528H94.8003L92.2593 98.8773C92.208 98.7327 92.1613 98.5647 92.1193 98.3733C92.096 98.4667 92.0727 98.5577 92.0493 98.6463C92.0307 98.7303 92.0097 98.8073 91.9863 98.8773L89.4313 106.528H88.2133L85.0843 96.4973ZM101.654 99.4373V106.528H100.408V99.4373H101.654ZM101.934 97.2113C101.934 97.3327 101.908 97.447 101.857 97.5543C101.81 97.657 101.745 97.7503 101.661 97.8343C101.582 97.9137 101.488 97.9767 101.381 98.0233C101.274 98.07 101.159 98.0933 101.038 98.0933C100.917 98.0933 100.802 98.07 100.695 98.0233C100.592 97.9767 100.499 97.9137 100.415 97.8343C100.336 97.7503 100.273 97.657 100.226 97.5543C100.179 97.447 100.156 97.3327 100.156 97.2113C100.156 97.09 100.179 96.9757 100.226 96.8683C100.273 96.7563 100.336 96.6607 100.415 96.5813C100.499 96.4973 100.592 96.432 100.695 96.3853C100.802 96.3387 100.917 96.3153 101.038 96.3153C101.159 96.3153 101.274 96.3387 101.381 96.3853C101.488 96.432 101.582 96.4973 101.661 96.5813C101.745 96.6607 101.81 96.7563 101.857 96.8683C101.908 96.9757 101.934 97.09 101.934 97.2113ZM103.85 106.528V99.4373H104.592C104.769 99.4373 104.881 99.5237 104.928 99.6963L105.026 100.466C105.334 100.126 105.677 99.8503 106.055 99.6403C106.438 99.4303 106.879 99.3253 107.378 99.3253C107.765 99.3253 108.106 99.3907 108.4 99.5213C108.699 99.6473 108.946 99.8293 109.142 100.067C109.343 100.301 109.494 100.583 109.597 100.914C109.7 101.246 109.751 101.612 109.751 102.013V106.528H108.505V102.013C108.505 101.477 108.381 101.061 108.134 100.767C107.891 100.469 107.518 100.319 107.014 100.319C106.645 100.319 106.3 100.408 105.978 100.585C105.661 100.763 105.367 101.003 105.096 101.306V106.528H103.85Z" fill="black"/>
</svg>
