<svg width="151" height="151" viewBox="0 0 151 151" fill="none" xmlns="http://www.w3.org/2000/svg">
<path d="M118.055 0.269531H32.0547C14.3816 0.269531 0.0546875 14.5963 0.0546875 32.2692V118.268C0.0546875 135.941 14.3816 150.268 32.0547 150.268H118.055C135.728 150.268 150.055 135.941 150.055 118.268V32.2692C150.055 14.5963 135.728 0.269531 118.055 0.269531Z" fill="#EDDEC2"/>
<rect x="55.0547" y="40.269" width="41" height="40.9996" rx="8" fill="#40DE9E"/>
<path d="M66.9379 69.2684C66.6889 69.2751 66.4412 69.2288 66.2101 69.1322C65.9789 69.0356 65.7692 68.8908 65.5939 68.7067C65.4165 68.5241 65.277 68.3056 65.184 68.0647C65.091 67.8239 65.0463 67.5657 65.0529 67.3062V54.2302C65.0464 53.971 65.0909 53.7133 65.1838 53.4727C65.2766 53.2321 65.4157 53.0139 65.5926 52.8314C65.768 52.6473 65.9777 52.5025 66.2088 52.4059C66.44 52.3093 66.6877 52.2629 66.9367 52.2697H84.1679C84.4169 52.2629 84.6645 52.3093 84.8957 52.4059C85.1268 52.5025 85.3365 52.6473 85.5119 52.8314C85.6888 53.0139 85.8279 53.2321 85.9207 53.4727C86.0136 53.7133 86.0581 53.971 86.0516 54.2302V67.3062C86.0581 67.5653 86.0136 67.8231 85.9207 68.0637C85.8279 68.3042 85.6888 68.5224 85.5119 68.705C85.3365 68.889 85.1268 69.0338 84.8957 69.1304C84.6645 69.227 84.4169 69.2734 84.1679 69.2667L66.9379 69.2684ZM75.5533 60.9089L66.2197 54.5571V67.3062C66.2164 67.4053 66.2327 67.5041 66.2674 67.5965C66.3021 67.6889 66.3547 67.7729 66.4217 67.8434C66.4895 67.9132 66.5702 67.9678 66.659 68.004C66.7477 68.0402 66.8426 68.057 66.9379 68.0536H84.1691C84.2644 68.057 84.3593 68.0402 84.4481 68.004C84.5368 67.9678 84.6176 67.9132 84.6853 67.8434C84.7524 67.7729 84.8049 67.6889 84.8396 67.5965C84.8744 67.5041 84.8906 67.4053 84.8873 67.3062V54.5567L75.5533 60.9089ZM75.5533 59.5539L84.5278 53.4827H66.5788L75.5533 59.5539ZM66.2197 54.5567V67.3062C66.2164 67.4053 66.2327 67.5041 66.2674 67.5965C66.3021 67.6889 66.3547 67.7729 66.4217 67.8434C66.4895 67.9132 66.5702 67.9678 66.659 68.004C66.7477 68.0402 66.8426 68.057 66.9379 68.0536H66.2197V54.5567Z" fill="black"/>
<path d="M25.564 96.2376V97.3436H20.748V100.676H24.647V101.74H20.748V105.163H25.564V106.269H19.383V96.2376H25.564ZM27.3218 106.269V99.1776H28.0638C28.2411 99.1776 28.3531 99.2639 28.3998 99.4366L28.4908 100.165C28.7521 99.8426 29.0438 99.5789 29.3658 99.3736C29.6925 99.1682 30.0705 99.0656 30.4998 99.0656C30.9805 99.0656 31.3678 99.1986 31.6618 99.4646C31.9605 99.7306 32.1751 100.09 32.3058 100.543C32.4038 100.286 32.5321 100.064 32.6908 99.8776C32.8541 99.6909 33.0361 99.5369 33.2368 99.4156C33.4375 99.2942 33.6498 99.2056 33.8738 99.1496C34.1025 99.0936 34.3335 99.0656 34.5668 99.0656C34.9401 99.0656 35.2715 99.1262 35.5608 99.2476C35.8548 99.3642 36.1021 99.5369 36.3028 99.7656C36.5081 99.9942 36.6645 100.277 36.7718 100.613C36.8791 100.944 36.9328 101.324 36.9328 101.754V106.269H35.6868V101.754C35.6868 101.198 35.5655 100.778 35.3228 100.494C35.0801 100.204 34.7278 100.06 34.2658 100.06C34.0605 100.06 33.8645 100.097 33.6778 100.172C33.4958 100.242 33.3348 100.347 33.1948 100.487C33.0548 100.627 32.9428 100.804 32.8588 101.019C32.7795 101.229 32.7398 101.474 32.7398 101.754V106.269H31.4938V101.754C31.4938 101.184 31.3795 100.76 31.1508 100.48C30.9221 100.2 30.5885 100.06 30.1498 100.06C29.8418 100.06 29.5548 100.144 29.2888 100.312C29.0275 100.475 28.7871 100.699 28.5678 100.984V106.269H27.3218ZM44.0279 106.269H43.4749C43.3535 106.269 43.2555 106.25 43.1809 106.213C43.1062 106.175 43.0572 106.096 43.0339 105.975L42.8939 105.317C42.7072 105.485 42.5252 105.636 42.3479 105.772C42.1705 105.902 41.9839 106.014 41.7879 106.108C41.5919 106.196 41.3819 106.264 41.1579 106.311C40.9385 106.357 40.6935 106.381 40.4229 106.381C40.1475 106.381 39.8885 106.343 39.6459 106.269C39.4079 106.189 39.2002 106.073 39.0229 105.919C38.8455 105.765 38.7032 105.571 38.5959 105.338C38.4932 105.1 38.4419 104.82 38.4419 104.498C38.4419 104.218 38.5189 103.949 38.6729 103.693C38.8269 103.431 39.0742 103.2 39.4149 103C39.7602 102.799 40.2105 102.636 40.7659 102.51C41.3212 102.379 42.0002 102.304 42.8029 102.286V101.733C42.8029 101.182 42.6839 100.767 42.4459 100.487C42.2125 100.202 41.8649 100.06 41.4029 100.06C41.0995 100.06 40.8429 100.099 40.6329 100.179C40.4275 100.253 40.2479 100.34 40.0939 100.438C39.9445 100.531 39.8139 100.617 39.7019 100.697C39.5945 100.771 39.4872 100.809 39.3799 100.809C39.2959 100.809 39.2212 100.788 39.1559 100.746C39.0952 100.699 39.0462 100.643 39.0089 100.578L38.7849 100.179C39.1769 99.8006 39.5992 99.5182 40.0519 99.3316C40.5045 99.1449 41.0062 99.0516 41.5569 99.0516C41.9535 99.0516 42.3059 99.1169 42.6139 99.2476C42.9219 99.3782 43.1809 99.5602 43.3909 99.7936C43.6009 100.027 43.7595 100.309 43.8669 100.641C43.9742 100.972 44.0279 101.336 44.0279 101.733V106.269ZM40.7939 105.506C41.0132 105.506 41.2139 105.485 41.3959 105.443C41.5779 105.396 41.7482 105.333 41.9069 105.254C42.0702 105.17 42.2242 105.069 42.3689 104.953C42.5182 104.836 42.6629 104.703 42.8029 104.554V103.077C42.2289 103.095 41.7412 103.142 41.3399 103.217C40.9385 103.287 40.6119 103.38 40.3599 103.497C40.1079 103.613 39.9235 103.751 39.8069 103.91C39.6949 104.068 39.6389 104.246 39.6389 104.442C39.6389 104.628 39.6692 104.789 39.7299 104.925C39.7905 105.06 39.8722 105.172 39.9749 105.261C40.0775 105.345 40.1989 105.408 40.3389 105.45C40.4789 105.487 40.6305 105.506 40.7939 105.506ZM47.3016 99.1776V106.269H46.0556V99.1776H47.3016ZM47.5816 96.9516C47.5816 97.0729 47.5559 97.1872 47.5046 97.2946C47.4579 97.3972 47.3926 97.4906 47.3086 97.5746C47.2292 97.6539 47.1359 97.7169 47.0286 97.7636C46.9212 97.8102 46.8069 97.8336 46.6856 97.8336C46.5642 97.8336 46.4499 97.8102 46.3426 97.7636C46.2399 97.7169 46.1466 97.6539 46.0626 97.5746C45.9832 97.4906 45.9202 97.3972 45.8736 97.2946C45.8269 97.1872 45.8036 97.0729 45.8036 96.9516C45.8036 96.8302 45.8269 96.7159 45.8736 96.6086C45.9202 96.4966 45.9832 96.4009 46.0626 96.3216C46.1466 96.2376 46.2399 96.1722 46.3426 96.1256C46.4499 96.0789 46.5642 96.0556 46.6856 96.0556C46.8069 96.0556 46.9212 96.0789 47.0286 96.1256C47.1359 96.1722 47.2292 96.2376 47.3086 96.3216C47.3926 96.4009 47.4579 96.4966 47.5046 96.6086C47.5559 96.7159 47.5816 96.8302 47.5816 96.9516ZM50.8836 95.9576V106.269H49.6376V95.9576H50.8836ZM58.5936 99.0656C59.0183 99.0656 59.4103 99.1379 59.7696 99.2826C60.129 99.4226 60.4393 99.6279 60.7006 99.8986C60.962 100.165 61.165 100.496 61.3096 100.893C61.459 101.285 61.5336 101.733 61.5336 102.237C61.5336 102.433 61.5126 102.563 61.4706 102.629C61.4286 102.694 61.3493 102.727 61.2326 102.727H56.5146C56.524 103.175 56.5846 103.564 56.6966 103.896C56.8086 104.227 56.9626 104.505 57.1586 104.729C57.3546 104.948 57.588 105.114 57.8586 105.226C58.1293 105.333 58.4326 105.387 58.7686 105.387C59.0813 105.387 59.3496 105.352 59.5736 105.282C59.8023 105.207 59.9983 105.128 60.1616 105.044C60.325 104.96 60.4603 104.883 60.5676 104.813C60.6796 104.738 60.7753 104.701 60.8546 104.701C60.9573 104.701 61.0366 104.74 61.0926 104.82L61.4426 105.275C61.2886 105.461 61.1043 105.625 60.8896 105.765C60.675 105.9 60.444 106.012 60.1966 106.101C59.954 106.189 59.702 106.255 59.4406 106.297C59.1793 106.343 58.9203 106.367 58.6636 106.367C58.1736 106.367 57.721 106.285 57.3056 106.122C56.895 105.954 56.538 105.711 56.2346 105.394C55.936 105.072 55.7026 104.675 55.5346 104.204C55.3666 103.732 55.2826 103.191 55.2826 102.58C55.2826 102.085 55.3573 101.623 55.5066 101.194C55.6606 100.764 55.88 100.393 56.1646 100.081C56.4493 99.7632 56.797 99.5159 57.2076 99.3386C57.6183 99.1566 58.0803 99.0656 58.5936 99.0656ZM58.6216 99.9826C58.0196 99.9826 57.546 100.158 57.2006 100.508C56.8553 100.853 56.6406 101.334 56.5566 101.95H60.4136C60.4136 101.66 60.374 101.397 60.2946 101.159C60.2153 100.916 60.0986 100.708 59.9446 100.536C59.7906 100.358 59.6016 100.223 59.3776 100.13C59.1583 100.032 58.9063 99.9826 58.6216 99.9826ZM64.3636 102.636L61.9766 99.1776H63.1736C63.2763 99.1776 63.351 99.1939 63.3976 99.2266C63.4443 99.2592 63.4863 99.3059 63.5236 99.3666L65.2596 102.027C65.3016 101.896 65.3623 101.765 65.4416 101.635L66.9676 99.3946C67.0143 99.3292 67.061 99.2779 67.1076 99.2406C67.1543 99.1986 67.2126 99.1776 67.2826 99.1776H68.4306L66.0436 102.566L68.5286 106.269H67.3316C67.229 106.269 67.1473 106.243 67.0866 106.192C67.0306 106.136 66.984 106.075 66.9466 106.01L65.1616 103.231C65.129 103.366 65.08 103.487 65.0146 103.595L63.3626 106.01C63.316 106.075 63.2646 106.136 63.2086 106.192C63.1573 106.243 63.085 106.269 62.9916 106.269H61.8786L64.3636 102.636ZM69.7593 108.67V99.1776H70.5013C70.6786 99.1776 70.7906 99.2639 70.8373 99.4366L70.9423 100.277C71.2456 99.9079 71.591 99.6116 71.9783 99.3876C72.3703 99.1636 72.8206 99.0516 73.3293 99.0516C73.7353 99.0516 74.104 99.1309 74.4353 99.2896C74.7666 99.4436 75.049 99.6746 75.2823 99.9826C75.5156 100.286 75.6953 100.664 75.8213 101.117C75.9473 101.569 76.0103 102.09 76.0103 102.678C76.0103 103.2 75.9403 103.688 75.8003 104.141C75.6603 104.589 75.4596 104.978 75.1983 105.31C74.937 105.636 74.615 105.895 74.2323 106.087C73.8543 106.273 73.4273 106.367 72.9513 106.367C72.5126 106.367 72.137 106.294 71.8243 106.15C71.5163 106.005 71.2433 105.8 71.0053 105.534V108.67H69.7593ZM72.9163 100.06C72.5103 100.06 72.1533 100.153 71.8453 100.34C71.542 100.526 71.262 100.79 71.0053 101.131V104.561C71.234 104.869 71.4836 105.086 71.7543 105.212C72.0296 105.338 72.3353 105.401 72.6713 105.401C73.3293 105.401 73.8356 105.165 74.1903 104.694C74.545 104.222 74.7223 103.55 74.7223 102.678C74.7223 102.216 74.6803 101.819 74.5963 101.488C74.517 101.156 74.4003 100.886 74.2463 100.676C74.0923 100.461 73.9033 100.305 73.6793 100.207C73.4553 100.109 73.201 100.06 72.9163 100.06ZM80.2909 99.0656C80.7156 99.0656 81.1076 99.1379 81.4669 99.2826C81.8262 99.4226 82.1366 99.6279 82.3979 99.8986C82.6592 100.165 82.8622 100.496 83.0069 100.893C83.1562 101.285 83.2309 101.733 83.2309 102.237C83.2309 102.433 83.2099 102.563 83.1679 102.629C83.1259 102.694 83.0466 102.727 82.9299 102.727H78.2119C78.2212 103.175 78.2819 103.564 78.3939 103.896C78.5059 104.227 78.6599 104.505 78.8559 104.729C79.0519 104.948 79.2852 105.114 79.5559 105.226C79.8266 105.333 80.1299 105.387 80.4659 105.387C80.7786 105.387 81.0469 105.352 81.2709 105.282C81.4996 105.207 81.6956 105.128 81.8589 105.044C82.0222 104.96 82.1576 104.883 82.2649 104.813C82.3769 104.738 82.4726 104.701 82.5519 104.701C82.6546 104.701 82.7339 104.74 82.7899 104.82L83.1399 105.275C82.9859 105.461 82.8016 105.625 82.5869 105.765C82.3722 105.9 82.1412 106.012 81.8939 106.101C81.6512 106.189 81.3992 106.255 81.1379 106.297C80.8766 106.343 80.6176 106.367 80.3609 106.367C79.8709 106.367 79.4182 106.285 79.0029 106.122C78.5922 105.954 78.2352 105.711 77.9319 105.394C77.6332 105.072 77.3999 104.675 77.2319 104.204C77.0639 103.732 76.9799 103.191 76.9799 102.58C76.9799 102.085 77.0546 101.623 77.2039 101.194C77.3579 100.764 77.5772 100.393 77.8619 100.081C78.1466 99.7632 78.4942 99.5159 78.9049 99.3386C79.3156 99.1566 79.7776 99.0656 80.2909 99.0656ZM80.3189 99.9826C79.7169 99.9826 79.2432 100.158 78.8979 100.508C78.5526 100.853 78.3379 101.334 78.2539 101.95H82.1109C82.1109 101.66 82.0712 101.397 81.9919 101.159C81.9126 100.916 81.7959 100.708 81.6419 100.536C81.4879 100.358 81.2989 100.223 81.0749 100.13C80.8556 100.032 80.6036 99.9826 80.3189 99.9826ZM84.8257 106.269V99.1776H85.5397C85.675 99.1776 85.7684 99.2032 85.8197 99.2546C85.871 99.3059 85.906 99.3946 85.9247 99.5206L86.0087 100.627C86.2514 100.132 86.55 99.7469 86.9047 99.4716C87.264 99.1916 87.684 99.0516 88.1647 99.0516C88.3607 99.0516 88.538 99.0749 88.6967 99.1216C88.8554 99.1636 89.0024 99.2242 89.1377 99.3036L88.9767 100.235C88.944 100.351 88.8717 100.41 88.7597 100.41C88.6944 100.41 88.594 100.389 88.4587 100.347C88.3234 100.3 88.1344 100.277 87.8917 100.277C87.4577 100.277 87.0937 100.403 86.7997 100.655C86.5104 100.907 86.2677 101.273 86.0717 101.754V106.269H84.8257ZM91.8582 99.1776V106.269H90.6122V99.1776H91.8582ZM92.1382 96.9516C92.1382 97.0729 92.1125 97.1872 92.0612 97.2946C92.0145 97.3972 91.9492 97.4906 91.8652 97.5746C91.7859 97.6539 91.6925 97.7169 91.5852 97.7636C91.4779 97.8102 91.3635 97.8336 91.2422 97.8336C91.1209 97.8336 91.0065 97.8102 90.8992 97.7636C90.7965 97.7169 90.7032 97.6539 90.6192 97.5746C90.5399 97.4906 90.4769 97.3972 90.4302 97.2946C90.3835 97.1872 90.3602 97.0729 90.3602 96.9516C90.3602 96.8302 90.3835 96.7159 90.4302 96.6086C90.4769 96.4966 90.5399 96.4009 90.6192 96.3216C90.7032 96.2376 90.7965 96.1722 90.8992 96.1256C91.0065 96.0789 91.1209 96.0556 91.2422 96.0556C91.3635 96.0556 91.4779 96.0789 91.5852 96.1256C91.6925 96.1722 91.7859 96.2376 91.8652 96.3216C91.9492 96.4009 92.0145 96.4966 92.0612 96.6086C92.1125 96.7159 92.1382 96.8302 92.1382 96.9516ZM94.0542 106.269V99.1776H94.7962C94.9736 99.1776 95.0856 99.2639 95.1322 99.4366L95.2232 100.165C95.4846 99.8426 95.7762 99.5789 96.0982 99.3736C96.4249 99.1682 96.8029 99.0656 97.2322 99.0656C97.7129 99.0656 98.1002 99.1986 98.3942 99.4646C98.6929 99.7306 98.9076 100.09 99.0382 100.543C99.1362 100.286 99.2646 100.064 99.4232 99.8776C99.5866 99.6909 99.7686 99.5369 99.9692 99.4156C100.17 99.2942 100.382 99.2056 100.606 99.1496C100.835 99.0936 101.066 99.0656 101.299 99.0656C101.673 99.0656 102.004 99.1262 102.293 99.2476C102.587 99.3642 102.835 99.5369 103.035 99.7656C103.241 99.9942 103.397 100.277 103.504 100.613C103.612 100.944 103.665 101.324 103.665 101.754V106.269H102.419V101.754C102.419 101.198 102.298 100.778 102.055 100.494C101.813 100.204 101.46 100.06 100.998 100.06C100.793 100.06 100.597 100.097 100.41 100.172C100.228 100.242 100.067 100.347 99.9272 100.487C99.7872 100.627 99.6752 100.804 99.5912 101.019C99.5119 101.229 99.4722 101.474 99.4722 101.754V106.269H98.2262V101.754C98.2262 101.184 98.1119 100.76 97.8832 100.48C97.6546 100.2 97.3209 100.06 96.8822 100.06C96.5742 100.06 96.2872 100.144 96.0212 100.312C95.7599 100.475 95.5196 100.699 95.3002 100.984V106.269H94.0542ZM108.359 99.0656C108.784 99.0656 109.176 99.1379 109.535 99.2826C109.895 99.4226 110.205 99.6279 110.466 99.8986C110.728 100.165 110.931 100.496 111.075 100.893C111.225 101.285 111.299 101.733 111.299 102.237C111.299 102.433 111.278 102.563 111.236 102.629C111.194 102.694 111.115 102.727 110.998 102.727H106.28C106.29 103.175 106.35 103.564 106.462 103.896C106.574 104.227 106.728 104.505 106.924 104.729C107.12 104.948 107.354 105.114 107.624 105.226C107.895 105.333 108.198 105.387 108.534 105.387C108.847 105.387 109.115 105.352 109.339 105.282C109.568 105.207 109.764 105.128 109.927 105.044C110.091 104.96 110.226 104.883 110.333 104.813C110.445 104.738 110.541 104.701 110.62 104.701C110.723 104.701 110.802 104.74 110.858 104.82L111.208 105.275C111.054 105.461 110.87 105.625 110.655 105.765C110.441 105.9 110.21 106.012 109.962 106.101C109.72 106.189 109.468 106.255 109.206 106.297C108.945 106.343 108.686 106.367 108.429 106.367C107.939 106.367 107.487 106.285 107.071 106.122C106.661 105.954 106.304 105.711 106 105.394C105.702 105.072 105.468 104.675 105.3 104.204C105.132 103.732 105.048 103.191 105.048 102.58C105.048 102.085 105.123 101.623 105.272 101.194C105.426 100.764 105.646 100.393 105.93 100.081C106.215 99.7632 106.563 99.5159 106.973 99.3386C107.384 99.1566 107.846 99.0656 108.359 99.0656ZM108.387 99.9826C107.785 99.9826 107.312 100.158 106.966 100.508C106.621 100.853 106.406 101.334 106.322 101.95H110.179C110.179 101.66 110.14 101.397 110.06 101.159C109.981 100.916 109.864 100.708 109.71 100.536C109.556 100.358 109.367 100.223 109.143 100.13C108.924 100.032 108.672 99.9826 108.387 99.9826ZM112.894 106.269V99.1776H113.636C113.813 99.1776 113.925 99.2639 113.972 99.4366L114.07 100.207C114.378 99.8659 114.721 99.5906 115.099 99.3806C115.482 99.1706 115.923 99.0656 116.422 99.0656C116.809 99.0656 117.15 99.1309 117.444 99.2616C117.743 99.3876 117.99 99.5696 118.186 99.8076C118.387 100.041 118.538 100.323 118.641 100.655C118.744 100.986 118.795 101.352 118.795 101.754V106.269H117.549V101.754C117.549 101.217 117.425 100.802 117.178 100.508C116.935 100.209 116.562 100.06 116.058 100.06C115.689 100.06 115.344 100.148 115.022 100.326C114.705 100.503 114.411 100.743 114.14 101.047V106.269H112.894ZM122.822 106.381C122.262 106.381 121.831 106.224 121.527 105.912C121.229 105.599 121.079 105.149 121.079 104.561V100.221H120.225C120.151 100.221 120.088 100.2 120.036 100.158C119.985 100.111 119.959 100.041 119.959 99.9476V99.4506L121.121 99.3036L121.408 97.1126C121.418 97.0426 121.448 96.9866 121.499 96.9446C121.551 96.8979 121.616 96.8746 121.695 96.8746H122.325V99.3176H124.355V100.221H122.325V104.477C122.325 104.775 122.398 104.997 122.542 105.142C122.687 105.286 122.874 105.359 123.102 105.359C123.233 105.359 123.345 105.342 123.438 105.31C123.536 105.272 123.62 105.233 123.69 105.191C123.76 105.149 123.819 105.111 123.865 105.079C123.917 105.041 123.961 105.023 123.998 105.023C124.064 105.023 124.122 105.062 124.173 105.142L124.537 105.737C124.323 105.937 124.064 106.096 123.76 106.213C123.457 106.325 123.144 106.381 122.822 106.381ZM129.956 100.347C129.9 100.449 129.814 100.501 129.697 100.501C129.627 100.501 129.548 100.475 129.459 100.424C129.37 100.372 129.261 100.316 129.13 100.256C129.004 100.19 128.852 100.132 128.675 100.081C128.498 100.025 128.288 99.9966 128.045 99.9966C127.835 99.9966 127.646 100.025 127.478 100.081C127.31 100.132 127.165 100.204 127.044 100.298C126.927 100.391 126.836 100.501 126.771 100.627C126.71 100.748 126.68 100.881 126.68 101.026C126.68 101.208 126.731 101.359 126.834 101.481C126.941 101.602 127.081 101.707 127.254 101.796C127.427 101.884 127.623 101.964 127.842 102.034C128.061 102.099 128.285 102.171 128.514 102.251C128.747 102.325 128.974 102.409 129.193 102.503C129.412 102.596 129.608 102.713 129.781 102.853C129.954 102.993 130.091 103.165 130.194 103.371C130.301 103.571 130.355 103.814 130.355 104.099C130.355 104.425 130.297 104.729 130.18 105.009C130.063 105.284 129.891 105.524 129.662 105.73C129.433 105.93 129.153 106.089 128.822 106.206C128.491 106.322 128.108 106.381 127.674 106.381C127.179 106.381 126.731 106.301 126.33 106.143C125.929 105.979 125.588 105.772 125.308 105.52L125.602 105.044C125.639 104.983 125.684 104.936 125.735 104.904C125.786 104.871 125.854 104.855 125.938 104.855C126.022 104.855 126.111 104.887 126.204 104.953C126.297 105.018 126.409 105.09 126.54 105.17C126.675 105.249 126.836 105.321 127.023 105.387C127.214 105.452 127.452 105.485 127.737 105.485C127.98 105.485 128.192 105.454 128.374 105.394C128.556 105.328 128.708 105.242 128.829 105.135C128.95 105.027 129.039 104.904 129.095 104.764C129.156 104.624 129.186 104.474 129.186 104.316C129.186 104.12 129.132 103.959 129.025 103.833C128.922 103.702 128.785 103.592 128.612 103.504C128.439 103.41 128.241 103.331 128.017 103.266C127.798 103.196 127.571 103.123 127.338 103.049C127.109 102.974 126.883 102.89 126.659 102.797C126.44 102.699 126.244 102.577 126.071 102.433C125.898 102.288 125.758 102.111 125.651 101.901C125.548 101.686 125.497 101.427 125.497 101.124C125.497 100.853 125.553 100.594 125.665 100.347C125.777 100.095 125.94 99.8752 126.155 99.6886C126.37 99.4972 126.633 99.3456 126.946 99.2336C127.259 99.1216 127.616 99.0656 128.017 99.0656C128.484 99.0656 128.901 99.1402 129.27 99.2896C129.643 99.4342 129.965 99.6349 130.236 99.8916L129.956 100.347Z" fill="black"/>
</svg>
