<svg width="151" height="151" viewBox="0 0 151 151" fill="none" xmlns="http://www.w3.org/2000/svg">
<path d="M118.055 0.599609H32.0547C14.3816 0.599609 0.0546875 14.9264 0.0546875 32.5993V118.599C0.0546875 136.271 14.3816 150.598 32.0547 150.598H118.055C135.728 150.598 150.055 136.271 150.055 118.599V32.5993C150.055 14.9264 135.728 0.599609 118.055 0.599609Z" fill="#EDDEC2"/>
<rect x="55.0547" y="40.5996" width="41" height="40.9996" rx="8" fill="#F0C15B"/>
<path d="M68.6404 66.5977C67.9044 66.6115 67.1733 66.4767 66.4922 66.2017C65.8111 65.9266 65.1945 65.517 64.6804 64.9982C64.1533 64.492 63.7372 63.8848 63.4578 63.2141C63.1784 62.5434 63.0415 61.8234 63.0557 61.0986C63.0417 60.3739 63.1787 59.654 63.4581 58.9834C63.7375 58.3128 64.1535 57.7056 64.6804 57.1994C65.1944 56.6804 65.811 56.2708 66.4921 55.9956C67.1732 55.7205 67.9043 55.5857 68.6404 55.5996C69.2506 55.5978 69.8558 55.7081 70.4249 55.9248C70.9908 56.1395 71.5131 56.4523 71.9669 56.8484L74.0004 58.6131L72.7935 59.6645L70.8988 58.017C70.5872 57.7532 70.2324 57.5434 69.8495 57.3964C69.4645 57.2467 69.0543 57.1702 68.6404 57.1708C68.1154 57.1626 67.5943 57.2606 67.1092 57.4586C66.6242 57.6566 66.1855 57.9503 65.8203 58.3218C65.443 58.6817 65.1447 59.114 64.9437 59.5918C64.7426 60.0697 64.6431 60.583 64.6513 61.1002C64.6429 61.6171 64.7422 62.1303 64.9431 62.6079C65.144 63.0856 65.4422 63.5176 65.8193 63.8774C66.1849 64.2485 66.6238 64.5419 67.109 64.7395C67.5942 64.9371 68.1154 65.0348 68.6404 65.0265C69.0545 65.0273 69.465 64.9508 69.8502 64.8012C70.233 64.6542 70.5878 64.4443 70.8995 64.1806L79.1428 56.8484C79.5898 56.4456 80.1108 56.1304 80.6778 55.9198C81.25 55.7063 81.8571 55.5977 82.469 55.5996C83.205 55.5858 83.9361 55.7206 84.6172 55.9956C85.2983 56.2707 85.9149 56.6803 86.429 57.199C86.9561 57.7053 87.3721 58.3124 87.6516 58.9831C87.931 59.6538 88.0678 60.3738 88.0537 61.0986C88.0677 61.8234 87.9308 62.5433 87.6513 63.2139C87.3719 63.8845 86.9559 64.4917 86.429 64.9979C85.915 65.5168 85.2984 65.9265 84.6173 66.2017C83.9362 66.4768 83.2051 66.6116 82.469 66.5977C81.8595 66.5999 81.2551 66.4877 80.6883 66.2671C80.1247 66.048 79.6023 65.7377 79.1428 65.3489L77.1291 63.5842L78.3156 62.5227L80.2102 64.1806C80.5185 64.4504 80.8741 64.6627 81.2595 64.8072C81.6456 64.9532 82.0557 65.0278 82.4693 65.0271C82.9944 65.0353 83.5155 64.9374 84.0006 64.7395C84.4857 64.5416 84.9245 64.2479 85.2898 63.8764C85.6668 63.5164 85.965 63.0841 86.1658 62.6063C86.3667 62.1284 86.4661 61.6151 86.4577 61.098C86.4662 60.5811 86.3668 60.0679 86.166 59.5903C85.9651 59.1126 85.6669 58.6806 85.2898 58.3208C84.9244 57.9497 84.4857 57.6563 84.0007 57.4585C83.5158 57.2607 82.9948 57.1628 82.47 57.1708C82.0559 57.17 81.6454 57.2464 81.2602 57.3961C80.8773 57.5431 80.5225 57.7529 80.2109 58.0167L71.9666 65.3489C71.5195 65.7517 70.9986 66.0668 70.4316 66.2775C69.8594 66.491 69.2523 66.5995 68.6404 66.5977Z" fill="white"/>
<path d="M25.2525 98.1356C25.2105 98.2056 25.1662 98.2593 25.1195 98.2966C25.0728 98.3293 25.0122 98.3456 24.9375 98.3456C24.8582 98.3456 24.7648 98.306 24.6575 98.2266C24.5548 98.1473 24.4218 98.061 24.2585 97.9676C24.0998 97.8696 23.9062 97.781 23.6775 97.7016C23.4535 97.6223 23.1805 97.5826 22.8585 97.5826C22.5552 97.5826 22.2868 97.6246 22.0535 97.7086C21.8202 97.788 21.6242 97.8976 21.4655 98.0376C21.3115 98.1776 21.1948 98.3433 21.1155 98.5346C21.0362 98.7213 20.9965 98.9243 20.9965 99.1436C20.9965 99.4236 21.0642 99.657 21.1995 99.8436C21.3395 100.026 21.5215 100.182 21.7455 100.313C21.9742 100.443 22.2308 100.558 22.5155 100.656C22.8048 100.749 23.0988 100.847 23.3975 100.95C23.7008 101.052 23.9948 101.169 24.2795 101.3C24.5688 101.426 24.8255 101.587 25.0495 101.783C25.2782 101.979 25.4602 102.219 25.5955 102.504C25.7355 102.788 25.8055 103.138 25.8055 103.554C25.8055 103.992 25.7308 104.405 25.5815 104.793C25.4322 105.175 25.2128 105.509 24.9235 105.794C24.6388 106.078 24.2865 106.302 23.8665 106.466C23.4512 106.629 22.9775 106.711 22.4455 106.711C21.7968 106.711 21.2042 106.594 20.6675 106.361C20.1355 106.123 19.6805 105.803 19.3025 105.402L19.6945 104.758C19.7318 104.706 19.7762 104.664 19.8275 104.632C19.8835 104.594 19.9442 104.576 20.0095 104.576C20.1075 104.576 20.2195 104.629 20.3455 104.737C20.4715 104.839 20.6278 104.954 20.8145 105.08C21.0058 105.206 21.2345 105.322 21.5005 105.43C21.7712 105.532 22.1002 105.584 22.4875 105.584C22.8095 105.584 23.0965 105.539 23.3485 105.451C23.6005 105.362 23.8128 105.238 23.9855 105.08C24.1628 104.916 24.2982 104.723 24.3915 104.499C24.4848 104.275 24.5315 104.025 24.5315 103.75C24.5315 103.446 24.4615 103.199 24.3215 103.008C24.1862 102.812 24.0065 102.648 23.7825 102.518C23.5585 102.387 23.3018 102.277 23.0125 102.189C22.7278 102.095 22.4338 102.002 22.1305 101.909C21.8318 101.811 21.5378 101.699 21.2485 101.573C20.9638 101.447 20.7095 101.283 20.4855 101.083C20.2615 100.882 20.0795 100.632 19.9395 100.334C19.8042 100.03 19.7365 99.657 19.7365 99.2136C19.7365 98.859 19.8042 98.516 19.9395 98.1846C20.0795 97.8533 20.2802 97.5593 20.5415 97.3026C20.8028 97.046 21.1248 96.8406 21.5075 96.6866C21.8948 96.5326 22.3382 96.4556 22.8375 96.4556C23.3975 96.4556 23.9085 96.5443 24.3705 96.7216C24.8325 96.899 25.2362 97.1556 25.5815 97.4916L25.2525 98.1356ZM27.3423 106.599V99.5076H28.0843C28.2616 99.5076 28.3736 99.594 28.4203 99.7666L28.5113 100.495C28.7726 100.173 29.0643 99.909 29.3863 99.7036C29.713 99.4983 30.091 99.3956 30.5203 99.3956C31.001 99.3956 31.3883 99.5286 31.6823 99.7946C31.981 100.061 32.1956 100.42 32.3263 100.873C32.4243 100.616 32.5526 100.394 32.7113 100.208C32.8746 100.021 33.0566 99.867 33.2573 99.7456C33.458 99.6243 33.6703 99.5356 33.8943 99.4796C34.123 99.4236 34.354 99.3956 34.5873 99.3956C34.9606 99.3956 35.292 99.4563 35.5813 99.5776C35.8753 99.6943 36.1226 99.867 36.3233 100.096C36.5286 100.324 36.685 100.607 36.7923 100.943C36.8996 101.274 36.9533 101.654 36.9533 102.084V106.599H35.7073V102.084C35.7073 101.528 35.586 101.108 35.3433 100.824C35.1006 100.534 34.7483 100.39 34.2863 100.39C34.081 100.39 33.885 100.427 33.6983 100.502C33.5163 100.572 33.3553 100.677 33.2153 100.817C33.0753 100.957 32.9633 101.134 32.8793 101.349C32.8 101.559 32.7603 101.804 32.7603 102.084V106.599H31.5143V102.084C31.5143 101.514 31.4 101.09 31.1713 100.81C30.9426 100.53 30.609 100.39 30.1703 100.39C29.8623 100.39 29.5753 100.474 29.3093 100.642C29.048 100.805 28.8076 101.029 28.5883 101.314V106.599H27.3423ZM44.0484 106.599H43.4954C43.374 106.599 43.276 106.58 43.2014 106.543C43.1267 106.505 43.0777 106.426 43.0544 106.305L42.9144 105.647C42.7277 105.815 42.5457 105.966 42.3684 106.102C42.191 106.232 42.0044 106.344 41.8084 106.438C41.6124 106.526 41.4024 106.594 41.1784 106.641C40.959 106.687 40.714 106.711 40.4434 106.711C40.168 106.711 39.909 106.673 39.6664 106.599C39.4284 106.519 39.2207 106.403 39.0434 106.249C38.866 106.095 38.7237 105.901 38.6164 105.668C38.5137 105.43 38.4624 105.15 38.4624 104.828C38.4624 104.548 38.5394 104.279 38.6934 104.023C38.8474 103.761 39.0947 103.53 39.4354 103.33C39.7807 103.129 40.231 102.966 40.7864 102.84C41.3417 102.709 42.0207 102.634 42.8234 102.616V102.063C42.8234 101.512 42.7044 101.097 42.4664 100.817C42.233 100.532 41.8854 100.39 41.4234 100.39C41.12 100.39 40.8634 100.429 40.6534 100.509C40.448 100.583 40.2684 100.67 40.1144 100.768C39.965 100.861 39.8344 100.947 39.7224 101.027C39.615 101.101 39.5077 101.139 39.4004 101.139C39.3164 101.139 39.2417 101.118 39.1764 101.076C39.1157 101.029 39.0667 100.973 39.0294 100.908L38.8054 100.509C39.1974 100.131 39.6197 99.8483 40.0724 99.6616C40.525 99.475 41.0267 99.3816 41.5774 99.3816C41.974 99.3816 42.3264 99.447 42.6344 99.5776C42.9424 99.7083 43.2014 99.8903 43.4114 100.124C43.6214 100.357 43.78 100.639 43.8874 100.971C43.9947 101.302 44.0484 101.666 44.0484 102.063V106.599ZM40.8144 105.836C41.0337 105.836 41.2344 105.815 41.4164 105.773C41.5984 105.726 41.7687 105.663 41.9274 105.584C42.0907 105.5 42.2447 105.399 42.3894 105.283C42.5387 105.166 42.6834 105.033 42.8234 104.884V103.407C42.2494 103.425 41.7617 103.472 41.3604 103.547C40.959 103.617 40.6324 103.71 40.3804 103.827C40.1284 103.943 39.944 104.081 39.8274 104.24C39.7154 104.398 39.6594 104.576 39.6594 104.772C39.6594 104.958 39.6897 105.119 39.7504 105.255C39.811 105.39 39.8927 105.502 39.9954 105.591C40.098 105.675 40.2194 105.738 40.3594 105.78C40.4994 105.817 40.651 105.836 40.8144 105.836ZM45.9361 106.599V99.5076H46.6501C46.7854 99.5076 46.8787 99.5333 46.9301 99.5846C46.9814 99.636 47.0164 99.7246 47.0351 99.8506L47.1191 100.957C47.3617 100.462 47.6604 100.077 48.0151 99.8016C48.3744 99.5216 48.7944 99.3816 49.2751 99.3816C49.4711 99.3816 49.6484 99.405 49.8071 99.4516C49.9657 99.4936 50.1127 99.5543 50.2481 99.6336L50.0871 100.565C50.0544 100.681 49.9821 100.74 49.8701 100.74C49.8047 100.74 49.7044 100.719 49.5691 100.677C49.4337 100.63 49.2447 100.607 49.0021 100.607C48.5681 100.607 48.2041 100.733 47.9101 100.985C47.6207 101.237 47.3781 101.603 47.1821 102.084V106.599H45.9361ZM53.7315 106.711C53.1715 106.711 52.7399 106.554 52.4365 106.242C52.1379 105.929 51.9885 105.479 51.9885 104.891V100.551H51.1345C51.0599 100.551 50.9969 100.53 50.9455 100.488C50.8942 100.441 50.8685 100.371 50.8685 100.278V99.7806L52.0305 99.6336L52.3175 97.4426C52.3269 97.3726 52.3572 97.3166 52.4085 97.2746C52.4599 97.228 52.5252 97.2046 52.6045 97.2046H53.2345V99.6476H55.2645V100.551H53.2345V104.807C53.2345 105.105 53.3069 105.327 53.4515 105.472C53.5962 105.616 53.7829 105.689 54.0115 105.689C54.1422 105.689 54.2542 105.672 54.3475 105.64C54.4455 105.602 54.5295 105.563 54.5995 105.521C54.6695 105.479 54.7279 105.441 54.7745 105.409C54.8259 105.371 54.8702 105.353 54.9075 105.353C54.9729 105.353 55.0312 105.392 55.0825 105.472L55.4465 106.067C55.2319 106.267 54.9729 106.426 54.6695 106.543C54.3662 106.655 54.0535 106.711 53.7315 106.711ZM59.6122 99.3956C60.0369 99.3956 60.4289 99.468 60.7882 99.6126C61.1475 99.7526 61.4579 99.958 61.7192 100.229C61.9805 100.495 62.1835 100.826 62.3282 101.223C62.4775 101.615 62.5522 102.063 62.5522 102.567C62.5522 102.763 62.5312 102.893 62.4892 102.959C62.4472 103.024 62.3679 103.057 62.2512 103.057H57.5332C57.5425 103.505 57.6032 103.894 57.7152 104.226C57.8272 104.557 57.9812 104.835 58.1772 105.059C58.3732 105.278 58.6065 105.444 58.8772 105.556C59.1479 105.663 59.4512 105.717 59.7872 105.717C60.0999 105.717 60.3682 105.682 60.5922 105.612C60.8209 105.537 61.0169 105.458 61.1802 105.374C61.3435 105.29 61.4789 105.213 61.5862 105.143C61.6982 105.068 61.7939 105.031 61.8732 105.031C61.9759 105.031 62.0552 105.07 62.1112 105.15L62.4612 105.605C62.3072 105.791 62.1229 105.955 61.9082 106.095C61.6935 106.23 61.4625 106.342 61.2152 106.431C60.9725 106.519 60.7205 106.585 60.4592 106.627C60.1979 106.673 59.9389 106.697 59.6822 106.697C59.1922 106.697 58.7395 106.615 58.3242 106.452C57.9135 106.284 57.5565 106.041 57.2532 105.724C56.9545 105.402 56.7212 105.005 56.5532 104.534C56.3852 104.062 56.3012 103.521 56.3012 102.91C56.3012 102.415 56.3759 101.953 56.5252 101.524C56.6792 101.094 56.8985 100.723 57.1832 100.411C57.4679 100.093 57.8155 99.846 58.2262 99.6686C58.6369 99.4866 59.0989 99.3956 59.6122 99.3956ZM59.6402 100.313C59.0382 100.313 58.5645 100.488 58.2192 100.838C57.8739 101.183 57.6592 101.664 57.5752 102.28H61.4322C61.4322 101.99 61.3925 101.727 61.3132 101.489C61.2339 101.246 61.1172 101.038 60.9632 100.866C60.8092 100.688 60.6202 100.553 60.3962 100.46C60.1769 100.362 59.9249 100.313 59.6402 100.313ZM64.147 106.599V99.5076H64.861C64.9963 99.5076 65.0897 99.5333 65.141 99.5846C65.1923 99.636 65.2273 99.7246 65.246 99.8506L65.33 100.957C65.5727 100.462 65.8713 100.077 66.226 99.8016C66.5853 99.5216 67.0053 99.3816 67.486 99.3816C67.682 99.3816 67.8593 99.405 68.018 99.4516C68.1767 99.4936 68.3237 99.5543 68.459 99.6336L68.298 100.565C68.2653 100.681 68.193 100.74 68.081 100.74C68.0157 100.74 67.9153 100.719 67.78 100.677C67.6447 100.63 67.4557 100.607 67.213 100.607C66.779 100.607 66.415 100.733 66.121 100.985C65.8317 101.237 65.589 101.603 65.393 102.084V106.599H64.147ZM78.8775 96.5676V97.6736H74.0615V101.181H78.1775V102.287H74.0615V106.599H72.6965V96.5676H78.8775ZM82.745 99.3956C83.1697 99.3956 83.5617 99.468 83.921 99.6126C84.2803 99.7526 84.5907 99.958 84.852 100.229C85.1133 100.495 85.3163 100.826 85.461 101.223C85.6103 101.615 85.685 102.063 85.685 102.567C85.685 102.763 85.664 102.893 85.622 102.959C85.58 103.024 85.5007 103.057 85.384 103.057H80.666C80.6753 103.505 80.736 103.894 80.848 104.226C80.96 104.557 81.114 104.835 81.31 105.059C81.506 105.278 81.7393 105.444 82.01 105.556C82.2807 105.663 82.584 105.717 82.92 105.717C83.2327 105.717 83.501 105.682 83.725 105.612C83.9537 105.537 84.1497 105.458 84.313 105.374C84.4763 105.29 84.6117 105.213 84.719 105.143C84.831 105.068 84.9267 105.031 85.006 105.031C85.1087 105.031 85.188 105.07 85.244 105.15L85.594 105.605C85.44 105.791 85.2557 105.955 85.041 106.095C84.8263 106.23 84.5953 106.342 84.348 106.431C84.1053 106.519 83.8533 106.585 83.592 106.627C83.3307 106.673 83.0717 106.697 82.815 106.697C82.325 106.697 81.8723 106.615 81.457 106.452C81.0463 106.284 80.6893 106.041 80.386 105.724C80.0873 105.402 79.854 105.005 79.686 104.534C79.518 104.062 79.434 103.521 79.434 102.91C79.434 102.415 79.5087 101.953 79.658 101.524C79.812 101.094 80.0313 100.723 80.316 100.411C80.6007 100.093 80.9483 99.846 81.359 99.6686C81.7697 99.4866 82.2317 99.3956 82.745 99.3956ZM82.773 100.313C82.171 100.313 81.6973 100.488 81.352 100.838C81.0067 101.183 80.792 101.664 80.708 102.28H84.565C84.565 101.99 84.5253 101.727 84.446 101.489C84.3667 101.246 84.25 101.038 84.096 100.866C83.942 100.688 83.753 100.553 83.529 100.46C83.3097 100.362 83.0577 100.313 82.773 100.313ZM90.0868 99.3956C90.5115 99.3956 90.9035 99.468 91.2628 99.6126C91.6221 99.7526 91.9325 99.958 92.1938 100.229C92.4551 100.495 92.6581 100.826 92.8028 101.223C92.9521 101.615 93.0268 102.063 93.0268 102.567C93.0268 102.763 93.0058 102.893 92.9638 102.959C92.9218 103.024 92.8425 103.057 92.7258 103.057H88.0078C88.0171 103.505 88.0778 103.894 88.1898 104.226C88.3018 104.557 88.4558 104.835 88.6518 105.059C88.8478 105.278 89.0811 105.444 89.3518 105.556C89.6225 105.663 89.9258 105.717 90.2618 105.717C90.5745 105.717 90.8428 105.682 91.0668 105.612C91.2955 105.537 91.4915 105.458 91.6548 105.374C91.8181 105.29 91.9535 105.213 92.0608 105.143C92.1728 105.068 92.2685 105.031 92.3478 105.031C92.4505 105.031 92.5298 105.07 92.5858 105.15L92.9358 105.605C92.7818 105.791 92.5975 105.955 92.3828 106.095C92.1681 106.23 91.9371 106.342 91.6898 106.431C91.4471 106.519 91.1951 106.585 90.9338 106.627C90.6725 106.673 90.4135 106.697 90.1568 106.697C89.6668 106.697 89.2141 106.615 88.7988 106.452C88.3881 106.284 88.0311 106.041 87.7278 105.724C87.4291 105.402 87.1958 105.005 87.0278 104.534C86.8598 104.062 86.7758 103.521 86.7758 102.91C86.7758 102.415 86.8505 101.953 86.9998 101.524C87.1538 101.094 87.3731 100.723 87.6578 100.411C87.9425 100.093 88.2901 99.846 88.7008 99.6686C89.1115 99.4866 89.5735 99.3956 90.0868 99.3956ZM90.1148 100.313C89.5128 100.313 89.0391 100.488 88.6938 100.838C88.3485 101.183 88.1338 101.664 88.0498 102.28H91.9068C91.9068 101.99 91.8671 101.727 91.7878 101.489C91.7085 101.246 91.5918 101.038 91.4378 100.866C91.2838 100.688 91.0948 100.553 90.8708 100.46C90.6515 100.362 90.3995 100.313 90.1148 100.313ZM99.6126 106.599C99.4353 106.599 99.3233 106.512 99.2766 106.34L99.1646 105.479C98.8613 105.847 98.5136 106.144 98.1216 106.368C97.7343 106.587 97.2886 106.697 96.7846 106.697C96.3786 106.697 96.0099 106.62 95.6786 106.466C95.3473 106.307 95.0649 106.076 94.8316 105.773C94.5983 105.469 94.4186 105.091 94.2926 104.639C94.1666 104.186 94.1036 103.666 94.1036 103.078C94.1036 102.555 94.1736 102.07 94.3136 101.622C94.4536 101.169 94.6543 100.777 94.9156 100.446C95.1816 100.114 95.5036 99.8553 95.8816 99.6686C96.2596 99.4773 96.6889 99.3816 97.1696 99.3816C97.6036 99.3816 97.9746 99.4563 98.2826 99.6056C98.5906 99.7503 98.8659 99.9556 99.1086 100.222V96.2876H100.355V106.599H99.6126ZM97.1976 105.689C97.6036 105.689 97.9583 105.595 98.2616 105.409C98.5696 105.222 98.8519 104.958 99.1086 104.618V101.188C98.8799 100.88 98.6279 100.665 98.3526 100.544C98.0819 100.418 97.7809 100.355 97.4496 100.355C96.7869 100.355 96.2783 100.59 95.9236 101.062C95.5689 101.533 95.3916 102.205 95.3916 103.078C95.3916 103.54 95.4313 103.936 95.5106 104.268C95.5899 104.594 95.7066 104.865 95.8606 105.08C96.0146 105.29 96.2036 105.444 96.4276 105.542C96.6516 105.64 96.9083 105.689 97.1976 105.689ZM102.484 106.599V96.2876H103.737V100.53C104.031 100.189 104.367 99.916 104.745 99.7106C105.128 99.5006 105.564 99.3956 106.054 99.3956C106.465 99.3956 106.836 99.4726 107.167 99.6266C107.498 99.7806 107.781 100.012 108.014 100.32C108.247 100.623 108.427 101.001 108.553 101.454C108.679 101.902 108.742 102.42 108.742 103.008C108.742 103.53 108.672 104.018 108.532 104.471C108.392 104.919 108.189 105.308 107.923 105.64C107.662 105.966 107.34 106.225 106.957 106.417C106.579 106.603 106.152 106.697 105.676 106.697C105.219 106.697 104.829 106.608 104.507 106.431C104.19 106.253 103.912 106.006 103.674 105.689L103.611 106.333C103.574 106.51 103.466 106.599 103.289 106.599H102.484ZM105.648 100.39C105.242 100.39 104.885 100.483 104.577 100.67C104.274 100.856 103.994 101.12 103.737 101.461V104.891C103.961 105.199 104.208 105.416 104.479 105.542C104.754 105.668 105.06 105.731 105.396 105.731C106.059 105.731 106.567 105.495 106.922 105.024C107.277 104.552 107.454 103.88 107.454 103.008C107.454 102.546 107.412 102.149 107.328 101.818C107.249 101.486 107.132 101.216 106.978 101.006C106.824 100.791 106.635 100.635 106.411 100.537C106.187 100.439 105.933 100.39 105.648 100.39ZM115.47 106.599H114.917C114.796 106.599 114.698 106.58 114.623 106.543C114.549 106.505 114.5 106.426 114.476 106.305L114.336 105.647C114.15 105.815 113.968 105.966 113.79 106.102C113.613 106.232 113.426 106.344 113.23 106.438C113.034 106.526 112.824 106.594 112.6 106.641C112.381 106.687 112.136 106.711 111.865 106.711C111.59 106.711 111.331 106.673 111.088 106.599C110.85 106.519 110.643 106.403 110.465 106.249C110.288 106.095 110.146 105.901 110.038 105.668C109.936 105.43 109.884 105.15 109.884 104.828C109.884 104.548 109.961 104.279 110.115 104.023C110.269 103.761 110.517 103.53 110.857 103.33C111.203 103.129 111.653 102.966 112.208 102.84C112.764 102.709 113.443 102.634 114.245 102.616V102.063C114.245 101.512 114.126 101.097 113.888 100.817C113.655 100.532 113.307 100.39 112.845 100.39C112.542 100.39 112.285 100.429 112.075 100.509C111.87 100.583 111.69 100.67 111.536 100.768C111.387 100.861 111.256 100.947 111.144 101.027C111.037 101.101 110.93 101.139 110.822 101.139C110.738 101.139 110.664 101.118 110.598 101.076C110.538 101.029 110.489 100.973 110.451 100.908L110.227 100.509C110.619 100.131 111.042 99.8483 111.494 99.6616C111.947 99.475 112.449 99.3816 112.999 99.3816C113.396 99.3816 113.748 99.447 114.056 99.5776C114.364 99.7083 114.623 99.8903 114.833 100.124C115.043 100.357 115.202 100.639 115.309 100.971C115.417 101.302 115.47 101.666 115.47 102.063V106.599ZM112.236 105.836C112.456 105.836 112.656 105.815 112.838 105.773C113.02 105.726 113.191 105.663 113.349 105.584C113.513 105.5 113.667 105.399 113.811 105.283C113.961 105.166 114.105 105.033 114.245 104.884V103.407C113.671 103.425 113.184 103.472 112.782 103.547C112.381 103.617 112.054 103.71 111.802 103.827C111.55 103.943 111.366 104.081 111.249 104.24C111.137 104.398 111.081 104.576 111.081 104.772C111.081 104.958 111.112 105.119 111.172 105.255C111.233 105.39 111.315 105.502 111.417 105.591C111.52 105.675 111.641 105.738 111.781 105.78C111.921 105.817 112.073 105.836 112.236 105.836ZM122.195 100.768C122.158 100.819 122.12 100.859 122.083 100.887C122.046 100.915 121.992 100.929 121.922 100.929C121.852 100.929 121.775 100.901 121.691 100.845C121.612 100.784 121.509 100.719 121.383 100.649C121.257 100.579 121.103 100.516 120.921 100.46C120.744 100.399 120.524 100.369 120.263 100.369C119.918 100.369 119.612 100.432 119.346 100.558C119.08 100.679 118.856 100.856 118.674 101.09C118.497 101.323 118.361 101.605 118.268 101.937C118.179 102.268 118.135 102.639 118.135 103.05C118.135 103.479 118.184 103.862 118.282 104.198C118.38 104.529 118.518 104.809 118.695 105.038C118.872 105.262 119.087 105.434 119.339 105.556C119.596 105.672 119.883 105.731 120.2 105.731C120.503 105.731 120.753 105.696 120.949 105.626C121.145 105.551 121.308 105.469 121.439 105.381C121.57 105.292 121.677 105.213 121.761 105.143C121.845 105.068 121.929 105.031 122.013 105.031C122.12 105.031 122.2 105.07 122.251 105.15L122.601 105.605C122.293 105.983 121.908 106.26 121.446 106.438C120.984 106.61 120.496 106.697 119.983 106.697C119.54 106.697 119.127 106.615 118.744 106.452C118.366 106.288 118.037 106.053 117.757 105.745C117.477 105.432 117.255 105.049 117.092 104.597C116.933 104.144 116.854 103.628 116.854 103.05C116.854 102.522 116.926 102.035 117.071 101.587C117.22 101.139 117.435 100.754 117.715 100.432C118 100.105 118.35 99.8506 118.765 99.6686C119.18 99.4866 119.656 99.3956 120.193 99.3956C120.688 99.3956 121.126 99.4773 121.509 99.6406C121.892 99.7993 122.23 100.026 122.524 100.32L122.195 100.768ZM125.188 96.2876V102.357H125.51C125.603 102.357 125.68 102.345 125.741 102.322C125.802 102.294 125.869 102.24 125.944 102.161L128.184 99.7596C128.254 99.685 128.324 99.6243 128.394 99.5776C128.464 99.531 128.557 99.5076 128.674 99.5076H129.808L127.197 102.287C127.132 102.366 127.066 102.436 127.001 102.497C126.94 102.557 126.87 102.611 126.791 102.658C126.875 102.714 126.95 102.779 127.015 102.854C127.085 102.924 127.15 103.005 127.211 103.099L129.983 106.599H128.863C128.76 106.599 128.672 106.58 128.597 106.543C128.527 106.501 128.459 106.438 128.394 106.354L126.063 103.449C125.993 103.351 125.923 103.288 125.853 103.26C125.783 103.227 125.678 103.211 125.538 103.211H125.188V106.599H123.935V96.2876H125.188Z" fill="black"/>
</svg>
