<svg width="166" height="167" viewBox="0 0 166 167" fill="none" xmlns="http://www.w3.org/2000/svg">
<g filter="url(#filter0_d_404_11777)">
<path d="M126 4.24805H40C22.3269 4.24805 8 18.5748 8 36.2478V122.247C8 139.92 22.3269 154.247 40 154.247H126C143.673 154.247 158 139.92 158 122.247V36.2478C158 18.5748 143.673 4.24805 126 4.24805Z" fill="#FFF4DF"/>
</g>
<rect x="63" y="44.248" width="41" height="40.9996" rx="8" fill="#F05BE9"/>
<path d="M82.4374 75.2448V72.9553H76.716C76.4892 72.9611 76.2636 72.9219 76.0531 72.8403C75.8426 72.7587 75.6516 72.6363 75.4919 72.4808C75.3308 72.3265 75.2042 72.142 75.1197 71.9387C75.0352 71.7353 74.9946 71.5175 75.0006 71.2984V58.1944C74.9946 57.9753 75.0352 57.7575 75.1197 57.5541C75.2042 57.3508 75.3308 57.1663 75.4919 57.012C75.6516 56.8565 75.8426 56.7341 76.0531 56.6525C76.2636 56.5709 76.4892 56.5317 76.716 56.5375H82.4374V54.248H83.5V75.248L82.4374 75.2448ZM76.0621 70.9027H82.4374V63.5211L76.0621 70.9027ZM85.6251 72.9553V64.7448L90.9379 70.9027V58.1927C90.9362 58.1107 90.9173 58.0299 90.8822 57.9552C90.8471 57.8805 90.7967 57.8135 90.7339 57.7582C90.6767 57.6976 90.6073 57.6488 90.53 57.6149C90.4526 57.5811 90.3689 57.5628 90.284 57.5612H85.6258V56.5348H90.284C90.5108 56.5291 90.7364 56.5683 90.9469 56.6499C91.1574 56.7315 91.3484 56.8538 91.5081 57.0094C91.6692 57.1637 91.7958 57.3482 91.8803 57.5515C91.9648 57.7548 92.0054 57.9727 91.9994 58.1917V71.2958C92.0054 71.5148 91.9648 71.7327 91.8803 71.936C91.7958 72.1394 91.6692 72.3239 91.5081 72.4781C91.3484 72.6337 91.1574 72.7561 90.9469 72.8377C90.7364 72.9193 90.5108 72.9584 90.284 72.9527L85.6251 72.9553Z" fill="white"/>
<path d="M37.3503 106.621C37.4156 106.733 37.4716 106.852 37.5183 106.978C37.5696 107.099 37.6186 107.223 37.6653 107.349C37.7119 107.218 37.7609 107.095 37.8123 106.978C37.8636 106.857 37.9219 106.735 37.9873 106.614L41.3823 100.447C41.4429 100.34 41.5059 100.274 41.5713 100.251C41.6366 100.228 41.7299 100.216 41.8513 100.216H42.8523V110.247H41.6623V102.876C41.6623 102.778 41.6646 102.673 41.6693 102.561C41.6739 102.449 41.6809 102.335 41.6903 102.218L38.2533 108.49C38.1366 108.7 37.9733 108.805 37.7633 108.805H37.5673C37.3573 108.805 37.1939 108.7 37.0773 108.49L33.5633 102.197C33.5773 102.318 33.5866 102.437 33.5913 102.554C33.6006 102.671 33.6053 102.778 33.6053 102.876V110.247H32.4153V100.216H33.4163C33.5376 100.216 33.6309 100.228 33.6963 100.251C33.7616 100.274 33.8246 100.34 33.8853 100.447L37.3503 106.621ZM50.3062 110.247H49.7532C49.6318 110.247 49.5338 110.228 49.4592 110.191C49.3845 110.154 49.3355 110.074 49.3122 109.953L49.1722 109.295C48.9855 109.463 48.8035 109.615 48.6262 109.75C48.4488 109.881 48.2622 109.993 48.0662 110.086C47.8702 110.175 47.6602 110.242 47.4362 110.289C47.2168 110.336 46.9718 110.359 46.7012 110.359C46.4258 110.359 46.1668 110.322 45.9242 110.247C45.6862 110.168 45.4785 110.051 45.3012 109.897C45.1238 109.743 44.9815 109.549 44.8742 109.316C44.7715 109.078 44.7202 108.798 44.7202 108.476C44.7202 108.196 44.7972 107.928 44.9512 107.671C45.1052 107.41 45.3525 107.179 45.6932 106.978C46.0385 106.777 46.4888 106.614 47.0442 106.488C47.5995 106.357 48.2785 106.283 49.0812 106.264V105.711C49.0812 105.16 48.9622 104.745 48.7242 104.465C48.4908 104.18 48.1432 104.038 47.6812 104.038C47.3778 104.038 47.1212 104.078 46.9112 104.157C46.7058 104.232 46.5262 104.318 46.3722 104.416C46.2228 104.509 46.0922 104.596 45.9802 104.675C45.8728 104.75 45.7655 104.787 45.6582 104.787C45.5742 104.787 45.4995 104.766 45.4342 104.724C45.3735 104.677 45.3245 104.621 45.2872 104.556L45.0632 104.157C45.4552 103.779 45.8775 103.497 46.3302 103.31C46.7828 103.123 47.2845 103.03 47.8352 103.03C48.2318 103.03 48.5842 103.095 48.8922 103.226C49.2002 103.357 49.4592 103.539 49.6692 103.772C49.8792 104.005 50.0378 104.288 50.1452 104.619C50.2525 104.95 50.3062 105.314 50.3062 105.711V110.247ZM47.0722 109.484C47.2915 109.484 47.4922 109.463 47.6742 109.421C47.8562 109.374 48.0265 109.311 48.1852 109.232C48.3485 109.148 48.5025 109.048 48.6472 108.931C48.7965 108.814 48.9412 108.681 49.0812 108.532V107.055C48.5072 107.074 48.0195 107.12 47.6182 107.195C47.2168 107.265 46.8902 107.358 46.6382 107.475C46.3862 107.592 46.2018 107.729 46.0852 107.888C45.9732 108.047 45.9172 108.224 45.9172 108.42C45.9172 108.607 45.9475 108.768 46.0082 108.903C46.0688 109.038 46.1505 109.15 46.2532 109.239C46.3558 109.323 46.4772 109.386 46.6172 109.428C46.7572 109.465 46.9088 109.484 47.0722 109.484ZM53.8529 106.614L51.4659 103.156H52.6629C52.7655 103.156 52.8402 103.172 52.8869 103.205C52.9335 103.238 52.9755 103.284 53.0129 103.345L54.7489 106.005C54.7909 105.874 54.8515 105.744 54.9309 105.613L56.4569 103.373C56.5035 103.308 56.5502 103.256 56.5969 103.219C56.6435 103.177 56.7019 103.156 56.7719 103.156H57.9199L55.5329 106.544L58.0179 110.247H56.8209C56.7182 110.247 56.6365 110.221 56.5759 110.17C56.5199 110.114 56.4732 110.053 56.4359 109.988L54.6509 107.209C54.6182 107.344 54.5692 107.466 54.5039 107.573L52.8519 109.988C52.8052 110.053 52.7539 110.114 52.6979 110.17C52.6465 110.221 52.5742 110.247 52.4809 110.247H51.3679L53.8529 106.614ZM60.6346 103.156V110.247H59.3886V103.156H60.6346ZM60.9146 100.93C60.9146 101.051 60.8889 101.166 60.8376 101.273C60.7909 101.376 60.7256 101.469 60.6416 101.553C60.5622 101.632 60.4689 101.695 60.3616 101.742C60.2542 101.789 60.1399 101.812 60.0186 101.812C59.8972 101.812 59.7829 101.789 59.6756 101.742C59.5729 101.695 59.4796 101.632 59.3956 101.553C59.3162 101.469 59.2532 101.376 59.2066 101.273C59.1599 101.166 59.1366 101.051 59.1366 100.93C59.1366 100.809 59.1599 100.694 59.2066 100.587C59.2532 100.475 59.3162 100.379 59.3956 100.3C59.4796 100.216 59.5729 100.151 59.6756 100.104C59.7829 100.057 59.8972 100.034 60.0186 100.034C60.1399 100.034 60.2542 100.057 60.3616 100.104C60.4689 100.151 60.5622 100.216 60.6416 100.3C60.7256 100.379 60.7909 100.475 60.8376 100.587C60.8889 100.694 60.9146 100.809 60.9146 100.93ZM62.8306 110.247V103.156H63.5726C63.7499 103.156 63.8619 103.242 63.9086 103.415L63.9996 104.143C64.2609 103.821 64.5526 103.557 64.8746 103.352C65.2013 103.147 65.5793 103.044 66.0086 103.044C66.4893 103.044 66.8766 103.177 67.1706 103.443C67.4693 103.709 67.6839 104.068 67.8146 104.521C67.9126 104.264 68.0409 104.043 68.1996 103.856C68.3629 103.669 68.5449 103.515 68.7456 103.394C68.9463 103.273 69.1586 103.184 69.3826 103.128C69.6113 103.072 69.8423 103.044 70.0756 103.044C70.4489 103.044 70.7803 103.105 71.0696 103.226C71.3636 103.343 71.6109 103.515 71.8116 103.744C72.0169 103.973 72.1733 104.255 72.2806 104.591C72.3879 104.922 72.4416 105.303 72.4416 105.732V110.247H71.1956V105.732C71.1956 105.177 71.0743 104.757 70.8316 104.472C70.5889 104.183 70.2366 104.038 69.7746 104.038C69.5693 104.038 69.3733 104.075 69.1866 104.15C69.0046 104.22 68.8436 104.325 68.7036 104.465C68.5636 104.605 68.4516 104.782 68.3676 104.997C68.2883 105.207 68.2486 105.452 68.2486 105.732V110.247H67.0026V105.732C67.0026 105.163 66.8883 104.738 66.6596 104.458C66.4309 104.178 66.0973 104.038 65.6586 104.038C65.3506 104.038 65.0636 104.122 64.7976 104.29C64.5363 104.453 64.2959 104.677 64.0766 104.962V110.247H62.8306ZM75.7146 103.156V110.247H74.4686V103.156H75.7146ZM75.9946 100.93C75.9946 101.051 75.969 101.166 75.9176 101.273C75.871 101.376 75.8056 101.469 75.7216 101.553C75.6423 101.632 75.549 101.695 75.4416 101.742C75.3343 101.789 75.22 101.812 75.0986 101.812C74.9773 101.812 74.863 101.789 74.7556 101.742C74.653 101.695 74.5596 101.632 74.4756 101.553C74.3963 101.469 74.3333 101.376 74.2866 101.273C74.24 101.166 74.2166 101.051 74.2166 100.93C74.2166 100.809 74.24 100.694 74.2866 100.587C74.3333 100.475 74.3963 100.379 74.4756 100.3C74.5596 100.216 74.653 100.151 74.7556 100.104C74.863 100.057 74.9773 100.034 75.0986 100.034C75.22 100.034 75.3343 100.057 75.4416 100.104C75.549 100.151 75.6423 100.216 75.7216 100.3C75.8056 100.379 75.871 100.475 75.9176 100.587C75.969 100.694 75.9946 100.809 75.9946 100.93ZM82.8597 103.688C82.8597 103.777 82.8433 103.863 82.8107 103.947C82.778 104.026 82.736 104.099 82.6847 104.164L78.8487 109.274H82.7197V110.247H77.3787V109.729C77.3787 109.668 77.3927 109.598 77.4207 109.519C77.4533 109.435 77.4977 109.356 77.5537 109.281L81.4107 104.136H77.5957V103.156H82.8597V103.688ZM87.1845 103.044C87.6091 103.044 88.0011 103.116 88.3605 103.261C88.7198 103.401 89.0301 103.606 89.2915 103.877C89.5528 104.143 89.7558 104.474 89.9005 104.871C90.0498 105.263 90.1245 105.711 90.1245 106.215C90.1245 106.411 90.1035 106.542 90.0615 106.607C90.0195 106.672 89.9401 106.705 89.8235 106.705H85.1055C85.1148 107.153 85.1755 107.543 85.2875 107.874C85.3995 108.205 85.5535 108.483 85.7495 108.707C85.9455 108.926 86.1788 109.092 86.4495 109.204C86.7201 109.311 87.0235 109.365 87.3595 109.365C87.6721 109.365 87.9405 109.33 88.1645 109.26C88.3931 109.185 88.5891 109.106 88.7525 109.022C88.9158 108.938 89.0511 108.861 89.1585 108.791C89.2705 108.716 89.3661 108.679 89.4455 108.679C89.5481 108.679 89.6275 108.719 89.6835 108.798L90.0335 109.253C89.8795 109.44 89.6951 109.603 89.4805 109.743C89.2658 109.878 89.0348 109.99 88.7875 110.079C88.5448 110.168 88.2928 110.233 88.0315 110.275C87.7701 110.322 87.5111 110.345 87.2545 110.345C86.7645 110.345 86.3118 110.263 85.8965 110.1C85.4858 109.932 85.1288 109.689 84.8255 109.372C84.5268 109.05 84.2935 108.653 84.1255 108.182C83.9575 107.711 83.8735 107.169 83.8735 106.558C83.8735 106.063 83.9481 105.601 84.0975 105.172C84.2515 104.743 84.4708 104.372 84.7555 104.059C85.0401 103.742 85.3878 103.494 85.7985 103.317C86.2091 103.135 86.6711 103.044 87.1845 103.044ZM87.2125 103.961C86.6105 103.961 86.1368 104.136 85.7915 104.486C85.4461 104.831 85.2315 105.312 85.1475 105.928H89.0045C89.0045 105.639 88.9648 105.375 88.8855 105.137C88.8061 104.894 88.6895 104.687 88.5355 104.514C88.3815 104.337 88.1925 104.201 87.9685 104.108C87.7491 104.01 87.4971 103.961 87.2125 103.961ZM101.454 100.216V101.357H98.2133V110.247H96.8553V101.357H93.6003V100.216H101.454ZM104.078 103.044C104.596 103.044 105.062 103.13 105.478 103.303C105.898 103.476 106.252 103.721 106.542 104.038C106.836 104.355 107.06 104.74 107.214 105.193C107.372 105.641 107.452 106.143 107.452 106.698C107.452 107.258 107.372 107.762 107.214 108.21C107.06 108.658 106.836 109.041 106.542 109.358C106.252 109.675 105.898 109.92 105.478 110.093C105.062 110.261 104.596 110.345 104.078 110.345C103.56 110.345 103.091 110.261 102.671 110.093C102.255 109.92 101.901 109.675 101.607 109.358C101.313 109.041 101.086 108.658 100.928 108.21C100.769 107.762 100.69 107.258 100.69 106.698C100.69 106.143 100.769 105.641 100.928 105.193C101.086 104.74 101.313 104.355 101.607 104.038C101.901 103.721 102.255 103.476 102.671 103.303C103.091 103.13 103.56 103.044 104.078 103.044ZM104.078 109.372C104.778 109.372 105.3 109.139 105.646 108.672C105.991 108.201 106.164 107.545 106.164 106.705C106.164 105.86 105.991 105.202 105.646 104.731C105.3 104.26 104.778 104.024 104.078 104.024C103.723 104.024 103.415 104.085 103.154 104.206C102.892 104.327 102.673 104.502 102.496 104.731C102.323 104.96 102.192 105.242 102.104 105.578C102.02 105.909 101.978 106.285 101.978 106.705C101.978 107.125 102.02 107.501 102.104 107.832C102.192 108.163 102.323 108.443 102.496 108.672C102.673 108.896 102.892 109.069 103.154 109.19C103.415 109.311 103.723 109.372 104.078 109.372ZM108.987 112.648V103.156H109.729C109.906 103.156 110.018 103.242 110.065 103.415L110.17 104.255C110.473 103.886 110.819 103.59 111.206 103.366C111.598 103.142 112.048 103.03 112.557 103.03C112.963 103.03 113.332 103.109 113.663 103.268C113.994 103.422 114.277 103.653 114.51 103.961C114.743 104.264 114.923 104.642 115.049 105.095C115.175 105.548 115.238 106.068 115.238 106.656C115.238 107.179 115.168 107.666 115.028 108.119C114.888 108.567 114.687 108.957 114.426 109.288C114.165 109.615 113.843 109.874 113.46 110.065C113.082 110.252 112.655 110.345 112.179 110.345C111.74 110.345 111.365 110.273 111.052 110.128C110.744 109.983 110.471 109.778 110.233 109.512V112.648H108.987ZM112.144 104.038C111.738 104.038 111.381 104.131 111.073 104.318C110.77 104.505 110.49 104.768 110.233 105.109V108.539C110.462 108.847 110.711 109.064 110.982 109.19C111.257 109.316 111.563 109.379 111.899 109.379C112.557 109.379 113.063 109.143 113.418 108.672C113.773 108.201 113.95 107.529 113.95 106.656C113.95 106.194 113.908 105.797 113.824 105.466C113.745 105.135 113.628 104.864 113.474 104.654C113.32 104.439 113.131 104.283 112.907 104.185C112.683 104.087 112.429 104.038 112.144 104.038ZM127.867 110.247H126.817C126.696 110.247 126.598 110.217 126.523 110.156C126.449 110.095 126.393 110.018 126.355 109.925L125.417 107.503H120.916L119.978 109.925C119.946 110.009 119.89 110.084 119.81 110.149C119.731 110.214 119.633 110.247 119.516 110.247H118.466L122.477 100.216H123.856L127.867 110.247ZM121.294 106.523H125.039L123.464 102.442C123.362 102.19 123.261 101.875 123.163 101.497C123.112 101.688 123.061 101.866 123.009 102.029C122.963 102.188 122.916 102.328 122.869 102.449L121.294 106.523ZM133.925 110.247C133.748 110.247 133.636 110.161 133.589 109.988L133.477 109.127C133.174 109.496 132.826 109.792 132.434 110.016C132.047 110.235 131.601 110.345 131.097 110.345C130.691 110.345 130.322 110.268 129.991 110.114C129.66 109.955 129.377 109.724 129.144 109.421C128.911 109.118 128.731 108.74 128.605 108.287C128.479 107.834 128.416 107.314 128.416 106.726C128.416 106.203 128.486 105.718 128.626 105.27C128.766 104.817 128.967 104.425 129.228 104.094C129.494 103.763 129.816 103.504 130.194 103.317C130.572 103.126 131.001 103.03 131.482 103.03C131.916 103.03 132.287 103.105 132.595 103.254C132.903 103.399 133.178 103.604 133.421 103.87V99.9361H134.667V110.247H133.925ZM131.51 109.337C131.916 109.337 132.271 109.244 132.574 109.057C132.882 108.87 133.164 108.607 133.421 108.266V104.836C133.192 104.528 132.94 104.313 132.665 104.192C132.394 104.066 132.093 104.003 131.762 104.003C131.099 104.003 130.591 104.239 130.236 104.71C129.881 105.181 129.704 105.853 129.704 106.726C129.704 107.188 129.744 107.585 129.823 107.916C129.902 108.243 130.019 108.513 130.173 108.728C130.327 108.938 130.516 109.092 130.74 109.19C130.964 109.288 131.221 109.337 131.51 109.337ZM140.814 104.325C140.758 104.428 140.672 104.479 140.555 104.479C140.485 104.479 140.406 104.453 140.317 104.402C140.229 104.351 140.119 104.295 139.988 104.234C139.862 104.169 139.711 104.11 139.533 104.059C139.356 104.003 139.146 103.975 138.903 103.975C138.693 103.975 138.504 104.003 138.336 104.059C138.168 104.11 138.024 104.183 137.902 104.276C137.786 104.369 137.695 104.479 137.629 104.605C137.569 104.726 137.538 104.859 137.538 105.004C137.538 105.186 137.59 105.338 137.692 105.459C137.8 105.58 137.94 105.685 138.112 105.774C138.285 105.863 138.481 105.942 138.7 106.012C138.92 106.077 139.144 106.15 139.372 106.229C139.606 106.304 139.832 106.388 140.051 106.481C140.271 106.574 140.467 106.691 140.639 106.831C140.812 106.971 140.95 107.144 141.052 107.349C141.16 107.55 141.213 107.792 141.213 108.077C141.213 108.404 141.155 108.707 141.038 108.987C140.922 109.262 140.749 109.503 140.52 109.708C140.292 109.909 140.012 110.067 139.68 110.184C139.349 110.301 138.966 110.359 138.532 110.359C138.038 110.359 137.59 110.28 137.188 110.121C136.787 109.958 136.446 109.75 136.166 109.498L136.46 109.022C136.498 108.961 136.542 108.915 136.593 108.882C136.645 108.849 136.712 108.833 136.796 108.833C136.88 108.833 136.969 108.866 137.062 108.931C137.156 108.996 137.268 109.069 137.398 109.148C137.534 109.227 137.695 109.3 137.881 109.365C138.073 109.43 138.311 109.463 138.595 109.463C138.838 109.463 139.05 109.433 139.232 109.372C139.414 109.307 139.566 109.22 139.687 109.113C139.809 109.006 139.897 108.882 139.953 108.742C140.014 108.602 140.044 108.453 140.044 108.294C140.044 108.098 139.991 107.937 139.883 107.811C139.781 107.68 139.643 107.571 139.47 107.482C139.298 107.389 139.099 107.309 138.875 107.244C138.656 107.174 138.43 107.102 138.196 107.027C137.968 106.952 137.741 106.868 137.517 106.775C137.298 106.677 137.102 106.556 136.929 106.411C136.757 106.266 136.617 106.089 136.509 105.879C136.407 105.664 136.355 105.405 136.355 105.102C136.355 104.831 136.411 104.572 136.523 104.325C136.635 104.073 136.799 103.854 137.013 103.667C137.228 103.476 137.492 103.324 137.804 103.212C138.117 103.1 138.474 103.044 138.875 103.044C139.342 103.044 139.76 103.119 140.128 103.268C140.502 103.413 140.824 103.613 141.094 103.87L140.814 104.325Z" fill="black"/>
<defs>
<filter id="filter0_d_404_11777" x="0" y="0.248047" width="166" height="165.999" filterUnits="userSpaceOnUse" color-interpolation-filters="sRGB">
<feFlood flood-opacity="0" result="BackgroundImageFix"/>
<feColorMatrix in="SourceAlpha" type="matrix" values="0 0 0 0 0 0 0 0 0 0 0 0 0 0 0 0 0 0 127 0" result="hardAlpha"/>
<feOffset dy="4"/>
<feGaussianBlur stdDeviation="4"/>
<feComposite in2="hardAlpha" operator="out"/>
<feColorMatrix type="matrix" values="0 0 0 0 0 0 0 0 0 0 0 0 0 0 0 0 0 0 0.25 0"/>
<feBlend mode="normal" in2="BackgroundImageFix" result="effect1_dropShadow_404_11777"/>
<feBlend mode="normal" in="SourceGraphic" in2="effect1_dropShadow_404_11777" result="shape"/>
</filter>
</defs>
</svg>
