<svg width="166" height="167" viewBox="0 0 166 167" fill="none" xmlns="http://www.w3.org/2000/svg">
<g filter="url(#filter0_d_404_11766)">
<path d="M126 4.24512H40C22.3269 4.24512 8 18.5719 8 36.2448V122.244C8 139.917 22.3269 154.244 40 154.244H126C143.673 154.244 158 139.917 158 122.244V36.2448C158 18.5719 143.673 4.24512 126 4.24512Z" fill="#FFF4DF"/>
</g>
<rect x="63" y="44.2451" width="41" height="40.9996" rx="8" fill="#8634D9"/>
<path d="M81.5403 66.1951L80.794 65.4454C80.9248 65.2193 81.0161 64.9724 81.064 64.7154C81.1165 64.4424 81.1427 64.1649 81.142 63.8868C81.1427 63.6082 81.1128 63.3303 81.0528 63.0582C81.001 62.81 80.9057 62.5729 80.7713 62.3582L81.5175 61.6016C81.7514 61.9199 81.9238 62.2794 82.0258 62.6615C82.1378 63.0603 82.1948 63.4727 82.195 63.8871C82.1945 64.3033 82.1415 64.7178 82.0373 65.1207C81.9425 65.508 81.7737 65.8726 81.5403 66.1951ZM83.8652 68.513L83.112 67.7564C83.5643 67.2072 83.9118 66.5789 84.137 65.9031C84.3534 65.2451 84.4631 64.5564 84.462 63.8635C84.4632 63.1716 84.3535 62.4841 84.137 61.8274C83.9142 61.1585 83.5663 60.5385 83.112 60.0007L83.8652 59.2441C84.4089 59.8894 84.8291 60.63 85.1047 61.4286C85.3767 62.2116 85.5157 63.035 85.5157 63.8642C85.5155 64.6949 85.3766 65.5196 85.1047 66.3041C84.8265 67.1092 84.4067 67.8568 83.8652 68.513ZM75.1668 64.4616C74.9312 64.4668 74.697 64.4235 74.4787 64.3343C74.2604 64.2452 74.0627 64.112 73.8976 63.9431C73.7294 63.7773 73.5968 63.5786 73.508 63.3594C73.4192 63.1401 73.3761 62.9049 73.3813 62.6683C73.3761 62.4316 73.4192 62.1964 73.508 61.9772C73.5968 61.7579 73.7294 61.5593 73.8976 61.3935C74.0627 61.2246 74.2604 61.0914 74.4787 61.0022C74.697 60.9131 74.9312 60.8697 75.1668 60.875C75.4024 60.8697 75.6366 60.9131 75.8549 61.0022C76.0732 61.0914 76.271 61.2246 76.4361 61.3935C76.6044 61.5594 76.7371 61.7581 76.8259 61.9775C76.9147 62.1969 76.9578 62.4322 76.9526 62.669C76.9578 62.9057 76.9146 63.1409 76.8259 63.3601C76.7371 63.5794 76.6045 63.778 76.4363 63.9438C76.2711 64.1126 76.0733 64.2457 75.8549 64.3347C75.6366 64.4238 75.4024 64.467 75.1668 64.4616ZM71.0001 69.2441V69.0395C70.9963 68.711 71.1 68.3903 71.2953 68.1268C71.5022 67.8505 71.7767 67.6326 72.0921 67.4943C72.5639 67.2745 73.0601 67.1117 73.5701 67.0092C74.0958 66.9039 74.6307 66.8515 75.1668 66.8527C75.7029 66.8515 76.2378 66.9039 76.7636 67.0092C77.2736 67.1117 77.7697 67.2745 78.2415 67.4943C78.557 67.6326 78.8314 67.8505 79.0383 68.1268C79.2336 68.3903 79.3373 68.711 79.3335 69.0395V69.2441H71.0001ZM91.8332 64.4613C91.5976 64.4666 91.3634 64.4233 91.1451 64.3341C90.9268 64.2449 90.729 64.1117 90.5639 63.9428C90.3958 63.777 90.2632 63.5784 90.1744 63.3591C90.0856 63.1399 90.0425 62.9047 90.0477 62.668C90.0425 62.4314 90.0856 62.1962 90.1744 61.9769C90.2632 61.7577 90.3958 61.559 90.5639 61.3932C90.729 61.2243 90.9268 61.0911 91.1451 61.002C91.3634 60.9128 91.5976 60.8695 91.8332 60.8747C92.0688 60.8695 92.303 60.9128 92.5213 61.002C92.7396 61.0911 92.9373 61.2243 93.1024 61.3932C93.2706 61.559 93.4032 61.7577 93.492 61.9769C93.5808 62.1962 93.6239 62.4314 93.6187 62.668C93.6239 62.9047 93.5808 63.1399 93.492 63.3591C93.4032 63.5784 93.2706 63.777 93.1024 63.9428C92.9374 64.1118 92.7396 64.245 92.5213 64.3342C92.303 64.4234 92.0688 64.4665 91.8332 64.4613ZM87.6665 69.2441V69.0395C87.6627 68.711 87.7664 68.3903 87.9617 68.1268C88.1686 67.8505 88.443 67.6326 88.7585 67.4943C89.2303 67.2745 89.7264 67.1117 90.2364 67.0092C90.7622 66.9039 91.2971 66.8515 91.8332 66.8527C92.3693 66.8515 92.9042 66.9039 93.4299 67.0092C93.9399 67.1117 94.4361 67.2745 94.9079 67.4943C95.2233 67.6326 95.4978 67.8505 95.7047 68.1268C95.9 68.3903 96.0037 68.711 95.9999 69.0395V69.2441H87.6665Z" fill="white"/>
<path d="M33.4141 106.492V110.244H32.0631V100.213H35.0241C35.6587 100.213 36.2094 100.288 36.6761 100.437C37.1474 100.582 37.5371 100.789 37.8451 101.06C38.1531 101.331 38.3817 101.657 38.5311 102.04C38.6851 102.423 38.7621 102.85 38.7621 103.321C38.7621 103.788 38.6804 104.215 38.5171 104.602C38.3537 104.989 38.1134 105.323 37.7961 105.603C37.4834 105.883 37.0937 106.102 36.6271 106.261C36.1604 106.415 35.6261 106.492 35.0241 106.492H33.4141ZM33.4141 105.414H35.0241C35.4114 105.414 35.7521 105.363 36.0461 105.26C36.3447 105.157 36.5944 105.015 36.7951 104.833C36.9957 104.646 37.1474 104.425 37.2501 104.168C37.3527 103.911 37.4041 103.629 37.4041 103.321C37.4041 102.682 37.2057 102.182 36.8091 101.823C36.4171 101.464 35.8221 101.284 35.0241 101.284H33.4141V105.414ZM40.2857 110.244V103.153H40.9997C41.135 103.153 41.2283 103.179 41.2797 103.23C41.331 103.281 41.366 103.37 41.3847 103.496L41.4687 104.602C41.7113 104.107 42.01 103.722 42.3647 103.447C42.724 103.167 43.144 103.027 43.6247 103.027C43.8207 103.027 43.998 103.05 44.1567 103.097C44.3153 103.139 44.4623 103.2 44.5977 103.279L44.4367 104.21C44.404 104.327 44.3317 104.385 44.2197 104.385C44.1543 104.385 44.054 104.364 43.9187 104.322C43.7833 104.275 43.5943 104.252 43.3517 104.252C42.9177 104.252 42.5537 104.378 42.2597 104.63C41.9703 104.882 41.7277 105.248 41.5317 105.729V110.244H40.2857ZM48.7392 103.041C49.1638 103.041 49.5558 103.113 49.9152 103.258C50.2745 103.398 50.5848 103.603 50.8462 103.874C51.1075 104.14 51.3105 104.471 51.4552 104.868C51.6045 105.26 51.6792 105.708 51.6792 106.212C51.6792 106.408 51.6582 106.539 51.6162 106.604C51.5742 106.669 51.4948 106.702 51.3782 106.702H46.6602C46.6695 107.15 46.7302 107.54 46.8422 107.871C46.9542 108.202 47.1082 108.48 47.3042 108.704C47.5002 108.923 47.7335 109.089 48.0042 109.201C48.2748 109.308 48.5782 109.362 48.9142 109.362C49.2268 109.362 49.4952 109.327 49.7192 109.257C49.9478 109.182 50.1438 109.103 50.3072 109.019C50.4705 108.935 50.6058 108.858 50.7132 108.788C50.8252 108.713 50.9208 108.676 51.0002 108.676C51.1028 108.676 51.1822 108.716 51.2382 108.795L51.5882 109.25C51.4342 109.437 51.2498 109.6 51.0352 109.74C50.8205 109.875 50.5895 109.987 50.3422 110.076C50.0995 110.165 49.8475 110.23 49.5862 110.272C49.3248 110.319 49.0658 110.342 48.8092 110.342C48.3192 110.342 47.8665 110.26 47.4512 110.097C47.0405 109.929 46.6835 109.686 46.3802 109.369C46.0815 109.047 45.8482 108.65 45.6802 108.179C45.5122 107.708 45.4282 107.166 45.4282 106.555C45.4282 106.06 45.5028 105.598 45.6522 105.169C45.8062 104.74 46.0255 104.369 46.3102 104.056C46.5948 103.739 46.9425 103.491 47.3532 103.314C47.7638 103.132 48.2258 103.041 48.7392 103.041ZM48.7672 103.958C48.1652 103.958 47.6915 104.133 47.3462 104.483C47.0008 104.828 46.7862 105.309 46.7022 105.925H50.5592C50.5592 105.636 50.5195 105.372 50.4402 105.134C50.3608 104.891 50.2442 104.684 50.0902 104.511C49.9362 104.334 49.7472 104.198 49.5232 104.105C49.3038 104.007 49.0518 103.958 48.7672 103.958ZM58.111 104.413C58.0736 104.464 58.0363 104.504 57.999 104.532C57.9616 104.56 57.908 104.574 57.838 104.574C57.768 104.574 57.691 104.546 57.607 104.49C57.5276 104.429 57.425 104.364 57.299 104.294C57.173 104.224 57.019 104.161 56.837 104.105C56.6596 104.044 56.4403 104.014 56.179 104.014C55.8336 104.014 55.528 104.077 55.262 104.203C54.996 104.324 54.772 104.502 54.59 104.735C54.4126 104.968 54.2773 105.251 54.184 105.582C54.0953 105.913 54.051 106.284 54.051 106.695C54.051 107.124 54.1 107.507 54.198 107.843C54.296 108.174 54.4336 108.454 54.611 108.683C54.7883 108.907 55.003 109.08 55.255 109.201C55.5116 109.318 55.7986 109.376 56.116 109.376C56.4193 109.376 56.669 109.341 56.865 109.271C57.061 109.196 57.2243 109.115 57.355 109.026C57.4856 108.937 57.593 108.858 57.677 108.788C57.761 108.713 57.845 108.676 57.929 108.676C58.0363 108.676 58.1156 108.716 58.167 108.795L58.517 109.25C58.209 109.628 57.824 109.906 57.362 110.083C56.9 110.256 56.4123 110.342 55.899 110.342C55.4556 110.342 55.0426 110.26 54.66 110.097C54.282 109.934 53.953 109.698 53.673 109.39C53.393 109.077 53.1713 108.695 53.008 108.242C52.8493 107.789 52.77 107.274 52.77 106.695C52.77 106.168 52.8423 105.68 52.987 105.232C53.1363 104.784 53.351 104.399 53.631 104.077C53.9156 103.75 54.2656 103.496 54.681 103.314C55.0963 103.132 55.5723 103.041 56.109 103.041C56.6036 103.041 57.0423 103.123 57.425 103.286C57.8076 103.445 58.146 103.671 58.44 103.965L58.111 104.413ZM61.1951 103.153V110.244H59.9491V103.153H61.1951ZM61.4751 100.927C61.4751 101.048 61.4494 101.163 61.3981 101.27C61.3514 101.373 61.2861 101.466 61.2021 101.55C61.1228 101.629 61.0294 101.692 60.9221 101.739C60.8148 101.786 60.7004 101.809 60.5791 101.809C60.4578 101.809 60.3434 101.786 60.2361 101.739C60.1334 101.692 60.0401 101.629 59.9561 101.55C59.8768 101.466 59.8138 101.373 59.7671 101.27C59.7204 101.163 59.6971 101.048 59.6971 100.927C59.6971 100.806 59.7204 100.691 59.7671 100.584C59.8138 100.472 59.8768 100.376 59.9561 100.297C60.0401 100.213 60.1334 100.148 60.2361 100.101C60.3434 100.054 60.4578 100.031 60.5791 100.031C60.7004 100.031 60.8148 100.054 60.9221 100.101C61.0294 100.148 61.1228 100.213 61.2021 100.297C61.2861 100.376 61.3514 100.472 61.3981 100.584C61.4494 100.691 61.4751 100.806 61.4751 100.927ZM67.4511 104.322C67.3951 104.425 67.3088 104.476 67.1921 104.476C67.1221 104.476 67.0428 104.45 66.9541 104.399C66.8655 104.348 66.7558 104.292 66.6251 104.231C66.4991 104.166 66.3475 104.107 66.1701 104.056C65.9928 104 65.7828 103.972 65.5401 103.972C65.3301 103.972 65.1411 104 64.9731 104.056C64.8051 104.107 64.6605 104.18 64.5391 104.273C64.4225 104.366 64.3315 104.476 64.2661 104.602C64.2055 104.723 64.1751 104.856 64.1751 105.001C64.1751 105.183 64.2265 105.335 64.3291 105.456C64.4365 105.577 64.5765 105.682 64.7491 105.771C64.9218 105.86 65.1178 105.939 65.3371 106.009C65.5565 106.074 65.7805 106.147 66.0091 106.226C66.2425 106.301 66.4688 106.385 66.6881 106.478C66.9075 106.571 67.1035 106.688 67.2761 106.828C67.4488 106.968 67.5865 107.141 67.6891 107.346C67.7965 107.547 67.8501 107.789 67.8501 108.074C67.8501 108.401 67.7918 108.704 67.6751 108.984C67.5585 109.259 67.3858 109.5 67.1571 109.705C66.9285 109.906 66.6485 110.064 66.3171 110.181C65.9858 110.298 65.6031 110.356 65.1691 110.356C64.6745 110.356 64.2265 110.277 63.8251 110.118C63.4238 109.955 63.0831 109.747 62.8031 109.495L63.0971 109.019C63.1345 108.958 63.1788 108.912 63.2301 108.879C63.2815 108.846 63.3491 108.83 63.4331 108.83C63.5171 108.83 63.6058 108.863 63.6991 108.928C63.7925 108.993 63.9045 109.066 64.0351 109.145C64.1705 109.224 64.3315 109.297 64.5181 109.362C64.7095 109.427 64.9475 109.46 65.2321 109.46C65.4748 109.46 65.6871 109.43 65.8691 109.369C66.0511 109.304 66.2028 109.217 66.3241 109.11C66.4455 109.003 66.5341 108.879 66.5901 108.739C66.6508 108.599 66.6811 108.45 66.6811 108.291C66.6811 108.095 66.6275 107.934 66.5201 107.808C66.4175 107.677 66.2798 107.568 66.1071 107.479C65.9345 107.386 65.7361 107.306 65.5121 107.241C65.2928 107.171 65.0665 107.099 64.8331 107.024C64.6045 106.949 64.3781 106.865 64.1541 106.772C63.9348 106.674 63.7388 106.553 63.5661 106.408C63.3935 106.263 63.2535 106.086 63.1461 105.876C63.0435 105.661 62.9921 105.402 62.9921 105.099C62.9921 104.828 63.0481 104.569 63.1601 104.322C63.2721 104.07 63.4355 103.851 63.6501 103.664C63.8648 103.473 64.1285 103.321 64.4411 103.209C64.7538 103.097 65.1108 103.041 65.5121 103.041C65.9788 103.041 66.3965 103.116 66.7651 103.265C67.1385 103.41 67.4605 103.61 67.7311 103.867L67.4511 104.322ZM70.8475 103.153V110.244H69.6015V103.153H70.8475ZM71.1275 100.927C71.1275 101.048 71.1018 101.163 71.0505 101.27C71.0038 101.373 70.9385 101.466 70.8545 101.55C70.7751 101.629 70.6818 101.692 70.5745 101.739C70.4671 101.786 70.3528 101.809 70.2315 101.809C70.1101 101.809 69.9958 101.786 69.8885 101.739C69.7858 101.692 69.6925 101.629 69.6085 101.55C69.5291 101.466 69.4661 101.373 69.4195 101.27C69.3728 101.163 69.3495 101.048 69.3495 100.927C69.3495 100.806 69.3728 100.691 69.4195 100.584C69.4661 100.472 69.5291 100.376 69.6085 100.297C69.6925 100.213 69.7858 100.148 69.8885 100.101C69.9958 100.054 70.1101 100.031 70.2315 100.031C70.3528 100.031 70.4671 100.054 70.5745 100.101C70.6818 100.148 70.7751 100.213 70.8545 100.297C70.9385 100.376 71.0038 100.472 71.0505 100.584C71.1018 100.691 71.1275 100.806 71.1275 100.927ZM75.9135 103.041C76.4315 103.041 76.8982 103.127 77.3135 103.3C77.7335 103.473 78.0882 103.718 78.3775 104.035C78.6715 104.352 78.8955 104.737 79.0495 105.19C79.2082 105.638 79.2875 106.14 79.2875 106.695C79.2875 107.255 79.2082 107.759 79.0495 108.207C78.8955 108.655 78.6715 109.038 78.3775 109.355C78.0882 109.672 77.7335 109.917 77.3135 110.09C76.8982 110.258 76.4315 110.342 75.9135 110.342C75.3955 110.342 74.9265 110.258 74.5065 110.09C74.0912 109.917 73.7365 109.672 73.4425 109.355C73.1485 109.038 72.9222 108.655 72.7635 108.207C72.6048 107.759 72.5255 107.255 72.5255 106.695C72.5255 106.14 72.6048 105.638 72.7635 105.19C72.9222 104.737 73.1485 104.352 73.4425 104.035C73.7365 103.718 74.0912 103.473 74.5065 103.3C74.9265 103.127 75.3955 103.041 75.9135 103.041ZM75.9135 109.369C76.6135 109.369 77.1362 109.136 77.4815 108.669C77.8268 108.198 77.9995 107.542 77.9995 106.702C77.9995 105.857 77.8268 105.199 77.4815 104.728C77.1362 104.257 76.6135 104.021 75.9135 104.021C75.5588 104.021 75.2508 104.082 74.9895 104.203C74.7282 104.324 74.5088 104.499 74.3315 104.728C74.1588 104.957 74.0282 105.239 73.9395 105.575C73.8555 105.906 73.8135 106.282 73.8135 106.702C73.8135 107.122 73.8555 107.498 73.9395 107.829C74.0282 108.16 74.1588 108.44 74.3315 108.669C74.5088 108.893 74.7282 109.066 74.9895 109.187C75.2508 109.308 75.5588 109.369 75.9135 109.369ZM80.8228 110.244V103.153H81.5648C81.7421 103.153 81.8541 103.239 81.9008 103.412L81.9988 104.182C82.3068 103.841 82.6498 103.566 83.0278 103.356C83.4104 103.146 83.8514 103.041 84.3508 103.041C84.7381 103.041 85.0788 103.106 85.3728 103.237C85.6714 103.363 85.9188 103.545 86.1148 103.783C86.3154 104.016 86.4671 104.299 86.5698 104.63C86.6724 104.961 86.7238 105.328 86.7238 105.729V110.244H85.4778V105.729C85.4778 105.192 85.3541 104.777 85.1068 104.483C84.8641 104.184 84.4908 104.035 83.9868 104.035C83.6181 104.035 83.2728 104.124 82.9508 104.301C82.6334 104.478 82.3394 104.719 82.0688 105.022V110.244H80.8228ZM98.3371 100.213V101.354H95.0961V110.244H93.7381V101.354H90.4831V100.213H98.3371ZM98.4458 110.244V103.153H99.1598C99.2952 103.153 99.3885 103.179 99.4398 103.23C99.4912 103.281 99.5262 103.37 99.5448 103.496L99.6288 104.602C99.8715 104.107 100.17 103.722 100.525 103.447C100.884 103.167 101.304 103.027 101.785 103.027C101.981 103.027 102.158 103.05 102.317 103.097C102.475 103.139 102.622 103.2 102.758 103.279L102.597 104.21C102.564 104.327 102.492 104.385 102.38 104.385C102.314 104.385 102.214 104.364 102.079 104.322C101.943 104.275 101.754 104.252 101.512 104.252C101.078 104.252 100.714 104.378 100.42 104.63C100.13 104.882 99.8878 105.248 99.6918 105.729V110.244H98.4458ZM109.041 110.244H108.488C108.366 110.244 108.268 110.225 108.194 110.188C108.119 110.151 108.07 110.071 108.047 109.95L107.907 109.292C107.72 109.46 107.538 109.612 107.361 109.747C107.183 109.878 106.997 109.99 106.801 110.083C106.605 110.172 106.395 110.239 106.171 110.286C105.951 110.333 105.706 110.356 105.436 110.356C105.16 110.356 104.901 110.319 104.659 110.244C104.421 110.165 104.213 110.048 104.036 109.894C103.858 109.74 103.716 109.546 103.609 109.313C103.506 109.075 103.455 108.795 103.455 108.473C103.455 108.193 103.532 107.925 103.686 107.668C103.84 107.407 104.087 107.176 104.428 106.975C104.773 106.774 105.223 106.611 105.779 106.485C106.334 106.354 107.013 106.28 107.816 106.261V105.708C107.816 105.157 107.697 104.742 107.459 104.462C107.225 104.177 106.878 104.035 106.416 104.035C106.112 104.035 105.856 104.075 105.646 104.154C105.44 104.229 105.261 104.315 105.107 104.413C104.957 104.506 104.827 104.593 104.715 104.672C104.607 104.747 104.5 104.784 104.393 104.784C104.309 104.784 104.234 104.763 104.169 104.721C104.108 104.674 104.059 104.618 104.022 104.553L103.798 104.154C104.19 103.776 104.612 103.494 105.065 103.307C105.517 103.12 106.019 103.027 106.57 103.027C106.966 103.027 107.319 103.092 107.627 103.223C107.935 103.354 108.194 103.536 108.404 103.769C108.614 104.002 108.772 104.285 108.88 104.616C108.987 104.947 109.041 105.311 109.041 105.708V110.244ZM105.807 109.481C106.026 109.481 106.227 109.46 106.409 109.418C106.591 109.371 106.761 109.308 106.92 109.229C107.083 109.145 107.237 109.045 107.382 108.928C107.531 108.811 107.676 108.678 107.816 108.529V107.052C107.242 107.071 106.754 107.117 106.353 107.192C105.951 107.262 105.625 107.355 105.373 107.472C105.121 107.589 104.936 107.726 104.82 107.885C104.708 108.044 104.652 108.221 104.652 108.417C104.652 108.604 104.682 108.765 104.743 108.9C104.803 109.035 104.885 109.147 104.988 109.236C105.09 109.32 105.212 109.383 105.352 109.425C105.492 109.462 105.643 109.481 105.807 109.481ZM115.765 104.413C115.728 104.464 115.691 104.504 115.653 104.532C115.616 104.56 115.562 104.574 115.492 104.574C115.422 104.574 115.345 104.546 115.261 104.49C115.182 104.429 115.079 104.364 114.953 104.294C114.827 104.224 114.673 104.161 114.491 104.105C114.314 104.044 114.095 104.014 113.833 104.014C113.488 104.014 113.182 104.077 112.916 104.203C112.65 104.324 112.426 104.502 112.244 104.735C112.067 104.968 111.932 105.251 111.838 105.582C111.75 105.913 111.705 106.284 111.705 106.695C111.705 107.124 111.754 107.507 111.852 107.843C111.95 108.174 112.088 108.454 112.265 108.683C112.443 108.907 112.657 109.08 112.909 109.201C113.166 109.318 113.453 109.376 113.77 109.376C114.074 109.376 114.323 109.341 114.519 109.271C114.715 109.196 114.879 109.115 115.009 109.026C115.14 108.937 115.247 108.858 115.331 108.788C115.415 108.713 115.499 108.676 115.583 108.676C115.691 108.676 115.77 108.716 115.821 108.795L116.171 109.25C115.863 109.628 115.478 109.906 115.016 110.083C114.554 110.256 114.067 110.342 113.553 110.342C113.11 110.342 112.697 110.26 112.314 110.097C111.936 109.934 111.607 109.698 111.327 109.39C111.047 109.077 110.826 108.695 110.662 108.242C110.504 107.789 110.424 107.274 110.424 106.695C110.424 106.168 110.497 105.68 110.641 105.232C110.791 104.784 111.005 104.399 111.285 104.077C111.57 103.75 111.92 103.496 112.335 103.314C112.751 103.132 113.227 103.041 113.763 103.041C114.258 103.041 114.697 103.123 115.079 103.286C115.462 103.445 115.8 103.671 116.094 103.965L115.765 104.413ZM118.758 99.9331V106.002H119.08C119.174 106.002 119.251 105.99 119.311 105.967C119.372 105.939 119.44 105.885 119.514 105.806L121.754 103.405C121.824 103.33 121.894 103.27 121.964 103.223C122.034 103.176 122.128 103.153 122.244 103.153H123.378L120.767 105.932C120.702 106.011 120.637 106.081 120.571 106.142C120.511 106.203 120.441 106.256 120.361 106.303C120.445 106.359 120.52 106.424 120.585 106.499C120.655 106.569 120.721 106.651 120.781 106.744L123.553 110.244H122.433C122.331 110.244 122.242 110.225 122.167 110.188C122.097 110.146 122.03 110.083 121.964 109.999L119.633 107.094C119.563 106.996 119.493 106.933 119.423 106.905C119.353 106.872 119.248 106.856 119.108 106.856H118.758V110.244H117.505V99.9331H118.758ZM126.191 103.153V110.244H124.945V103.153H126.191ZM126.471 100.927C126.471 101.048 126.446 101.163 126.394 101.27C126.348 101.373 126.282 101.466 126.198 101.55C126.119 101.629 126.026 101.692 125.918 101.739C125.811 101.786 125.697 101.809 125.575 101.809C125.454 101.809 125.34 101.786 125.232 101.739C125.13 101.692 125.036 101.629 124.952 101.55C124.873 101.466 124.81 101.373 124.763 101.27C124.717 101.163 124.693 101.048 124.693 100.927C124.693 100.806 124.717 100.691 124.763 100.584C124.81 100.472 124.873 100.376 124.952 100.297C125.036 100.213 125.13 100.148 125.232 100.101C125.34 100.054 125.454 100.031 125.575 100.031C125.697 100.031 125.811 100.054 125.918 100.101C126.026 100.148 126.119 100.213 126.198 100.297C126.282 100.376 126.348 100.472 126.394 100.584C126.446 100.691 126.471 100.806 126.471 100.927ZM128.387 110.244V103.153H129.129C129.307 103.153 129.419 103.239 129.465 103.412L129.563 104.182C129.871 103.841 130.214 103.566 130.592 103.356C130.975 103.146 131.416 103.041 131.915 103.041C132.303 103.041 132.643 103.106 132.937 103.237C133.236 103.363 133.483 103.545 133.679 103.783C133.88 104.016 134.032 104.299 134.134 104.63C134.237 104.961 134.288 105.328 134.288 105.729V110.244H133.042V105.729C133.042 105.192 132.919 104.777 132.671 104.483C132.429 104.184 132.055 104.035 131.551 104.035C131.183 104.035 130.837 104.124 130.515 104.301C130.198 104.478 129.904 104.719 129.633 105.022V110.244H128.387ZM138.554 103.034C138.862 103.034 139.149 103.069 139.415 103.139C139.685 103.204 139.93 103.302 140.15 103.433H142.075V103.895C142.075 104.049 141.977 104.147 141.781 104.189L140.976 104.301C141.134 104.604 141.214 104.943 141.214 105.316C141.214 105.661 141.146 105.976 141.011 106.261C140.88 106.541 140.696 106.781 140.458 106.982C140.224 107.183 139.944 107.337 139.618 107.444C139.296 107.551 138.941 107.605 138.554 107.605C138.222 107.605 137.91 107.565 137.616 107.486C137.466 107.579 137.352 107.68 137.273 107.787C137.198 107.894 137.161 107.999 137.161 108.102C137.161 108.27 137.228 108.398 137.364 108.487C137.499 108.571 137.679 108.632 137.903 108.669C138.127 108.706 138.381 108.73 138.666 108.739C138.95 108.748 139.24 108.765 139.534 108.788C139.832 108.807 140.124 108.842 140.409 108.893C140.693 108.944 140.948 109.028 141.172 109.145C141.396 109.262 141.575 109.423 141.711 109.628C141.846 109.833 141.914 110.099 141.914 110.426C141.914 110.729 141.837 111.023 141.683 111.308C141.533 111.593 141.316 111.845 141.032 112.064C140.747 112.288 140.399 112.465 139.989 112.596C139.578 112.731 139.114 112.799 138.596 112.799C138.078 112.799 137.623 112.748 137.231 112.645C136.843 112.542 136.521 112.405 136.265 112.232C136.008 112.059 135.814 111.859 135.684 111.63C135.558 111.406 135.495 111.17 135.495 110.923C135.495 110.573 135.604 110.277 135.824 110.034C136.048 109.787 136.353 109.591 136.741 109.446C136.54 109.353 136.379 109.229 136.258 109.075C136.141 108.916 136.083 108.706 136.083 108.445C136.083 108.342 136.101 108.237 136.139 108.13C136.176 108.018 136.232 107.908 136.307 107.801C136.386 107.694 136.482 107.591 136.594 107.493C136.706 107.395 136.836 107.309 136.986 107.234C136.636 107.038 136.36 106.779 136.16 106.457C135.964 106.13 135.866 105.75 135.866 105.316C135.866 104.971 135.931 104.658 136.062 104.378C136.197 104.093 136.384 103.853 136.622 103.657C136.86 103.456 137.142 103.302 137.469 103.195C137.8 103.088 138.162 103.034 138.554 103.034ZM140.766 110.629C140.766 110.452 140.717 110.309 140.619 110.202C140.521 110.095 140.388 110.013 140.22 109.957C140.052 109.896 139.858 109.852 139.639 109.824C139.419 109.796 139.188 109.777 138.946 109.768C138.703 109.754 138.456 109.74 138.204 109.726C137.952 109.712 137.711 109.686 137.483 109.649C137.217 109.775 137 109.929 136.832 110.111C136.668 110.293 136.587 110.51 136.587 110.762C136.587 110.921 136.626 111.068 136.706 111.203C136.79 111.343 136.916 111.462 137.084 111.56C137.252 111.663 137.462 111.742 137.714 111.798C137.97 111.859 138.271 111.889 138.617 111.889C138.953 111.889 139.254 111.859 139.52 111.798C139.786 111.737 140.01 111.651 140.192 111.539C140.378 111.427 140.521 111.294 140.619 111.14C140.717 110.986 140.766 110.816 140.766 110.629ZM138.554 106.779C138.806 106.779 139.027 106.744 139.219 106.674C139.415 106.604 139.578 106.506 139.709 106.38C139.839 106.254 139.937 106.105 140.003 105.932C140.068 105.755 140.101 105.561 140.101 105.351C140.101 104.917 139.968 104.572 139.702 104.315C139.44 104.058 139.058 103.93 138.554 103.93C138.054 103.93 137.672 104.058 137.406 104.315C137.144 104.572 137.014 104.917 137.014 105.351C137.014 105.561 137.046 105.755 137.112 105.932C137.182 106.105 137.282 106.254 137.413 106.38C137.543 106.506 137.704 106.604 137.896 106.674C138.087 106.744 138.306 106.779 138.554 106.779Z" fill="black"/>
<defs>
<filter id="filter0_d_404_11766" x="0" y="0.245117" width="166" height="165.999" filterUnits="userSpaceOnUse" color-interpolation-filters="sRGB">
<feFlood flood-opacity="0" result="BackgroundImageFix"/>
<feColorMatrix in="SourceAlpha" type="matrix" values="0 0 0 0 0 0 0 0 0 0 0 0 0 0 0 0 0 0 127 0" result="hardAlpha"/>
<feOffset dy="4"/>
<feGaussianBlur stdDeviation="4"/>
<feComposite in2="hardAlpha" operator="out"/>
<feColorMatrix type="matrix" values="0 0 0 0 0 0 0 0 0 0 0 0 0 0 0 0 0 0 0.25 0"/>
<feBlend mode="normal" in2="BackgroundImageFix" result="effect1_dropShadow_404_11766"/>
<feBlend mode="normal" in="SourceGraphic" in2="effect1_dropShadow_404_11766" result="shape"/>
</filter>
</defs>
</svg>
