<svg width="166" height="167" viewBox="0 0 166 167" fill="none" xmlns="http://www.w3.org/2000/svg">
<g filter="url(#filter0_d_404_11794)">
<path d="M126 4.25342H40C22.3269 4.25342 8 18.5802 8 36.2531V122.252C8 139.925 22.3269 154.252 40 154.252H126C143.673 154.252 158 139.925 158 122.252V36.2531C158 18.5802 143.673 4.25342 126 4.25342Z" fill="#FFF4DF"/>
</g>
<rect x="63" y="44.2529" width="41" height="40.9996" rx="8" fill="#40DE9E"/>
<path d="M74.8837 73.2523C74.6347 73.259 74.387 73.2127 74.1559 73.1161C73.9247 73.0195 73.715 72.8747 73.5397 72.6906C73.3623 72.508 73.2228 72.2895 73.1298 72.0486C73.0368 71.8078 72.9921 71.5496 72.9987 71.2901V58.2141C72.9922 57.9549 73.0367 57.6971 73.1296 57.4566C73.2224 57.216 73.3615 56.9978 73.5384 56.8153C73.7138 56.6312 73.9235 56.4864 74.1546 56.3898C74.3858 56.2932 74.6335 56.2468 74.8825 56.2536H92.1137C92.3627 56.2468 92.6103 56.2932 92.8415 56.3898C93.0726 56.4864 93.2823 56.6312 93.4577 56.8153C93.6346 56.9978 93.7737 57.216 93.8665 57.4566C93.9594 57.6971 94.0039 57.9549 93.9974 58.2141V71.2901C94.0039 71.5492 93.9594 71.807 93.8665 72.0475C93.7737 72.2881 93.6346 72.5063 93.4577 72.6888C93.2823 72.8729 93.0726 73.0177 92.8415 73.1143C92.6103 73.2109 92.3627 73.2573 92.1137 73.2506L74.8837 73.2523ZM83.4991 64.8928L74.1655 58.541V71.2901C74.1622 71.3892 74.1785 71.488 74.2132 71.5804C74.2479 71.6728 74.3005 71.7568 74.3675 71.8273C74.4353 71.8971 74.516 71.9517 74.6048 71.9879C74.6935 72.024 74.7884 72.0409 74.8837 72.0375H92.1149C92.2102 72.0409 92.3051 72.024 92.3939 71.9879C92.4826 71.9517 92.5634 71.8971 92.6311 71.8273C92.6982 71.7568 92.7507 71.6728 92.7854 71.5804C92.8202 71.488 92.8364 71.3892 92.8331 71.2901V58.5406L83.4991 64.8928ZM83.4991 63.5377L92.4736 57.4666H74.5246L83.4991 63.5377ZM74.1655 58.5406V71.2901C74.1622 71.3892 74.1785 71.488 74.2132 71.5804C74.2479 71.6728 74.3005 71.7568 74.3675 71.8273C74.4353 71.8971 74.516 71.9517 74.6048 71.9879C74.6935 72.024 74.7884 72.0409 74.8837 72.0375H74.1655V58.5406Z" fill="black"/>
<path d="M37.5094 100.222V101.328H32.6934V104.66H36.5924V105.724H32.6934V109.147H37.5094V110.253H31.3284V100.222H37.5094ZM39.2671 110.253V103.162H40.0091C40.1865 103.162 40.2985 103.248 40.3451 103.421L40.4361 104.149C40.6975 103.827 40.9891 103.563 41.3111 103.358C41.6378 103.153 42.0158 103.05 42.4451 103.05C42.9258 103.05 43.3131 103.183 43.6071 103.449C43.9058 103.715 44.1205 104.074 44.2511 104.527C44.3491 104.27 44.4775 104.049 44.6361 103.862C44.7995 103.675 44.9815 103.521 45.1821 103.4C45.3828 103.279 45.5951 103.19 45.8191 103.134C46.0478 103.078 46.2788 103.05 46.5121 103.05C46.8855 103.05 47.2168 103.111 47.5061 103.232C47.8001 103.349 48.0475 103.521 48.2481 103.75C48.4535 103.979 48.6098 104.261 48.7171 104.597C48.8245 104.928 48.8781 105.309 48.8781 105.738V110.253H47.6321V105.738C47.6321 105.183 47.5108 104.763 47.2681 104.478C47.0255 104.189 46.6731 104.044 46.2111 104.044C46.0058 104.044 45.8098 104.081 45.6231 104.156C45.4411 104.226 45.2801 104.331 45.1401 104.471C45.0001 104.611 44.8881 104.788 44.8041 105.003C44.7248 105.213 44.6851 105.458 44.6851 105.738V110.253H43.4391V105.738C43.4391 105.169 43.3248 104.744 43.0961 104.464C42.8675 104.184 42.5338 104.044 42.0951 104.044C41.7871 104.044 41.5001 104.128 41.2341 104.296C40.9728 104.459 40.7325 104.683 40.5131 104.968V110.253H39.2671ZM55.9732 110.253H55.4202C55.2988 110.253 55.2008 110.234 55.1262 110.197C55.0515 110.16 55.0025 110.08 54.9792 109.959L54.8392 109.301C54.6525 109.469 54.4705 109.621 54.2932 109.756C54.1158 109.887 53.9292 109.999 53.7332 110.092C53.5372 110.181 53.3272 110.248 53.1032 110.295C52.8838 110.342 52.6388 110.365 52.3682 110.365C52.0928 110.365 51.8338 110.328 51.5912 110.253C51.3532 110.174 51.1455 110.057 50.9682 109.903C50.7908 109.749 50.6485 109.555 50.5412 109.322C50.4385 109.084 50.3872 108.804 50.3872 108.482C50.3872 108.202 50.4642 107.934 50.6182 107.677C50.7722 107.416 51.0195 107.185 51.3602 106.984C51.7055 106.783 52.1558 106.62 52.7112 106.494C53.2665 106.363 53.9455 106.289 54.7482 106.27V105.717C54.7482 105.166 54.6292 104.751 54.3912 104.471C54.1578 104.186 53.8102 104.044 53.3482 104.044C53.0448 104.044 52.7882 104.084 52.5782 104.163C52.3728 104.238 52.1932 104.324 52.0392 104.422C51.8898 104.515 51.7592 104.602 51.6472 104.681C51.5398 104.756 51.4325 104.793 51.3252 104.793C51.2412 104.793 51.1665 104.772 51.1012 104.73C51.0405 104.683 50.9915 104.627 50.9542 104.562L50.7302 104.163C51.1222 103.785 51.5445 103.503 51.9972 103.316C52.4498 103.129 52.9515 103.036 53.5022 103.036C53.8988 103.036 54.2512 103.101 54.5592 103.232C54.8672 103.363 55.1262 103.545 55.3362 103.778C55.5462 104.011 55.7048 104.294 55.8122 104.625C55.9195 104.956 55.9732 105.32 55.9732 105.717V110.253ZM52.7392 109.49C52.9585 109.49 53.1592 109.469 53.3412 109.427C53.5232 109.38 53.6935 109.317 53.8522 109.238C54.0155 109.154 54.1695 109.054 54.3142 108.937C54.4635 108.82 54.6082 108.687 54.7482 108.538V107.061C54.1742 107.08 53.6865 107.126 53.2852 107.201C52.8838 107.271 52.5572 107.364 52.3052 107.481C52.0532 107.598 51.8688 107.735 51.7522 107.894C51.6402 108.053 51.5842 108.23 51.5842 108.426C51.5842 108.613 51.6145 108.774 51.6752 108.909C51.7358 109.044 51.8175 109.156 51.9202 109.245C52.0228 109.329 52.1442 109.392 52.2842 109.434C52.4242 109.471 52.5758 109.49 52.7392 109.49ZM59.2469 103.162V110.253H58.0009V103.162H59.2469ZM59.5269 100.936C59.5269 101.057 59.5012 101.172 59.4499 101.279C59.4032 101.382 59.3379 101.475 59.2539 101.559C59.1745 101.638 59.0812 101.701 58.9739 101.748C58.8665 101.795 58.7522 101.818 58.6309 101.818C58.5095 101.818 58.3952 101.795 58.2879 101.748C58.1852 101.701 58.0919 101.638 58.0079 101.559C57.9285 101.475 57.8655 101.382 57.8189 101.279C57.7722 101.172 57.7489 101.057 57.7489 100.936C57.7489 100.815 57.7722 100.7 57.8189 100.593C57.8655 100.481 57.9285 100.385 58.0079 100.306C58.0919 100.222 58.1852 100.157 58.2879 100.11C58.3952 100.063 58.5095 100.04 58.6309 100.04C58.7522 100.04 58.8665 100.063 58.9739 100.11C59.0812 100.157 59.1745 100.222 59.2539 100.306C59.3379 100.385 59.4032 100.481 59.4499 100.593C59.5012 100.7 59.5269 100.815 59.5269 100.936ZM62.8289 99.9419V110.253H61.5829V99.9419H62.8289ZM70.539 103.05C70.9636 103.05 71.3556 103.122 71.715 103.267C72.0743 103.407 72.3846 103.612 72.646 103.883C72.9073 104.149 73.1103 104.48 73.255 104.877C73.4043 105.269 73.479 105.717 73.479 106.221C73.479 106.417 73.458 106.548 73.416 106.613C73.374 106.678 73.2946 106.711 73.178 106.711H68.46C68.4693 107.159 68.53 107.549 68.642 107.88C68.754 108.211 68.908 108.489 69.104 108.713C69.3 108.932 69.5333 109.098 69.804 109.21C70.0746 109.317 70.378 109.371 70.714 109.371C71.0266 109.371 71.295 109.336 71.519 109.266C71.7476 109.191 71.9436 109.112 72.107 109.028C72.2703 108.944 72.4056 108.867 72.513 108.797C72.625 108.722 72.7206 108.685 72.8 108.685C72.9026 108.685 72.982 108.725 73.038 108.804L73.388 109.259C73.234 109.446 73.0496 109.609 72.835 109.749C72.6203 109.884 72.3893 109.996 72.142 110.085C71.8993 110.174 71.6473 110.239 71.386 110.281C71.1246 110.328 70.8656 110.351 70.609 110.351C70.119 110.351 69.6663 110.269 69.251 110.106C68.8403 109.938 68.4833 109.695 68.18 109.378C67.8813 109.056 67.648 108.659 67.48 108.188C67.312 107.717 67.228 107.175 67.228 106.564C67.228 106.069 67.3026 105.607 67.452 105.178C67.606 104.749 67.8253 104.378 68.11 104.065C68.3946 103.748 68.7423 103.5 69.153 103.323C69.5636 103.141 70.0256 103.05 70.539 103.05ZM70.567 103.967C69.965 103.967 69.4913 104.142 69.146 104.492C68.8006 104.837 68.586 105.318 68.502 105.934H72.359C72.359 105.645 72.3193 105.381 72.24 105.143C72.1606 104.9 72.044 104.693 71.89 104.52C71.736 104.343 71.547 104.207 71.323 104.114C71.1036 104.016 70.8516 103.967 70.567 103.967ZM76.3089 106.62L73.9219 103.162H75.1189C75.2216 103.162 75.2963 103.178 75.3429 103.211C75.3896 103.244 75.4316 103.29 75.4689 103.351L77.2049 106.011C77.2469 105.88 77.3076 105.75 77.3869 105.619L78.9129 103.379C78.9596 103.314 79.0063 103.262 79.0529 103.225C79.0996 103.183 79.1579 103.162 79.2279 103.162H80.3759L77.9889 106.55L80.4739 110.253H79.2769C79.1743 110.253 79.0926 110.227 79.0319 110.176C78.9759 110.12 78.9293 110.059 78.8919 109.994L77.1069 107.215C77.0743 107.35 77.0253 107.472 76.9599 107.579L75.3079 109.994C75.2613 110.059 75.2099 110.12 75.1539 110.176C75.1026 110.227 75.0303 110.253 74.9369 110.253H73.8239L76.3089 106.62ZM81.7046 112.654V103.162H82.4466C82.624 103.162 82.736 103.248 82.7826 103.421L82.8876 104.261C83.191 103.892 83.5363 103.596 83.9236 103.372C84.3156 103.148 84.766 103.036 85.2746 103.036C85.6806 103.036 86.0493 103.115 86.3806 103.274C86.712 103.428 86.9943 103.659 87.2276 103.967C87.461 104.27 87.6406 104.648 87.7666 105.101C87.8926 105.554 87.9556 106.074 87.9556 106.662C87.9556 107.185 87.8856 107.672 87.7456 108.125C87.6056 108.573 87.405 108.963 87.1436 109.294C86.8823 109.621 86.5603 109.88 86.1776 110.071C85.7996 110.258 85.3726 110.351 84.8966 110.351C84.458 110.351 84.0823 110.279 83.7696 110.134C83.4616 109.989 83.1886 109.784 82.9506 109.518V112.654H81.7046ZM84.8616 104.044C84.4556 104.044 84.0986 104.137 83.7906 104.324C83.4873 104.511 83.2073 104.774 82.9506 105.115V108.545C83.1793 108.853 83.429 109.07 83.6996 109.196C83.975 109.322 84.2806 109.385 84.6166 109.385C85.2746 109.385 85.781 109.149 86.1356 108.678C86.4903 108.207 86.6676 107.535 86.6676 106.662C86.6676 106.2 86.6256 105.803 86.5416 105.472C86.4623 105.141 86.3456 104.87 86.1916 104.66C86.0376 104.445 85.8486 104.289 85.6246 104.191C85.4006 104.093 85.1463 104.044 84.8616 104.044ZM92.2362 103.05C92.6609 103.05 93.0529 103.122 93.4122 103.267C93.7716 103.407 94.0819 103.612 94.3432 103.883C94.6046 104.149 94.8076 104.48 94.9522 104.877C95.1016 105.269 95.1762 105.717 95.1762 106.221C95.1762 106.417 95.1552 106.548 95.1132 106.613C95.0712 106.678 94.9919 106.711 94.8752 106.711H90.1572C90.1666 107.159 90.2272 107.549 90.3392 107.88C90.4512 108.211 90.6052 108.489 90.8012 108.713C90.9972 108.932 91.2306 109.098 91.5012 109.21C91.7719 109.317 92.0752 109.371 92.4112 109.371C92.7239 109.371 92.9922 109.336 93.2162 109.266C93.4449 109.191 93.6409 109.112 93.8042 109.028C93.9676 108.944 94.1029 108.867 94.2102 108.797C94.3222 108.722 94.4179 108.685 94.4972 108.685C94.5999 108.685 94.6792 108.725 94.7352 108.804L95.0852 109.259C94.9312 109.446 94.7469 109.609 94.5322 109.749C94.3176 109.884 94.0866 109.996 93.8392 110.085C93.5966 110.174 93.3446 110.239 93.0832 110.281C92.8219 110.328 92.5629 110.351 92.3062 110.351C91.8162 110.351 91.3636 110.269 90.9482 110.106C90.5376 109.938 90.1806 109.695 89.8772 109.378C89.5786 109.056 89.3452 108.659 89.1772 108.188C89.0092 107.717 88.9252 107.175 88.9252 106.564C88.9252 106.069 88.9999 105.607 89.1492 105.178C89.3032 104.749 89.5226 104.378 89.8072 104.065C90.0919 103.748 90.4396 103.5 90.8502 103.323C91.2609 103.141 91.7229 103.05 92.2362 103.05ZM92.2642 103.967C91.6622 103.967 91.1886 104.142 90.8432 104.492C90.4979 104.837 90.2832 105.318 90.1992 105.934H94.0562C94.0562 105.645 94.0166 105.381 93.9372 105.143C93.8579 104.9 93.7412 104.693 93.5872 104.52C93.4332 104.343 93.2442 104.207 93.0202 104.114C92.8009 104.016 92.5489 103.967 92.2642 103.967ZM96.771 110.253V103.162H97.485C97.6204 103.162 97.7137 103.188 97.765 103.239C97.8164 103.29 97.8514 103.379 97.87 103.505L97.954 104.611C98.1967 104.116 98.4954 103.731 98.85 103.456C99.2094 103.176 99.6294 103.036 100.11 103.036C100.306 103.036 100.483 103.059 100.642 103.106C100.801 103.148 100.948 103.209 101.083 103.288L100.922 104.219C100.889 104.336 100.817 104.394 100.705 104.394C100.64 104.394 100.539 104.373 100.404 104.331C100.269 104.284 100.08 104.261 99.837 104.261C99.403 104.261 99.039 104.387 98.745 104.639C98.4557 104.891 98.213 105.257 98.017 105.738V110.253H96.771ZM103.804 103.162V110.253H102.558V103.162H103.804ZM104.084 100.936C104.084 101.057 104.058 101.172 104.007 101.279C103.96 101.382 103.895 101.475 103.811 101.559C103.731 101.638 103.638 101.701 103.531 101.748C103.423 101.795 103.309 101.818 103.188 101.818C103.066 101.818 102.952 101.795 102.845 101.748C102.742 101.701 102.649 101.638 102.565 101.559C102.485 101.475 102.422 101.382 102.376 101.279C102.329 101.172 102.306 101.057 102.306 100.936C102.306 100.815 102.329 100.7 102.376 100.593C102.422 100.481 102.485 100.385 102.565 100.306C102.649 100.222 102.742 100.157 102.845 100.11C102.952 100.063 103.066 100.04 103.188 100.04C103.309 100.04 103.423 100.063 103.531 100.11C103.638 100.157 103.731 100.222 103.811 100.306C103.895 100.385 103.96 100.481 104.007 100.593C104.058 100.7 104.084 100.815 104.084 100.936ZM106 110.253V103.162H106.742C106.919 103.162 107.031 103.248 107.078 103.421L107.169 104.149C107.43 103.827 107.722 103.563 108.044 103.358C108.37 103.153 108.748 103.05 109.178 103.05C109.658 103.05 110.046 103.183 110.34 103.449C110.638 103.715 110.853 104.074 110.984 104.527C111.082 104.27 111.21 104.049 111.369 103.862C111.532 103.675 111.714 103.521 111.915 103.4C112.115 103.279 112.328 103.19 112.552 103.134C112.78 103.078 113.011 103.05 113.245 103.05C113.618 103.05 113.949 103.111 114.239 103.232C114.533 103.349 114.78 103.521 114.981 103.75C115.186 103.979 115.342 104.261 115.45 104.597C115.557 104.928 115.611 105.309 115.611 105.738V110.253H114.365V105.738C114.365 105.183 114.243 104.763 114.001 104.478C113.758 104.189 113.406 104.044 112.944 104.044C112.738 104.044 112.542 104.081 112.356 104.156C112.174 104.226 112.013 104.331 111.873 104.471C111.733 104.611 111.621 104.788 111.537 105.003C111.457 105.213 111.418 105.458 111.418 105.738V110.253H110.172V105.738C110.172 105.169 110.057 104.744 109.829 104.464C109.6 104.184 109.266 104.044 108.828 104.044C108.52 104.044 108.233 104.128 107.967 104.296C107.705 104.459 107.465 104.683 107.246 104.968V110.253H106ZM120.305 103.05C120.729 103.05 121.121 103.122 121.481 103.267C121.84 103.407 122.15 103.612 122.412 103.883C122.673 104.149 122.876 104.48 123.021 104.877C123.17 105.269 123.245 105.717 123.245 106.221C123.245 106.417 123.224 106.548 123.182 106.613C123.14 106.678 123.06 106.711 122.944 106.711H118.226C118.235 107.159 118.296 107.549 118.408 107.88C118.52 108.211 118.674 108.489 118.87 108.713C119.066 108.932 119.299 109.098 119.57 109.21C119.84 109.317 120.144 109.371 120.48 109.371C120.792 109.371 121.061 109.336 121.285 109.266C121.513 109.191 121.709 109.112 121.873 109.028C122.036 108.944 122.171 108.867 122.279 108.797C122.391 108.722 122.486 108.685 122.566 108.685C122.668 108.685 122.748 108.725 122.804 108.804L123.154 109.259C123 109.446 122.815 109.609 122.601 109.749C122.386 109.884 122.155 109.996 121.908 110.085C121.665 110.174 121.413 110.239 121.152 110.281C120.89 110.328 120.631 110.351 120.375 110.351C119.885 110.351 119.432 110.269 119.017 110.106C118.606 109.938 118.249 109.695 117.946 109.378C117.647 109.056 117.414 108.659 117.246 108.188C117.078 107.717 116.994 107.175 116.994 106.564C116.994 106.069 117.068 105.607 117.218 105.178C117.372 104.749 117.591 104.378 117.876 104.065C118.16 103.748 118.508 103.5 118.919 103.323C119.329 103.141 119.791 103.05 120.305 103.05ZM120.333 103.967C119.731 103.967 119.257 104.142 118.912 104.492C118.566 104.837 118.352 105.318 118.268 105.934H122.125C122.125 105.645 122.085 105.381 122.006 105.143C121.926 104.9 121.81 104.693 121.656 104.52C121.502 104.343 121.313 104.207 121.089 104.114C120.869 104.016 120.617 103.967 120.333 103.967ZM124.839 110.253V103.162H125.581C125.759 103.162 125.871 103.248 125.917 103.421L126.015 104.191C126.323 103.85 126.666 103.575 127.044 103.365C127.427 103.155 127.868 103.05 128.367 103.05C128.755 103.05 129.095 103.115 129.389 103.246C129.688 103.372 129.935 103.554 130.131 103.792C130.332 104.025 130.484 104.308 130.586 104.639C130.689 104.97 130.74 105.337 130.74 105.738V110.253H129.494V105.738C129.494 105.201 129.371 104.786 129.123 104.492C128.881 104.193 128.507 104.044 128.003 104.044C127.635 104.044 127.289 104.133 126.967 104.31C126.65 104.487 126.356 104.728 126.085 105.031V110.253H124.839ZM134.768 110.365C134.208 110.365 133.776 110.209 133.473 109.896C133.174 109.583 133.025 109.133 133.025 108.545V104.205H132.171C132.096 104.205 132.033 104.184 131.982 104.142C131.93 104.095 131.905 104.025 131.905 103.932V103.435L133.067 103.288L133.354 101.097C133.363 101.027 133.393 100.971 133.445 100.929C133.496 100.882 133.561 100.859 133.641 100.859H134.271V103.302H136.301V104.205H134.271V108.461C134.271 108.76 134.343 108.981 134.488 109.126C134.632 109.271 134.819 109.343 135.048 109.343C135.178 109.343 135.29 109.327 135.384 109.294C135.482 109.257 135.566 109.217 135.636 109.175C135.706 109.133 135.764 109.096 135.811 109.063C135.862 109.026 135.906 109.007 135.944 109.007C136.009 109.007 136.067 109.047 136.119 109.126L136.483 109.721C136.268 109.922 136.009 110.08 135.706 110.197C135.402 110.309 135.09 110.365 134.768 110.365ZM141.901 104.331C141.845 104.434 141.759 104.485 141.642 104.485C141.572 104.485 141.493 104.459 141.404 104.408C141.316 104.357 141.206 104.301 141.075 104.24C140.949 104.175 140.798 104.116 140.62 104.065C140.443 104.009 140.233 103.981 139.99 103.981C139.78 103.981 139.591 104.009 139.423 104.065C139.255 104.116 139.111 104.189 138.989 104.282C138.873 104.375 138.782 104.485 138.716 104.611C138.656 104.732 138.625 104.865 138.625 105.01C138.625 105.192 138.677 105.344 138.779 105.465C138.887 105.586 139.027 105.691 139.199 105.78C139.372 105.869 139.568 105.948 139.787 106.018C140.007 106.083 140.231 106.156 140.459 106.235C140.693 106.31 140.919 106.394 141.138 106.487C141.358 106.58 141.554 106.697 141.726 106.837C141.899 106.977 142.037 107.15 142.139 107.355C142.247 107.556 142.3 107.798 142.3 108.083C142.3 108.41 142.242 108.713 142.125 108.993C142.009 109.268 141.836 109.509 141.607 109.714C141.379 109.915 141.099 110.073 140.767 110.19C140.436 110.307 140.053 110.365 139.619 110.365C139.125 110.365 138.677 110.286 138.275 110.127C137.874 109.964 137.533 109.756 137.253 109.504L137.547 109.028C137.585 108.967 137.629 108.921 137.68 108.888C137.732 108.855 137.799 108.839 137.883 108.839C137.967 108.839 138.056 108.872 138.149 108.937C138.243 109.002 138.355 109.075 138.485 109.154C138.621 109.233 138.782 109.306 138.968 109.371C139.16 109.436 139.398 109.469 139.682 109.469C139.925 109.469 140.137 109.439 140.319 109.378C140.501 109.313 140.653 109.226 140.774 109.119C140.896 109.012 140.984 108.888 141.04 108.748C141.101 108.608 141.131 108.459 141.131 108.3C141.131 108.104 141.078 107.943 140.97 107.817C140.868 107.686 140.73 107.577 140.557 107.488C140.385 107.395 140.186 107.315 139.962 107.25C139.743 107.18 139.517 107.108 139.283 107.033C139.055 106.958 138.828 106.874 138.604 106.781C138.385 106.683 138.189 106.562 138.016 106.417C137.844 106.272 137.704 106.095 137.596 105.885C137.494 105.67 137.442 105.411 137.442 105.108C137.442 104.837 137.498 104.578 137.61 104.331C137.722 104.079 137.886 103.86 138.1 103.673C138.315 103.482 138.579 103.33 138.891 103.218C139.204 103.106 139.561 103.05 139.962 103.05C140.429 103.05 140.847 103.125 141.215 103.274C141.589 103.419 141.911 103.619 142.181 103.876L141.901 104.331Z" fill="black"/>
<defs>
<filter id="filter0_d_404_11794" x="0" y="0.253418" width="166" height="165.999" filterUnits="userSpaceOnUse" color-interpolation-filters="sRGB">
<feFlood flood-opacity="0" result="BackgroundImageFix"/>
<feColorMatrix in="SourceAlpha" type="matrix" values="0 0 0 0 0 0 0 0 0 0 0 0 0 0 0 0 0 0 127 0" result="hardAlpha"/>
<feOffset dy="4"/>
<feGaussianBlur stdDeviation="4"/>
<feComposite in2="hardAlpha" operator="out"/>
<feColorMatrix type="matrix" values="0 0 0 0 0 0 0 0 0 0 0 0 0 0 0 0 0 0 0.25 0"/>
<feBlend mode="normal" in2="BackgroundImageFix" result="effect1_dropShadow_404_11794"/>
<feBlend mode="normal" in="SourceGraphic" in2="effect1_dropShadow_404_11794" result="shape"/>
</filter>
</defs>
</svg>
