<svg width="151" height="151" viewBox="0 0 151 151" fill="none" xmlns="http://www.w3.org/2000/svg">
<path d="M118.055 0.269531H32.0547C14.3816 0.269531 0.0546875 14.5963 0.0546875 32.2692V118.268C0.0546875 135.941 14.3816 150.268 32.0547 150.268H118.055C135.728 150.268 150.055 135.941 150.055 118.268V32.2692C150.055 14.5963 135.728 0.269531 118.055 0.269531Z" fill="#EDDEC2"/>
<rect x="55.0547" y="40.269" width="41" height="40.9996" rx="8" fill="#8CCDF0"/>
<path d="M66.9404 68.2684C66.6914 68.2748 66.4437 68.2312 66.2125 68.1403C65.9814 68.0493 65.7717 67.9131 65.5963 67.7398C65.419 67.5679 65.2795 67.3623 65.1864 67.1356C65.0934 66.9089 65.0488 66.6659 65.0553 66.4217V54.1148C65.0488 53.8709 65.0933 53.6283 65.1862 53.4019C65.279 53.1755 65.4181 52.9701 65.595 52.7983C65.7704 52.625 65.9801 52.4888 66.2112 52.3978C66.4424 52.3069 66.6901 52.2633 66.9391 52.2697H84.1703C84.4193 52.2633 84.667 52.3069 84.8981 52.3978C85.1293 52.4888 85.339 52.625 85.5144 52.7983C85.6912 52.9701 85.8304 53.1755 85.9232 53.4019C86.016 53.6283 86.0605 53.8709 86.0541 54.1148V66.4217C86.0605 66.6655 86.016 66.9082 85.9232 67.1346C85.8304 67.361 85.6912 67.5664 85.5144 67.7381C85.339 67.9114 85.1293 68.0477 84.8981 68.1386C84.667 68.2295 84.4193 68.2731 84.1703 68.2668L66.9404 68.2684ZM66.9404 67.1256H79.0562V62.6865H66.2221V66.4225C66.224 66.5138 66.2448 66.6038 66.2834 66.687C66.322 66.7702 66.3774 66.8448 66.4464 66.9063C66.5092 66.9738 66.5854 67.028 66.6703 67.0657C66.7553 67.1034 66.8471 67.1238 66.9404 67.1256ZM80.223 67.1256H84.1711C84.2644 67.1237 84.3563 67.1033 84.4412 67.0656C84.5261 67.0278 84.6023 66.9735 84.6651 66.9059C84.7341 66.8444 84.7895 66.7698 84.8281 66.6866C84.8667 66.6034 84.8875 66.5134 84.8894 66.4221V57.1041H80.2226L80.223 67.1256ZM66.2225 61.5436H79.0566V57.1041H66.2221L66.2225 61.5436Z" fill="black"/>
<path d="M36.9217 105.128H41.2617V106.269H35.5637V96.2376H36.9217V105.128ZM47.7671 106.269H47.2141C47.0928 106.269 46.9948 106.25 46.9201 106.213C46.8454 106.175 46.7964 106.096 46.7731 105.975L46.6331 105.317C46.4464 105.485 46.2644 105.636 46.0871 105.772C45.9098 105.902 45.7231 106.014 45.5271 106.108C45.3311 106.196 45.1211 106.264 44.8971 106.311C44.6778 106.357 44.4328 106.381 44.1621 106.381C43.8868 106.381 43.6278 106.343 43.3851 106.269C43.1471 106.189 42.9394 106.073 42.7621 105.919C42.5848 105.765 42.4424 105.571 42.3351 105.338C42.2324 105.1 42.1811 104.82 42.1811 104.498C42.1811 104.218 42.2581 103.949 42.4121 103.693C42.5661 103.431 42.8134 103.2 43.1541 103C43.4994 102.799 43.9498 102.636 44.5051 102.51C45.0604 102.379 45.7394 102.304 46.5421 102.286V101.733C46.5421 101.182 46.4231 100.767 46.1851 100.487C45.9518 100.202 45.6041 100.06 45.1421 100.06C44.8388 100.06 44.5821 100.099 44.3721 100.179C44.1668 100.253 43.9871 100.34 43.8331 100.438C43.6838 100.531 43.5531 100.617 43.4411 100.697C43.3338 100.771 43.2264 100.809 43.1191 100.809C43.0351 100.809 42.9604 100.788 42.8951 100.746C42.8344 100.699 42.7854 100.643 42.7481 100.578L42.5241 100.179C42.9161 99.8006 43.3384 99.5182 43.7911 99.3316C44.2438 99.1449 44.7454 99.0516 45.2961 99.0516C45.6928 99.0516 46.0451 99.1169 46.3531 99.2476C46.6611 99.3782 46.9201 99.5602 47.1301 99.7936C47.3401 100.027 47.4988 100.309 47.6061 100.641C47.7134 100.972 47.7671 101.336 47.7671 101.733V106.269ZM44.5331 105.506C44.7524 105.506 44.9531 105.485 45.1351 105.443C45.3171 105.396 45.4874 105.333 45.6461 105.254C45.8094 105.17 45.9634 105.069 46.1081 104.953C46.2574 104.836 46.4021 104.703 46.5421 104.554V103.077C45.9681 103.095 45.4804 103.142 45.0791 103.217C44.6778 103.287 44.3511 103.38 44.0991 103.497C43.8471 103.613 43.6628 103.751 43.5461 103.91C43.4341 104.068 43.3781 104.246 43.3781 104.442C43.3781 104.628 43.4084 104.789 43.4691 104.925C43.5298 105.06 43.6114 105.172 43.7141 105.261C43.8168 105.345 43.9381 105.408 44.0781 105.45C44.2181 105.487 44.3698 105.506 44.5331 105.506ZM49.6548 106.269V99.1776H50.3968C50.5741 99.1776 50.6861 99.2639 50.7328 99.4366L50.8308 100.207C51.1388 99.8659 51.4818 99.5906 51.8598 99.3806C52.2425 99.1706 52.6835 99.0656 53.1828 99.0656C53.5701 99.0656 53.9108 99.1309 54.2048 99.2616C54.5035 99.3876 54.7508 99.5696 54.9468 99.8076C55.1475 100.041 55.2991 100.323 55.4018 100.655C55.5045 100.986 55.5558 101.352 55.5558 101.754V106.269H54.3098V101.754C54.3098 101.217 54.1861 100.802 53.9388 100.508C53.6961 100.209 53.3228 100.06 52.8188 100.06C52.4501 100.06 52.1048 100.148 51.7828 100.326C51.4655 100.503 51.1715 100.743 50.9008 101.047V106.269H49.6548ZM62.4251 106.269C62.2478 106.269 62.1358 106.182 62.0891 106.01L61.9771 105.149C61.6738 105.517 61.3261 105.814 60.9341 106.038C60.5468 106.257 60.1011 106.367 59.5971 106.367C59.1911 106.367 58.8224 106.29 58.4911 106.136C58.1598 105.977 57.8774 105.746 57.6441 105.443C57.4108 105.139 57.2311 104.761 57.1051 104.309C56.9791 103.856 56.9161 103.336 56.9161 102.748C56.9161 102.225 56.9861 101.74 57.1261 101.292C57.2661 100.839 57.4668 100.447 57.7281 100.116C57.9941 99.7842 58.3161 99.5252 58.6941 99.3386C59.0721 99.1472 59.5014 99.0516 59.9821 99.0516C60.4161 99.0516 60.7871 99.1262 61.0951 99.2756C61.4031 99.4202 61.6784 99.6256 61.9211 99.8916V95.9576H63.1671V106.269H62.4251ZM60.0101 105.359C60.4161 105.359 60.7708 105.265 61.0741 105.079C61.3821 104.892 61.6644 104.628 61.9211 104.288V100.858C61.6924 100.55 61.4404 100.335 61.1651 100.214C60.8944 100.088 60.5934 100.025 60.2621 100.025C59.5994 100.025 59.0908 100.26 58.7361 100.732C58.3814 101.203 58.2041 101.875 58.2041 102.748C58.2041 103.21 58.2438 103.606 58.3231 103.938C58.4024 104.264 58.5191 104.535 58.6731 104.75C58.8271 104.96 59.0161 105.114 59.2401 105.212C59.4641 105.31 59.7208 105.359 60.0101 105.359ZM66.6404 99.1776V106.269H65.3944V99.1776H66.6404ZM66.9204 96.9516C66.9204 97.0729 66.8948 97.1872 66.8434 97.2946C66.7968 97.3972 66.7314 97.4906 66.6474 97.5746C66.5681 97.6539 66.4748 97.7169 66.3674 97.7636C66.2601 97.8102 66.1458 97.8336 66.0244 97.8336C65.9031 97.8336 65.7888 97.8102 65.6814 97.7636C65.5788 97.7169 65.4854 97.6539 65.4014 97.5746C65.3221 97.4906 65.2591 97.3972 65.2124 97.2946C65.1658 97.1872 65.1424 97.0729 65.1424 96.9516C65.1424 96.8302 65.1658 96.7159 65.2124 96.6086C65.2591 96.4966 65.3221 96.4009 65.4014 96.3216C65.4854 96.2376 65.5788 96.1722 65.6814 96.1256C65.7888 96.0789 65.9031 96.0556 66.0244 96.0556C66.1458 96.0556 66.2601 96.0789 66.3674 96.1256C66.4748 96.1722 66.5681 96.2376 66.6474 96.3216C66.7314 96.4009 66.7968 96.4966 66.8434 96.6086C66.8948 96.7159 66.9204 96.8302 66.9204 96.9516ZM68.8365 106.269V99.1776H69.5785C69.7558 99.1776 69.8678 99.2639 69.9145 99.4366L70.0125 100.207C70.3205 99.8659 70.6635 99.5906 71.0415 99.3806C71.4241 99.1706 71.8651 99.0656 72.3645 99.0656C72.7518 99.0656 73.0925 99.1309 73.3865 99.2616C73.6851 99.3876 73.9325 99.5696 74.1285 99.8076C74.3291 100.041 74.4808 100.323 74.5835 100.655C74.6861 100.986 74.7375 101.352 74.7375 101.754V106.269H73.4915V101.754C73.4915 101.217 73.3678 100.802 73.1205 100.508C72.8778 100.209 72.5045 100.06 72.0005 100.06C71.6318 100.06 71.2865 100.148 70.9645 100.326C70.6471 100.503 70.3531 100.743 70.0825 101.047V106.269H68.8365ZM79.0028 99.0586C79.3108 99.0586 79.5978 99.0936 79.8638 99.1636C80.1344 99.2289 80.3794 99.3269 80.5988 99.4576H82.5238V99.9196C82.5238 100.074 82.4258 100.172 82.2298 100.214L81.4248 100.326C81.5834 100.629 81.6628 100.967 81.6628 101.341C81.6628 101.686 81.5951 102.001 81.4598 102.286C81.3291 102.566 81.1448 102.806 80.9068 103.007C80.6734 103.207 80.3934 103.361 80.0668 103.469C79.7448 103.576 79.3901 103.63 79.0028 103.63C78.6714 103.63 78.3588 103.59 78.0648 103.511C77.9154 103.604 77.8011 103.704 77.7218 103.812C77.6471 103.919 77.6098 104.024 77.6098 104.127C77.6098 104.295 77.6774 104.423 77.8128 104.512C77.9481 104.596 78.1278 104.656 78.3518 104.694C78.5758 104.731 78.8301 104.754 79.1148 104.764C79.3994 104.773 79.6888 104.789 79.9828 104.813C80.2814 104.831 80.5731 104.866 80.8578 104.918C81.1424 104.969 81.3968 105.053 81.6208 105.17C81.8448 105.286 82.0244 105.447 82.1598 105.653C82.2951 105.858 82.3628 106.124 82.3628 106.451C82.3628 106.754 82.2858 107.048 82.1318 107.333C81.9824 107.617 81.7654 107.869 81.4808 108.089C81.1961 108.313 80.8484 108.49 80.4378 108.621C80.0271 108.756 79.5628 108.824 79.0448 108.824C78.5268 108.824 78.0718 108.772 77.6798 108.67C77.2924 108.567 76.9704 108.429 76.7138 108.257C76.4571 108.084 76.2634 107.883 76.1328 107.655C76.0068 107.431 75.9438 107.195 75.9438 106.948C75.9438 106.598 76.0534 106.301 76.2728 106.059C76.4968 105.811 76.8024 105.615 77.1898 105.471C76.9891 105.377 76.8281 105.254 76.7068 105.1C76.5901 104.941 76.5318 104.731 76.5318 104.47C76.5318 104.367 76.5504 104.262 76.5878 104.155C76.6251 104.043 76.6811 103.933 76.7558 103.826C76.8351 103.718 76.9308 103.616 77.0428 103.518C77.1548 103.42 77.2854 103.333 77.4348 103.259C77.0848 103.063 76.8094 102.804 76.6088 102.482C76.4128 102.155 76.3148 101.775 76.3148 101.341C76.3148 100.995 76.3801 100.683 76.5108 100.403C76.6461 100.118 76.8328 99.8776 77.0708 99.6816C77.3088 99.4809 77.5911 99.3269 77.9178 99.2196C78.2491 99.1122 78.6108 99.0586 79.0028 99.0586ZM81.2148 106.654C81.2148 106.476 81.1658 106.334 81.0678 106.227C80.9698 106.119 80.8368 106.038 80.6688 105.982C80.5008 105.921 80.3071 105.877 80.0878 105.849C79.8684 105.821 79.6374 105.802 79.3948 105.793C79.1521 105.779 78.9048 105.765 78.6528 105.751C78.4008 105.737 78.1604 105.711 77.9318 105.674C77.6658 105.8 77.4488 105.954 77.2808 106.136C77.1174 106.318 77.0358 106.535 77.0358 106.787C77.0358 106.945 77.0754 107.092 77.1548 107.228C77.2388 107.368 77.3648 107.487 77.5328 107.585C77.7008 107.687 77.9108 107.767 78.1628 107.823C78.4194 107.883 78.7204 107.914 79.0658 107.914C79.4018 107.914 79.7028 107.883 79.9688 107.823C80.2348 107.762 80.4588 107.676 80.6408 107.564C80.8274 107.452 80.9698 107.319 81.0678 107.165C81.1658 107.011 81.2148 106.84 81.2148 106.654ZM79.0028 102.804C79.2548 102.804 79.4764 102.769 79.6678 102.699C79.8638 102.629 80.0271 102.531 80.1578 102.405C80.2884 102.279 80.3864 102.129 80.4518 101.957C80.5171 101.779 80.5498 101.586 80.5498 101.376C80.5498 100.942 80.4168 100.596 80.1508 100.34C79.8894 100.083 79.5068 99.9546 79.0028 99.9546C78.5034 99.9546 78.1208 100.083 77.8548 100.34C77.5934 100.596 77.4628 100.942 77.4628 101.376C77.4628 101.586 77.4954 101.779 77.5608 101.957C77.6308 102.129 77.7311 102.279 77.8618 102.405C77.9924 102.531 78.1534 102.629 78.3448 102.699C78.5361 102.769 78.7554 102.804 79.0028 102.804ZM86.4732 108.67V99.1776H87.2152C87.3925 99.1776 87.5045 99.2639 87.5512 99.4366L87.6562 100.277C87.9595 99.9079 88.3048 99.6116 88.6922 99.3876C89.0842 99.1636 89.5345 99.0516 90.0432 99.0516C90.4492 99.0516 90.8178 99.1309 91.1492 99.2896C91.4805 99.4436 91.7628 99.6746 91.9962 99.9826C92.2295 100.286 92.4092 100.664 92.5352 101.117C92.6612 101.569 92.7242 102.09 92.7242 102.678C92.7242 103.2 92.6542 103.688 92.5142 104.141C92.3742 104.589 92.1735 104.978 91.9122 105.31C91.6508 105.636 91.3288 105.895 90.9462 106.087C90.5682 106.273 90.1412 106.367 89.6652 106.367C89.2265 106.367 88.8508 106.294 88.5382 106.15C88.2302 106.005 87.9572 105.8 87.7192 105.534V108.67H86.4732ZM89.6302 100.06C89.2242 100.06 88.8672 100.153 88.5592 100.34C88.2558 100.526 87.9758 100.79 87.7192 101.131V104.561C87.9478 104.869 88.1975 105.086 88.4682 105.212C88.7435 105.338 89.0492 105.401 89.3852 105.401C90.0432 105.401 90.5495 105.165 90.9042 104.694C91.2588 104.222 91.4362 103.55 91.4362 102.678C91.4362 102.216 91.3942 101.819 91.3102 101.488C91.2308 101.156 91.1142 100.886 90.9602 100.676C90.8062 100.461 90.6172 100.305 90.3932 100.207C90.1692 100.109 89.9148 100.06 89.6302 100.06ZM99.4058 106.269H98.8528C98.7314 106.269 98.6334 106.25 98.5588 106.213C98.4841 106.175 98.4351 106.096 98.4118 105.975L98.2718 105.317C98.0851 105.485 97.9031 105.636 97.7258 105.772C97.5484 105.902 97.3618 106.014 97.1658 106.108C96.9698 106.196 96.7598 106.264 96.5358 106.311C96.3164 106.357 96.0714 106.381 95.8008 106.381C95.5254 106.381 95.2664 106.343 95.0238 106.269C94.7858 106.189 94.5781 106.073 94.4008 105.919C94.2234 105.765 94.0811 105.571 93.9738 105.338C93.8711 105.1 93.8198 104.82 93.8198 104.498C93.8198 104.218 93.8968 103.949 94.0508 103.693C94.2048 103.431 94.4521 103.2 94.7928 103C95.1381 102.799 95.5884 102.636 96.1438 102.51C96.6991 102.379 97.3781 102.304 98.1808 102.286V101.733C98.1808 101.182 98.0618 100.767 97.8238 100.487C97.5904 100.202 97.2428 100.06 96.7808 100.06C96.4774 100.06 96.2208 100.099 96.0108 100.179C95.8054 100.253 95.6258 100.34 95.4718 100.438C95.3224 100.531 95.1918 100.617 95.0798 100.697C94.9724 100.771 94.8651 100.809 94.7578 100.809C94.6738 100.809 94.5991 100.788 94.5338 100.746C94.4731 100.699 94.4241 100.643 94.3868 100.578L94.1628 100.179C94.5548 99.8006 94.9771 99.5182 95.4298 99.3316C95.8824 99.1449 96.3841 99.0516 96.9348 99.0516C97.3314 99.0516 97.6838 99.1169 97.9918 99.2476C98.2998 99.3782 98.5588 99.5602 98.7688 99.7936C98.9788 100.027 99.1374 100.309 99.2448 100.641C99.3521 100.972 99.4058 101.336 99.4058 101.733V106.269ZM96.1718 105.506C96.3911 105.506 96.5918 105.485 96.7738 105.443C96.9558 105.396 97.1261 105.333 97.2848 105.254C97.4481 105.17 97.6021 105.069 97.7468 104.953C97.8961 104.836 98.0408 104.703 98.1808 104.554V103.077C97.6068 103.095 97.1191 103.142 96.7178 103.217C96.3164 103.287 95.9898 103.38 95.7378 103.497C95.4858 103.613 95.3014 103.751 95.1848 103.91C95.0728 104.068 95.0168 104.246 95.0168 104.442C95.0168 104.628 95.0471 104.789 95.1078 104.925C95.1684 105.06 95.2501 105.172 95.3528 105.261C95.4554 105.345 95.5768 105.408 95.7168 105.45C95.8568 105.487 96.0084 105.506 96.1718 105.506ZM103.68 99.0586C103.988 99.0586 104.275 99.0936 104.541 99.1636C104.812 99.2289 105.057 99.3269 105.276 99.4576H107.201V99.9196C107.201 100.074 107.103 100.172 106.907 100.214L106.102 100.326C106.261 100.629 106.34 100.967 106.34 101.341C106.34 101.686 106.273 102.001 106.137 102.286C106.007 102.566 105.822 102.806 105.584 103.007C105.351 103.207 105.071 103.361 104.744 103.469C104.422 103.576 104.068 103.63 103.68 103.63C103.349 103.63 103.036 103.59 102.742 103.511C102.593 103.604 102.479 103.704 102.399 103.812C102.325 103.919 102.287 104.024 102.287 104.127C102.287 104.295 102.355 104.423 102.49 104.512C102.626 104.596 102.805 104.656 103.029 104.694C103.253 104.731 103.508 104.754 103.792 104.764C104.077 104.773 104.366 104.789 104.66 104.813C104.959 104.831 105.251 104.866 105.535 104.918C105.82 104.969 106.074 105.053 106.298 105.17C106.522 105.286 106.702 105.447 106.837 105.653C106.973 105.858 107.04 106.124 107.04 106.451C107.04 106.754 106.963 107.048 106.809 107.333C106.66 107.617 106.443 107.869 106.158 108.089C105.874 108.313 105.526 108.49 105.115 108.621C104.705 108.756 104.24 108.824 103.722 108.824C103.204 108.824 102.749 108.772 102.357 108.67C101.97 108.567 101.648 108.429 101.391 108.257C101.135 108.084 100.941 107.883 100.81 107.655C100.684 107.431 100.621 107.195 100.621 106.948C100.621 106.598 100.731 106.301 100.95 106.059C101.174 105.811 101.48 105.615 101.867 105.471C101.667 105.377 101.506 105.254 101.384 105.1C101.268 104.941 101.209 104.731 101.209 104.47C101.209 104.367 101.228 104.262 101.265 104.155C101.303 104.043 101.359 103.933 101.433 103.826C101.513 103.718 101.608 103.616 101.72 103.518C101.832 103.42 101.963 103.333 102.112 103.259C101.762 103.063 101.487 102.804 101.286 102.482C101.09 102.155 100.992 101.775 100.992 101.341C100.992 100.995 101.058 100.683 101.188 100.403C101.324 100.118 101.51 99.8776 101.748 99.6816C101.986 99.4809 102.269 99.3269 102.595 99.2196C102.927 99.1122 103.288 99.0586 103.68 99.0586ZM105.892 106.654C105.892 106.476 105.843 106.334 105.745 106.227C105.647 106.119 105.514 106.038 105.346 105.982C105.178 105.921 104.985 105.877 104.765 105.849C104.546 105.821 104.315 105.802 104.072 105.793C103.83 105.779 103.582 105.765 103.33 105.751C103.078 105.737 102.838 105.711 102.609 105.674C102.343 105.8 102.126 105.954 101.958 106.136C101.795 106.318 101.713 106.535 101.713 106.787C101.713 106.945 101.753 107.092 101.832 107.228C101.916 107.368 102.042 107.487 102.21 107.585C102.378 107.687 102.588 107.767 102.84 107.823C103.097 107.883 103.398 107.914 103.743 107.914C104.079 107.914 104.38 107.883 104.646 107.823C104.912 107.762 105.136 107.676 105.318 107.564C105.505 107.452 105.647 107.319 105.745 107.165C105.843 107.011 105.892 106.84 105.892 106.654ZM103.68 102.804C103.932 102.804 104.154 102.769 104.345 102.699C104.541 102.629 104.705 102.531 104.835 102.405C104.966 102.279 105.064 102.129 105.129 101.957C105.195 101.779 105.227 101.586 105.227 101.376C105.227 100.942 105.094 100.596 104.828 100.34C104.567 100.083 104.184 99.9546 103.68 99.9546C103.181 99.9546 102.798 100.083 102.532 100.34C102.271 100.596 102.14 100.942 102.14 101.376C102.14 101.586 102.173 101.779 102.238 101.957C102.308 102.129 102.409 102.279 102.539 102.405C102.67 102.531 102.831 102.629 103.022 102.699C103.214 102.769 103.433 102.804 103.68 102.804ZM111.251 99.0656C111.676 99.0656 112.068 99.1379 112.427 99.2826C112.786 99.4226 113.097 99.6279 113.358 99.8986C113.619 100.165 113.822 100.496 113.967 100.893C114.116 101.285 114.191 101.733 114.191 102.237C114.191 102.433 114.17 102.563 114.128 102.629C114.086 102.694 114.007 102.727 113.89 102.727H109.172C109.181 103.175 109.242 103.564 109.354 103.896C109.466 104.227 109.62 104.505 109.816 104.729C110.012 104.948 110.245 105.114 110.516 105.226C110.787 105.333 111.09 105.387 111.426 105.387C111.739 105.387 112.007 105.352 112.231 105.282C112.46 105.207 112.656 105.128 112.819 105.044C112.982 104.96 113.118 104.883 113.225 104.813C113.337 104.738 113.433 104.701 113.512 104.701C113.615 104.701 113.694 104.74 113.75 104.82L114.1 105.275C113.946 105.461 113.762 105.625 113.547 105.765C113.332 105.9 113.101 106.012 112.854 106.101C112.611 106.189 112.359 106.255 112.098 106.297C111.837 106.343 111.578 106.367 111.321 106.367C110.831 106.367 110.378 106.285 109.963 106.122C109.552 105.954 109.195 105.711 108.892 105.394C108.593 105.072 108.36 104.675 108.192 104.204C108.024 103.732 107.94 103.191 107.94 102.58C107.94 102.085 108.015 101.623 108.164 101.194C108.318 100.764 108.537 100.393 108.822 100.081C109.107 99.7632 109.454 99.5159 109.865 99.3386C110.276 99.1566 110.738 99.0656 111.251 99.0656ZM111.279 99.9826C110.677 99.9826 110.203 100.158 109.858 100.508C109.513 100.853 109.298 101.334 109.214 101.95H113.071C113.071 101.66 113.031 101.397 112.952 101.159C112.873 100.916 112.756 100.708 112.602 100.536C112.448 100.358 112.259 100.223 112.035 100.13C111.816 100.032 111.564 99.9826 111.279 99.9826ZM40.2938 123.066C40.7185 123.066 41.1105 123.138 41.4698 123.283C41.8292 123.423 42.1395 123.628 42.4008 123.899C42.6622 124.165 42.8652 124.496 43.0098 124.893C43.1592 125.285 43.2338 125.733 43.2338 126.237C43.2338 126.433 43.2128 126.563 43.1708 126.629C43.1288 126.694 43.0495 126.727 42.9328 126.727H38.2148C38.2242 127.175 38.2848 127.564 38.3968 127.896C38.5088 128.227 38.6628 128.505 38.8588 128.729C39.0548 128.948 39.2882 129.114 39.5588 129.226C39.8295 129.333 40.1328 129.387 40.4688 129.387C40.7815 129.387 41.0498 129.352 41.2738 129.282C41.5025 129.207 41.6985 129.128 41.8618 129.044C42.0252 128.96 42.1605 128.883 42.2678 128.813C42.3798 128.738 42.4755 128.701 42.5548 128.701C42.6575 128.701 42.7368 128.74 42.7928 128.82L43.1428 129.275C42.9888 129.461 42.8045 129.625 42.5898 129.765C42.3752 129.9 42.1442 130.012 41.8968 130.101C41.6542 130.189 41.4022 130.255 41.1408 130.297C40.8795 130.343 40.6205 130.367 40.3638 130.367C39.8738 130.367 39.4212 130.285 39.0058 130.122C38.5952 129.954 38.2382 129.711 37.9348 129.394C37.6362 129.072 37.4028 128.675 37.2348 128.204C37.0668 127.732 36.9828 127.191 36.9828 126.58C36.9828 126.085 37.0575 125.623 37.2068 125.194C37.3608 124.764 37.5802 124.393 37.8648 124.081C38.1495 123.763 38.4972 123.516 38.9078 123.339C39.3185 123.157 39.7805 123.066 40.2938 123.066ZM40.3218 123.983C39.7198 123.983 39.2462 124.158 38.9008 124.508C38.5555 124.853 38.3408 125.334 38.2568 125.95H42.1138C42.1138 125.66 42.0742 125.397 41.9948 125.159C41.9155 124.916 41.7988 124.708 41.6448 124.536C41.4908 124.358 41.3018 124.223 41.0778 124.13C40.8585 124.032 40.6065 123.983 40.3218 123.983ZM46.0638 126.636L43.6768 123.178H44.8738C44.9765 123.178 45.0511 123.194 45.0978 123.227C45.1445 123.259 45.1865 123.306 45.2238 123.367L46.9598 126.027C47.0018 125.896 47.0625 125.765 47.1418 125.635L48.6678 123.395C48.7145 123.329 48.7611 123.278 48.8078 123.241C48.8545 123.199 48.9128 123.178 48.9828 123.178H50.1308L47.7438 126.566L50.2288 130.269H49.0318C48.9291 130.269 48.8475 130.243 48.7868 130.192C48.7308 130.136 48.6841 130.075 48.6468 130.01L46.8618 127.231C46.8291 127.366 46.7801 127.487 46.7148 127.595L45.0628 130.01C45.0161 130.075 44.9648 130.136 44.9088 130.192C44.8575 130.243 44.7851 130.269 44.6918 130.269H43.5788L46.0638 126.636ZM51.4595 132.67V123.178H52.2015C52.3788 123.178 52.4908 123.264 52.5375 123.437L52.6425 124.277C52.9458 123.908 53.2912 123.612 53.6785 123.388C54.0705 123.164 54.5208 123.052 55.0295 123.052C55.4355 123.052 55.8042 123.131 56.1355 123.29C56.4668 123.444 56.7492 123.675 56.9825 123.983C57.2158 124.286 57.3955 124.664 57.5215 125.117C57.6475 125.569 57.7105 126.09 57.7105 126.678C57.7105 127.2 57.6405 127.688 57.5005 128.141C57.3605 128.589 57.1598 128.978 56.8985 129.31C56.6372 129.636 56.3152 129.895 55.9325 130.087C55.5545 130.273 55.1275 130.367 54.6515 130.367C54.2128 130.367 53.8372 130.294 53.5245 130.15C53.2165 130.005 52.9435 129.8 52.7055 129.534V132.67H51.4595ZM54.6165 124.06C54.2105 124.06 53.8535 124.153 53.5455 124.34C53.2422 124.526 52.9622 124.79 52.7055 125.131V128.561C52.9342 128.869 53.1838 129.086 53.4545 129.212C53.7298 129.338 54.0355 129.401 54.3715 129.401C55.0295 129.401 55.5358 129.165 55.8905 128.694C56.2452 128.222 56.4225 127.55 56.4225 126.678C56.4225 126.216 56.3805 125.819 56.2965 125.488C56.2172 125.156 56.1005 124.886 55.9465 124.676C55.7925 124.461 55.6035 124.305 55.3795 124.207C55.1555 124.109 54.9012 124.06 54.6165 124.06ZM61.9911 123.066C62.4158 123.066 62.8078 123.138 63.1671 123.283C63.5264 123.423 63.8368 123.628 64.0981 123.899C64.3594 124.165 64.5624 124.496 64.7071 124.893C64.8564 125.285 64.9311 125.733 64.9311 126.237C64.9311 126.433 64.9101 126.563 64.8681 126.629C64.8261 126.694 64.7468 126.727 64.6301 126.727H59.9121C59.9214 127.175 59.9821 127.564 60.0941 127.896C60.2061 128.227 60.3601 128.505 60.5561 128.729C60.7521 128.948 60.9854 129.114 61.2561 129.226C61.5268 129.333 61.8301 129.387 62.1661 129.387C62.4788 129.387 62.7471 129.352 62.9711 129.282C63.1998 129.207 63.3958 129.128 63.5591 129.044C63.7224 128.96 63.8578 128.883 63.9651 128.813C64.0771 128.738 64.1728 128.701 64.2521 128.701C64.3548 128.701 64.4341 128.74 64.4901 128.82L64.8401 129.275C64.6861 129.461 64.5018 129.625 64.2871 129.765C64.0724 129.9 63.8414 130.012 63.5941 130.101C63.3514 130.189 63.0994 130.255 62.8381 130.297C62.5768 130.343 62.3178 130.367 62.0611 130.367C61.5711 130.367 61.1184 130.285 60.7031 130.122C60.2924 129.954 59.9354 129.711 59.6321 129.394C59.3334 129.072 59.1001 128.675 58.9321 128.204C58.7641 127.732 58.6801 127.191 58.6801 126.58C58.6801 126.085 58.7548 125.623 58.9041 125.194C59.0581 124.764 59.2774 124.393 59.5621 124.081C59.8468 123.763 60.1944 123.516 60.6051 123.339C61.0158 123.157 61.4778 123.066 61.9911 123.066ZM62.0191 123.983C61.4171 123.983 60.9434 124.158 60.5981 124.508C60.2528 124.853 60.0381 125.334 59.9541 125.95H63.8111C63.8111 125.66 63.7714 125.397 63.6921 125.159C63.6128 124.916 63.4961 124.708 63.3421 124.536C63.1881 124.358 62.9991 124.223 62.7751 124.13C62.5558 124.032 62.3038 123.983 62.0191 123.983ZM66.5259 130.269V123.178H67.2399C67.3752 123.178 67.4686 123.203 67.5199 123.255C67.5712 123.306 67.6062 123.395 67.6249 123.521L67.7089 124.627C67.9516 124.132 68.2502 123.747 68.6049 123.472C68.9642 123.192 69.3842 123.052 69.8649 123.052C70.0609 123.052 70.2382 123.075 70.3969 123.122C70.5556 123.164 70.7026 123.224 70.8379 123.304L70.6769 124.235C70.6442 124.351 70.5719 124.41 70.4599 124.41C70.3946 124.41 70.2942 124.389 70.1589 124.347C70.0236 124.3 69.8346 124.277 69.5919 124.277C69.1579 124.277 68.7939 124.403 68.4999 124.655C68.2106 124.907 67.9679 125.273 67.7719 125.754V130.269H66.5259ZM73.5584 123.178V130.269H72.3124V123.178H73.5584ZM73.8384 120.952C73.8384 121.073 73.8127 121.187 73.7614 121.295C73.7147 121.397 73.6494 121.491 73.5654 121.575C73.4861 121.654 73.3927 121.717 73.2854 121.764C73.1781 121.81 73.0637 121.834 72.9424 121.834C72.8211 121.834 72.7067 121.81 72.5994 121.764C72.4967 121.717 72.4034 121.654 72.3194 121.575C72.2401 121.491 72.1771 121.397 72.1304 121.295C72.0837 121.187 72.0604 121.073 72.0604 120.952C72.0604 120.83 72.0837 120.716 72.1304 120.609C72.1771 120.497 72.2401 120.401 72.3194 120.322C72.4034 120.238 72.4967 120.172 72.5994 120.126C72.7067 120.079 72.8211 120.056 72.9424 120.056C73.0637 120.056 73.1781 120.079 73.2854 120.126C73.3927 120.172 73.4861 120.238 73.5654 120.322C73.6494 120.401 73.7147 120.497 73.7614 120.609C73.8127 120.716 73.8384 120.83 73.8384 120.952ZM75.7544 130.269V123.178H76.4964C76.6738 123.178 76.7858 123.264 76.8324 123.437L76.9234 124.165C77.1848 123.843 77.4764 123.579 77.7984 123.374C78.1251 123.168 78.5031 123.066 78.9324 123.066C79.4131 123.066 79.8004 123.199 80.0944 123.465C80.3931 123.731 80.6078 124.09 80.7384 124.543C80.8364 124.286 80.9648 124.064 81.1234 123.878C81.2868 123.691 81.4688 123.537 81.6694 123.416C81.8701 123.294 82.0824 123.206 82.3064 123.15C82.5351 123.094 82.7661 123.066 82.9994 123.066C83.3728 123.066 83.7041 123.126 83.9934 123.248C84.2874 123.364 84.5348 123.537 84.7354 123.766C84.9408 123.994 85.0971 124.277 85.2044 124.613C85.3118 124.944 85.3654 125.324 85.3654 125.754V130.269H84.1194V125.754C84.1194 125.198 83.9981 124.778 83.7554 124.494C83.5128 124.204 83.1604 124.06 82.6984 124.06C82.4931 124.06 82.2971 124.097 82.1104 124.172C81.9284 124.242 81.7674 124.347 81.6274 124.487C81.4874 124.627 81.3754 124.804 81.2914 125.019C81.2121 125.229 81.1724 125.474 81.1724 125.754V130.269H79.9264V125.754C79.9264 125.184 79.8121 124.76 79.5834 124.48C79.3548 124.2 79.0211 124.06 78.5824 124.06C78.2744 124.06 77.9874 124.144 77.7214 124.312C77.4601 124.475 77.2198 124.699 77.0004 124.984V130.269H75.7544ZM90.0595 123.066C90.4841 123.066 90.8761 123.138 91.2355 123.283C91.5948 123.423 91.9051 123.628 92.1665 123.899C92.4278 124.165 92.6308 124.496 92.7755 124.893C92.9248 125.285 92.9995 125.733 92.9995 126.237C92.9995 126.433 92.9785 126.563 92.9365 126.629C92.8945 126.694 92.8151 126.727 92.6985 126.727H87.9805C87.9898 127.175 88.0505 127.564 88.1625 127.896C88.2745 128.227 88.4285 128.505 88.6245 128.729C88.8205 128.948 89.0538 129.114 89.3245 129.226C89.5951 129.333 89.8985 129.387 90.2345 129.387C90.5471 129.387 90.8155 129.352 91.0395 129.282C91.2681 129.207 91.4641 129.128 91.6275 129.044C91.7908 128.96 91.9261 128.883 92.0335 128.813C92.1455 128.738 92.2411 128.701 92.3205 128.701C92.4231 128.701 92.5025 128.74 92.5585 128.82L92.9085 129.275C92.7545 129.461 92.5701 129.625 92.3555 129.765C92.1408 129.9 91.9098 130.012 91.6625 130.101C91.4198 130.189 91.1678 130.255 90.9065 130.297C90.6451 130.343 90.3861 130.367 90.1295 130.367C89.6395 130.367 89.1868 130.285 88.7715 130.122C88.3608 129.954 88.0038 129.711 87.7005 129.394C87.4018 129.072 87.1685 128.675 87.0005 128.204C86.8325 127.732 86.7485 127.191 86.7485 126.58C86.7485 126.085 86.8231 125.623 86.9725 125.194C87.1265 124.764 87.3458 124.393 87.6305 124.081C87.9151 123.763 88.2628 123.516 88.6735 123.339C89.0841 123.157 89.5461 123.066 90.0595 123.066ZM90.0875 123.983C89.4855 123.983 89.0118 124.158 88.6665 124.508C88.3211 124.853 88.1065 125.334 88.0225 125.95H91.8795C91.8795 125.66 91.8398 125.397 91.7605 125.159C91.6811 124.916 91.5645 124.708 91.4105 124.536C91.2565 124.358 91.0675 124.223 90.8435 124.13C90.6241 124.032 90.3721 123.983 90.0875 123.983ZM94.5943 130.269V123.178H95.3363C95.5136 123.178 95.6256 123.264 95.6723 123.437L95.7703 124.207C96.0783 123.866 96.4213 123.591 96.7993 123.381C97.1819 123.171 97.6229 123.066 98.1223 123.066C98.5096 123.066 98.8503 123.131 99.1443 123.262C99.4429 123.388 99.6903 123.57 99.8863 123.808C100.087 124.041 100.239 124.323 100.341 124.655C100.444 124.986 100.495 125.352 100.495 125.754V130.269H99.2493V125.754C99.2493 125.217 99.1256 124.802 98.8783 124.508C98.6356 124.209 98.2623 124.06 97.7583 124.06C97.3896 124.06 97.0443 124.148 96.7223 124.326C96.4049 124.503 96.1109 124.743 95.8403 125.047V130.269H94.5943ZM104.523 130.381C103.963 130.381 103.531 130.224 103.228 129.912C102.929 129.599 102.78 129.149 102.78 128.561V124.221H101.926C101.851 124.221 101.788 124.2 101.737 124.158C101.685 124.111 101.66 124.041 101.66 123.948V123.451L102.822 123.304L103.109 121.113C103.118 121.043 103.148 120.987 103.2 120.945C103.251 120.898 103.316 120.875 103.396 120.875H104.026V123.318H106.056V124.221H104.026V128.477C104.026 128.775 104.098 128.997 104.243 129.142C104.387 129.286 104.574 129.359 104.803 129.359C104.933 129.359 105.045 129.342 105.139 129.31C105.237 129.272 105.321 129.233 105.391 129.191C105.461 129.149 105.519 129.111 105.566 129.079C105.617 129.041 105.661 129.023 105.699 129.023C105.764 129.023 105.822 129.062 105.874 129.142L106.238 129.737C106.023 129.937 105.764 130.096 105.461 130.213C105.157 130.325 104.845 130.381 104.523 130.381ZM111.656 124.347C111.6 124.449 111.514 124.501 111.397 124.501C111.327 124.501 111.248 124.475 111.159 124.424C111.071 124.372 110.961 124.316 110.83 124.256C110.704 124.19 110.553 124.132 110.375 124.081C110.198 124.025 109.988 123.997 109.745 123.997C109.535 123.997 109.346 124.025 109.178 124.081C109.01 124.132 108.866 124.204 108.744 124.298C108.628 124.391 108.537 124.501 108.471 124.627C108.411 124.748 108.38 124.881 108.38 125.026C108.38 125.208 108.432 125.359 108.534 125.481C108.642 125.602 108.782 125.707 108.954 125.796C109.127 125.884 109.323 125.964 109.542 126.034C109.762 126.099 109.986 126.171 110.214 126.251C110.448 126.325 110.674 126.409 110.893 126.503C111.113 126.596 111.309 126.713 111.481 126.853C111.654 126.993 111.792 127.165 111.894 127.371C112.002 127.571 112.055 127.814 112.055 128.099C112.055 128.425 111.997 128.729 111.88 129.009C111.764 129.284 111.591 129.524 111.362 129.73C111.134 129.93 110.854 130.089 110.522 130.206C110.191 130.322 109.808 130.381 109.374 130.381C108.88 130.381 108.432 130.301 108.03 130.143C107.629 129.979 107.288 129.772 107.008 129.52L107.302 129.044C107.34 128.983 107.384 128.936 107.435 128.904C107.487 128.871 107.554 128.855 107.638 128.855C107.722 128.855 107.811 128.887 107.904 128.953C107.998 129.018 108.11 129.09 108.24 129.17C108.376 129.249 108.537 129.321 108.723 129.387C108.915 129.452 109.153 129.485 109.437 129.485C109.68 129.485 109.892 129.454 110.074 129.394C110.256 129.328 110.408 129.242 110.529 129.135C110.651 129.027 110.739 128.904 110.795 128.764C110.856 128.624 110.886 128.474 110.886 128.316C110.886 128.12 110.833 127.959 110.725 127.833C110.623 127.702 110.485 127.592 110.312 127.504C110.14 127.41 109.941 127.331 109.717 127.266C109.498 127.196 109.272 127.123 109.038 127.049C108.81 126.974 108.583 126.89 108.359 126.797C108.14 126.699 107.944 126.577 107.771 126.433C107.599 126.288 107.459 126.111 107.351 125.901C107.249 125.686 107.197 125.427 107.197 125.124C107.197 124.853 107.253 124.594 107.365 124.347C107.477 124.095 107.641 123.875 107.855 123.689C108.07 123.497 108.334 123.346 108.646 123.234C108.959 123.122 109.316 123.066 109.717 123.066C110.184 123.066 110.602 123.14 110.97 123.29C111.344 123.434 111.666 123.635 111.936 123.892L111.656 124.347Z" fill="black"/>
</svg>
