<svg width="151" height="151" viewBox="0 0 151 151" fill="none" xmlns="http://www.w3.org/2000/svg">
<path d="M118.055 0.269531H32.0547C14.3816 0.269531 0.0546875 14.5963 0.0546875 32.2692V118.268C0.0546875 135.941 14.3816 150.268 32.0547 150.268H118.055C135.728 150.268 150.055 135.941 150.055 118.268V32.2692C150.055 14.5963 135.728 0.269531 118.055 0.269531Z" fill="#EDDEC2"/>
<rect x="55.0547" y="40.269" width="41" height="40.9996" rx="8" fill="#765BF0"/>
<path d="M69.7498 63.3366H77.1388V62.2825H69.7498V63.3366ZM69.7498 60.1746H81.3615V59.1204H69.7498V60.1746ZM69.7498 57.0125H81.3615V55.9584H69.7498V57.0125ZM66.0552 70.269V53.9715C66.0494 53.7465 66.0897 53.5228 66.1737 53.3139C66.2576 53.1051 66.3835 52.9156 66.5436 52.7572C66.7022 52.5974 66.892 52.4717 67.1011 52.3878C67.3102 52.304 67.5343 52.2638 67.7596 52.2696H83.3498C83.575 52.2638 83.7991 52.304 84.0083 52.3878C84.2174 52.4717 84.4071 52.5974 84.5658 52.7572C84.7258 52.9156 84.8517 53.1051 84.9357 53.3139C85.0197 53.5228 85.06 53.7465 85.0541 53.9715V65.3224C85.06 65.5473 85.0197 65.7711 84.9357 65.9799C84.8518 66.1888 84.7259 66.3782 84.5658 66.5366C84.4071 66.6964 84.2174 66.8222 84.0083 66.906C83.7991 66.9899 83.575 67.0301 83.3498 67.0243H69.3032L66.0552 70.269ZM68.8525 65.9716H83.3505C83.4349 65.97 83.518 65.9511 83.5949 65.9163C83.6717 65.8814 83.7406 65.8313 83.7974 65.769C83.8598 65.7123 83.91 65.6435 83.9449 65.5667C83.9798 65.49 83.9987 65.407 84.0003 65.3228V53.9715C83.9987 53.8872 83.9798 53.8042 83.9449 53.7275C83.91 53.6508 83.8598 53.5819 83.7974 53.5252C83.7406 53.4629 83.6717 53.4128 83.5949 53.378C83.518 53.3431 83.4349 53.3243 83.3505 53.3226H67.7608C67.6764 53.3243 67.5932 53.3431 67.5164 53.378C67.4396 53.4128 67.3706 53.4629 67.3139 53.5252C67.2514 53.5819 67.2013 53.6508 67.1664 53.7275C67.1315 53.8042 67.1126 53.8872 67.1109 53.9715V67.7046L68.8525 65.9716Z" fill="white"/>
<path d="M27.604 97.8056C27.562 97.8756 27.5177 97.9292 27.471 97.9666C27.4244 97.9992 27.3637 98.0156 27.289 98.0156C27.2097 98.0156 27.1164 97.9759 27.009 97.8966C26.9064 97.8172 26.7734 97.7309 26.61 97.6376C26.4514 97.5396 26.2577 97.4509 26.029 97.3716C25.805 97.2922 25.532 97.2526 25.21 97.2526C24.9067 97.2526 24.6384 97.2946 24.405 97.3786C24.1717 97.4579 23.9757 97.5676 23.817 97.7076C23.663 97.8476 23.5464 98.0132 23.467 98.2046C23.3877 98.3912 23.348 98.5942 23.348 98.8136C23.348 99.0936 23.4157 99.3269 23.551 99.5136C23.691 99.6956 23.873 99.8519 24.097 99.9826C24.3257 100.113 24.5824 100.228 24.867 100.326C25.1564 100.419 25.4504 100.517 25.749 100.62C26.0524 100.722 26.3464 100.839 26.631 100.97C26.9204 101.096 27.177 101.257 27.401 101.453C27.6297 101.649 27.8117 101.889 27.947 102.174C28.087 102.458 28.157 102.808 28.157 103.224C28.157 103.662 28.0824 104.075 27.933 104.463C27.7837 104.845 27.5644 105.179 27.275 105.464C26.9904 105.748 26.638 105.972 26.218 106.136C25.8027 106.299 25.329 106.381 24.797 106.381C24.1484 106.381 23.5557 106.264 23.019 106.031C22.487 105.793 22.032 105.473 21.654 105.072L22.046 104.428C22.0834 104.376 22.1277 104.334 22.179 104.302C22.235 104.264 22.2957 104.246 22.361 104.246C22.459 104.246 22.571 104.299 22.697 104.407C22.823 104.509 22.9794 104.624 23.166 104.75C23.3574 104.876 23.586 104.992 23.852 105.1C24.1227 105.202 24.4517 105.254 24.839 105.254C25.161 105.254 25.448 105.209 25.7 105.121C25.952 105.032 26.1644 104.908 26.337 104.75C26.5144 104.586 26.6497 104.393 26.743 104.169C26.8364 103.945 26.883 103.695 26.883 103.42C26.883 103.116 26.813 102.869 26.673 102.678C26.5377 102.482 26.358 102.318 26.134 102.188C25.91 102.057 25.6534 101.947 25.364 101.859C25.0794 101.765 24.7854 101.672 24.482 101.579C24.1834 101.481 23.8894 101.369 23.6 101.243C23.3154 101.117 23.061 100.953 22.837 100.753C22.613 100.552 22.431 100.302 22.291 100.004C22.1557 99.7002 22.088 99.3269 22.088 98.8836C22.088 98.5289 22.1557 98.1859 22.291 97.8546C22.431 97.5232 22.6317 97.2292 22.893 96.9726C23.1544 96.7159 23.4764 96.5106 23.859 96.3566C24.2464 96.2026 24.6897 96.1256 25.189 96.1256C25.749 96.1256 26.26 96.2142 26.722 96.3916C27.184 96.5689 27.5877 96.8256 27.933 97.1616L27.604 97.8056ZM34.8249 102.643C34.8902 102.755 34.9462 102.874 34.9929 103C35.0442 103.121 35.0932 103.245 35.1399 103.371C35.1865 103.24 35.2355 103.116 35.2869 103C35.3382 102.878 35.3965 102.757 35.4619 102.636L38.8569 96.4686C38.9175 96.3612 38.9805 96.2959 39.0459 96.2726C39.1112 96.2492 39.2045 96.2376 39.3259 96.2376H40.3269V106.269H39.1369V98.8976C39.1369 98.7996 39.1392 98.6946 39.1439 98.5826C39.1485 98.4706 39.1555 98.3562 39.1649 98.2396L35.7279 104.512C35.6112 104.722 35.4479 104.827 35.2379 104.827H35.0419C34.8319 104.827 34.6685 104.722 34.5519 104.512L31.0379 98.2186C31.0519 98.3399 31.0612 98.4589 31.0659 98.5756C31.0752 98.6922 31.0799 98.7996 31.0799 98.8976V106.269H29.8899V96.2376H30.8909C31.0122 96.2376 31.1055 96.2492 31.1709 96.2726C31.2362 96.2959 31.2992 96.3612 31.3599 96.4686L34.8249 102.643ZM47.9068 97.8056C47.8648 97.8756 47.8204 97.9292 47.7738 97.9666C47.7271 97.9992 47.6664 98.0156 47.5918 98.0156C47.5124 98.0156 47.4191 97.9759 47.3118 97.8966C47.2091 97.8172 47.0761 97.7309 46.9128 97.6376C46.7541 97.5396 46.5604 97.4509 46.3318 97.3716C46.1078 97.2922 45.8348 97.2526 45.5128 97.2526C45.2094 97.2526 44.9411 97.2946 44.7078 97.3786C44.4744 97.4579 44.2784 97.5676 44.1198 97.7076C43.9658 97.8476 43.8491 98.0132 43.7698 98.2046C43.6904 98.3912 43.6508 98.5942 43.6508 98.8136C43.6508 99.0936 43.7184 99.3269 43.8538 99.5136C43.9938 99.6956 44.1758 99.8519 44.3998 99.9826C44.6284 100.113 44.8851 100.228 45.1698 100.326C45.4591 100.419 45.7531 100.517 46.0518 100.62C46.3551 100.722 46.6491 100.839 46.9338 100.97C47.2231 101.096 47.4798 101.257 47.7038 101.453C47.9324 101.649 48.1144 101.889 48.2498 102.174C48.3898 102.458 48.4598 102.808 48.4598 103.224C48.4598 103.662 48.3851 104.075 48.2358 104.463C48.0864 104.845 47.8671 105.179 47.5778 105.464C47.2931 105.748 46.9408 105.972 46.5208 106.136C46.1054 106.299 45.6318 106.381 45.0998 106.381C44.4511 106.381 43.8584 106.264 43.3218 106.031C42.7898 105.793 42.3348 105.473 41.9568 105.072L42.3488 104.428C42.3861 104.376 42.4304 104.334 42.4818 104.302C42.5378 104.264 42.5984 104.246 42.6638 104.246C42.7618 104.246 42.8738 104.299 42.9998 104.407C43.1258 104.509 43.2821 104.624 43.4688 104.75C43.6601 104.876 43.8888 104.992 44.1548 105.1C44.4254 105.202 44.7544 105.254 45.1418 105.254C45.4638 105.254 45.7508 105.209 46.0028 105.121C46.2548 105.032 46.4671 104.908 46.6398 104.75C46.8171 104.586 46.9524 104.393 47.0458 104.169C47.1391 103.945 47.1858 103.695 47.1858 103.42C47.1858 103.116 47.1158 102.869 46.9758 102.678C46.8404 102.482 46.6608 102.318 46.4368 102.188C46.2128 102.057 45.9561 101.947 45.6668 101.859C45.3821 101.765 45.0881 101.672 44.7848 101.579C44.4861 101.481 44.1921 101.369 43.9028 101.243C43.6181 101.117 43.3638 100.953 43.1398 100.753C42.9158 100.552 42.7338 100.302 42.5938 100.004C42.4584 99.7002 42.3908 99.3269 42.3908 98.8836C42.3908 98.5289 42.4584 98.1859 42.5938 97.8546C42.7338 97.5232 42.9344 97.2292 43.1958 96.9726C43.4571 96.7159 43.7791 96.5106 44.1618 96.3566C44.5491 96.2026 44.9924 96.1256 45.4918 96.1256C46.0518 96.1256 46.5628 96.2142 47.0248 96.3916C47.4868 96.5689 47.8904 96.8256 48.2358 97.1616L47.9068 97.8056ZM55.5106 99.0656C55.9353 99.0656 56.3273 99.1379 56.6866 99.2826C57.046 99.4226 57.3563 99.6279 57.6176 99.8986C57.879 100.165 58.082 100.496 58.2266 100.893C58.376 101.285 58.4506 101.733 58.4506 102.237C58.4506 102.433 58.4296 102.563 58.3876 102.629C58.3456 102.694 58.2663 102.727 58.1496 102.727H53.4316C53.441 103.175 53.5016 103.564 53.6136 103.896C53.7256 104.227 53.8796 104.505 54.0756 104.729C54.2716 104.948 54.505 105.114 54.7756 105.226C55.0463 105.333 55.3496 105.387 55.6856 105.387C55.9983 105.387 56.2666 105.352 56.4906 105.282C56.7193 105.207 56.9153 105.128 57.0786 105.044C57.242 104.96 57.3773 104.883 57.4846 104.813C57.5966 104.738 57.6923 104.701 57.7716 104.701C57.8743 104.701 57.9536 104.74 58.0096 104.82L58.3596 105.275C58.2056 105.461 58.0213 105.625 57.8066 105.765C57.592 105.9 57.361 106.012 57.1136 106.101C56.871 106.189 56.619 106.255 56.3576 106.297C56.0963 106.343 55.8373 106.367 55.5806 106.367C55.0906 106.367 54.638 106.285 54.2226 106.122C53.812 105.954 53.455 105.711 53.1516 105.394C52.853 105.072 52.6196 104.675 52.4516 104.204C52.2836 103.732 52.1996 103.191 52.1996 102.58C52.1996 102.085 52.2743 101.623 52.4236 101.194C52.5776 100.764 52.797 100.393 53.0816 100.081C53.3663 99.7632 53.714 99.5159 54.1246 99.3386C54.5353 99.1566 54.9973 99.0656 55.5106 99.0656ZM55.5386 99.9826C54.9366 99.9826 54.463 100.158 54.1176 100.508C53.7723 100.853 53.5576 101.334 53.4736 101.95H57.3306C57.3306 101.66 57.291 101.397 57.2116 101.159C57.1323 100.916 57.0156 100.708 56.8616 100.536C56.7076 100.358 56.5186 100.223 56.2946 100.13C56.0753 100.032 55.8233 99.9826 55.5386 99.9826ZM61.2806 102.636L58.8936 99.1776H60.0906C60.1933 99.1776 60.2679 99.1939 60.3146 99.2266C60.3613 99.2592 60.4033 99.3059 60.4406 99.3666L62.1766 102.027C62.2186 101.896 62.2793 101.765 62.3586 101.635L63.8846 99.3946C63.9313 99.3292 63.9779 99.2779 64.0246 99.2406C64.0713 99.1986 64.1296 99.1776 64.1996 99.1776H65.3476L62.9606 102.566L65.4456 106.269H64.2486C64.1459 106.269 64.0643 106.243 64.0036 106.192C63.9476 106.136 63.9009 106.075 63.8636 106.01L62.0786 103.231C62.0459 103.366 61.9969 103.487 61.9316 103.595L60.2796 106.01C60.2329 106.075 60.1816 106.136 60.1256 106.192C60.0743 106.243 60.0019 106.269 59.9086 106.269H58.7956L61.2806 102.636ZM66.6763 108.67V99.1776H67.4183C67.5956 99.1776 67.7076 99.2639 67.7543 99.4366L67.8593 100.277C68.1626 99.9079 68.508 99.6116 68.8953 99.3876C69.2873 99.1636 69.7376 99.0516 70.2463 99.0516C70.6523 99.0516 71.021 99.1309 71.3523 99.2896C71.6836 99.4436 71.966 99.6746 72.1993 99.9826C72.4326 100.286 72.6123 100.664 72.7383 101.117C72.8643 101.569 72.9273 102.09 72.9273 102.678C72.9273 103.2 72.8573 103.688 72.7173 104.141C72.5773 104.589 72.3766 104.978 72.1153 105.31C71.854 105.636 71.532 105.895 71.1493 106.087C70.7713 106.273 70.3443 106.367 69.8683 106.367C69.4296 106.367 69.054 106.294 68.7413 106.15C68.4333 106.005 68.1603 105.8 67.9223 105.534V108.67H66.6763ZM69.8333 100.06C69.4273 100.06 69.0703 100.153 68.7623 100.34C68.459 100.526 68.179 100.79 67.9223 101.131V104.561C68.151 104.869 68.4006 105.086 68.6713 105.212C68.9466 105.338 69.2523 105.401 69.5883 105.401C70.2463 105.401 70.7526 105.165 71.1073 104.694C71.462 104.222 71.6393 103.55 71.6393 102.678C71.6393 102.216 71.5973 101.819 71.5133 101.488C71.434 101.156 71.3173 100.886 71.1633 100.676C71.0093 100.461 70.8203 100.305 70.5963 100.207C70.3723 100.109 70.118 100.06 69.8333 100.06ZM77.2079 99.0656C77.6326 99.0656 78.0246 99.1379 78.3839 99.2826C78.7432 99.4226 79.0536 99.6279 79.3149 99.8986C79.5762 100.165 79.7792 100.496 79.9239 100.893C80.0732 101.285 80.1479 101.733 80.1479 102.237C80.1479 102.433 80.1269 102.563 80.0849 102.629C80.0429 102.694 79.9636 102.727 79.8469 102.727H75.1289C75.1382 103.175 75.1989 103.564 75.3109 103.896C75.4229 104.227 75.5769 104.505 75.7729 104.729C75.9689 104.948 76.2022 105.114 76.4729 105.226C76.7436 105.333 77.0469 105.387 77.3829 105.387C77.6956 105.387 77.9639 105.352 78.1879 105.282C78.4166 105.207 78.6126 105.128 78.7759 105.044C78.9392 104.96 79.0746 104.883 79.1819 104.813C79.2939 104.738 79.3896 104.701 79.4689 104.701C79.5716 104.701 79.6509 104.74 79.7069 104.82L80.0569 105.275C79.9029 105.461 79.7186 105.625 79.5039 105.765C79.2892 105.9 79.0582 106.012 78.8109 106.101C78.5682 106.189 78.3162 106.255 78.0549 106.297C77.7936 106.343 77.5346 106.367 77.2779 106.367C76.7879 106.367 76.3352 106.285 75.9199 106.122C75.5092 105.954 75.1522 105.711 74.8489 105.394C74.5502 105.072 74.3169 104.675 74.1489 104.204C73.9809 103.732 73.8969 103.191 73.8969 102.58C73.8969 102.085 73.9716 101.623 74.1209 101.194C74.2749 100.764 74.4942 100.393 74.7789 100.081C75.0636 99.7632 75.4112 99.5159 75.8219 99.3386C76.2326 99.1566 76.6946 99.0656 77.2079 99.0656ZM77.2359 99.9826C76.6339 99.9826 76.1602 100.158 75.8149 100.508C75.4696 100.853 75.2549 101.334 75.1709 101.95H79.0279C79.0279 101.66 78.9882 101.397 78.9089 101.159C78.8296 100.916 78.7129 100.708 78.5589 100.536C78.4049 100.358 78.2159 100.223 77.9919 100.13C77.7726 100.032 77.5206 99.9826 77.2359 99.9826ZM81.7427 106.269V99.1776H82.4567C82.592 99.1776 82.6854 99.2032 82.7367 99.2546C82.788 99.3059 82.823 99.3946 82.8417 99.5206L82.9257 100.627C83.1684 100.132 83.467 99.7469 83.8217 99.4716C84.181 99.1916 84.601 99.0516 85.0817 99.0516C85.2777 99.0516 85.455 99.0749 85.6137 99.1216C85.7724 99.1636 85.9194 99.2242 86.0547 99.3036L85.8937 100.235C85.861 100.351 85.7887 100.41 85.6767 100.41C85.6114 100.41 85.511 100.389 85.3757 100.347C85.2404 100.3 85.0514 100.277 84.8087 100.277C84.3747 100.277 84.0107 100.403 83.7167 100.655C83.4274 100.907 83.1847 101.273 82.9887 101.754V106.269H81.7427ZM88.7752 99.1776V106.269H87.5292V99.1776H88.7752ZM89.0552 96.9516C89.0552 97.0729 89.0295 97.1872 88.9782 97.2946C88.9315 97.3972 88.8662 97.4906 88.7822 97.5746C88.7029 97.6539 88.6095 97.7169 88.5022 97.7636C88.3949 97.8102 88.2805 97.8336 88.1592 97.8336C88.0379 97.8336 87.9235 97.8102 87.8162 97.7636C87.7135 97.7169 87.6202 97.6539 87.5362 97.5746C87.4569 97.4906 87.3939 97.3972 87.3472 97.2946C87.3005 97.1872 87.2772 97.0729 87.2772 96.9516C87.2772 96.8302 87.3005 96.7159 87.3472 96.6086C87.3939 96.4966 87.4569 96.4009 87.5362 96.3216C87.6202 96.2376 87.7135 96.1722 87.8162 96.1256C87.9235 96.0789 88.0379 96.0556 88.1592 96.0556C88.2805 96.0556 88.3949 96.0789 88.5022 96.1256C88.6095 96.1722 88.7029 96.2376 88.7822 96.3216C88.8662 96.4009 88.9315 96.4966 88.9782 96.6086C89.0295 96.7159 89.0552 96.8302 89.0552 96.9516ZM90.9712 106.269V99.1776H91.7132C91.8906 99.1776 92.0026 99.2639 92.0492 99.4366L92.1402 100.165C92.4016 99.8426 92.6932 99.5789 93.0152 99.3736C93.3419 99.1682 93.7199 99.0656 94.1492 99.0656C94.6299 99.0656 95.0172 99.1986 95.3112 99.4646C95.6099 99.7306 95.8246 100.09 95.9552 100.543C96.0532 100.286 96.1816 100.064 96.3402 99.8776C96.5036 99.6909 96.6856 99.5369 96.8862 99.4156C97.0869 99.2942 97.2992 99.2056 97.5232 99.1496C97.7519 99.0936 97.9829 99.0656 98.2162 99.0656C98.5896 99.0656 98.9209 99.1262 99.2102 99.2476C99.5042 99.3642 99.7516 99.5369 99.9522 99.7656C100.158 99.9942 100.314 100.277 100.421 100.613C100.529 100.944 100.582 101.324 100.582 101.754V106.269H99.3362V101.754C99.3362 101.198 99.2149 100.778 98.9722 100.494C98.7296 100.204 98.3772 100.06 97.9152 100.06C97.7099 100.06 97.5139 100.097 97.3272 100.172C97.1452 100.242 96.9842 100.347 96.8442 100.487C96.7042 100.627 96.5922 100.804 96.5082 101.019C96.4289 101.229 96.3892 101.474 96.3892 101.754V106.269H95.1432V101.754C95.1432 101.184 95.0289 100.76 94.8002 100.48C94.5716 100.2 94.2379 100.06 93.7992 100.06C93.4912 100.06 93.2042 100.144 92.9382 100.312C92.6769 100.475 92.4366 100.699 92.2172 100.984V106.269H90.9712ZM105.276 99.0656C105.701 99.0656 106.093 99.1379 106.452 99.2826C106.812 99.4226 107.122 99.6279 107.383 99.8986C107.645 100.165 107.848 100.496 107.992 100.893C108.142 101.285 108.216 101.733 108.216 102.237C108.216 102.433 108.195 102.563 108.153 102.629C108.111 102.694 108.032 102.727 107.915 102.727H103.197C103.207 103.175 103.267 103.564 103.379 103.896C103.491 104.227 103.645 104.505 103.841 104.729C104.037 104.948 104.271 105.114 104.541 105.226C104.812 105.333 105.115 105.387 105.451 105.387C105.764 105.387 106.032 105.352 106.256 105.282C106.485 105.207 106.681 105.128 106.844 105.044C107.008 104.96 107.143 104.883 107.25 104.813C107.362 104.738 107.458 104.701 107.537 104.701C107.64 104.701 107.719 104.74 107.775 104.82L108.125 105.275C107.971 105.461 107.787 105.625 107.572 105.765C107.358 105.9 107.127 106.012 106.879 106.101C106.637 106.189 106.385 106.255 106.123 106.297C105.862 106.343 105.603 106.367 105.346 106.367C104.856 106.367 104.404 106.285 103.988 106.122C103.578 105.954 103.221 105.711 102.917 105.394C102.619 105.072 102.385 104.675 102.217 104.204C102.049 103.732 101.965 103.191 101.965 102.58C101.965 102.085 102.04 101.623 102.189 101.194C102.343 100.764 102.563 100.393 102.847 100.081C103.132 99.7632 103.48 99.5159 103.89 99.3386C104.301 99.1566 104.763 99.0656 105.276 99.0656ZM105.304 99.9826C104.702 99.9826 104.229 100.158 103.883 100.508C103.538 100.853 103.323 101.334 103.239 101.95H107.096C107.096 101.66 107.057 101.397 106.977 101.159C106.898 100.916 106.781 100.708 106.627 100.536C106.473 100.358 106.284 100.223 106.06 100.13C105.841 100.032 105.589 99.9826 105.304 99.9826ZM109.811 106.269V99.1776H110.553C110.73 99.1776 110.842 99.2639 110.889 99.4366L110.987 100.207C111.295 99.8659 111.638 99.5906 112.016 99.3806C112.399 99.1706 112.84 99.0656 113.339 99.0656C113.726 99.0656 114.067 99.1309 114.361 99.2616C114.66 99.3876 114.907 99.5696 115.103 99.8076C115.304 100.041 115.455 100.323 115.558 100.655C115.661 100.986 115.712 101.352 115.712 101.754V106.269H114.466V101.754C114.466 101.217 114.342 100.802 114.095 100.508C113.852 100.209 113.479 100.06 112.975 100.06C112.606 100.06 112.261 100.148 111.939 100.326C111.622 100.503 111.328 100.743 111.057 101.047V106.269H109.811ZM119.739 106.381C119.179 106.381 118.748 106.224 118.444 105.912C118.146 105.599 117.996 105.149 117.996 104.561V100.221H117.142C117.068 100.221 117.005 100.2 116.953 100.158C116.902 100.111 116.876 100.041 116.876 99.9476V99.4506L118.038 99.3036L118.325 97.1126C118.335 97.0426 118.365 96.9866 118.416 96.9446C118.468 96.8979 118.533 96.8746 118.612 96.8746H119.242V99.3176H121.272V100.221H119.242V104.477C119.242 104.775 119.315 104.997 119.459 105.142C119.604 105.286 119.791 105.359 120.019 105.359C120.15 105.359 120.262 105.342 120.355 105.31C120.453 105.272 120.537 105.233 120.607 105.191C120.677 105.149 120.736 105.111 120.782 105.079C120.834 105.041 120.878 105.023 120.915 105.023C120.981 105.023 121.039 105.062 121.09 105.142L121.454 105.737C121.24 105.937 120.981 106.096 120.677 106.213C120.374 106.325 120.061 106.381 119.739 106.381ZM126.873 100.347C126.817 100.449 126.731 100.501 126.614 100.501C126.544 100.501 126.465 100.475 126.376 100.424C126.287 100.372 126.178 100.316 126.047 100.256C125.921 100.19 125.769 100.132 125.592 100.081C125.415 100.025 125.205 99.9966 124.962 99.9966C124.752 99.9966 124.563 100.025 124.395 100.081C124.227 100.132 124.082 100.204 123.961 100.298C123.844 100.391 123.753 100.501 123.688 100.627C123.627 100.748 123.597 100.881 123.597 101.026C123.597 101.208 123.648 101.359 123.751 101.481C123.858 101.602 123.998 101.707 124.171 101.796C124.344 101.884 124.54 101.964 124.759 102.034C124.978 102.099 125.202 102.171 125.431 102.251C125.664 102.325 125.891 102.409 126.11 102.503C126.329 102.596 126.525 102.713 126.698 102.853C126.871 102.993 127.008 103.165 127.111 103.371C127.218 103.571 127.272 103.814 127.272 104.099C127.272 104.425 127.214 104.729 127.097 105.009C126.98 105.284 126.808 105.524 126.579 105.73C126.35 105.93 126.07 106.089 125.739 106.206C125.408 106.322 125.025 106.381 124.591 106.381C124.096 106.381 123.648 106.301 123.247 106.143C122.846 105.979 122.505 105.772 122.225 105.52L122.519 105.044C122.556 104.983 122.601 104.936 122.652 104.904C122.703 104.871 122.771 104.855 122.855 104.855C122.939 104.855 123.028 104.887 123.121 104.953C123.214 105.018 123.326 105.09 123.457 105.17C123.592 105.249 123.753 105.321 123.94 105.387C124.131 105.452 124.369 105.485 124.654 105.485C124.897 105.485 125.109 105.454 125.291 105.394C125.473 105.328 125.625 105.242 125.746 105.135C125.867 105.027 125.956 104.904 126.012 104.764C126.073 104.624 126.103 104.474 126.103 104.316C126.103 104.12 126.049 103.959 125.942 103.833C125.839 103.702 125.702 103.592 125.529 103.504C125.356 103.41 125.158 103.331 124.934 103.266C124.715 103.196 124.488 103.123 124.255 103.049C124.026 102.974 123.8 102.89 123.576 102.797C123.357 102.699 123.161 102.577 122.988 102.433C122.815 102.288 122.675 102.111 122.568 101.901C122.465 101.686 122.414 101.427 122.414 101.124C122.414 100.853 122.47 100.594 122.582 100.347C122.694 100.095 122.857 99.8752 123.072 99.6886C123.287 99.4972 123.55 99.3456 123.863 99.2336C124.176 99.1216 124.533 99.0656 124.934 99.0656C125.401 99.0656 125.818 99.1402 126.187 99.2896C126.56 99.4342 126.882 99.6349 127.153 99.8916L126.873 100.347Z" fill="black"/>
</svg>
