<svg width="166" height="167" viewBox="0 0 166 167" fill="none" xmlns="http://www.w3.org/2000/svg">
<g filter="url(#filter0_d_404_11768)">
<path d="M126 4.24512H40C22.3269 4.24512 8 18.5719 8 36.2448V122.244C8 139.917 22.3269 154.244 40 154.244H126C143.673 154.244 158 139.917 158 122.244V36.2448C158 18.5719 143.673 4.24512 126 4.24512Z" fill="#FFF4DF"/>
</g>
<rect x="63" y="44.2451" width="41" height="40.9996" rx="8" fill="#48CC26"/>
<path d="M89.406 66.0146V64.5879H94V66.0163L89.406 66.0146ZM90.9483 75.2451L87.2729 72.4757L88.1591 71.344L91.8341 74.1134L90.9483 75.2451ZM88.0503 59.1462L87.1645 58.0145L90.8395 55.2451L91.7253 56.3768L88.0503 59.1462ZM73 68.1577V62.4435H77.867L82.9532 57.3334V73.2678L77.867 68.1577H73ZM81.5315 60.8007L78.4743 63.8722H74.4217V66.7294H78.4743L81.5315 69.8009V60.8007Z" fill="white"/>
<path d="M41.575 105.232C41.575 105.983 41.456 106.674 41.218 107.304C40.98 107.929 40.644 108.468 40.21 108.921C39.776 109.374 39.2534 109.726 38.642 109.978C38.0354 110.225 37.3634 110.349 36.626 110.349C35.8887 110.349 35.2167 110.225 34.61 109.978C34.0034 109.726 33.483 109.374 33.049 108.921C32.615 108.468 32.279 107.929 32.041 107.304C31.803 106.674 31.684 105.983 31.684 105.232C31.684 104.481 31.803 103.792 32.041 103.167C32.279 102.537 32.615 101.996 33.049 101.543C33.483 101.086 34.0034 100.731 34.61 100.479C35.2167 100.227 35.8887 100.101 36.626 100.101C37.3634 100.101 38.0354 100.227 38.642 100.479C39.2534 100.731 39.776 101.086 40.21 101.543C40.644 101.996 40.98 102.537 41.218 103.167C41.456 103.792 41.575 104.481 41.575 105.232ZM40.182 105.232C40.182 104.616 40.098 104.063 39.93 103.573C39.762 103.083 39.524 102.67 39.216 102.334C38.908 101.993 38.5347 101.732 38.096 101.55C37.6574 101.368 37.1674 101.277 36.626 101.277C36.0894 101.277 35.6017 101.368 35.163 101.55C34.7244 101.732 34.3487 101.993 34.036 102.334C33.728 102.67 33.49 103.083 33.322 103.573C33.154 104.063 33.07 104.616 33.07 105.232C33.07 105.848 33.154 106.401 33.322 106.891C33.49 107.376 33.728 107.789 34.036 108.13C34.3487 108.466 34.7244 108.725 35.163 108.907C35.6017 109.084 36.0894 109.173 36.626 109.173C37.1674 109.173 37.6574 109.084 38.096 108.907C38.5347 108.725 38.908 108.466 39.216 108.13C39.524 107.789 39.762 107.376 39.93 106.891C40.098 106.401 40.182 105.848 40.182 105.232ZM43.232 112.645V103.153H43.974C44.1513 103.153 44.2633 103.239 44.31 103.412L44.415 104.252C44.7183 103.883 45.0636 103.587 45.451 103.363C45.843 103.139 46.2933 103.027 46.802 103.027C47.208 103.027 47.5766 103.106 47.908 103.265C48.2393 103.419 48.5216 103.65 48.755 103.958C48.9883 104.261 49.168 104.639 49.294 105.092C49.42 105.545 49.483 106.065 49.483 106.653C49.483 107.176 49.413 107.663 49.273 108.116C49.133 108.564 48.9323 108.954 48.671 109.285C48.4096 109.612 48.0876 109.871 47.705 110.062C47.327 110.249 46.9 110.342 46.424 110.342C45.9853 110.342 45.6096 110.27 45.297 110.125C44.989 109.98 44.716 109.775 44.478 109.509V112.645H43.232ZM46.389 104.035C45.983 104.035 45.626 104.128 45.318 104.315C45.0146 104.502 44.7346 104.765 44.478 105.106V108.536C44.7066 108.844 44.9563 109.061 45.227 109.187C45.5023 109.313 45.808 109.376 46.144 109.376C46.802 109.376 47.3083 109.14 47.663 108.669C48.0176 108.198 48.195 107.526 48.195 106.653C48.195 106.191 48.153 105.794 48.069 105.463C47.9896 105.132 47.873 104.861 47.719 104.651C47.565 104.436 47.376 104.28 47.152 104.182C46.928 104.084 46.6736 104.035 46.389 104.035ZM53.1056 110.356C52.5456 110.356 52.1139 110.2 51.8106 109.887C51.5119 109.574 51.3626 109.124 51.3626 108.536V104.196H50.5086C50.4339 104.196 50.3709 104.175 50.3196 104.133C50.2682 104.086 50.2426 104.016 50.2426 103.923V103.426L51.4046 103.279L51.6916 101.088C51.7009 101.018 51.7312 100.962 51.7826 100.92C51.8339 100.873 51.8992 100.85 51.9786 100.85H52.6086V103.293H54.6386V104.196H52.6086V108.452C52.6086 108.751 52.6809 108.972 52.8256 109.117C52.9702 109.262 53.1569 109.334 53.3856 109.334C53.5162 109.334 53.6282 109.318 53.7216 109.285C53.8196 109.248 53.9036 109.208 53.9736 109.166C54.0436 109.124 54.1019 109.087 54.1486 109.054C54.1999 109.017 54.2442 108.998 54.2816 108.998C54.3469 108.998 54.4052 109.038 54.4566 109.117L54.8206 109.712C54.6059 109.913 54.3469 110.071 54.0436 110.188C53.7402 110.3 53.4276 110.356 53.1056 110.356ZM57.5652 103.153V110.244H56.3192V103.153H57.5652ZM57.8452 100.927C57.8452 101.048 57.8196 101.163 57.7682 101.27C57.7216 101.373 57.6562 101.466 57.5722 101.55C57.4929 101.629 57.3996 101.692 57.2922 101.739C57.1849 101.786 57.0706 101.809 56.9492 101.809C56.8279 101.809 56.7136 101.786 56.6062 101.739C56.5036 101.692 56.4102 101.629 56.3262 101.55C56.2469 101.466 56.1839 101.373 56.1372 101.27C56.0906 101.163 56.0672 101.048 56.0672 100.927C56.0672 100.806 56.0906 100.691 56.1372 100.584C56.1839 100.472 56.2469 100.376 56.3262 100.297C56.4102 100.213 56.5036 100.148 56.6062 100.101C56.7136 100.054 56.8279 100.031 56.9492 100.031C57.0706 100.031 57.1849 100.054 57.2922 100.101C57.3996 100.148 57.4929 100.213 57.5722 100.297C57.6562 100.376 57.7216 100.472 57.7682 100.584C57.8196 100.691 57.8452 100.806 57.8452 100.927ZM59.7613 110.244V103.153H60.5033C60.6806 103.153 60.7926 103.239 60.8393 103.412L60.9303 104.14C61.1916 103.818 61.4833 103.554 61.8053 103.349C62.1319 103.144 62.5099 103.041 62.9393 103.041C63.4199 103.041 63.8073 103.174 64.1013 103.44C64.3999 103.706 64.6146 104.065 64.7453 104.518C64.8433 104.261 64.9716 104.04 65.1303 103.853C65.2936 103.666 65.4756 103.512 65.6763 103.391C65.8769 103.27 66.0893 103.181 66.3133 103.125C66.5419 103.069 66.7729 103.041 67.0063 103.041C67.3796 103.041 67.7109 103.102 68.0003 103.223C68.2943 103.34 68.5416 103.512 68.7423 103.741C68.9476 103.97 69.1039 104.252 69.2113 104.588C69.3186 104.919 69.3723 105.3 69.3723 105.729V110.244H68.1263V105.729C68.1263 105.174 68.0049 104.754 67.7623 104.469C67.5196 104.18 67.1673 104.035 66.7053 104.035C66.4999 104.035 66.3039 104.072 66.1173 104.147C65.9353 104.217 65.7743 104.322 65.6343 104.462C65.4943 104.602 65.3823 104.779 65.2983 104.994C65.2189 105.204 65.1793 105.449 65.1793 105.729V110.244H63.9333V105.729C63.9333 105.16 63.8189 104.735 63.5903 104.455C63.3616 104.175 63.0279 104.035 62.5893 104.035C62.2813 104.035 61.9943 104.119 61.7283 104.287C61.4669 104.45 61.2266 104.674 61.0073 104.959V110.244H59.7613ZM72.6453 103.153V110.244H71.3993V103.153H72.6453ZM72.9253 100.927C72.9253 101.048 72.8996 101.163 72.8483 101.27C72.8016 101.373 72.7363 101.466 72.6523 101.55C72.573 101.629 72.4796 101.692 72.3723 101.739C72.265 101.786 72.1506 101.809 72.0293 101.809C71.908 101.809 71.7936 101.786 71.6863 101.739C71.5836 101.692 71.4903 101.629 71.4063 101.55C71.327 101.466 71.264 101.373 71.2173 101.27C71.1706 101.163 71.1473 101.048 71.1473 100.927C71.1473 100.806 71.1706 100.691 71.2173 100.584C71.264 100.472 71.327 100.376 71.4063 100.297C71.4903 100.213 71.5836 100.148 71.6863 100.101C71.7936 100.054 71.908 100.031 72.0293 100.031C72.1506 100.031 72.265 100.054 72.3723 100.101C72.4796 100.148 72.573 100.213 72.6523 100.297C72.7363 100.376 72.8016 100.472 72.8483 100.584C72.8996 100.691 72.9253 100.806 72.9253 100.927ZM79.7903 103.685C79.7903 103.774 79.774 103.86 79.7413 103.944C79.7087 104.023 79.6667 104.096 79.6153 104.161L75.7793 109.271H79.6503V110.244H74.3093V109.726C74.3093 109.665 74.3233 109.595 74.3513 109.516C74.384 109.432 74.4283 109.353 74.4843 109.278L78.3413 104.133H74.5263V103.153H79.7903V103.685ZM84.1151 103.041C84.5398 103.041 84.9318 103.113 85.2911 103.258C85.6505 103.398 85.9608 103.603 86.2221 103.874C86.4835 104.14 86.6865 104.471 86.8311 104.868C86.9805 105.26 87.0551 105.708 87.0551 106.212C87.0551 106.408 87.0341 106.539 86.9921 106.604C86.9501 106.669 86.8708 106.702 86.7541 106.702H82.0361C82.0455 107.15 82.1061 107.54 82.2181 107.871C82.3301 108.202 82.4841 108.48 82.6801 108.704C82.8761 108.923 83.1095 109.089 83.3801 109.201C83.6508 109.308 83.9541 109.362 84.2901 109.362C84.6028 109.362 84.8711 109.327 85.0951 109.257C85.3238 109.182 85.5198 109.103 85.6831 109.019C85.8465 108.935 85.9818 108.858 86.0891 108.788C86.2011 108.713 86.2968 108.676 86.3761 108.676C86.4788 108.676 86.5581 108.716 86.6141 108.795L86.9641 109.25C86.8101 109.437 86.6258 109.6 86.4111 109.74C86.1965 109.875 85.9655 109.987 85.7181 110.076C85.4755 110.165 85.2235 110.23 84.9621 110.272C84.7008 110.319 84.4418 110.342 84.1851 110.342C83.6951 110.342 83.2425 110.26 82.8271 110.097C82.4165 109.929 82.0595 109.686 81.7561 109.369C81.4575 109.047 81.2241 108.65 81.0561 108.179C80.8881 107.708 80.8041 107.166 80.8041 106.555C80.8041 106.06 80.8788 105.598 81.0281 105.169C81.1821 104.74 81.4015 104.369 81.6861 104.056C81.9708 103.739 82.3185 103.491 82.7291 103.314C83.1398 103.132 83.6018 103.041 84.1151 103.041ZM84.1431 103.958C83.5411 103.958 83.0675 104.133 82.7221 104.483C82.3768 104.828 82.1621 105.309 82.0781 105.925H85.9351C85.9351 105.636 85.8955 105.372 85.8161 105.134C85.7368 104.891 85.6201 104.684 85.4661 104.511C85.3121 104.334 85.1231 104.198 84.8991 104.105C84.6798 104.007 84.4278 103.958 84.1431 103.958ZM90.433 100.213H91.56C91.6813 100.213 91.7816 100.243 91.861 100.304C91.9403 100.365 91.994 100.442 92.022 100.535L94.094 107.507C94.1313 107.633 94.164 107.768 94.192 107.913C94.2246 108.058 94.255 108.209 94.283 108.368C94.3156 108.209 94.3483 108.058 94.381 107.913C94.4136 107.764 94.451 107.628 94.493 107.507L96.852 100.535C96.88 100.456 96.9336 100.383 97.013 100.318C97.097 100.248 97.1973 100.213 97.314 100.213H97.706C97.8273 100.213 97.9253 100.243 98 100.304C98.0793 100.365 98.1353 100.442 98.168 100.535L100.513 107.507C100.597 107.75 100.672 108.027 100.737 108.34C100.765 108.186 100.791 108.039 100.814 107.899C100.837 107.759 100.868 107.628 100.905 107.507L102.984 100.535C103.007 100.451 103.059 100.376 103.138 100.311C103.222 100.246 103.322 100.213 103.439 100.213H104.496L101.367 110.244H100.149L97.608 102.593C97.5566 102.448 97.51 102.28 97.468 102.089C97.4446 102.182 97.4213 102.273 97.398 102.362C97.3793 102.446 97.3583 102.523 97.335 102.593L94.78 110.244H93.562L90.433 100.213ZM107.003 103.153V110.244H105.757V103.153H107.003ZM107.283 100.927C107.283 101.048 107.257 101.163 107.206 101.27C107.159 101.373 107.094 101.466 107.01 101.55C106.93 101.629 106.837 101.692 106.73 101.739C106.622 101.786 106.508 101.809 106.387 101.809C106.265 101.809 106.151 101.786 106.044 101.739C105.941 101.692 105.848 101.629 105.764 101.55C105.684 101.466 105.621 101.373 105.575 101.27C105.528 101.163 105.505 101.048 105.505 100.927C105.505 100.806 105.528 100.691 105.575 100.584C105.621 100.472 105.684 100.376 105.764 100.297C105.848 100.213 105.941 100.148 106.044 100.101C106.151 100.054 106.265 100.031 106.387 100.031C106.508 100.031 106.622 100.054 106.73 100.101C106.837 100.148 106.93 100.213 107.01 100.297C107.094 100.376 107.159 100.472 107.206 100.584C107.257 100.691 107.283 100.806 107.283 100.927ZM111.348 110.356C110.788 110.356 110.356 110.2 110.053 109.887C109.754 109.574 109.605 109.124 109.605 108.536V104.196H108.751C108.676 104.196 108.613 104.175 108.562 104.133C108.51 104.086 108.485 104.016 108.485 103.923V103.426L109.647 103.279L109.934 101.088C109.943 101.018 109.973 100.962 110.025 100.92C110.076 100.873 110.141 100.85 110.221 100.85H110.851V103.293H112.881V104.196H110.851V108.452C110.851 108.751 110.923 108.972 111.068 109.117C111.212 109.262 111.399 109.334 111.628 109.334C111.758 109.334 111.87 109.318 111.964 109.285C112.062 109.248 112.146 109.208 112.216 109.166C112.286 109.124 112.344 109.087 112.391 109.054C112.442 109.017 112.486 108.998 112.524 108.998C112.589 108.998 112.647 109.038 112.699 109.117L113.063 109.712C112.848 109.913 112.589 110.071 112.286 110.188C111.982 110.3 111.67 110.356 111.348 110.356ZM114.421 110.244V99.9331H115.667V104.105C115.971 103.783 116.307 103.526 116.675 103.335C117.044 103.139 117.469 103.041 117.949 103.041C118.337 103.041 118.677 103.106 118.971 103.237C119.27 103.363 119.517 103.545 119.713 103.783C119.914 104.016 120.066 104.299 120.168 104.63C120.271 104.961 120.322 105.328 120.322 105.729V110.244H119.076V105.729C119.076 105.192 118.953 104.777 118.705 104.483C118.463 104.184 118.089 104.035 117.585 104.035C117.217 104.035 116.871 104.124 116.549 104.301C116.232 104.478 115.938 104.719 115.667 105.022V110.244H114.421ZM125.071 103.041C125.589 103.041 126.055 103.127 126.471 103.3C126.891 103.473 127.245 103.718 127.535 104.035C127.829 104.352 128.053 104.737 128.207 105.19C128.365 105.638 128.445 106.14 128.445 106.695C128.445 107.255 128.365 107.759 128.207 108.207C128.053 108.655 127.829 109.038 127.535 109.355C127.245 109.672 126.891 109.917 126.471 110.09C126.055 110.258 125.589 110.342 125.071 110.342C124.553 110.342 124.084 110.258 123.664 110.09C123.248 109.917 122.894 109.672 122.6 109.355C122.306 109.038 122.079 108.655 121.921 108.207C121.762 107.759 121.683 107.255 121.683 106.695C121.683 106.14 121.762 105.638 121.921 105.19C122.079 104.737 122.306 104.352 122.6 104.035C122.894 103.718 123.248 103.473 123.664 103.3C124.084 103.127 124.553 103.041 125.071 103.041ZM125.071 109.369C125.771 109.369 126.293 109.136 126.639 108.669C126.984 108.198 127.157 107.542 127.157 106.702C127.157 105.857 126.984 105.199 126.639 104.728C126.293 104.257 125.771 104.021 125.071 104.021C124.716 104.021 124.408 104.082 124.147 104.203C123.885 104.324 123.666 104.499 123.489 104.728C123.316 104.957 123.185 105.239 123.097 105.575C123.013 105.906 122.971 106.282 122.971 106.702C122.971 107.122 123.013 107.498 123.097 107.829C123.185 108.16 123.316 108.44 123.489 108.669C123.666 108.893 123.885 109.066 124.147 109.187C124.408 109.308 124.716 109.369 125.071 109.369ZM131.058 103.153V107.675C131.058 108.212 131.182 108.627 131.429 108.921C131.676 109.215 132.05 109.362 132.549 109.362C132.913 109.362 133.256 109.276 133.578 109.103C133.9 108.93 134.196 108.69 134.467 108.382V103.153H135.713V110.244H134.971C134.794 110.244 134.682 110.158 134.635 109.985L134.537 109.222C134.229 109.563 133.884 109.838 133.501 110.048C133.118 110.253 132.68 110.356 132.185 110.356C131.798 110.356 131.455 110.293 131.156 110.167C130.862 110.036 130.615 109.854 130.414 109.621C130.213 109.388 130.062 109.105 129.959 108.774C129.861 108.443 129.812 108.076 129.812 107.675V103.153H131.058ZM139.908 110.356C139.348 110.356 138.917 110.2 138.613 109.887C138.315 109.574 138.165 109.124 138.165 108.536V104.196H137.311C137.237 104.196 137.174 104.175 137.122 104.133C137.071 104.086 137.045 104.016 137.045 103.923V103.426L138.207 103.279L138.494 101.088C138.504 101.018 138.534 100.962 138.585 100.92C138.637 100.873 138.702 100.85 138.781 100.85H139.411V103.293H141.441V104.196H139.411V108.452C139.411 108.751 139.484 108.972 139.628 109.117C139.773 109.262 139.96 109.334 140.188 109.334C140.319 109.334 140.431 109.318 140.524 109.285C140.622 109.248 140.706 109.208 140.776 109.166C140.846 109.124 140.905 109.087 140.951 109.054C141.003 109.017 141.047 108.998 141.084 108.998C141.15 108.998 141.208 109.038 141.259 109.117L141.623 109.712C141.409 109.913 141.15 110.071 140.846 110.188C140.543 110.3 140.23 110.356 139.908 110.356ZM76.6051 133.257C76.8757 133.257 77.1231 133.245 77.3471 133.222C77.5757 133.194 77.7904 133.154 77.9911 133.103C78.1917 133.052 78.3807 132.991 78.5581 132.921C78.7354 132.846 78.9127 132.762 79.0901 132.669V130.457H77.5361C77.4474 130.457 77.3751 130.431 77.3191 130.38C77.2677 130.329 77.2421 130.266 77.2421 130.191V129.421H80.3221V133.271C80.0701 133.453 79.8064 133.612 79.5311 133.747C79.2604 133.882 78.9687 133.997 78.6561 134.09C78.3481 134.179 78.0167 134.244 77.6621 134.286C77.3074 134.333 76.9224 134.356 76.5071 134.356C75.7791 134.356 75.1117 134.232 74.5051 133.985C73.8984 133.733 73.3757 133.383 72.9371 132.935C72.4984 132.482 72.1554 131.941 71.9081 131.311C71.6654 130.681 71.5441 129.988 71.5441 129.232C71.5441 128.467 71.6631 127.769 71.9011 127.139C72.1437 126.509 72.4867 125.97 72.9301 125.522C73.3781 125.069 73.9171 124.719 74.5471 124.472C75.1817 124.225 75.8911 124.101 76.6751 124.101C77.0717 124.101 77.4404 124.131 77.7811 124.192C78.1217 124.248 78.4367 124.332 78.7261 124.444C79.0201 124.551 79.2907 124.684 79.5381 124.843C79.7854 124.997 80.0164 125.172 80.2311 125.368L79.8461 125.984C79.7667 126.11 79.6641 126.173 79.5381 126.173C79.4634 126.173 79.3817 126.147 79.2931 126.096C79.1764 126.031 79.0457 125.951 78.9011 125.858C78.7564 125.765 78.5791 125.676 78.3691 125.592C78.1637 125.503 77.9187 125.429 77.6341 125.368C77.3541 125.307 77.0204 125.277 76.6331 125.277C76.0684 125.277 75.5574 125.37 75.1001 125.557C74.6427 125.739 74.2531 126.003 73.9311 126.348C73.6091 126.689 73.3617 127.104 73.1891 127.594C73.0164 128.079 72.9301 128.625 72.9301 129.232C72.9301 129.867 73.0187 130.434 73.1961 130.933C73.3781 131.428 73.6324 131.848 73.9591 132.193C74.2857 132.538 74.6731 132.802 75.1211 132.984C75.5691 133.166 76.0637 133.257 76.6051 133.257ZM87.4253 134.244H86.8723C86.751 134.244 86.653 134.225 86.5783 134.188C86.5036 134.151 86.4546 134.071 86.4313 133.95L86.2913 133.292C86.1046 133.46 85.9226 133.612 85.7453 133.747C85.568 133.878 85.3813 133.99 85.1853 134.083C84.9893 134.172 84.7793 134.239 84.5553 134.286C84.336 134.333 84.091 134.356 83.8203 134.356C83.545 134.356 83.286 134.319 83.0433 134.244C82.8053 134.165 82.5976 134.048 82.4203 133.894C82.243 133.74 82.1006 133.546 81.9933 133.313C81.8906 133.075 81.8393 132.795 81.8393 132.473C81.8393 132.193 81.9163 131.925 82.0703 131.668C82.2243 131.407 82.4716 131.176 82.8123 130.975C83.1576 130.774 83.608 130.611 84.1633 130.485C84.7186 130.354 85.3976 130.28 86.2003 130.261V129.708C86.2003 129.157 86.0813 128.742 85.8433 128.462C85.61 128.177 85.2623 128.035 84.8003 128.035C84.497 128.035 84.2403 128.075 84.0303 128.154C83.825 128.229 83.6453 128.315 83.4913 128.413C83.342 128.506 83.2113 128.593 83.0993 128.672C82.992 128.747 82.8846 128.784 82.7773 128.784C82.6933 128.784 82.6186 128.763 82.5533 128.721C82.4926 128.674 82.4436 128.618 82.4063 128.553L82.1823 128.154C82.5743 127.776 82.9966 127.494 83.4493 127.307C83.902 127.12 84.4036 127.027 84.9543 127.027C85.351 127.027 85.7033 127.092 86.0113 127.223C86.3193 127.354 86.5783 127.536 86.7883 127.769C86.9983 128.002 87.157 128.285 87.2643 128.616C87.3716 128.947 87.4253 129.311 87.4253 129.708V134.244ZM84.1913 133.481C84.4106 133.481 84.6113 133.46 84.7933 133.418C84.9753 133.371 85.1456 133.308 85.3043 133.229C85.4676 133.145 85.6216 133.045 85.7663 132.928C85.9156 132.811 86.0603 132.678 86.2003 132.529V131.052C85.6263 131.071 85.1386 131.117 84.7373 131.192C84.336 131.262 84.0093 131.355 83.7573 131.472C83.5053 131.589 83.321 131.726 83.2043 131.885C83.0923 132.044 83.0363 132.221 83.0363 132.417C83.0363 132.604 83.0666 132.765 83.1273 132.9C83.188 133.035 83.2696 133.147 83.3723 133.236C83.475 133.32 83.5963 133.383 83.7363 133.425C83.8763 133.462 84.028 133.481 84.1913 133.481ZM89.313 136.645V127.153H90.055C90.2323 127.153 90.3443 127.239 90.391 127.412L90.496 128.252C90.7993 127.883 91.1447 127.587 91.532 127.363C91.924 127.139 92.3743 127.027 92.883 127.027C93.289 127.027 93.6577 127.106 93.989 127.265C94.3203 127.419 94.6027 127.65 94.836 127.958C95.0693 128.261 95.249 128.639 95.375 129.092C95.501 129.545 95.564 130.065 95.564 130.653C95.564 131.176 95.494 131.663 95.354 132.116C95.214 132.564 95.0133 132.954 94.752 133.285C94.4907 133.612 94.1687 133.871 93.786 134.062C93.408 134.249 92.981 134.342 92.505 134.342C92.0663 134.342 91.6907 134.27 91.378 134.125C91.07 133.98 90.797 133.775 90.559 133.509V136.645H89.313ZM92.47 128.035C92.064 128.035 91.707 128.128 91.399 128.315C91.0957 128.502 90.8157 128.765 90.559 129.106V132.536C90.7877 132.844 91.0373 133.061 91.308 133.187C91.5833 133.313 91.889 133.376 92.225 133.376C92.883 133.376 93.3893 133.14 93.744 132.669C94.0987 132.198 94.276 131.526 94.276 130.653C94.276 130.191 94.234 129.794 94.15 129.463C94.0707 129.132 93.954 128.861 93.8 128.651C93.646 128.436 93.457 128.28 93.233 128.182C93.009 128.084 92.7547 128.035 92.47 128.035ZM101.098 128.322C101.042 128.425 100.955 128.476 100.839 128.476C100.769 128.476 100.689 128.45 100.601 128.399C100.512 128.348 100.402 128.292 100.272 128.231C100.146 128.166 99.994 128.107 99.8166 128.056C99.6393 128 99.4293 127.972 99.1866 127.972C98.9766 127.972 98.7876 128 98.6196 128.056C98.4516 128.107 98.307 128.18 98.1856 128.273C98.069 128.366 97.978 128.476 97.9126 128.602C97.852 128.723 97.8216 128.856 97.8216 129.001C97.8216 129.183 97.873 129.335 97.9756 129.456C98.083 129.577 98.223 129.682 98.3956 129.771C98.5683 129.86 98.7643 129.939 98.9836 130.009C99.203 130.074 99.427 130.147 99.6556 130.226C99.889 130.301 100.115 130.385 100.335 130.478C100.554 130.571 100.75 130.688 100.923 130.828C101.095 130.968 101.233 131.141 101.336 131.346C101.443 131.547 101.497 131.789 101.497 132.074C101.497 132.401 101.438 132.704 101.322 132.984C101.205 133.259 101.032 133.5 100.804 133.705C100.575 133.906 100.295 134.064 99.9636 134.181C99.6323 134.298 99.2496 134.356 98.8156 134.356C98.321 134.356 97.873 134.277 97.4716 134.118C97.0703 133.955 96.7296 133.747 96.4496 133.495L96.7436 133.019C96.781 132.958 96.8253 132.912 96.8766 132.879C96.928 132.846 96.9956 132.83 97.0796 132.83C97.1636 132.83 97.2523 132.863 97.3456 132.928C97.439 132.993 97.551 133.066 97.6816 133.145C97.817 133.224 97.978 133.297 98.1646 133.362C98.356 133.427 98.594 133.46 98.8786 133.46C99.1213 133.46 99.3336 133.43 99.5156 133.369C99.6976 133.304 99.8493 133.217 99.9706 133.11C100.092 133.003 100.181 132.879 100.237 132.739C100.297 132.599 100.328 132.45 100.328 132.291C100.328 132.095 100.274 131.934 100.167 131.808C100.064 131.677 99.9263 131.568 99.7536 131.479C99.581 131.386 99.3826 131.306 99.1586 131.241C98.9393 131.171 98.713 131.099 98.4796 131.024C98.251 130.949 98.0246 130.865 97.8006 130.772C97.5813 130.674 97.3853 130.553 97.2126 130.408C97.04 130.263 96.9 130.086 96.7926 129.876C96.69 129.661 96.6386 129.402 96.6386 129.099C96.6386 128.828 96.6946 128.569 96.8066 128.322C96.9186 128.07 97.082 127.851 97.2966 127.664C97.5113 127.473 97.775 127.321 98.0876 127.209C98.4003 127.097 98.7573 127.041 99.1586 127.041C99.6253 127.041 100.043 127.116 100.412 127.265C100.785 127.41 101.107 127.61 101.378 127.867L101.098 128.322Z" fill="black"/>
<defs>
<filter id="filter0_d_404_11768" x="0" y="0.245117" width="166" height="165.999" filterUnits="userSpaceOnUse" color-interpolation-filters="sRGB">
<feFlood flood-opacity="0" result="BackgroundImageFix"/>
<feColorMatrix in="SourceAlpha" type="matrix" values="0 0 0 0 0 0 0 0 0 0 0 0 0 0 0 0 0 0 127 0" result="hardAlpha"/>
<feOffset dy="4"/>
<feGaussianBlur stdDeviation="4"/>
<feComposite in2="hardAlpha" operator="out"/>
<feColorMatrix type="matrix" values="0 0 0 0 0 0 0 0 0 0 0 0 0 0 0 0 0 0 0.25 0"/>
<feBlend mode="normal" in2="BackgroundImageFix" result="effect1_dropShadow_404_11768"/>
<feBlend mode="normal" in="SourceGraphic" in2="effect1_dropShadow_404_11768" result="shape"/>
</filter>
</defs>
</svg>
