<svg width="151" height="151" viewBox="0 0 151 151" fill="none" xmlns="http://www.w3.org/2000/svg">
<path d="M118.055 0.28125H32.0547C14.3816 0.28125 0.0546875 14.608 0.0546875 32.281V118.28C0.0546875 135.953 14.3816 150.28 32.0547 150.28H118.055C135.728 150.28 150.055 135.953 150.055 118.28V32.281C150.055 14.608 135.728 0.28125 118.055 0.28125Z" fill="#EDDEC2"/>
<rect x="55.0547" y="40.2812" width="41" height="40.9996" rx="8" fill="#F85C3F"/>
<path d="M75.0105 67.7601H76.046V66.5217C76.8315 66.448 77.5832 66.1663 78.2238 65.7058C78.5738 65.4528 78.8532 65.1144 79.0356 64.7228C79.2179 64.3313 79.297 63.8996 79.2653 63.4688C79.2823 62.7771 79.0421 62.1036 78.5912 61.5788C78.1418 61.0579 77.2838 60.5687 76.0171 60.1112C74.8533 59.7059 74.1097 59.3574 73.7862 59.0658C73.6198 58.9062 73.4903 58.7122 73.4065 58.4973C73.3228 58.2824 73.2869 58.0519 73.3013 57.8218C73.2973 57.5643 73.352 57.3093 73.4611 57.0761C73.5703 56.843 73.7311 56.6377 73.9314 56.4758C74.406 56.0989 75.0018 55.9077 75.6071 55.9381C76.0809 55.9205 76.5487 56.0491 76.947 56.3064C77.3022 56.5497 77.5989 56.869 77.8156 57.2411L78.7333 56.8798C78.4836 56.3698 78.109 55.9312 77.6443 55.6049C77.1932 55.2726 76.6575 55.0743 76.0988 55.0326V53.7942H75.0634V55.0326C74.2681 55.1218 73.529 55.4857 72.9734 56.0616C72.5237 56.5379 72.2706 57.1664 72.2647 57.8214C72.2493 58.1586 72.305 58.4953 72.4283 58.8095C72.5516 59.1238 72.7396 59.4086 72.9802 59.6453C73.6922 60.2324 74.5125 60.6738 75.3947 60.9445C76.2125 61.1992 76.985 61.5815 77.6834 62.0773C77.8793 62.2506 78.0336 62.4658 78.135 62.7069C78.2364 62.9479 78.2822 63.2088 78.269 63.47C78.2938 63.7863 78.2311 64.1033 78.0878 64.3864C77.9444 64.6694 77.7259 64.9076 77.4562 65.0747C76.9312 65.3967 76.3271 65.5664 75.7112 65.5649C75.1197 65.5698 74.5425 65.3831 74.0659 65.0329C73.5482 64.642 73.144 64.1204 72.8947 63.5216L71.9649 63.9237C72.2177 64.5805 72.6337 65.1621 73.1737 65.6135C73.7132 66.0335 74.3408 66.3259 75.0094 66.4689L75.0105 67.7601ZM75.5547 70.2772C74.2827 70.2851 73.0228 70.0297 71.8543 69.5271C70.7288 69.0472 69.7051 68.3573 68.8379 67.4941C67.9748 66.627 67.2848 65.6032 66.805 64.4777C66.3023 63.3092 66.0469 62.0493 66.0549 60.7773C66.0469 59.5053 66.3023 58.2455 66.805 57.077C67.2848 55.9515 67.9748 54.9277 68.8379 54.0606C69.7051 53.1974 70.7288 52.5075 71.8543 52.0276C73.0228 51.525 74.2827 51.2696 75.5547 51.2775C76.8267 51.2696 78.0866 51.525 79.2551 52.0276C80.3806 52.5075 81.4043 53.1974 82.2714 54.0606C83.1346 54.9277 83.8246 55.9515 84.3044 57.077C84.8071 58.2455 85.0624 59.5053 85.0545 60.7773C85.0624 62.0493 84.8071 63.3092 84.3044 64.4777C83.8246 65.6032 83.1346 66.627 82.2714 67.4941C81.4043 68.3573 80.3806 69.0472 79.2551 69.5271C78.0866 70.0297 76.8267 70.2851 75.5547 70.2772ZM75.5547 69.2215C76.6678 69.2434 77.7736 69.0369 78.8039 68.6148C79.8341 68.1927 80.767 67.5641 81.5449 66.7675C82.3414 65.9896 82.9701 65.0568 83.3922 64.0266C83.8142 62.9963 84.0207 61.8905 83.9989 60.7773C84.0207 59.6642 83.8142 58.5584 83.3922 57.5281C82.9701 56.4979 82.3414 55.565 81.5449 54.7871C80.767 53.9906 79.8341 53.3619 78.8039 52.9399C77.7736 52.5178 76.6678 52.3113 75.5547 52.3331C74.4415 52.3113 73.3357 52.5178 72.3055 52.9399C71.2752 53.3619 70.3424 53.9906 69.5645 54.7871C68.768 55.565 68.1393 56.4979 67.7172 57.5281C67.2952 58.5584 67.0887 59.6642 67.1105 60.7773C67.0887 61.8905 67.2952 62.9963 67.7172 64.0266C68.1393 65.0568 68.768 65.9896 69.5645 66.7675C70.3424 67.5641 71.2752 68.1927 72.3055 68.6148C73.3357 69.0369 74.4415 69.2434 75.5547 69.2215Z" fill="white"/>
<path d="M41.0524 107.654C41.1177 107.766 41.1737 107.885 41.2204 108.011C41.2717 108.133 41.3207 108.256 41.3674 108.382C41.4141 108.252 41.4631 108.128 41.5144 108.011C41.5657 107.89 41.6241 107.769 41.6894 107.647L45.0844 101.48C45.1451 101.373 45.2081 101.308 45.2734 101.284C45.3387 101.261 45.4321 101.249 45.5534 101.249H46.5544V111.28H45.3644V103.909C45.3644 103.811 45.3667 103.706 45.3714 103.594C45.3761 103.482 45.3831 103.368 45.3924 103.251L41.9554 109.523C41.8387 109.733 41.6754 109.838 41.4654 109.838H41.2694C41.0594 109.838 40.8961 109.733 40.7794 109.523L37.2654 103.23C37.2794 103.352 37.2887 103.471 37.2934 103.587C37.3027 103.704 37.3074 103.811 37.3074 103.909V111.28H36.1174V101.249H37.1184C37.2397 101.249 37.3331 101.261 37.3984 101.284C37.4637 101.308 37.5267 101.373 37.5874 101.48L41.0524 107.654ZM54.0083 111.28H53.4553C53.334 111.28 53.236 111.262 53.1613 111.224C53.0867 111.187 53.0377 111.108 53.0143 110.986L52.8743 110.328C52.6877 110.496 52.5057 110.648 52.3283 110.783C52.151 110.914 51.9643 111.026 51.7683 111.119C51.5723 111.208 51.3623 111.276 51.1383 111.322C50.919 111.369 50.674 111.392 50.4033 111.392C50.128 111.392 49.869 111.355 49.6263 111.28C49.3883 111.201 49.1807 111.084 49.0033 110.93C48.826 110.776 48.6837 110.583 48.5763 110.349C48.4737 110.111 48.4223 109.831 48.4223 109.509C48.4223 109.229 48.4993 108.961 48.6533 108.704C48.8073 108.443 49.0547 108.212 49.3953 108.011C49.7407 107.811 50.191 107.647 50.7463 107.521C51.3017 107.391 51.9807 107.316 52.7833 107.297V106.744C52.7833 106.194 52.6643 105.778 52.4263 105.498C52.193 105.214 51.8453 105.071 51.3833 105.071C51.08 105.071 50.8233 105.111 50.6133 105.19C50.408 105.265 50.2283 105.351 50.0743 105.449C49.925 105.543 49.7943 105.629 49.6823 105.708C49.575 105.783 49.4677 105.82 49.3603 105.82C49.2763 105.82 49.2017 105.799 49.1363 105.757C49.0757 105.711 49.0267 105.655 48.9893 105.589L48.7653 105.19C49.1573 104.812 49.5797 104.53 50.0323 104.343C50.485 104.157 50.9867 104.063 51.5373 104.063C51.934 104.063 52.2863 104.129 52.5943 104.259C52.9023 104.39 53.1613 104.572 53.3713 104.805C53.5813 105.039 53.74 105.321 53.8473 105.652C53.9547 105.984 54.0083 106.348 54.0083 106.744V111.28ZM50.7743 110.517C50.9937 110.517 51.1943 110.496 51.3763 110.454C51.5583 110.408 51.7287 110.345 51.8873 110.265C52.0507 110.181 52.2047 110.081 52.3493 109.964C52.4987 109.848 52.6433 109.715 52.7833 109.565V108.088C52.2093 108.107 51.7217 108.154 51.3203 108.228C50.919 108.298 50.5923 108.392 50.3403 108.508C50.0883 108.625 49.904 108.763 49.7873 108.921C49.6753 109.08 49.6193 109.257 49.6193 109.453C49.6193 109.64 49.6497 109.801 49.7103 109.936C49.771 110.072 49.8527 110.184 49.9553 110.272C50.058 110.356 50.1793 110.419 50.3193 110.461C50.4593 110.499 50.611 110.517 50.7743 110.517ZM57.555 107.647L55.168 104.189H56.365C56.4677 104.189 56.5424 104.206 56.589 104.238C56.6357 104.271 56.6777 104.318 56.715 104.378L58.451 107.038C58.493 106.908 58.5537 106.777 58.633 106.646L60.159 104.406C60.2057 104.341 60.2524 104.29 60.299 104.252C60.3457 104.21 60.404 104.189 60.474 104.189H61.622L59.235 107.577L61.72 111.28H60.523C60.4204 111.28 60.3387 111.255 60.278 111.203C60.222 111.147 60.1754 111.087 60.138 111.021L58.353 108.242C58.3204 108.378 58.2714 108.499 58.206 108.606L56.554 111.021C56.5074 111.087 56.456 111.147 56.4 111.203C56.3487 111.255 56.2764 111.28 56.183 111.28H55.07L57.555 107.647ZM64.3367 104.189V111.28H63.0907V104.189H64.3367ZM64.6167 101.963C64.6167 102.085 64.591 102.199 64.5397 102.306C64.493 102.409 64.4277 102.502 64.3437 102.586C64.2644 102.666 64.171 102.729 64.0637 102.775C63.9564 102.822 63.842 102.845 63.7207 102.845C63.5994 102.845 63.485 102.822 63.3777 102.775C63.275 102.729 63.1817 102.666 63.0977 102.586C63.0184 102.502 62.9554 102.409 62.9087 102.306C62.862 102.199 62.8387 102.085 62.8387 101.963C62.8387 101.842 62.862 101.728 62.9087 101.62C62.9554 101.508 63.0184 101.413 63.0977 101.333C63.1817 101.249 63.275 101.184 63.3777 101.137C63.485 101.091 63.5994 101.067 63.7207 101.067C63.842 101.067 63.9564 101.091 64.0637 101.137C64.171 101.184 64.2644 101.249 64.3437 101.333C64.4277 101.413 64.493 101.508 64.5397 101.62C64.591 101.728 64.6167 101.842 64.6167 101.963ZM66.5327 111.28V104.189H67.2747C67.4521 104.189 67.5641 104.276 67.6107 104.448L67.7017 105.176C67.9631 104.854 68.2547 104.591 68.5767 104.385C68.9034 104.18 69.2814 104.077 69.7107 104.077C70.1914 104.077 70.5787 104.21 70.8727 104.476C71.1714 104.742 71.3861 105.102 71.5167 105.554C71.6147 105.298 71.7431 105.076 71.9017 104.889C72.0651 104.703 72.2471 104.549 72.4477 104.427C72.6484 104.306 72.8607 104.217 73.0847 104.161C73.3134 104.105 73.5444 104.077 73.7777 104.077C74.1511 104.077 74.4824 104.138 74.7717 104.259C75.0657 104.376 75.3131 104.549 75.5137 104.777C75.7191 105.006 75.8754 105.288 75.9827 105.624C76.0901 105.956 76.1437 106.336 76.1437 106.765V111.28H74.8977V106.765C74.8977 106.21 74.7764 105.79 74.5337 105.505C74.2911 105.216 73.9387 105.071 73.4767 105.071C73.2714 105.071 73.0754 105.109 72.8887 105.183C72.7067 105.253 72.5457 105.358 72.4057 105.498C72.2657 105.638 72.1537 105.816 72.0697 106.03C71.9904 106.24 71.9507 106.485 71.9507 106.765V111.28H70.7047V106.765C70.7047 106.196 70.5904 105.771 70.3617 105.491C70.1331 105.211 69.7994 105.071 69.3607 105.071C69.0527 105.071 68.7657 105.155 68.4997 105.323C68.2384 105.487 67.9981 105.711 67.7787 105.995V111.28H66.5327ZM79.4168 104.189V111.28H78.1708V104.189H79.4168ZM79.6968 101.963C79.6968 102.085 79.6711 102.199 79.6198 102.306C79.5731 102.409 79.5078 102.502 79.4238 102.586C79.3445 102.666 79.2511 102.729 79.1438 102.775C79.0365 102.822 78.9221 102.845 78.8008 102.845C78.6795 102.845 78.5651 102.822 78.4578 102.775C78.3551 102.729 78.2618 102.666 78.1778 102.586C78.0985 102.502 78.0355 102.409 77.9888 102.306C77.9421 102.199 77.9188 102.085 77.9188 101.963C77.9188 101.842 77.9421 101.728 77.9888 101.62C78.0355 101.508 78.0985 101.413 78.1778 101.333C78.2618 101.249 78.3551 101.184 78.4578 101.137C78.5651 101.091 78.6795 101.067 78.8008 101.067C78.9221 101.067 79.0365 101.091 79.1438 101.137C79.2511 101.184 79.3445 101.249 79.4238 101.333C79.5078 101.413 79.5731 101.508 79.6198 101.62C79.6711 101.728 79.6968 101.842 79.6968 101.963ZM86.5618 104.721C86.5618 104.81 86.5455 104.896 86.5128 104.98C86.4802 105.06 86.4382 105.132 86.3868 105.197L82.5508 110.307H86.4218V111.28H81.0808V110.762C81.0808 110.702 81.0948 110.632 81.1228 110.552C81.1555 110.468 81.1998 110.389 81.2558 110.314L85.1128 105.169H81.2978V104.189H86.5618V104.721ZM90.8866 104.077C91.3113 104.077 91.7033 104.15 92.0626 104.294C92.422 104.434 92.7323 104.64 92.9936 104.91C93.255 105.176 93.458 105.508 93.6026 105.904C93.752 106.296 93.8266 106.744 93.8266 107.248C93.8266 107.444 93.8056 107.575 93.7636 107.64C93.7216 107.706 93.6423 107.738 93.5256 107.738H88.8076C88.817 108.186 88.8776 108.576 88.9896 108.907C89.1016 109.239 89.2556 109.516 89.4516 109.74C89.6476 109.96 89.881 110.125 90.1516 110.237C90.4223 110.345 90.7256 110.398 91.0616 110.398C91.3743 110.398 91.6426 110.363 91.8666 110.293C92.0953 110.219 92.2913 110.139 92.4546 110.055C92.618 109.971 92.7533 109.894 92.8606 109.824C92.9726 109.75 93.0683 109.712 93.1476 109.712C93.2503 109.712 93.3296 109.752 93.3856 109.831L93.7356 110.286C93.5816 110.473 93.3973 110.636 93.1826 110.776C92.968 110.912 92.737 111.024 92.4896 111.112C92.247 111.201 91.995 111.266 91.7336 111.308C91.4723 111.355 91.2133 111.378 90.9566 111.378C90.4666 111.378 90.014 111.297 89.5986 111.133C89.188 110.965 88.831 110.723 88.5276 110.405C88.229 110.083 87.9956 109.687 87.8276 109.215C87.6596 108.744 87.5756 108.203 87.5756 107.591C87.5756 107.097 87.6503 106.635 87.7996 106.205C87.9536 105.776 88.173 105.405 88.4576 105.092C88.7423 104.775 89.09 104.528 89.5006 104.35C89.9113 104.168 90.3733 104.077 90.8866 104.077ZM90.9146 104.994C90.3126 104.994 89.839 105.169 89.4936 105.519C89.1483 105.865 88.9336 106.345 88.8496 106.961H92.7066C92.7066 106.672 92.667 106.408 92.5876 106.17C92.5083 105.928 92.3916 105.72 92.2376 105.547C92.0836 105.37 91.8946 105.235 91.6706 105.141C91.4513 105.043 91.1993 104.994 90.9146 104.994ZM99.5144 100.969V111.28H98.2684V100.969H99.5144ZM103.096 104.189V111.28H101.85V104.189H103.096ZM103.376 101.963C103.376 102.085 103.351 102.199 103.299 102.306C103.253 102.409 103.187 102.502 103.103 102.586C103.024 102.666 102.931 102.729 102.823 102.775C102.716 102.822 102.602 102.845 102.48 102.845C102.359 102.845 102.245 102.822 102.137 102.775C102.035 102.729 101.941 102.666 101.857 102.586C101.778 102.502 101.715 102.409 101.668 102.306C101.622 102.199 101.598 102.085 101.598 101.963C101.598 101.842 101.622 101.728 101.668 101.62C101.715 101.508 101.778 101.413 101.857 101.333C101.941 101.249 102.035 101.184 102.137 101.137C102.245 101.091 102.359 101.067 102.48 101.067C102.602 101.067 102.716 101.091 102.823 101.137C102.931 101.184 103.024 101.249 103.103 101.333C103.187 101.413 103.253 101.508 103.299 101.62C103.351 101.728 103.376 101.842 103.376 101.963ZM105.573 111.28V105.253L104.789 105.162C104.691 105.139 104.609 105.104 104.544 105.057C104.483 105.006 104.453 104.934 104.453 104.84V104.329H105.573V103.643C105.573 103.237 105.629 102.878 105.741 102.565C105.857 102.248 106.021 101.982 106.231 101.767C106.445 101.548 106.702 101.382 107.001 101.27C107.299 101.158 107.635 101.102 108.009 101.102C108.326 101.102 108.62 101.149 108.891 101.242L108.863 101.865C108.858 101.959 108.818 102.015 108.744 102.033C108.669 102.052 108.564 102.061 108.429 102.061H108.212C107.997 102.061 107.801 102.089 107.624 102.145C107.451 102.201 107.302 102.292 107.176 102.418C107.05 102.544 106.952 102.71 106.882 102.915C106.816 103.121 106.784 103.375 106.784 103.678V104.329H108.835V105.232H106.826V111.28H105.573ZM112.158 111.392C111.598 111.392 111.167 111.236 110.863 110.923C110.565 110.611 110.415 110.16 110.415 109.572V105.232H109.561C109.487 105.232 109.424 105.211 109.372 105.169C109.321 105.123 109.295 105.053 109.295 104.959V104.462L110.457 104.315L110.744 102.124C110.754 102.054 110.784 101.998 110.835 101.956C110.887 101.91 110.952 101.886 111.031 101.886H111.661V104.329H113.691V105.232H111.661V109.488C111.661 109.787 111.734 110.009 111.878 110.153C112.023 110.298 112.21 110.37 112.438 110.37C112.569 110.37 112.681 110.354 112.774 110.321C112.872 110.284 112.956 110.244 113.026 110.202C113.096 110.16 113.155 110.123 113.201 110.09C113.253 110.053 113.297 110.034 113.334 110.034C113.4 110.034 113.458 110.074 113.509 110.153L113.873 110.748C113.659 110.949 113.4 111.108 113.096 111.224C112.793 111.336 112.48 111.392 112.158 111.392Z" fill="black"/>
</svg>
