<svg width="151" height="151" viewBox="0 0 151 151" fill="none" xmlns="http://www.w3.org/2000/svg">
<path d="M118.055 0.529297H32.0547C14.3816 0.529297 0.0546875 14.8561 0.0546875 32.529V118.528C0.0546875 136.201 14.3816 150.528 32.0547 150.528H118.055C135.728 150.528 150.055 136.201 150.055 118.528V32.529C150.055 14.8561 135.728 0.529297 118.055 0.529297Z" fill="#EDDEC2"/>
<rect x="55.0547" y="40.5293" width="41" height="40.9996" rx="8" fill="#F05BE9"/>
<path d="M74.4921 71.526V69.2366H68.7706C68.5439 69.2423 68.3183 69.2032 68.1078 69.1216C67.8973 69.0399 67.7063 68.9176 67.5466 68.762C67.3855 68.6077 67.2588 68.4232 67.1743 68.2199C67.0899 68.0166 67.0493 67.7987 67.0553 67.5797V54.4756C67.0493 54.2566 67.0899 54.0387 67.1743 53.8354C67.2588 53.632 67.3855 53.4476 67.5466 53.2933C67.7063 53.1377 67.8973 53.0154 68.1078 52.9338C68.3183 52.8521 68.5439 52.813 68.7706 52.8187H74.4921V50.5293H75.5547V71.5293L74.4921 71.526ZM68.1168 67.1839H74.4921V59.8023L68.1168 67.1839ZM77.6798 69.2366V61.026L82.9926 67.1839V54.474C82.9909 54.392 82.972 54.3111 82.9369 54.2364C82.9018 54.1617 82.8514 54.0947 82.7886 54.0395C82.7314 53.9788 82.662 53.9301 82.5847 53.8962C82.5073 53.8623 82.4236 53.844 82.3387 53.8424H77.6805V52.8161H82.3387C82.5655 52.8104 82.7911 52.8495 83.0016 52.9311C83.2121 53.0127 83.4031 53.1351 83.5628 53.2907C83.7239 53.4449 83.8505 53.6294 83.935 53.8327C84.0195 54.0361 84.0601 54.254 84.0541 54.473V67.5771C84.0601 67.7961 84.0195 68.014 83.935 68.2173C83.8505 68.4206 83.7239 68.6051 83.5628 68.7594C83.4031 68.915 83.2121 69.0373 83.0016 69.1189C82.7911 69.2005 82.5655 69.2397 82.3387 69.2339L77.6798 69.2366Z" fill="white"/>
<path d="M25.405 102.902C25.4703 103.014 25.5263 103.133 25.573 103.259C25.6243 103.381 25.6733 103.504 25.72 103.63C25.7666 103.5 25.8156 103.376 25.867 103.259C25.9183 103.138 25.9766 103.017 26.042 102.895L29.437 96.7283C29.4976 96.621 29.5606 96.5557 29.626 96.5323C29.6913 96.509 29.7846 96.4973 29.906 96.4973H30.907V106.528H29.717V99.1573C29.717 99.0593 29.7193 98.9543 29.724 98.8423C29.7286 98.7303 29.7356 98.616 29.745 98.4993L26.308 104.771C26.1913 104.981 26.028 105.086 25.818 105.086H25.622C25.412 105.086 25.2486 104.981 25.132 104.771L21.618 98.4783C21.632 98.5997 21.6413 98.7187 21.646 98.8353C21.6553 98.952 21.66 99.0593 21.66 99.1573V106.528H20.47V96.4973H21.471C21.5923 96.4973 21.6856 96.509 21.751 96.5323C21.8163 96.5557 21.8793 96.621 21.94 96.7283L25.405 102.902ZM38.3609 106.528H37.8079C37.6865 106.528 37.5885 106.51 37.5139 106.472C37.4392 106.435 37.3902 106.356 37.3669 106.234L37.2269 105.576C37.0402 105.744 36.8582 105.896 36.6809 106.031C36.5035 106.162 36.3169 106.274 36.1209 106.367C35.9249 106.456 35.7149 106.524 35.4909 106.57C35.2715 106.617 35.0265 106.64 34.7559 106.64C34.4805 106.64 34.2215 106.603 33.9789 106.528C33.7409 106.449 33.5332 106.332 33.3559 106.178C33.1785 106.024 33.0362 105.831 32.9289 105.597C32.8262 105.359 32.7749 105.079 32.7749 104.757C32.7749 104.477 32.8519 104.209 33.0059 103.952C33.1599 103.691 33.4072 103.46 33.7479 103.259C34.0932 103.059 34.5435 102.895 35.0989 102.769C35.6542 102.639 36.3332 102.564 37.1359 102.545V101.992C37.1359 101.442 37.0169 101.026 36.7789 100.746C36.5455 100.462 36.1979 100.319 35.7359 100.319C35.4325 100.319 35.1759 100.359 34.9659 100.438C34.7605 100.513 34.5809 100.599 34.4269 100.697C34.2775 100.791 34.1469 100.877 34.0349 100.956C33.9275 101.031 33.8202 101.068 33.7129 101.068C33.6289 101.068 33.5542 101.047 33.4889 101.005C33.4282 100.959 33.3792 100.903 33.3419 100.837L33.1179 100.438C33.5099 100.06 33.9322 99.778 34.3849 99.5913C34.8375 99.4047 35.3392 99.3113 35.8899 99.3113C36.2865 99.3113 36.6389 99.3767 36.9469 99.5073C37.2549 99.638 37.5139 99.82 37.7239 100.053C37.9339 100.287 38.0925 100.569 38.1999 100.9C38.3072 101.232 38.3609 101.596 38.3609 101.992V106.528ZM35.1269 105.765C35.3462 105.765 35.5469 105.744 35.7289 105.702C35.9109 105.656 36.0812 105.593 36.2399 105.513C36.4032 105.429 36.5572 105.329 36.7019 105.212C36.8512 105.096 36.9959 104.963 37.1359 104.813V103.336C36.5619 103.355 36.0742 103.402 35.6729 103.476C35.2715 103.546 34.9449 103.64 34.6929 103.756C34.4409 103.873 34.2565 104.011 34.1399 104.169C34.0279 104.328 33.9719 104.505 33.9719 104.701C33.9719 104.888 34.0022 105.049 34.0629 105.184C34.1235 105.32 34.2052 105.432 34.3079 105.52C34.4105 105.604 34.5319 105.667 34.6719 105.709C34.8119 105.747 34.9635 105.765 35.1269 105.765ZM41.9076 102.895L39.5206 99.4373H40.7176C40.8202 99.4373 40.8949 99.4537 40.9416 99.4863C40.9882 99.519 41.0302 99.5657 41.0676 99.6263L42.8036 102.286C42.8456 102.156 42.9062 102.025 42.9856 101.894L44.5116 99.6543C44.5582 99.589 44.6049 99.5377 44.6516 99.5003C44.6982 99.4583 44.7566 99.4373 44.8266 99.4373H45.9746L43.5876 102.825L46.0726 106.528H44.8756C44.7729 106.528 44.6912 106.503 44.6306 106.451C44.5746 106.395 44.5279 106.335 44.4906 106.269L42.7056 103.49C42.6729 103.626 42.6239 103.747 42.5586 103.854L40.9066 106.269C40.8599 106.335 40.8086 106.395 40.7526 106.451C40.7012 106.503 40.6289 106.528 40.5356 106.528H39.4226L41.9076 102.895ZM48.6893 99.4373V106.528H47.4433V99.4373H48.6893ZM48.9693 97.2113C48.9693 97.3327 48.9436 97.447 48.8923 97.5543C48.8456 97.657 48.7803 97.7503 48.6963 97.8343C48.6169 97.9137 48.5236 97.9767 48.4163 98.0233C48.3089 98.07 48.1946 98.0933 48.0733 98.0933C47.9519 98.0933 47.8376 98.07 47.7303 98.0233C47.6276 97.9767 47.5343 97.9137 47.4503 97.8343C47.3709 97.7503 47.3079 97.657 47.2613 97.5543C47.2146 97.447 47.1913 97.3327 47.1913 97.2113C47.1913 97.09 47.2146 96.9757 47.2613 96.8683C47.3079 96.7563 47.3709 96.6607 47.4503 96.5813C47.5343 96.4973 47.6276 96.432 47.7303 96.3853C47.8376 96.3387 47.9519 96.3153 48.0733 96.3153C48.1946 96.3153 48.3089 96.3387 48.4163 96.3853C48.5236 96.432 48.6169 96.4973 48.6963 96.5813C48.7803 96.6607 48.8456 96.7563 48.8923 96.8683C48.9436 96.9757 48.9693 97.09 48.9693 97.2113ZM50.8853 106.528V99.4373H51.6273C51.8046 99.4373 51.9166 99.5237 51.9633 99.6963L52.0543 100.424C52.3156 100.102 52.6073 99.8387 52.9293 99.6333C53.2559 99.428 53.6339 99.3253 54.0633 99.3253C54.5439 99.3253 54.9313 99.4583 55.2253 99.7243C55.5239 99.9903 55.7386 100.35 55.8693 100.802C55.9673 100.546 56.0956 100.324 56.2543 100.137C56.4176 99.9507 56.5996 99.7967 56.8003 99.6753C57.0009 99.554 57.2133 99.4653 57.4373 99.4093C57.6659 99.3533 57.8969 99.3253 58.1303 99.3253C58.5036 99.3253 58.8349 99.386 59.1243 99.5073C59.4183 99.624 59.6656 99.7967 59.8663 100.025C60.0716 100.254 60.2279 100.536 60.3353 100.872C60.4426 101.204 60.4963 101.584 60.4963 102.013V106.528H59.2503V102.013C59.2503 101.458 59.1289 101.038 58.8863 100.753C58.6436 100.464 58.2913 100.319 57.8293 100.319C57.6239 100.319 57.4279 100.357 57.2413 100.431C57.0593 100.501 56.8983 100.606 56.7583 100.746C56.6183 100.886 56.5063 101.064 56.4223 101.278C56.3429 101.488 56.3033 101.733 56.3033 102.013V106.528H55.0573V102.013C55.0573 101.444 54.9429 101.019 54.7143 100.739C54.4856 100.459 54.1519 100.319 53.7133 100.319C53.4053 100.319 53.1183 100.403 52.8523 100.571C52.5909 100.735 52.3506 100.959 52.1313 101.243V106.528H50.8853ZM63.7693 99.4373V106.528H62.5233V99.4373H63.7693ZM64.0493 97.2113C64.0493 97.3327 64.0237 97.447 63.9723 97.5543C63.9257 97.657 63.8603 97.7503 63.7763 97.8343C63.697 97.9137 63.6037 97.9767 63.4963 98.0233C63.389 98.07 63.2747 98.0933 63.1533 98.0933C63.032 98.0933 62.9177 98.07 62.8103 98.0233C62.7077 97.9767 62.6143 97.9137 62.5303 97.8343C62.451 97.7503 62.388 97.657 62.3413 97.5543C62.2947 97.447 62.2713 97.3327 62.2713 97.2113C62.2713 97.09 62.2947 96.9757 62.3413 96.8683C62.388 96.7563 62.451 96.6607 62.5303 96.5813C62.6143 96.4973 62.7077 96.432 62.8103 96.3853C62.9177 96.3387 63.032 96.3153 63.1533 96.3153C63.2747 96.3153 63.389 96.3387 63.4963 96.3853C63.6037 96.432 63.697 96.4973 63.7763 96.5813C63.8603 96.6607 63.9257 96.7563 63.9723 96.8683C64.0237 96.9757 64.0493 97.09 64.0493 97.2113ZM70.9144 99.9693C70.9144 100.058 70.898 100.144 70.8654 100.228C70.8327 100.308 70.7907 100.38 70.7394 100.445L66.9034 105.555H70.7744V106.528H65.4334V106.01C65.4334 105.95 65.4474 105.88 65.4754 105.8C65.508 105.716 65.5524 105.637 65.6084 105.562L69.4654 100.417H65.6504V99.4373H70.9144V99.9693ZM75.2392 99.3253C75.6638 99.3253 76.0558 99.3977 76.4152 99.5423C76.7745 99.6823 77.0848 99.8877 77.3462 100.158C77.6075 100.424 77.8105 100.756 77.9552 101.152C78.1045 101.544 78.1792 101.992 78.1792 102.496C78.1792 102.692 78.1582 102.823 78.1162 102.888C78.0742 102.954 77.9948 102.986 77.8782 102.986H73.1602C73.1695 103.434 73.2302 103.824 73.3422 104.155C73.4542 104.487 73.6082 104.764 73.8042 104.988C74.0002 105.208 74.2335 105.373 74.5042 105.485C74.7748 105.593 75.0782 105.646 75.4142 105.646C75.7268 105.646 75.9952 105.611 76.2192 105.541C76.4478 105.467 76.6438 105.387 76.8072 105.303C76.9705 105.219 77.1058 105.142 77.2132 105.072C77.3252 104.998 77.4208 104.96 77.5002 104.96C77.6028 104.96 77.6822 105 77.7382 105.079L78.0882 105.534C77.9342 105.721 77.7498 105.884 77.5352 106.024C77.3205 106.16 77.0895 106.272 76.8422 106.36C76.5995 106.449 76.3475 106.514 76.0862 106.556C75.8248 106.603 75.5658 106.626 75.3092 106.626C74.8192 106.626 74.3665 106.545 73.9512 106.381C73.5405 106.213 73.1835 105.971 72.8802 105.653C72.5815 105.331 72.3482 104.935 72.1802 104.463C72.0122 103.992 71.9282 103.451 71.9282 102.839C71.9282 102.345 72.0028 101.883 72.1522 101.453C72.3062 101.024 72.5255 100.653 72.8102 100.34C73.0948 100.023 73.4425 99.7757 73.8532 99.5983C74.2638 99.4163 74.7258 99.3253 75.2392 99.3253ZM75.2672 100.242C74.6652 100.242 74.1915 100.417 73.8462 100.767C73.5008 101.113 73.2862 101.593 73.2022 102.209H77.0592C77.0592 101.92 77.0195 101.656 76.9402 101.418C76.8608 101.176 76.7442 100.968 76.5902 100.795C76.4362 100.618 76.2472 100.483 76.0232 100.389C75.8038 100.291 75.5518 100.242 75.2672 100.242ZM89.509 96.4973V97.6383H86.268V106.528H84.91V97.6383H81.655V96.4973H89.509ZM92.1322 99.3253C92.6502 99.3253 93.1169 99.4117 93.5322 99.5843C93.9522 99.757 94.3069 100.002 94.5962 100.319C94.8902 100.637 95.1142 101.022 95.2682 101.474C95.4269 101.922 95.5062 102.424 95.5062 102.979C95.5062 103.539 95.4269 104.043 95.2682 104.491C95.1142 104.939 94.8902 105.322 94.5962 105.639C94.3069 105.957 93.9522 106.202 93.5322 106.374C93.1169 106.542 92.6502 106.626 92.1322 106.626C91.6142 106.626 91.1452 106.542 90.7252 106.374C90.3099 106.202 89.9552 105.957 89.6612 105.639C89.3672 105.322 89.1409 104.939 88.9822 104.491C88.8236 104.043 88.7442 103.539 88.7442 102.979C88.7442 102.424 88.8236 101.922 88.9822 101.474C89.1409 101.022 89.3672 100.637 89.6612 100.319C89.9552 100.002 90.3099 99.757 90.7252 99.5843C91.1452 99.4117 91.6142 99.3253 92.1322 99.3253ZM92.1322 105.653C92.8322 105.653 93.3549 105.42 93.7002 104.953C94.0456 104.482 94.2182 103.826 94.2182 102.986C94.2182 102.142 94.0456 101.484 93.7002 101.012C93.3549 100.541 92.8322 100.305 92.1322 100.305C91.7776 100.305 91.4696 100.366 91.2082 100.487C90.9469 100.609 90.7276 100.784 90.5502 101.012C90.3776 101.241 90.2469 101.523 90.1582 101.859C90.0742 102.191 90.0322 102.566 90.0322 102.986C90.0322 103.406 90.0742 103.782 90.1582 104.113C90.2469 104.445 90.3776 104.725 90.5502 104.953C90.7276 105.177 90.9469 105.35 91.2082 105.471C91.4696 105.593 91.7776 105.653 92.1322 105.653ZM97.0415 108.929V99.4373H97.7835C97.9609 99.4373 98.0729 99.5237 98.1195 99.6963L98.2245 100.536C98.5279 100.168 98.8732 99.8713 99.2605 99.6473C99.6525 99.4233 100.103 99.3113 100.612 99.3113C101.018 99.3113 101.386 99.3907 101.718 99.5493C102.049 99.7033 102.331 99.9343 102.565 100.242C102.798 100.546 102.978 100.924 103.104 101.376C103.23 101.829 103.293 102.349 103.293 102.937C103.293 103.46 103.223 103.948 103.083 104.4C102.943 104.848 102.742 105.238 102.481 105.569C102.219 105.896 101.897 106.155 101.515 106.346C101.137 106.533 100.71 106.626 100.234 106.626C99.7949 106.626 99.4192 106.554 99.1065 106.409C98.7985 106.265 98.5255 106.059 98.2875 105.793V108.929H97.0415ZM100.199 100.319C99.7925 100.319 99.4355 100.413 99.1275 100.599C98.8242 100.786 98.5442 101.05 98.2875 101.39V104.82C98.5162 105.128 98.7659 105.345 99.0365 105.471C99.3119 105.597 99.6175 105.66 99.9535 105.66C100.612 105.66 101.118 105.425 101.473 104.953C101.827 104.482 102.005 103.81 102.005 102.937C102.005 102.475 101.963 102.079 101.879 101.747C101.799 101.416 101.683 101.145 101.529 100.935C101.375 100.721 101.186 100.564 100.962 100.466C100.738 100.368 100.483 100.319 100.199 100.319ZM115.922 106.528H114.872C114.751 106.528 114.653 106.498 114.578 106.437C114.504 106.377 114.448 106.3 114.41 106.206L113.472 103.784H108.971L108.033 106.206C108.001 106.29 107.945 106.365 107.865 106.43C107.786 106.496 107.688 106.528 107.571 106.528H106.521L110.532 96.4973H111.911L115.922 106.528ZM109.349 102.804H113.094L111.519 98.7233C111.417 98.4713 111.316 98.1563 111.218 97.7783C111.167 97.9697 111.116 98.147 111.064 98.3103C111.018 98.469 110.971 98.609 110.924 98.7303L109.349 102.804ZM121.98 106.528C121.802 106.528 121.69 106.442 121.644 106.269L121.532 105.408C121.228 105.777 120.881 106.073 120.489 106.297C120.101 106.517 119.656 106.626 119.152 106.626C118.746 106.626 118.377 106.549 118.046 106.395C117.714 106.237 117.432 106.006 117.199 105.702C116.965 105.399 116.786 105.021 116.66 104.568C116.534 104.116 116.471 103.595 116.471 103.007C116.471 102.485 116.541 101.999 116.681 101.551C116.821 101.099 117.021 100.707 117.283 100.375C117.549 100.044 117.871 99.785 118.249 99.5983C118.627 99.407 119.056 99.3113 119.537 99.3113C119.971 99.3113 120.342 99.386 120.65 99.5353C120.958 99.68 121.233 99.8853 121.476 100.151V96.2173H122.722V106.528H121.98ZM119.565 105.618C119.971 105.618 120.325 105.525 120.629 105.338C120.937 105.152 121.219 104.888 121.476 104.547V101.117C121.247 100.809 120.995 100.595 120.72 100.473C120.449 100.347 120.148 100.284 119.817 100.284C119.154 100.284 118.645 100.52 118.291 100.991C117.936 101.463 117.759 102.135 117.759 103.007C117.759 103.469 117.798 103.866 117.878 104.197C117.957 104.524 118.074 104.795 118.228 105.009C118.382 105.219 118.571 105.373 118.795 105.471C119.019 105.569 119.275 105.618 119.565 105.618ZM128.869 100.606C128.813 100.709 128.727 100.76 128.61 100.76C128.54 100.76 128.461 100.735 128.372 100.683C128.283 100.632 128.174 100.576 128.043 100.515C127.917 100.45 127.765 100.392 127.588 100.34C127.411 100.284 127.201 100.256 126.958 100.256C126.748 100.256 126.559 100.284 126.391 100.34C126.223 100.392 126.078 100.464 125.957 100.557C125.84 100.651 125.749 100.76 125.684 100.886C125.623 101.008 125.593 101.141 125.593 101.285C125.593 101.467 125.644 101.619 125.747 101.74C125.854 101.862 125.994 101.967 126.167 102.055C126.34 102.144 126.536 102.223 126.755 102.293C126.974 102.359 127.198 102.431 127.427 102.51C127.66 102.585 127.887 102.669 128.106 102.762C128.325 102.856 128.521 102.972 128.694 103.112C128.867 103.252 129.004 103.425 129.107 103.63C129.214 103.831 129.268 104.074 129.268 104.358C129.268 104.685 129.21 104.988 129.093 105.268C128.976 105.544 128.804 105.784 128.575 105.989C128.346 106.19 128.066 106.349 127.735 106.465C127.404 106.582 127.021 106.64 126.587 106.64C126.092 106.64 125.644 106.561 125.243 106.402C124.842 106.239 124.501 106.031 124.221 105.779L124.515 105.303C124.552 105.243 124.597 105.196 124.648 105.163C124.699 105.131 124.767 105.114 124.851 105.114C124.935 105.114 125.024 105.147 125.117 105.212C125.21 105.278 125.322 105.35 125.453 105.429C125.588 105.509 125.749 105.581 125.936 105.646C126.127 105.712 126.365 105.744 126.65 105.744C126.893 105.744 127.105 105.714 127.287 105.653C127.469 105.588 127.621 105.502 127.742 105.394C127.863 105.287 127.952 105.163 128.008 105.023C128.069 104.883 128.099 104.734 128.099 104.575C128.099 104.379 128.045 104.218 127.938 104.092C127.835 103.962 127.698 103.852 127.525 103.763C127.352 103.67 127.154 103.591 126.93 103.525C126.711 103.455 126.484 103.383 126.251 103.308C126.022 103.234 125.796 103.15 125.572 103.056C125.353 102.958 125.157 102.837 124.984 102.692C124.811 102.548 124.671 102.37 124.564 102.16C124.461 101.946 124.41 101.687 124.41 101.383C124.41 101.113 124.466 100.854 124.578 100.606C124.69 100.354 124.853 100.135 125.068 99.9483C125.283 99.757 125.546 99.6053 125.859 99.4933C126.172 99.3813 126.529 99.3253 126.93 99.3253C127.397 99.3253 127.814 99.4 128.183 99.5493C128.556 99.694 128.878 99.8947 129.149 100.151L128.869 100.606Z" fill="black"/>
</svg>
