<svg width="166" height="167" viewBox="0 0 166 167" fill="none" xmlns="http://www.w3.org/2000/svg">
<g filter="url(#filter0_d_404_11776)">
<path d="M126 4.24805H40C22.3269 4.24805 8 18.5748 8 36.2478V122.247C8 139.92 22.3269 154.247 40 154.247H126C143.673 154.247 158 139.92 158 122.247V36.2478C158 18.5748 143.673 4.24805 126 4.24805Z" fill="#FFF4DF"/>
</g>
<rect x="63" y="44.248" width="41" height="40.9996" rx="8" fill="#3498D9"/>
<path d="M79.1236 72.327L83.5 69.6817L87.8764 72.362L86.7302 67.35L90.5854 64.0085L85.5143 63.5561L83.4983 58.8223L81.4823 63.5211L76.4112 63.9736L80.2702 67.35L79.1236 72.327ZM77.0051 75.248L78.7271 67.8504L73 62.8788L80.5449 62.2227L83.5 55.248L86.4551 62.2227L94 62.8788L88.2716 67.8504L89.9936 75.248L83.5 71.322L77.0051 75.248Z" fill="white"/>
<path d="M58.7196 105.235C58.7196 105.986 58.6006 106.677 58.3626 107.307C58.1246 107.932 57.7886 108.471 57.3546 108.924C56.9206 109.377 56.3979 109.729 55.7866 109.981C55.1799 110.228 54.5079 110.352 53.7706 110.352C53.0332 110.352 52.3612 110.228 51.7546 109.981C51.1479 109.729 50.6276 109.377 50.1936 108.924C49.7596 108.471 49.4236 107.932 49.1856 107.307C48.9476 106.677 48.8286 105.986 48.8286 105.235C48.8286 104.484 48.9476 103.795 49.1856 103.17C49.4236 102.54 49.7596 101.999 50.1936 101.546C50.6276 101.089 51.1479 100.734 51.7546 100.482C52.3612 100.23 53.0332 100.104 53.7706 100.104C54.5079 100.104 55.1799 100.23 55.7866 100.482C56.3979 100.734 56.9206 101.089 57.3546 101.546C57.7886 101.999 58.1246 102.54 58.3626 103.17C58.6006 103.795 58.7196 104.484 58.7196 105.235ZM57.3266 105.235C57.3266 104.619 57.2426 104.066 57.0746 103.576C56.9066 103.086 56.6686 102.673 56.3606 102.337C56.0526 101.996 55.6792 101.735 55.2406 101.553C54.8019 101.371 54.3119 101.28 53.7706 101.28C53.2339 101.28 52.7462 101.371 52.3076 101.553C51.8689 101.735 51.4932 101.996 51.1806 102.337C50.8726 102.673 50.6346 103.086 50.4666 103.576C50.2986 104.066 50.2146 104.619 50.2146 105.235C50.2146 105.851 50.2986 106.404 50.4666 106.894C50.6346 107.379 50.8726 107.792 51.1806 108.133C51.4932 108.469 51.8689 108.728 52.3076 108.91C52.7462 109.087 53.2339 109.176 53.7706 109.176C54.3119 109.176 54.8019 109.087 55.2406 108.91C55.6792 108.728 56.0526 108.469 56.3606 108.133C56.6686 107.792 56.9066 107.379 57.0746 106.894C57.2426 106.404 57.3266 105.851 57.3266 105.235ZM60.3765 112.648V103.156H61.1185C61.2958 103.156 61.4078 103.242 61.4545 103.415L61.5595 104.255C61.8628 103.886 62.2082 103.59 62.5955 103.366C62.9875 103.142 63.4378 103.03 63.9465 103.03C64.3525 103.03 64.7212 103.109 65.0525 103.268C65.3838 103.422 65.6662 103.653 65.8995 103.961C66.1328 104.264 66.3125 104.642 66.4385 105.095C66.5645 105.548 66.6275 106.068 66.6275 106.656C66.6275 107.179 66.5575 107.666 66.4175 108.119C66.2775 108.567 66.0768 108.957 65.8155 109.288C65.5542 109.615 65.2322 109.874 64.8495 110.065C64.4715 110.252 64.0445 110.345 63.5685 110.345C63.1298 110.345 62.7542 110.273 62.4415 110.128C62.1335 109.983 61.8605 109.778 61.6225 109.512V112.648H60.3765ZM63.5335 104.038C63.1275 104.038 62.7705 104.131 62.4625 104.318C62.1592 104.505 61.8792 104.768 61.6225 105.109V108.539C61.8512 108.847 62.1008 109.064 62.3715 109.19C62.6468 109.316 62.9525 109.379 63.2885 109.379C63.9465 109.379 64.4528 109.143 64.8075 108.672C65.1622 108.201 65.3395 107.529 65.3395 106.656C65.3395 106.194 65.2975 105.797 65.2135 105.466C65.1342 105.135 65.0175 104.864 64.8635 104.654C64.7095 104.439 64.5205 104.283 64.2965 104.185C64.0725 104.087 63.8182 104.038 63.5335 104.038ZM70.2501 110.359C69.6901 110.359 69.2584 110.203 68.9551 109.89C68.6564 109.577 68.5071 109.127 68.5071 108.539V104.199H67.6531C67.5784 104.199 67.5154 104.178 67.4641 104.136C67.4128 104.089 67.3871 104.019 67.3871 103.926V103.429L68.5491 103.282L68.8361 101.091C68.8454 101.021 68.8758 100.965 68.9271 100.923C68.9784 100.876 69.0438 100.853 69.1231 100.853H69.7531V103.296H71.7831V104.199H69.7531V108.455C69.7531 108.754 69.8254 108.975 69.9701 109.12C70.1148 109.265 70.3014 109.337 70.5301 109.337C70.6608 109.337 70.7728 109.321 70.8661 109.288C70.9641 109.251 71.0481 109.211 71.1181 109.169C71.1881 109.127 71.2464 109.09 71.2931 109.057C71.3444 109.02 71.3888 109.001 71.4261 109.001C71.4914 109.001 71.5498 109.041 71.6011 109.12L71.9651 109.715C71.7504 109.916 71.4914 110.074 71.1881 110.191C70.8848 110.303 70.5721 110.359 70.2501 110.359ZM74.7098 103.156V110.247H73.4638V103.156H74.7098ZM74.9898 100.93C74.9898 101.051 74.9641 101.166 74.9128 101.273C74.8661 101.376 74.8008 101.469 74.7168 101.553C74.6374 101.632 74.5441 101.695 74.4368 101.742C74.3294 101.789 74.2151 101.812 74.0938 101.812C73.9724 101.812 73.8581 101.789 73.7508 101.742C73.6481 101.695 73.5548 101.632 73.4708 101.553C73.3914 101.469 73.3284 101.376 73.2818 101.273C73.2351 101.166 73.2118 101.051 73.2118 100.93C73.2118 100.809 73.2351 100.694 73.2818 100.587C73.3284 100.475 73.3914 100.379 73.4708 100.3C73.5548 100.216 73.6481 100.151 73.7508 100.104C73.8581 100.057 73.9724 100.034 74.0938 100.034C74.2151 100.034 74.3294 100.057 74.4368 100.104C74.5441 100.151 74.6374 100.216 74.7168 100.3C74.8008 100.379 74.8661 100.475 74.9128 100.587C74.9641 100.694 74.9898 100.809 74.9898 100.93ZM76.9058 110.247V103.156H77.6478C77.8251 103.156 77.9371 103.242 77.9838 103.415L78.0748 104.143C78.3361 103.821 78.6278 103.557 78.9498 103.352C79.2765 103.147 79.6545 103.044 80.0838 103.044C80.5645 103.044 80.9518 103.177 81.2458 103.443C81.5445 103.709 81.7591 104.068 81.8898 104.521C81.9878 104.264 82.1161 104.043 82.2748 103.856C82.4381 103.669 82.6201 103.515 82.8208 103.394C83.0215 103.273 83.2338 103.184 83.4578 103.128C83.6865 103.072 83.9175 103.044 84.1508 103.044C84.5241 103.044 84.8555 103.105 85.1448 103.226C85.4388 103.343 85.6861 103.515 85.8868 103.744C86.0921 103.973 86.2485 104.255 86.3558 104.591C86.4631 104.922 86.5168 105.303 86.5168 105.732V110.247H85.2708V105.732C85.2708 105.177 85.1495 104.757 84.9068 104.472C84.6641 104.183 84.3118 104.038 83.8498 104.038C83.6445 104.038 83.4485 104.075 83.2618 104.15C83.0798 104.22 82.9188 104.325 82.7788 104.465C82.6388 104.605 82.5268 104.782 82.4428 104.997C82.3635 105.207 82.3238 105.452 82.3238 105.732V110.247H81.0778V105.732C81.0778 105.163 80.9635 104.738 80.7348 104.458C80.5061 104.178 80.1725 104.038 79.7338 104.038C79.4258 104.038 79.1388 104.122 78.8728 104.29C78.6115 104.453 78.3711 104.677 78.1518 104.962V110.247H76.9058ZM89.7898 103.156V110.247H88.5438V103.156H89.7898ZM90.0698 100.93C90.0698 101.051 90.0442 101.166 89.9928 101.273C89.9462 101.376 89.8808 101.469 89.7968 101.553C89.7175 101.632 89.6242 101.695 89.5168 101.742C89.4095 101.789 89.2952 101.812 89.1738 101.812C89.0525 101.812 88.9382 101.789 88.8308 101.742C88.7282 101.695 88.6348 101.632 88.5508 101.553C88.4715 101.469 88.4085 101.376 88.3618 101.273C88.3152 101.166 88.2918 101.051 88.2918 100.93C88.2918 100.809 88.3152 100.694 88.3618 100.587C88.4085 100.475 88.4715 100.379 88.5508 100.3C88.6348 100.216 88.7282 100.151 88.8308 100.104C88.9382 100.057 89.0525 100.034 89.1738 100.034C89.2952 100.034 89.4095 100.057 89.5168 100.104C89.6242 100.151 89.7175 100.216 89.7968 100.3C89.8808 100.379 89.9462 100.475 89.9928 100.587C90.0442 100.694 90.0698 100.809 90.0698 100.93ZM96.9349 103.688C96.9349 103.777 96.9185 103.863 96.8859 103.947C96.8532 104.026 96.8112 104.099 96.7599 104.164L92.9239 109.274H96.7949V110.247H91.4539V109.729C91.4539 109.668 91.4679 109.598 91.4959 109.519C91.5285 109.435 91.5729 109.356 91.6289 109.281L95.4859 104.136H91.6709V103.156H96.9349V103.688ZM101.26 103.044C101.684 103.044 102.076 103.116 102.436 103.261C102.795 103.401 103.105 103.606 103.367 103.877C103.628 104.143 103.831 104.474 103.976 104.871C104.125 105.263 104.2 105.711 104.2 106.215C104.2 106.411 104.179 106.542 104.137 106.607C104.095 106.672 104.015 106.705 103.899 106.705H99.1807C99.19 107.153 99.2507 107.543 99.3627 107.874C99.4747 108.205 99.6287 108.483 99.8247 108.707C100.021 108.926 100.254 109.092 100.525 109.204C100.795 109.311 101.099 109.365 101.435 109.365C101.747 109.365 102.016 109.33 102.24 109.26C102.468 109.185 102.664 109.106 102.828 109.022C102.991 108.938 103.126 108.861 103.234 108.791C103.346 108.716 103.441 108.679 103.521 108.679C103.623 108.679 103.703 108.719 103.759 108.798L104.109 109.253C103.955 109.44 103.77 109.603 103.556 109.743C103.341 109.878 103.11 109.99 102.863 110.079C102.62 110.168 102.368 110.233 102.107 110.275C101.845 110.322 101.586 110.345 101.33 110.345C100.84 110.345 100.387 110.263 99.9717 110.1C99.561 109.932 99.204 109.689 98.9007 109.372C98.602 109.05 98.3687 108.653 98.2007 108.182C98.0327 107.711 97.9487 107.169 97.9487 106.558C97.9487 106.063 98.0233 105.601 98.1727 105.172C98.3267 104.743 98.546 104.372 98.8307 104.059C99.1153 103.742 99.463 103.494 99.8737 103.317C100.284 103.135 100.746 103.044 101.26 103.044ZM101.288 103.961C100.686 103.961 100.212 104.136 99.8667 104.486C99.5213 104.831 99.3067 105.312 99.2227 105.928H103.08C103.08 105.639 103.04 105.375 102.961 105.137C102.881 104.894 102.765 104.687 102.611 104.514C102.457 104.337 102.268 104.201 102.044 104.108C101.824 104.01 101.572 103.961 101.288 103.961ZM116.95 110.247H115.9C115.779 110.247 115.681 110.217 115.606 110.156C115.532 110.095 115.476 110.018 115.438 109.925L114.5 107.503H109.999L109.061 109.925C109.029 110.009 108.973 110.084 108.893 110.149C108.814 110.214 108.716 110.247 108.599 110.247H107.549L111.56 100.216H112.939L116.95 110.247ZM110.377 106.523H114.122L112.547 102.442C112.445 102.19 112.344 101.875 112.246 101.497C112.195 101.688 112.144 101.866 112.092 102.029C112.046 102.188 111.999 102.328 111.952 102.449L110.377 106.523ZM123.008 110.247C122.831 110.247 122.719 110.161 122.672 109.988L122.56 109.127C122.257 109.496 121.909 109.792 121.517 110.016C121.13 110.235 120.684 110.345 120.18 110.345C119.774 110.345 119.405 110.268 119.074 110.114C118.743 109.955 118.46 109.724 118.227 109.421C117.994 109.118 117.814 108.74 117.688 108.287C117.562 107.834 117.499 107.314 117.499 106.726C117.499 106.203 117.569 105.718 117.709 105.27C117.849 104.817 118.05 104.425 118.311 104.094C118.577 103.763 118.899 103.504 119.277 103.317C119.655 103.126 120.084 103.03 120.565 103.03C120.999 103.03 121.37 103.105 121.678 103.254C121.986 103.399 122.261 103.604 122.504 103.87V99.9361H123.75V110.247H123.008ZM120.593 109.337C120.999 109.337 121.354 109.244 121.657 109.057C121.965 108.87 122.247 108.607 122.504 108.266V104.836C122.275 104.528 122.023 104.313 121.748 104.192C121.477 104.066 121.176 104.003 120.845 104.003C120.182 104.003 119.674 104.239 119.319 104.71C118.964 105.181 118.787 105.853 118.787 106.726C118.787 107.188 118.827 107.585 118.906 107.916C118.985 108.243 119.102 108.513 119.256 108.728C119.41 108.938 119.599 109.092 119.823 109.19C120.047 109.288 120.304 109.337 120.593 109.337ZM73.8111 125.784C73.7691 125.854 73.7247 125.908 73.6781 125.945C73.6314 125.978 73.5707 125.994 73.4961 125.994C73.4167 125.994 73.3234 125.954 73.2161 125.875C73.1134 125.796 72.9804 125.709 72.8171 125.616C72.6584 125.518 72.4647 125.429 72.2361 125.35C72.0121 125.271 71.7391 125.231 71.4171 125.231C71.1137 125.231 70.8454 125.273 70.6121 125.357C70.3787 125.436 70.1827 125.546 70.0241 125.686C69.8701 125.826 69.7534 125.992 69.6741 126.183C69.5947 126.37 69.5551 126.573 69.5551 126.792C69.5551 127.072 69.6227 127.305 69.7581 127.492C69.8981 127.674 70.0801 127.83 70.3041 127.961C70.5327 128.092 70.7894 128.206 71.0741 128.304C71.3634 128.397 71.6574 128.495 71.9561 128.598C72.2594 128.701 72.5534 128.817 72.8381 128.948C73.1274 129.074 73.3841 129.235 73.6081 129.431C73.8367 129.627 74.0187 129.867 74.1541 130.152C74.2941 130.437 74.3641 130.787 74.3641 131.202C74.3641 131.641 74.2894 132.054 74.1401 132.441C73.9907 132.824 73.7714 133.157 73.4821 133.442C73.1974 133.727 72.8451 133.951 72.4251 134.114C72.0097 134.277 71.5361 134.359 71.0041 134.359C70.3554 134.359 69.7627 134.242 69.2261 134.009C68.6941 133.771 68.2391 133.451 67.8611 133.05L68.2531 132.406C68.2904 132.355 68.3347 132.313 68.3861 132.28C68.4421 132.243 68.5027 132.224 68.5681 132.224C68.6661 132.224 68.7781 132.278 68.9041 132.385C69.0301 132.488 69.1864 132.602 69.3731 132.728C69.5644 132.854 69.7931 132.971 70.0591 133.078C70.3297 133.181 70.6587 133.232 71.0461 133.232C71.3681 133.232 71.6551 133.188 71.9071 133.099C72.1591 133.01 72.3714 132.887 72.5441 132.728C72.7214 132.565 72.8567 132.371 72.9501 132.147C73.0434 131.923 73.0901 131.673 73.0901 131.398C73.0901 131.095 73.0201 130.847 72.8801 130.656C72.7447 130.46 72.5651 130.297 72.3411 130.166C72.1171 130.035 71.8604 129.926 71.5711 129.837C71.2864 129.744 70.9924 129.65 70.6891 129.557C70.3904 129.459 70.0964 129.347 69.8071 129.221C69.5224 129.095 69.2681 128.932 69.0441 128.731C68.8201 128.53 68.6381 128.281 68.4981 127.982C68.3627 127.679 68.2951 127.305 68.2951 126.862C68.2951 126.507 68.3627 126.164 68.4981 125.833C68.6381 125.502 68.8387 125.208 69.1001 124.951C69.3614 124.694 69.6834 124.489 70.0661 124.335C70.4534 124.181 70.8967 124.104 71.3961 124.104C71.9561 124.104 72.4671 124.193 72.9291 124.37C73.3911 124.547 73.7947 124.804 74.1401 125.14L73.8111 125.784ZM75.9009 136.648V127.156H76.6429C76.8202 127.156 76.9322 127.242 76.9789 127.415L77.0839 128.255C77.3872 127.886 77.7326 127.59 78.1199 127.366C78.5119 127.142 78.9622 127.03 79.4709 127.03C79.8769 127.03 80.2456 127.109 80.5769 127.268C80.9082 127.422 81.1906 127.653 81.4239 127.961C81.6572 128.264 81.8369 128.642 81.9629 129.095C82.0889 129.548 82.1519 130.068 82.1519 130.656C82.1519 131.179 82.0819 131.666 81.9419 132.119C81.8019 132.567 81.6012 132.957 81.3399 133.288C81.0786 133.615 80.7566 133.874 80.3739 134.065C79.9959 134.252 79.5689 134.345 79.0929 134.345C78.6542 134.345 78.2786 134.273 77.9659 134.128C77.6579 133.983 77.3849 133.778 77.1469 133.512V136.648H75.9009ZM79.0579 128.038C78.6519 128.038 78.2949 128.131 77.9869 128.318C77.6836 128.505 77.4036 128.768 77.1469 129.109V132.539C77.3756 132.847 77.6252 133.064 77.8959 133.19C78.1712 133.316 78.4769 133.379 78.8129 133.379C79.4709 133.379 79.9772 133.143 80.3319 132.672C80.6866 132.201 80.8639 131.529 80.8639 130.656C80.8639 130.194 80.8219 129.797 80.7379 129.466C80.6586 129.135 80.5419 128.864 80.3879 128.654C80.2339 128.439 80.0449 128.283 79.8209 128.185C79.5969 128.087 79.3426 128.038 79.0579 128.038ZM86.4325 127.044C86.8572 127.044 87.2492 127.116 87.6085 127.261C87.9678 127.401 88.2782 127.606 88.5395 127.877C88.8008 128.143 89.0038 128.474 89.1485 128.871C89.2978 129.263 89.3725 129.711 89.3725 130.215C89.3725 130.411 89.3515 130.542 89.3095 130.607C89.2675 130.672 89.1882 130.705 89.0715 130.705H84.3535C84.3628 131.153 84.4235 131.543 84.5355 131.874C84.6475 132.205 84.8015 132.483 84.9975 132.707C85.1935 132.926 85.4268 133.092 85.6975 133.204C85.9682 133.311 86.2715 133.365 86.6075 133.365C86.9202 133.365 87.1885 133.33 87.4125 133.26C87.6412 133.185 87.8372 133.106 88.0005 133.022C88.1638 132.938 88.2992 132.861 88.4065 132.791C88.5185 132.716 88.6142 132.679 88.6935 132.679C88.7962 132.679 88.8755 132.719 88.9315 132.798L89.2815 133.253C89.1275 133.44 88.9432 133.603 88.7285 133.743C88.5138 133.878 88.2828 133.99 88.0355 134.079C87.7928 134.168 87.5408 134.233 87.2795 134.275C87.0182 134.322 86.7592 134.345 86.5025 134.345C86.0125 134.345 85.5598 134.263 85.1445 134.1C84.7338 133.932 84.3768 133.689 84.0735 133.372C83.7748 133.05 83.5415 132.653 83.3735 132.182C83.2055 131.711 83.1215 131.169 83.1215 130.558C83.1215 130.063 83.1962 129.601 83.3455 129.172C83.4995 128.743 83.7188 128.372 84.0035 128.059C84.2882 127.742 84.6358 127.494 85.0465 127.317C85.4572 127.135 85.9192 127.044 86.4325 127.044ZM86.4605 127.961C85.8585 127.961 85.3848 128.136 85.0395 128.486C84.6942 128.831 84.4795 129.312 84.3955 129.928H88.2525C88.2525 129.639 88.2128 129.375 88.1335 129.137C88.0542 128.894 87.9375 128.687 87.7835 128.514C87.6295 128.337 87.4405 128.201 87.2165 128.108C86.9972 128.01 86.7452 127.961 86.4605 127.961ZM90.9673 134.247V127.156H91.7093C91.8866 127.156 91.9986 127.242 92.0453 127.415L92.1433 128.185C92.4513 127.844 92.7943 127.569 93.1723 127.359C93.555 127.149 93.996 127.044 94.4953 127.044C94.8826 127.044 95.2233 127.109 95.5173 127.24C95.816 127.366 96.0633 127.548 96.2593 127.786C96.46 128.019 96.6116 128.302 96.7143 128.633C96.817 128.964 96.8683 129.331 96.8683 129.732V134.247H95.6223V129.732C95.6223 129.195 95.4986 128.78 95.2513 128.486C95.0086 128.187 94.6353 128.038 94.1313 128.038C93.7626 128.038 93.4173 128.127 93.0953 128.304C92.778 128.481 92.484 128.722 92.2133 129.025V134.247H90.9673ZM103.738 134.247C103.56 134.247 103.448 134.161 103.402 133.988L103.29 133.127C102.986 133.496 102.639 133.792 102.247 134.016C101.859 134.235 101.414 134.345 100.91 134.345C100.504 134.345 100.135 134.268 99.8036 134.114C99.4723 133.955 99.1899 133.724 98.9566 133.421C98.7233 133.118 98.5436 132.74 98.4176 132.287C98.2916 131.834 98.2286 131.314 98.2286 130.726C98.2286 130.203 98.2986 129.718 98.4386 129.27C98.5786 128.817 98.7793 128.425 99.0406 128.094C99.3066 127.763 99.6286 127.504 100.007 127.317C100.385 127.126 100.814 127.03 101.295 127.03C101.729 127.03 102.1 127.105 102.408 127.254C102.716 127.399 102.991 127.604 103.234 127.87V123.936H104.48V134.247H103.738ZM101.323 133.337C101.729 133.337 102.083 133.244 102.387 133.057C102.695 132.87 102.977 132.607 103.234 132.266V128.836C103.005 128.528 102.753 128.313 102.478 128.192C102.207 128.066 101.906 128.003 101.575 128.003C100.912 128.003 100.403 128.239 100.049 128.71C99.6939 129.181 99.5166 129.853 99.5166 130.726C99.5166 131.188 99.5563 131.585 99.6356 131.916C99.7149 132.243 99.8316 132.513 99.9856 132.728C100.14 132.938 100.329 133.092 100.553 133.19C100.777 133.288 101.033 133.337 101.323 133.337Z" fill="black"/>
<defs>
<filter id="filter0_d_404_11776" x="0" y="0.248047" width="166" height="165.999" filterUnits="userSpaceOnUse" color-interpolation-filters="sRGB">
<feFlood flood-opacity="0" result="BackgroundImageFix"/>
<feColorMatrix in="SourceAlpha" type="matrix" values="0 0 0 0 0 0 0 0 0 0 0 0 0 0 0 0 0 0 127 0" result="hardAlpha"/>
<feOffset dy="4"/>
<feGaussianBlur stdDeviation="4"/>
<feComposite in2="hardAlpha" operator="out"/>
<feColorMatrix type="matrix" values="0 0 0 0 0 0 0 0 0 0 0 0 0 0 0 0 0 0 0.25 0"/>
<feBlend mode="normal" in2="BackgroundImageFix" result="effect1_dropShadow_404_11776"/>
<feBlend mode="normal" in="SourceGraphic" in2="effect1_dropShadow_404_11776" result="shape"/>
</filter>
</defs>
</svg>
