<svg width="166" height="167" viewBox="0 0 166 167" fill="none" xmlns="http://www.w3.org/2000/svg">
<g filter="url(#filter0_d_404_11789)">
<path d="M126 4.25H40C22.3269 4.25 8 18.5768 8 36.2497V122.249C8 139.922 22.3269 154.249 40 154.249H126C143.673 154.249 158 139.922 158 122.249V36.2497C158 18.5768 143.673 4.25 126 4.25Z" fill="#FFF4DF"/>
</g>
<rect x="63" y="44.25" width="41" height="40.9996" rx="8" fill="#143E7E"/>
<path d="M72.9044 70.249L72 69.3999L80.0546 61.7765L85.1657 66.5756L92.867 59.4489H88.6111V58.249H95V64.248H93.7221V60.2976L85.1661 68.3313L80.0546 63.5349L72.9044 70.249Z" fill="white"/>
<path d="M68.7411 110.237C68.7411 110.988 68.6221 111.679 68.3841 112.309C68.1461 112.934 67.8101 113.473 67.3761 113.926C66.9421 114.379 66.4194 114.731 65.8081 114.983C65.2014 115.23 64.5294 115.354 63.7921 115.354C63.0547 115.354 62.3827 115.23 61.7761 114.983C61.1694 114.731 60.6491 114.379 60.2151 113.926C59.7811 113.473 59.4451 112.934 59.2071 112.309C58.9691 111.679 58.8501 110.988 58.8501 110.237C58.8501 109.486 58.9691 108.797 59.2071 108.172C59.4451 107.542 59.7811 107.001 60.2151 106.548C60.6491 106.091 61.1694 105.736 61.7761 105.484C62.3827 105.232 63.0547 105.106 63.7921 105.106C64.5294 105.106 65.2014 105.232 65.8081 105.484C66.4194 105.736 66.9421 106.091 67.3761 106.548C67.8101 107.001 68.1461 107.542 68.3841 108.172C68.6221 108.797 68.7411 109.486 68.7411 110.237ZM67.3481 110.237C67.3481 109.621 67.2641 109.068 67.0961 108.578C66.9281 108.088 66.6901 107.675 66.3821 107.339C66.0741 106.998 65.7007 106.737 65.2621 106.555C64.8234 106.373 64.3334 106.282 63.7921 106.282C63.2554 106.282 62.7677 106.373 62.3291 106.555C61.8904 106.737 61.5147 106.998 61.2021 107.339C60.8941 107.675 60.6561 108.088 60.4881 108.578C60.3201 109.068 60.2361 109.621 60.2361 110.237C60.2361 110.853 60.3201 111.406 60.4881 111.896C60.6561 112.381 60.8941 112.794 61.2021 113.135C61.5147 113.471 61.8904 113.73 62.3291 113.912C62.7677 114.089 63.2554 114.178 63.7921 114.178C64.3334 114.178 64.8234 114.089 65.2621 113.912C65.7007 113.73 66.0741 113.471 66.3821 113.135C66.6901 112.794 66.9281 112.381 67.0961 111.896C67.2641 111.406 67.3481 110.853 67.3481 110.237ZM70.398 117.65V108.158H71.14C71.3173 108.158 71.4293 108.244 71.476 108.417L71.581 109.257C71.8843 108.888 72.2296 108.592 72.617 108.368C73.009 108.144 73.4593 108.032 73.968 108.032C74.374 108.032 74.7426 108.111 75.074 108.27C75.4053 108.424 75.6876 108.655 75.921 108.963C76.1543 109.266 76.334 109.644 76.46 110.097C76.586 110.55 76.649 111.07 76.649 111.658C76.649 112.181 76.579 112.668 76.439 113.121C76.299 113.569 76.0983 113.959 75.837 114.29C75.5756 114.617 75.2536 114.876 74.871 115.067C74.493 115.254 74.066 115.347 73.59 115.347C73.1513 115.347 72.7756 115.275 72.463 115.13C72.155 114.985 71.882 114.78 71.644 114.514V117.65H70.398ZM73.555 109.04C73.149 109.04 72.792 109.133 72.484 109.32C72.1806 109.507 71.9006 109.77 71.644 110.111V113.541C71.8726 113.849 72.1223 114.066 72.393 114.192C72.6683 114.318 72.974 114.381 73.31 114.381C73.968 114.381 74.4743 114.145 74.829 113.674C75.1836 113.203 75.361 112.531 75.361 111.658C75.361 111.196 75.319 110.799 75.235 110.468C75.1556 110.137 75.039 109.866 74.885 109.656C74.731 109.441 74.542 109.285 74.318 109.187C74.094 109.089 73.8396 109.04 73.555 109.04ZM80.2716 115.361C79.7116 115.361 79.2799 115.205 78.9766 114.892C78.6779 114.579 78.5286 114.129 78.5286 113.541V109.201H77.6746C77.5999 109.201 77.5369 109.18 77.4856 109.138C77.4343 109.091 77.4086 109.021 77.4086 108.928V108.431L78.5706 108.284L78.8576 106.093C78.8669 106.023 78.8973 105.967 78.9486 105.925C78.9999 105.878 79.0653 105.855 79.1446 105.855H79.7746V108.298H81.8046V109.201H79.7746V113.457C79.7746 113.756 79.8469 113.977 79.9916 114.122C80.1363 114.267 80.3229 114.339 80.5516 114.339C80.6823 114.339 80.7943 114.323 80.8876 114.29C80.9856 114.253 81.0696 114.213 81.1396 114.171C81.2096 114.129 81.2679 114.092 81.3146 114.059C81.3659 114.022 81.4103 114.003 81.4476 114.003C81.5129 114.003 81.5713 114.043 81.6226 114.122L81.9866 114.717C81.7719 114.918 81.5129 115.076 81.2096 115.193C80.9063 115.305 80.5936 115.361 80.2716 115.361ZM84.7312 108.158V115.249H83.4852V108.158H84.7312ZM85.0112 105.932C85.0112 106.053 84.9856 106.168 84.9342 106.275C84.8876 106.378 84.8222 106.471 84.7382 106.555C84.6589 106.634 84.5656 106.697 84.4582 106.744C84.3509 106.791 84.2366 106.814 84.1152 106.814C83.9939 106.814 83.8796 106.791 83.7722 106.744C83.6696 106.697 83.5762 106.634 83.4922 106.555C83.4129 106.471 83.3499 106.378 83.3032 106.275C83.2566 106.168 83.2332 106.053 83.2332 105.932C83.2332 105.811 83.2566 105.696 83.3032 105.589C83.3499 105.477 83.4129 105.381 83.4922 105.302C83.5762 105.218 83.6696 105.153 83.7722 105.106C83.8796 105.059 83.9939 105.036 84.1152 105.036C84.2366 105.036 84.3509 105.059 84.4582 105.106C84.5656 105.153 84.6589 105.218 84.7382 105.302C84.8222 105.381 84.8876 105.477 84.9342 105.589C84.9856 105.696 85.0112 105.811 85.0112 105.932ZM86.9273 115.249V108.158H87.6693C87.8466 108.158 87.9586 108.244 88.0053 108.417L88.0963 109.145C88.3576 108.823 88.6493 108.559 88.9713 108.354C89.2979 108.149 89.6759 108.046 90.1053 108.046C90.5859 108.046 90.9733 108.179 91.2673 108.445C91.5659 108.711 91.7806 109.07 91.9113 109.523C92.0093 109.266 92.1376 109.045 92.2963 108.858C92.4596 108.671 92.6416 108.517 92.8423 108.396C93.0429 108.275 93.2553 108.186 93.4793 108.13C93.7079 108.074 93.9389 108.046 94.1723 108.046C94.5456 108.046 94.8769 108.107 95.1663 108.228C95.4603 108.345 95.7076 108.517 95.9083 108.746C96.1136 108.975 96.2699 109.257 96.3773 109.593C96.4846 109.924 96.5383 110.305 96.5383 110.734V115.249H95.2923V110.734C95.2923 110.179 95.1709 109.759 94.9283 109.474C94.6856 109.185 94.3333 109.04 93.8713 109.04C93.6659 109.04 93.4699 109.077 93.2833 109.152C93.1013 109.222 92.9403 109.327 92.8003 109.467C92.6603 109.607 92.5483 109.784 92.4643 109.999C92.3849 110.209 92.3453 110.454 92.3453 110.734V115.249H91.0993V110.734C91.0993 110.165 90.9849 109.74 90.7563 109.46C90.5276 109.18 90.1939 109.04 89.7553 109.04C89.4473 109.04 89.1603 109.124 88.8943 109.292C88.6329 109.455 88.3926 109.679 88.1733 109.964V115.249H86.9273ZM99.8113 108.158V115.249H98.5653V108.158H99.8113ZM100.091 105.932C100.091 106.053 100.066 106.168 100.014 106.275C99.9677 106.378 99.9023 106.471 99.8183 106.555C99.739 106.634 99.6457 106.697 99.5383 106.744C99.431 106.791 99.3167 106.814 99.1953 106.814C99.074 106.814 98.9597 106.791 98.8523 106.744C98.7497 106.697 98.6563 106.634 98.5723 106.555C98.493 106.471 98.43 106.378 98.3833 106.275C98.3367 106.168 98.3133 106.053 98.3133 105.932C98.3133 105.811 98.3367 105.696 98.3833 105.589C98.43 105.477 98.493 105.381 98.5723 105.302C98.6563 105.218 98.7497 105.153 98.8523 105.106C98.9597 105.059 99.074 105.036 99.1953 105.036C99.3167 105.036 99.431 105.059 99.5383 105.106C99.6457 105.153 99.739 105.218 99.8183 105.302C99.9023 105.381 99.9677 105.477 100.014 105.589C100.066 105.696 100.091 105.811 100.091 105.932ZM106.956 108.69C106.956 108.779 106.94 108.865 106.907 108.949C106.875 109.028 106.833 109.101 106.781 109.166L102.945 114.276H106.816V115.249H101.475V114.731C101.475 114.67 101.489 114.6 101.517 114.521C101.55 114.437 101.594 114.358 101.65 114.283L105.507 109.138H101.692V108.158H106.956V108.69ZM111.281 108.046C111.706 108.046 112.098 108.118 112.457 108.263C112.816 108.403 113.127 108.608 113.388 108.879C113.649 109.145 113.852 109.476 113.997 109.873C114.146 110.265 114.221 110.713 114.221 111.217C114.221 111.413 114.2 111.544 114.158 111.609C114.116 111.674 114.037 111.707 113.92 111.707H109.202C109.211 112.155 109.272 112.545 109.384 112.876C109.496 113.207 109.65 113.485 109.846 113.709C110.042 113.928 110.275 114.094 110.546 114.206C110.817 114.313 111.12 114.367 111.456 114.367C111.769 114.367 112.037 114.332 112.261 114.262C112.49 114.187 112.686 114.108 112.849 114.024C113.012 113.94 113.148 113.863 113.255 113.793C113.367 113.718 113.463 113.681 113.542 113.681C113.645 113.681 113.724 113.721 113.78 113.8L114.13 114.255C113.976 114.442 113.792 114.605 113.577 114.745C113.362 114.88 113.131 114.992 112.884 115.081C112.641 115.17 112.389 115.235 112.128 115.277C111.867 115.324 111.608 115.347 111.351 115.347C110.861 115.347 110.408 115.265 109.993 115.102C109.582 114.934 109.225 114.691 108.922 114.374C108.623 114.052 108.39 113.655 108.222 113.184C108.054 112.713 107.97 112.171 107.97 111.56C107.97 111.065 108.045 110.603 108.194 110.174C108.348 109.745 108.567 109.374 108.852 109.061C109.137 108.744 109.484 108.496 109.895 108.319C110.306 108.137 110.768 108.046 111.281 108.046ZM111.309 108.963C110.707 108.963 110.233 109.138 109.888 109.488C109.543 109.833 109.328 110.314 109.244 110.93H113.101C113.101 110.641 113.061 110.377 112.982 110.139C112.903 109.896 112.786 109.689 112.632 109.516C112.478 109.339 112.289 109.203 112.065 109.11C111.846 109.012 111.594 108.963 111.309 108.963Z" fill="black"/>
<defs>
<filter id="filter0_d_404_11789" x="0" y="0.25" width="166" height="165.999" filterUnits="userSpaceOnUse" color-interpolation-filters="sRGB">
<feFlood flood-opacity="0" result="BackgroundImageFix"/>
<feColorMatrix in="SourceAlpha" type="matrix" values="0 0 0 0 0 0 0 0 0 0 0 0 0 0 0 0 0 0 127 0" result="hardAlpha"/>
<feOffset dy="4"/>
<feGaussianBlur stdDeviation="4"/>
<feComposite in2="hardAlpha" operator="out"/>
<feColorMatrix type="matrix" values="0 0 0 0 0 0 0 0 0 0 0 0 0 0 0 0 0 0 0.25 0"/>
<feBlend mode="normal" in2="BackgroundImageFix" result="effect1_dropShadow_404_11789"/>
<feBlend mode="normal" in="SourceGraphic" in2="effect1_dropShadow_404_11789" result="shape"/>
</filter>
</defs>
</svg>
