<svg width="166" height="167" viewBox="0 0 166 167" fill="none" xmlns="http://www.w3.org/2000/svg">
<g filter="url(#filter0_d_404_11796)">
<path d="M126 4.25342H40C22.3269 4.25342 8 18.5802 8 36.2531V122.252C8 139.925 22.3269 154.252 40 154.252H126C143.673 154.252 158 139.925 158 122.252V36.2531C158 18.5802 143.673 4.25342 126 4.25342Z" fill="#FFF4DF"/>
</g>
<rect x="63" y="44.2529" width="41" height="40.9996" rx="8" fill="#765BF0"/>
<path d="M77.6951 67.3205H85.0841V66.2664H77.6951V67.3205ZM77.6951 64.1585H89.3068V63.1043H77.6951V64.1585ZM77.6951 60.9964H89.3068V59.9423H77.6951V60.9964ZM74.0006 74.2529V57.9554C73.9947 57.7304 74.035 57.5066 74.119 57.2978C74.203 57.089 74.3288 56.8995 74.4889 56.7411C74.6475 56.5813 74.8373 56.4556 75.0464 56.3717C75.2555 56.2879 75.4796 56.2476 75.7049 56.2535H91.2951C91.5204 56.2476 91.7445 56.2879 91.9536 56.3717C92.1627 56.4556 92.3525 56.5813 92.5111 56.7411C92.6712 56.8995 92.797 57.089 92.881 57.2978C92.965 57.5066 93.0053 57.7304 92.9994 57.9554V69.3063C93.0053 69.5312 92.965 69.755 92.881 69.9638C92.7971 70.1726 92.6712 70.3621 92.5111 70.5205C92.3525 70.6803 92.1627 70.806 91.9536 70.8899C91.7445 70.9738 91.5204 71.014 91.2951 71.0082H77.2486L74.0006 74.2529ZM76.7979 69.9555H91.2958C91.3802 69.9538 91.4633 69.935 91.5402 69.9002C91.617 69.8653 91.6859 69.8152 91.7427 69.7529C91.8051 69.6962 91.8553 69.6274 91.8902 69.5506C91.9251 69.4739 91.944 69.3909 91.9457 69.3066V57.9554C91.944 57.8711 91.9251 57.7881 91.8902 57.7114C91.8553 57.6347 91.8051 57.5658 91.7427 57.5091C91.6859 57.4468 91.617 57.3967 91.5402 57.3618C91.4633 57.327 91.3802 57.3082 91.2958 57.3065H75.7061C75.6217 57.3082 75.5386 57.327 75.4617 57.3618C75.3849 57.3967 75.316 57.4468 75.2592 57.5091C75.1968 57.5658 75.1466 57.6347 75.1117 57.7114C75.0768 57.7881 75.0579 57.8711 75.0562 57.9554V71.6885L76.7979 69.9555Z" fill="white"/>
<path d="M39.5494 101.79C39.5074 101.86 39.463 101.914 39.4164 101.951C39.3697 101.984 39.309 102 39.2344 102C39.155 102 39.0617 101.96 38.9544 101.881C38.8517 101.802 38.7187 101.715 38.5554 101.622C38.3967 101.524 38.203 101.435 37.9744 101.356C37.7504 101.277 37.4774 101.237 37.1554 101.237C36.852 101.237 36.5837 101.279 36.3504 101.363C36.117 101.442 35.921 101.552 35.7624 101.692C35.6084 101.832 35.4917 101.998 35.4124 102.189C35.333 102.376 35.2934 102.579 35.2934 102.798C35.2934 103.078 35.361 103.311 35.4964 103.498C35.6364 103.68 35.8184 103.836 36.0424 103.967C36.271 104.098 36.5277 104.212 36.8124 104.31C37.1017 104.403 37.3957 104.501 37.6944 104.604C37.9977 104.707 38.2917 104.823 38.5764 104.954C38.8657 105.08 39.1224 105.241 39.3464 105.437C39.575 105.633 39.757 105.873 39.8924 106.158C40.0324 106.443 40.1024 106.793 40.1024 107.208C40.1024 107.647 40.0277 108.06 39.8784 108.447C39.729 108.83 39.5097 109.163 39.2204 109.448C38.9357 109.733 38.5834 109.957 38.1634 110.12C37.748 110.283 37.2744 110.365 36.7424 110.365C36.0937 110.365 35.501 110.248 34.9644 110.015C34.4324 109.777 33.9774 109.457 33.5994 109.056L33.9914 108.412C34.0287 108.361 34.073 108.319 34.1244 108.286C34.1804 108.249 34.241 108.23 34.3064 108.23C34.4044 108.23 34.5164 108.284 34.6424 108.391C34.7684 108.494 34.9247 108.608 35.1114 108.734C35.3027 108.86 35.5314 108.977 35.7974 109.084C36.068 109.187 36.397 109.238 36.7844 109.238C37.1064 109.238 37.3934 109.194 37.6454 109.105C37.8974 109.016 38.1097 108.893 38.2824 108.734C38.4597 108.571 38.595 108.377 38.6884 108.153C38.7817 107.929 38.8284 107.679 38.8284 107.404C38.8284 107.101 38.7584 106.853 38.6184 106.662C38.483 106.466 38.3034 106.303 38.0794 106.172C37.8554 106.041 37.5987 105.932 37.3094 105.843C37.0247 105.75 36.7307 105.656 36.4274 105.563C36.1287 105.465 35.8347 105.353 35.5454 105.227C35.2607 105.101 35.0064 104.938 34.7824 104.737C34.5584 104.536 34.3764 104.287 34.2364 103.988C34.101 103.685 34.0334 103.311 34.0334 102.868C34.0334 102.513 34.101 102.17 34.2364 101.839C34.3764 101.508 34.577 101.214 34.8384 100.957C35.0997 100.7 35.4217 100.495 35.8044 100.341C36.1917 100.187 36.635 100.11 37.1344 100.11C37.6944 100.11 38.2054 100.199 38.6674 100.376C39.1294 100.553 39.533 100.81 39.8784 101.146L39.5494 101.79ZM46.7702 106.627C46.8355 106.739 46.8915 106.858 46.9382 106.984C46.9895 107.105 47.0385 107.229 47.0852 107.355C47.1319 107.224 47.1809 107.101 47.2322 106.984C47.2835 106.863 47.3419 106.741 47.4072 106.62L50.8022 100.453C50.8629 100.346 50.9259 100.28 50.9912 100.257C51.0565 100.234 51.1499 100.222 51.2712 100.222H52.2722V110.253H51.0822V102.882C51.0822 102.784 51.0845 102.679 51.0892 102.567C51.0939 102.455 51.1009 102.341 51.1102 102.224L47.6732 108.496C47.5565 108.706 47.3932 108.811 47.1832 108.811H46.9872C46.7772 108.811 46.6139 108.706 46.4972 108.496L42.9832 102.203C42.9972 102.324 43.0065 102.443 43.0112 102.56C43.0205 102.677 43.0252 102.784 43.0252 102.882V110.253H41.8352V100.222H42.8362C42.9575 100.222 43.0509 100.234 43.1162 100.257C43.1815 100.28 43.2445 100.346 43.3052 100.453L46.7702 106.627ZM59.8521 101.79C59.8101 101.86 59.7658 101.914 59.7191 101.951C59.6724 101.984 59.6118 102 59.5371 102C59.4578 102 59.3644 101.96 59.2571 101.881C59.1544 101.802 59.0214 101.715 58.8581 101.622C58.6994 101.524 58.5058 101.435 58.2771 101.356C58.0531 101.277 57.7801 101.237 57.4581 101.237C57.1548 101.237 56.8864 101.279 56.6531 101.363C56.4198 101.442 56.2238 101.552 56.0651 101.692C55.9111 101.832 55.7944 101.998 55.7151 102.189C55.6358 102.376 55.5961 102.579 55.5961 102.798C55.5961 103.078 55.6638 103.311 55.7991 103.498C55.9391 103.68 56.1211 103.836 56.3451 103.967C56.5738 104.098 56.8304 104.212 57.1151 104.31C57.4044 104.403 57.6984 104.501 57.9971 104.604C58.3004 104.707 58.5944 104.823 58.8791 104.954C59.1684 105.08 59.4251 105.241 59.6491 105.437C59.8778 105.633 60.0598 105.873 60.1951 106.158C60.3351 106.443 60.4051 106.793 60.4051 107.208C60.4051 107.647 60.3304 108.06 60.1811 108.447C60.0318 108.83 59.8124 109.163 59.5231 109.448C59.2384 109.733 58.8861 109.957 58.4661 110.12C58.0508 110.283 57.5771 110.365 57.0451 110.365C56.3964 110.365 55.8038 110.248 55.2671 110.015C54.7351 109.777 54.2801 109.457 53.9021 109.056L54.2941 108.412C54.3314 108.361 54.3758 108.319 54.4271 108.286C54.4831 108.249 54.5438 108.23 54.6091 108.23C54.7071 108.23 54.8191 108.284 54.9451 108.391C55.0711 108.494 55.2274 108.608 55.4141 108.734C55.6054 108.86 55.8341 108.977 56.1001 109.084C56.3708 109.187 56.6998 109.238 57.0871 109.238C57.4091 109.238 57.6961 109.194 57.9481 109.105C58.2001 109.016 58.4124 108.893 58.5851 108.734C58.7624 108.571 58.8978 108.377 58.9911 108.153C59.0844 107.929 59.1311 107.679 59.1311 107.404C59.1311 107.101 59.0611 106.853 58.9211 106.662C58.7858 106.466 58.6061 106.303 58.3821 106.172C58.1581 106.041 57.9014 105.932 57.6121 105.843C57.3274 105.75 57.0334 105.656 56.7301 105.563C56.4314 105.465 56.1374 105.353 55.8481 105.227C55.5634 105.101 55.3091 104.938 55.0851 104.737C54.8611 104.536 54.6791 104.287 54.5391 103.988C54.4038 103.685 54.3361 103.311 54.3361 102.868C54.3361 102.513 54.4038 102.17 54.5391 101.839C54.6791 101.508 54.8798 101.214 55.1411 100.957C55.4024 100.7 55.7244 100.495 56.1071 100.341C56.4944 100.187 56.9378 100.11 57.4371 100.11C57.9971 100.11 58.5081 100.199 58.9701 100.376C59.4321 100.553 59.8358 100.81 60.1811 101.146L59.8521 101.79ZM67.456 103.05C67.8806 103.05 68.2726 103.122 68.632 103.267C68.9913 103.407 69.3016 103.612 69.563 103.883C69.8243 104.149 70.0273 104.48 70.172 104.877C70.3213 105.269 70.396 105.717 70.396 106.221C70.396 106.417 70.375 106.548 70.333 106.613C70.291 106.678 70.2116 106.711 70.095 106.711H65.377C65.3863 107.159 65.447 107.549 65.559 107.88C65.671 108.211 65.825 108.489 66.021 108.713C66.217 108.932 66.4503 109.098 66.721 109.21C66.9916 109.317 67.295 109.371 67.631 109.371C67.9436 109.371 68.212 109.336 68.436 109.266C68.6646 109.191 68.8606 109.112 69.024 109.028C69.1873 108.944 69.3226 108.867 69.43 108.797C69.542 108.722 69.6376 108.685 69.717 108.685C69.8196 108.685 69.899 108.725 69.955 108.804L70.305 109.259C70.151 109.446 69.9666 109.609 69.752 109.749C69.5373 109.884 69.3063 109.996 69.059 110.085C68.8163 110.174 68.5643 110.239 68.303 110.281C68.0416 110.328 67.7826 110.351 67.526 110.351C67.036 110.351 66.5833 110.269 66.168 110.106C65.7573 109.938 65.4003 109.695 65.097 109.378C64.7983 109.056 64.565 108.659 64.397 108.188C64.229 107.717 64.145 107.175 64.145 106.564C64.145 106.069 64.2196 105.607 64.369 105.178C64.523 104.749 64.7423 104.378 65.027 104.065C65.3116 103.748 65.6593 103.5 66.07 103.323C66.4806 103.141 66.9426 103.05 67.456 103.05ZM67.484 103.967C66.882 103.967 66.4083 104.142 66.063 104.492C65.7176 104.837 65.503 105.318 65.419 105.934H69.276C69.276 105.645 69.2363 105.381 69.157 105.143C69.0776 104.9 68.961 104.693 68.807 104.52C68.653 104.343 68.464 104.207 68.24 104.114C68.0206 104.016 67.7686 103.967 67.484 103.967ZM73.2259 106.62L70.8389 103.162H72.0359C72.1386 103.162 72.2133 103.178 72.2599 103.211C72.3066 103.244 72.3486 103.29 72.3859 103.351L74.1219 106.011C74.1639 105.88 74.2246 105.75 74.3039 105.619L75.8299 103.379C75.8766 103.314 75.9233 103.262 75.9699 103.225C76.0166 103.183 76.0749 103.162 76.1449 103.162H77.2929L74.9059 106.55L77.3909 110.253H76.1939C76.0913 110.253 76.0096 110.227 75.9489 110.176C75.8929 110.12 75.8463 110.059 75.8089 109.994L74.0239 107.215C73.9913 107.35 73.9423 107.472 73.8769 107.579L72.2249 109.994C72.1783 110.059 72.1269 110.12 72.0709 110.176C72.0196 110.227 71.9473 110.253 71.8539 110.253H70.7409L73.2259 106.62ZM78.6216 112.654V103.162H79.3636C79.5409 103.162 79.6529 103.248 79.6996 103.421L79.8046 104.261C80.1079 103.892 80.4533 103.596 80.8406 103.372C81.2326 103.148 81.6829 103.036 82.1916 103.036C82.5976 103.036 82.9663 103.115 83.2976 103.274C83.6289 103.428 83.9113 103.659 84.1446 103.967C84.3779 104.27 84.5576 104.648 84.6836 105.101C84.8096 105.554 84.8726 106.074 84.8726 106.662C84.8726 107.185 84.8026 107.672 84.6626 108.125C84.5226 108.573 84.3219 108.963 84.0606 109.294C83.7993 109.621 83.4773 109.88 83.0946 110.071C82.7166 110.258 82.2896 110.351 81.8136 110.351C81.3749 110.351 80.9993 110.279 80.6866 110.134C80.3786 109.989 80.1056 109.784 79.8676 109.518V112.654H78.6216ZM81.7786 104.044C81.3726 104.044 81.0156 104.137 80.7076 104.324C80.4043 104.511 80.1243 104.774 79.8676 105.115V108.545C80.0963 108.853 80.3459 109.07 80.6166 109.196C80.8919 109.322 81.1976 109.385 81.5336 109.385C82.1916 109.385 82.6979 109.149 83.0526 108.678C83.4073 108.207 83.5846 107.535 83.5846 106.662C83.5846 106.2 83.5426 105.803 83.4586 105.472C83.3793 105.141 83.2626 104.87 83.1086 104.66C82.9546 104.445 82.7656 104.289 82.5416 104.191C82.3176 104.093 82.0633 104.044 81.7786 104.044ZM89.1532 103.05C89.5779 103.05 89.9699 103.122 90.3292 103.267C90.6886 103.407 90.9989 103.612 91.2602 103.883C91.5216 104.149 91.7246 104.48 91.8692 104.877C92.0186 105.269 92.0932 105.717 92.0932 106.221C92.0932 106.417 92.0722 106.548 92.0302 106.613C91.9882 106.678 91.9089 106.711 91.7922 106.711H87.0742C87.0836 107.159 87.1442 107.549 87.2562 107.88C87.3682 108.211 87.5222 108.489 87.7182 108.713C87.9142 108.932 88.1476 109.098 88.4182 109.21C88.6889 109.317 88.9922 109.371 89.3282 109.371C89.6409 109.371 89.9092 109.336 90.1332 109.266C90.3619 109.191 90.5579 109.112 90.7212 109.028C90.8846 108.944 91.0199 108.867 91.1272 108.797C91.2392 108.722 91.3349 108.685 91.4142 108.685C91.5169 108.685 91.5962 108.725 91.6522 108.804L92.0022 109.259C91.8482 109.446 91.6639 109.609 91.4492 109.749C91.2346 109.884 91.0036 109.996 90.7562 110.085C90.5136 110.174 90.2616 110.239 90.0002 110.281C89.7389 110.328 89.4799 110.351 89.2232 110.351C88.7332 110.351 88.2806 110.269 87.8652 110.106C87.4546 109.938 87.0976 109.695 86.7942 109.378C86.4956 109.056 86.2622 108.659 86.0942 108.188C85.9262 107.717 85.8422 107.175 85.8422 106.564C85.8422 106.069 85.9169 105.607 86.0662 105.178C86.2202 104.749 86.4396 104.378 86.7242 104.065C87.0089 103.748 87.3566 103.5 87.7672 103.323C88.1779 103.141 88.6399 103.05 89.1532 103.05ZM89.1812 103.967C88.5792 103.967 88.1056 104.142 87.7602 104.492C87.4149 104.837 87.2002 105.318 87.1162 105.934H90.9732C90.9732 105.645 90.9336 105.381 90.8542 105.143C90.7749 104.9 90.6582 104.693 90.5042 104.52C90.3502 104.343 90.1612 104.207 89.9372 104.114C89.7179 104.016 89.4659 103.967 89.1812 103.967ZM93.688 110.253V103.162H94.402C94.5373 103.162 94.6307 103.188 94.682 103.239C94.7333 103.29 94.7683 103.379 94.787 103.505L94.871 104.611C95.1137 104.116 95.4123 103.731 95.767 103.456C96.1263 103.176 96.5463 103.036 97.027 103.036C97.223 103.036 97.4003 103.059 97.559 103.106C97.7177 103.148 97.8647 103.209 98 103.288L97.839 104.219C97.8063 104.336 97.734 104.394 97.622 104.394C97.5567 104.394 97.4563 104.373 97.321 104.331C97.1857 104.284 96.9967 104.261 96.754 104.261C96.32 104.261 95.956 104.387 95.662 104.639C95.3727 104.891 95.13 105.257 94.934 105.738V110.253H93.688ZM100.721 103.162V110.253H99.4745V103.162H100.721ZM101.001 100.936C101.001 101.057 100.975 101.172 100.924 101.279C100.877 101.382 100.812 101.475 100.728 101.559C100.648 101.638 100.555 101.701 100.448 101.748C100.34 101.795 100.226 101.818 100.105 101.818C99.9832 101.818 99.8688 101.795 99.7615 101.748C99.6588 101.701 99.5655 101.638 99.4815 101.559C99.4022 101.475 99.3392 101.382 99.2925 101.279C99.2458 101.172 99.2225 101.057 99.2225 100.936C99.2225 100.815 99.2458 100.7 99.2925 100.593C99.3392 100.481 99.4022 100.385 99.4815 100.306C99.5655 100.222 99.6588 100.157 99.7615 100.11C99.8688 100.063 99.9832 100.04 100.105 100.04C100.226 100.04 100.34 100.063 100.448 100.11C100.555 100.157 100.648 100.222 100.728 100.306C100.812 100.385 100.877 100.481 100.924 100.593C100.975 100.7 101.001 100.815 101.001 100.936ZM102.917 110.253V103.162H103.659C103.836 103.162 103.948 103.248 103.995 103.421L104.086 104.149C104.347 103.827 104.639 103.563 104.961 103.358C105.287 103.153 105.665 103.05 106.095 103.05C106.575 103.05 106.963 103.183 107.257 103.449C107.555 103.715 107.77 104.074 107.901 104.527C107.999 104.27 108.127 104.049 108.286 103.862C108.449 103.675 108.631 103.521 108.832 103.4C109.032 103.279 109.245 103.19 109.469 103.134C109.697 103.078 109.928 103.05 110.162 103.05C110.535 103.05 110.866 103.111 111.156 103.232C111.45 103.349 111.697 103.521 111.898 103.75C112.103 103.979 112.259 104.261 112.367 104.597C112.474 104.928 112.528 105.309 112.528 105.738V110.253H111.282V105.738C111.282 105.183 111.16 104.763 110.918 104.478C110.675 104.189 110.323 104.044 109.861 104.044C109.655 104.044 109.459 104.081 109.273 104.156C109.091 104.226 108.93 104.331 108.79 104.471C108.65 104.611 108.538 104.788 108.454 105.003C108.374 105.213 108.335 105.458 108.335 105.738V110.253H107.089V105.738C107.089 105.169 106.974 104.744 106.746 104.464C106.517 104.184 106.183 104.044 105.745 104.044C105.437 104.044 105.15 104.128 104.884 104.296C104.622 104.459 104.382 104.683 104.163 104.968V110.253H102.917ZM117.222 103.05C117.646 103.05 118.038 103.122 118.398 103.267C118.757 103.407 119.067 103.612 119.329 103.883C119.59 104.149 119.793 104.48 119.938 104.877C120.087 105.269 120.162 105.717 120.162 106.221C120.162 106.417 120.141 106.548 120.099 106.613C120.057 106.678 119.977 106.711 119.861 106.711H115.143C115.152 107.159 115.213 107.549 115.325 107.88C115.437 108.211 115.591 108.489 115.787 108.713C115.983 108.932 116.216 109.098 116.487 109.21C116.757 109.317 117.061 109.371 117.397 109.371C117.709 109.371 117.978 109.336 118.202 109.266C118.43 109.191 118.626 109.112 118.79 109.028C118.953 108.944 119.088 108.867 119.196 108.797C119.308 108.722 119.403 108.685 119.483 108.685C119.585 108.685 119.665 108.725 119.721 108.804L120.071 109.259C119.917 109.446 119.732 109.609 119.518 109.749C119.303 109.884 119.072 109.996 118.825 110.085C118.582 110.174 118.33 110.239 118.069 110.281C117.807 110.328 117.548 110.351 117.292 110.351C116.802 110.351 116.349 110.269 115.934 110.106C115.523 109.938 115.166 109.695 114.863 109.378C114.564 109.056 114.331 108.659 114.163 108.188C113.995 107.717 113.911 107.175 113.911 106.564C113.911 106.069 113.985 105.607 114.135 105.178C114.289 104.749 114.508 104.378 114.793 104.065C115.077 103.748 115.425 103.5 115.836 103.323C116.246 103.141 116.708 103.05 117.222 103.05ZM117.25 103.967C116.648 103.967 116.174 104.142 115.829 104.492C115.483 104.837 115.269 105.318 115.185 105.934H119.042C119.042 105.645 119.002 105.381 118.923 105.143C118.843 104.9 118.727 104.693 118.573 104.52C118.419 104.343 118.23 104.207 118.006 104.114C117.786 104.016 117.534 103.967 117.25 103.967ZM121.756 110.253V103.162H122.498C122.676 103.162 122.788 103.248 122.834 103.421L122.932 104.191C123.24 103.85 123.583 103.575 123.961 103.365C124.344 103.155 124.785 103.05 125.284 103.05C125.672 103.05 126.012 103.115 126.306 103.246C126.605 103.372 126.852 103.554 127.048 103.792C127.249 104.025 127.401 104.308 127.503 104.639C127.606 104.97 127.657 105.337 127.657 105.738V110.253H126.411V105.738C126.411 105.201 126.288 104.786 126.04 104.492C125.798 104.193 125.424 104.044 124.92 104.044C124.552 104.044 124.206 104.133 123.884 104.31C123.567 104.487 123.273 104.728 123.002 105.031V110.253H121.756ZM131.685 110.365C131.125 110.365 130.693 110.209 130.39 109.896C130.091 109.583 129.942 109.133 129.942 108.545V104.205H129.088C129.013 104.205 128.95 104.184 128.899 104.142C128.847 104.095 128.822 104.025 128.822 103.932V103.435L129.984 103.288L130.271 101.097C130.28 101.027 130.31 100.971 130.362 100.929C130.413 100.882 130.478 100.859 130.558 100.859H131.188V103.302H133.218V104.205H131.188V108.461C131.188 108.76 131.26 108.981 131.405 109.126C131.549 109.271 131.736 109.343 131.965 109.343C132.095 109.343 132.207 109.327 132.301 109.294C132.399 109.257 132.483 109.217 132.553 109.175C132.623 109.133 132.681 109.096 132.728 109.063C132.779 109.026 132.823 109.007 132.861 109.007C132.926 109.007 132.984 109.047 133.036 109.126L133.4 109.721C133.185 109.922 132.926 110.08 132.623 110.197C132.319 110.309 132.007 110.365 131.685 110.365ZM138.818 104.331C138.762 104.434 138.676 104.485 138.559 104.485C138.489 104.485 138.41 104.459 138.321 104.408C138.233 104.357 138.123 104.301 137.992 104.24C137.866 104.175 137.715 104.116 137.537 104.065C137.36 104.009 137.15 103.981 136.907 103.981C136.697 103.981 136.508 104.009 136.34 104.065C136.172 104.116 136.028 104.189 135.906 104.282C135.79 104.375 135.699 104.485 135.633 104.611C135.573 104.732 135.542 104.865 135.542 105.01C135.542 105.192 135.594 105.344 135.696 105.465C135.804 105.586 135.944 105.691 136.116 105.78C136.289 105.869 136.485 105.948 136.704 106.018C136.924 106.083 137.148 106.156 137.376 106.235C137.61 106.31 137.836 106.394 138.055 106.487C138.275 106.58 138.471 106.697 138.643 106.837C138.816 106.977 138.954 107.15 139.056 107.355C139.164 107.556 139.217 107.798 139.217 108.083C139.217 108.41 139.159 108.713 139.042 108.993C138.926 109.268 138.753 109.509 138.524 109.714C138.296 109.915 138.016 110.073 137.684 110.19C137.353 110.307 136.97 110.365 136.536 110.365C136.042 110.365 135.594 110.286 135.192 110.127C134.791 109.964 134.45 109.756 134.17 109.504L134.464 109.028C134.502 108.967 134.546 108.921 134.597 108.888C134.649 108.855 134.716 108.839 134.8 108.839C134.884 108.839 134.973 108.872 135.066 108.937C135.16 109.002 135.272 109.075 135.402 109.154C135.538 109.233 135.699 109.306 135.885 109.371C136.077 109.436 136.315 109.469 136.599 109.469C136.842 109.469 137.054 109.439 137.236 109.378C137.418 109.313 137.57 109.226 137.691 109.119C137.813 109.012 137.901 108.888 137.957 108.748C138.018 108.608 138.048 108.459 138.048 108.3C138.048 108.104 137.995 107.943 137.887 107.817C137.785 107.686 137.647 107.577 137.474 107.488C137.302 107.395 137.103 107.315 136.879 107.25C136.66 107.18 136.434 107.108 136.2 107.033C135.972 106.958 135.745 106.874 135.521 106.781C135.302 106.683 135.106 106.562 134.933 106.417C134.761 106.272 134.621 106.095 134.513 105.885C134.411 105.67 134.359 105.411 134.359 105.108C134.359 104.837 134.415 104.578 134.527 104.331C134.639 104.079 134.803 103.86 135.017 103.673C135.232 103.482 135.496 103.33 135.808 103.218C136.121 103.106 136.478 103.05 136.879 103.05C137.346 103.05 137.764 103.125 138.132 103.274C138.506 103.419 138.828 103.619 139.098 103.876L138.818 104.331Z" fill="black"/>
<defs>
<filter id="filter0_d_404_11796" x="0" y="0.253418" width="166" height="165.999" filterUnits="userSpaceOnUse" color-interpolation-filters="sRGB">
<feFlood flood-opacity="0" result="BackgroundImageFix"/>
<feColorMatrix in="SourceAlpha" type="matrix" values="0 0 0 0 0 0 0 0 0 0 0 0 0 0 0 0 0 0 127 0" result="hardAlpha"/>
<feOffset dy="4"/>
<feGaussianBlur stdDeviation="4"/>
<feComposite in2="hardAlpha" operator="out"/>
<feColorMatrix type="matrix" values="0 0 0 0 0 0 0 0 0 0 0 0 0 0 0 0 0 0 0.25 0"/>
<feBlend mode="normal" in2="BackgroundImageFix" result="effect1_dropShadow_404_11796"/>
<feBlend mode="normal" in="SourceGraphic" in2="effect1_dropShadow_404_11796" result="shape"/>
</filter>
</defs>
</svg>
