<svg width="166" height="167" viewBox="0 0 166 167" fill="none" xmlns="http://www.w3.org/2000/svg">
<g filter="url(#filter0_d_404_11788)">
<path d="M126 4.25H40C22.3269 4.25 8 18.5768 8 36.2497V122.249C8 139.922 22.3269 154.249 40 154.249H126C143.673 154.249 158 139.922 158 122.249V36.2497C158 18.5768 143.673 4.25 126 4.25Z" fill="#FFF4DF"/>
</g>
<rect x="63" y="44.25" width="41" height="40.9996" rx="8" fill="#F8BB3E"/>
<path d="M77.8969 69.8739H79.2095V62.3729H77.8969V69.8739ZM82.8447 69.8739H84.1574V58.6224H82.8447V69.8739ZM87.7926 69.8739H89.1052V66.1234H87.7926V69.8739ZM75.1199 74.2493C74.8398 74.2563 74.5611 74.2086 74.301 74.1092C74.041 74.0098 73.805 73.8608 73.6077 73.6713C73.4087 73.4833 73.2522 73.2586 73.1478 73.0109C73.0434 72.7633 72.9934 72.4979 73.0007 72.2311V56.2689C72.9934 56.0021 73.0434 55.7367 73.1478 55.4891C73.2522 55.2414 73.4087 55.0167 73.6077 54.8287C73.805 54.6392 74.041 54.4902 74.301 54.3908C74.5611 54.2914 74.8398 54.2437 75.1199 54.2507H91.8801C92.1602 54.2437 92.4389 54.2914 92.699 54.3908C92.959 54.4902 93.195 54.6392 93.3923 54.8287C93.5913 55.0167 93.7478 55.2414 93.8522 55.4891C93.9566 55.7367 94.0066 56.0021 93.9993 56.2689V72.2311C94.0066 72.4979 93.9566 72.7633 93.8522 73.0109C93.7478 73.2586 93.5913 73.4833 93.3923 73.6713C93.195 73.8608 92.959 74.0098 92.699 74.1092C92.4389 74.2086 92.1602 74.2563 91.8801 74.2493H75.1199ZM75.1199 72.9992H91.8801C91.985 72.9972 92.0884 72.9749 92.1839 72.9336C92.2795 72.8924 92.3652 72.833 92.4359 72.7591C92.5134 72.6918 92.5757 72.6102 92.6191 72.5192C92.6624 72.4282 92.6858 72.3298 92.6879 72.2299V56.2677C92.6858 56.1678 92.6624 56.0694 92.6191 55.9784C92.5757 55.8874 92.5134 55.8058 92.4359 55.7385C92.3652 55.6646 92.2795 55.6052 92.1839 55.564C92.0884 55.5227 91.985 55.5004 91.8801 55.4984H75.1199C75.015 55.5004 74.9116 55.5227 74.8161 55.564C74.7205 55.6052 74.6348 55.6646 74.5642 55.7385C74.4866 55.8058 74.4243 55.8874 74.3809 55.9784C74.3376 56.0694 74.3142 56.1678 74.3121 56.2677V72.2299C74.3142 72.3298 74.3376 72.4282 74.3809 72.5192C74.4243 72.6102 74.4866 72.6918 74.5642 72.7591C74.6348 72.833 74.7205 72.8924 74.8161 72.9336C74.9116 72.9749 75.015 72.9972 75.1199 72.9992Z" fill="black"/>
<path d="M66.453 113.177C66.5277 113.177 66.5954 113.207 66.656 113.268L67.188 113.849C66.7774 114.325 66.278 114.696 65.69 114.962C65.1067 115.228 64.402 115.361 63.576 115.361C62.8527 115.361 62.197 115.237 61.609 114.99C61.021 114.738 60.5194 114.388 60.104 113.94C59.6887 113.487 59.3667 112.946 59.138 112.316C58.9094 111.686 58.795 110.993 58.795 110.237C58.795 109.481 58.9164 108.788 59.159 108.158C59.4064 107.528 59.7517 106.987 60.195 106.534C60.6384 106.081 61.168 105.731 61.784 105.484C62.4047 105.232 63.0884 105.106 63.835 105.106C64.5724 105.106 65.207 105.22 65.739 105.449C66.2757 105.678 66.7517 105.988 67.167 106.38L66.726 107.003C66.6934 107.05 66.656 107.089 66.614 107.122C66.572 107.15 66.5114 107.164 66.432 107.164C66.3714 107.164 66.306 107.143 66.236 107.101C66.1707 107.054 66.0914 106.998 65.998 106.933C65.9047 106.868 65.795 106.798 65.669 106.723C65.543 106.648 65.3937 106.578 65.221 106.513C65.0484 106.448 64.8477 106.394 64.619 106.352C64.3904 106.305 64.1267 106.282 63.828 106.282C63.2914 106.282 62.799 106.375 62.351 106.562C61.9077 106.744 61.525 107.005 61.203 107.346C60.881 107.687 60.629 108.102 60.447 108.592C60.2697 109.082 60.181 109.63 60.181 110.237C60.181 110.862 60.2697 111.42 60.447 111.91C60.629 112.4 60.874 112.815 61.182 113.156C61.4947 113.492 61.8634 113.749 62.288 113.926C62.7127 114.103 63.17 114.192 63.66 114.192C63.9587 114.192 64.227 114.176 64.465 114.143C64.703 114.106 64.9224 114.05 65.123 113.975C65.3284 113.9 65.5174 113.807 65.69 113.695C65.8674 113.578 66.0447 113.441 66.222 113.282C66.3014 113.212 66.3784 113.177 66.453 113.177ZM71.641 108.046C72.159 108.046 72.6257 108.132 73.041 108.305C73.461 108.478 73.8157 108.723 74.105 109.04C74.399 109.357 74.623 109.742 74.777 110.195C74.9357 110.643 75.015 111.145 75.015 111.7C75.015 112.26 74.9357 112.764 74.777 113.212C74.623 113.66 74.399 114.043 74.105 114.36C73.8157 114.677 73.461 114.922 73.041 115.095C72.6257 115.263 72.159 115.347 71.641 115.347C71.123 115.347 70.654 115.263 70.234 115.095C69.8187 114.922 69.464 114.677 69.17 114.36C68.876 114.043 68.6497 113.66 68.491 113.212C68.3324 112.764 68.253 112.26 68.253 111.7C68.253 111.145 68.3324 110.643 68.491 110.195C68.6497 109.742 68.876 109.357 69.17 109.04C69.464 108.723 69.8187 108.478 70.234 108.305C70.654 108.132 71.123 108.046 71.641 108.046ZM71.641 114.374C72.341 114.374 72.8637 114.141 73.209 113.674C73.5544 113.203 73.727 112.547 73.727 111.707C73.727 110.862 73.5544 110.204 73.209 109.733C72.8637 109.262 72.341 109.026 71.641 109.026C71.2864 109.026 70.9784 109.087 70.717 109.208C70.4557 109.329 70.2364 109.504 70.059 109.733C69.8864 109.962 69.7557 110.244 69.667 110.58C69.583 110.911 69.541 111.287 69.541 111.707C69.541 112.127 69.583 112.503 69.667 112.834C69.7557 113.165 69.8864 113.445 70.059 113.674C70.2364 113.898 70.4557 114.071 70.717 114.192C70.9784 114.313 71.2864 114.374 71.641 114.374ZM76.5503 115.249V108.158H77.2923C77.4697 108.158 77.5817 108.244 77.6283 108.417L77.7193 109.145C77.9807 108.823 78.2723 108.559 78.5943 108.354C78.921 108.149 79.299 108.046 79.7283 108.046C80.209 108.046 80.5963 108.179 80.8903 108.445C81.189 108.711 81.4037 109.07 81.5343 109.523C81.6323 109.266 81.7607 109.045 81.9193 108.858C82.0827 108.671 82.2647 108.517 82.4653 108.396C82.666 108.275 82.8783 108.186 83.1023 108.13C83.331 108.074 83.562 108.046 83.7953 108.046C84.1687 108.046 84.5 108.107 84.7893 108.228C85.0833 108.345 85.3307 108.517 85.5313 108.746C85.7367 108.975 85.893 109.257 86.0003 109.593C86.1077 109.924 86.1613 110.305 86.1613 110.734V115.249H84.9153V110.734C84.9153 110.179 84.794 109.759 84.5513 109.474C84.3087 109.185 83.9563 109.04 83.4943 109.04C83.289 109.04 83.093 109.077 82.9063 109.152C82.7243 109.222 82.5633 109.327 82.4233 109.467C82.2833 109.607 82.1713 109.784 82.0873 109.999C82.008 110.209 81.9683 110.454 81.9683 110.734V115.249H80.7223V110.734C80.7223 110.165 80.608 109.74 80.3793 109.46C80.1507 109.18 79.817 109.04 79.3783 109.04C79.0703 109.04 78.7833 109.124 78.5173 109.292C78.256 109.455 78.0157 109.679 77.7963 109.964V115.249H76.5503ZM88.0484 117.65V108.158H88.7904C88.9677 108.158 89.0797 108.244 89.1264 108.417L89.2314 109.257C89.5347 108.888 89.88 108.592 90.2674 108.368C90.6594 108.144 91.1097 108.032 91.6184 108.032C92.0244 108.032 92.393 108.111 92.7244 108.27C93.0557 108.424 93.338 108.655 93.5714 108.963C93.8047 109.266 93.9844 109.644 94.1104 110.097C94.2364 110.55 94.2994 111.07 94.2994 111.658C94.2994 112.181 94.2294 112.668 94.0894 113.121C93.9494 113.569 93.7487 113.959 93.4874 114.29C93.226 114.617 92.904 114.876 92.5214 115.067C92.1434 115.254 91.7164 115.347 91.2404 115.347C90.8017 115.347 90.426 115.275 90.1134 115.13C89.8054 114.985 89.5324 114.78 89.2944 114.514V117.65H88.0484ZM91.2054 109.04C90.7994 109.04 90.4424 109.133 90.1344 109.32C89.831 109.507 89.551 109.77 89.2944 110.111V113.541C89.523 113.849 89.7727 114.066 90.0434 114.192C90.3187 114.318 90.6244 114.381 90.9604 114.381C91.6184 114.381 92.1247 114.145 92.4794 113.674C92.834 113.203 93.0114 112.531 93.0114 111.658C93.0114 111.196 92.9694 110.799 92.8854 110.468C92.806 110.137 92.6894 109.866 92.5354 109.656C92.3814 109.441 92.1924 109.285 91.9684 109.187C91.7444 109.089 91.49 109.04 91.2054 109.04ZM100.981 115.249H100.428C100.307 115.249 100.209 115.23 100.134 115.193C100.059 115.156 100.01 115.076 99.987 114.955L99.847 114.297C99.6603 114.465 99.4783 114.617 99.301 114.752C99.1236 114.883 98.937 114.995 98.741 115.088C98.545 115.177 98.335 115.244 98.111 115.291C97.8916 115.338 97.6466 115.361 97.376 115.361C97.1006 115.361 96.8416 115.324 96.599 115.249C96.361 115.17 96.1533 115.053 95.976 114.899C95.7986 114.745 95.6563 114.551 95.549 114.318C95.4463 114.08 95.395 113.8 95.395 113.478C95.395 113.198 95.472 112.93 95.626 112.673C95.78 112.412 96.0273 112.181 96.368 111.98C96.7133 111.779 97.1636 111.616 97.719 111.49C98.2743 111.359 98.9533 111.285 99.756 111.266V110.713C99.756 110.162 99.637 109.747 99.399 109.467C99.1656 109.182 98.818 109.04 98.356 109.04C98.0526 109.04 97.796 109.08 97.586 109.159C97.3806 109.234 97.201 109.32 97.047 109.418C96.8976 109.511 96.767 109.598 96.655 109.677C96.5476 109.752 96.4403 109.789 96.333 109.789C96.249 109.789 96.1743 109.768 96.109 109.726C96.0483 109.679 95.9993 109.623 95.962 109.558L95.738 109.159C96.13 108.781 96.5523 108.499 97.005 108.312C97.4576 108.125 97.9593 108.032 98.51 108.032C98.9066 108.032 99.259 108.097 99.567 108.228C99.875 108.359 100.134 108.541 100.344 108.774C100.554 109.007 100.713 109.29 100.82 109.621C100.927 109.952 100.981 110.316 100.981 110.713V115.249ZM97.747 114.486C97.9663 114.486 98.167 114.465 98.349 114.423C98.531 114.376 98.7013 114.313 98.86 114.234C99.0233 114.15 99.1773 114.05 99.322 113.933C99.4713 113.816 99.616 113.683 99.756 113.534V112.057C99.182 112.076 98.6943 112.122 98.293 112.197C97.8916 112.267 97.565 112.36 97.313 112.477C97.061 112.594 96.8766 112.731 96.76 112.89C96.648 113.049 96.592 113.226 96.592 113.422C96.592 113.609 96.6223 113.77 96.683 113.905C96.7436 114.04 96.8253 114.152 96.928 114.241C97.0306 114.325 97.152 114.388 97.292 114.43C97.432 114.467 97.5836 114.486 97.747 114.486ZM102.869 115.249V108.158H103.583C103.718 108.158 103.811 108.184 103.863 108.235C103.914 108.286 103.949 108.375 103.968 108.501L104.052 109.607C104.294 109.112 104.593 108.727 104.948 108.452C105.307 108.172 105.727 108.032 106.208 108.032C106.404 108.032 106.581 108.055 106.74 108.102C106.898 108.144 107.045 108.205 107.181 108.284L107.02 109.215C106.987 109.332 106.915 109.39 106.803 109.39C106.737 109.39 106.637 109.369 106.502 109.327C106.366 109.28 106.177 109.257 105.935 109.257C105.501 109.257 105.137 109.383 104.843 109.635C104.553 109.887 104.311 110.253 104.115 110.734V115.249H102.869ZM111.322 108.046C111.747 108.046 112.139 108.118 112.498 108.263C112.857 108.403 113.168 108.608 113.429 108.879C113.69 109.145 113.893 109.476 114.038 109.873C114.187 110.265 114.262 110.713 114.262 111.217C114.262 111.413 114.241 111.544 114.199 111.609C114.157 111.674 114.078 111.707 113.961 111.707H109.243C109.252 112.155 109.313 112.545 109.425 112.876C109.537 113.207 109.691 113.485 109.887 113.709C110.083 113.928 110.316 114.094 110.587 114.206C110.858 114.313 111.161 114.367 111.497 114.367C111.81 114.367 112.078 114.332 112.302 114.262C112.531 114.187 112.727 114.108 112.89 114.024C113.053 113.94 113.189 113.863 113.296 113.793C113.408 113.718 113.504 113.681 113.583 113.681C113.686 113.681 113.765 113.721 113.821 113.8L114.171 114.255C114.017 114.442 113.833 114.605 113.618 114.745C113.403 114.88 113.172 114.992 112.925 115.081C112.682 115.17 112.43 115.235 112.169 115.277C111.908 115.324 111.649 115.347 111.392 115.347C110.902 115.347 110.449 115.265 110.034 115.102C109.623 114.934 109.266 114.691 108.963 114.374C108.664 114.052 108.431 113.655 108.263 113.184C108.095 112.713 108.011 112.171 108.011 111.56C108.011 111.065 108.086 110.603 108.235 110.174C108.389 109.745 108.608 109.374 108.893 109.061C109.178 108.744 109.525 108.496 109.936 108.319C110.347 108.137 110.809 108.046 111.322 108.046ZM111.35 108.963C110.748 108.963 110.274 109.138 109.929 109.488C109.584 109.833 109.369 110.314 109.285 110.93H113.142C113.142 110.641 113.102 110.377 113.023 110.139C112.944 109.896 112.827 109.689 112.673 109.516C112.519 109.339 112.33 109.203 112.106 109.11C111.887 109.012 111.635 108.963 111.35 108.963Z" fill="black"/>
<defs>
<filter id="filter0_d_404_11788" x="0" y="0.25" width="166" height="165.999" filterUnits="userSpaceOnUse" color-interpolation-filters="sRGB">
<feFlood flood-opacity="0" result="BackgroundImageFix"/>
<feColorMatrix in="SourceAlpha" type="matrix" values="0 0 0 0 0 0 0 0 0 0 0 0 0 0 0 0 0 0 127 0" result="hardAlpha"/>
<feOffset dy="4"/>
<feGaussianBlur stdDeviation="4"/>
<feComposite in2="hardAlpha" operator="out"/>
<feColorMatrix type="matrix" values="0 0 0 0 0 0 0 0 0 0 0 0 0 0 0 0 0 0 0.25 0"/>
<feBlend mode="normal" in2="BackgroundImageFix" result="effect1_dropShadow_404_11788"/>
<feBlend mode="normal" in="SourceGraphic" in2="effect1_dropShadow_404_11788" result="shape"/>
</filter>
</defs>
</svg>
