<svg width="166" height="167" viewBox="0 0 166 167" fill="none" xmlns="http://www.w3.org/2000/svg">
<g filter="url(#filter0_d_404_11790)">
<path d="M126 4.25H40C22.3269 4.25 8 18.5768 8 36.2497V122.249C8 139.922 22.3269 154.249 40 154.249H126C143.673 154.249 158 139.922 158 122.249V36.2497C158 18.5768 143.673 4.25 126 4.25Z" fill="#FFF4DF"/>
</g>
<rect x="63" y="44.25" width="41" height="40.9996" rx="8" fill="#F85C3F"/>
<path d="M82.9558 71.7288H83.9913V70.4904C84.7768 70.4167 85.5285 70.1351 86.1691 69.6746C86.5191 69.4215 86.7986 69.0831 86.9809 68.6916C87.1632 68.3 87.2423 67.8683 87.2106 67.4376C87.2276 66.7458 86.9874 66.0724 86.5365 65.5475C86.0871 65.0267 85.2291 64.5375 83.9624 64.08C82.7987 63.6746 82.055 63.3262 81.7315 63.0346C81.5651 62.8749 81.4356 62.6809 81.3519 62.466C81.2681 62.2512 81.2322 62.0207 81.2466 61.7905C81.2427 61.5331 81.2973 61.2781 81.4065 61.0449C81.5156 60.8117 81.6764 60.6064 81.8767 60.4446C82.3513 60.0676 82.9471 59.8765 83.5524 59.9069C84.0263 59.8893 84.494 60.0178 84.8923 60.2751C85.2475 60.5185 85.5442 60.8378 85.761 61.2099L86.6786 60.8485C86.4289 60.3385 86.0543 59.9 85.5896 59.5736C85.1385 59.2414 84.6029 59.043 84.0442 59.0014V57.763H83.0087V59.0014C82.2134 59.0905 81.4743 59.4545 80.9187 60.0304C80.469 60.5066 80.2159 61.1352 80.21 61.7901C80.1946 62.1274 80.2503 62.464 80.3736 62.7783C80.4969 63.0925 80.6849 63.3773 80.9256 63.6141C81.6375 64.2011 82.4579 64.6426 83.34 64.9133C84.1578 65.1679 84.9303 65.5503 85.6287 66.0461C85.8246 66.2194 85.9789 66.4345 86.0803 66.6756C86.1817 66.9167 86.2275 67.1775 86.2143 67.4387C86.2391 67.755 86.1764 68.0721 86.0331 68.3551C85.8897 68.6382 85.6712 68.8763 85.4015 69.0434C84.8765 69.3654 84.2724 69.5351 83.6566 69.5336C83.0651 69.5385 82.4879 69.3519 82.0112 69.0016C81.4936 68.6108 81.0893 68.0892 80.8401 67.4904L79.9102 67.8924C80.163 68.5493 80.579 69.1308 81.119 69.5823C81.6585 70.0022 82.2861 70.2947 82.9547 70.4376L82.9558 71.7288ZM83.5 74.2459C82.228 74.2539 80.9681 73.9985 79.7996 73.4958C78.6741 73.016 77.6504 72.326 76.7832 71.4629C75.9201 70.5957 75.2301 69.572 74.7503 68.4465C74.2476 67.278 73.9922 66.0181 74.0002 64.7461C73.9922 63.4741 74.2476 62.2142 74.7503 61.0457C75.2301 59.9202 75.9201 58.8965 76.7832 58.0293C77.6504 57.1662 78.6741 56.4762 79.7996 55.9964C80.9681 55.4937 82.228 55.2383 83.5 55.2463C84.772 55.2383 86.0319 55.4937 87.2004 55.9964C88.3259 56.4762 89.3496 57.1662 90.2168 58.0293C91.0799 58.8965 91.7699 59.9202 92.2497 61.0457C92.7524 62.2142 93.0078 63.4741 92.9998 64.7461C93.0078 66.0181 92.7524 67.278 92.2497 68.4465C91.7699 69.572 91.0799 70.5957 90.2168 71.4629C89.3496 72.326 88.3259 73.016 87.2004 73.4958C86.0319 73.9985 84.772 74.2539 83.5 74.2459ZM83.5 73.1903C84.6131 73.2121 85.719 73.0056 86.7492 72.5836C87.7795 72.1615 88.7123 71.5328 89.4902 70.7363C90.2867 69.9584 90.9154 69.0256 91.3375 67.9953C91.7595 66.9651 91.966 65.8592 91.9442 64.7461C91.966 63.633 91.7595 62.5271 91.3375 61.4969C90.9154 60.4666 90.2867 59.5338 89.4902 58.7559C88.7123 57.9594 87.7795 57.3307 86.7492 56.9086C85.719 56.4866 84.6131 56.2801 83.5 56.3019C82.3869 56.2801 81.281 56.4866 80.2508 56.9086C79.2205 57.3307 78.2877 57.9594 77.5098 58.7559C76.7133 59.5338 76.0846 60.4666 75.6625 61.4969C75.2405 62.5271 75.034 63.633 75.0558 64.7461C75.034 65.8592 75.2405 66.9651 75.6625 67.9953C76.0846 69.0256 76.7133 69.9584 77.5098 70.7363C78.2877 71.5328 79.2205 72.1615 80.2508 72.5836C81.281 73.0056 82.3869 73.2121 83.5 73.1903Z" fill="white"/>
<path d="M52.9977 111.623C53.0631 111.735 53.1191 111.854 53.1657 111.98C53.2171 112.101 53.2661 112.225 53.3127 112.351C53.3594 112.22 53.4084 112.097 53.4597 111.98C53.5111 111.859 53.5694 111.737 53.6347 111.616L57.0297 105.449C57.0904 105.342 57.1534 105.276 57.2187 105.253C57.2841 105.23 57.3774 105.218 57.4987 105.218H58.4997V115.249H57.3097V107.878C57.3097 107.78 57.3121 107.675 57.3167 107.563C57.3214 107.451 57.3284 107.337 57.3377 107.22L53.9007 113.492C53.7841 113.702 53.6207 113.807 53.4107 113.807H53.2147C53.0047 113.807 52.8414 113.702 52.7247 113.492L49.2107 107.199C49.2247 107.32 49.2341 107.439 49.2387 107.556C49.2481 107.673 49.2527 107.78 49.2527 107.878V115.249H48.0627V105.218H49.0637C49.1851 105.218 49.2784 105.23 49.3437 105.253C49.4091 105.276 49.4721 105.342 49.5327 105.449L52.9977 111.623ZM65.9536 115.249H65.4006C65.2793 115.249 65.1813 115.23 65.1066 115.193C65.032 115.156 64.983 115.076 64.9596 114.955L64.8196 114.297C64.633 114.465 64.451 114.617 64.2736 114.752C64.0963 114.883 63.9096 114.995 63.7136 115.088C63.5176 115.177 63.3076 115.244 63.0836 115.291C62.8643 115.338 62.6193 115.361 62.3486 115.361C62.0733 115.361 61.8143 115.324 61.5716 115.249C61.3336 115.17 61.126 115.053 60.9486 114.899C60.7713 114.745 60.629 114.551 60.5216 114.318C60.419 114.08 60.3676 113.8 60.3676 113.478C60.3676 113.198 60.4446 112.93 60.5986 112.673C60.7526 112.412 61 112.181 61.3406 111.98C61.686 111.779 62.1363 111.616 62.6916 111.49C63.247 111.359 63.926 111.285 64.7286 111.266V110.713C64.7286 110.162 64.6096 109.747 64.3716 109.467C64.1383 109.182 63.7906 109.04 63.3286 109.04C63.0253 109.04 62.7686 109.08 62.5586 109.159C62.3533 109.234 62.1736 109.32 62.0196 109.418C61.8703 109.511 61.7396 109.598 61.6276 109.677C61.5203 109.752 61.413 109.789 61.3056 109.789C61.2216 109.789 61.147 109.768 61.0816 109.726C61.021 109.679 60.972 109.623 60.9346 109.558L60.7106 109.159C61.1026 108.781 61.525 108.499 61.9776 108.312C62.4303 108.125 62.932 108.032 63.4826 108.032C63.8793 108.032 64.2316 108.097 64.5396 108.228C64.8476 108.359 65.1066 108.541 65.3166 108.774C65.5266 109.007 65.6853 109.29 65.7926 109.621C65.9 109.952 65.9536 110.316 65.9536 110.713V115.249ZM62.7196 114.486C62.939 114.486 63.1396 114.465 63.3216 114.423C63.5036 114.376 63.674 114.313 63.8326 114.234C63.996 114.15 64.15 114.05 64.2946 113.933C64.444 113.816 64.5886 113.683 64.7286 113.534V112.057C64.1546 112.076 63.667 112.122 63.2656 112.197C62.8643 112.267 62.5376 112.36 62.2856 112.477C62.0336 112.594 61.8493 112.731 61.7326 112.89C61.6206 113.049 61.5646 113.226 61.5646 113.422C61.5646 113.609 61.595 113.77 61.6556 113.905C61.7163 114.04 61.798 114.152 61.9006 114.241C62.0033 114.325 62.1246 114.388 62.2646 114.43C62.4046 114.467 62.5563 114.486 62.7196 114.486ZM69.5003 111.616L67.1133 108.158H68.3103C68.413 108.158 68.4877 108.174 68.5343 108.207C68.581 108.24 68.623 108.286 68.6603 108.347L70.3963 111.007C70.4383 110.876 70.499 110.746 70.5783 110.615L72.1043 108.375C72.151 108.31 72.1977 108.258 72.2443 108.221C72.291 108.179 72.3493 108.158 72.4193 108.158H73.5673L71.1803 111.546L73.6653 115.249H72.4683C72.3657 115.249 72.284 115.223 72.2233 115.172C72.1673 115.116 72.1207 115.055 72.0833 114.99L70.2983 112.211C70.2657 112.346 70.2167 112.468 70.1513 112.575L68.4993 114.99C68.4527 115.055 68.4013 115.116 68.3453 115.172C68.294 115.223 68.2217 115.249 68.1283 115.249H67.0153L69.5003 111.616ZM76.282 108.158V115.249H75.036V108.158H76.282ZM76.562 105.932C76.562 106.053 76.5364 106.168 76.485 106.275C76.4384 106.378 76.373 106.471 76.289 106.555C76.2097 106.634 76.1164 106.697 76.009 106.744C75.9017 106.791 75.7874 106.814 75.666 106.814C75.5447 106.814 75.4304 106.791 75.323 106.744C75.2204 106.697 75.127 106.634 75.043 106.555C74.9637 106.471 74.9007 106.378 74.854 106.275C74.8074 106.168 74.784 106.053 74.784 105.932C74.784 105.811 74.8074 105.696 74.854 105.589C74.9007 105.477 74.9637 105.381 75.043 105.302C75.127 105.218 75.2204 105.153 75.323 105.106C75.4304 105.059 75.5447 105.036 75.666 105.036C75.7874 105.036 75.9017 105.059 76.009 105.106C76.1164 105.153 76.2097 105.218 76.289 105.302C76.373 105.381 76.4384 105.477 76.485 105.589C76.5364 105.696 76.562 105.811 76.562 105.932ZM78.4781 115.249V108.158H79.2201C79.3974 108.158 79.5094 108.244 79.5561 108.417L79.6471 109.145C79.9084 108.823 80.2001 108.559 80.5221 108.354C80.8487 108.149 81.2267 108.046 81.6561 108.046C82.1367 108.046 82.5241 108.179 82.8181 108.445C83.1167 108.711 83.3314 109.07 83.4621 109.523C83.5601 109.266 83.6884 109.045 83.8471 108.858C84.0104 108.671 84.1924 108.517 84.3931 108.396C84.5937 108.275 84.8061 108.186 85.0301 108.13C85.2587 108.074 85.4897 108.046 85.7231 108.046C86.0964 108.046 86.4277 108.107 86.7171 108.228C87.0111 108.345 87.2584 108.517 87.4591 108.746C87.6644 108.975 87.8207 109.257 87.9281 109.593C88.0354 109.924 88.0891 110.305 88.0891 110.734V115.249H86.8431V110.734C86.8431 110.179 86.7217 109.759 86.4791 109.474C86.2364 109.185 85.8841 109.04 85.4221 109.04C85.2167 109.04 85.0207 109.077 84.8341 109.152C84.6521 109.222 84.4911 109.327 84.3511 109.467C84.2111 109.607 84.0991 109.784 84.0151 109.999C83.9357 110.209 83.8961 110.454 83.8961 110.734V115.249H82.6501V110.734C82.6501 110.165 82.5357 109.74 82.3071 109.46C82.0784 109.18 81.7447 109.04 81.3061 109.04C80.9981 109.04 80.7111 109.124 80.4451 109.292C80.1837 109.455 79.9434 109.679 79.7241 109.964V115.249H78.4781ZM91.3621 108.158V115.249H90.1161V108.158H91.3621ZM91.6421 105.932C91.6421 106.053 91.6164 106.168 91.5651 106.275C91.5184 106.378 91.4531 106.471 91.3691 106.555C91.2898 106.634 91.1964 106.697 91.0891 106.744C90.9818 106.791 90.8674 106.814 90.7461 106.814C90.6248 106.814 90.5104 106.791 90.4031 106.744C90.3004 106.697 90.2071 106.634 90.1231 106.555C90.0438 106.471 89.9808 106.378 89.9341 106.275C89.8874 106.168 89.8641 106.053 89.8641 105.932C89.8641 105.811 89.8874 105.696 89.9341 105.589C89.9808 105.477 90.0438 105.381 90.1231 105.302C90.2071 105.218 90.3004 105.153 90.4031 105.106C90.5104 105.059 90.6248 105.036 90.7461 105.036C90.8674 105.036 90.9818 105.059 91.0891 105.106C91.1964 105.153 91.2898 105.218 91.3691 105.302C91.4531 105.381 91.5184 105.477 91.5651 105.589C91.6164 105.696 91.6421 105.811 91.6421 105.932ZM98.5071 108.69C98.5071 108.779 98.4908 108.865 98.4581 108.949C98.4255 109.028 98.3835 109.101 98.3321 109.166L94.4961 114.276H98.3671V115.249H93.0261V114.731C93.0261 114.67 93.0401 114.6 93.0681 114.521C93.1008 114.437 93.1451 114.358 93.2011 114.283L97.0581 109.138H93.2431V108.158H98.5071V108.69ZM102.832 108.046C103.257 108.046 103.649 108.118 104.008 108.263C104.367 108.403 104.678 108.608 104.939 108.879C105.2 109.145 105.403 109.476 105.548 109.873C105.697 110.265 105.772 110.713 105.772 111.217C105.772 111.413 105.751 111.544 105.709 111.609C105.667 111.674 105.588 111.707 105.471 111.707H100.753C100.762 112.155 100.823 112.545 100.935 112.876C101.047 113.207 101.201 113.485 101.397 113.709C101.593 113.928 101.826 114.094 102.097 114.206C102.368 114.313 102.671 114.367 103.007 114.367C103.32 114.367 103.588 114.332 103.812 114.262C104.041 114.187 104.237 114.108 104.4 114.024C104.563 113.94 104.699 113.863 104.806 113.793C104.918 113.718 105.014 113.681 105.093 113.681C105.196 113.681 105.275 113.721 105.331 113.8L105.681 114.255C105.527 114.442 105.343 114.605 105.128 114.745C104.913 114.88 104.682 114.992 104.435 115.081C104.192 115.17 103.94 115.235 103.679 115.277C103.418 115.324 103.159 115.347 102.902 115.347C102.412 115.347 101.959 115.265 101.544 115.102C101.133 114.934 100.776 114.691 100.473 114.374C100.174 114.052 99.9409 113.655 99.7729 113.184C99.6049 112.713 99.5209 112.171 99.5209 111.56C99.5209 111.065 99.5956 110.603 99.7449 110.174C99.8989 109.745 100.118 109.374 100.403 109.061C100.688 108.744 101.035 108.496 101.446 108.319C101.857 108.137 102.319 108.046 102.832 108.046ZM102.86 108.963C102.258 108.963 101.784 109.138 101.439 109.488C101.094 109.833 100.879 110.314 100.795 110.93H104.652C104.652 110.641 104.612 110.377 104.533 110.139C104.454 109.896 104.337 109.689 104.183 109.516C104.029 109.339 103.84 109.203 103.616 109.11C103.397 109.012 103.145 108.963 102.86 108.963ZM111.46 104.938V115.249H110.214V104.938H111.46ZM115.042 108.158V115.249H113.796V108.158H115.042ZM115.322 105.932C115.322 106.053 115.296 106.168 115.245 106.275C115.198 106.378 115.133 106.471 115.049 106.555C114.969 106.634 114.876 106.697 114.769 106.744C114.661 106.791 114.547 106.814 114.426 106.814C114.304 106.814 114.19 106.791 114.083 106.744C113.98 106.697 113.887 106.634 113.803 106.555C113.723 106.471 113.66 106.378 113.614 106.275C113.567 106.168 113.544 106.053 113.544 105.932C113.544 105.811 113.567 105.696 113.614 105.589C113.66 105.477 113.723 105.381 113.803 105.302C113.887 105.218 113.98 105.153 114.083 105.106C114.19 105.059 114.304 105.036 114.426 105.036C114.547 105.036 114.661 105.059 114.769 105.106C114.876 105.153 114.969 105.218 115.049 105.302C115.133 105.381 115.198 105.477 115.245 105.589C115.296 105.696 115.322 105.811 115.322 105.932ZM117.518 115.249V109.222L116.734 109.131C116.636 109.108 116.554 109.073 116.489 109.026C116.428 108.975 116.398 108.902 116.398 108.809V108.298H117.518V107.612C117.518 107.206 117.574 106.847 117.686 106.534C117.802 106.217 117.966 105.951 118.176 105.736C118.39 105.517 118.647 105.351 118.946 105.239C119.244 105.127 119.58 105.071 119.954 105.071C120.271 105.071 120.565 105.118 120.836 105.211L120.808 105.834C120.803 105.927 120.763 105.983 120.689 106.002C120.614 106.021 120.509 106.03 120.374 106.03H120.157C119.942 106.03 119.746 106.058 119.569 106.114C119.396 106.17 119.247 106.261 119.121 106.387C118.995 106.513 118.897 106.679 118.827 106.884C118.761 107.089 118.729 107.344 118.729 107.647V108.298H120.78V109.201H118.771V115.249H117.518ZM124.104 115.361C123.544 115.361 123.112 115.205 122.809 114.892C122.51 114.579 122.361 114.129 122.361 113.541V109.201H121.507C121.432 109.201 121.369 109.18 121.318 109.138C121.266 109.091 121.241 109.021 121.241 108.928V108.431L122.403 108.284L122.69 106.093C122.699 106.023 122.729 105.967 122.781 105.925C122.832 105.878 122.897 105.855 122.977 105.855H123.607V108.298H125.637V109.201H123.607V113.457C123.607 113.756 123.679 113.977 123.824 114.122C123.968 114.267 124.155 114.339 124.384 114.339C124.514 114.339 124.626 114.323 124.72 114.29C124.818 114.253 124.902 114.213 124.972 114.171C125.042 114.129 125.1 114.092 125.147 114.059C125.198 114.022 125.242 114.003 125.28 114.003C125.345 114.003 125.403 114.043 125.455 114.122L125.819 114.717C125.604 114.918 125.345 115.076 125.042 115.193C124.738 115.305 124.426 115.361 124.104 115.361Z" fill="black"/>
<defs>
<filter id="filter0_d_404_11790" x="0" y="0.25" width="166" height="165.999" filterUnits="userSpaceOnUse" color-interpolation-filters="sRGB">
<feFlood flood-opacity="0" result="BackgroundImageFix"/>
<feColorMatrix in="SourceAlpha" type="matrix" values="0 0 0 0 0 0 0 0 0 0 0 0 0 0 0 0 0 0 127 0" result="hardAlpha"/>
<feOffset dy="4"/>
<feGaussianBlur stdDeviation="4"/>
<feComposite in2="hardAlpha" operator="out"/>
<feColorMatrix type="matrix" values="0 0 0 0 0 0 0 0 0 0 0 0 0 0 0 0 0 0 0.25 0"/>
<feBlend mode="normal" in2="BackgroundImageFix" result="effect1_dropShadow_404_11790"/>
<feBlend mode="normal" in="SourceGraphic" in2="effect1_dropShadow_404_11790" result="shape"/>
</filter>
</defs>
</svg>
