<svg width="42" height="42" viewBox="0 0 42 42" fill="none" xmlns="http://www.w3.org/2000/svg">
<rect width="42" height="42" rx="8" fill="#E85C87"/>
<path d="M17.0578 25H28.4423C28.5193 25 28.5898 24.9679 28.6538 24.9038C28.7179 24.8398 28.75 24.7692 28.75 24.6923V15H16.75V24.6923C16.75 24.7692 16.7821 24.8398 16.8463 24.9038C16.9103 24.9679 16.9808 25 17.0578 25ZM17.0578 26.5C16.5526 26.5 16.125 26.325 15.775 25.975C15.425 25.625 15.25 25.1974 15.25 24.6923V13.3077C15.25 12.8026 15.425 12.375 15.775 12.025C16.125 11.675 16.5526 11.5 17.0578 11.5H28.4423C28.9474 11.5 29.375 11.675 29.725 12.025C30.075 12.375 30.25 12.8026 30.25 13.3077V24.6923C30.25 25.1974 30.075 25.625 29.725 25.975C29.375 26.325 28.9474 26.5 28.4423 26.5H17.0578ZM13.5577 30C13.0526 30 12.625 29.825 12.275 29.475C11.925 29.125 11.75 28.6974 11.75 28.1923V15.3077H13.25V28.1923C13.25 28.2693 13.2821 28.3398 13.3463 28.4038C13.4103 28.4679 13.4807 28.5 13.5577 28.5H26.4423V30H13.5577Z" fill="white"/>
</svg>
