<svg width="42" height="42" viewBox="0 0 42 42" fill="none" xmlns="http://www.w3.org/2000/svg">
<rect width="42" height="42" rx="8" fill="#34A853"/>
<path d="M20.9472 11.9594C23.1087 11.9594 25.148 12.4174 27.065 13.3334C28.9818 14.2494 30.5803 15.5692 31.8606 17.2929C31.988 17.4507 32.0281 17.5943 31.9808 17.7238C31.9336 17.853 31.8526 17.9602 31.7379 18.0454C31.623 18.1306 31.4938 18.1685 31.3503 18.1592C31.2068 18.1502 31.0811 18.072 30.9734 17.9246C29.8331 16.3388 28.3749 15.1263 26.5988 14.287C24.8229 13.4477 22.939 13.0281 20.9472 13.0281C18.964 13.0281 17.0995 13.4515 15.3539 14.2985C13.608 15.1456 12.1587 16.3543 11.006 17.9246C10.8911 18.0903 10.7597 18.1794 10.6119 18.1919C10.4641 18.2041 10.3327 18.1639 10.2178 18.0711C10.1023 17.9859 10.0322 17.8794 10.0074 17.7516C9.98268 17.6237 10.0198 17.491 10.1187 17.3533C11.3944 15.6576 12.9804 14.3347 14.877 13.3847C16.7737 12.4345 18.7971 11.9594 20.9472 11.9594ZM20.9478 14.7979C23.6918 14.7979 26.0495 15.6983 28.0209 17.4991C29.9925 19.2999 30.9783 21.5308 30.9783 24.1918C30.9783 25.1819 30.6222 26.0086 29.9101 26.672C29.198 27.3353 28.3305 27.667 27.3076 27.667C26.2883 27.667 25.4115 27.3353 24.6771 26.672C23.9425 26.0086 23.5752 25.1819 23.5752 24.1918C23.5752 23.512 23.319 22.9378 22.8066 22.4694C22.2941 22.0009 21.6821 21.7667 20.9708 21.7667C20.2532 21.7667 19.6357 21.9999 19.1184 22.4663C18.6014 22.9326 18.3428 23.5077 18.3428 24.1918C18.3428 26.1678 18.9385 27.8178 20.1299 29.1418C21.3213 30.4659 22.8472 31.3896 24.7078 31.9131C24.8724 31.9662 24.9843 32.0548 25.0436 32.1788C25.1027 32.3028 25.1118 32.4357 25.0709 32.5774C25.03 32.7014 24.9561 32.8098 24.8492 32.9026C24.7422 32.9956 24.6008 33.022 24.4247 32.9818C22.3296 32.4583 20.6114 31.4221 19.2699 29.8732C17.9283 28.3241 17.2575 26.4303 17.2575 24.1918C17.2575 23.2007 17.6216 22.3707 18.3499 21.7017C19.078 21.0328 19.9519 20.6983 20.9717 20.6983C21.9914 20.6983 22.861 21.0328 23.5807 21.7017C24.3006 22.3707 24.6606 23.2007 24.6606 24.1918C24.6606 24.8759 24.9228 25.4511 25.4472 25.9173C25.9716 26.3838 26.5905 26.617 27.3039 26.617C28.017 26.617 28.6268 26.3828 29.1333 25.9143C29.6397 25.4458 29.8929 24.8717 29.8929 24.1918C29.8929 21.8368 29.015 19.8575 27.2591 18.2538C25.503 16.6499 23.4061 15.8479 20.9684 15.8479C18.5306 15.8479 16.437 16.651 14.6874 18.2571C12.9377 19.8632 12.0628 21.8352 12.0628 24.1731C12.0628 24.6603 12.1148 25.2692 12.2186 25.9998C12.3223 26.7301 12.544 27.5785 12.8838 28.5448C12.9372 28.7028 12.934 28.8427 12.8743 28.9643C12.8146 29.0859 12.7109 29.1769 12.563 29.2372C12.4152 29.2976 12.2744 29.2962 12.1407 29.233C12.007 29.1696 11.9134 29.0657 11.8598 28.9214C11.5453 28.1129 11.3197 27.325 11.1829 26.5578C11.046 25.7904 10.9775 25.0017 10.9775 24.1918C10.9775 21.5308 11.9582 19.2999 13.9198 17.4991C15.8814 15.6983 18.224 14.7979 20.9478 14.7979ZM20.9708 9C22.2689 9 23.5367 9.15602 24.774 9.46806C26.0114 9.78011 27.2082 10.228 28.3644 10.8119C28.5404 10.9049 28.6418 11.016 28.6686 11.1452C28.6954 11.2745 28.682 11.4019 28.6285 11.5275C28.5751 11.653 28.4827 11.7482 28.3512 11.8132C28.2199 11.8782 28.0717 11.8682 27.9065 11.783C26.8309 11.2161 25.7096 10.7887 24.5428 10.5008C23.376 10.2127 22.1834 10.0687 20.965 10.0687C19.7673 10.0687 18.5921 10.2123 17.4393 10.4996C16.2864 10.7869 15.1768 11.2147 14.1106 11.783C13.9863 11.8603 13.8521 11.8777 13.7082 11.8353C13.5643 11.7926 13.4593 11.7024 13.3932 11.5647C13.3272 11.4268 13.3088 11.2982 13.338 11.1791C13.3671 11.0597 13.4515 10.9574 13.5914 10.8723C14.7285 10.2607 15.9207 9.79571 17.1679 9.47742C18.4151 9.15914 19.6827 9 20.9708 9ZM20.9714 17.7389C22.8567 17.7389 24.4745 18.3603 25.8247 19.603C27.175 20.8457 27.8501 22.3753 27.8501 24.1918C27.8501 24.3521 27.8003 24.4812 27.7007 24.5793C27.6014 24.6771 27.4703 24.726 27.3076 24.726C27.1675 24.726 27.0421 24.6771 26.9313 24.5793C26.8202 24.4812 26.7647 24.3521 26.7647 24.1918C26.7647 22.6664 26.1916 21.3877 25.0454 20.3555C23.8991 19.3234 22.5409 18.8073 20.9711 18.8073C19.4013 18.8073 18.0494 19.3234 16.9155 20.3555C15.7816 21.3877 15.2146 22.6661 15.2146 24.1909C15.2146 25.8377 15.5048 27.2317 16.085 28.373C16.6655 29.5143 17.5077 30.6657 18.6118 31.8273C18.7345 31.9495 18.7899 32.0815 18.778 32.2232C18.7662 32.3649 18.7108 32.4846 18.6118 32.5822C18.5049 32.6875 18.3794 32.7421 18.2355 32.7459C18.0916 32.7497 17.9621 32.6952 17.8472 32.5822C16.6646 31.3496 15.7494 30.082 15.1015 28.7795C14.4533 27.4771 14.1293 25.9478 14.1293 24.1915C14.1293 22.3752 14.7983 20.8457 16.1362 19.603C17.4744 18.3603 19.0861 17.7389 20.9714 17.7389ZM20.926 23.6576C21.088 23.6576 21.2192 23.7111 21.3198 23.818C21.4206 23.9247 21.471 24.0493 21.471 24.1918C21.471 25.7255 22.0289 26.9831 23.1446 27.9647C24.2605 28.9461 25.5664 29.4369 27.0622 29.4369C27.2241 29.4369 27.4176 29.4268 27.6425 29.4067C27.8674 29.3865 28.0985 29.3563 28.3359 29.3161C28.4886 29.2837 28.6196 29.305 28.7287 29.3801C28.8381 29.4552 28.9133 29.5724 28.9542 29.7319C28.995 29.8738 28.9683 29.9979 28.8738 30.1042C28.7795 30.2107 28.6585 30.2841 28.5107 30.3244C28.2134 30.4017 27.9306 30.4512 27.6624 30.4729C27.3944 30.4947 27.1943 30.5055 27.0622 30.5055C25.2661 30.5055 23.7043 29.907 22.377 28.71C21.0494 27.5132 20.3857 26.0071 20.3857 24.1918C20.3857 24.0493 20.4352 23.9247 20.5344 23.818C20.6334 23.7111 20.7639 23.6576 20.926 23.6576Z" fill="white"/>
</svg>
