<svg xmlns="http://www.w3.org/2000/svg" width="22.382" height="21" viewBox="0 0 22.382 21">
  <path id="person_search_24dp_000000_FILL0_wght300_GRAD0_opsz24_1_" data-name="person_search_24dp_000000_FILL0_wght300_GRAD0_opsz24 (1)" d="M148.738-764.152a3.925,3.925,0,0,1-2.88-1.2,3.928,3.928,0,0,1-1.2-2.881,3.927,3.927,0,0,1,1.2-2.881,3.925,3.925,0,0,1,2.88-1.2,3.925,3.925,0,0,1,2.88,1.2,3.927,3.927,0,0,1,1.2,2.881,3.928,3.928,0,0,1-1.2,2.881A3.925,3.925,0,0,1,148.738-764.152Zm0-1.748a2.243,2.243,0,0,0,1.646-.685,2.245,2.245,0,0,0,.684-1.646,2.245,2.245,0,0,0-.684-1.646,2.244,2.244,0,0,0-1.646-.685,2.244,2.244,0,0,0-1.646.685,2.245,2.245,0,0,0-.684,1.646,2.245,2.245,0,0,0,.684,1.646A2.243,2.243,0,0,0,148.738-765.9Zm12.417,14.59-3.414-3.416a5.442,5.442,0,0,1-1.244.583,4.372,4.372,0,0,1-1.348.211,4.45,4.45,0,0,1-3.273-1.347,4.461,4.461,0,0,1-1.344-3.272,4.447,4.447,0,0,1,1.347-3.27,4.457,4.457,0,0,1,3.271-1.345,4.446,4.446,0,0,1,3.268,1.347,4.456,4.456,0,0,1,1.344,3.27,4.384,4.384,0,0,1-.211,1.351,5.449,5.449,0,0,1-.583,1.244l3.414,3.416Zm-6.009-4.37a2.772,2.772,0,0,0,2.04-.828,2.773,2.773,0,0,0,.828-2.041,2.774,2.774,0,0,0-.828-2.041,2.772,2.772,0,0,0-2.04-.828,2.772,2.772,0,0,0-2.04.828,2.773,2.773,0,0,0-.828,2.041,2.773,2.773,0,0,0,.828,2.041A2.772,2.772,0,0,0,155.145-755.68Zm-15.145.4v-2.573a2.943,2.943,0,0,1,.456-1.595,3.1,3.1,0,0,1,1.251-1.131,18.244,18.244,0,0,1,3.31-1.226,13.834,13.834,0,0,1,4.242-.446,6.434,6.434,0,0,0-.451.849,5.42,5.42,0,0,0-.3.906,12.273,12.273,0,0,0-3.486.508,15.062,15.062,0,0,0-2.491.969,1.4,1.4,0,0,0-.575.492,1.2,1.2,0,0,0-.205.674v.825h6.623a5.863,5.863,0,0,0,.276.9,5.923,5.923,0,0,0,.412.844ZM148.738-768.231ZM148.37-757.025Z" transform="translate(-140 772.31)"/>
</svg>
