<svg width="22" height="22" viewBox="0 0 22 22" fill="none" xmlns="http://www.w3.org/2000/svg">
<path d="M8.58831 8.54932C8.06087 8.55716 7.53751 8.44963 7.05059 8.23345C6.56367 8.01727 6.12352 7.69702 5.75735 7.29243C5.37767 6.90202 5.07711 6.43282 4.87424 5.91382C4.67136 5.39482 4.57046 4.83706 4.57778 4.27489C4.57041 3.71272 4.67126 3.15485 4.87415 2.63584C5.07703 2.11683 5.37762 1.64766 5.75735 1.25729C6.12352 0.852706 6.56367 0.53245 7.05059 0.316269C7.53751 0.100087 8.06087 -0.00743949 8.58831 0.00039978C9.11576 -0.00743949 9.6391 0.100087 10.126 0.316269C10.6129 0.53245 11.0531 0.852706 11.4193 1.25729C11.799 1.64766 12.0996 2.11683 12.3025 2.63584C12.5053 3.15485 12.6062 3.71272 12.5988 4.27489C12.6061 4.83706 12.5053 5.39482 12.3024 5.91382C12.0995 6.43282 11.7989 6.90202 11.4193 7.29243C11.0531 7.69702 10.6129 8.01727 10.126 8.23345C9.6391 8.44963 9.11576 8.55716 8.58831 8.54932ZM8.58831 6.71842C8.88971 6.72303 9.18879 6.66174 9.46707 6.53833C9.74536 6.41493 9.99694 6.23204 10.2063 6.00095C10.4229 5.77773 10.5943 5.50961 10.7099 5.2131C10.8256 4.9166 10.883 4.59799 10.8786 4.27694C10.883 3.95588 10.8256 3.63728 10.7099 3.34077C10.5943 3.04427 10.4229 2.77615 10.2063 2.55292C9.99691 2.32189 9.74531 2.13907 9.46703 2.01567C9.18875 1.89227 8.8897 1.83091 8.58831 1.83546C8.28693 1.83091 7.98786 1.89227 7.70958 2.01567C7.4313 2.13907 7.1797 2.32189 6.97033 2.55292C6.75373 2.77615 6.58233 3.04427 6.46669 3.34077C6.35106 3.63728 6.29365 3.95588 6.29798 4.27694C6.29365 4.59799 6.35106 4.9166 6.46669 5.2131C6.58233 5.50961 6.75373 5.77773 6.97033 6.00095C7.17967 6.23204 7.43127 6.41493 7.70955 6.53833C7.98784 6.66174 8.28692 6.72303 8.58831 6.71842ZM20.7939 22L17.438 18.4221C17.0563 18.6798 16.6454 18.885 16.2152 19.0327C15.7871 19.1798 15.34 19.2544 14.8902 19.2537C14.2918 19.2655 13.6976 19.1464 13.1442 18.9038C12.5908 18.6611 12.0901 18.3 11.6729 17.8429C11.245 17.3978 10.9071 16.8641 10.6799 16.2748C10.4527 15.6854 10.341 15.0528 10.3518 14.4158C10.3409 13.7787 10.4528 13.1461 10.6805 12.557C10.9083 11.9679 11.247 11.4348 11.6758 10.9908C12.0932 10.5346 12.5938 10.1743 13.1467 9.93202C13.6997 9.68975 14.2933 9.57063 14.8911 9.58202C15.4887 9.57065 16.082 9.69 16.6345 9.93266C17.1871 10.1753 17.687 10.5362 18.1035 10.9929C18.5313 11.4376 18.8693 11.9708 19.0965 12.5598C19.3237 13.1488 19.4353 13.7811 19.4246 14.4179C19.4253 14.8982 19.3554 15.3757 19.2172 15.8329C19.0785 16.2913 18.886 16.7291 18.6441 17.1359L22 20.7138L20.7939 22ZM14.8872 17.4229C15.2593 17.4319 15.6292 17.3596 15.9741 17.2104C16.319 17.0613 16.6315 16.8384 16.8925 16.5556C17.158 16.2774 17.3672 15.9442 17.5072 15.5766C17.6471 15.2089 17.7149 14.8145 17.7064 14.4179C17.7149 14.0212 17.647 13.6269 17.5071 13.2592C17.3671 12.8916 17.1579 12.5583 16.8925 12.2801C16.6315 11.9973 16.319 11.7744 15.9741 11.6253C15.6292 11.4761 15.2593 11.4038 14.8872 11.4129C14.5151 11.4038 14.1452 11.4761 13.8003 11.6253C13.4554 11.7744 13.1429 11.9973 12.8819 12.2801C12.6164 12.5583 12.4072 12.8916 12.2672 13.2592C12.1273 13.6269 12.0595 14.0212 12.068 14.4179C12.0595 14.8145 12.1273 15.2089 12.2672 15.5766C12.4072 15.9442 12.6164 16.2774 12.8819 16.5556C13.1428 16.8383 13.4551 17.0611 13.7998 17.2102C14.1445 17.3594 14.5152 17.4318 14.8872 17.4229ZM7.59527e-05 17.8418V15.1468C-0.00394345 14.5557 0.151644 13.9758 0.448306 13.4763C0.74759 12.9679 1.17323 12.5579 1.678 12.2917C2.72104 11.7526 3.8107 11.3225 4.93165 11.0076C6.29055 10.6231 7.69718 10.4655 9.10141 10.5404C8.93303 10.8246 8.78486 11.1219 8.6581 11.4297C8.53381 11.7361 8.43513 12.0537 8.36321 12.3786C7.20292 12.3795 6.04881 12.5587 4.93656 12.9107C4.09375 13.171 3.27433 13.5107 2.48797 13.9256C2.25875 14.0388 2.0632 14.2171 1.92277 14.4409C1.79082 14.6495 1.72063 14.8953 1.72125 15.1468V16.011H8.23149C8.29806 16.3324 8.38879 16.6477 8.50279 16.9536C8.61561 17.2593 8.75103 17.5549 8.90778 17.8376L7.59527e-05 17.8418Z" fill="black"/>
</svg>
