<svg xmlns="http://www.w3.org/2000/svg" width="65" height="65" viewBox="0 0 65 65">
  <g id="Group_12535" data-name="Group 12535" transform="translate(0 12779)">
    <circle id="Ellipse_1194" data-name="Ellipse 1194" cx="32.5" cy="32.5" r="32.5" transform="translate(0 -12779)" fill="#e9e7fc"/>
    <g id="call_24dp_000000_FILL1_wght300_GRAD0_opsz24" transform="translate(20 -12759)">
      <path id="call_24dp_000000_FILL1_wght300_GRAD0_opsz24-2" data-name="call_24dp_000000_FILL1_wght300_GRAD0_opsz24" d="M163.442-795a19.824,19.824,0,0,1-8.353-1.933,26.687,26.687,0,0,1-7.716-5.454,26.844,26.844,0,0,1-5.44-7.71A19.776,19.776,0,0,1,140-818.442a1.521,1.521,0,0,1,.441-1.11,1.484,1.484,0,0,1,1.1-.448h4.8a1.468,1.468,0,0,1,.983.364,1.6,1.6,0,0,1,.542.9l.843,4.327a2.476,2.476,0,0,1-.037,1.035,1.54,1.54,0,0,1-.447.727l-3.4,3.306A20.387,20.387,0,0,0,146.7-806.5a27.98,27.98,0,0,0,2.281,2.558,25.344,25.344,0,0,0,2.574,2.249,25.86,25.86,0,0,0,2.944,1.932l3.3-3.329a1.871,1.871,0,0,1,.836-.5,2.4,2.4,0,0,1,1.019-.071l4.083.832a1.728,1.728,0,0,1,.909.568,1.45,1.45,0,0,1,.352.956v4.768a1.484,1.484,0,0,1-.448,1.1A1.521,1.521,0,0,1,163.442-795Z" transform="translate(-140 820)" fill="#251a88"/>
    </g>
  </g>
</svg>
