<svg xmlns="http://www.w3.org/2000/svg" width="127.301" height="165.711" viewBox="0 0 127.301 165.711">
  <g id="Symbols" transform="translate(-527.871 -111.645)">
    <g id="Scene_Plants" data-name="Scene/Plants" transform="translate(527.871 111.645)">
      <path id="Leaf-Bottom" d="M67.248,91.2c1.842.8,4.182-.362,3.06-2.663-1.2-2.465-5.158-2.289-7.389-2.122.224,0,1.065,2.274,1.33,2.61A7.581,7.581,0,0,0,67.248,91.2ZM44.189,47.091C43.716,46.727,44.151,47.056,44.189,47.091ZM68.38,79.709a2.134,2.134,0,0,0,.076-3.194c-1.082-1.089-2.946-.95-4.334-.765-.628.083-3.979.529-3.152,1.038a2.73,2.73,0,0,1-.335-.139q-.132-.4-.274-.794c.019-.013.035-.026.056-.039-.022.011-.038.023-.058.034a30.918,30.918,0,0,0-3.868-7.419,7.275,7.275,0,0,0,1.766.374c1.767.13,5.389-1.428,3.3-3.662-2-2.142-4.806.416-6.925.859a100.105,100.105,0,0,0-7.191-7.991.571.571,0,0,0,.334-.309A14.063,14.063,0,0,0,50.7,58.926c1.3.2,3.937.232,4.847-.968,1.119-1.475-.22-2.555-1.643-2.752-2.064-.286-4.687.853-6.618,1.631a.65.65,0,0,0-.606.238l-.127.049c-2.565-2.54-5.218-4.986-7.854-7.377h.081a6.808,6.808,0,0,0,2.163.853c1.778.336,3.845.23,5.2-1.115s1.74-3.578.2-4.922c-3.088-2.69-7.079,4.021-8.548,4.369-2.676-2.4-5.49-4.632-8.343-6.81a4.862,4.862,0,0,0,.967.145c2.692.116,8.807-3.5,5.351-6.556-3.012-2.665-6.044,2.928-8.253,4.944-2.688-2.029-5.388-4.043-8.021-6.144a7.328,7.328,0,0,0,4.167-.245c1.5-.54,3.893-1.818,2.823-3.822C25.4,28.4,22.5,29.51,21,30.254a41.677,41.677,0,0,1-3.882,2.307A50.576,50.576,0,0,1,6.32,20.21a44.263,44.263,0,0,1-4.278-9.524C1.369,8.563.076,5.007.15,2.195c-.76,5.661,1.5,12.294,3.812,17.2a42.176,42.176,0,0,0,8.661,11.873c-.7,2.54-7.5,6.506-3.2,8.606,2.282,1.11,4.446-1.044,4.818-3.224a9.136,9.136,0,0,0-.963-4.741q1.648,1.583,3.405,3.053c1.615,1.355,3.265,2.666,4.93,3.958-2.494,2.6-4.608,9.778-1.03,10.746,5.283,1.425,2.279-8.055,1.822-9.838a.283.283,0,0,0-.237.1c.021-.166.045-.345.077-.525,3.185,2.46,6.412,4.867,9.543,7.393a13.737,13.737,0,0,0-.963,1.419,15.385,15.385,0,0,0-1.864,3.041c-.751,1.732-1.419,4.467.858,5.343,2.476.955,3.466-2.15,3.388-3.968a24.128,24.128,0,0,0-.7-3.655c-.076-.381.048-2.124-.436-1.351a3.678,3.678,0,0,0-.016-.615q.843.684,1.676,1.382a.654.654,0,0,0-.036.211.629.629,0,0,0,.93.544q1.1.941,2.176,1.913c1.516,1.377,3.055,2.794,4.586,4.244-.3.287-.156.655-.435.957s-.849.491-1.181.775a8.365,8.365,0,0,0-1.975,2.715c-.777,1.631-1.715,5.017.838,5.641,2.632.645,3.779-2.627,3.841-4.638a51.147,51.147,0,0,0-.75-5.128c2.833,2.695,5.627,5.5,8.176,8.365-.725.045-2.7,1.638-3.1,2.066-.962,1.042-2.46,3.312-.621,4.375,1.635.943,3.506-.645,4.106-2.124a20.277,20.277,0,0,0,.353-3.471c1.056,1.217,2.068,2.444,3.013,3.679q.946,1.231,1.783,2.532a1.185,1.185,0,0,0-.331.362c-2.613.586-5.76,4.876-2.587,6.145,1.51.6,3.036-.885,3.7-2.074a15.338,15.338,0,0,0,.46-2.382,49.43,49.43,0,0,1,3.945,9.116.576.576,0,0,0-.422.558,7.865,7.865,0,0,0-3.041,2.908c-.51.9-1.4,2.945.252,3.343,2.156.518,3.32-2.794,3.409-4.4.011-.186-.018-.726-.051-1.219a.716.716,0,0,0,.221-.016c.592,1.962,1.086,3.955,1.5,5.955-1.139.434-1.021,6.529-.2,7.355,1.826,1.85,2.9-1.017,2.726-2.493a9.791,9.791,0,0,0-2.091-4.649c-.109-.144-.08-.138-.1.071a.418.418,0,0,0-.112-.228,26.482,26.482,0,0,0-.042-2.679,62.031,62.031,0,0,0-1.161-6.931q-.188-.831-.416-1.647a13.514,13.514,0,0,0,2.768,1.578C65.167,80.229,67.164,80.744,68.38,79.709ZM0,2.195A6.559,6.559,0,0,1,.366,0,17.079,17.079,0,0,0,0,2.195Z" transform="matrix(-0.999, -0.052, 0.052, -0.999, 70.504, 100.866)" fill="#f2f2f2" fill-rule="evenodd"/>
      <g id="Plant-Right" transform="translate(33.242 19.164)" opacity="0.7">
        <path id="Leaf-Me-Alone_" data-name="Leaf-Me-Alone!" d="M24.474,86.681c-4.994-.264-10.832-3.809-10.794-9.264.027-3.963.558-7.862.374-11.842a31.889,31.889,0,0,0-1.913-9.287c-1.033-2.881-3.528-5.5-3.933-8.507A12.635,12.635,0,0,1,9.3,41.508c1-2.14.572-2.007-.751-4.029A50.833,50.833,0,0,1,2.234,24.933C.166,18.367-.852,10.84.883,4.073,1.1,3.213,1.586.1,2.811,0c1.368-.1.552,1.622.42,2.193A38.042,38.042,0,0,0,1.8,12.834C2.4,27.526,11.78,38.15,17.248,51.14c.3.672.931,2.263,1.372,3.315.7,1.661,1.247,4.741,2.291,6.028,1.965,2.425.41-2.2.071-3.085-.429-1.122-.9-2.317-1.361-3.308-2.081-4.593-4.415-9.613-6.565-14.347C24.653,38.352,31.2,52.807,33.3,62.079c1.729,7.639,2.913,25.2-8.823,24.6" transform="matrix(-0.995, 0.105, -0.105, -0.995, 43.26, 125.856)" fill="#69a1ac" fill-rule="evenodd"/>
        <path id="Leaf-Me-Alone_2" data-name="Leaf-Me-Alone!" d="M146.241,78.044c-8.349.662-13.708,6.171-16.2,13.877-1.345,4.152-1.5,8.418-2.246,12.685a27.1,27.1,0,0,1-8.27,15.86,15.961,15.961,0,0,0-3.31,4.427,18.857,18.857,0,0,0-3.821,5.461,10.086,10.086,0,0,0-.16,8.775,9,9,0,0,0,2.348,2.884,56.515,56.515,0,0,0-5.561,25.384c.14,5.256.4,10.514.7,15.763.081,1.41.54,3.737,1.229,1.373.631-2.162-.16-5.556-.233-7.815-.356-11-.661-21.009,3.869-31.289q.712-1.616,1.5-3.207a1.069,1.069,0,0,0,.088-.06c.02.015.038.032.058.047.034-.06.079-.131.133-.21a2.836,2.836,0,0,0,.407-.57,4.136,4.136,0,0,0,.859-1.569s0-.007,0-.01a148.138,148.138,0,0,1,9.3-13.143c-.025.031,3.558-4.848,3-2.15-.267,1.3-2.9,3.776-3.967,5.153a128.39,128.39,0,0,0-7.417,10.7,5.4,5.4,0,0,0-1.062,1.7c-.174.329-.337.661-.5.95,8.142,2.69,14.475-2.728,18.794-9.031l.015-.022a27.385,27.385,0,0,1,4.342-4.847c2.806-2.3,5.811-2.7,9.119-3.833,9.022-3.083,12.858-14.775,14.076-23.451,1.375-9.788-5.349-24.8-17.087-23.832" transform="translate(-69.446 -49.609)" fill="#89c5cc" fill-rule="evenodd"/>
        <path id="Leaf-Me-Alone_3" data-name="Leaf-Me-Alone!" d="M35.881.835c-9.726,7.639-15.547,19.311-20.412,30.37C10.036,43.557,5.806,56.28,3.835,69.639,2.54,78.416,1.059,87.223.338,96.07a94.3,94.3,0,0,0-.323,9.46c.005.259.143,7.3,1.426,5.843.73-.828-.129-7.3-.115-8.356a135.38,135.38,0,0,1,1.6-17.738C4.35,75.6,5.419,65.916,7.758,56.4a32.991,32.991,0,0,1,1.218-4.281c.574-1.448.019-.859,1.287-1.286,1.232-.415,2.642-.133,3.938-.689,5.139-2.206,8.6-9.241,11.164-13.816A93.634,93.634,0,0,0,32.3,19.7,122.933,122.933,0,0,0,35.742,7.065,33.837,33.837,0,0,1,36.7,2.98,9.447,9.447,0,0,0,37.3,1.715c.068-.683-.286-1.14-.24-1.715q-.6.4-1.183.835" transform="translate(24.656 5.193) rotate(-8)" fill="#89c5cc" fill-rule="evenodd"/>
        <path id="Base" d="M38,328a26.7,26.7,0,1,0,53.408,0" transform="translate(-24.418 -208.157)" fill="#89c5cc" fill-rule="evenodd"/>
        <path id="Leaf-Me-Alone_4" data-name="Leaf-Me-Alone!" d="M114.411,287.5H113a47.33,47.33,0,0,1,.523-5.288c1.132-6.7,4.671-16.529,12.434-17.616a20.013,20.013,0,0,1,2.616.028,4.717,4.717,0,0,1,2-.589c6.609-.487,13.99,4.845,17.178,10.393,2.57,4.474,2.137,10.348.55,15.1-1.063,3.182-3.383,7.719-7.252,7.763-4.84.055-5.074-5.927-5.167-9.424-.124-4.65-.712-8.7-4.376-11.869-.854-.738-1.787-1.388-2.65-2.116-1.351-1.14-2.843-2.306-3.017-4.192-.24-2.6,1.228-3.069,3.47-2.586.382.082,4.232,1.81,3.662.444a2.538,2.538,0,0,0-1.612-1,30.187,30.187,0,0,0-5.263-.331c-7.68,1.685-10.671,12.324-11.465,19.083C114.541,286.031,114.471,286.763,114.411,287.5Z" transform="translate(-71.983 -167.569)" fill="#69a1ac" fill-rule="evenodd"/>
      </g>
    </g>
  </g>
</svg>
