<svg xmlns="http://www.w3.org/2000/svg" width="109.234" height="228.099" viewBox="0 0 109.234 228.099">
  <g id="Symbols" transform="translate(0 0.596)">
    <g id="Scene_Plants" data-name="Scene/Plants" transform="translate(0 -0.596)">
      <path id="Leaf-Top" d="M52.348,4.586c1.409-.609,3.2.277,2.339,2.036-.919,1.884-3.944,1.75-5.649,1.622.171,0,.814-1.738,1.017-2A5.8,5.8,0,0,1,52.348,4.586ZM34.7,38.871C34.195,39.26,34.66,38.908,34.7,38.871ZM53.475,13.617a1.641,1.641,0,0,1,.059,2.472c-.846.843-2.3.735-3.387.592-.49-.065-3.109-.41-2.463-.8a2.147,2.147,0,0,0-.262.107q-.1.309-.214.614c.015.01.028.02.044.03-.017-.009-.03-.018-.045-.026a23.847,23.847,0,0,1-3.023,5.742,5.733,5.733,0,0,1,1.38-.289c1.381-.1,4.211,1.1,2.581,2.834-1.563,1.658-3.756-.322-5.412-.665a77.735,77.735,0,0,1-5.619,6.184.445.445,0,0,1,.261.239A11.05,11.05,0,0,1,39.66,29.7c1.014-.158,3.077-.179,3.788.749.874,1.141-.172,1.977-1.284,2.13-1.613.221-3.663-.66-5.172-1.262a.51.51,0,0,1-.474-.184l-.1-.038c-2,1.965-4.078,3.859-6.137,5.709h.064a5.351,5.351,0,0,1,1.69-.66,4.546,4.546,0,0,1,4.066.863,2.566,2.566,0,0,1,.154,3.809c-2.414,2.081-5.532-3.112-6.68-3.381-2.092,1.86-4.29,3.584-6.52,5.27a3.834,3.834,0,0,1,.756-.112c2.1-.09,6.883,2.707,4.182,5.074-2.354,2.063-4.723-2.266-6.45-3.826-2.1,1.57-4.211,3.129-6.268,4.755a5.78,5.78,0,0,1,3.257.19c1.17.418,3.042,1.407,2.206,2.958-.85,1.577-3.116.722-4.289.146a32.639,32.639,0,0,0-3.034-1.785,39.26,39.26,0,0,0-8.439,9.558,34.092,34.092,0,0,0-3.343,7.371C1.107,68.677.1,71.43.154,73.606-.44,69.225,1.325,64.091,3.133,60.3A32.657,32.657,0,0,1,9.9,51.108c-.546-1.965-5.858-5.035-2.5-6.66,1.783-.859,3.475.808,3.765,2.495a7.012,7.012,0,0,1-.753,3.669q1.288-1.225,2.661-2.363c1.262-1.048,2.552-2.063,3.852-3.063-1.949-2.014-3.6-7.568-.8-8.317,4.129-1.1,1.781,6.234,1.424,7.613a.222.222,0,0,1-.185-.081c.016.129.035.267.06.406,2.489-1.9,5.011-3.767,7.457-5.722a10.628,10.628,0,0,1-.752-1.1,11.888,11.888,0,0,1-1.457-2.353c-.587-1.34-1.109-3.457.67-4.135,1.935-.739,2.709,1.664,2.647,3.071A18.512,18.512,0,0,1,25.44,37.4c-.059.295.037,1.643-.341,1.046a2.819,2.819,0,0,1-.013.476q.659-.529,1.31-1.07a.5.5,0,0,1-.028-.163.491.491,0,0,1,.727-.421q.86-.728,1.7-1.481c1.185-1.066,2.387-2.162,3.584-3.284-.235-.222-.122-.507-.34-.741s-.664-.38-.923-.6a6.477,6.477,0,0,1-1.543-2.1c-.608-1.262-1.34-3.883.655-4.366,2.057-.5,2.954,2.033,3,3.59a39.228,39.228,0,0,1-.586,3.968c2.214-2.085,4.4-4.255,6.389-6.474a7.276,7.276,0,0,1-2.421-1.6c-.752-.806-1.923-2.563-.486-3.386,1.278-.73,2.74.5,3.209,1.644a15.546,15.546,0,0,1,.276,2.686c.826-.942,1.616-1.892,2.355-2.847q.739-.953,1.393-1.959a.921.921,0,0,1-.259-.28c-2.042-.453-4.5-3.774-2.022-4.756,1.18-.467,2.372.685,2.89,1.6a11.766,11.766,0,0,1,.359,1.844,38.062,38.062,0,0,0,3.083-7.055.447.447,0,0,1-.329-.431A6.121,6.121,0,0,1,44.7,8.993c-.4-.7-1.1-2.279.2-2.587,1.685-.4,2.594,2.162,2.664,3.405.008.144-.014.562-.04.944a.565.565,0,0,1,.173.012c.462-1.518.849-3.06,1.173-4.608-.89-.336-.8-5.053-.159-5.692,1.427-1.432,2.263.787,2.13,1.929a7.543,7.543,0,0,1-1.634,3.6c-.085.111-.062.107-.074-.055a.322.322,0,0,1-.088.177,20.3,20.3,0,0,1-.033,2.073,47.58,47.58,0,0,1-.908,5.364q-.147.643-.325,1.274a10.591,10.591,0,0,1,2.163-1.222C50.964,13.214,52.525,12.817,53.475,13.617ZM0,73.426a3.31,3.31,0,0,0,.392,1.566A8.548,8.548,0,0,1,0,73.426Z" transform="translate(29.787 2.874) rotate(-3)" fill="#c1dee2" fill-rule="evenodd" opacity="0.2"/>
      <g id="Plant-Left" transform="translate(0 20.201)" opacity="0.5">
        <path id="Leaf" d="M138.536,97.179c1.645-2.346,4.7-8.3,7.014-9.142,1.492-.54,1.057,5.045,1.075,6.11a89.276,89.276,0,0,1-.825,12.3c-.892,7.368-3.811,13.931-7.813,20.2-2.06,3.227-4.475,6.493-7.821,8.507-1.54.927-3.393,1.083-4.914,1.881-1.771.93-.807.178-1.605,2.024-1.109,2.563-1.463,5.869-1.976,8.6-2.355,12.553-8.057,78.912-7.069,91.681.088,1.132-1.49,1.4-1.569.021-.419-7.326,3.2-58.058,5.033-74.649s3.678-31.248,5.533-36.988c2.25-6.964,6.314-15.338,9.7-21.832A77.219,77.219,0,0,1,138.536,97.179Z" transform="translate(-68.758 -53.546)" fill="#69a1ac" fill-rule="evenodd"/>
        <path id="Leaf-2" data-name="Leaf" d="M148.314,317.892c4.281-3.143,8.915,2.789,5.041,5.933a3.88,3.88,0,0,1-5.641-.329c-.818,1-1.584,2.04-2.32,2.921-2.242,2.684-4.361,5.433-6.387,8.245-4.207,5.843-7.813,12.015-11.583,18.075-3.72,5.981-7.411,11.992-10.783,18.124-2.857,5.2-6.664,11.308-7.642,17,1.484-12.08,7.115-23.691,13.82-34.34,6.651-10.562,14.283-22.1,24.581-30.432A3.647,3.647,0,0,1,148.314,317.892Z" transform="translate(-66.324 -192.888)" fill="#c1dee2" fill-rule="evenodd"/>
        <path id="Leaf-3" data-name="Leaf" d="M.749,244.012c2.4.469,6.311,5.888,8.285,7.953a77.341,77.341,0,0,1,6.483,7.81,132.088,132.088,0,0,1,11.471,18.71A173.909,173.909,0,0,1,39.752,311.7a137.021,137.021,0,0,1,3.873,21.787c.138,1.379,1.584,12.015-.5,12.3-1.874.258-1.3-8.076-1.386-9.209A147.229,147.229,0,0,0,33.4,299.293c-.928-2.626-1.79-5.842-3.273-8.205-1.068-1.7-.008-1.109-1.885-1.753-1.612-.553-3.449-.418-5.1-1.1-3.587-1.471-6.458-4.326-8.976-7.2-4.892-5.582-8.769-11.62-10.79-18.772A90.383,90.383,0,0,1,.649,250.226C.5,249.169-.794,243.71.749,244.012Z" transform="translate(0 -148.469)" fill="#69a1ac" fill-rule="evenodd"/>
        <path id="Leaf-4" data-name="Leaf" d="M17.505,5.37A217.109,217.109,0,0,1,38.734,55.626c2.9,10.55,4.93,21.376,6.946,32.124,3.121,16.642,6.074,33.282,6.914,50.22.845,17.036,2.516,36.684-3.063,53.092,2.786-16.659.134-34.39-.336-51.152-.224-8-.875-15.926-1.728-23.881-.828-7.717-2.181-15.4-3.44-23.053q-.92-5.593-1.914-11.173c-.2-1.11-.279-4.4-.983-5.163s-4.325-1.075-5.461-1.635a29.316,29.316,0,0,1-6.34-4.424A50.645,50.645,0,0,1,20,58.913c-5.8-9.674-8.114-21.48-8-32.684C12.027,24.054,15.525.63,14.12.308q.127-.149.24-.308Q15.956,2.671,17.505,5.37Z" transform="translate(-7.302)" fill="#89c5cc" fill-rule="evenodd"/>
        <path id="Leaf-5" data-name="Leaf" d="M174.541,155.522c.139-.2,1.046-1.6.589-1.508.929-.182-1.278,1.541,1.037.484-1.1,1.038-.465,2.387-.45,3.784a33.888,33.888,0,0,1-.783,6.738,46.208,46.208,0,0,1-3.141,10.185,45.637,45.637,0,0,1-15,18.406c-3.167,2.2-6.27,2.943-9.881,3.954-2.281.639-2.462,1.819-3.673,4.032-2.521,4.611-5,9.2-7.22,13.97-2.655,5.691-5.232,11.389-7.663,17.18C120.168,252.255,113.5,272.466,110,293.382c-.086-12.326,2.766-25.02,6.362-36.768a219.446,219.446,0,0,1,9.669-24.979c.882-1.979,2.217-4.524,2.592-6.709.262-1.531-.539-3-.906-4.615a48.293,48.293,0,0,1-.072-19.626c1.385-6.961,5.39-10.192,12.166-11.177,2.478-.361,5.628-.228,7.9-1.285,2.476-1.151,3.5-4.932,4.9-7.36a100.1,100.1,0,0,1,13.432-18.27,43.571,43.571,0,0,1,4.594-4.226C171.67,157.545,173.84,156.533,174.541,155.522Z" transform="translate(-66.933 -93.706)" fill="#89c5cc" fill-rule="evenodd"/>
        <path id="Base" d="M77.749,476h24.046a1.958,1.958,0,0,1,1.937,2.243l-1.859,12.6a7.83,7.83,0,0,1-7.747,6.688H85.417a7.83,7.83,0,0,1-7.747-6.688l-1.859-12.6A1.958,1.958,0,0,1,77.749,476Z" transform="translate(-46.117 -289.636)" fill="#c1dee2" fill-rule="evenodd"/>
      </g>
    </g>
  </g>
</svg>
