<svg xmlns="http://www.w3.org/2000/svg" xmlns:xlink="http://www.w3.org/1999/xlink" width="91" height="91" viewBox="0 0 91 91">
  <defs>
    <filter id="rewarded_ads_24dp_000000_FILL1_wght300_GRAD0_opsz24" x="0" y="0" width="91" height="91" filterUnits="userSpaceOnUse">
      <feOffset input="SourceAlpha"/>
      <feGaussianBlur stdDeviation="3" result="blur"/>
      <feFlood flood-opacity="0.259"/>
      <feComposite operator="in" in2="blur"/>
      <feComposite in="SourceGraphic"/>
    </filter>
  </defs>
  <g transform="matrix(1, 0, 0, 1, 0, 0)" filter="url(#rewarded_ads_24dp_000000_FILL1_wght300_GRAD0_opsz24)">
    <path id="rewarded_ads_24dp_000000_FILL1_wght300_GRAD0_opsz24-2" data-name="rewarded_ads_24dp_000000_FILL1_wght300_GRAD0_opsz24" d="M176.5-787.794a8.27,8.27,0,0,1-6.065-2.523,8.27,8.27,0,0,1-2.523-6.065,8.27,8.27,0,0,1,2.523-6.066,8.27,8.27,0,0,1,6.065-2.523,8.27,8.27,0,0,1,6.065,2.523,8.27,8.27,0,0,1,2.523,6.066,8.27,8.27,0,0,1-2.523,6.065A8.27,8.27,0,0,1,176.5-787.794ZM195-747v-6.441H179.721v-14.716a21.421,21.421,0,0,0,9.662-4.6,19.133,19.133,0,0,0,5.962-8.729,19.963,19.963,0,0,0,12.543-6.309A18.148,18.148,0,0,0,213-800.677v-4.294a6.2,6.2,0,0,0-1.9-4.538,6.2,6.2,0,0,0-4.538-1.9h-9.992V-820H156.434v8.588h-9.992a6.2,6.2,0,0,0-4.538,1.9,6.2,6.2,0,0,0-1.9,4.538v4.294a18.148,18.148,0,0,0,5.112,12.882,19.963,19.963,0,0,0,12.543,6.309,19.133,19.133,0,0,0,5.962,8.729,21.421,21.421,0,0,0,9.662,4.6v14.716H158V-747Zm1.568-41.4v-16.566h9.992v4.294a12,12,0,0,1-2.816,7.891,12.694,12.694,0,0,1-7.177,4.381Zm-40.133,0a12.694,12.694,0,0,1-7.177-4.381,12,12,0,0,1-2.816-7.891v-4.294h9.992V-788.4Z" transform="translate(-131 829)"/>
  </g>
</svg>
