<svg width="70" height="71" viewBox="0 0 70 71" fill="none" xmlns="http://www.w3.org/2000/svg">
<g id="Group" filter="url(#filter0_d_12_2714)">
<path id="rewarded_ads_24dp_000000_FILL1_wght300_GRAD0_opsz24" d="M34.9982 32.4046C34.1007 32.4173 33.21 32.2461 32.3813 31.9013C31.5525 31.5566 30.8031 31.0457 30.1794 30.4001C29.5339 29.7765 29.023 29.0272 28.6782 28.1985C28.3334 27.3697 28.1621 26.4791 28.1749 25.5817C28.162 24.6841 28.3333 23.7934 28.678 22.9645C29.0228 22.1356 29.5338 21.3862 30.1794 20.7624C30.8031 20.1169 31.5525 19.606 32.3813 19.2613C33.21 18.9165 34.1007 18.7452 34.9982 18.758C35.8957 18.7452 36.7864 18.9165 37.6151 19.2613C38.4439 19.606 39.1933 20.1169 39.817 20.7624C40.4626 21.3862 40.9736 22.1356 41.3184 22.9645C41.6631 23.7934 41.8344 24.6841 41.8215 25.5817C41.8343 26.4791 41.663 27.3697 41.3182 28.1985C40.9734 29.0272 40.4625 29.7765 39.817 30.4001C39.1933 31.0457 38.4439 31.5566 37.6151 31.9013C36.7864 32.2461 35.8957 32.4173 34.9982 32.4046ZM49.6968 64.8142V59.6971H37.5573V48.0056C40.3842 47.4565 43.0255 46.199 45.234 44.351C47.4329 42.5301 49.0746 40.1267 49.9709 37.4161C53.7902 37.0071 57.3312 35.2261 59.9366 32.4038C62.5911 29.664 64.0516 25.9838 63.9982 22.1694V18.758C64.0059 18.0858 63.8759 17.4192 63.6163 16.7992C63.3567 16.1792 62.9729 15.6188 62.4886 15.1527C62.0224 14.6684 61.462 14.2846 60.8419 14.025C60.2219 13.7654 59.5552 13.6355 58.883 13.6432H50.9442V6.81787H19.0554V13.6408H11.1165C10.4444 13.6331 9.77771 13.763 9.15764 14.0226C8.53756 14.2822 7.97719 14.666 7.51101 15.1503C7.02669 15.6164 6.6429 16.1768 6.38328 16.7968C6.12366 17.4168 5.99371 18.0834 6.00142 18.7556V22.1671C5.94796 25.9815 7.40845 29.6616 10.063 32.4014C12.6683 35.2237 16.2094 37.0047 20.0287 37.4137C20.925 40.1243 22.5667 42.5277 24.7656 44.3487C26.9741 46.1966 29.6154 47.4541 32.4422 48.0033V59.6947H20.2996V64.8142H49.6968ZM50.9426 31.9231V18.7619H58.8815V22.1734C58.9131 24.4641 58.1189 26.6895 56.6441 28.4426C55.194 30.2168 53.1836 31.4444 50.9426 31.9231ZM19.0562 31.9231C16.8152 31.4444 14.804 30.2168 13.3539 28.4426C11.8791 26.6895 11.0848 24.4641 11.1165 22.1734V18.7619H19.0554L19.0562 31.9231Z" fill="black"/>
</g>
<defs>
<filter id="filter0_d_12_2714" x="0" y="0.817871" width="69.9995" height="69.9966" filterUnits="userSpaceOnUse" color-interpolation-filters="sRGB">
<feFlood flood-opacity="0" result="BackgroundImageFix"/>
<feColorMatrix in="SourceAlpha" type="matrix" values="0 0 0 0 0 0 0 0 0 0 0 0 0 0 0 0 0 0 127 0" result="hardAlpha"/>
<feOffset/>
<feGaussianBlur stdDeviation="3"/>
<feColorMatrix type="matrix" values="0 0 0 0 0 0 0 0 0 0 0 0 0 0 0 0 0 0 0.259 0"/>
<feBlend mode="normal" in2="BackgroundImageFix" result="effect1_dropShadow_12_2714"/>
<feBlend mode="normal" in="SourceGraphic" in2="effect1_dropShadow_12_2714" result="shape"/>
</filter>
</defs>
</svg>
