<svg xmlns="http://www.w3.org/2000/svg" width="50" height="50" viewBox="0 0 50 50">
  <path id="ad_group_24dp_000000_FILL0_wght200_GRAD0_opsz24" d="M153.575-801.765h31.674a1.73,1.73,0,0,0,1.245-.565,1.73,1.73,0,0,0,.565-1.245v-27.6H151.765v27.6a1.73,1.73,0,0,0,.565,1.245A1.73,1.73,0,0,0,153.575-801.765Zm0,2.941a4.6,4.6,0,0,1-3.391-1.36,4.6,4.6,0,0,1-1.36-3.391v-31.673a4.6,4.6,0,0,1,1.36-3.391,4.6,4.6,0,0,1,3.391-1.36h31.674a4.6,4.6,0,0,1,3.391,1.36,4.6,4.6,0,0,1,1.36,3.391v31.673a4.6,4.6,0,0,1-1.36,3.391,4.6,4.6,0,0,1-3.391,1.36ZM144.751-790a4.6,4.6,0,0,1-3.391-1.36,4.6,4.6,0,0,1-1.36-3.39v-34.615h2.941v34.615a1.729,1.729,0,0,0,.565,1.244,1.73,1.73,0,0,0,1.245.565h34.615V-790Zm7.013-47.059v0Z" transform="translate(-140 840)"/>
</svg>
