<svg xmlns="http://www.w3.org/2000/svg" width="50" height="63.942" viewBox="0 0 50 63.942">
  <path id="compare_24dp_000000_FILL0_wght200_GRAD0_opsz24" d="M181.875-825.288v-6.971H165.048a4.89,4.89,0,0,1-3.6-1.445,4.89,4.89,0,0,1-1.445-3.6v-39.9a4.89,4.89,0,0,1,1.445-3.6,4.89,4.89,0,0,1,3.6-1.445h16.827v-6.971H185v63.942Zm-18.75-13.221h18.75v-22.476Zm28.125,6.25v-25l15.625,18.75v-38.7a1.838,1.838,0,0,0-.6-1.323,1.838,1.838,0,0,0-1.323-.6h-13.7v-3.125h13.7a4.89,4.89,0,0,1,3.6,1.445,4.89,4.89,0,0,1,1.445,3.6v39.9a4.89,4.89,0,0,1-1.445,3.6,4.89,4.89,0,0,1-3.6,1.445Z" transform="translate(-160 889.23)"/>
</svg>
