<svg xmlns="http://www.w3.org/2000/svg" xmlns:xlink="http://www.w3.org/1999/xlink" width="218" height="218" viewBox="0 0 218 218">
  <defs>
    <filter id="rewarded_ads_24dp_000000_FILL1_wght300_GRAD0_opsz24" x="0" y="0" width="118" height="118" filterUnits="userSpaceOnUse">
      <feOffset input="SourceAlpha"/>
      <feGaussianBlur stdDeviation="3" result="blur"/>
      <feFlood flood-opacity="0.259"/>
      <feComposite operator="in" in2="blur"/>
      <feComposite in="SourceGraphic"/>
    </filter>
    <filter id="ads_click_24dp_000000_FILL1_wght300_GRAD0_opsz24" x="100" y="100" width="118" height="118" filterUnits="userSpaceOnUse">
      <feOffset input="SourceAlpha"/>
      <feGaussianBlur stdDeviation="3" result="blur-2"/>
      <feFlood flood-opacity="0.259"/>
      <feComposite operator="in" in2="blur-2"/>
      <feComposite in="SourceGraphic"/>
    </filter>
  </defs>
  <g id="Group_12395" data-name="Group 12395" transform="translate(9 9)">
    <g transform="matrix(1, 0, 0, 1, -9, -9)" filter="url(#rewarded_ads_24dp_000000_FILL1_wght300_GRAD0_opsz24)">
      <path id="rewarded_ads_24dp_000000_FILL1_wght300_GRAD0_opsz24-2" data-name="rewarded_ads_24dp_000000_FILL1_wght300_GRAD0_opsz24" d="M190-775.882a11.329,11.329,0,0,1-8.309-3.456,11.329,11.329,0,0,1-3.456-8.309,11.329,11.329,0,0,1,3.456-8.309A11.329,11.329,0,0,1,190-799.412a11.329,11.329,0,0,1,8.309,3.456,11.329,11.329,0,0,1,3.456,8.309,11.329,11.329,0,0,1-3.456,8.309A11.329,11.329,0,0,1,190-775.882ZM215.34-720v-8.824H194.412v-20.159a29.344,29.344,0,0,0,13.235-6.3,26.208,26.208,0,0,0,8.168-11.957A27.345,27.345,0,0,0,233-775.882a24.86,24.86,0,0,0,7-17.647v-5.882a8.487,8.487,0,0,0-2.607-6.216,8.487,8.487,0,0,0-6.216-2.607H217.488V-820H162.512v11.765H148.824a8.487,8.487,0,0,0-6.216,2.607A8.487,8.487,0,0,0,140-799.412v5.882a24.86,24.86,0,0,0,7,17.647,27.345,27.345,0,0,0,17.182,8.643,26.209,26.209,0,0,0,8.168,11.957,29.344,29.344,0,0,0,13.235,6.3v20.159H164.66V-720Zm2.149-56.719v-22.693h13.688v5.882a16.435,16.435,0,0,1-3.857,10.809,17.388,17.388,0,0,1-9.831,6Zm-54.976,0a17.388,17.388,0,0,1-9.831-6,16.435,16.435,0,0,1-3.857-10.809v-5.882h13.688v22.693Z" transform="translate(-131 829)"/>
    </g>
    <g transform="matrix(1, 0, 0, 1, -9, -9)" filter="url(#ads_click_24dp_000000_FILL1_wght300_GRAD0_opsz24)">
      <path id="ads_click_24dp_000000_FILL1_wght300_GRAD0_opsz24-2" data-name="ads_click_24dp_000000_FILL1_wght300_GRAD0_opsz24" d="M147.3-781.748a28.148,28.148,0,0,1-18.794-9.111,27.605,27.605,0,0,1-7.615-19.518,27.7,27.7,0,0,1,8.38-20.349,27.7,27.7,0,0,1,20.349-8.38,27.655,27.655,0,0,1,19.518,7.59,28.051,28.051,0,0,1,9.111,18.769l-8.307-2.462a20.607,20.607,0,0,0-7.3-11.557,20.174,20.174,0,0,0-13.026-4.505,20.12,20.12,0,0,0-14.756,6.138,20.119,20.119,0,0,0-6.138,14.756,20.187,20.187,0,0,0,4.53,13.059,20.706,20.706,0,0,0,11.532,7.313Zm6.268,20.783a9.388,9.388,0,0,1-1.973.212h-1.974a48.329,48.329,0,0,1-19.353-3.907,50.115,50.115,0,0,1-15.755-10.605,50.092,50.092,0,0,1-10.606-15.753A48.3,48.3,0,0,1,100-810.368a48.343,48.343,0,0,1,3.907-19.354,50.121,50.121,0,0,1,10.605-15.759,50.115,50.115,0,0,1,15.753-10.61A48.3,48.3,0,0,1,149.614-860a48.329,48.329,0,0,1,19.354,3.909,50.109,50.109,0,0,1,15.759,10.606,50.128,50.128,0,0,1,10.61,15.755,48.314,48.314,0,0,1,3.908,19.353v1.948a9.175,9.175,0,0,1-.212,1.95l-7.624-2.331v-1.567a40.331,40.331,0,0,0-12.145-29.643,40.331,40.331,0,0,0-29.643-12.145A40.331,40.331,0,0,0,119.98-840.02a40.33,40.33,0,0,0-12.145,29.643,40.331,40.331,0,0,0,12.145,29.643,40.331,40.331,0,0,0,29.643,12.145h1.567Zm38.573.965-23.686-23.737-5.675,17.157-13.159-43.8,43.8,13.159-17.157,5.675L200-767.856,192.144-760Z" transform="translate(9 969)"/>
    </g>
  </g>
</svg>
