<svg xmlns="http://www.w3.org/2000/svg" width="25.945" height="21.003" viewBox="0 0 25.945 21.003">
  <path id="home_work_24dp_000000_FILL0_wght300_GRAD0_opsz24_1_" data-name="home_work_24dp_000000_FILL0_wght300_GRAD0_opsz24 (1)" d="M79.293-813.347h2.186v-2.186H79.293Zm0,4.942h2.186v-2.186H79.293Zm0,4.942h2.186v-2.186H79.293ZM78.532-799v-1.853h5.56v-17.3h-11.5v2.217l-1.853-1.34V-820H85.945v21ZM60-799v-11.428l8.031-5.726,8.031,5.726V-799H69.433v-5.869h-2.8V-799Zm1.853-1.853h2.923v-5.869h6.51v5.869h2.923V-809.5l-6.177-4.362L61.853-809.5ZM78.532-811.66ZM71.286-800.85v-5.869h-6.51v0h6.51Z" transform="translate(-60 820)" fill="#070748"/>
</svg>
