<?xml version="1.0" encoding="UTF-8"?>
<svg id="Layer_2" data-name="Layer 2" xmlns="http://www.w3.org/2000/svg" viewBox="0 0 759 513">
  <defs>
    <style>
      .cls-1 {
        fill: #fbfaf7;
        isolation: isolate;
        opacity: .8;
      }

      .cls-2 {
        fill: #161615;
      }
    </style>
  </defs>
  <g id="Layer_1-2" data-name="Layer 1">
    <g id="Group_13044" data-name="Group 13044">
      <rect id="Rectangle_7150" data-name="Rectangle 7150" class="cls-1" width="759" height="513" rx="24" ry="24"/>
      <path id="Path_16326" data-name="Path 16326" class="cls-2" d="M483.08,356.93c-20.72,23.81-56.17,27.9-81.77,9.43-23.78-17.14-31.79-48.48-19.85-75.31,0-12.36-.11-24.71,0-37.02.04-4.14-.39-9.15-.02-13.14.01-1.53,1.18-2.79,2.7-2.93l40.73.06c1.21.37,2.09,1.41,2.26,2.66.46,3.23-.11,7.8.01,11.24.21,1.51.3,3.04.24,4.56,1.14-.03,2.28-.36,3.4-.46,1.74-.16,3.45-.18,5.14-.23,1.77-.05,3.55.1,5.3-.11.24-.17.2-.46.23-.71.37-3.06-.03-7.56-.02-10.78.03-12.32-.23-24.74.3-36.99.31-.94,1.05-1.68,1.99-1.99l40.97-.05c1.31.23,2.35,1.23,2.64,2.52l.06,74.47c15.52,23.06,13.98,53.81-4.33,74.8M481.3,274.3v-62.7l-.35-.35h-33.05l-.24,45.24c2.11.78,4.47,1.11,6.68,1.76,8.68,2.62,16.68,7.09,23.44,13.12.48.43,3.04,3.42,3.51,2.93M421.07,257.77v-13.36l-.35-.35h-33.17v36.56c.55.15.4-.14.53-.3,8.74-9.8,14.81-15.95,27.55-20.71,1.79-.67,3.69-1.18,5.43-1.84M476.06,278.13c-27.14-27.3-73.35-18.87-89.14,16.05-19.89,43.96,22.99,90.65,68.42,74.52,37.74-13.4,49.14-61.98,20.72-90.56"/>
      <path id="Path_16327" data-name="Path 16327" class="cls-2" d="M480.49,172.24c-6.95,7.32-17.97,9.04-26.82,4.17-.88-.49-3.93-3.04-4.18-3.11-.48-.12-.86.38-1.22.58l-24.76,19.79c-.27.59.93,2.4,1.24,3.22,8.09,21.59-17.42,39.57-34.63,25.02-7.47-6.31-9.65-16.29-6.34-25.41l-22.37-12.7-.3.07c-7.59,9.41-21.37,10.89-30.78,3.3-.03-.02-.05-.04-.08-.06-.63-.5-2.39-2.59-3.02-2.52l-23.09,14.76c.2,1.88,1.21,3.59,1.54,5.53,1.91,11.03-4.7,21.76-15.41,25.02-18.33,5.4-34.3-13.36-26.18-30.64,6.74-14.33,26.23-16.67,36.61-4.93l23.09-14.83.2-.64c-4.87-11.09.11-24.04,11.17-29,16.48-7.27,34.09,7.11,30.52,24.66-.28,1.35-.89,2.67-1,3.94l22.08,12.86c.43.04,2.89-2.74,3.48-3.24,8.56-7.01,20.98-6.63,29.09.91l25.99-20.6c-7.04-12.32-.74-28.66,13.05-32.42,21.56-5.87,37.29,19.99,22.11,36.3M475.07,168.92c6.53-5.87,7.05-15.93,1.18-22.46-5.87-6.53-15.93-7.05-22.46-1.18-1.49,1.34-2.71,2.94-3.6,4.73-7.66,15.82,11.76,30.61,24.87,18.9M333.74,182.08c16.27,13.83,36.89-11.17,20.4-24.51-16.2-13.11-36.05,11.2-20.4,24.51M392.57,194.23c-14.59,16.26,10.43,37.29,23.93,21,13.23-15.98-10.42-36.05-23.93-21M281.32,193.02c-5.01.63-10.01,4.82-11.94,9.39-6.15,14.56,9.94,28.17,23.22,19.71,14.18-9.03,6.33-31.31-11.29-29.1"/>
      <path id="Path_16328" data-name="Path 16328" class="cls-2" d="M366.15,223.98c.26.34.47.73.62,1.13l.05,112.47c-.36,1.02-1.27,1.75-2.35,1.87l-41.2-.06c-.89-.39-1.59-1.13-1.94-2.05l-.12-110.99c.26-2.92,2.01-3.22,4.57-3.4,12.15-.84,25.26.66,37.52,0,1.03.04,2.02.4,2.84,1.02M360.83,333.36l-.35-104.3h-32.58c-.42,0-.57.93-.6,1.27-.69,6.88.26,15.5.26,22.51,0,.84-.26,1.54-.26,2.33-.03,26.06.05,52.12.01,78.18h33.52Z"/>
      <path id="Path_16329" data-name="Path 16329" class="cls-2" d="M262.01,250.93c.34-.25.7-.48,1.08-.67l40.92-.12c1.68.06,2.99,1.48,2.93,3.16,0,0,0,0,0,.01v82.99c-.01,1.22-.66,2.35-1.71,2.98l-41.79.19c-1.58-.21-2.36-1.96-2.46-3.4v-82.52c.06-.96.42-1.87,1.03-2.61M300.6,256.25h-32.7c-.06,0-.19-.24-.35-.13-.19.22-.34.46-.47.72v76.16c0,.52.69.35.82.35h32.58l.35-.35v-76.17c0-.08-.31-.36-.24-.59"/>
      <path id="Path_16330" data-name="Path 16330" class="cls-2" d="M469.25,283.3c23.46,22.41,16.89,61.67-12.28,75.53-37.24,17.69-77.37-18.45-63.9-57.34,11.04-31.88,51.68-41.59,76.18-18.19M433.96,276.64c-4.98.05-9.68,1.87-14.3,3.52.56,2.31,4.48,6.29.68,8.06-3.38,1.57-4.64-2.32-5.96-4.56-.61-.1-4.48,3.12-5.15,3.76-.84.79-5.49,5.95-5.51,6.68,1.67,1.31,4.71,1.75,4.93,4.23.23,2.52-1.78,3.92-4.15,3.21-.86-.26-3.42-2.29-4.06-1.83-.37.26-2.04,5.14-2.27,5.94-.7,2.63-1.19,5.31-1.47,8.02h4.34c.07,0,1.21.45,1.35.52,1.46.89,1.94,2.78,1.08,4.25-.44.5-.94.95-1.49,1.32h-5.04c-.14,1.43-.04,2.88.3,4.27.23,1.3,2.61,10.23,3.57,10.24,1.28-.73,3.23-2.3,4.69-2.35,1.62-.16,3.06,1.01,3.22,2.63.03.34,0,.68-.07,1.01-.36,2.32-3.58,2.67-4.86,4.23,2.86,3.9,6.18,7.66,10.36,10.17.69-.14,1.98-3.5,2.84-4.19,1.36-1.06,3.33-.81,4.39.55.43.55.66,1.22.66,1.92-.01,1.72-1.92,3.24-2.25,4.56-.08.34-.12.32.14.59.55.56,5.07,2.06,6.1,2.35,2.6.75,5.27,1.18,7.97,1.29v-4.57c.14-.39.31-.77.5-1.14.92-1.4,2.8-1.79,4.2-.87.07.05.14.09.2.14.5.45.91,1.01,1.19,1.63v4.8c4.3-.22,8.52-1.19,12.48-2.87.55-.24,1.9-.61,1.72-1.36-.36-1.44-2.27-2.78-2.23-4.78.2-1.8,1.79-3.1,3.59-2.94,2.05.28,3.02,3.41,4.03,4.93.37-.02.73-.15,1.02-.38,3.55-2.25,7.03-6.52,9.58-9.83-1.28-1.56-4.5-1.91-4.86-4.23-.35-1.64.69-3.25,2.33-3.6.61-.13,1.24-.07,1.81.17.89.28,3.48,2.45,4.17,1.7.52-1.08.97-2.2,1.35-3.34,1.32-3.42,2.01-7.05,2.05-10.72h-5.04c-.56-.37-1.05-.83-1.44-1.37-.89-1.4-.47-3.25.93-4.14.03-.02.07-.04.1-.06.14-.08,1.28-.52,1.35-.52h3.98c.36-.38.18-1.63.11-2.22-.38-2.82-1.06-5.6-2.04-8.27-.38-1.14-.83-2.26-1.35-3.34-.75-.79-3.17,1.4-4.17,1.7-2.46.73-4.54-.84-4.14-3.44.34-2.19,3.39-2.82,4.91-4-.01-.63-4.21-5.42-5.04-6.21-.74-.72-4.89-4.34-5.62-4.22-1.07,2.37-3.54,6.85-6.61,4.15-2.73-2.4.85-5.24,1.32-7.65-4.48-1.64-9.08-3.37-13.91-3.48l-.39.31v4.22c0,1.36-1.89,2.52-3.17,2.48-1.18-.04-2.93-1.24-2.93-2.48v-4.58Z"/>
      <path id="Path_16331" data-name="Path 16331" class="cls-2" d="M452.59,313.67c3.07.51,3.7,4.93.65,6.04l-16.83.05c-1.42-.25-2.46-1.48-2.46-2.93-.69-7.31.49-15.73.06-23.16.33-1.66,1.94-2.73,3.6-2.4.59.12,1.13.4,1.55.83.38.45.68.97.89,1.52v20.04h12.54Z"/>
    </g>
  </g>
</svg>