<svg width="24" height="24" viewBox="0 0 24 24" fill="none" xmlns="http://www.w3.org/2000/svg">
<path d="M18.9999 14.3847V7.63465L13.7499 3.9614L8.4999 7.63465V9.73065H6.9999V6.89415L13.7499 2.0769L20.4999 6.89415V14.3847H18.9999ZM14.2979 8.22115H15.2019V7.31715H14.2979V8.22115ZM12.2979 8.22115H13.2019V7.31715H12.2979V8.22115ZM14.2979 10.2212H15.2019V9.31715H14.2979V10.2212ZM12.2979 10.2212H13.2019V9.31715H12.2979V10.2212ZM6.7019 18.5769L13.9594 20.6307L19.9287 18.7807C19.8775 18.5538 19.7717 18.3798 19.6114 18.2587C19.4511 18.1375 19.2697 18.0769 19.0672 18.0769H14.1699C13.7336 18.0769 13.3628 18.0602 13.0577 18.0269C12.7525 17.9936 12.439 17.9205 12.1172 17.8077L9.85965 17.0614L10.3037 15.5922L12.3287 16.2962C12.6313 16.3987 12.9807 16.4685 13.3769 16.5057C13.7731 16.5428 14.3365 16.5666 15.0672 16.5769C15.0672 16.3294 15.0114 16.1159 14.8999 15.9364C14.7884 15.7569 14.6416 15.6357 14.4594 15.5729L8.65765 13.4422C8.63832 13.4358 8.62065 13.4311 8.60465 13.4279C8.58865 13.4246 8.57107 13.4229 8.5519 13.4229H6.7019V18.5769ZM1.7019 21.4999V11.9232H8.5404C8.6454 11.9232 8.75174 11.9347 8.8594 11.9577C8.96724 11.9808 9.06724 12.0077 9.1594 12.0384L14.9864 14.1847C15.4402 14.3525 15.8172 14.6496 16.1172 15.0759C16.4172 15.5022 16.5672 16.0026 16.5672 16.5769H19.0672C19.7852 16.5769 20.3701 16.8087 20.8219 17.2722C21.2739 17.7355 21.4999 18.3371 21.4999 19.0769V19.8844L14.0094 22.2114L6.7019 20.1269V21.4999H1.7019ZM3.2019 19.9999H5.2019V13.4229H3.2019V19.9999Z" fill="black"/>
</svg>
