<?xml version="1.0" encoding="UTF-8"?>
<svg id="Layer_2" data-name="Layer 2" xmlns="http://www.w3.org/2000/svg" viewBox="0 0 759 513">
  <defs>
    <style>
      .cls-1 {
        fill: #fbfaf7;
        isolation: isolate;
        opacity: .8;
      }
    </style>
  </defs>
  <g id="Layer_1-2" data-name="Layer 1">
    <g id="Group_13047" data-name="Group 13047">
      <rect id="Rectangle_7152" data-name="Rectangle 7152" class="cls-1" width="759" height="513" rx="24" ry="24"/>
      <g id="Group_13046" data-name="Group 13046">
        <g id="Group_12549" data-name="Group 12549">
          <path id="user_attributes_24dp_000000_FILL0_wght200_GRAD0_opsz24" data-name="user attributes 24dp 000000 FILL0 wght200 GRAD0 opsz24" d="M384.27,284.21v-11.76h82.32v11.76h-82.32ZM384.27,307.36v-11.76h82.32v11.76h-82.32ZM384.27,330.5v-11.76h82.32v11.76h-82.32ZM307.88,268.44c-6.99.12-13.71-2.64-18.6-7.64-5.03-4.85-7.81-11.56-7.69-18.54-.12-6.99,2.64-13.71,7.64-18.6,4.85-5.03,11.56-7.81,18.54-7.69,6.99-.12,13.71,2.64,18.6,7.64,5.03,4.85,7.81,11.56,7.69,18.54.12,6.99-2.64,13.71-7.64,18.6-4.85,5.03-11.56,7.81-18.54,7.69h0ZM246.31,329.95v-13.3c0-2.56.66-5.08,1.92-7.32,1.23-2.26,3.01-4.18,5.18-5.58,8.14-4.66,16.83-8.28,25.86-10.78,9.3-2.53,18.91-3.79,28.55-3.75,9.64-.05,19.24,1.21,28.55,3.75,9.04,2.5,17.72,6.12,25.86,10.78,2.17,1.4,3.95,3.31,5.18,5.58,1.26,2.23,1.92,4.75,1.92,7.32v13.3h-123.03ZM258.48,314.57v3.62h98.69v-3.62c-7.61-4.31-15.71-7.69-24.13-10.06-8.2-2.32-16.69-3.5-25.21-3.51-8.53,0-17.01,1.19-25.22,3.51-8.42,2.38-16.52,5.75-24.13,10.06h0ZM307.83,256.68c3.84.04,7.53-1.51,10.19-4.29,2.77-2.66,4.33-6.35,4.29-10.19.04-3.84-1.51-7.53-4.29-10.19-2.66-2.77-6.35-4.32-10.19-4.28-3.84-.04-7.53,1.51-10.19,4.29-2.77,2.66-4.32,6.35-4.29,10.19-.04,3.84,1.51,7.53,4.29,10.19,2.66,2.77,6.35,4.32,10.19,4.28Z"/>
        </g>
        <path id="trending_up_24dp_000000_FILL0_wght200_GRAD0_opsz24" data-name="trending up 24dp 000000 FILL0 wght200 GRAD0 opsz24" d="M391.07,252.83l-4.98-4.98,44.33-44.69,28.13,28.13,42.39-41.77h-23.43v-7.03h35.17v35.17h-7.03v-23.16l-47.1,47.1-28.13-28.13-39.36,39.36h0Z"/>
      </g>
    </g>
  </g>
</svg>