<svg width="256" height="237" viewBox="0 0 256 237" fill="none" xmlns="http://www.w3.org/2000/svg">
<rect y="0.827148" width="256" height="236" rx="24" fill="#CD3F30"/>
<path d="M148 90.8271H108C103.582 90.8271 100 94.4086 100 98.8266V138.824C100 143.242 103.582 146.824 108 146.824H148C152.418 146.824 156 143.242 156 138.824V98.8266C156 94.4086 152.418 90.8271 148 90.8271Z" fill="#FFD3D3"/>
<path d="M135.8 114.027H138.5V111.327H135.8V114.027ZM135.8 120.126H138.5V117.426H135.8V120.126ZM135.8 126.226H138.5V123.526H135.8V126.226ZM134.862 131.735V129.449H141.719V108.117H127.531V110.851L125.245 109.198V105.827H144V131.726L134.862 131.735ZM112 131.726V117.626L121.9 110.565L131.8 117.626V131.726H123.634V124.488H120.176V131.726H112ZM114.286 129.44H117.886V122.202H125.915V129.44H129.515V118.773L121.896 113.394L114.277 118.773L114.286 129.44Z" fill="black"/>
</svg>
