<svg width="256" height="237" viewBox="0 0 256 237" fill="none" xmlns="http://www.w3.org/2000/svg">
<rect y="0.827148" width="256" height="236" rx="24" fill="#53A083"/>
<path d="M148 90.8271H108C103.582 90.8271 100 94.4086 100 98.8266V138.824C100 143.242 103.582 146.824 108 146.824H148C152.418 146.824 156 143.242 156 138.824V98.8266C156 94.4086 152.418 90.8271 148 90.8271Z" fill="#D3FFD6"/>
<path d="M112 131.088V115.154C111.992 114.753 112.066 114.354 112.218 113.983C112.371 113.611 112.597 113.275 112.884 112.994C113.165 112.707 113.501 112.481 113.873 112.329C114.244 112.177 114.643 112.102 115.044 112.11H120V108.872C119.992 108.47 120.066 108.072 120.218 107.7C120.371 107.329 120.597 106.992 120.884 106.712C121.165 106.425 121.501 106.198 121.873 106.046C122.244 105.894 122.643 105.82 123.044 105.828H132.955C133.356 105.82 133.755 105.894 134.127 106.046C134.498 106.198 134.835 106.425 135.115 106.712C135.402 106.992 135.629 107.329 135.781 107.7C135.933 108.072 136.007 108.47 135.999 108.872V112.11H140.954C141.355 112.102 141.754 112.177 142.126 112.329C142.497 112.481 142.834 112.707 143.114 112.994C143.401 113.275 143.628 113.612 143.78 113.983C143.932 114.355 144.006 114.754 143.998 115.155V131.089L112 131.088ZM120.745 122.862V124.546H118.219V122.862H114.527V128.561H141.474V122.862H137.782V124.546H135.256V122.862H120.745ZM114.526 115.154V120.336H118.218V118.652H120.744V120.336H135.254V118.652H137.78V120.336H141.472V115.154C141.47 115.087 141.455 115.021 141.427 114.96C141.4 114.898 141.36 114.844 141.31 114.798C141.265 114.748 141.21 114.708 141.149 114.68C141.088 114.653 141.021 114.638 140.954 114.636H115.045C114.978 114.638 114.912 114.653 114.85 114.68C114.789 114.708 114.734 114.748 114.689 114.798C114.639 114.843 114.599 114.898 114.571 114.96C114.543 115.021 114.528 115.087 114.526 115.154ZM122.526 112.109H133.473V108.871C133.472 108.803 133.457 108.737 133.429 108.676C133.401 108.615 133.361 108.56 133.311 108.515C133.266 108.465 133.211 108.425 133.15 108.397C133.089 108.369 133.022 108.354 132.955 108.353H123.044C122.977 108.354 122.911 108.369 122.849 108.397C122.788 108.425 122.733 108.465 122.688 108.515C122.638 108.56 122.598 108.615 122.57 108.676C122.543 108.737 122.527 108.803 122.526 108.871V112.109Z" fill="black"/>
</svg>
