<svg width="56" height="56" viewBox="0 0 56 56" fill="none" xmlns="http://www.w3.org/2000/svg">
<path d="M48 0H8C3.58172 0 0 3.5815 0 7.9995V47.997C0 52.415 3.58172 55.9965 8 55.9965H48C52.4183 55.9965 56 52.415 56 47.997V7.9995C56 3.5815 52.4183 0 48 0Z" fill="#EBE8DD"/>
<path d="M12.0001 40.261V24.327C11.9921 23.9257 12.0665 23.5271 12.2185 23.1556C12.3705 22.7841 12.5971 22.4478 12.8841 22.1672C13.1647 21.8802 13.5011 21.6536 13.8726 21.5016C14.2441 21.3495 14.6428 21.2752 15.0441 21.2832H20.0001V18.0444C19.9921 17.6431 20.0665 17.2444 20.2185 16.873C20.3705 16.5015 20.5971 16.1651 20.8841 15.8846C21.1647 15.5975 21.5011 15.371 21.8726 15.219C22.2441 15.067 22.6428 14.9926 23.0441 15.0006H32.9551C33.3564 14.9926 33.7551 15.067 34.1266 15.219C34.4981 15.371 34.8345 15.5975 35.1151 15.8846C35.4021 16.1651 35.6287 16.5015 35.7807 16.873C35.9327 17.2444 36.0071 17.6431 35.9991 18.0444V21.2832H40.9541C41.3554 21.2752 41.7541 21.3495 42.1256 21.5016C42.4971 21.6536 42.8335 21.8802 43.1141 22.1672C43.4013 22.4479 43.6278 22.7844 43.7799 23.156C43.9319 23.5277 44.0062 23.9265 43.9981 24.328V40.262L12.0001 40.261ZM20.7451 32.0345V33.7184H18.2191V32.0345H14.5271V37.7342H41.4741V32.0345H37.7821V33.7184H35.2561V32.0345H20.7451ZM14.5261 24.327V29.5087H18.2181V27.8248H20.7441V29.5087H35.2541V27.8248H37.7801V29.5087H41.4721V24.327C41.4704 24.2598 41.4552 24.1937 41.4274 24.1325C41.3995 24.0714 41.3596 24.0164 41.3101 23.971C41.2649 23.9212 41.21 23.8812 41.1488 23.8533C41.0876 23.8254 41.0213 23.8104 40.9541 23.809H15.0451C14.9778 23.8104 14.9116 23.8254 14.8504 23.8533C14.7892 23.8812 14.7343 23.9212 14.6891 23.971C14.6394 24.0163 14.5993 24.0712 14.5713 24.1324C14.5433 24.1936 14.5279 24.2598 14.5261 24.327ZM22.5261 21.2822H33.4731V18.0434C33.4717 17.9762 33.4567 17.9099 33.4288 17.8487C33.401 17.7875 33.3609 17.7326 33.3111 17.6874C33.2659 17.6376 33.211 17.5975 33.1498 17.5697C33.0886 17.5418 33.0223 17.5268 32.9551 17.5254H23.0441C22.9768 17.5268 22.9106 17.5418 22.8494 17.5697C22.7882 17.5975 22.7333 17.6376 22.6881 17.6874C22.6383 17.7326 22.5982 17.7875 22.5704 17.8487C22.5425 17.9099 22.5274 17.9762 22.5261 18.0434V21.2822Z" fill="#070748"/>
</svg>
