<svg width="56" height="56" viewBox="0 0 56 56" fill="none" xmlns="http://www.w3.org/2000/svg">
<path d="M48 0H8C3.58172 0 0 3.5815 0 7.9995V47.997C0 52.415 3.58172 55.9965 8 55.9965H48C52.4183 55.9965 56 52.415 56 47.997V7.9995C56 3.5815 52.4183 0 48 0Z" fill="#EBE8DD"/>
<path d="M35.92 27.3423L35.656 25.2283C35.4571 25.16 35.2655 25.0723 35.084 24.9663C34.8993 24.8616 34.724 24.7411 34.56 24.6063L32.602 25.4343L31.002 22.6583L32.696 21.3783C32.68 21.275 32.6686 21.1713 32.6619 21.0673C32.6553 20.9633 32.6519 20.8596 32.6519 20.7563C32.6519 20.6576 32.6553 20.5576 32.6619 20.4563C32.6686 20.355 32.68 20.2436 32.696 20.1223L31.002 18.8423L32.602 16.0793L34.5539 16.9003C34.7235 16.7661 34.9027 16.6445 35.09 16.5363C35.2685 16.4318 35.4559 16.3431 35.6499 16.2713L35.92 14.1543H39.1199L39.3839 16.2753C39.5803 16.3454 39.7695 16.4341 39.949 16.5403C40.1271 16.6478 40.2978 16.767 40.46 16.8973L42.438 16.0763L44.0379 18.8393L42.3169 20.1393C42.3407 20.2424 42.3545 20.3476 42.3579 20.4533C42.3579 20.5506 42.3579 20.6486 42.3579 20.7473C42.3579 20.846 42.3556 20.9419 42.351 21.0353C42.3444 21.1478 42.3283 21.2595 42.3029 21.3693L44.0099 22.6563L42.41 25.4323L40.4559 24.5983C40.2894 24.7318 40.1136 24.8535 39.9299 24.9623C39.7553 25.0656 39.5711 25.152 39.38 25.2203L39.116 27.3413L35.92 27.3423ZM36.8279 26.3013H38.1919L38.4419 24.4423C38.782 24.3557 39.1087 24.2231 39.4129 24.0483C39.722 23.8656 40.0069 23.6449 40.2609 23.3913L41.986 24.1163L42.67 22.9363L41.1639 21.8013C41.2201 21.6291 41.2596 21.452 41.282 21.2723C41.3028 21.0987 41.3132 20.9241 41.313 20.7493C41.3134 20.5745 41.3031 20.3998 41.282 20.2263C41.2596 20.0512 41.22 19.8787 41.1639 19.7113L42.683 18.5633L42 17.3833L40.255 18.1183C40.0097 17.8599 39.7285 17.6383 39.42 17.4603C39.1136 17.2789 38.782 17.1441 38.436 17.0603L38.2169 15.2013H36.84L36.6099 17.0543C36.266 17.1338 35.9355 17.2632 35.629 17.4383C35.3149 17.622 35.0264 17.8462 34.771 18.1053L33.046 17.3873L32.363 18.5673L33.863 19.6843C33.8048 19.851 33.7643 20.0232 33.742 20.1983C33.7182 20.3847 33.7065 20.5724 33.7069 20.7603C33.7069 20.9379 33.7186 21.1153 33.742 21.2913C33.7653 21.4657 33.8038 21.6376 33.8569 21.8053L32.365 22.9403L33.048 24.1203L34.766 23.3913C35.0155 23.651 35.2999 23.8748 35.611 24.0563C35.9225 24.2344 36.2569 24.369 36.6049 24.4563L36.8279 26.3013ZM37.528 22.8303C37.8021 22.835 38.0744 22.7835 38.3279 22.6789C38.5814 22.5743 38.8108 22.4189 39.002 22.2223C39.1986 22.0311 39.354 21.8017 39.4585 21.5482C39.5631 21.2947 39.6146 21.0225 39.6099 20.7483C39.6146 20.4741 39.5631 20.2019 39.4585 19.9484C39.354 19.6949 39.1986 19.4654 39.002 19.2743C38.8108 19.0777 38.5814 18.9223 38.3279 18.8177C38.0744 18.7132 37.8021 18.6616 37.528 18.6663C37.2527 18.6603 36.9792 18.7112 36.7245 18.8159C36.4698 18.9205 36.2395 19.0765 36.048 19.2743C35.8532 19.4664 35.6996 19.6962 35.5964 19.9496C35.4933 20.203 35.4428 20.4748 35.448 20.7483C35.4428 21.0218 35.4933 21.2936 35.5964 21.547C35.6996 21.8004 35.8532 22.0301 36.048 22.2223C36.2397 22.4203 36.4704 22.5765 36.7254 22.6812C36.9805 22.7858 37.2544 22.8366 37.53 22.8303H37.528Z" fill="#070748"/>
<path d="M20.082 35.9731L31.812 39.2929L41.46 36.303C41.3972 35.9687 41.2149 35.6687 40.947 35.4591C40.6948 35.2655 40.385 35.1619 40.067 35.1651H32.152C31.551 35.1701 30.9501 35.143 30.352 35.0841C29.8335 35.0245 29.3235 34.9057 28.832 34.7301L25.183 33.5242L25.901 31.1493L29.174 32.2873C29.7237 32.4654 30.2921 32.5791 30.868 32.6262C31.508 32.6862 32.4187 32.7246 33.6 32.7413C33.6097 32.3777 33.5161 32.0188 33.33 31.7063C33.1697 31.4323 32.9174 31.2239 32.618 31.1183L23.24 27.6746C23.2118 27.6652 23.1831 27.6575 23.154 27.6516C23.126 27.646 23.0975 27.6433 23.069 27.6436H20.079L20.082 35.9731ZM12 40.6968V25.2188H23.053C23.2265 25.2192 23.3995 25.2379 23.569 25.2747C23.7329 25.3092 23.8948 25.3526 24.054 25.4047L33.472 28.8735C34.216 29.1527 34.8548 29.6563 35.3 30.3144C35.7918 31.0263 36.0462 31.8753 36.027 32.7403H40.068C40.5928 32.7207 41.116 32.8105 41.6042 33.004C42.0925 33.1975 42.5351 33.4904 42.904 33.8642C43.2733 34.252 43.5609 34.71 43.7499 35.211C43.9388 35.7121 44.0252 36.246 44.004 36.781V38.0859L31.893 41.8467L20.082 38.4779V40.6968H12ZM14.424 38.2729H17.657V27.6426H14.42L14.424 38.2729Z" fill="#070748"/>
</svg>
