<svg width="56" height="56" viewBox="0 0 56 56" fill="none" xmlns="http://www.w3.org/2000/svg">
<path d="M48 0H8C3.58172 0 0 3.5815 0 7.9995V47.997C0 52.415 3.58172 55.9965 8 55.9965H48C52.4183 55.9965 56 52.415 56 47.997V7.9995C56 3.5815 52.4183 0 48 0Z" fill="#EBE8DD"/>
<path d="M35.8 23.1995H38.5V20.4997H35.8V23.1995ZM35.8 29.2991H38.5V26.5992H35.8V29.2991ZM35.8 35.3987H38.5V32.6989H35.8V35.3987ZM34.862 40.9074V38.6215H41.719V17.2898H27.531V20.0237L25.245 18.3708V15H44V40.8984L34.862 40.9074ZM12 40.8984V26.7992L21.9 19.7377L31.8 26.7992V40.8984H23.634V33.6608H20.176V40.8984H12ZM14.286 38.6125H17.886V31.375H25.915V38.6125H29.515V27.9462L21.896 22.5665L14.277 27.9462L14.286 38.6125Z" fill="#070748"/>
</svg>
