<svg width="56" height="56" viewBox="0 0 56 56" fill="none" xmlns="http://www.w3.org/2000/svg">
<path d="M48 0H8C3.58172 0 0 3.5815 0 7.9995V47.997C0 52.415 3.58172 55.9965 8 55.9965H48C52.4183 55.9965 56 52.415 56 47.997V7.9995C56 3.5815 52.4183 0 48 0Z" fill="#EBE8DD"/>
<path d="M12.0001 41.3275V37.9456C11.9949 37.2153 12.199 36.4988 12.5881 35.8808C12.9865 35.2469 13.5551 34.7379 14.2291 34.4119C15.5843 33.7377 17.006 33.2063 18.4711 32.826C20.083 32.4025 21.7435 32.1921 23.4101 32.2C25.0764 32.1922 26.7365 32.4026 28.3481 32.826C29.8132 33.2063 31.2348 33.7377 32.5901 34.4119C33.2641 34.7379 33.8327 35.2469 34.2311 35.8808C34.6203 36.4988 34.8244 37.2153 34.8191 37.9456V41.3275H12.0001ZM14.2821 39.0456H32.5381V37.9456C32.5464 37.625 32.4467 37.3109 32.2551 37.0537C32.0639 36.8031 31.8211 36.5964 31.5431 36.4478C30.4045 35.8929 29.2171 35.4444 27.9961 35.1079C26.5049 34.6824 24.9607 34.4716 23.4101 34.4819C21.8595 34.4716 20.3153 34.6824 18.8241 35.1079C17.603 35.4444 16.4157 35.8929 15.2771 36.4478C14.9991 36.5964 14.7563 36.8031 14.5651 37.0537C14.3739 37.3111 14.2746 37.6251 14.2831 37.9456L14.2821 39.0456ZM23.4101 29.7462C22.708 29.7603 22.0105 29.6303 21.3605 29.3645C20.7106 29.0986 20.122 28.7024 19.6311 28.2003C19.1232 27.6955 18.724 27.0922 18.4581 26.4273C18.1922 25.7625 18.0653 25.0503 18.0851 24.3345H17.7341C17.6446 24.3381 17.5554 24.3234 17.4718 24.2912C17.3882 24.2591 17.3121 24.2102 17.2481 24.1476C17.1854 24.0836 17.1365 24.0074 17.1044 23.9239C17.0722 23.8403 17.0575 23.751 17.0611 23.6616C17.0576 23.5721 17.0723 23.4829 17.1045 23.3993C17.1366 23.3158 17.1855 23.2396 17.2481 23.1756C17.3121 23.1129 17.3882 23.0641 17.4718 23.0319C17.5554 22.9998 17.6446 22.985 17.7341 22.9886H18.0901C18.0965 22.0844 18.3234 21.1954 18.7511 20.3988C19.1909 19.6079 19.8068 18.9287 20.5511 18.4139V19.8588C20.5476 19.9484 20.5624 20.0377 20.5948 20.1213C20.6271 20.2048 20.6762 20.2809 20.7391 20.3448C20.803 20.4076 20.879 20.4568 20.9626 20.4891C21.0462 20.5214 21.1355 20.5363 21.2251 20.5327C21.3144 20.5363 21.4035 20.5215 21.4869 20.4893C21.5703 20.4572 21.6463 20.4084 21.7101 20.3458C21.773 20.2819 21.8221 20.2058 21.8544 20.1222C21.8868 20.0387 21.9016 19.9494 21.8981 19.8598V17.8359C22.1313 17.7558 22.3704 17.6936 22.6131 17.6499C22.879 17.6013 23.1488 17.5772 23.4191 17.578C23.6894 17.5772 23.9592 17.6013 24.2251 17.6499C24.4678 17.6937 24.7068 17.7559 24.9401 17.8359V19.8598C24.9365 19.9493 24.9512 20.0385 24.9834 20.1221C25.0155 20.2057 25.0644 20.2818 25.1271 20.3458C25.191 20.4087 25.267 20.4577 25.3506 20.4901C25.4342 20.5224 25.5235 20.5373 25.6131 20.5338C25.7026 20.5374 25.7919 20.5227 25.8754 20.4906C25.959 20.4584 26.0351 20.4095 26.0991 20.3468C26.1617 20.2828 26.2106 20.2067 26.2428 20.1231C26.275 20.0395 26.2897 19.9503 26.2861 19.8608V18.4159C27.0336 18.927 27.6502 19.607 28.0861 20.4008C28.5095 21.1988 28.7338 22.0872 28.7401 22.9906H29.0901C29.1796 22.9871 29.2688 23.0018 29.3524 23.034C29.4359 23.0661 29.5121 23.115 29.5761 23.1776C29.6387 23.2416 29.6876 23.3177 29.7197 23.4013C29.7519 23.4848 29.7666 23.5741 29.7631 23.6636C29.7667 23.7531 29.752 23.8423 29.7198 23.9259C29.6876 24.0095 29.6387 24.0855 29.5761 24.1495C29.5121 24.2121 29.4359 24.261 29.3524 24.2931C29.2688 24.3253 29.1796 24.34 29.0901 24.3365H28.7391C28.7589 25.0523 28.6319 25.7645 28.3661 26.4293C28.1002 27.0942 27.701 27.6976 27.1931 28.2023C26.7013 28.704 26.1119 29.0996 25.4613 29.3646C24.8106 29.6297 24.1125 29.7585 23.4101 29.7432V29.7462ZM23.4101 27.4643C23.8115 27.4733 24.2106 27.3999 24.5826 27.2487C24.9546 27.0976 25.2917 26.8718 25.5731 26.5854C25.8596 26.3039 26.0855 25.9666 26.2366 25.5944C26.3878 25.2223 26.4611 24.8231 26.4521 24.4215H20.3671C20.3581 24.8231 20.4314 25.2223 20.5826 25.5944C20.7337 25.9666 20.9596 26.3039 21.2461 26.5854C21.5282 26.8708 21.8657 27.0955 22.2378 27.2456C22.61 27.3958 23.0089 27.4681 23.4101 27.4583V27.4643ZM34.8491 32.701L34.6791 31.5891C34.5005 31.5355 34.3271 31.4659 34.1611 31.3811C33.9891 31.2943 33.8321 31.1806 33.6961 31.0441L32.6601 31.454L31.9901 30.2581L32.8561 29.5582C32.8373 29.4687 32.8276 29.3776 32.8271 29.2862V28.7493C32.8283 28.6552 32.838 28.5615 32.8561 28.4692L31.9901 27.7693L32.6631 26.5764L33.6991 26.9864C33.833 26.856 33.9857 26.7464 34.1521 26.6614C34.3211 26.5711 34.4987 26.4978 34.6821 26.4424L34.8521 25.3305H36.1901L36.3601 26.4424C36.5435 26.4978 36.7211 26.5711 36.8901 26.6614C37.0565 26.7464 37.2092 26.856 37.3431 26.9864L38.3791 26.5764L39.0521 27.7693L38.1861 28.4692C38.2042 28.5615 38.2139 28.6552 38.2151 28.7493V29.2862C38.2146 29.3776 38.2049 29.4687 38.1861 29.5582L39.0521 30.2581L38.3791 31.4511L37.3431 31.0411C37.2071 31.1775 37.0501 31.2913 36.8781 31.3781C36.7121 31.4629 36.5387 31.5325 36.3601 31.5861L36.1901 32.698L34.8491 32.701ZM35.5221 30.2732C35.6875 30.2751 35.8516 30.2431 36.0041 30.1791C36.1567 30.1151 36.2945 30.0205 36.4091 29.9012C36.5284 29.7866 36.623 29.6488 36.687 29.4962C36.751 29.3437 36.783 29.1797 36.7811 29.0143C36.783 28.8488 36.751 28.6848 36.687 28.5322C36.623 28.3797 36.5284 28.2418 36.4091 28.1273C36.2945 28.0079 36.1567 27.9133 36.0041 27.8494C35.8516 27.7854 35.6875 27.7534 35.5221 27.7553C35.3567 27.7534 35.1926 27.7854 35.04 27.8494C34.8875 27.9133 34.7497 28.0079 34.6351 28.1273C34.5157 28.2418 34.4212 28.3797 34.3572 28.5322C34.2932 28.6848 34.2612 28.8488 34.2631 29.0143C34.2612 29.1797 34.2932 29.3437 34.3572 29.4962C34.4212 29.6488 34.5157 29.7866 34.6351 29.9012C34.7499 30.02 34.8879 30.114 35.0404 30.1775C35.193 30.2409 35.3569 30.2725 35.5221 30.2702V30.2732ZM38.4361 24.7735L38.2201 23.3816C37.9521 23.3106 37.6945 23.2047 37.4541 23.0666C37.2128 22.9333 36.9969 22.7586 36.8161 22.5506L35.4531 23.0506L34.5931 21.5757L35.7401 20.6398C35.6928 20.5185 35.6622 20.3913 35.6491 20.2618C35.6391 20.1464 35.6341 20.0208 35.6341 19.8848C35.6341 19.7488 35.6391 19.6232 35.6491 19.5078C35.6622 19.3783 35.6928 19.2512 35.7401 19.1299L34.5931 18.1939L35.4531 16.719L36.8161 17.219C36.9969 17.011 37.2128 16.8363 37.4541 16.703C37.6945 16.5649 37.9521 16.459 38.2201 16.388L38.4361 14.9961H40.1561L40.3731 16.388C40.6411 16.459 40.8987 16.5649 41.1391 16.703C41.3803 16.8363 41.5963 17.011 41.7771 17.219L43.1401 16.719L44.0001 18.1939L42.8531 19.1299C42.9004 19.2512 42.931 19.3783 42.9441 19.5078C42.9541 19.6232 42.9591 19.7488 42.9591 19.8848C42.9591 20.0208 42.9541 20.1464 42.9441 20.2618C42.931 20.3913 42.9004 20.5185 42.8531 20.6398L44.0001 21.5757L43.1401 23.0506L41.7771 22.5506C41.5963 22.7586 41.3803 22.9333 41.1391 23.0666C40.8987 23.2047 40.6411 23.3106 40.3731 23.3816L40.1561 24.7735H38.4361ZM39.2961 21.8737C39.5588 21.8797 39.82 21.832 40.0635 21.7333C40.307 21.6346 40.5278 21.487 40.7121 21.2997C40.8994 21.1154 41.047 20.8947 41.1457 20.6512C41.2444 20.4077 41.2922 20.1465 41.2861 19.8838C41.2922 19.6211 41.2444 19.36 41.1457 19.1164C41.047 18.8729 40.8994 18.6522 40.7121 18.4679C40.5278 18.2806 40.307 18.1331 40.0635 18.0344C39.82 17.9356 39.5588 17.8878 39.2961 17.8939C39.0334 17.8878 38.7722 17.9356 38.5287 18.0344C38.2851 18.1331 38.0644 18.2806 37.8801 18.4679C37.6928 18.6522 37.5452 18.8729 37.4465 19.1164C37.3478 19.36 37.3 19.6211 37.3061 19.8838C37.3 20.1465 37.3478 20.4077 37.4465 20.6512C37.5452 20.8947 37.6928 21.1154 37.8801 21.2997C38.0644 21.487 38.2851 21.6346 38.5287 21.7333C38.7722 21.832 39.0334 21.8797 39.2961 21.8737Z" fill="#070748"/>
</svg>
