<svg width="256" height="237" viewBox="0 0 256 237" fill="none" xmlns="http://www.w3.org/2000/svg">
<rect y="0.827148" width="256" height="236" rx="24" fill="#3F70D5"/>
<path d="M148 90.8271H108C103.582 90.8271 100 94.4086 100 98.8266V138.824C100 143.242 103.582 146.824 108 146.824H148C152.418 146.824 156 143.242 156 138.824V98.8266C156 94.4086 152.418 90.8271 148 90.8271Z" fill="#CDDDFF"/>
<path d="M112 131.188V127.806C111.995 127.076 112.199 126.359 112.588 125.741C112.986 125.107 113.555 124.598 114.229 124.272C115.584 123.598 117.006 123.067 118.471 122.686C120.083 122.263 121.743 122.052 123.41 122.06C125.076 122.053 126.736 122.263 128.348 122.686C129.813 123.067 131.235 123.598 132.59 124.272C133.264 124.598 133.833 125.107 134.231 125.741C134.62 126.359 134.824 127.076 134.819 127.806V131.188H112ZM114.282 128.906H132.538V127.806C132.546 127.485 132.447 127.171 132.255 126.914C132.064 126.663 131.821 126.457 131.543 126.308C130.405 125.753 129.217 125.305 127.996 124.968C126.505 124.543 124.961 124.332 123.41 124.342C121.859 124.332 120.315 124.543 118.824 124.968C117.603 125.305 116.416 125.753 115.277 126.308C114.999 126.457 114.756 126.663 114.565 126.914C114.374 127.171 114.275 127.485 114.283 127.806L114.282 128.906ZM123.41 119.607C122.708 119.621 122.01 119.491 121.361 119.225C120.711 118.959 120.122 118.563 119.631 118.061C119.123 117.556 118.724 116.953 118.458 116.288C118.192 115.623 118.065 114.911 118.085 114.195H117.734C117.645 114.198 117.555 114.184 117.472 114.152C117.388 114.119 117.312 114.071 117.248 114.008C117.185 113.944 117.137 113.868 117.104 113.784C117.072 113.701 117.058 113.611 117.061 113.522C117.058 113.432 117.072 113.343 117.104 113.26C117.137 113.176 117.185 113.1 117.248 113.036C117.312 112.973 117.388 112.924 117.472 112.892C117.555 112.86 117.645 112.845 117.734 112.849H118.09C118.096 111.945 118.323 111.056 118.751 110.259C119.191 109.468 119.807 108.789 120.551 108.274V109.719C120.548 109.809 120.562 109.898 120.595 109.982C120.627 110.065 120.676 110.141 120.739 110.205C120.803 110.268 120.879 110.317 120.963 110.349C121.046 110.382 121.136 110.397 121.225 110.393C121.314 110.397 121.404 110.382 121.487 110.35C121.57 110.318 121.646 110.269 121.71 110.206C121.773 110.142 121.822 110.066 121.854 109.983C121.887 109.899 121.902 109.81 121.898 109.72V107.696C122.131 107.616 122.37 107.554 122.613 107.51C122.879 107.462 123.149 107.438 123.419 107.438C123.689 107.438 123.959 107.462 124.225 107.51C124.468 107.554 124.707 107.616 124.94 107.696V109.72C124.936 109.81 124.951 109.899 124.983 109.982C125.016 110.066 125.064 110.142 125.127 110.206C125.191 110.269 125.267 110.318 125.351 110.35C125.434 110.383 125.524 110.398 125.613 110.394C125.703 110.398 125.792 110.383 125.875 110.351C125.959 110.319 126.035 110.27 126.099 110.207C126.162 110.143 126.211 110.067 126.243 109.983C126.275 109.9 126.29 109.811 126.286 109.721V108.276C127.034 108.787 127.65 109.467 128.086 110.261C128.509 111.059 128.734 111.948 128.74 112.851H129.09C129.18 112.847 129.269 112.862 129.352 112.894C129.436 112.926 129.512 112.975 129.576 113.038C129.639 113.102 129.688 113.178 129.72 113.262C129.752 113.345 129.767 113.434 129.763 113.524C129.767 113.613 129.752 113.703 129.72 113.786C129.688 113.87 129.639 113.946 129.576 114.01C129.512 114.072 129.436 114.121 129.352 114.153C129.269 114.186 129.18 114.2 129.09 114.197H128.739C128.759 114.913 128.632 115.625 128.366 116.29C128.1 116.955 127.701 117.558 127.193 118.063C126.701 118.564 126.112 118.96 125.461 119.225C124.811 119.49 124.113 119.619 123.41 119.604V119.607ZM123.41 117.325C123.812 117.334 124.211 117.26 124.583 117.109C124.955 116.958 125.292 116.732 125.573 116.446C125.86 116.164 126.085 115.827 126.237 115.455C126.388 115.083 126.461 114.683 126.452 114.282H120.367C120.358 114.683 120.431 115.083 120.583 115.455C120.734 115.827 120.96 116.164 121.246 116.446C121.528 116.731 121.866 116.956 122.238 117.106C122.61 117.256 123.009 117.329 123.41 117.319V117.325ZM134.849 122.561L134.679 121.449C134.501 121.396 134.327 121.326 134.161 121.241C133.989 121.155 133.832 121.041 133.696 120.904L132.66 121.314L131.99 120.118L132.856 119.419C132.837 119.329 132.828 119.238 132.827 119.147V118.61C132.828 118.516 132.838 118.422 132.856 118.33L131.99 117.63L132.663 116.437L133.699 116.847C133.833 116.716 133.986 116.607 134.152 116.522C134.321 116.431 134.499 116.358 134.682 116.303L134.852 115.191H136.19L136.36 116.303C136.544 116.358 136.721 116.431 136.89 116.522C137.057 116.607 137.209 116.716 137.343 116.847L138.379 116.437L139.052 117.63L138.186 118.33C138.204 118.422 138.214 118.516 138.215 118.61V119.147C138.215 119.238 138.205 119.329 138.186 119.419L139.052 120.118L138.379 121.311L137.343 120.901C137.207 121.038 137.05 121.152 136.878 121.238C136.712 121.323 136.539 121.393 136.36 121.446L136.19 122.558L134.849 122.561ZM135.522 120.134C135.688 120.135 135.852 120.103 136.004 120.039C136.157 119.975 136.295 119.881 136.409 119.762C136.528 119.647 136.623 119.509 136.687 119.357C136.751 119.204 136.783 119.04 136.781 118.875C136.783 118.709 136.751 118.545 136.687 118.393C136.623 118.24 136.528 118.102 136.409 117.988C136.295 117.868 136.157 117.774 136.004 117.71C135.852 117.646 135.688 117.614 135.522 117.616C135.357 117.614 135.193 117.646 135.04 117.71C134.887 117.774 134.75 117.868 134.635 117.988C134.516 118.102 134.421 118.24 134.357 118.393C134.293 118.545 134.261 118.709 134.263 118.875C134.261 119.04 134.293 119.204 134.357 119.357C134.421 119.509 134.516 119.647 134.635 119.762C134.75 119.88 134.888 119.974 135.04 120.038C135.193 120.101 135.357 120.133 135.522 120.131V120.134ZM138.436 114.634L138.22 113.242C137.952 113.171 137.695 113.065 137.454 112.927C137.213 112.794 136.997 112.619 136.816 112.411L135.453 112.911L134.593 111.436L135.74 110.5C135.693 110.379 135.662 110.252 135.649 110.122C135.639 110.007 135.634 109.881 135.634 109.745C135.634 109.609 135.639 109.484 135.649 109.368C135.662 109.239 135.693 109.112 135.74 108.99L134.593 108.054L135.453 106.579L136.816 107.079C136.997 106.871 137.213 106.697 137.454 106.563C137.695 106.425 137.952 106.319 138.22 106.248L138.436 104.856H140.156L140.373 106.248C140.641 106.319 140.899 106.425 141.139 106.563C141.38 106.697 141.596 106.871 141.777 107.079L143.14 106.579L144 108.054L142.853 108.99C142.9 109.112 142.931 109.239 142.944 109.368C142.954 109.484 142.959 109.609 142.959 109.745C142.959 109.881 142.954 110.007 142.944 110.122C142.931 110.252 142.9 110.379 142.853 110.5L144 111.436L143.14 112.911L141.777 112.411C141.596 112.619 141.38 112.794 141.139 112.927C140.899 113.065 140.641 113.171 140.373 113.242L140.156 114.634H138.436ZM139.296 111.734C139.559 111.74 139.82 111.692 140.064 111.594C140.307 111.495 140.528 111.347 140.712 111.16C140.899 110.976 141.047 110.755 141.146 110.512C141.244 110.268 141.292 110.007 141.286 109.744C141.292 109.481 141.244 109.22 141.146 108.977C141.047 108.733 140.899 108.513 140.712 108.328C140.528 108.141 140.307 107.993 140.064 107.895C139.82 107.796 139.559 107.748 139.296 107.754C139.033 107.748 138.772 107.796 138.529 107.895C138.285 107.993 138.064 108.141 137.88 108.328C137.693 108.513 137.545 108.733 137.447 108.977C137.348 109.22 137.3 109.481 137.306 109.744C137.3 110.007 137.348 110.268 137.447 110.512C137.545 110.755 137.693 110.976 137.88 111.16C138.064 111.347 138.285 111.495 138.529 111.594C138.772 111.692 139.033 111.74 139.296 111.734Z" fill="black"/>
</svg>
