<svg width="256" height="237" viewBox="0 0 256 237" fill="none" xmlns="http://www.w3.org/2000/svg">
<rect y="0.827148" width="256" height="236" rx="24" fill="#06131A"/>
<path d="M148 90.8271H108C103.582 90.8271 100 94.4086 100 98.8266V138.824C100 143.242 103.582 146.824 108 146.824H148C152.418 146.824 156 143.242 156 138.824V98.8266C156 94.4086 152.418 90.8271 148 90.8271Z" fill="#D3D3D3"/>
<path d="M135.92 118.203L135.656 116.089C135.457 116.02 135.266 115.933 135.084 115.827C134.899 115.722 134.724 115.601 134.56 115.467L132.602 116.295L131.002 113.519L132.696 112.239C132.68 112.135 132.669 112.032 132.662 111.928C132.655 111.824 132.652 111.72 132.652 111.617C132.652 111.518 132.655 111.418 132.662 111.317C132.669 111.215 132.68 111.104 132.696 110.983L131.002 109.703L132.602 106.94L134.554 107.761C134.724 107.626 134.903 107.505 135.09 107.397C135.269 107.292 135.456 107.203 135.65 107.132L135.92 105.015H139.12L139.384 107.136C139.58 107.206 139.769 107.294 139.949 107.401C140.127 107.508 140.298 107.627 140.46 107.758L142.438 106.937L144.038 109.7L142.317 111C142.341 111.103 142.354 111.208 142.358 111.314C142.358 111.411 142.358 111.509 142.358 111.608C142.358 111.706 142.356 111.802 142.351 111.896C142.344 112.008 142.328 112.12 142.303 112.23L144.01 113.517L142.41 116.293L140.456 115.459C140.289 115.592 140.114 115.714 139.93 115.823C139.755 115.926 139.571 116.012 139.38 116.081L139.116 118.202L135.92 118.203ZM136.828 117.162H138.192L138.442 115.303C138.782 115.216 139.109 115.083 139.413 114.909C139.722 114.726 140.007 114.505 140.261 114.252L141.986 114.977L142.67 113.797L141.164 112.662C141.22 112.489 141.26 112.312 141.282 112.133C141.303 111.959 141.313 111.784 141.313 111.61C141.313 111.435 141.303 111.26 141.282 111.087C141.26 110.912 141.22 110.739 141.164 110.572L142.683 109.424L142 108.244L140.255 108.979C140.01 108.72 139.729 108.499 139.42 108.321C139.114 108.139 138.782 108.004 138.436 107.921L138.217 106.062H136.84L136.61 107.915C136.266 107.994 135.935 108.124 135.629 108.299C135.315 108.482 135.026 108.707 134.771 108.966L133.046 108.248L132.363 109.428L133.863 110.545C133.805 110.711 133.764 110.884 133.742 111.059C133.718 111.245 133.706 111.433 133.707 111.621C133.707 111.798 133.719 111.976 133.742 112.152C133.765 112.326 133.804 112.498 133.857 112.666L132.365 113.801L133.048 114.981L134.766 114.252C135.016 114.511 135.3 114.735 135.611 114.917C135.922 115.095 136.257 115.229 136.605 115.317L136.828 117.162ZM137.528 113.691C137.802 113.695 138.074 113.644 138.328 113.539C138.581 113.435 138.811 113.279 139.002 113.083C139.199 112.891 139.354 112.662 139.459 112.409C139.563 112.155 139.615 111.883 139.61 111.609C139.615 111.334 139.563 111.062 139.459 110.809C139.354 110.555 139.199 110.326 139.002 110.135C138.811 109.938 138.581 109.783 138.328 109.678C138.074 109.574 137.802 109.522 137.528 109.527C137.253 109.521 136.979 109.572 136.725 109.676C136.47 109.781 136.24 109.937 136.048 110.135C135.853 110.327 135.7 110.557 135.596 110.81C135.493 111.063 135.443 111.335 135.448 111.609C135.443 111.882 135.493 112.154 135.596 112.407C135.7 112.661 135.853 112.89 136.048 113.083C136.24 113.281 136.47 113.437 136.725 113.542C136.98 113.646 137.254 113.697 137.53 113.691H137.528Z" fill="black"/>
<path d="M120.082 126.833L131.812 130.153L141.46 127.163C141.397 126.829 141.215 126.529 140.947 126.319C140.695 126.126 140.385 126.022 140.067 126.025H132.152C131.551 126.03 130.95 126.003 130.352 125.944C129.833 125.885 129.324 125.766 128.832 125.59L125.183 124.385L125.901 122.01L129.174 123.148C129.724 123.326 130.292 123.439 130.868 123.487C131.508 123.547 132.419 123.585 133.6 123.602C133.61 123.238 133.516 122.879 133.33 122.567C133.17 122.293 132.917 122.084 132.618 121.979L123.24 118.535C123.212 118.526 123.183 118.518 123.154 118.512C123.126 118.506 123.098 118.504 123.069 118.504H120.079L120.082 126.833ZM112 131.557V116.079H123.053C123.226 116.08 123.399 116.098 123.569 116.135C123.733 116.17 123.895 116.213 124.054 116.265L133.472 119.734C134.216 120.013 134.855 120.517 135.3 121.175C135.792 121.887 136.046 122.736 136.027 123.601H140.068C140.593 123.581 141.116 123.671 141.604 123.864C142.092 124.058 142.535 124.351 142.904 124.725C143.273 125.112 143.561 125.57 143.75 126.071C143.939 126.572 144.025 127.106 144.004 127.641V128.946L131.893 132.707L120.082 129.338V131.557H112ZM114.424 129.133H117.657V118.503H114.42L114.424 129.133Z" fill="black"/>
</svg>
