<svg width="17" height="21" viewBox="0 0 17 21" fill="none" xmlns="http://www.w3.org/2000/svg">
<g clip-path="url(#clip0_1_699)">
<path d="M1.9999 21C1.73646 21.0053 1.47474 20.9566 1.23086 20.8568C0.98698 20.7571 0.766117 20.6084 0.581903 20.42C0.392896 20.2357 0.243718 20.0147 0.14361 19.7704C0.0435008 19.5262 -0.00540875 19.2639 -9.77602e-05 19V6.41701C-0.00539279 6.15357 0.0433374 5.89185 0.143091 5.64797C0.242844 5.40409 0.391507 5.18326 0.579904 4.99904C0.764118 4.81065 0.984981 4.66197 1.22886 4.56222C1.47274 4.46246 1.73446 4.41373 1.9979 4.41903H4.14491V4.14303C4.13632 3.59746 4.23961 3.05594 4.4484 2.55184C4.6572 2.04774 4.96707 1.59171 5.3589 1.212C5.73867 0.820652 6.19457 0.51126 6.69848 0.302816C7.20239 0.0943717 7.74365 -0.00868458 8.2889 2.06403e-05C8.83447 -0.00856312 9.376 0.0947527 9.88011 0.303548C10.3842 0.512344 10.8402 0.822181 11.2199 1.21401C11.6117 1.59373 11.9216 2.04969 12.1304 2.55379C12.3392 3.0579 12.4425 3.59947 12.4339 4.14504V4.42104H14.5809C14.8444 4.41548 15.1063 4.46397 15.3504 4.56356C15.5944 4.66314 15.8155 4.81168 15.9999 5.00002C16.1883 5.18423 16.337 5.40507 16.4367 5.64895C16.5365 5.89283 16.5852 6.15461 16.5799 6.41805V19C16.5852 19.2635 16.5365 19.5252 16.4367 19.7691C16.337 20.0129 16.1883 20.2338 15.9999 20.4181C15.8157 20.6064 15.5948 20.7551 15.3509 20.8548C15.1071 20.9546 14.8453 21.0033 14.5819 20.998L1.9999 21ZM1.9999 19.342H14.5829C14.6271 19.3412 14.6706 19.3314 14.7108 19.3131C14.7511 19.2949 14.7871 19.2687 14.8169 19.236C14.8496 19.2063 14.8759 19.1702 14.8941 19.13C14.9123 19.0897 14.9221 19.0462 14.9229 19.002V6.41903C14.9221 6.37486 14.9123 6.33128 14.8941 6.29104C14.8759 6.2508 14.8496 6.21474 14.8169 6.18502C14.7871 6.15238 14.7511 6.12616 14.7108 6.10793C14.6706 6.08971 14.6271 6.07984 14.5829 6.079H12.4359V8.566C12.4388 8.67556 12.4192 8.78459 12.3783 8.88625C12.3373 8.98792 12.2759 9.08005 12.1979 9.157C12.1209 9.23504 12.0288 9.29648 11.9271 9.33742C11.8255 9.37836 11.7165 9.39797 11.6069 9.39504C11.4973 9.39797 11.3884 9.37836 11.2867 9.33742C11.185 9.29648 11.0929 9.23504 11.0159 9.157C10.9379 9.08005 10.8765 8.98792 10.8355 8.88625C10.7946 8.78459 10.775 8.67556 10.7779 8.566V6.079H5.79991V8.566C5.80283 8.67556 5.78321 8.78459 5.74227 8.88625C5.70133 8.98792 5.63994 9.08005 5.5619 9.157C5.48495 9.23504 5.39278 9.29648 5.29112 9.33742C5.18945 9.37836 5.08045 9.39797 4.9709 9.39504C4.86134 9.39797 4.75235 9.37836 4.65069 9.33742C4.54903 9.29648 4.45686 9.23504 4.37991 9.157C4.30187 9.08005 4.24047 8.98792 4.19953 8.88625C4.15859 8.78459 4.13897 8.67556 4.1419 8.566V6.079H1.9999C1.95574 6.07984 1.91222 6.08971 1.87199 6.10793C1.83176 6.12616 1.79566 6.15238 1.76591 6.18502C1.73327 6.21477 1.70703 6.25086 1.68881 6.2911C1.67058 6.33133 1.66075 6.37487 1.65991 6.41903V19C1.66069 19.0442 1.67049 19.0877 1.68871 19.128C1.70694 19.1682 1.73322 19.2043 1.76591 19.234C1.79549 19.267 1.8315 19.2936 1.87174 19.3122C1.91198 19.3308 1.9556 19.3409 1.9999 19.342ZM5.79991 4.42104H10.7739V4.14504C10.78 3.81731 10.7189 3.49177 10.5944 3.18856C10.4699 2.88534 10.2846 2.61089 10.0499 2.38204C9.82106 2.14736 9.54657 1.96206 9.24336 1.83755C8.94014 1.71303 8.61463 1.65193 8.2869 1.65804C7.95918 1.65193 7.63367 1.71303 7.33045 1.83755C7.02724 1.96206 6.75275 2.14736 6.5239 2.38204C6.28923 2.61089 6.10391 2.88534 5.97939 3.18856C5.85488 3.49177 5.7938 3.81731 5.79991 4.14504V4.42104Z" fill="black"/>
</g>
<defs>
<clipPath id="clip0_1_699">
<rect width="16.579" height="21" fill="white"/>
</clipPath>
</defs>
</svg>
