<?xml version="1.0" encoding="UTF-8"?>
<svg id="Layer_2" data-name="Layer 2" xmlns="http://www.w3.org/2000/svg" viewBox="0 0 762 513">
  <defs>
    <style>
      .cls-1 {
        fill: #161615;
      }

      .cls-2 {
        fill: #fcfbf8;
      }
    </style>
  </defs>
  <g id="Layer_1-2" data-name="Layer 1">
    <g id="Group_13045" data-name="Group 13045">
      <rect id="Rectangle_7149" data-name="Rectangle 7149" class="cls-2" width="762" height="513"/>
      <g id="smarter_algorithms" data-name="smarter algorithms">
        <path id="Path_16332" data-name="Path 16332" class="cls-1" d="M365.78,190.64c.54.64,10.82.49,12.41,0v-37.05c-2.14-1.76-4.55-3.4-4.89-6.39-1.14-9.97,11.43-12.64,14.85-4.7,2.09,4.86-.27,8.48-4.32,11.09v37.05c4.12.6,8.3.6,12.41,0v-40.06l12.22-10.67c-.9-4.16,1.6-9.17,6.06-9.79,11.83-1.66,12.53,14.74,2.18,15.75-1.81.18-2.99-1.17-4.64-.54l-9.8,8.26v37.05c.37-.12.82.38.94.38h11.29l.56-.57v-21.44c0-.2-2.43-1.86-3.01-2.63-2.65-3.49-1.96-8.47,1.53-11.12.17-.13.35-.25.53-.37,7.66-4.52,15.44,4.4,10.47,11.57-.78,1.13-2.95,1.98-3.12,2.92l.35,21.47,7.48-.28c1.1-.71-.06-15.63.64-17.99l21.25-20.51c-2.66-7.72,6.95-13.93,12.87-8.46,5.2,4.81,1.76,13.68-5.19,13.88-1.5.04-2.88-1.38-4.19-.08l-18.35,17.03c-.34.32-.58.74-.68,1.2-.54,1.7-.5,11.2-.26,13.3.11.92.27,1.87,1.32,2.06,1.7.17,3.41.11,5.1-.17.73-.23,6.17-5.11,6.32-5.74.14-.6-.44-2.37-.28-3.65.73-5.98,8.51-8.77,13.14-4.55,5.1,4.64,2.26,13.07-4.38,13.7-1.52.14-3.8-.72-4.55-.44-.45.17-5.37,4.44-5.37,4.8v6.4l.56.56h16.55l18.07-19.57c-.74-4.71-.06-9.14,4.96-10.81,10.71-3.55,14.61,12.72,4.57,15.1-2.19.52-3.61-.31-5.42.21l-20.22,21.2c-4.64-.02-9.35-.28-14.01-.12-1.53.05-2.86.83-4.47.05l-.59.53v7.15l.56.56h21.06c3.14-5.32,10.3-6.8,14.04-1.26,5.23,7.76-4.81,16.33-11.78,10.27-1.15-1-1.61-2.35-3.02-3h-20.31l-.56.57v12.04l.56.56h36.49l8.66-9.79c.43-.96-.43-1.84-.55-2.84-1.24-10.96,14.16-12.36,15.67-2.51.92,5.98-4.77,10.25-10.44,8.91l-10.35,12.25h-39.5c-.54.33-.52.75-.58,1.3-.39,3.31.57,6.81.37,10.13.53.35,1.11.62,1.71.8,2.34.21,6.83.03,9.42,0,.72,0,1.57-.55,2.6-.58,6.32-.21,13.7.72,19.95.39,4.43-.24,3.22-1.07,5.94-3.09,4.58-3.41,10.58-1.99,12.49,3.47,1.64,4.68-1.83,10.42-6.81,10.89-1.16.11-4.34-1.06-5.38-1.71-2.78-1.73-1.2-3.15-5.87-3.54-7.58-.63-16.06,0-23.68-.02-1.53,0-10.15-.24-10.57.37l.21,11.69c2.46-.34,4.97.33,7.32.39,2.85.07,5.66-.4,8.28-.41,7.92-.03,15.72.52,23.63.1,4.16,3.35,7.12,8.24,10.81,12.15.86.39,1.93-.22,3.08-.12,5.74.52,9.48,7.04,6.26,12.09-4.58,7.18-15.68,3.38-14.62-5.22.14-1.12.98-1.81.58-2.78l-8.28-9.81h-37.42v12.77h21.63c3.05-5.97,11.76-6.89,14.66-.37,4.42,9.93-9.84,16.09-14.66,6.39h-21.06l-.56.56v7.15l.56.57h18.81l19.92,21.08c3.17.86,5.09-.43,8.08,1.7,7.71,5.5.75,17.46-8.13,13.39-4.34-1.99-4.71-6.36-4.05-10.59l-18.27-19.38c-4.84.07-10.91-.77-15.62-.21-.55.07-.97.05-1.3.58v5.64l4.62,4.82c1.29.23,2.46-.24,3.85-.12,7.63.69,9.81,11.46,2.58,15-3.99,1.88-8.75.17-10.63-3.82-.36-.77-.6-1.6-.7-2.44-.17-1.61.74-3.37.5-4.23-1.08-1.53-2.37-2.91-3.84-4.07-1.77-.91-5.69-.44-7.66-.05v14.86l19.44,18.21c1.14.61,2.48-.33,3.7-.34,4.31-.02,8.36,4.33,7.94,8.65-1.01,10.16-15.86,9.11-15.98-.61-.02-1.28,1.06-2.43.15-3.52l-21.25-19.77v-17.48c-2.73-.6-5.55-.6-8.27,0v21.25c8.42,4.5,5.24,17.11-4.54,15.44-7.65-1.31-8.59-12.08-1.48-14.88v-21.63l-.56-.56h-11.67l-.57.56v36.86l9.9,8.57c4.01-1.06,8.45-.78,10.7,3.19,4.84,8.56-7.2,16.44-13.07,8.93-2.3-2.94-.8-6.04-1.86-7.83-.44-.74-6.66-5.36-7.93-6.46-.71-.62-3.51-2.91-3.68-3.47l-.26-39.61c-.35-.63-.85-.68-1.49-.77-1.17-.15-9.33-.12-9.99.2-.52.31-.82.89-.77,1.49l.37,36.15c3.84,2.49,5.88,5.86,4.08,10.42-3.42,8.64-17.24,5.11-14.8-5.39.71-3.08,4.43-4.05,4.74-6.55,1.27-10.63-.98-23.73.01-34.63-.03-.68-.38-1.31-.96-1.67h-10.91l-.56.56v39.87l-12.24,10.36c1.03,4.26-1.46,9.47-6.04,10.11-14.05,1.97-11.55-20.02,2.1-14.83l10.16-8.65v-37.05c-.37.12-.82-.38-.94-.38h-11.28l-.56.56v21.44c7.49,3.63,5.49,15.27-3.2,15.27s-10.68-11.62-3.2-15.27v-21.44l-.56-.56h-6.77l-.56.56v16.55c-6.66,7.5-14.55,13.8-21.64,20.89,1.17,6.14-1.9,11.49-8.63,10.89-8.95-.8-9.29-14.24-.21-15.63,1.94-.3,2.82.5,3.98.43.94-.06,12.41-10.83,14.1-12.44,2.18-2.07,4.3-4.24,6.39-6.4v-13.92c0-1.33-6.38-1.11-7.51-.73-2.09,1.52-4.04,3.22-5.84,5.07-.57,1.24.18,2.05.14,3.15-.21,7.36-9.78,10.36-14.25,4.55-2.65-3.41-2.04-8.32,1.36-10.97,1.28-1,2.84-1.57,4.46-1.64,1.33-.05,2.46.43,3.41.41,2.07-.04,4.99-4.43,6.94-5.47v-6.21h-15.23l-18.05,19.19c-.16,3.08.79,5.36-1.16,8.24-6.73,9.99-20.95-3.35-11.46-10.7,2.97-2.3,5.14-1.3,8.4-1.67l20.39-21.46h17.11v-7.9h-21.63c-3.35,6.09-12.09,6.59-14.87-.18-3.1-7.53,5.96-14.1,12.24-9.23.89.69,2.6,3.38,3.39,3.38h20.31l.57-.57v-12.03l-.57-.56h-36.49l-8.67,9.79c-.41.91.46,1.7.59,2.8,1.48,12.32-17.15,11.73-15.78.42.67-5.54,5.96-7.43,10.88-7.18,2.47-3.27,5.3-6.25,7.9-9.4.38-.46.46-1.19.92-1.72,1.55-1.77,2.45-.73,4.15-.71,8.29.08,16.68-.02,24.84.17,3.93.09,7.9-.86,11.85-.57.7-3.61.43-7.51.21-11.31-.67-.96-4.44.02-5.65.04-7.74.12-15.56-.06-23.32,0-2.82.02-5.7-.86-8.5-.22-1.69,4.63-7.99,6.01-11.83,3.21-7.56-5.51-2.34-15.89,6.68-14.2,3.43.64,4.36,4.54,6.47,4.82,2,.27,3.87-.4,5.64-.41,8.26-.06,16.63-.1,24.86,0,1.84.02,4.24,1.15,5.81-.17v-11.29c-.33-.54-.75-.52-1.3-.58-9.46-1.11-22.09.32-32,.02-2.44-.07-4.91.21-7.33-.19l-9.57-11.49c-2.03-.78-3.79.03-5.94-.83-6.14-2.43-6.32-11.63-.29-14.39,7.07-3.24,13.62,3.9,10.58,10.84l8.42,10.04h37.43v-12.22l-.57-.57h-21.06c-2.45,4.9-9.6,6.94-13.32,2.33-7.88-9.76,7.51-19.36,13.32-8.35h21.06l.57-.56v-7.15l-.57-.57h-16.93l-19.92-21.09c-2.41-1.38-5.71,1.08-9.23-2.43-3.08-3.12-3.04-8.14.07-11.21,3.12-3.08,8.14-3.04,11.21.07,1.45,1.47,2.27,3.44,2.29,5.5,0,1.04-.51,2.11-.41,2.97.25,2.16,15.65,16.2,17.53,19.37l1.09.79h14.29l.57-.56v-6.02c0-.38-4.89-4.83-5.54-5.01-1.06-.3-3.72.57-5.76.15-5.1-1.05-7.46-8.01-4.49-12.06,3.21-4.37,9.04-4.76,12.6-.57,2.85,3.36.81,5.34,1.89,7.89.12.28,4.04,3.82,4.5,4.15,2.28,1.6,5.53,1.33,8.09.75v-15.23l-19.57-18.44c-.93-.41-2.7.69-4.21.5-4.44-.53-7.62-4.56-7.09-9,.18-1.5.77-2.92,1.72-4.1,4.56-5.59,13.97-2.08,14.13,5.1.03,1.15-.93,2.5-.42,3.29l21.47,20.02v17.87c2.73.6,5.55.6,8.27,0v-21.24l-.48-.84c-7.04-2.91-5.11-13.9,2.17-14.78,4.36-.67,8.44,2.32,9.11,6.68.55,3.61-1.41,7.13-4.77,8.56v21.63c4.24.61,8.55.61,12.79,0v-37.43l-9.41-7.9c-1.38-.64-2.91.56-4.32.56-3.22,0-7.2-2.99-7.69-6.23-1.62-10.73,12.32-13.08,15.21-4.3.68,2.05.24,3.32.38,5.26l11.85,9.97v40.06ZM346.04,135.85c-1.95,0-2.59,3.67,0,3.67s1.95-3.67,0-3.67M417.6,136.57c-1.52-1.5-4.44.55-2.95,2.39,1.56,1.92,4.67-.68,2.95-2.39M382.24,147.29c1.65-1.68-.62-4.67-2.55-2.74-1.52,1.52.91,4.4,2.55,2.74M302.86,147.82c-.89.38-1.31,1.41-.92,2.31.22.52.69.91,1.24,1.03.95.2,1.88-.4,2.09-1.35.2-.95-.4-1.88-1.35-2.09-.36-.08-.73-.04-1.06.1M460.1,148.23c-.96-.96-3.33-.47-3.25,1.22.17,3.59,5.49,1.01,3.25-1.22M343.49,159.85c-3.06.84-.32,5.32,1.78,2.93.64-.77.53-1.92-.24-2.56-.43-.36-1-.49-1.54-.38M419.47,163.08c.79-.69.87-1.88.19-2.67-.65-.75-1.77-.87-2.57-.27-1.81,1.44.84,4.4,2.38,2.94M273.5,177.16c-1.31.46-1.28,3.04.32,3.33,3.46.64,2.96-4.49-.32-3.33M488.12,180.39c1.89,1.9,4.21-1.49,2.39-2.95-1.99-1.59-3.93,1.41-2.39,2.95M307.79,181.67c-1.03-1.65-4.72.23-2.98,2.42,1.45,1.83,4.08-.67,2.98-2.42M455.19,180.91c-2.89.83-.16,5.74,2.02,2.8,1.03-1.39-.59-3.21-2.02-2.8M321.77,196.66c-.19.67-.32,1.36-.4,2.05-1.93,24.5,1.94,51,0,75.6,1.13,12.84-1.44,28.12,0,40.66.05.4,0,.89.38,1.14.57-.03,1.14.02,1.7.16h116.61v-119.61h-118.3ZM287.45,217.81c-2.23-2.24-4.81,3.08-1.22,3.25,1.7.08,2.17-2.29,1.22-3.25M477.06,217.79c-1.75-1.1-4.25,1.52-2.42,2.98,2.19,1.74,4.07-1.94,2.42-2.98M260.93,222.52c1.56,1.53,4.53-.39,2.95-2.39-1.42-1.8-4.74.63-2.95,2.39M498.28,220.07c-1.34,1.34.37,4.01,2.17,3.12,2.51-1.26-.21-5.07-2.17-3.12M269.76,254.63c-1.21.34-1.99,2.67-.16,3.43,3.38,1.41,3.4-4.35.16-3.43M490.92,255.01c-.78.37-1.12,1.31-.74,2.1.26.55.82.9,1.43.9,3.03.19,1.81-3.84-.68-2.99M263.75,292.85c1.41-1.42-.54-4.43-2.52-2.71-2.03,1.75,1.09,4.15,2.52,2.71M501.11,292.85c1.21-1.36-.77-4.3-2.74-2.54-1.86,1.66,1.13,4.35,2.74,2.54M284.97,295.15c1.73,1.09,4.27-1.52,2.43-2.99-2.35-1.87-3.74,2.17-2.43,2.99M474.58,295.12c2.23,2.24,4.81-3.08,1.22-3.25-1.7-.08-2.17,2.29-1.22,3.25M455.59,328.4c-2.3-2.29-4.58,2.79-1.55,3.18,1.03.11,1.96-.64,2.07-1.67.06-.56-.13-1.11-.52-1.51M307.02,331.24c1.11-1.89-1.56-4.16-2.96-2.4-1.67,2.1,1.88,4.24,2.96,2.4M273.9,332.13c-3.25.89.05,5.79,2.01,2.79.54-.87.27-2.02-.6-2.56-.42-.26-.93-.34-1.41-.23M490.98,332.89c-1.04-1.65-4.72.23-2.98,2.42,1.45,1.83,4.08-.67,2.98-2.42M345.39,350.21c-1.05-1.83-4.85-.04-2.96,2.4,1.35,1.75,4.07-.46,2.96-2.4M417.58,349.42c-2.22.65-1.21,4.51,1.37,3.66,1.84-.61.86-4.32-1.37-3.66M303.22,361.11c-1.01.11-1.74,1.01-1.64,2.03.07.63.45,1.18,1.02,1.46,3.15,1.43,3.44-3.74.62-3.49M458.21,361.07c-1.87.48-2.09,4.11.65,3.73,2.47-.34,1.13-4.18-.65-3.73M382.24,365.64c-1.91-1.84-4.5,1.94-2.16,3.1.92.5,2.07.17,2.58-.75.43-.78.26-1.76-.42-2.35M344.97,373.5c-.87.46-1.21,1.55-.74,2.42.29.54.82.89,1.43.94,3.33.17,2.46-4.47-.69-3.37M415.33,373.51c-2.04.61-.96,4.42,1.62,3.14,1.88-.94.66-3.81-1.62-3.14"/>
        <path id="Path_16333" data-name="Path 16333" class="cls-1" d="M335.88,210.57h90.28c.54.33.52.75.58,1.3,1.43,12.17-1.42,26.76.38,39.14-.59,7.61-.38,15.33-.42,22.93-.04,8.15.94,19.4.04,27.12-.07.55-.05.97-.58,1.3h-90.28c-.54-.33-.52-.75-.58-1.3-.95-8.12.13-19.67.04-28.24-.22-20.28-.24-40.59-.04-60.94l.58-1.3ZM420.7,296.33l-.19-79.74h-78.99l-.19,79.74h79.37Z"/>
        <path id="Path_16334" data-name="Path 16334" class="cls-1" d="M379.65,267.8h-12.7c-.57,1.93-2.45,8.51-3.97,9.37-1.7.92-3.81.29-4.73-1.41-.13-.24-.23-.5-.3-.77-.33-1.62,1.56-5.08,2.07-6.81,3.05-10.32,6.46-20.46,9.98-30.64.7-1.81,2.73-2.72,4.54-2.02.85.33,1.54.97,1.92,1.79l11.8,35.22c1.49,4.46-3.73,7.21-6,3-.61-1.14-2.26-7.51-2.61-7.74M369.55,260.98h7.52l-3.95-11.29c-1.24,3.72-3.21,7.3-3.58,11.29"/>
        <path id="Path_16335" data-name="Path 16335" class="cls-1" d="M400.3,235.47c2.33-.28,3.67,1.33,3.87,3.49,1.03,11.22-.82,24-.01,35.38.07,3.25-5.05,4.27-6.21,1.68-.29-1.68-.49-3.37-.6-5.07,0-.88.42-1.72.42-2.62.01-10.17-.03-20.33-.04-30.5-.01-1.29,1.43-2.22,2.56-2.36"/>
      </g>
    </g>
  </g>
</svg>