<svg width="36" height="36" viewBox="0 0 36 36" fill="none" xmlns="http://www.w3.org/2000/svg">
<g clip-path="url(#clip0_142_1822)">
<path d="M36 31C36 32.3261 35.4732 33.5979 34.5355 34.5355C33.5979 35.4732 32.3261 36 31 36H5C3.67392 36 2.40215 35.4732 1.46447 34.5355C0.526784 33.5979 0 32.3261 0 31V5C0 3.67392 0.526784 2.40215 1.46447 1.46447C2.40215 0.526784 3.67392 0 5 0H31C32.3261 0 33.5979 0.526784 34.5355 1.46447C35.4732 2.40215 36 3.67392 36 5V31Z" fill="#0288D1"/>
<path d="M6.00048 12.9999H11.0005V29.9999H6.00048V12.9999ZM8.48548 10.9999H8.45748C8.12867 11.009 7.80151 10.9503 7.49643 10.8273C7.19135 10.7043 6.91489 10.5198 6.68433 10.2852C6.45376 10.0506 6.27404 9.77096 6.15638 9.46379C6.03872 9.15662 5.98565 8.82849 6.00048 8.49989C5.98619 8.16657 6.04155 7.83394 6.16302 7.52322C6.28449 7.21251 6.46941 6.93053 6.70597 6.69528C6.94253 6.46004 7.22554 6.2767 7.53693 6.15696C7.84832 6.03723 8.18125 5.98373 8.51448 5.99989C8.84541 5.98772 9.17528 6.04417 9.48333 6.16569C9.79138 6.28721 10.0709 6.47116 10.3044 6.70598C10.5379 6.9408 10.7203 7.2214 10.8401 7.53012C10.9599 7.83885 11.0145 8.16903 11.0005 8.49989C11.0137 8.83301 10.9576 9.16526 10.8357 9.47556C10.7138 9.78586 10.5287 10.0674 10.2923 10.3025C10.0558 10.5375 9.77314 10.7209 9.46212 10.8409C9.1511 10.961 8.81852 11.0151 8.48548 10.9999ZM30.0005 29.9999H25.0005V20.8999C25.0005 18.6999 23.7755 17.1999 21.8085 17.1999C21.2053 17.2046 20.619 17.3995 20.1329 17.7568C19.6469 18.1141 19.286 18.6156 19.1015 19.1899C18.9918 19.7866 18.9579 20.3947 19.0005 20.9999V29.9999H14.0005V12.9999H19.0005V15.6159C19.4614 14.7758 20.1514 14.084 20.9902 13.6209C21.829 13.1577 22.782 12.9424 23.7385 12.9999C27.3165 12.9999 30.0005 15.2499 30.0005 20.2739V29.9999Z" fill="white"/>
</g>
<defs>
<clipPath id="clip0_142_1822">
<rect width="36" height="36" fill="white"/>
</clipPath>
</defs>
</svg>
