<svg width="36" height="36" viewBox="0 0 36 36" fill="none" xmlns="http://www.w3.org/2000/svg">
<g clip-path="url(#clip0_142_1826)">
<path d="M30 0H6C2.68629 0 0 2.68629 0 6V30C0 33.3137 2.68629 36 6 36H30C33.3137 36 36 33.3137 36 30V6C36 2.68629 33.3137 0 30 0Z" fill="#385997"/>
<path d="M27.7276 18.5589H22.5626V14.7059C22.5626 13.7629 23.6676 13.6919 24.0086 13.6919H27.5216V8.41895H24.0086C20.1186 8.41895 17.1896 11.1189 17.1896 14.7059V18.5589H12.8506V23.8319H17.1896V36.0009H22.5616V23.8319H26.9006L27.7276 18.5589Z" fill="white"/>
</g>
<defs>
<clipPath id="clip0_142_1826">
<rect width="36" height="36.001" fill="white"/>
</clipPath>
</defs>
</svg>
