<svg width="56" height="50" viewBox="0 0 56 50" fill="none" xmlns="http://www.w3.org/2000/svg">
<path d="M33.4084 45.6462H55.9836V49.9993H-0.00292969V45.6462H3.38335V31.8253C3.38335 31.205 4.28411 30.8872 4.8372 30.8328C5.83954 30.7348 10.3817 30.5107 10.3817 31.8253V45.6462H14.8967V25.078C14.8967 25.0258 15.3415 24.3728 15.4453 24.301C15.8381 24.0268 20.1996 23.9789 20.8746 24.103C21.1704 24.1574 21.895 24.7167 21.895 24.8604V45.6462H26.4101V18.1132C26.4101 17.9695 27.137 17.4101 27.4305 17.3557C28.2093 17.2121 32.4873 17.2447 32.9524 17.6822C33.0653 17.7867 33.4084 18.4527 33.4084 18.5485V45.6462Z" fill="#070748"/>
<path d="M52.2646 16.8667C51.4203 16.4814 50.5737 16.0962 49.7294 15.7109C49.375 15.7262 49.0228 15.7414 48.6684 15.7545C47.9776 16.1832 47.2845 16.6142 46.5937 17.043C46.4967 17.0734 46.3996 17.1017 46.3025 17.1322C46.2054 17.1017 46.1084 17.0734 46.0113 17.043C45.3205 16.6142 44.6274 16.1832 43.9366 15.7545C43.5822 15.7392 43.23 15.724 42.8756 15.7109C42.0313 16.0962 41.1847 16.4814 40.3404 16.8667C39.0965 18.5557 37.8503 20.2446 36.6064 21.9336C37.4508 23.7271 38.2973 25.5184 39.1416 27.3118C39.1936 27.3467 39.8934 27.7972 40.6632 27.4903C41.2163 27.2683 41.4443 26.8004 41.494 26.6893C41.0176 25.2659 40.5413 23.8446 40.065 22.4212C40.4962 21.9924 40.9251 21.5614 41.3563 21.1327C41.3405 21.7987 41.3247 22.4669 41.3111 23.1329C41.6498 24.0079 41.9884 24.8807 42.3248 25.7556C42.3925 25.8775 42.4828 26.0756 42.5099 26.3324C42.5505 26.7372 42.4105 27.0441 42.3248 27.2204C42.0268 27.8473 41.4737 28.165 41.2434 28.2804C41.3879 33.158 41.5346 38.0334 41.6791 42.911C41.6926 42.9828 41.7987 43.5444 42.3248 43.799C42.6702 43.9666 42.9975 43.91 43.1081 43.8883C43.8621 43.7424 44.1849 42.985 44.2143 42.911C44.6297 39.2958 45.0451 35.6806 45.4582 32.0654C45.4469 31.7215 45.6027 31.4124 45.8736 31.2644C46.0406 31.1752 46.2077 31.1686 46.3025 31.1752C46.3996 31.1686 46.5644 31.1752 46.7314 31.2644C47.0023 31.4102 47.1581 31.7215 47.1468 32.0654C47.5622 35.6806 47.9776 39.2958 48.3907 42.911C48.4223 42.9872 48.7429 43.7446 49.4969 43.8883C49.6075 43.91 49.9371 43.9688 50.2803 43.799C50.804 43.5422 50.9124 42.9807 50.9259 42.911C51.0704 38.0334 51.2171 33.158 51.3616 28.2804C51.1291 28.1629 50.5783 27.8473 50.2803 27.2204C50.1967 27.0441 50.0545 26.7372 50.0951 26.3324C50.1222 26.0756 50.2125 25.8753 50.2803 25.7556C50.6189 24.8807 50.9575 24.0079 51.2939 23.1329C51.2781 22.4669 51.2623 21.7987 51.2487 21.1327C51.6799 21.5614 52.1089 21.9924 52.54 22.4212C52.0637 23.8446 51.5874 25.2659 51.111 26.6893C51.1607 26.7982 51.3864 27.2683 51.9418 27.4903C52.7116 27.7994 53.4114 27.3467 53.4634 27.3118C54.3077 25.5184 55.1543 23.7271 55.9986 21.9336C54.7547 20.2446 53.5085 18.5557 52.2646 16.8667Z" fill="#070748"/>
<path d="M46.3033 14.6375C48.3057 14.6375 49.9289 13.0725 49.9289 11.142C49.9289 9.21147 48.3057 7.64648 46.3033 7.64648C44.301 7.64648 42.6777 9.21147 42.6777 11.142C42.6777 13.0725 44.301 14.6375 46.3033 14.6375Z" fill="#070748"/>
<path d="M1.2775 24.4869C4.65476 22.8871 7.31186 21.2982 9.17206 20.0903C12.5358 17.9094 17.4233 14.6838 21.83 9.06615C22.9497 7.63835 23.7692 6.3999 24.2794 5.58806C23.5999 5.12881 22.9181 4.66956 22.2386 4.21031C22.2228 4.20378 22.0241 4.12108 21.9812 3.91213C21.9519 3.76413 22.0106 3.60959 22.137 3.51382L30.228 0.0944984C30.3725 -0.00997494 30.5643 -0.0295637 30.7269 0.0444383C30.9707 0.155441 31.0023 0.414448 31.0023 0.425331C31.4335 3.26352 31.8624 6.10172 32.2936 8.93991C32.271 9.00303 32.2033 9.15974 32.0362 9.27292C31.7631 9.45357 31.4583 9.36869 31.4154 9.35563C30.7562 9.01827 30.0948 8.6809 29.4356 8.34354C28.7606 9.11186 27.7989 10.1609 26.5776 11.3472C25.749 12.1525 22.2228 15.5261 16.5203 19.0455C13.2085 21.0893 8.36387 23.6772 2.02249 25.7949C1.63419 26.0278 1.14205 25.9212 0.923074 25.6078C0.677004 25.2573 0.814713 24.7067 1.2775 24.4869Z" fill="#070748"/>
</svg>
