<svg width="45" height="35" viewBox="0 0 45 35" fill="none" xmlns="http://www.w3.org/2000/svg">
<g clip-path="url(#clip0_142_1814)">
<path d="M36.5054 19.2942V15.7933H44.9999V19.2942H36.5054ZM39.1889 34.9991L32.3939 29.934L34.5352 27.1437L41.3302 32.2044L39.1889 34.9991ZM34.4452 7.85225L32.3039 5.06125L39.0989 -0.00390625L41.2409 2.78713L34.4452 7.85225ZM6.64119 32.6662V23.5571H4.24644C3.68787 23.5655 3.13351 23.46 2.61754 23.2474C2.10158 23.0347 1.63495 22.7193 1.24644 22.3206C0.84503 21.9348 0.52747 21.4713 0.313344 20.9589C0.099219 20.4465 -0.00693493 19.8959 0.00143575 19.3411V15.7516C-0.00693493 15.1969 0.099219 14.6463 0.313344 14.1339C0.52747 13.6214 0.84503 13.158 1.24644 12.7722C1.63495 12.3735 2.10158 12.0581 2.61754 11.8454C3.13351 11.6328 3.68787 11.5273 4.24644 11.5356H13.3282L23.8552 5.29884V29.7984L13.3282 23.5616H10.1654V32.6706L6.64119 32.6662ZM20.3309 23.5787V11.5163L14.3039 15.0343H4.24719C4.15337 15.0361 4.06089 15.0568 3.9754 15.0952C3.8899 15.1336 3.81319 15.1889 3.74994 15.2578C3.68062 15.3206 3.62493 15.3968 3.58625 15.4817C3.54756 15.5666 3.5267 15.6585 3.52494 15.7516V19.3411C3.5268 19.4342 3.54771 19.5259 3.58639 19.6107C3.62507 19.6955 3.68071 19.7715 3.74994 19.8342C3.81319 19.9031 3.8899 19.9584 3.9754 19.9968C4.06089 20.0352 4.15337 20.056 4.24719 20.0577H14.3039L20.3309 23.5757V23.5787ZM27.1079 24.8257V10.2694C28.0637 11.145 28.8228 12.211 29.3354 13.3978C29.9088 14.705 30.1968 16.118 30.1807 17.5438C30.1968 18.9696 29.9088 20.3825 29.3354 21.6897C28.8233 22.8781 28.0642 23.9457 27.1079 24.8227V24.8257Z" fill="#2256A8"/>
</g>
<defs>
<clipPath id="clip0_142_1814">
<rect width="45" height="35" fill="white"/>
</clipPath>
</defs>
</svg>
