<svg xmlns="http://www.w3.org/2000/svg" width="26" height="20.526" viewBox="0 0 26 20.526">
  <path id="mail_24dp_000000_FILL0_wght300_GRAD0_opsz24_1_" data-name="mail_24dp_000000_FILL0_wght300_GRAD0_opsz24 (1)" d="M102.474-759.474a2.387,2.387,0,0,1-1.755-.719,2.387,2.387,0,0,1-.718-1.755v-15.579a2.388,2.388,0,0,1,.718-1.755,2.388,2.388,0,0,1,1.755-.719h21.052a2.388,2.388,0,0,1,1.755.719,2.388,2.388,0,0,1,.718,1.755v15.579a2.387,2.387,0,0,1-.718,1.755,2.387,2.387,0,0,1-1.755.719Zm10.526-9.5-10.947-7v14.026a.409.409,0,0,0,.118.3.41.41,0,0,0,.3.118h21.052a.41.41,0,0,0,.3-.118.409.409,0,0,0,.118-.3v-14.026Zm0-2.132,10.737-6.842H102.263Zm-10.947-4.868v14.026a.409.409,0,0,0,.118.3.41.41,0,0,0,.3.118h-.421Z" transform="translate(-100 780)" fill="#070748"/>
</svg>
