<svg width="35" height="36" viewBox="0 0 35 36" fill="none" xmlns="http://www.w3.org/2000/svg">
<g clip-path="url(#clip0_234_634)">
<path d="M32.603 17.3174C32.5509 13.5571 30.9699 9.97009 28.2059 7.34136C25.5041 4.65222 21.8174 3.11392 17.9527 3.06308V0C20.3232 0.0353986 22.6622 0.533425 24.8312 1.46459C26.9173 2.35541 28.8155 3.61495 30.4295 5.1793C32.0371 6.74944 33.3313 8.59613 34.2466 10.6256C35.2039 12.7359 35.7161 15.0117 35.7526 17.3181L32.603 17.3174ZM24.2085 17.3174C24.1122 15.7328 23.4157 14.2392 22.2536 13.1251C21.1181 11.9884 19.5827 11.3117 17.9557 11.2308V8.16769C20.4214 8.23502 22.7627 9.23595 24.4815 10.9574C26.2455 12.6386 27.2763 14.9162 27.3595 17.3174H24.2085ZM33.4437 35.2238C29.3167 35.1857 25.2483 34.2696 21.5237 32.5397C17.4194 30.673 13.6903 28.1087 10.5118 24.9673C7.29442 21.872 4.66608 18.2467 2.74857 14.2593C0.971747 10.6407 0.031136 6.68723 -0.00714322 2.677C-0.0144155 2.39202 0.03764 2.10855 0.145894 1.84366C0.254148 1.57876 0.416359 1.33792 0.622771 1.13561C0.826821 0.931854 1.07201 0.771415 1.34291 0.664359C1.61381 0.557303 1.90456 0.505951 2.19685 0.513566H9.0434C9.55883 0.508364 10.0581 0.688182 10.4459 1.01866C10.8402 1.3379 11.1124 1.77723 11.2184 2.2656L12.4218 8.27338C12.5087 8.75064 12.4909 9.24038 12.3697 9.71049C12.259 10.0987 12.0379 10.4487 11.7318 10.72L6.88502 15.3111C7.66177 16.6963 8.55619 18.0159 9.55892 19.2561C10.5694 20.5036 11.6575 21.6896 12.8171 22.8074C13.9676 23.9274 15.1945 24.9705 16.4895 25.9296C17.8251 26.9154 19.2281 27.8114 20.6889 28.6116L25.3952 23.9895C25.7223 23.6577 26.134 23.4163 26.5884 23.29C27.0605 23.1563 27.5565 23.1229 28.043 23.1921L33.8708 24.3467C34.3785 24.4689 34.833 24.7453 35.1683 25.1357C35.4953 25.5044 35.6738 25.976 35.6708 26.4629V33.085C35.6786 33.3694 35.6259 33.6523 35.5158 33.9158C35.4058 34.1794 35.2409 34.418 35.0315 34.6165C34.8227 34.8168 34.5743 34.9738 34.3014 35.0782C34.0285 35.1826 33.7367 35.2321 33.4437 35.2238ZM5.38987 12.4086L9.13535 8.92148C9.2039 8.8667 9.25033 8.79009 9.2664 8.7052C9.28764 8.62238 9.28564 8.53553 9.26061 8.45371L8.34831 3.8901C8.32923 3.79865 8.27959 3.71593 8.20713 3.65481C8.13181 3.59973 8.03916 3.57184 7.94503 3.57591H3.45596C3.41854 3.57496 3.3813 3.58148 3.34656 3.59505C3.31182 3.60861 3.28031 3.62895 3.25395 3.65481C3.22753 3.68054 3.20678 3.71127 3.19296 3.74506C3.17914 3.77886 3.17255 3.815 3.17358 3.85136C3.28724 5.28522 3.52263 6.70749 3.87735 8.10358C4.25203 9.57921 4.7591 11.02 5.39277 12.4093L5.38987 12.4086ZM23.6481 30.0558C25.042 30.6875 26.5012 31.1726 28.001 31.5028C29.3926 31.8197 30.8098 32.0186 32.2367 32.0973C32.2741 32.0983 32.3113 32.0918 32.3461 32.0782C32.3808 32.0646 32.4123 32.0443 32.4387 32.0184C32.4653 31.9928 32.4862 31.9621 32.5001 31.9283C32.5141 31.8945 32.5208 31.8583 32.5198 31.8219V27.5246C32.524 27.433 32.4953 27.3428 32.4387 27.2695C32.3759 27.199 32.2908 27.1507 32.1969 27.1322L27.7896 26.26C27.7219 26.2342 27.6474 26.2307 27.5775 26.2502C27.5044 26.278 27.4388 26.3216 27.3856 26.3777L23.6481 30.0529V30.0558Z" fill="#2256A8"/>
</g>
<defs>
<clipPath id="clip0_234_634">
<rect width="34.7919" height="35.2238" fill="white" transform="translate(-0.00683594)"/>
</clipPath>
</defs>
</svg>
