<svg xmlns="http://www.w3.org/2000/svg" width="26" height="21.393" viewBox="0 0 26 21.393">
  <path id="engineering_24dp_000000_FILL0_wght300_GRAD0_opsz24" d="M59.31-807.067v-2.748a3.108,3.108,0,0,1,.478-1.678,3.242,3.242,0,0,1,1.333-1.193,17.753,17.753,0,0,1,3.447-1.288,15.508,15.508,0,0,1,4.013-.509,15.506,15.506,0,0,1,4.012.509,17.753,17.753,0,0,1,3.447,1.288,3.242,3.242,0,0,1,1.333,1.193,3.106,3.106,0,0,1,.478,1.678v2.748Zm1.854-1.854H76v-.894a1.162,1.162,0,0,0-.23-.725,1.788,1.788,0,0,0-.579-.492,16.711,16.711,0,0,0-2.882-1.089,13.261,13.261,0,0,0-3.726-.509,13.262,13.262,0,0,0-3.726.509,16.711,16.711,0,0,0-2.882,1.089,1.788,1.788,0,0,0-.579.492,1.163,1.163,0,0,0-.229.725Zm7.416-7.559a4.177,4.177,0,0,1-3.07-1.256,4.263,4.263,0,0,1-1.256-3.141h-.285a.534.534,0,0,1-.395-.152.533.533,0,0,1-.152-.394.534.534,0,0,1,.152-.395.533.533,0,0,1,.395-.152h.285a4.517,4.517,0,0,1,.537-2.1,4.791,4.791,0,0,1,1.459-1.613v1.174a.533.533,0,0,0,.152.395.533.533,0,0,0,.395.152.533.533,0,0,0,.394-.152.533.533,0,0,0,.152-.395v-1.645a3.936,3.936,0,0,1,.581-.151,3.574,3.574,0,0,1,.655-.058,3.574,3.574,0,0,1,.655.058,3.949,3.949,0,0,1,.581.151v1.645a.534.534,0,0,0,.152.395.533.533,0,0,0,.395.152.533.533,0,0,0,.395-.152.534.534,0,0,0,.152-.395v-1.174a4.686,4.686,0,0,1,1.465,1.613,4.558,4.558,0,0,1,.532,2.1h.285a.534.534,0,0,1,.395.152.534.534,0,0,1,.152.395.533.533,0,0,1-.152.394.534.534,0,0,1-.395.152h-.285a4.262,4.262,0,0,1-1.256,3.141A4.176,4.176,0,0,1,68.58-816.48Zm0-1.854a2.389,2.389,0,0,0,1.758-.714,2.39,2.39,0,0,0,.714-1.758H66.108a2.39,2.39,0,0,0,.714,1.758A2.39,2.39,0,0,0,68.58-818.334Zm9.294,4.255-.138-.9a2.529,2.529,0,0,1-.421-.169,1.464,1.464,0,0,1-.378-.274l-.841.333-.547-.97.7-.571a1.107,1.107,0,0,1-.024-.221v-.436a1.267,1.267,0,0,1,.024-.227l-.7-.57.547-.97.841.333a1.515,1.515,0,0,1,.368-.264,2.363,2.363,0,0,1,.43-.178l.138-.9h1.093l.138.9a2.364,2.364,0,0,1,.43.178,1.515,1.515,0,0,1,.368.264l.841-.333.547.97-.7.57a1.266,1.266,0,0,1,.024.227v.436a1.106,1.106,0,0,1-.024.221l.7.571-.547.97-.841-.333a1.471,1.471,0,0,1-.378.274,2.528,2.528,0,0,1-.421.169l-.138.9Zm.547-1.973a.984.984,0,0,0,.72-.3.983.983,0,0,0,.3-.72.983.983,0,0,0-.3-.72.983.983,0,0,0-.72-.3.983.983,0,0,0-.72.3.983.983,0,0,0-.3.72.983.983,0,0,0,.3.72A.984.984,0,0,0,78.421-816.052Zm2.367-4.469-.176-1.131a2.574,2.574,0,0,1-.623-.255,1.913,1.913,0,0,1-.518-.42l-1.108.409-.7-1.2.932-.76a1.172,1.172,0,0,1-.074-.307q-.012-.14-.012-.307t.012-.307a1.171,1.171,0,0,1,.074-.307l-.932-.76.7-1.2,1.108.409a1.913,1.913,0,0,1,.518-.42,2.574,2.574,0,0,1,.623-.255l.176-1.131h1.4l.176,1.131a2.574,2.574,0,0,1,.623.255,1.913,1.913,0,0,1,.518.42l1.108-.409.7,1.2-.932.76a1.173,1.173,0,0,1,.074.307q.012.14.012.307t-.012.307a1.173,1.173,0,0,1-.074.307l.932.76-.7,1.2-1.108-.409a1.913,1.913,0,0,1-.518.42,2.574,2.574,0,0,1-.623.255l-.176,1.131Zm.7-2.353a1.563,1.563,0,0,0,1.15-.466,1.562,1.562,0,0,0,.466-1.15,1.563,1.563,0,0,0-.466-1.151,1.563,1.563,0,0,0-1.15-.466,1.563,1.563,0,0,0-1.15.466,1.563,1.563,0,0,0-.466,1.151,1.563,1.563,0,0,0,.466,1.15A1.563,1.563,0,0,0,81.488-822.874ZM68.58-808.921Z" transform="translate(-59.31 828.46)" fill="#070748"/>
</svg>
