<svg xmlns="http://www.w3.org/2000/svg" xmlns:xlink="http://www.w3.org/1999/xlink" width="133.999" height="40" viewBox="0 0 133.999 40">
  <defs>
    <clipPath id="clip-path">
      <path id="Path_15044" data-name="Path 15044" d="M5.946,4.3A4.235,4.235,0,0,0,4.14,6.435a10.517,10.517,0,0,0-1.075,4.947c.011,2.028.3,1.493.516,3.365a8.638,8.638,0,0,0,1.505,4.045c.871,1.382,2.838,4.568,5.5,3.688a9.157,9.157,0,0,0,1.655-.713c.011-.011.387,3.566.29,3.6-1.741.591-2.913.5-5.192.68a4.883,4.883,0,0,0-3.117,1.827,7.349,7.349,0,0,1-3.3-5.215c-.849-4.825,2.429-6.351,1.967-8.39S.292,10.936.045,8.217a5.173,5.173,0,0,1,3.73-5.861,8,8,0,0,1,2.171-.4S6.978-.329,11.9.061c5.74.457,7.159,2.93,7.826,4.914,1.032,3.109.892,5.415,1.989,7.3,2.182,3.766,3.3,4.223,3.719,7.532.677,5.393-4.794,8.156-5.106,7.956a5.676,5.676,0,0,1-2.956-4.078c-.505-2.184-1-8.446-1-8.446A4.537,4.537,0,0,0,17.6,13.866c.344-.6.677-1.783.183-2.362a1.163,1.163,0,0,0-1.924.256,4.164,4.164,0,0,0-.516,1.215,6.668,6.668,0,0,1-.494-.691,6.169,6.169,0,0,0-1.172-1.359c-1.6-1.315-3.139-1.482-5.1-3.12C6.258,5.844,5.946,4.3,5.946,4.3Z"/>
    </clipPath>
  </defs>
  <g id="alyson_ai-01_1_" data-name="alyson ai-01 (1)" transform="translate(-114.8 -176.5)">
    <g id="Logo_main" transform="translate(114.8 176.5)">
      <g id="Group_10232" data-name="Group 10232" transform="translate(0 0)">
        <ellipse id="Ellipse_1036" data-name="Ellipse 1036" cx="20" cy="20" rx="20" ry="20" fill="#ffb500"/>
        <g id="Layer15_00000180337609550408554980000002373078156425038262_" transform="translate(3.491 1.093) rotate(3.803)">
          <g id="Group_10200" data-name="Group 10200" transform="translate(0 0.051)">
            <path id="Path_15125" data-name="Path 15125" d="M17.709.026A17.685,17.685,0,1,1,.025,17.71,17.684,17.684,0,0,1,17.709.026Z" transform="translate(0 0)" fill="#f5f5f5"/>
          </g>
          <g id="Group_10201" data-name="Group 10201" transform="translate(7.699 6.024)">
            <path id="Path_15031" data-name="Path 15031" d="M3.6.01C3.333-.124.328,2.441.038,4.983s1.592,11.83,1.592,11.83l7.114,3.88,5.822,1.438,2.36-3.847L16.848,6.1C16.837,6.109,3.857.144,3.6.01Z" transform="translate(0 0)" fill="#f5cfc1" fill-rule="evenodd"/>
          </g>
          <g id="Group_10207" data-name="Group 10207" transform="translate(10.841 19.074)">
            <g id="Group_10202" data-name="Group 10202" transform="matrix(0.996, 0.085, -0.085, 0.996, 1.391, 0.781)">
              <path id="Path_15032" data-name="Path 15032" d="M0,1.233A11.419,11.419,0,0,1,1.462.721C2,.576,2.528.42,3.04.231,3.2.175,3.53-.025,3.7.008c.032.011-.075.356-.085.389a3.507,3.507,0,0,1-.629.99A1.756,1.756,0,0,1,0,1.233Z" transform="translate(0 0)" fill="#fff" fill-rule="evenodd"/>
            </g>
            <g id="Group_10203" data-name="Group 10203" transform="matrix(0.996, 0.085, -0.085, 0.996, 0.387, 0.001)">
              <path id="Path_15033" data-name="Path 15033" d="M.066,1.633c.064-.044.426.189.6.078.149-.1.192-.323.384-.456.107-.078.522,0,.65-.045.171-.045.363-.334.661-.378A26.442,26.442,0,0,0,4.991.475,1.51,1.51,0,0,0,5.525.253c.245-.167.256-.3.341-.222.117.111-.011.267-.139.345A3.068,3.068,0,0,1,4.97.7,20.48,20.48,0,0,1,2.187,1.733a6.223,6.223,0,0,1-1.9.134C.045,1.833-.083,1.733.066,1.633Z" transform="translate(0 0)" fill="#cc586e" fill-rule="evenodd"/>
            </g>
            <g id="Group_10204" data-name="Group 10204" transform="matrix(0.996, 0.085, -0.085, 0.996, 1.03, 0.348)">
              <path id="Path_15034" data-name="Path 15034" d="M.282,1.476a8.33,8.33,0,0,0,.789.478,1.316,1.316,0,0,0,1.364.211C3.054,1.842,3.672.764,4.152.452c.149-.1.661-.467.661-.445a3.677,3.677,0,0,0-.6.912c-.235.612-.693,2.013-1.887,2.191A2.169,2.169,0,0,1,.506,2.132C.314,1.91.175,1.743,0,1.554-.027,1.532.229,1.51.282,1.476Z" transform="translate(0 0)" fill="#cc586e" fill-rule="evenodd"/>
            </g>
            <g id="Group_10205" data-name="Group 10205" transform="translate(5.771 0.333) rotate(-10.983)">
              <path id="Path_15035" data-name="Path 15035" d="M0,.058C-.021.147.225.214.359.4.47.559.5.815.593.8.738.782.637.37.481.192.37.07.046-.086,0,.058Z" transform="translate(0 0)" fill="#cc586e" fill-rule="evenodd"/>
            </g>
            <g id="Group_10206" data-name="Group 10206" transform="matrix(-0.751, 0.66, -0.66, -0.751, 0.725, 1.825)">
              <path id="Path_15036" data-name="Path 15036" d="M0,.535C-.017.446.09.457.2.257.291.1.291-.01.359,0,.484.024.417.2.321.4S.032.68,0,.535Z" transform="translate(0 0)" fill="#cc586e" fill-rule="evenodd"/>
            </g>
          </g>
          <g id="Group_10211" data-name="Group 10211" transform="translate(10.643 5.413)">
            <g id="Group_10208" data-name="Group 10208" transform="translate(0 0)">
              <path id="Path_15037" data-name="Path 15037" d="M0,.965C.591,4.122,2.325,5.84,5.794,6.743A37.46,37.46,0,0,1,9.853,8.919c.545.279-.945-2.889-1.59-3.637A22.006,22.006,0,0,0,3.437.9C2.5.329.368-.831,0,.965Z" fill="#ed9d82" fill-rule="evenodd"/>
            </g>
            <g id="Group_10209" data-name="Group 10209" transform="translate(6.26 17.23) rotate(8.958)">
              <path id="Path_15038" data-name="Path 15038" d="M0,2.437c.545-.145.834-.713,1.489-1.36.2-.19.844-1.282.867-1.037A3.274,3.274,0,0,1,1.138,2.816c-.133.123-.434.189-.589.424C.5,3.318.049,2.872,0,2.437Z" transform="translate(0 0)" fill="#ed9d82" fill-rule="evenodd"/>
            </g>
            <g id="Group_10210" data-name="Group 10210" transform="translate(10.709 8.76)">
              <path id="Path_15039" data-name="Path 15039" d="M1.034.113A3.675,3.675,0,0,0,.233.6a.726.726,0,0,0-.156.837c.3.58.645.892.734-.39C.856.47,1.323.236,1.245,0" transform="translate(0 0)" fill="#ed9d82" fill-rule="evenodd"/>
            </g>
          </g>
          <g id="Group_10212" data-name="Group 10212" transform="translate(13.001 11.655)">
            <path id="Path_15040" data-name="Path 15040" d="M.095,1.411C.452,1.488.43.979,2.126.525A7.982,7.982,0,0,1,4.37.37,4.445,4.445,0,0,0,2.64,0,3.661,3.661,0,0,0,.854.492C.273.835-.207,1.345.095,1.411Z" transform="translate(0 0)" fill="#07074b" fill-rule="evenodd"/>
          </g>
          <g id="Group_10213" data-name="Group 10213" transform="translate(10.937 13.361) rotate(166.518)">
            <path id="Path_15041" data-name="Path 15041" d="M.093.016c.234-.122.491.49,1.819.691A5.605,5.605,0,0,0,3.63.653c.011,0-.178.567-1.2.577A3.436,3.436,0,0,1,.808.851C.406.661-.241.194.093.016Z" transform="translate(0 0)" fill="#07074b" fill-rule="evenodd"/>
          </g>
          <g id="Group_10218" data-name="Group 10218" transform="translate(5.097 2.779)">
            <path id="Path_15042" data-name="Path 15042" d="M5.946,4.3A4.235,4.235,0,0,0,4.14,6.435a10.517,10.517,0,0,0-1.075,4.947c.011,2.028.3,1.493.516,3.365a8.638,8.638,0,0,0,1.505,4.045c.871,1.382,2.838,4.568,5.5,3.688a9.157,9.157,0,0,0,1.655-.713c.011-.011.387,3.566.29,3.6-1.741.591-2.913.5-5.192.68a4.883,4.883,0,0,0-3.117,1.827,7.349,7.349,0,0,1-3.3-5.215c-.849-4.825,2.429-6.351,1.967-8.39S.292,10.936.045,8.217a5.173,5.173,0,0,1,3.73-5.861,8,8,0,0,1,2.171-.4S6.978-.329,11.9.061c5.74.457,7.159,2.93,7.826,4.914,1.032,3.109.892,5.415,1.989,7.3,2.182,3.766,3.3,4.223,3.719,7.532.677,5.393-4.794,8.156-5.106,7.956a5.676,5.676,0,0,1-2.956-4.078c-.505-2.184-1-8.446-1-8.446A4.537,4.537,0,0,0,17.6,13.866c.344-.6.677-1.783.183-2.362a1.163,1.163,0,0,0-1.924.256,4.164,4.164,0,0,0-.516,1.215,6.668,6.668,0,0,1-.494-.691,6.169,6.169,0,0,0-1.172-1.359c-1.6-1.315-3.139-1.482-5.1-3.12C6.258,5.844,5.946,4.3,5.946,4.3Z" transform="translate(0 0.051)" fill="#07074b" fill-rule="evenodd"/>
            <g id="Group_10217" data-name="Group 10217" transform="translate(0 0.051)">
              <g id="Group_10216" data-name="Group 10216" transform="translate(0 0)">
                <g id="Group_10215" data-name="Group 10215" transform="translate(0 0)" clip-path="url(#clip-path)">
                  <g id="Group_10214" data-name="Group 10214" transform="translate(-1.154 2.095)">
                    <path id="Path_15043" data-name="Path 15043" d="M4.718.007C4.406.91,2.611,3.985,3.6,7.172c.613,2.006,1.161,1.994,1.827,3.911.548,1.571,4.16,4.2,6.718,6.607.29.267,4.353-6.942,4.944-5,2.247,7.421,6.2,12.234,10.244,6.875,2.472-3.3,1.645,8.245,1.613,8.691-.129,1.549-26.679-.846-27.6.413C.935,29.234-1.022,8.23.74,4.208A9.1,9.1,0,0,1,2.621,1.288a2.468,2.468,0,0,1,1.01-.7" transform="translate(0 0)" fill="#030921" fill-rule="evenodd"/>
                  </g>
                </g>
              </g>
            </g>
          </g>
          <g id="Group_10219" data-name="Group 10219" transform="translate(21.141 14.013)">
            <path id="Path_15045" data-name="Path 15045" d="M.506,2.841A.1.1,0,0,1,.45,2.829a.129.129,0,0,1-.067-.156.957.957,0,0,0,.022-.725C.395,1.892.35,1.859.273,1.814a.66.66,0,0,1-.233-.257,1.034,1.034,0,0,1,.3-.993c.267-.312.689-.6.944-.558a.126.126,0,0,1,.1.145.126.126,0,0,1-.144.1,1.268,1.268,0,0,0-.711.48.827.827,0,0,0-.255.748c.022.056.067.089.144.145a.494.494,0,0,1,.222.268,1.23,1.23,0,0,1-.033.893A.169.169,0,0,1,.506,2.841Z" transform="translate(0 0)" fill="#ab583b"/>
          </g>
          <g id="Group_10220" data-name="Group 10220" transform="translate(11.378 16.443)">
            <path id="Path_15046" data-name="Path 15046" d="M1.489,2.8H1.456a1.77,1.77,0,0,0-.345,0c-.378.022-.889.056-1.079-.48A1.29,1.29,0,0,1,.11,1.585,5.568,5.568,0,0,0,.344.146.147.147,0,0,1,.488,0,.147.147,0,0,1,.633.146,5.537,5.537,0,0,1,.388,1.652,1.353,1.353,0,0,0,.3,2.209c.111.312.378.312.789.29a1.689,1.689,0,0,1,.411,0,.15.15,0,0,1,.122.167A.143.143,0,0,1,1.489,2.8Z" transform="translate(0 0)" fill="#ab583b"/>
          </g>
          <g id="Group_10224" data-name="Group 10224" transform="translate(6.38 12.873)">
            <g id="Group_10221" data-name="Group 10221" transform="matrix(0.999, 0.033, -0.033, 0.999, 6.608, 0.009)">
              <path id="Path_15047" data-name="Path 15047" d="M0,1.847C-.019,1.18.829.758,2.157.392c.9-.255,3.08-.755,3.571.066A3.292,3.292,0,0,1,5.08,3.777,3.379,3.379,0,0,1,1.744,4.2,2.744,2.744,0,0,1,0,1.847Z" transform="translate(0.158 0.168)" fill="rgba(249,250,255,0.28)" fill-rule="evenodd"/>
              <path id="Path_15048" data-name="Path 15048" d="M0,2.026H0a.971.971,0,0,1,.424-.833A5.38,5.38,0,0,1,2.259.4,8.852,8.852,0,0,1,4.9.016,1.377,1.377,0,0,1,6.043.537,2.674,2.674,0,0,1,6.21,2.413a3.786,3.786,0,0,1-.826,1.665,2.4,2.4,0,0,1-1.362.666,4.223,4.223,0,0,1-2.187-.21A3.132,3.132,0,0,1,.551,3.547,2.7,2.7,0,0,1,0,2.026Zm.312-.011h0a2.279,2.279,0,0,0,.5,1.321,2.668,2.668,0,0,0,1.149.855A4.007,4.007,0,0,0,3.62,4.4a2.283,2.283,0,0,0,1.473-.6A3.233,3.233,0,0,0,5.83,2.314a2.306,2.306,0,0,0-.1-1.6A.708.708,0,0,0,5.362.449a2.672,2.672,0,0,0-.826-.1A9.588,9.588,0,0,0,2.371.716a6.311,6.311,0,0,0-1.507.566C.507,1.5.306,1.726.317,2.015Z" transform="translate(0 0)" fill="#07074b" fill-rule="evenodd"/>
            </g>
            <g id="Group_10222" data-name="Group 10222" transform="translate(12.5 1.769)">
              <path id="Path_15049" data-name="Path 15049" d="M1.719.478H1.7L.179.378A.2.2,0,0,1,0,.178.2.2,0,0,1,.2,0L1.719.1A.2.2,0,0,1,1.9.3.213.213,0,0,1,1.719.478Z" transform="translate(0 0)" fill="#0a1761"/>
            </g>
            <g id="Group_10223" data-name="Group 10223" transform="matrix(-0.952, 0.306, -0.306, -0.952, 5.978, 4.763)">
              <path id="Path_15050" data-name="Path 15050" d="M0,2.239c-.016.574.635.939,1.653,1.256.693.221,2.362.654,2.737-.053A3.116,3.116,0,0,0,3.894.58,2.335,2.335,0,0,0,0,2.239Z" transform="translate(0.163 0.182)" fill="rgba(249,250,255,0.28)" fill-rule="evenodd"/>
              <path id="Path_15051" data-name="Path 15051" d="M.005,2.421h0a2.472,2.472,0,0,1,.4-1.281,2.418,2.418,0,0,1,1.017-.9A3.078,3.078,0,0,1,2.858.014,1.946,1.946,0,0,1,4.211.648a3.366,3.366,0,0,1,.644,1.465A2.527,2.527,0,0,1,4.729,3.72a1.04,1.04,0,0,1-.9.467A6.065,6.065,0,0,1,1.77,3.839,4.877,4.877,0,0,1,.511,3.273.975.975,0,0,1,.005,2.421Zm.317.01h0A.707.707,0,0,0,.7,3.015a4.227,4.227,0,0,0,1.173.5,7.088,7.088,0,0,0,1.66.318,1.733,1.733,0,0,0,.616-.085.441.441,0,0,0,.248-.21A2.155,2.155,0,0,0,4.47,2.179,2.942,2.942,0,0,0,3.9.9,1.578,1.578,0,0,0,2.825.4a2.548,2.548,0,0,0-1.249.17,2.128,2.128,0,0,0-.88.754A2.057,2.057,0,0,0,.322,2.431Z" transform="translate(0 0)" fill="#07074b" fill-rule="evenodd"/>
            </g>
            <path id="Path_15052" data-name="Path 15052" d="M.3.9a.158.158,0,0,1-.167.133A.158.158,0,0,1,0,.872,1.085,1.085,0,0,1,.192.35.906.906,0,0,1,.683.028.876.876,0,0,1,1.063.017L1.208.05a1.82,1.82,0,0,1,.257.122,1.634,1.634,0,0,1,.324.255.155.155,0,0,1,.045.2.157.157,0,0,1-.2.044S1.42.605,1.163.55L1,.516A.755.755,0,0,0,.773.505a.532.532,0,0,0-.29.111A.743.743,0,0,0,.3.9Z" transform="translate(5.021 2.21)" fill="#07074b" fill-rule="evenodd"/>
          </g>
          <g id="Group_10229" data-name="Group 10229" transform="translate(8.108 14.078)">
            <g id="Group_10226" data-name="Group 10226" transform="translate(6.096 0.009)">
              <path id="Path_15053" data-name="Path 15053" d="M0,1.744A2.046,2.046,0,0,1,.851.327,2.407,2.407,0,0,1,2.581.039,4.118,4.118,0,0,0,3.91.006a1.737,1.737,0,0,1-.692.62,1.52,1.52,0,0,1-.67-.011A2.857,2.857,0,0,0,1.577.57,2.482,2.482,0,0,0,0,1.744Z" transform="translate(0 0)" fill="#134f99" fill-rule="evenodd"/>
              <g id="Group_10225" data-name="Group 10225" transform="translate(0.763 0.061)">
                <path id="Path_15126" data-name="Path 15126" d="M.818,0A.85.85,0,0,1,1.64.872a.845.845,0,0,1-.819.871A.85.85,0,0,1,0,.87.845.845,0,0,1,.818,0Z" transform="translate(1.975 0.268) rotate(98.789)" fill="#134f99"/>
              </g>
            </g>
            <g id="Group_10228" data-name="Group 10228" transform="matrix(-0.984, 0.178, -0.178, -0.984, 3.138, 2.607)">
              <path id="Path_15054" data-name="Path 15054" d="M.076,0A.852.852,0,0,0,.3,1a2.008,2.008,0,0,0,1.454.334,3.044,3.044,0,0,1,1.1.035A1.662,1.662,0,0,0,2.221.745a1.221,1.221,0,0,0-.6,0,1.332,1.332,0,0,1-.66.032C.372.654.28.3.076,0Z" transform="translate(0.02 0.369)" fill="#134f99" fill-rule="evenodd"/>
              <g id="Group_10227" data-name="Group 10227" transform="translate(0 0)">
                <path id="Path_15055" data-name="Path 15055" d="M.544,1.407A.6.6,0,0,0,1.326.888.743.743,0,0,0,.71.008C.292-.036.085.143.009.563A.832.832,0,0,0,.544,1.407Z" fill="#134f99" fill-rule="evenodd"/>
              </g>
            </g>
          </g>
          <path id="Path_15056" data-name="Path 15056" d="M14.195.029A5.6,5.6,0,0,0,16.439,2.3a3.461,3.461,0,0,0,3.461.066S16.45,6.208,9.484,6.285C3.243,6.352.006,3.794.006,3.794A6.093,6.093,0,0,1,1.066,2.067,5.812,5.812,0,0,1,5.71.461,9.9,9.9,0,0,0,9.1.04s.324.775,1.82.908A6.338,6.338,0,0,0,14.195.029Z" transform="translate(8.598 25.964)" fill="#ffb500" fill-rule="evenodd"/>
          <g id="Group_10230" data-name="Group 10230" transform="matrix(0.933, 0.36, -0.36, 0.933, 17.124, 26.697)">
            <path id="Path_15057" data-name="Path 15057" d="M3.135.466A3.068,3.068,0,0,1,.058.258a.132.132,0,0,1-.022-.2.133.133,0,0,1,.2-.022A2.784,2.784,0,0,0,3.3.043a.152.152,0,0,1,.2.022.151.151,0,0,1-.023.2A1.579,1.579,0,0,1,3.135.466Z" transform="translate(0 0)" fill="#ae5d41"/>
          </g>
          <g id="Group_10231" data-name="Group 10231" transform="translate(17.322 22.514)">
            <path id="Path_15058" data-name="Path 15058" d="M.13,1.784a.123.123,0,0,1-.111-.067A.126.126,0,0,1,.063,1.55,6.641,6.641,0,0,0,1.7.157.592.592,0,0,1,1.824.035a.112.112,0,0,1,.167.011A.112.112,0,0,1,1.98.213L1.868.324A7.231,7.231,0,0,1,.163,1.761C.163,1.772.152,1.784.13,1.784Z" transform="translate(0 0)" fill="#ae5d41"/>
          </g>
        </g>
      </g>
      <g id="Group_10234" data-name="Group 10234" transform="translate(51.999 8)">
        <g id="Group_10233" data-name="Group 10233">
          <path id="Path_15059" data-name="Path 15059" d="M614.7,276.432h-4.6L618.257,259h3.62l8.179,17.432h-4.526L619.62,262.7h1.006Zm-.838-3.6,1.788-3.453H624.2l1.766,3.453Z" transform="translate(-610.1 -258.408)" fill="#07074b"/>
          <path id="Path_15060" data-name="Path 15060" d="M795.5,271.724V253.7h4.436v18.024Z" transform="translate(-774.689 -253.7)" fill="#07074b"/>
          <path id="Path_15061" data-name="Path 15061" d="M848.8,317.1l-5.9-13.5h4.6l3.185,8.2Zm-4,4.537-1.028-3.375a9.4,9.4,0,0,0,1.9-.536,3.743,3.743,0,0,0,1.207-.771,3.83,3.83,0,0,0,.76-1.062l1.028-2.257,1.207-1.821,3.307-8.2h4.358l-5.71,12.884A9.366,9.366,0,0,1,850,319.333a7.209,7.209,0,0,1-2.347,1.587A10.452,10.452,0,0,1,844.8,321.635Z" transform="translate(-816.751 -297.635)" fill="#07074b"/>
          <path id="Path_15062" data-name="Path 15062" d="M978.678,313.885a9.968,9.968,0,0,1-5.878-1.542l1.129-3.107a7.741,7.741,0,0,0,2.291,1.093,8.413,8.413,0,0,0,2.481.391,2.511,2.511,0,0,0,1.173-.23.684.684,0,0,0,.413-.633.626.626,0,0,0-.3-.552,4.013,4.013,0,0,0-1.162-.4l-2.011-.483a5.275,5.275,0,0,1-2.76-1.278,3.291,3.291,0,0,1-.849-2.405,3.562,3.562,0,0,1,.715-2.2,4.579,4.579,0,0,1,1.967-1.5,7.377,7.377,0,0,1,2.905-.541,8.754,8.754,0,0,1,2.671.414,10.281,10.281,0,0,1,2.4,1.128l-1.173,3.027a8.709,8.709,0,0,0-2.011-1.013,6.1,6.1,0,0,0-1.933-.357,2.342,2.342,0,0,0-1.14.242.744.744,0,0,0-.425.691.487.487,0,0,0,.246.437,3.465,3.465,0,0,0,.927.345l2.078.483a5.5,5.5,0,0,1,2.849,1.393,3.543,3.543,0,0,1,.872,2.52,3.507,3.507,0,0,1-1.453,2.981A6.576,6.576,0,0,1,978.678,313.885Z" transform="translate(-932.069 -295.27)" fill="#07074b"/>
          <path id="Path_15063" data-name="Path 15063" d="M1093.339,313.973a7.621,7.621,0,0,1-3.632-.806,5.748,5.748,0,0,1-2.369-2.313,7.964,7.964,0,0,1,0-7.113,5.778,5.778,0,0,1,2.369-2.325,7.653,7.653,0,0,1,3.632-.817,7.532,7.532,0,0,1,3.587.817,5.683,5.683,0,0,1,2.358,2.325,7.965,7.965,0,0,1,0,7.113,5.722,5.722,0,0,1-2.358,2.313A7.667,7.667,0,0,1,1093.339,313.973Zm0-3.407a2.145,2.145,0,0,0,1.777-.783,5.293,5.293,0,0,0,.011-4.972,2.152,2.152,0,0,0-1.788-.783,2.19,2.19,0,0,0-1.822.783,3.972,3.972,0,0,0-.626,2.474,4.025,4.025,0,0,0,.626,2.5A2.191,2.191,0,0,0,1093.339,310.567Z" transform="translate(-1032.992 -295.359)" fill="#07074b"/>
          <path id="Path_15064" data-name="Path 15064" d="M1225.49,313.772v-9.131c0-.61-.011-1.22-.034-1.842s-.078-1.232-.156-1.842h4.168l.29,2.418-.29-.127a5.174,5.174,0,0,1,1.8-1.957,4.748,4.748,0,0,1,2.559-.691c2.928,0,4.38,1.842,4.38,5.527v7.645h-4.436v-7.45a2.9,2.9,0,0,0-.391-1.7,1.436,1.436,0,0,0-1.229-.518,2.07,2.07,0,0,0-1.62.691,2.635,2.635,0,0,0-.615,1.831v7.139h-4.425Z" transform="translate(-1156.206 -295.359)" fill="#07074b"/>
        </g>
      </g>
    </g>
  </g>
</svg>
